<?xml version="1.0" encoding="UTF-8" standalone="no"?>
<!-- Generator: Adobe Illustrator 12.0.0, SVG Export Plug-In . SVG Version: 6.00 Build 51448)  -->

<svg
   version="1.0"
   id="Layer_1"
   width="450"
   height="450"
   viewBox="0 0 448.94922 449.99951"
   overflow="visible"
   enable-background="new 0 0 448.9492188 449.9995117"
   xml:space="preserve"
   sodipodi:version="0.32"
   inkscape:version="1.3.2 (091e20e, 2023-11-25, custom)"
   sodipodi:docname="CC 215.svg"
   inkscape:output_extension="org.inkscape.output.svg.inkscape"
   xmlns:inkscape="http://www.inkscape.org/namespaces/inkscape"
   xmlns:sodipodi="http://sodipodi.sourceforge.net/DTD/sodipodi-0.dtd"
   xmlns="http://www.w3.org/2000/svg"
   xmlns:svg="http://www.w3.org/2000/svg"
   xmlns:rdf="http://www.w3.org/1999/02/22-rdf-syntax-ns#"
   xmlns:cc="http://creativecommons.org/ns#"
   xmlns:dc="http://purl.org/dc/elements/1.1/"><title
   id="title1">Clark County Route</title><metadata
   id="metadata54"><rdf:RDF><cc:Work
       rdf:about=""><dc:format>image/svg+xml</dc:format><dc:type
         rdf:resource="http://purl.org/dc/dcmitype/StillImage" /><dc:title>Clark County Route</dc:title></cc:Work></rdf:RDF></metadata><defs
   id="defs52"><inkscape:perspective
   sodipodi:type="inkscape:persp3d"
   inkscape:vp_x="0 : 225 : 1"
   inkscape:vp_y="0 : 1000 : 0"
   inkscape:vp_z="450 : 225 : 1"
   inkscape:persp3d-origin="225 : 150 : 1"
   id="perspective9" />
	
	
	
	
<inkscape:perspective
   id="perspective16"
   inkscape:persp3d-origin="375.5 : 200.33333 : 1"
   inkscape:vp_z="751 : 300.5 : 1"
   inkscape:vp_y="0 : 1000 : 0"
   inkscape:vp_x="0 : 300.5 : 1"
   sodipodi:type="inkscape:persp3d" /></defs><sodipodi:namedview
   inkscape:window-height="829"
   inkscape:window-width="1600"
   inkscape:pageshadow="2"
   inkscape:pageopacity="0.0"
   borderopacity="1.0"
   bordercolor="#666666"
   pagecolor="#ffffff"
   id="base"
   inkscape:zoom="1.6755556"
   inkscape:cx="175.7626"
   inkscape:cy="207.3939"
   inkscape:window-x="-8"
   inkscape:window-y="-8"
   inkscape:current-layer="g3"
   showgrid="false"
   showguides="true"
   inkscape:guide-bbox="true"
   inkscape:showpageshadow="2"
   inkscape:pagecheckerboard="0"
   inkscape:deskcolor="#d1d1d1"
   inkscape:window-maximized="1" />
<g
   id="g3">
	<path
   clip-rule="evenodd"
   d="M 94.170481,449.99951 L 1.4208031,128.3374 C 0.15368547,123.94092 -0.525145,119.29639 -0.525145,114.49365 C -0.525145,93.491699 12.453388,75.514648 30.844947,68.108887 L 177.5849,9.0478516 C 192.06841,3.2128906 207.89539,0 224.47461,0 C 241.05334,0 256.88033,3.2128906 271.36432,9.0478516 L 418.10427,68.108887 C 436.49583,75.514648 449.47437,93.491699 449.47437,114.49365 C 449.47437,119.29639 448.79602,123.94092 447.52841,128.3374 L 354.77873,449.99951 L 94.170481,449.99951 L 94.170481,449.99951 z "
   id="path5"
   style="fill:#003882;fill-rule:evenodd" />
	<path
   style="fill:#f7d117;fill-rule:evenodd"
   d="M 225 6 C 209.2058 5.9999998 194.15474 9.073237 180.375 14.625 L 33.625 73.6875 C 17.429467 80.208501 5.9999998 96.027814 6 114.5 C 5.9999998 118.73633 6.6053102 122.8252 7.71875 126.6875 L 99.21875 444 L 350.78125 444 L 442.28125 126.6875 C 443.39519 122.8252 444 118.73633 444 114.5 C 444 96.027812 432.57103 80.2085 416.375 73.6875 L 269.625 14.625 C 255.84477 9.0732364 240.7947 5.9999999 225 6 z M 225 12 C 240.00966 12 254.29954 14.919428 267.375 20.1875 L 414.125 79.25 C 428.1235 84.886237 437.96875 98.555649 437.96875 114.5 C 437.96874 118.16992 437.45927 121.70215 436.5 125.03125 L 346.25 438 L 103.75 438 L 13.5 125.03125 C 12.540729 121.70263 12.03125 118.16992 12.03125 114.5 C 12.03125 98.555647 21.876983 84.886236 35.875 79.25 L 182.625 20.1875 C 195.70142 14.919427 209.99034 12 225 12 z M 168.96875 100 C 166.93913 100.00004 165.17056 100.32483 163.65625 101 C 162.14192 101.67525 160.84985 102.68432 159.78125 104 C 158.53435 105.59885 157.55579 107.68619 156.84375 110.28125 C 156.1317 112.87637 155.78125 115.59458 155.78125 118.4375 C 155.78125 120.67629 156.00564 122.86753 156.46875 125 C 156.93185 127.13249 157.55642 128.99385 158.375 130.59375 C 159.51535 132.79782 160.97341 134.43831 162.71875 135.46875 C 164.46407 136.49919 166.67166 137 169.34375 137 C 174.40197 137 177.98775 134.3846 180.125 129.125 L 174.75 127.09375 C 174.03793 128.55157 173.23406 129.59269 172.34375 130.25 C 171.4534 130.90732 170.3996 131.25 169.1875 131.25 C 167.94168 131.25001 166.88623 131.02458 166.03125 130.5625 C 165.17624 130.10043 164.42263 129.3929 163.78125 128.46875 C 163.06919 127.33202 162.51689 125.85765 162.125 124.0625 C 161.73309 122.26737 161.53124 120.39211 161.53125 118.4375 C 161.53124 116.90921 161.64343 115.42604 161.875 113.96875 C 162.10654 112.51151 162.47438 111.25376 162.9375 110.1875 C 163.543 108.58763 164.33301 107.45649 165.3125 106.78125 C 166.29196 106.10607 167.50877 105.75003 168.96875 105.75 C 169.64599 105.75003 170.23362 105.79944 170.75 105.90625 C 171.26635 106.01312 171.74231 106.21584 172.1875 106.5 C 172.63264 106.78422 173.05889 107.18966 173.46875 107.6875 C 173.87856 108.1854 174.34476 108.78502 174.84375 109.53125 L 180.125 107.3125 C 178.91395 104.78957 177.41949 102.92311 175.65625 101.75 C 173.89296 100.57696 171.67668 100.00004 168.96875 100 z M 111.84375 100.625 L 111.84375 136.375 L 117.5 136.375 L 117.5 120.78125 L 124.3125 120.78125 L 130.0625 136.375 L 136.21875 136.375 L 129.90625 119.6875 C 130.72589 119.33174 131.49282 118.82748 132.1875 118.1875 C 132.88213 117.54756 133.45698 116.83068 133.9375 116.03125 C 134.41797 115.23186 134.79504 114.37502 135.0625 113.46875 C 135.3299 112.56252 135.46872 111.61621 135.46875 110.65625 C 135.46872 109.76792 135.32989 108.87557 135.0625 107.96875 C 134.79505 107.06199 134.41797 106.20569 133.9375 105.40625 C 133.45698 104.60687 132.87804 103.90334 132.21875 103.28125 C 131.5594 102.65922 130.84627 102.14052 130.0625 101.75 C 129.17215 101.32267 128.24739 101.03503 127.25 100.875 C 126.25257 100.71505 125.04553 100.62504 123.65625 100.625 L 111.84375 100.625 z M 142.21875 100.625 L 142.21875 136.375 L 148 136.375 L 148 100.625 L 142.21875 100.625 z M 187.9375 100.625 L 187.9375 136.375 L 193.59375 136.375 L 193.59375 120.78125 L 206.625 120.78125 L 206.625 136.375 L 212.28125 136.375 L 212.28125 100.625 L 206.625 100.625 L 206.625 115.03125 L 193.59375 115.03125 L 193.59375 100.625 L 187.9375 100.625 z M 220.8125 100.625 L 220.8125 136.375 L 243.03125 136.375 L 243.03125 131.09375 L 226.46875 131.09375 L 226.46875 100.625 L 220.8125 100.625 z M 257.53125 100.625 L 245.1875 136.375 L 251.25 136.375 L 254.75 126.34375 L 265.9375 126.34375 L 269.46875 136.375 L 275.5 136.375 L 263.15625 100.625 L 257.53125 100.625 z M 280.90625 100.625 L 280.90625 136.375 L 286.5625 136.375 L 286.5625 112.15625 L 300.25 136.375 L 305.28125 136.375 L 305.28125 100.625 L 299.625 100.625 L 299.625 123.46875 L 286.5625 100.625 L 280.90625 100.625 z M 313.78125 100.625 L 313.78125 136.375 L 324.6875 136.375 L 326.71875 136.375 C 327.64493 136.30341 328.56045 136.10068 329.46875 135.78125 C 330.377 135.46181 331.16648 134.98371 331.84375 134.34375 C 333.87441 132.77965 335.44467 130.62501 336.53125 127.90625 C 337.61777 125.18751 338.15622 122.0278 338.15625 118.4375 C 338.15622 114.88303 337.64031 111.75002 336.625 109.03125 C 335.60963 106.31253 334.1695 104.13573 332.28125 102.5 C 331.78225 102.14534 331.30221 101.84272 330.875 101.59375 C 330.44775 101.34485 329.97178 101.14213 329.4375 101 C 328.90317 100.85794 328.31502 100.77248 327.65625 100.71875 C 326.99745 100.66509 326.2039 100.62504 325.3125 100.625 L 313.78125 100.625 z M 117.5 106.28125 L 124.3125 106.28125 C 125.23869 106.28128 125.88933 106.34859 126.28125 106.4375 C 126.67313 106.52647 127.09938 106.68914 127.5625 106.9375 C 128.27561 107.3291 128.82738 107.85606 129.21875 108.53125 C 129.61008 109.20649 129.81247 109.91001 129.8125 110.65625 C 129.81248 111.40253 129.61008 112.11941 129.21875 112.8125 C 128.82738 113.50563 128.27562 114.04704 127.5625 114.4375 C 127.09938 114.687 126.65927 114.86647 126.25 114.9375 C 125.84069 115.00857 125.2039 115.03127 124.3125 115.03125 L 117.5 115.03125 L 117.5 106.28125 z M 319.4375 106.28125 L 325.875 106.28125 C 326.6229 106.28128 327.30072 106.4346 327.90625 106.71875 C 328.51174 107.00297 329.03689 107.355 329.5 107.78125 C 330.39031 108.70542 331.07682 110.11594 331.59375 112 C 332.11064 113.88411 332.37499 116.02085 332.375 118.4375 C 332.37498 120.81839 332.11473 122.94632 331.5625 124.8125 C 331.01024 126.6787 330.1936 128.15252 329.125 129.21875 C 328.62601 129.71662 328.06092 130.06812 327.4375 130.28125 C 326.81404 130.4944 326.0512 130.59375 325.125 130.59375 L 319.4375 130.59375 L 319.4375 106.28125 z M 260.4375 110.5625 L 263.90625 120.59375 L 256.75 120.59375 L 260.4375 110.5625 z M 162.53125 177.59375 C 160.50695 180.47857 157.97166 182.69613 154.9375 184.28125 C 151.90328 185.86664 148.87792 186.68764 145.84375 186.6875 L 144.3125 186.6875 L 144.3125 205.03125 L 157.53125 205.03125 L 157.53125 322.40625 L 180.9375 322.40625 L 180.9375 177.59375 L 162.53125 177.59375 z M 215.5 177.59375 L 215.5 322.40625 L 305.6875 322.40625 L 305.6875 299.0625 L 238.5 299.0625 L 238.5 259.28125 L 280.75 259.28125 L 280.75 235.9375 L 238.5 235.9375 L 238.5 200.5 L 301.125 200.5 L 301.125 177.59375 L 215.5 177.59375 z M 150.59375 363 C 148.56437 363.00004 146.79538 363.32481 145.28125 364 C 143.7671 364.67525 142.47472 365.68431 141.40625 367 C 140.1595 368.59885 139.1807 370.68618 138.46875 373.28125 C 137.75678 375.87637 137.40624 378.59459 137.40625 381.4375 C 137.40625 383.67629 137.6307 385.86754 138.09375 388 C 138.55679 390.13249 139.21276 391.99386 140.03125 393.59375 C 141.17147 395.79782 142.59862 397.43831 144.34375 398.46875 C 146.08886 399.49919 148.29698 399.99998 150.96875 400 C 156.02637 400 159.64425 397.38462 161.78125 392.125 L 156.375 390.09375 C 155.66302 391.55157 154.85896 392.5927 153.96875 393.25 C 153.07851 393.90732 152.02444 394.25 150.8125 394.25 C 149.56682 394.25001 148.51114 394.02458 147.65625 393.5625 C 146.80134 393.10043 146.04755 392.39292 145.40625 391.46875 C 144.69428 390.33202 144.14184 388.85766 143.75 387.0625 C 143.35814 385.26737 143.18748 383.39212 143.1875 381.4375 C 143.18749 379.90921 143.29972 378.42604 143.53125 376.96875 C 143.76276 375.51151 144.09945 374.25376 144.5625 373.1875 C 145.16793 371.58763 145.95813 370.4565 146.9375 369.78125 C 147.91684 369.10607 149.13394 368.75004 150.59375 368.75 C 151.27091 368.75003 151.85867 368.79943 152.375 368.90625 C 152.89129 369.01312 153.39862 369.21583 153.84375 369.5 C 154.28884 369.78422 154.71519 370.18966 155.125 370.6875 C 155.53476 371.1854 155.96981 371.78503 156.46875 372.53125 L 161.78125 370.3125 C 160.57034 367.78957 159.07554 365.92311 157.3125 364.75 C 155.54942 363.57696 153.30136 363.00002 150.59375 363 z M 181.84375 363 C 179.7785 363.00004 178.00952 363.34217 176.53125 364 C 175.05297 364.65789 173.78723 365.6496 172.71875 367 C 171.50787 368.70623 170.53831 370.82028 169.84375 373.34375 C 169.14918 375.86728 168.81249 378.61327 168.8125 381.5625 C 168.8125 383.69608 169.03695 385.84563 169.5 388.03125 C 169.96304 390.21689 170.56467 392.06545 171.3125 393.59375 C 172.38098 395.79782 173.73694 397.43831 175.375 398.46875 C 177.01304 399.49919 179.09563 399.99998 181.625 400 C 185.40001 400 188.28665 398.66505 190.28125 396 C 191.52797 394.4001 192.51084 392.31331 193.1875 389.71875 C 193.86411 387.12421 194.18748 384.40654 194.1875 381.5625 C 194.18747 379.32374 193.98965 377.13249 193.5625 375 C 193.1353 372.86755 192.52906 371.00617 191.78125 369.40625 C 190.641 367.2033 189.2902 365.56226 187.6875 364.53125 C 186.08475 363.5003 184.1231 363.00002 181.84375 363 z M 202.125 363.625 L 202.125 386.5625 C 202.125 387.94873 202.24592 389.25642 202.53125 390.5 C 202.81657 391.74359 203.22091 392.90252 203.71875 393.96875 C 204.18179 394.85819 204.79673 395.6779 205.5625 396.40625 C 206.32826 397.13461 207.16764 397.74812 208.09375 398.28125 C 209.01983 398.81437 210.0114 399.22915 211.0625 399.53125 C 212.11358 399.83333 213.20813 399.99998 214.3125 400 C 215.41575 400 216.48014 399.83332 217.53125 399.53125 C 218.58232 399.22917 219.57389 398.81436 220.5 398.28125 C 221.42607 397.74813 222.25214 397.13462 223 396.40625 C 223.74781 395.67789 224.34942 394.8582 224.8125 393.96875 C 225.31139 392.90252 225.7285 391.74358 226.03125 390.5 C 226.33394 389.25643 226.46873 387.94872 226.46875 386.5625 L 226.46875 363.625 L 220.8125 363.625 L 220.8125 386.5625 C 220.81248 388.90759 220.22417 390.77005 219.03125 392.15625 C 217.83829 393.54248 216.27119 394.25 214.3125 394.25 C 212.35269 394.25001 210.75543 393.54248 209.5625 392.15625 C 208.36955 390.77004 207.78124 388.90757 207.78125 386.5625 L 207.78125 363.625 L 202.125 363.625 z M 235 363.625 L 235 399.375 L 240.65625 399.375 L 240.65625 375.15625 L 254.3125 399.375 L 259.34375 399.375 L 259.34375 363.625 L 253.6875 363.625 L 253.6875 386.46875 L 240.65625 363.625 L 235 363.625 z M 264.71875 363.625 L 264.71875 368.65625 L 272.875 368.65625 L 272.875 399.375 L 278.53125 399.375 L 278.53125 368.65625 L 286.8125 368.65625 L 286.8125 363.625 L 264.71875 363.625 z M 289.5625 363.625 L 302.125 383.78125 L 302.125 399.375 L 307.78125 399.375 L 307.78125 383.78125 L 320.21875 363.625 L 313.53125 363.625 L 304.875 377.4375 L 296.34375 363.625 L 289.5625 363.625 z M 181.75 368.75 C 182.81847 368.82162 183.70758 369.07374 184.4375 369.5 C 185.16738 369.92631 185.80541 370.60712 186.375 371.53125 C 187.08803 372.73961 187.64399 374.21344 188 375.9375 C 188.35596 377.66162 188.53123 379.53742 188.53125 381.5625 C 188.53123 382.27407 188.47742 383.00376 188.40625 383.75 C 188.33503 384.49627 188.24943 385.20862 188.125 385.9375 C 188.00052 386.66642 187.86574 387.37394 187.6875 388.03125 C 187.50922 388.68858 187.30324 389.25668 187.125 389.71875 C 186.51954 391.31866 185.77906 392.47704 184.90625 393.1875 C 184.0334 393.89797 182.94239 394.25 181.625 394.25 C 180.48476 394.25001 179.53314 394.02458 178.75 393.5625 C 177.96683 393.10043 177.28939 392.39292 176.71875 391.46875 C 176.00678 390.33202 175.48097 388.87101 175.125 387.09375 C 174.76901 385.31652 174.59375 383.48239 174.59375 381.5625 C 174.59374 380.07 174.70597 378.57292 174.9375 377.0625 C 175.16901 375.55211 175.50569 374.25376 175.96875 373.1875 C 176.57418 371.58763 177.35514 370.42923 178.28125 369.71875 C 179.20733 369.00832 180.36084 368.67954 181.75 368.75 z "
   transform="matrix(0.9999989,0,0,0.9999989,-0.525145,0)"
   id="path7" />
	
	
<path
   style="fill:#003882;fill-rule:evenodd"
   id="path2411"
   d="M 102.88082,430.58692 L 18.133431,131.24743 C 16.975636,127.15606 16.355375,122.83385 16.355375,118.36441 C 16.355375,98.819943 28.214139,82.090461 45.018906,75.198643 L 179.09839,20.23631 C 192.33229,14.806283 206.79373,11.816359 221.94253,11.816359 C 237.09088,11.816359 251.55233,14.806283 264.78667,20.23631 L 398.86616,75.198643 C 415.67092,82.090461 427.5297,98.819943 427.5297,118.36441 C 427.5297,122.83385 426.90988,127.15606 425.75164,131.24743 L 341.00423,430.58692 L 102.88082,430.58692 L 102.88082,430.58692 z"
   clip-rule="evenodd" /><rect
   style="fill:#f7d117;fill-opacity:1"
   id="rect2429"
   width="311.32141"
   height="311.32141"
   x="144.75555"
   y="-173.20158"
   ry="87.701874"
   transform="matrix(0.7071066,0.7071069,-0.7071066,0.7071069,0,0)"
   rx="87.37326" /><rect
   rx="79.302315"
   transform="matrix(0.7071066,0.7071069,-0.7071066,0.7071069,0,0)"
   ry="78.589272"
   y="-166.43855"
   x="150.6745"
   height="297.79541"
   width="297.79541"
   id="rect2461"
   style="fill:#003882;fill-opacity:1" /><rect
   style="fill:#f7d117;fill-opacity:1"
   id="rect2463"
   width="229.37384"
   height="229.37384"
   x="185.48212"
   y="-131.03413"
   ry="55.553349"
   transform="matrix(0.7071066,0.707107,-0.7071066,0.707107,0,0)"
   rx="55.578049" /><flowRoot
   xml:space="preserve"
   id="flowRoot2478"
   style="font-style:normal;font-weight:normal;line-height:0.01%;font-family:'Bitstream Vera Sans';fill:#000000;fill-opacity:1;stroke:none;stroke-width:1px;stroke-linecap:butt;stroke-linejoin:miter;stroke-opacity:1"><flowRegion
     id="flowRegion2480"><rect
       id="rect2482"
       width="173.02528"
       height="82.714523"
       x="476.3494"
       y="206.07607" /></flowRegion><flowPara
     id="flowPara2484"
     style="font-style:italic;font-weight:normal;font-size:40px;line-height:1.25"> </flowPara></flowRoot><flowRoot
   xml:space="preserve"
   id="flowRoot2486"
   style="font-style:normal;font-weight:normal;line-height:0.01%;font-family:'Bitstream Vera Sans';fill:#000000;fill-opacity:1;stroke:none;stroke-width:1px;stroke-linecap:butt;stroke-linejoin:miter;stroke-opacity:1"><flowRegion
     id="flowRegion2488"><rect
       id="rect2490"
       width="124.91581"
       height="98.751015"
       x="485.63367"
       y="242.36917" /></flowRegion><flowPara
     id="flowPara2492"
     style="font-size:40px;line-height:1.25"> </flowPara></flowRoot><text
   xml:space="preserve"
   style="font-style:normal;font-weight:normal;line-height:0%;font-family:'Bitstream Vera Sans';fill:#000000;fill-opacity:1;stroke:none;stroke-width:1px;stroke-linecap:butt;stroke-linejoin:miter;stroke-opacity:1"
   x="516.86261"
   y="274.44217"
   id="text2494"><tspan
     sodipodi:role="line"
     id="tspan2496"
     x="516.86261"
     y="274.44217"
     style="font-size:40px;line-height:1.25"> </tspan></text>
<flowRoot
   xml:space="preserve"
   id="flowRoot2498"
   style="font-style:normal;font-weight:bold;line-height:0.01%;font-family:'Bitstream Vera Sans';fill:#000000;fill-opacity:1;stroke:none;stroke-width:1px;stroke-linecap:butt;stroke-linejoin:miter;stroke-opacity:1"><flowRegion
     id="flowRegion2500"><rect
       id="rect2502"
       width="221.97876"
       height="125.75983"
       x="470.44122"
       y="209.45218"
       style="font-weight:bold" /></flowRegion><flowPara
     id="flowPara2504"
     style="font-size:40px;line-height:1.25"> </flowPara></flowRoot><text
   xml:space="preserve"
   style="font-style:normal;font-weight:normal;line-height:0%;font-family:'Bitstream Vera Sans';fill:#000000;fill-opacity:1;stroke:none;stroke-width:1px;stroke-linecap:butt;stroke-linejoin:miter;stroke-opacity:1"
   x="567.50415"
   y="217.04842"
   id="text2506"><tspan
     sodipodi:role="line"
     id="tspan2508"
     x="567.50415"
     y="217.04842"
     style="font-size:40px;line-height:1.25"> </tspan></text>
<text
   xml:space="preserve"
   style="font-style:normal;font-weight:normal;line-height:0%;font-family:'Bitstream Vera Sans';fill:#000000;fill-opacity:1;stroke:none;stroke-width:1px;stroke-linecap:butt;stroke-linejoin:miter;stroke-opacity:1"
   x="665.41113"
   y="140.24207"
   id="text2510"><tspan
     sodipodi:role="line"
     id="tspan2512"
     x="665.41113"
     y="140.24207"
     style="font-size:40px;line-height:1.25"> </tspan></text>
<path
   style="font-size:41.99995422px;font-style:normal;font-variant:normal;font-weight:bold;font-stretch:normal;text-align:start;line-height:125%;writing-mode:lr-tb;text-anchor:start;fill:#f7d117;fill-opacity:1;stroke:none;stroke-width:1px;stroke-linecap:butt;stroke-linejoin:miter;stroke-opacity:1;font-family:Corbel;-inkscape-font-specification:Corbel Bold"
   inkscape:transform-center-x="14.975546"
   inkscape:transform-center-y="4.9480676"
   d="M 255.50521,38.768436 C 254.22237,38.295618 252.96094,38.071093 251.72094,38.09486 C 250.48091,38.118663 249.32391,38.391611 248.24993,38.913703 C 247.17592,39.43583 246.20217,40.209808 245.32865,41.235636 C 244.45511,42.261492 243.73701,43.53769 243.17435,45.064236 C 242.61639,46.577969 242.32467,47.982185 242.29917,49.276878 C 242.27364,50.571583 242.49106,51.740904 242.95139,52.784832 C 243.41172,53.828771 244.10536,54.743777 245.03231,55.529853 C 245.95923,56.315926 247.10258,56.959568 248.46239,57.460774 C 249.43732,57.820128 250.45988,58.109605 251.53007,58.329208 C 252.60021,58.548808 253.63223,58.674208 254.62615,58.70542 L 253.12964,62.765543 C 252.13707,62.691116 251.09408,62.536171 250.00064,62.300708 C 248.90715,62.065227 247.8024,61.741807 246.68637,61.330448 C 244.50556,60.526623 242.70241,59.508653 241.27691,58.276533 C 239.85139,57.044408 238.79305,55.656199 238.10188,54.111902 C 237.4107,52.567608 237.07806,50.900478 237.10399,49.11051 C 237.1299,47.320552 237.49514,45.469872 238.19966,43.558461 C 238.92309,41.595763 239.89278,39.884096 241.1087,38.423455 C 242.32463,36.962848 243.72077,35.823647 245.29717,35.005853 C 246.87355,34.1881 248.63522,33.737323 250.5822,33.653529 C 252.52916,33.569778 254.56974,33.913931 256.70397,34.685985 C 257.79433,35.087917 258.79982,35.542308 259.72041,36.049167 C 260.64095,36.556065 261.44284,37.088416 262.1261,37.646219 L 260.65086,41.648614 C 259.74278,40.949655 258.86983,40.372901 258.032,39.918349 C 257.19411,39.463824 256.35184,39.080522 255.50521,38.768436 L 255.50521,38.768436 z"
   id="flowRoot2631" /><path
   style="font-size:41.99995422px;font-style:normal;font-variant:normal;font-weight:bold;font-stretch:normal;text-align:start;line-height:125%;writing-mode:lr-tb;text-anchor:start;fill:#f7d117;fill-opacity:1;stroke:none;stroke-width:1px;stroke-linecap:butt;stroke-linejoin:miter;stroke-opacity:1;font-family:Corbel;-inkscape-font-specification:Corbel Bold"
   d="M 89.396354,134.49805 C 88.433197,135.4684 87.70478,136.52243 87.211104,137.66017 C 86.717442,138.79795 86.4849,139.96375 86.513476,141.15756 C 86.542068,142.35142 86.841392,143.55875 87.411452,144.77956 C 87.981522,146.00041 88.843893,147.18391 89.998566,148.33006 C 91.143541,149.46661 92.299529,150.31549 93.46654,150.87671 C 94.633554,151.43796 95.787471,151.72613 96.928301,151.74124 C 98.069124,151.75637 99.189628,151.5057 100.28982,150.98924 C 101.39,150.4728 102.45057,149.70032 103.47153,148.67176 C 104.20353,147.93434 104.89176,147.12455 105.53624,146.24241 C 106.18069,145.3603 106.72362,144.47371 107.16505,143.58265 L 110.23609,146.63107 C 109.75593,147.50294 109.18156,148.38722 108.513,149.28392 C 107.84441,150.18066 107.09114,151.0511 106.2532,151.89526 C 104.61581,153.54481 102.94058,154.76186 101.22751,155.54643 C 99.514416,156.33101 97.811943,156.71676 96.120082,156.70367 C 94.428211,156.6906 92.773626,156.30035 91.156309,155.53293 C 89.538994,154.76551 88.007452,153.66424 86.561674,152.22912 C 85.077107,150.7555 83.92319,149.1622 83.099938,147.44925 C 82.27671,145.73632 81.820722,143.99302 81.731975,142.21934 C 81.643254,140.4457 81.96533,138.65602 82.698205,136.85029 C 83.431103,135.04461 84.59212,133.33158 86.18126,131.7112 C 86.999957,130.88646 87.831097,130.16074 88.674681,129.53403 C 89.518277,128.90739 90.33572,128.39924 91.127012,128.00957 L 94.154397,131.01465 C 93.141287,131.55014 92.253926,132.10447 91.492309,132.67764 C 90.730698,133.25087 90.032047,133.85767 89.396354,134.49805 L 89.396354,134.49805 z M 98.160888,120.37038 L 114.6514,136.73935 L 123.69551,127.62809 L 126.67924,130.58982 L 114.0955,143.26699 L 94.621259,123.93629 L 98.160888,120.37038 z M 136.09129,111.18127 L 128.80977,118.51686 L 131.88032,125.35012 L 128.10953,129.1489 L 116.3069,102.08963 L 119.54313,98.829367 L 146.68897,110.43151 L 142.94708,114.20119 L 136.09129,111.18127 z M 122.5972,105.12614 C 123.96064,107.82802 125.06157,110.12482 125.89997,112.01654 L 126.96741,114.40531 L 131.96623,109.36937 L 129.56963,108.31964 C 127.66204,107.48564 125.35716,106.40173 122.65499,105.06792 L 122.5972,105.12614 z M 150.14264,79.704993 C 151.50108,81.053451 152.28011,82.5732 152.47971,84.264255 C 152.67931,85.955359 152.22698,87.813193 151.1227,89.837771 L 151.18092,89.89556 L 164.93611,92.048884 L 160.68856,96.327977 L 147.89033,94.142107 L 145.46316,96.587307 L 153.00251,104.07109 L 149.46288,107.637 L 129.98865,88.306296 L 135.86877,82.382519 C 136.84157,81.402529 137.80274,80.545816 138.75227,79.812373 C 139.70181,79.078996 140.58675,78.52226 141.40708,78.142156 C 142.98026,77.430639 144.50442,77.19057 145.97957,77.421936 C 147.45473,77.653363 148.84242,78.414381 150.14264,79.704993 L 150.14264,79.704993 z M 144.22758,91.864455 C 145.03664,91.049405 145.68651,90.321937 146.17719,89.682048 C 146.66787,89.0422 147.03306,88.455963 147.27278,87.923336 C 147.71383,86.935644 147.83631,86.069948 147.64021,85.326248 C 147.44411,84.582597 147.0404,83.907363 146.42911,83.300546 C 145.90514,82.780465 145.33345,82.429716 144.71406,82.24829 C 144.09467,82.06693 143.40848,82.122641 142.6555,82.415422 C 142.16314,82.600953 141.62534,82.914719 141.04208,83.356723 C 140.45884,83.79878 139.79158,84.398218 139.0403,85.155038 L 136.512,87.702116 L 142.47944,93.625578 L 144.22758,91.864455 z M 168.07122,88.8905 L 148.59698,69.559795 L 152.13661,65.993884 L 161.00045,74.792389 L 161.05824,74.734171 L 159.49037,58.585528 L 163.8824,54.160888 L 165.47051,71.861092 L 184.02122,72.822074 L 179.48472,77.392257 L 162.87757,76.540101 L 162.81979,76.598319 L 171.61085,85.32459 L 168.07122,88.8905 z"
   id="flowRoot2640" /><path
   style="font-size:32.000103px;font-style:normal;font-variant:normal;font-weight:bold;font-stretch:normal;text-align:start;line-height:125%;writing-mode:lr-tb;text-anchor:start;fill:#f7d117;fill-opacity:1;stroke:none;stroke-width:1px;stroke-linecap:butt;stroke-linejoin:miter;stroke-opacity:1;font-family:Corbel;-inkscape-font-specification:Corbel Bold"
   d="M 274.44766,354.44424 L 255.31733,334.7731 L 260.5218,329.71171 C 260.98248,329.26374 261.46479,328.82331 261.96873,328.39039 C 262.47269,327.95754 262.9787,327.55125 263.48674,327.17158 C 263.9948,326.79195 264.50006,326.43883 265.00252,326.11225 C 265.50501,325.78573 265.98984,325.50969 266.45708,325.28412 C 267.8299,324.5975 269.19458,324.1476 270.55113,323.93443 C 271.90768,323.72132 273.23444,323.73741 274.53142,323.98267 C 275.8284,324.22798 277.08123,324.69261 278.28994,325.37654 C 279.49861,326.06054 280.64626,326.9612 281.73291,328.07851 C 282.76232,329.13708 283.6098,330.24383 284.27534,331.3988 C 284.94085,332.5538 285.40522,333.74706 285.66845,334.97861 C 285.93166,336.21018 285.98174,337.47261 285.8187,338.76588 C 285.65563,340.0592 285.25536,341.37818 284.61784,342.72286 C 284.08974,343.84672 283.37269,345.00177 282.46666,346.18802 C 281.56062,347.37428 280.44602,348.6108 279.12285,349.89758 L 274.44766,354.44424 z M 276.60349,346.48335 C 278.71075,344.43403 280.07617,342.54356 280.69976,340.81191 C 281.2433,339.27256 281.30326,337.74579 280.87963,336.23159 C 280.45597,334.71743 279.49592,333.19094 277.99942,331.65212 C 277.21781,330.84845 276.42425,330.20895 275.61872,329.73361 C 274.8132,329.25832 273.99838,328.93032 273.17425,328.74962 C 272.35012,328.56896 271.52404,328.52844 270.696,328.62806 C 269.86795,328.72773 269.04062,328.95066 268.21398,329.29683 C 267.44561,329.62456 266.67072,330.07299 265.8893,330.64218 C 265.10792,331.21142 264.29086,331.91066 263.43812,332.73991 L 261.85032,334.28406 L 275.1186,347.92743 L 276.60349,346.48335 z M 301.59289,318.29051 L 294.18312,325.49655 L 297.13269,332.3829 L 293.2955,336.11459 L 281.97189,308.85136 L 285.2651,305.64867 L 312.20216,317.72774 L 308.39436,321.43085 L 301.59289,318.29051 z M 288.20765,311.99833 C 289.52325,314.72385 290.58351,317.03971 291.38841,318.94592 L 292.41354,321.35314 L 297.50042,316.40613 L 295.12271,315.31429 C 293.23012,314.44679 290.94471,313.3224 288.26648,311.94114 L 288.20765,311.99833 z"
   id="flowRoot2657"
   sodipodi:nodetypes="cccssscsssssssssccccssssssscccccccccccccccccccc" /><path
   style="font-size:41.99995422px;font-style:normal;font-variant:normal;font-weight:bold;font-stretch:normal;text-align:start;line-height:125%;writing-mode:lr-tb;text-anchor:start;fill:#f7d117;fill-opacity:1;stroke:none;stroke-width:1px;stroke-linecap:butt;stroke-linejoin:miter;stroke-opacity:1;font-family:Corbel;-inkscape-font-specification:Corbel Bold"
   d="M 277.92245,68.020059 C 279.11126,66.850109 280.00765,65.680239 280.61162,64.510439 C 281.21552,63.340649 281.56057,62.205029 281.64676,61.103599 C 281.73289,60.002159 281.57212,58.951919 281.16444,57.952869 C 280.7567,56.953829 280.13569,56.030419 279.30142,55.182639 C 278.46708,54.334869 277.55373,53.699149 276.56137,53.275479 C 275.56895,52.851819 274.52143,52.674249 273.41878,52.742749 C 272.31608,52.811269 271.17508,53.138089 269.99579,53.723199 C 268.81644,54.308329 267.63236,55.185869 266.44354,56.355809 C 265.25469,57.525759 264.3583,58.695629 263.75438,59.865419 C 263.15044,61.035219 262.80782,62.168439 262.72654,63.265089 C 262.64524,64.361729 262.80601,65.411959 263.20887,66.415799 C 263.61169,67.419639 264.23026,68.345449 265.06459,69.193239 C 265.89887,70.041009 266.81466,70.674329 267.81194,71.093199 C 268.80918,71.512059 269.8567,71.689629 270.95452,71.625929 C 272.05232,71.562199 273.19088,71.237779 274.37022,70.652669 C 275.54951,70.067539 276.73359,69.190009 277.92245,68.020059 L 277.92245,68.020059 z M 281.56175,71.718129 C 280.07081,73.185349 278.49556,74.318359 276.836,75.117179 C 275.17639,75.915959 273.49797,76.349659 271.80076,76.418259 C 270.10348,76.486819 268.42381,76.173669 266.76169,75.478799 C 265.09956,74.783889 263.5253,73.681239 262.0389,72.170849 C 260.55248,70.660419 259.47518,69.068699 258.80701,67.395669 C 258.13883,65.722619 257.85262,64.038139 257.94838,62.342209 C 258.04413,60.646289 258.50466,58.975039 259.32994,57.328449 C 260.15521,55.681879 261.31331,54.124969 262.80424,52.657739 C 264.29514,51.190519 265.8704,50.057509 267.53001,49.258689 C 269.18957,48.459899 270.86798,48.026209 272.56525,47.957609 C 274.26247,47.889049 275.94215,48.202199 277.6043,48.897069 C 279.2664,49.591969 280.84066,50.694619 282.32711,52.205029 C 283.81348,53.715439 284.89077,55.307159 285.55898,56.980199 C 286.22713,58.653249 286.51334,60.337729 286.41762,62.033659 C 286.32182,63.729579 285.8613,65.400829 285.03606,67.047419 C 284.21075,68.693989 283.05265,70.250899 281.56175,71.718129 L 281.56175,71.718129 z M 283.12672,93.599169 C 282.11979,92.575979 281.31344,91.556829 280.70768,90.541699 C 280.1019,89.526559 279.67972,88.522559 279.44114,87.529719 C 279.20257,86.536859 279.13792,85.555049 279.24721,84.584319 C 279.35649,83.613579 279.62274,82.661029 280.04593,81.726639 C 280.38065,80.975239 280.83378,80.227199 281.40532,79.482519 C 281.97684,78.737849 282.67187,77.962739 283.49043,77.157199 L 295.00851,65.822139 L 298.53274,69.403269 L 287.33622,80.421869 C 285.95248,81.783609 285.03386,83.013729 284.58036,84.112229 C 284.07749,85.335999 283.98363,86.492969 284.29878,87.583119 C 284.6139,88.673259 285.24616,89.700689 286.19556,90.665409 C 287.14493,91.630119 288.1621,92.278759 289.24708,92.611319 C 290.33203,92.943869 291.49035,92.868549 292.72204,92.385369 C 293.82764,91.949499 295.07231,91.050699 296.45606,89.688959 L 307.65257,78.670359 L 311.1768,82.251499 L 299.65872,93.586549 C 298.84014,94.392079 298.05401,95.074609 297.3003,95.634159 C 296.54655,96.193669 295.79134,96.634759 295.03469,96.957419 C 294.09362,97.365579 293.13453,97.614089 292.1574,97.702959 C 291.18022,97.791789 290.18999,97.701689 289.18671,97.432639 C 288.18341,97.163559 287.17432,96.713179 286.15944,96.081489 C 285.14453,95.449779 284.13363,94.622339 283.12672,93.599169 L 283.12672,93.599169 z M 316.6711,106.02022 C 316.05435,109.38931 315.40284,112.27476 314.71655,114.67655 L 314.80286,114.76425 C 317.2311,112.14438 319.02503,110.26387 320.18465,109.1227 L 329.04247,100.40564 L 332.5667,103.98677 L 313.00934,123.23335 L 309.3125,119.47682 L 312.0448,104.24296 C 312.50109,101.58799 313.16754,98.649489 314.04412,95.427459 L 313.95781,95.339759 C 311.67571,97.815779 309.87691,99.701089 308.56141,100.9957 L 299.70359,109.71276 L 296.17936,106.13163 L 315.73672,86.885039 L 319.43356,90.641579 L 316.6711,106.02022 z M 325.50955,135.93541 L 321.98533,132.35428 L 338.54624,116.05652 L 332.33209,109.74204 L 335.32855,106.79321 L 351.26668,122.98869 L 348.27023,125.93753 L 342.07046,119.63766 L 325.50955,135.93541 z M 352.64329,141.2283 L 366.18351,138.14638 L 370.09612,142.12217 L 351.12426,146.20471 L 343.24577,153.95801 L 339.72154,150.37688 L 347.60003,142.62358 L 351.98591,123.71953 L 355.89852,127.69532 L 352.60014,141.18445 L 352.64329,141.2283 z"
   id="flowRoot2667" /><path
   style="font-size:31.99996567px;font-style:normal;font-variant:normal;font-weight:bold;font-stretch:normal;text-align:start;line-height:125%;writing-mode:lr-tb;text-anchor:start;fill:#f7d117;fill-opacity:1;stroke:none;stroke-width:1px;stroke-linecap:butt;stroke-linejoin:miter;stroke-opacity:1;font-family:Corbel;-inkscape-font-specification:Corbel Bold"
   d="M 223.36955,364.41252 C 223.87539,362.92229 224.24111,361.85931 224.46671,361.22356 C 224.69229,360.58782 225.16738,359.28558 225.89201,357.31682 L 230.97794,343.67912 L 236.28947,343.67912 L 225.56388,371.11857 L 221.05216,371.11857 L 210.32658,343.67912 L 215.67912,343.67912 L 220.76505,357.31682 C 221.48965,359.28558 221.96475,360.58782 222.19035,361.22356 C 222.41592,361.85931 222.78164,362.92229 223.28752,364.41252 L 223.36955,364.41252 z"
   id="flowRoot2676" /><path
   style="font-size:32.000103px;font-style:normal;font-variant:normal;font-weight:bold;font-stretch:normal;text-align:start;line-height:125%;writing-mode:lr-tb;text-anchor:start;fill:#f7d117;fill-opacity:1;stroke:none;stroke-width:1px;stroke-linecap:butt;stroke-linejoin:miter;stroke-opacity:1;font-family:Corbel;-inkscape-font-specification:Corbel Bold"
   d="M 257.60257,356.06796 L 248.5408,361.03948 L 249.54914,368.46276 L 244.85644,371.0373 L 241.2054,341.74264 L 245.23287,339.53305 L 267.97831,358.35201 L 263.32156,360.90681 L 257.60257,356.06796 z M 246.37742,346.43716 C 246.91935,349.41466 247.3243,351.9293 247.59228,353.98105 L 247.93904,356.57439 L 254.16002,353.16138 L 252.15911,351.47555 C 250.56606,350.13517 248.66279,348.44257 246.44934,346.39771 L 246.37742,346.43716 z"
   id="flowRoot2685"
   inkscape:transform-center-x="139.5948"
   inkscape:transform-center-y="34.417719" /><path
   style="font-size:32.000103px;font-style:normal;font-variant:normal;font-weight:bold;font-stretch:normal;text-align:start;line-height:125%;writing-mode:lr-tb;text-anchor:start;fill:#f7d117;fill-opacity:1;stroke:none;stroke-width:1px;stroke-linecap:butt;stroke-linejoin:miter;stroke-opacity:1;font-family:Corbel;-inkscape-font-specification:Corbel Bold"
   d="M 170.62877,332.0492 C 170.06673,335.42787 169.46208,338.32351 168.81482,340.73609 L 168.90254,340.82239 C 171.28798,338.16351 173.05119,336.25416 174.19216,335.09434 L 182.90752,326.2348 L 186.48934,329.75835 L 167.24653,349.31948 L 163.48928,345.62336 L 165.97427,330.34719 C 166.38745,327.68516 167.00618,324.73624 167.83042,321.50042 L 167.74271,321.41413 C 165.50103,323.92682 163.73303,325.84104 162.43868,327.15682 L 153.72333,336.01635 L 150.1415,332.4928 L 169.38432,312.93167 L 173.14158,316.62779 L 170.62877,332.0492 z M 171.95407,353.9504 L 171.95407,353.9504 z"
   id="flowRoot2694"
   sodipodi:nodetypes="ccccccccccccccccccc" /><path
   style="font-size:32.000103px;font-style:normal;font-variant:normal;font-weight:bold;font-stretch:normal;text-align:start;line-height:125%;writing-mode:lr-tb;text-anchor:start;fill:#f7d117;fill-opacity:1;stroke:none;stroke-width:1px;stroke-linecap:butt;stroke-linejoin:miter;stroke-opacity:1;font-family:Corbel;-inkscape-font-specification:Corbel Bold"
   d="M 183.62785,356.11043 L 195.58748,362.36013 L 193.64039,366.08616 L 177.2277,357.50943 L 189.93606,333.19029 L 205.69443,341.42509 L 203.74733,345.15111 L 192.44202,339.24334 L 189.1557,345.53215 L 198.86155,350.6041 L 196.91446,354.33013 L 187.20861,349.25818 L 183.62785,356.11043 z"
   id="flowRoot2703"
   inkscape:transform-center-x="69.210186"
   inkscape:transform-center-y="16.447953" /></g>






</svg>
