<svg width="20" height="20" xmlns="http://www.w3.org/2000/svg">
 <path style="stroke-width:2;stroke-dasharray:none;stroke:#fff;stroke-opacity:1;paint-order:stroke markers fill" d="m 9.6339368,1.0227675 c -2.1686836,0.190331 -3.9253823,1.9458319 -4.1172579,4.1124159 -0.010307,0.2157099 -0.031721,0.4830424 0,0.7477119 0.1709178,2.1807504 1.9349822,3.9025015 4.1172579,4.0890517 0.352067,0.04022 0.4577572,0.03448 0.7485952,0 2.197414,-0.166214 3.927443,-1.893146 4.093863,-4.0890517 0.04436,-0.256488 0.01541,-0.367402 0,-0.7477119 -0.186851,-2.1816405 -1.910197,-3.942813 -4.093863,-4.1124159 -0.332801,-0.03074 -0.376901,-0.029971 -0.7485952,0 z m 0,0.9813719 V 4.6211313 L 7.78585,2.7752174 C 8.3012499,2.3563956 8.936085,2.0809362 9.6339368,2.0041394 Z m 0.7485952,0 c 0.697215,0.073847 1.32801,0.3554848 1.848086,0.771078 l -1.848086,1.8459139 z m 2.386137,1.2851299 c 0.418274,0.514162 0.694848,1.14898 0.771986,1.8459141 H 10.920582 Z M 7.2711926,3.3126353 9.095887,5.1351833 H 6.4992065 C 6.5798176,4.451266 6.8606913,3.8219689 7.2711926,3.3126353 Z m -0.7719861,2.57026 H 9.1426737 L 7.2711926,7.7521757 C 6.8491143,7.2308395 6.5717863,6.5865869 6.4992065,5.8828953 Z m 4.3745885,0 h 2.66686 C 13.465674,6.5947024 13.1711,7.229928 12.745276,7.7521757 Z M 9.6339368,6.4203137 V 9.0373065 C 8.9361825,8.9602592 8.3006173,8.6840095 7.78585,8.2662284 Z m 0.7485952,0 1.848086,1.8692808 C 11.71582,8.696607 11.078659,8.9664541 10.382532,9.0373065 Z M 14.5,10 v 9 h -9 v -9 c 1.5,0 6.344103,0 9,0 z"/>
</svg>
