<svg height="19.229" width="18" viewBox="0 0 11.52 12.306" xml:space="preserve" xmlns="http://www.w3.org/2000/svg">
 <path d="m 19.903908,-0.05610793 c -0.570424,0 -1.033153,0.46272755 -1.033153,1.03315225 V 9.7234092 H 18.199892 V 10.970278 H 26.13825 V 9.7234092 H 25.467386 V 6.0205186 c 0.0397,-0.00583 0.07831,-0.00913 0.112002,-0.00913 0.09683,3.661e-4 0.172399,0.019772 0.238859,0.05143 0.09888,0.047206 0.17946,0.1269808 0.236573,0.2228591 0.0575,0.094371 0.08434,0.203887 0.08342,0.2742882 v 1.4377273 c -7.53e-4,0.3996224 0.115418,0.7411257 0.326859,0.984009 0.20974,0.2434647 0.509598,0.3729398 0.803437,0.371432 0.305445,1.725e-4 0.60602,-0.1330744 0.824007,-0.3737178 0.219108,-0.2404497 0.348551,-0.5850944 0.347434,-0.9817232 V 3.9953573 C 28.440008,3.635792 28.404391,3.5277092 28.260555,3.359923 28.103428,3.1765654 27.998857,3.0709202 27.811409,2.8787757 27.209907,2.263427 26.665693,1.7193253 26.665112,1.7187652 l -0.270861,-0.2720023 -0.37486,0.3668603 0.776008,1.1782965 0.0079,0.017144 c 0.0042,0.012728 0.0079,0.033438 0.0079,0.060571 0.0011,0.058235 -0.02016,0.1417683 -0.05258,0.2000018 l -0.06857,0.1257153 c -0.07885,0.1454974 -0.123601,0.4553254 -0.123429,0.6160057 -1.72e-4,0.1546716 0.03725,0.3519687 0.110859,0.4937187 l 0.128,0.2045734 c 0.187,0.1774483 0.465384,0.5113044 0.802293,0.5371477 l 0.06515,0.019429 v 2.7314534 c -0.0011,0.2378224 -0.0712,0.3797583 -0.148573,0.4662901 -0.07865,0.085952 -0.170977,0.1209287 -0.256002,0.1211439 -0.08239,-0.0015 -0.156231,-0.028759 -0.225145,-0.1062867 C 26.97569,8.4009316 26.906713,8.2568656 26.90596,7.9976795 V 6.5599521 C 26.90591,6.4067663 26.875398,6.2553517 26.819248,6.1085192 26.734663,5.8890457 26.590359,5.6775144 26.380447,5.5142281 26.172022,5.3509205 25.892601,5.24337 25.579295,5.2445114 c -0.0367,0 -0.07454,0.00178 -0.112,0.00458 V 0.97704432 c 3.2e-5,-0.5704247 -0.461493,-1.03315225 -1.031919,-1.03315225 z m 0.501718,1.53372823 h 3.528032 V 4.834222 h -3.528032 z" style="stroke:#fff;stroke-width:1.2799;stroke-dasharray:none;stroke-opacity:1;paint-order:markers stroke fill" transform="translate(-17.56 .696)"/>
</svg>
