<svg width="20" height="20" xmlns="http://www.w3.org/2000/svg">
 <circle cx="10" cy="10" r="9.5" fill="#fff" stroke="#000"/>
 <path d="m7 4.5h6c1 0 1.5 0.5 1.5 1.5v8c0 1-0.5 1.5-1.5 1.5h-6c-1 0-1.5-0.5-1.5-1.5v-8c0-1 0.5-1.5 1.5-1.5zm1 11-1.5 2.5 1.5 0.5 1.5-2.5zm4 0 1.5 2.5-1.5 0.5-1.5-2.5z" stroke="#000"/>
 <path d="m8 5.5h4c1 0 1.5 0.5 1.5 1.5v3c0 1-0.5 1.5-1.5 1.5h-4c-1 0-1.5-0.5-1.5-1.5v-3c0-1 0.5-1.5 1.5-1.5z" fill="#fff" stroke="#fff"/>
 <path d="m7 13.5c-0.5 0-0.5 0.5-0.5 0.5 0 0.5 0.5 0.5 0.5 0.5 0.5 0 0.5-0.5 0.5-0.5 0-0.5-0.5-0.5-0.5-0.5zm6 0c-0.5 0-0.5 0.5-0.5 0.5 0 0.5 0.5 0.5 0.5 0.5 0.5 0 0.5-0.5 0.5-0.5 0-0.5-0.5-0.5-0.5-0.5z" stroke-linecap="round" stroke-linejoin="round" fill="#fff" stroke="#fff"/>
</svg>
