<?xml version="1.0" encoding="UTF-8" standalone="no"?>
<svg
   width="20"
   height="20"
   version="1.1"
   id="svg4"
   sodipodi:docname="poi_school.svg"
   inkscape:version="1.2 (dc2aeda, 2022-05-15)"
   xmlns:inkscape="http://www.inkscape.org/namespaces/inkscape"
   xmlns:sodipodi="http://sodipodi.sourceforge.net/DTD/sodipodi-0.dtd"
   xmlns="http://www.w3.org/2000/svg"
   xmlns:svg="http://www.w3.org/2000/svg">
  <defs
     id="defs8" />
  <sodipodi:namedview
     id="namedview6"
     pagecolor="#505050"
     bordercolor="#eeeeee"
     borderopacity="1"
     inkscape:showpageshadow="0"
     inkscape:pageopacity="0"
     inkscape:pagecheckerboard="0"
     inkscape:deskcolor="#505050"
     showgrid="true"
     inkscape:zoom="18.847001"
     inkscape:cx="7.587414"
     inkscape:cy="8.7812379"
     inkscape:window-width="1309"
     inkscape:window-height="713"
     inkscape:window-x="0"
     inkscape:window-y="23"
     inkscape:window-maximized="0"
     inkscape:current-layer="g706">
    <inkscape:grid
       type="xygrid"
       id="grid632"
       originx="0"
       originy="0" />
  </sodipodi:namedview>
  <g
     id="g706"
     style="display:inline">
    <path
       id="path941"
       style="display:inline;fill:#f9f5f0;fill-opacity:1;stroke:#ffffff;stroke-width:0;stroke-linecap:round;paint-order:stroke markers fill"
       sodipodi:type="inkscape:offset"
       inkscape:radius="2"
       inkscape:original="M 9 2 L 3 4.5 L 9 7 L 9 10 L 6 10 L 6 18 L 14 18 L 14 10 L 11 10 L 11 2 L 9 2 z "
       d="M 9,0 A 2.0002,2.0002 0 0 0 8.2304688,0.15429688 l -6,2.50000002 a 2.0002,2.0002 0 0 0 0,3.6914062 L 6.1992188,8 H 6 a 2.0002,2.0002 0 0 0 -2,2 v 8 a 2.0002,2.0002 0 0 0 2,2 h 8 a 2.0002,2.0002 0 0 0 2,-2 V 10 A 2.0002,2.0002 0 0 0 14,8 H 13 V 2 A 2.0002,2.0002 0 0 0 11,0 Z"
       inkscape:label="path941" />
    <path
       id="path6157"
       style="display:inline;fill:#003f87;fill-opacity:1;stroke:#ffffff;stroke-width:0;stroke-linecap:round;paint-order:stroke markers fill"
       d="M 9.0000001,1.9999999 3,4.5 9.0000001,6.9999993 Z M 6,10 v 8 h 8 V 10 Z M 9,2 v 8 h 2 V 2 Z"
       sodipodi:nodetypes="cccccccccccccc" />
  </g>
</svg>
