<svg width="14" height="22" version="1.0" xml:space="preserve" xmlns="http://www.w3.org/2000/svg">
 <g style="display:inline">
  <path style="display:inline;fill:#000;fill-opacity:1;stroke:#fff;stroke-width:1.92756;stroke-linecap:round;stroke-linejoin:round;stroke-dasharray:none;stroke-opacity:1;paint-order:stroke markers fill" d="m 11.89245,-1.8476309 c -0.653346,3.2196159 -1.576172,3.3516956 -1.576172,5.1816406 0,0.8568418 0.405584,1.4555531 0.804687,1.8378906 -1.865638,0.025104 -3.5915298,-0.2394481 -5.7734368,-0.7929687 0,1.0590112 0.8339844,1.5859375 0.8339844,1.5859375 0.9135679,0.6908888 1.1487486,0.540934 2.296875,0.546875 H 11.191278 V 8.4101816 H 6.6912782 V 17.410181 H 15.691278 V 8.4101816 H 12.593621 V 6.5117441 h 1.310547 c 1.198171,-0.037253 1.531982,-0.058189 2.296875,-0.546875 0,0 0.833985,-0.5269263 0.833985,-1.5859375 -1.647714,0.3483357 -3.023048,0.5819892 -4.277344,0.7011718 0.367181,-0.3839013 0.710937,-0.9546497 0.710937,-1.7460937 0,-1.829945 -0.922825,-1.9620247 -1.576171,-5.1816406 z m 0,4.4433593 c 0.303677,0.6428007 0.429687,0.8465475 0.429687,1.5585938 0,0.4714209 -0.216101,0.7825639 -0.429687,0.9921875 -0.213587,-0.2096236 -0.427735,-0.5207666 -0.427735,-0.9921875 0,-0.7120463 0.124057,-0.9157931 0.427735,-1.5585938 z" transform="translate(-4.191 3.219)"/>
 </g>
</svg>
