<svg xmlns="http://www.w3.org/2000/svg" viewBox="0 0 1080 1080" xml:space="preserve">
 <path fill="#FFF" d="M580.000000,1081.000000 C386.688904,1081.000000 193.877838,1081.000000 1.033378,1081.000000 C1.033378,721.063782 1.033378,361.127594 1.033378,1.095691 C360.894623,1.095691 720.789307,1.095691 1080.842041,1.095691 C1080.842041,360.999939 1080.842041,720.999939 1080.842041,1081.000000 C914.127136,1081.000000 747.313538,1081.000000 580.000000,1081.000000 M671.500000,1024.081665 C713.236267,1024.081665 754.972473,1024.081665 796.665283,1024.081665 C796.665283,985.864990 796.665283,948.420898 796.665283,910.444397 C777.749146,910.444397 759.026794,910.444397 740.221680,910.444397 C740.221680,796.500916 740.221680,683.090942 740.221680,569.126892 C744.080261,569.126892 747.707825,569.081970 751.333862,569.136719 C757.997498,569.237244 764.686096,569.071350 771.318298,569.596741 C786.806824,570.823669 796.822571,581.807434 796.849365,597.387695 C796.936768,648.215942 796.749756,699.045593 797.079895,749.872070 C797.286621,781.698364 807.639343,809.569519 831.314880,831.736328 C845.045471,844.591858 860.593750,853.850159 879.831665,854.849609 C917.951599,856.830200 949.812683,834.193359 960.951050,797.644592 C966.658936,778.914795 967.239624,759.635803 967.236450,740.277222 C967.217407,624.121155 967.231079,507.965088 967.211121,391.809021 C967.209839,384.644135 967.250244,377.466339 966.856689,370.317383 C966.210449,358.578461 964.651306,346.819153 956.811401,337.482361 C946.105347,324.732178 935.170044,312.112885 923.544250,300.207733 C882.444519,258.120422 841.009766,216.360321 799.694763,174.483337 C798.781189,173.557297 797.780762,172.716919 796.820801,171.836563 C797.202393,172.338104 797.583984,172.839645 797.965576,173.341171 C786.554077,183.784195 775.142639,194.227203 763.765381,204.638947 C786.330811,238.912445 808.243958,272.456116 830.507629,305.765594 C834.423401,311.623962 835.005859,317.482117 833.526672,323.767975 C832.587219,327.760284 831.216309,331.857788 829.094849,335.331604 C815.640808,357.362610 811.748047,381.531830 813.038757,406.758453 C814.256653,430.560547 822.933716,451.389069 839.692322,468.564148 C858.569824,487.910767 880.237122,502.972107 906.312622,511.016022 C909.578552,512.023499 910.542114,513.588989 910.536133,517.013000 C910.403870,592.505859 910.462585,667.999023 910.328552,743.491821 C910.310852,753.470581 909.673523,763.465210 908.913879,773.421265 C908.050842,784.732544 902.021729,792.148743 891.065002,795.508972 C879.910156,798.929993 870.877258,795.253967 864.081543,786.552734 C860.587891,782.079468 857.404663,776.681885 856.229309,771.238098 C854.422485,762.869812 853.852295,754.104126 853.823059,745.503418 C853.627136,687.842651 853.741760,630.180908 853.657593,572.519592 C853.650330,567.544739 853.451111,562.465027 852.459229,557.614319 C847.140625,531.603882 824.615479,513.188049 797.422546,512.718567 C780.095886,512.419434 762.760071,512.648254 745.428406,512.640564 C743.675903,512.639771 741.923401,512.640381 739.973755,512.640381 C739.973755,510.110413 739.973755,508.284302 739.973755,506.458160 C739.973694,395.801605 739.928955,285.144989 740.025879,174.488510 C740.039124,159.312408 736.603455,145.120209 729.346741,131.905991 C713.836121,103.661934 691.635803,82.239380 662.845642,67.740494 C650.993042,61.771473 638.596802,57.871880 625.097778,57.878708 C512.108093,57.935867 399.118347,57.863220 286.128906,58.033138 C279.395660,58.043262 272.442383,59.024158 265.971741,60.879425 C238.091370,68.873337 216.437943,86.135559 198.247299,108.095184 C180.354462,129.695297 171.214554,153.908829 171.273148,182.721359 C171.761856,423.031769 171.550415,663.343567 171.550247,903.654968 C171.550247,905.770691 171.550247,907.886414 171.550247,910.452393 C152.380768,910.452393 133.778412,910.452393 114.977997,910.452393 C114.977997,948.492065 114.977997,986.074951 114.977997,1024.081665 C300.288605,1024.081665 485.394318,1024.081665 671.500000,1024.081665 z"/>
 <path d="M671.000000,1024.081665 C485.394318,1024.081665 300.288605,1024.081665 114.977997,1024.081665 C114.977997,986.074951 114.977997,948.492065 114.977997,910.452393 C133.778412,910.452393 152.380768,910.452393 171.550247,910.452393 C171.550247,907.886414 171.550247,905.770691 171.550247,903.654968 C171.550415,663.343567 171.761856,423.031769 171.273148,182.721359 C171.214554,153.908829 180.354462,129.695297 198.247299,108.095184 C216.437943,86.135559 238.091370,68.873337 265.971741,60.879425 C272.442383,59.024158 279.395660,58.043262 286.128906,58.033138 C399.118347,57.863220 512.108093,57.935867 625.097778,57.878708 C638.596802,57.871880 650.993042,61.771473 662.845642,67.740494 C691.635803,82.239380 713.836121,103.661934 729.346741,131.905991 C736.603455,145.120209 740.039124,159.312408 740.025879,174.488510 C739.928955,285.144989 739.973694,395.801605 739.973755,506.458160 C739.973755,508.284302 739.973755,510.110413 739.973755,512.640381 C741.923401,512.640381 743.675903,512.639771 745.428406,512.640564 C762.760071,512.648254 780.095886,512.419434 797.422546,512.718567 C824.615479,513.188049 847.140625,531.603882 852.459229,557.614319 C853.451111,562.465027 853.650330,567.544739 853.657593,572.519592 C853.741760,630.180908 853.627136,687.842651 853.823059,745.503418 C853.852295,754.104126 854.422485,762.869812 856.229309,771.238098 C857.404663,776.681885 860.587891,782.079468 864.081543,786.552734 C870.877258,795.253967 879.910156,798.929993 891.065002,795.508972 C902.021729,792.148743 908.050842,784.732544 908.913879,773.421265 C909.673523,763.465210 910.310852,753.470581 910.328552,743.491821 C910.462585,667.999023 910.403870,592.505859 910.536133,517.013000 C910.542114,513.588989 909.578552,512.023499 906.312622,511.016022 C880.237122,502.972107 858.569824,487.910767 839.692322,468.564148 C822.933716,451.389069 814.256653,430.560547 813.038757,406.758453 C811.748047,381.531830 815.640808,357.362610 829.094849,335.331604 C831.216309,331.857788 832.587219,327.760284 833.526672,323.767975 C835.005859,317.482117 834.423401,311.623962 830.507629,305.765594 C808.243958,272.456116 786.330811,238.912445 763.765381,204.638947 C775.142639,194.227203 786.554077,183.784195 797.965576,173.341171 C797.583984,172.839645 797.202393,172.338104 796.820801,171.836563 C797.780762,172.716919 798.781189,173.557297 799.694763,174.483337 C841.009766,216.360321 882.444519,258.120422 923.544250,300.207733 C935.170044,312.112885 946.105347,324.732178 956.811401,337.482361 C964.651306,346.819153 966.210449,358.578461 966.856689,370.317383 C967.250244,377.466339 967.209839,384.644135 967.211121,391.809021 C967.231079,507.965088 967.217407,624.121155 967.236450,740.277222 C967.239624,759.635803 966.658936,778.914795 960.951050,797.644592 C949.812683,834.193359 917.951599,856.830200 879.831665,854.849609 C860.593750,853.850159 845.045471,844.591858 831.314880,831.736328 C807.639343,809.569519 797.286621,781.698364 797.079895,749.872070 C796.749756,699.045593 796.936768,648.215942 796.849365,597.387695 C796.822571,581.807434 786.806824,570.823669 771.318298,569.596741 C764.686096,569.071350 757.997498,569.237244 751.333862,569.136719 C747.707825,569.081970 744.080261,569.126892 740.221680,569.126892 C740.221680,683.090942 740.221680,796.500916 740.221680,910.444397 C759.026794,910.444397 777.749146,910.444397 796.665283,910.444397 C796.665283,948.420898 796.665283,985.864990 796.665283,1024.081665 C754.972473,1024.081665 713.236267,1024.081665 671.000000,1024.081665 M571.985901,598.478271 C597.267639,564.945984 622.549316,531.413696 648.402832,497.123047 C595.515198,497.123047 543.888733,497.123047 491.663788,497.123047 C528.021240,388.005096 564.245911,279.285492 600.470642,170.565903 C599.983887,170.335419 599.497192,170.104935 599.010437,169.874451 C486.875793,313.002930 374.741150,456.131378 262.012268,600.018311 C316.847046,600.887939 370.558929,601.739746 424.868896,602.601013 C393.299225,706.779663 361.954437,810.216309 330.609619,913.652954 C331.185059,913.974243 331.760529,914.295532 332.335968,914.616821 C412.074585,809.425964 491.813202,704.235168 571.985901,598.478271 z"/>
 <path fill="#FEFEFE" d="M571.768860,598.761292 C491.813202,704.235168 412.074585,809.425964 332.335968,914.616821 C331.760529,914.295532 331.185059,913.974243 330.609619,913.652954 C361.954437,810.216309 393.299225,706.779663 424.868896,602.601013 C370.558929,601.739746 316.847046,600.887939 262.012268,600.018311 C374.741150,456.131378 486.875793,313.002930 599.010437,169.874451 C599.497192,170.104935 599.983887,170.335419 600.470642,170.565903 C564.245911,279.285492 528.021240,388.005096 491.663788,497.123047 C543.888733,497.123047 595.515198,497.123047 648.402832,497.123047 C622.549316,531.413696 597.267639,564.945984 571.768860,598.761292 z"/>
</svg>
