<svg width="20" height="20" xmlns="http://www.w3.org/2000/svg">
 <path style="fill:#000;fill-opacity:1;stroke:#f9f5f0;stroke-width:2;stroke-linecap:round;stroke-linejoin:round;stroke-dasharray:none;stroke-opacity:1;paint-order:markers stroke fill;stop-color:#000" d="M 10,1 C 8.57507,1 7.1186554,1.678328 5,3 L 8.0462697,6.31707 C 7.7540041,6.4876592 6.7548516,7.3827405 6.4605029,7.7970483 L 3,5 c -1.2660122,2.0351654 -2,3.5750693 -2,5 0,1.42493 0.6504981,2.909174 2,5 l 3.5216387,-2.701732 c 0.3257876,0.429793 1.0219036,1.070241 1.4648795,1.352338 L 5,17 c 2.0629957,1.432992 3.5750699,2 5,2 1.424931,0 2.881345,-0.650498 5,-2 l -3.178531,-3.249895 c 0.37106,-0.204142 1.210055,-0.888131 1.620205,-1.397252 L 17,15 c 1.310122,-2.102375 2,-3.575069 2,-5 C 19,8.5750693 18.314472,7.030756 17,5 L 13.625035,7.9408363 C 13.281844,7.4289035 12.388568,6.5830164 11.926192,6.3025928 L 15,3 C 12.881345,1.7061579 11.424931,1 10,1 Z"/>
</svg>
