<svg width="20" height="20" xml:space="preserve" xmlns="http://www.w3.org/2000/svg">
 <g style="display:inline;stroke:#000;stroke-opacity:0">
  <path style="display:inline;fill:#000;fill-opacity:1;stroke:#fff;stroke-width:2;stroke-linecap:round;stroke-linejoin:round;stroke-dasharray:none;stroke-opacity:1;paint-order:stroke markers fill" d="M 7.25,1.5 C 5.7312169,1.4999999 4.4999999,2.7312169 4.5,4.25 4.5026063,5.1124885 4.9097044,5.9237922 5.5996094,6.4414062 4.1122506,6.681427 3.0017455,8.2015924 3,10 v 9 h 8 l 1,-1 c 1.252827,-0.150302 1.9072,-0.431384 2,-2 l 3,-4 C 15.973848,10.398493 15.575356,9.9476929 15,8 l -1,1 -1,-1 -4,5 3,3 H 7 V 10 6.9824219 C 7.0830229,6.9920774 7.1664428,6.9979429 7.25,7 8.7687831,7.0000001 10,5.7687831 10,4.25 10,2.7312169 8.7687831,1.4999999 7.25,1.5 Z"/>
 </g>
</svg>
