<svg width="20" xml:space="preserve" height="20" xmlns="http://www.w3.org/2000/svg">
 <path d="M 12.583201,18.604163 H 1.5138988 v -2.013526 h 1.1262428 v -0.120452 c 2.7e-6,-4.258351 0.00422,-8.5167086 -0.00554,-12.7750419 C 2.6333716,3.184581 2.8153924,2.7555141 3.171603,2.3727569 3.53374,1.9836295 3.9648162,1.6777405 4.5198603,1.5360874 c 0.1288176,-0.032875 0.2672445,-0.050258 0.401289,-0.050436 2.2493975,-0.00301 4.498801,-0.00172 6.7482027,-0.00273 0.268738,-1.251e-4 0.515523,0.068981 0.751484,0.1747523 0.573156,0.256922 1.015121,0.6365325 1.323907,1.1370211 0.144467,0.2341578 0.212864,0.4856456 0.2126,0.7545679 -0.0019,1.9608481 -9.67e-4,3.9216985 -9.67e-4,5.882548 v 0.1095499 c 0.03881,0 0.0737,-1.15e-5 0.108591,2.6e-6 0.34504,1.494e-4 0.690162,-0.00395 1.035103,0.00141 0.541357,0.00835 0.989786,0.3346495 1.095669,0.795559 0.01975,0.08596 0.02371,0.175968 0.02385,0.264123 0.0017,1.021766 -5.97e-4,2.04354 0.0033,3.065297 5.76e-4,0.152406 0.01193,0.307734 0.04791,0.456022 0.0234,0.09647 0.08677,0.19211 0.156322,0.271378 0.13529,0.154187 0.315117,0.219326 0.537187,0.158706 0.218127,-0.05954 0.338154,-0.190961 0.355337,-0.391398 0.01512,-0.176423 0.02781,-0.353529 0.02816,-0.530354 0.0027,-1.337742 0.0015,-2.675491 0.0041,-4.0132354 1.99e-4,-0.060678 -0.01907,-0.088415 -0.08409,-0.106267 C 16.748765,9.3700572 16.317412,9.103168 15.941598,8.7603434 15.607967,8.4559987 15.435226,8.0869137 15.410979,7.6651372 c -0.02569,-0.4470191 0.05179,-0.8753008 0.319646,-1.2656935 0.04223,-0.061556 0.06953,-0.1341649 0.08823,-0.2049089 0.02946,-0.1113863 0.01785,-0.2151937 -0.06011,-0.3190049 C 15.31552,5.2852815 14.879271,4.690883 14.430038,4.083552 c 0.226498,-0.1844976 0.453679,-0.3695491 0.68086,-0.5546009 -0.0076,-0.00889 -0.01519,-0.017775 -0.02279,-0.026662 0.01911,0.015601 0.03903,0.030492 0.05722,0.046901 0.8225,0.742066 1.647384,1.4820607 2.465598,2.2278536 0.231446,0.2109607 0.449148,0.4345765 0.662283,0.6605114 0.156078,0.1654492 0.187118,0.3738259 0.199982,0.5818409 0.0078,0.1266807 0.007,0.253872 0.007,0.380835 3.99e-4,2.0583014 1.99e-4,4.116603 4.98e-4,6.174905 0,0.343036 -0.0115,0.684662 -0.12513,1.016557 -0.221742,0.647649 -0.856034,1.048777 -1.614927,1.01368 -0.382989,-0.01771 -0.692525,-0.181769 -0.965873,-0.40957 -0.471334,-0.392799 -0.677436,-0.88668 -0.681551,-1.450646 -0.0065,-0.900652 -0.0028,-1.80136 -0.0047,-2.702044 -5.37e-4,-0.276084 -0.199926,-0.470718 -0.508272,-0.492459 -0.132035,-0.0093 -0.265192,-0.0063 -0.397851,-0.0082 -0.07219,-9.67e-4 -0.144405,-1.88e-4 -0.221222,-1.88e-4 v 6.048194 h 1.123681 v 2.013669 h -2.501749" style="fill:#000;fill-opacity:1;stroke:#fff;stroke-width:1;stroke-linecap:butt;stroke-linejoin:round;stroke-dasharray:none;stroke-opacity:1;paint-order:stroke markers fill"/>
 <path fill="#fefefe" d="m 10.85303,10.885967 c -1.7491756,1.92744 -3.4936011,3.849705 -5.2380275,5.771971 -0.012595,-0.0059 -0.02517,-0.01174 -0.037765,-0.01761 0.6857242,-1.890215 1.3714485,-3.780425 2.0620915,-5.684195 -1.1881282,-0.01574 -2.3631728,-0.03131 -3.5627828,-0.0472 2.4661485,-2.6294014 4.9192967,-5.2449429 7.3724448,-7.860485 0.01066,0.00421 0.02129,0.00842 0.03194,0.012636 -0.792479,1.9867498 -1.5849595,3.9735015 -2.3803447,5.9675322 1.1425157,0 2.2719387,0 3.4289507,0 -0.565593,0.6266296 -1.118675,1.2394018 -1.676507,1.8573448 z" style="fill:#fff;fill-opacity:1;stroke:#9a93cd;stroke-width:0;stroke-dasharray:none;stroke-opacity:1"/>
</svg>

