<svg width="20" height="20" xmlns="http://www.w3.org/2000/svg">
 <g style="display:inline">
  <path style="display:inline;fill:#f9f5f0;fill-opacity:1;stroke:#fff;stroke-width:0;stroke-linecap:round;paint-order:stroke markers fill" d="M 9,0 A 2.0002,2.0002 0 0 0 8.2304688,0.15429688 l -6,2.50000002 a 2.0002,2.0002 0 0 0 0,3.6914062 L 6.1992188,8 H 6 a 2.0002,2.0002 0 0 0 -2,2 v 8 a 2.0002,2.0002 0 0 0 2,2 h 8 a 2.0002,2.0002 0 0 0 2,-2 V 10 A 2.0002,2.0002 0 0 0 14,8 H 13 V 2 A 2.0002,2.0002 0 0 0 11,0 Z"/>
  <path style="display:inline;fill:#003f87;fill-opacity:1;stroke:#fff;stroke-width:0;stroke-linecap:round;paint-order:stroke markers fill" d="M 9.0000001,1.9999999 3,4.5 9.0000001,6.9999993 Z M 6,10 v 8 h 8 V 10 Z M 9,2 v 8 h 2 V 2 Z"/>
 </g>
</svg>
