<svg width="20" height="20" xmlns="http://www.w3.org/2000/svg">
 <path style="stroke-width:2;stroke-dasharray:none;stroke:#fff;stroke-opacity:1;stroke-linejoin:round;paint-order:markers stroke fill" d="M 9.9999991,1 8.6662907,3.2500001 H 6 l 1.333709,2.25 L 6,7.7500002 H 8.6662907 L 9.9999991,10 11.333709,7.7500002 h 2.66629 L 12.666291,5.5000001 14,3.2500001 h -2.666291 z m 0,1.1260987 0.6662909,1.1239014 H 9.3337094 Z M 7.0011272,3.8125001 H 8.3337089 L 7.6674182,4.9364014 Z m 2,0 h 1.9977448 l 1.000001,1.6875 -1.000001,1.6875001 H 9.0011272 L 8.0011273,5.5000001 Z m 2.6651628,0 h 1.332582 l -0.66629,1.1239013 z M 7.6674182,6.0635988 8.3337089,7.1875002 H 7.0011272 Z m 4.6651638,0 0.66629,1.1239014 H 11.66629 Z M 9.3337094,7.7500002 H 10.66629 L 9.9999991,8.8739017 Z M 14.5,10 v 9 h -9 v -9 c 1.5,0 6.344103,0 9,0 z"/>
</svg>
