<svg width="20" height="20" xmlns="http://www.w3.org/2000/svg">
 <path style="stroke:#fff;stroke-width:2;stroke-linecap:round;stroke-linejoin:round;stroke-dasharray:none;stroke-opacity:1;paint-order:stroke markers fill" d="m 9.9895559,1 -0.668407,0.6428572 c 0.041707,0.2807944 0.052254,0.4981843 0.083552,0.7433036 -0.8162634,0.2441791 -1.4203661,0.9627145 -1.4203661,1.8281249 0,0.8720674 0.6152673,1.589656 1.4412533,1.828125 -0.034013,0.2417812 -0.0569,0.4689772 -0.1044386,0.7433036 L 9.6553529,7.1071429 V 7.3683036 C 9.0409361,6.9692745 8.3876755,6.5255153 7.9843342,6.1428572 6.629124,4.8571429 6.9868821,2.6071428 8.6527415,1.6428572 7.3200541,1.9642857 6,3.1268349 6,4.8571429 6,6.7857143 7.9843342,7.4285718 7.9843342,8.0714288 L 8.6527415,7.4285718 9.5091389,7.8906252 C 9.0996922,8.134634 7.8794991,8.9083523 7.8794991,8.9083523 L 8.3168021,9.2 9.6971282,8.3325895 V 8.7946432 C 9.4801729,8.9008759 9.3211489,9.106947 9.3211489,9.3571431 9.3211489,9.7121835 9.6204055,10 9.9895559,10 10.358707,10 10.657963,9.7121835 10.657963,9.3571431 c 0,-0.2501961 -0.138135,-0.4562672 -0.35509,-0.5624999 V 8.3325895 L 11.683,9.2 12.121,8.908 c 0,0 -1.265773,-0.7997547 -1.630138,-1.0173748 l 0.83551,-0.4620534 0.668407,0.642857 C 11.994779,7.4285718 14,6.7857143 14,4.8571429 14,3.1268349 12.663186,1.9642857 11.326372,1.6428572 c 1.671018,0.9642856 2.027814,3.2142857 0.668407,4.5 C 11.584912,6.5305058 10.9473,6.9856126 10.323761,7.3883928 V 7.1071429 l 0.334202,-0.3214286 c -0.04615,-0.2662862 -0.07104,-0.4981442 -0.104437,-0.7433036 0.825985,-0.238469 1.441253,-0.9560576 1.441253,-1.828125 0,-0.8720674 -0.615268,-1.5896556 -1.441253,-1.8281249 0.0334,-0.2451592 0.05829,-0.4770173 0.104437,-0.7433036 z m 0.4804191,2.0089286 c 0.50222,0.1849976 0.856397,0.6572637 0.856397,1.2053571 0,0.5480934 -0.354177,1.0203594 -0.856397,1.2053572 -0.08084,-0.8286694 -0.08084,-1.582045 0,-2.4107143 z m -1.0026121,0.020089 c 0.006,-0.00244 0.014846,0.00236 0.020887,0 0.089951,0.8935088 0.1006753,1.595981 0.020887,2.3906251 -0.502222,-0.1849976 -0.8563981,-0.6572636 -0.8563981,-1.205357 0,-0.5325604 0.3348188,-0.9900858 0.8146215,-1.1852679 z M 14.5,10 v 9 h -9 v -9 c 1.5,0 6.344103,0 9,0 z"/>
</svg>
