<svg width="17" height="19" viewBox="0 0 10.88 12.159" xml:space="preserve" xmlns="http://www.w3.org/2000/svg">
 <path d="m 5.4247425,0.64817002 c -0.6683156,0 -0.6683156,0.77590418 -0.6683156,0.77590418 L 2.2502419,2.199979 v 0.7759041 l -1.50371137,3.879522 c 0,0.775905 0.52931137,1.5518089 1.67079057,1.5518089 1.1414782,0 1.6707894,-0.7759039 1.6707894,-1.5518089 L 2.5843993,2.9758831 H 4.7564269 V 10.73493 H 2.0831628 L 1.4148464,11.510835 H 9.4346385 L 8.7663222,10.73493 H 6.0930583 V 2.9758831 h 2.1720275 l -1.5037112,3.879522 c 0,0.775905 0.5165684,1.5518089 1.6707894,1.5518089 1.1542225,0 1.670789,-0.7759039 1.670789,-1.5518089 L 8.5992432,2.9758831 V 2.199979 L 6.0930583,1.4240742 c 0,0 0,-0.77590418 -0.6683158,-0.77590418 z M 2.4173211,3.7517881 3.5868739,6.8554051 H 1.247768 Z m 6.0148429,0 1.1695535,3.103617 H 7.2626112 Z" style="stroke:#fff;stroke-width:1.29734;stroke-dasharray:none;stroke-opacity:1;paint-order:markers stroke fill"/>
</svg>
