<svg width="20" height="17" xmlns="http://www.w3.org/2000/svg">
 <path d="M 15.999914,3.9999837 H 12.999932 V 1.0000005 H 1.0000005 V 6.999967 c 0.01995,3.313653 2.722323,5.983664 6.0359754,5.963647 2.1157229,-0.01275 4.0683171,-1.138807 5.1390251,-2.963664 h 3.825015 C 17.656894,9.99995 19,8.656845 19,6.999967 19,5.3430889 17.656894,3.9999837 16.000016,3.9999837 Z m 0,4.5000265 H 12.789959 C 12.92301,8.0108607 12.993658,7.5068635 12.999952,6.999967 V 5.4999238 h 2.999983 c 0.828448,0 1.500042,0.6715525 1.500042,1.5000432 0,0.8284494 -0.671553,1.5000432 -1.500042,1.5000432 z m -2.999982,6.7499878 c 0,0.414147 -0.335854,0.750001 -0.750001,0.750001 H 1.750249 c -0.4141472,0 -0.7500009,-0.335854 -0.7500009,-0.750001 0,-0.414147 0.3358537,-0.750001 0.7500009,-0.750001 h 10.499682 c 0.414147,0 0.750001,0.335854 0.750001,0.750001 z" stroke="#fff" style="stroke-width:2;stroke-miterlimit:4;stroke-dasharray:none;paint-order:stroke fill markers;stroke-linejoin:round"/>
</svg>
