<svg height="20" width="20" xml:space="preserve" xmlns="http://www.w3.org/2000/svg">
 <path style="stroke:#fff;stroke-width:2;stroke-linejoin:miter;stroke-dasharray:none;stroke-opacity:1;paint-order:markers stroke fill" d="m 2.1526351,1.00012 c -0.036479,0 -0.073055,0.00428 -0.1088663,0.010003 C 1.8351718,1.0438624 1.6562821,1.1721404 1.564334,1.354311 0.5089408,3.4393355 0.94816994,5.9341014 2.6613819,7.5716813 l 3.0650316,2.9275897 c 0.3023966,0.289372 0.712777,0.450244 1.1368252,0.450244 0.04535,0 0.090746,-0.0024 0.1360848,-0.006 l 1.7795615,-0.144081 7.758886,8.00034 c 0.120468,0.124377 0.289083,0.196756 0.466874,0.200107 h 0.01257 c 0.17381,0 0.339182,-0.06493 0.462684,-0.182099 l 1.329438,-1.270691 c 0.122777,-0.117083 0.190518,-0.276598 0.190518,-0.442237 0,-0.165612 -0.06822,-0.325136 -0.190518,-0.442242 L 2.6132277,1.1842199 C 2.4897629,1.0661738 2.3240825,1.00012 2.1526351,1.00012 Z"/>
 <path style="stroke:#fff;stroke-width:2;stroke-linecap:butt;stroke-linejoin:miter;stroke-dasharray:none;stroke-opacity:1;paint-order:stroke markers fill" d="m 14.777996,1.0000001 c -0.142518,0 -0.28521,0.053959 -0.39419,0.1627659 L 11.00671,4.5396678 c -0.811771,0.812242 -0.882051,2.1085863 -0.619237,3.1460097 L 1.1656743,16.805941 c -0.22733603,0.226991 -0.22733603,0.596606 0,0.823633 l 1.1982611,1.200154 c 0.227336,0.22703 0.5969733,0.22703 0.8236817,0 L 12.279138,9.5477168 c 1.037408,0.2618388 2.362642,0.2511605 3.173493,-0.5604223 l 3.379056,-3.3769018 c 0.217998,-0.2175774 0.217961,-0.5707587 0,-0.7883359 -0.217368,-0.2172456 -0.569087,-0.2172456 -0.786418,0 l -3.002518,3.000383 c -0.284004,0.2836923 -0.743637,0.2836923 -1.027641,0 -0.28275,-0.2834706 -0.28275,-0.7422243 0,-1.0256212 l 2.984865,-2.9846947 c 0.225638,-0.2258468 0.225638,-0.5933494 0,-0.8197126 -0.226708,-0.2255511 -0.592159,-0.2255511 -0.817797,0 L 13.19731,5.9790672 c -0.284004,0.2839873 -0.743636,0.2839873 -1.027638,0 -0.283415,-0.2833602 -0.283415,-0.7444436 0,-1.0275822 l 3.000553,-3.0003829 c 0.217959,-0.2175775 0.217959,-0.5704634 0,-0.7883361 C 15.061547,1.0539602 14.920516,1.0000001 14.777996,1.0000001 Z"/>
</svg>
