<svg width="20" height="14" xmlns="http://www.w3.org/2000/svg">
 <path d="M 2,3 C 1.5178572,3 1,3.3214286 1,3.9642857 V 13 h 2 v -2 c 0,0 12.560896,0.02433 14,0 v 2 h 2 V 10.232143 5 C 19,4.5760463 18.62613,4 18,4 17.37387,4 16.962538,4.5777047 17,5 V 9.5 H 3 V 4 C 3,3.3571429 2.4821429,3 2,3 Z m 3.5,1.2857143 c -1.0651204,0 -1.9285714,0.863451 -1.9285714,1.9285714 0,1.0651204 0.863451,1.9285714 1.9285714,1.9285714 1.0651204,0 1.9285714,-0.863451 1.9285714,-1.9285714 C 7.4285714,5.1491653 6.5651204,4.2857143 5.5,4.2857143 Z M 8,5.5 v 2.5000001 h 8.373308 C 16.373308,6.7142859 15.096346,5.5 13.857143,5.5 Z" style="fill:#000;fill-opacity:1;stroke:#fff;stroke-width:2;stroke-dasharray:none;stroke-opacity:1;paint-order:markers stroke fill"/>
</svg>
