<svg height="20" width="17" viewBox="0 0 10.88 12.799" xml:space="preserve" xmlns="http://www.w3.org/2000/svg">
 <path d="m 20.12,-0.05628 c -0.292175,0 -0.626841,0.19231545 -0.871994,0.44443049 C 19.002854,0.64026553 18.84,0.94547036 18.84,1.22372 v 8.96 H 18.2 v 1.28 h 7.68 v -1.28 H 25.24 V 5.7037202 c 0.0397,-0.00583 0.298117,0 0.331809,0 0.09683,3.661e-4 0.162958,0.032751 0.219256,0.08778 0.05398,0.05276 0.08893,0.1291665 0.08893,0.2082434 0,0.1197024 6e-6,0.2538085 6e-6,0.3439767 0,0.2465615 9.2e-4,0.1761603 0,0.2465615 v 1.6582695 c -7.53e-4,0.3996224 0.06491,0.6591943 0.259204,0.9060271 0.168859,0.2145253 0.418651,0.405448 0.71249,0.4039402 0.305445,1.725e-4 0.532232,-0.1160891 0.696112,-0.3101915 C 27.766372,8.989454 27.801117,8.6603379 27.8,8.2637091 v -4.479989 c 1.6e-5,-0.1890147 1.5e-5,-0.3202802 -0.0152,-0.4266529 C 27.771066,3.2610855 27.744946,3.1853709 27.69527,3.1057858 27.538139,2.9224282 27.491068,2.859283 27.30362,2.6671385 26.702118,2.0517898 26.157904,1.5076881 26.157323,1.507128 L 25.88,1.2237088 25.511602,1.601986 l 0.776008,1.1782965 0.0079,0.017144 c 0.0042,0.012728 0.0079,0.033438 0.0079,0.060571 0.0011,0.058235 -0.02016,0.1417683 -0.05258,0.2000018 l -0.06857,0.1257153 c -0.07885,0.1454974 -0.12585,0.4066031 -0.123429,0.6160057 0.0019,0.1686593 0.03725,0.3519687 0.110859,0.4937187 0,0 0.07505,0.1440216 0.128,0.2045734 0.141102,0.1613526 0.311606,0.2994111 0.494793,0.4107078 0.113628,0.069036 0.36752,0.155 0.36752,0.155 v 3.1696596 c -0.0011,0.2378224 -3e-6,0.4655134 -0.06539,0.5540269 -0.05384,0.072877 -0.154123,0.1163024 -0.245686,0.1163024 -0.09156,0 -0.181048,-0.064161 -0.232349,-0.1382596 C 26.512558,8.6152026 26.520753,8.4849868 26.52,8.2258007 V 6.3437202 c -3.2e-5,-0.096116 -2.4e-5,-0.2598048 -1.3e-5,-0.4084443 C 26.519993,5.8470199 26.52,5.76407 26.52,5.7037202 26.52,5.5044834 26.4464,5.3649617 26.329973,5.2491228 26.214971,5.1347039 26.058955,5.063709 25.88,5.063709 l -0.64,1.12e-5 V 1.22372 C 25.240014,0.96813828 25.121746,0.71187883 24.889006,0.44951165 24.656267,0.18714447 24.274844,-0.05628 23.96,-0.05628 Z" style="display:inline;stroke:#fff;stroke-width:1.28;stroke-dasharray:none;stroke-opacity:1;paint-order:markers stroke fill" transform="translate(-17.56 .696)"/>
 <path style="display:inline;fill:#fff;fill-opacity:1;stroke:none;stroke-width:1.28;stroke-linejoin:round;stroke-dasharray:none;paint-order:markers stroke fill" d="M2.56 1.92H6.4V5.12H2.56z"/>
</svg>
