<svg width="15" height="20" xmlns="http://www.w3.org/2000/svg">
 <path d="m3 0.5h9c1.5 0 2.5 1 2.5 2.5v10c0 1.5-1 2.5-2.5 2.5h-9c-1.5 0-2.5-1-2.5-2.5v-10c0-1.5 1-2.5 2.5-2.5z" stroke="#fff"/>
 <path d="m3.5 15.5-2.5 4h3.5l2.5-4z" stroke="#fff"/>
 <path d="m11.5 15.5 2.5 4h-3.5l-2.5-4z" stroke="#fff"/>
 <path d="m4 2.5h7c1 0 1.5 0.5 1.5 1.5v4c0 1-0.5 1.5-1.5 1.5h-7c-1 0-1.5-0.5-1.5-1.5v-4c0-1 0.5-1.5 1.5-1.5z" fill="#fff" stroke="#fff"/>
 <path d="m3.5 11.5c-0.5 0-1 0.5-1 1s0.5 1 1 1 1-0.5 1-1-0.5-1-1-1z" stroke-linecap="round" stroke-linejoin="round" fill="#fff" stroke="#fff"/>
 <path d="m11.5 11.5c-0.5 0-1 0.5-1 1s0.5 1 1 1 1-0.5 1-1-0.5-1-1-1z" stroke-linecap="round" stroke-linejoin="round" fill="#fff" stroke="#fff"/>
</svg>
