<svg width="20" height="19" xmlns="http://www.w3.org/2000/svg">
 <path style="fill:#000;fill-opacity:1;stroke:#fff;stroke-width:2;stroke-dasharray:none;stroke-opacity:1;paint-order:markers stroke fill" d="M 2,1 C 1.3738706,1 1,1.5760467 1,2 V 7.2324219 8.9648438 10 18 h 2 v -2 c 0,0 12.560897,0.02433 14,0 v 2 h 2 V 15.232422 10 2 c 0,-0.6428565 -0.517857,-0.9648438 -1,-0.9648438 -0.482143,10e-8 -1,0.3571436 -1,1 V 6.5 H 3 V 2 C 3.037462,1.5777051 2.6261294,1 2,1 Z m 12.5,0.2851562 c -1.065119,10e-8 -1.927734,0.8645682 -1.927734,1.9296876 0,1.0651193 0.862615,1.9277343 1.927734,1.9277343 1.065119,0 1.927734,-0.862615 1.927734,-1.9277343 0,-1.0651194 -0.862615,-1.9296876 -1.927734,-1.9296876 z M 6.1425781,2.5 C 4.9033764,2.5 3.6269531,3.7142871 3.6269531,5 H 12 V 2.5 Z M 3,8 c 1.4391026,0.02433 14,0 14,0 v 2 4.5 H 3 V 10 9 Z m 2.5,1.2851562 c -1.0651193,0 -1.9277344,0.8645678 -1.9277344,1.9296878 0,1.065119 0.8626151,1.927734 1.9277344,1.927734 1.0651193,0 1.9277344,-0.862615 1.9277344,-1.927734 0,-1.06512 -0.8626151,-1.9296877 -1.9277344,-1.9296878 z M 8,10.5 V 13 h 8.373047 c 0,-1.285713 -1.276423,-2.5 -2.515625,-2.5 z"/>
</svg>
