<svg width="20" height="20" xmlns="http://www.w3.org/2000/svg">
 <path style="stroke-width:2;stroke-dasharray:none;stroke:#fff;stroke-opacity:1;paint-order:stroke fill markers;stroke-linejoin:round;stroke-linecap:round" d="m 9.2808815,1.7194259 c 0,0 1.1403885,2.0289436 2.8539205,0.3597129 0.236151,0.359713 0.71348,1.0791389 0.71348,1.0791389 0,0 -2.456777,1.6949 -3.5674005,-1.4388518 z M 5.7134802,3.1582777 c 0.2059254,0.4379762 0.471275,0.9764882 0.7134802,1.4388517 0.3599172,-0.7194259 1.4269604,-0.7194259 1.4269604,-0.7194259 0.7134802,0 1.2370751,0.2818789 1.2370751,0.7389419 0,0.4570629 -0.5235949,0.6999099 -1.2370751,0.6999099 0,0 0,0.7194259 0,1.0791389 0.9352681,-0.1789341 1.42884,0.5680292 1.2001795,1.0841657 C 8.620877,8.4578129 6.0730214,8.57314 5,6.7554071 c 0,2.868943 2.4554364,2.877703 2.8539208,2.877703 1.4269607,0 2.140441,-1.4388514 2.140441,-2.877703 0.3715822,0.3906743 0.9666632,0.3925356 1.4269612,0 0.645559,-0.5505586 0.898055,-1.4461327 1.783701,-1.4388518 1.080003,0.00888 1.07022,2.1582776 0.356739,2.8777034 -0.71348,0.7194256 -2.421582,0.4638147 -2.853921,-0.7194258 0,0.7194258 0,2.159251 2.140441,2.1582772 2.14044,-0.00104 2.574329,-2.4345031 1.7837,-4.3165548 -0.488645,-1.1631926 -1.403493,-1.4748921 -2.390141,-1.16669 -0.76208,0.2380581 -0.727205,0.5786702 -1.177259,1.16669 -0.235049,0.2846826 -0.356741,0.7194259 -1.0702212,0.7194259 -0.2476631,0 -0.5505768,-0.1974695 -0.7134803,-0.359713 0.8833885,-0.6365748 0.7532925,-1.8611895 0,-2.5179905 -0.9902052,-0.8633667 -2.7398584,-0.6868628 -3.5674013,0 z M 9.9943618,1.7194259 10.707842,1 11.421323,1.7194259 10.707842,2.4388518 Z M 14.5,10 v 9 h -9 v -9 c 1.5,0 6.344103,0 9,0 z"/>
</svg>
