<svg width="20" height="20" xmlns="http://www.w3.org/2000/svg">
 <path d="M 10,5 C 7.1393287,5.8867345 6,8.5714286 6,10.714285 6,12.857144 7.3959464,14.471259 9.2,15 7.6,12.672439 7.6,10.714285 10,9.2857145 c -0.4039378,0.9662985 0,2.8571415 0.8,3.5714295 0.345164,-0.286257 0.8,-1.017663 0.8,-1.428572 1.6,1.428572 0.450317,2.595185 0,3.571428 C 12.470544,14.600641 14,13.571428 14,11.428572 14,9.2857145 12.4,8.5714286 12.4,6.4285715 11.293188,6.8566023 10.8,7.8571429 10.8,8.5714286 10.038351,8.1738861 9.2,6.6045897 10,5 Z" style="fill:#000;fill-opacity:1;stroke-width:2;stroke-dasharray:none;stroke:#fff;stroke-opacity:1;paint-order:markers stroke fill"/>
 <path style="color:#000;fill:#000;fill-opacity:1;stroke:#fff;stroke-width:2;stroke-linejoin:round;stroke-dasharray:none;paint-order:markers stroke fill;stroke-opacity:1" d="M17.027344 15.613281C18.260455 14.072873 19 12.121084 19 10 19 7.8789158 18.260453 5.9271247 17.027344 4.3867188L15.869141 5.5449219C16.807451 6.7806832 17.363281 8.3233374 17.363281 10 17.363281 11.676663 16.807413 13.219354 15.869141 14.455078L17.027344 15.613281zM14.455078 15.869141C13.219354 16.807413 11.676663 17.363281 10 17.363281 8.3233374 17.363281 6.7806832 16.807451 5.5449219 15.869141L4.3867188 17.027344C5.9271247 18.260453 7.8789158 19 10 19 12.121084 19 14.072873 18.260455 15.613281 17.027344L14.455078 15.869141zM5.5449219 4.1308594C6.7806459 3.1925869 8.3233374 2.6367188 10 2.6367188 11.676662 2.6367188 13.219316 3.1925494 14.455078 4.1308594L15.613281 2.9726562C14.072876 1.739547 12.121084 1 10 1 7.8789158 1 5.9271266 1.739545 4.3867188 2.9726562L5.5449219 4.1308594zM2.9726562 4.3867188C1.739545 5.9271266 1 7.8789158 1 10 1 12.121084 1.739547 14.072876 2.9726562 15.613281L4.1308594 14.455078C3.1925494 13.219316 2.6367188 11.676662 2.6367188 10 2.6367188 8.3233374 3.1925869 6.7806459 4.1308594 5.5449219L2.9726562 4.3867188z"/>
 <path style="fill:#000;fill-opacity:1;stroke:none;stroke-width:2;stroke-linecap:butt;stroke-linejoin:round;stroke-dasharray:none;stroke-opacity:1;paint-order:stroke fill markers;stop-color:#000" d="M -30.804754,15 -19.218488,4.137952"/>
</svg>
