<svg width="20" height="20" xmlns="http://www.w3.org/2000/svg">
 <path style="fill:#000;fill-opacity:1;stroke:#f9f5f0;stroke-width:2;stroke-linecap:round;stroke-linejoin:round;stroke-dasharray:none;stroke-opacity:1;paint-order:markers stroke fill;stop-color:#000" d="M 10,1 C 8.57507,1 7.1186554,1.678328 5,3 L 7.0117188,4.9003906 C 6.1391903,5.4123188 5.4123188,6.1391903 4.9003906,7.0117188 L 3,5 c -1.2660122,2.0351654 -2,3.5750693 -2,5 0,1.42493 0.6504981,2.909174 2,5 l 1.9003906,-2.011719 c 0.5119282,0.872528 1.2387998,1.5994 2.1113282,2.111328 L 5,17 c 2.0629957,1.432992 3.5750699,2 5,2 1.424931,0 2.881345,-0.650498 5,-2 l -2.011719,-1.900391 c 0.872528,-0.511928 1.5994,-1.2388 2.111328,-2.111328 L 17,15 c 1.310122,-2.102375 2,-3.575069 2,-5 C 19,8.5750693 18.314472,7.030756 17,5 L 15.107422,7.0019531 C 14.595773,6.130382 13.869618,5.4042269 12.998047,4.8925781 L 15,3 C 12.881345,1.7061579 11.424931,1 10,1 Z"/>
</svg>
