<svg width="14" height="20" version="1.0" xml:space="preserve" xmlns="http://www.w3.org/2000/svg">
 <g style="display:inline">
  <path style="display:inline;fill:#000;fill-opacity:1;stroke:#fff;stroke-width:2;stroke-linecap:round;stroke-linejoin:round;stroke-dasharray:none;stroke-opacity:1;paint-order:stroke markers fill" d="m 11.691278,-0.2185309 c -0.5,1.00000005 -2.5,3 -2.5,5 0,1 0.5,1.8660254 1,2 -3.0036488,0 -2.818093,-0.4464794 -5,-1 0,1.0590112 0.7985404,1.6113281 0.7985404,1.6113281 0.6262255,0.4735851 1.3404429,0.3827309 2.4885693,0.3886719 H 11.191278 V 8.7814697 H 6.6912783 V 17.781469 H 15.691278 V 8.7814697 l -3.5,-6e-7 V 7.7814685 l 1.71289,6e-7 c 1.198171,-0.037253 1.642603,-0.060003 2.28711,-0.5 0.4963,-0.3388177 1,-0.839844 1,-1.5 0.0971,-0.022718 -2.462023,1.0463493 -4,1 0.5,-0.2886751 1,-1 1,-2 0,-2 -2.5,-1.4035406 -2.5,-5 z m 0,4 c -0.0055,1.2172467 0.5,1.5 0.5,2 0,0.5 -0.397572,0.8975722 -0.5,1.0000001 -0.108399,-0.1083989 -0.5,-0.5000001 -0.5,-1.0000001 0,-1 0.252678,-1.5716287 0.5,-2 z" transform="translate(-4.191 1.218)"/>
 </g>
</svg>
