<svg width="20" height="20" xmlns="http://www.w3.org/2000/svg">
 <path d="M 3,1 C 3,2 3.654545,2.639242 4,2.984387 5.0942281,3.6367774 5.3748289,3.49439 6.75,3.5 6.75603,4.4683095 6.73117,4.0053898 6.75,5 H 5.5 C 5,5 5,5.3038147 5,5.625 5,5.9461852 5.0080158,6.25 5.5,6.25 h 1.25 c 0.020176,2.2180435 0.022654,1.1517454 0,3.75 1.4847421,-0.011452 1.5,0 1.5,0 V 6.25 h 3.5 V 10 c 0,0 1.5,-0.010104 1.5,0 0.01351,-7.5106838 -0.01124,3.73612 0,-3.75 H 14.5 C 14.720961,6.25 15,6.1276551 15,5.625 15,5.1223449 14.725661,5 14.5,5 h -1.25 c 0.006,-1.0194819 0.0027,-0.4909598 0,-1.5 C 14.685113,3.4648233 15.083848,3.4458421 16,2.984387 16.417156,2.6229998 17,2 17,1 11,2 8,2 3,1 Z m 5.25,2.5 h 1 V 5 h -1 C 8.23801,4.0280965 8.24249,4.4983702 8.25,3.5 Z m 2.5,0 h 1 c 0.0016,0.9936492 0.0089,0.5054998 0,1.5 h -1 z M 14.5,10 v 9 h -9 v -9 c 1.5,0 6.344103,0 9,0 z" style="stroke:#fff;stroke-opacity:1;paint-order:stroke fill markers;stroke-width:2;stroke-dasharray:none;stroke-linejoin:round;stroke-linecap:round"/>
</svg>
