<svg width="17" height="19" viewBox="0 0 10.88 12.159" xml:space="preserve" xmlns="http://www.w3.org/2000/svg">
 <path d="m2.56 0.63953c-0.29218 0-0.62684 0.19232-0.87199 0.44443-0.24515 0.25212-0.40801 0.55732-0.40801 0.83557v8.3198h-0.64v1.28h7.68v-1.28h-0.64v-3.8398c0.0397-0.00583 0.29812 0 0.33181 0 0.09683 3.661e-4 0.16296 0.032751 0.21926 0.08778 0.05398 0.05276 0.08893 0.12917 0.08893 0.20824 0 0.1197 6e-6 0.25381 6e-6 0.34398 0 0.24656 9.2e-4 0.17616 0 0.24656v1.018c-7.53e-4 0.39962 0.06491 0.65919 0.2592 0.90603 0.16886 0.21453 0.41865 0.40545 0.71249 0.40394 0.30544 1.725e-4 0.53223-0.11609 0.69611-0.31019 0.21856-0.25887 0.25331-0.58799 0.25219-0.98462v-3.8398c1.6e-5 -0.18901 1.5e-5 -0.32028-0.0152-0.42665-0.013734-0.095982-0.039854-0.1717-0.08953-0.25128-0.15713-0.18336-0.2042-0.2465-0.39165-0.43865-0.6015-0.61535-1.1457-1.1595-1.1463-1.16l-0.27732-0.28342-0.3684 0.37828 0.77601 1.1783 0.0079 0.017144c0.0042 0.012728 0.0079 0.033438 0.0079 0.060571 0.0011 0.058235-0.02016 0.14177-0.05258 0.2l-0.06857 0.12572c-0.07885 0.1455-0.12585 0.4066-0.12343 0.61601 0.0019 0.16866 0.03725 0.35197 0.11086 0.49372 0 0 0.07505 0.14402 0.128 0.20457 0.1411 0.16135 0.31161 0.29941 0.49479 0.41071 0.11363 0.069036 0.36752 0.155 0.36752 0.155v2.5294c-0.0011 0.23782-3e-6 0.46551-0.06539 0.55403-0.05384 0.072877-0.15412 0.1163-0.24569 0.1163-0.09156 0-0.18105-0.064161-0.23235-0.13826-0.10402-0.15025-0.095825-0.28046-0.096578-0.53965v-1.2419c-3.2e-5 -0.096116-2.4e-5 -0.2598-1.3e-5 -0.40844 6e-6 -0.088256 1.3e-5 -0.17121 1.3e-5 -0.23156 0-0.19924-0.0736-0.33876-0.19003-0.4546-0.115-0.11442-0.27102-0.18541-0.44997-0.18541l-0.64 1.12e-5v-3.84c1.4e-5 -0.25558-0.11825-0.51184-0.35099-0.77421-0.23274-0.26237-0.61416-0.50579-0.92901-0.50579z" stroke="#fff" stroke-width="1.28" style="paint-order:markers stroke fill"/>
 <path d="m7.04 5.1195s-3.4234 3.8544-4.48 5.12c-0.00762-0.0039 0.00763 0.0039 0 0 0.41534-1.2445 1.1817-2.5866 1.6-3.84h-2.24l4.4655-5.12c0.00646 0.00276 0.012892 0.00555 0.019346 0.00832l-1.6049 3.8317h2.24c-0.34258 0.41255 0 0 0 0z" fill="#fff"/>
</svg>
