<svg width="24" height="20" xmlns="http://www.w3.org/2000/svg">
 <g style="display:inline;stroke:#000;stroke-opacity:0">
  <path style="display:inline;fill:#000;fill-opacity:1;stroke:#fff;stroke-width:2;stroke-linecap:round;stroke-linejoin:round;stroke-dasharray:none;stroke-opacity:1;paint-order:stroke markers fill" d="M 23,1 V 19 H 1 V 1 Z"/>
  <path d="m 2.7093051,10.657983 c 0.128,-0.256 0.28,-0.496 0.456,-0.7200001 0.192,-0.224 0.52,-0.56 0.984,-1.008 0.48,-0.448 0.912,-0.792 1.296,-1.032 0.4,-0.24 0.696,-0.368 0.888,-0.384 0.192,-0.016 0.352,0.016 0.48,0.096 0.272,0.176 0.352,0.44 0.24,0.792 0.112,-0.08 0.216,-0.152 0.312,-0.216 0.096,-0.08 0.216,-0.128 0.36,-0.144 0.16,-0.032 0.296,0.008 0.408,0.12 0.112,0.096 0.152,0.24 0.12,0.432 -0.16,0.592 -0.328,1.128 -0.504,1.6080001 -0.16,0.48 -0.208,0.872 -0.144,1.176 C 8.502,12.272 7.002,12.772 6.7653051,12.025983 c -0.192,-0.432 -0.168,-1.096 0.072,-1.992 -0.24,0.24 -0.528,0.544 -0.864,0.912 -0.336,0.368 -0.576,0.624 -0.72,0.768 -0.144,0.128 -0.28,0.248 -0.408,0.36 -0.112,0.096 -0.312,0.184 -0.6,0.264 -0.272,0.08 -0.544,0.112 -0.816,0.096 -0.256,-0.016 -0.48,-0.104 -0.672,-0.264 -0.192,-0.16 -0.28,-0.384 -0.264,-0.672 0.016,-0.304 0.088,-0.584 0.216,-0.84 z m 3.288,-1.4640001 c -0.176,-0.016 -0.312,-0.088 -0.408,-0.216 -0.4,0.32 -0.816,0.688 -1.248,1.1040001 -0.432,0.4 -0.72,0.848 -0.864,1.344 0.64,0.176 1.376,-0.312 2.208,-1.4640001 0.224,-0.32 0.456,-0.608 0.696,-0.864 -0.096,0.032 -0.224,0.064 -0.384,0.096 z M 12.673287,4.177983 q 0.048,-0.24 0.216,-0.336 0.168,-0.12 0.336,-0.096 0.168,0.024 0.288,0.168 0.12,0.144 0.096,0.3839999 -0.216,1.92 -1.68,3.984 0.144,-0.048 0.288,-0.096 1.104,-0.432 1.704,-0.216 0.6,0.192 0.792,0.648 0.192,0.432 0.096,1.056 -0.096,0.6000001 -0.408,1.2000001 -0.72,1.416 -1.896,1.824 -1.008,0.36 -1.632,0.36 -0.624,0 -1.0799996,-0.216 -0.48,-0.192 -0.744,-0.528 -0.864,-0.96 0.288,-1.776 0.12,-0.096 0.24,-0.192 -0.264,-0.264 -0.048,-0.6480001 1.4879996,-1.68 1.9679996,-2.448 1.008,-1.584 1.176,-3.0719999 z m 1.224,5.5919999 q 0.096,-0.408 0,-0.624 -0.072,-0.216 -0.504,-0.216 -0.408,0 -0.816,0.144 -0.384,0.144 -0.72,0.36 -0.336,0.216 -0.648,0.456 -0.288,0.2400001 -0.576,0.4080001 0.096,0.264 -0.12,0.528 -0.7919996,0.456 -0.7439996,0.864 0,0.168 0.4559996,0.336 0.456,0.192 1.128,0.048 1.176,-0.24 2.088,-1.464 0.36,-0.432 0.456,-0.8400001 z m 5.475981,-0.912 q -0.312,0.168 -0.576,0 -1.32,0.552 -2.088,1.7280001 -0.288,0.432 -0.336,0.888 0.48,0.648 2.208,0.456 0.696,-0.096 1.344,-0.24 0.648,-0.168 0.936,-0.216 0.288,-0.048 0.432,0.072 0.144,0.096 0.192,0.24 0.12,0.36 -0.288,0.576 -1.896,0.48 -2.616,0.576 -1.608,0.216 -2.616,-0.432 -0.888,-0.624 -0.408,-1.824 0.432,-1.0560001 1.584,-1.9680001 1.152,-0.912 2.064,-0.912 0.24,0.072 0.36,0.264 0.096,0.264 0.024,0.432 -0.048,0.144 -0.216,0.36 z" style="font-size:24px;line-height:1.25;font-family:Karumbi;-inkscape-font-specification:Karumbi;text-align:center;letter-spacing:-.86px;text-anchor:middle;fill:#fff;stroke-opacity:0" aria-label="abc" stroke="none"/>
  <path style="fill:none;stroke:#fff;stroke-width:1px;stroke-linecap:butt;stroke-linejoin:miter;stroke-opacity:1" d="m 0.5,16.5 h 23"/>
 </g>
</svg>
