<svg width="19" height="17" viewBox="-4 0 0.76 0.68" xmlns="http://www.w3.org/2000/svg">
 <path style="stroke:#fff;stroke-width:.08;stroke-dasharray:none;stroke-opacity:1;paint-order:markers stroke fill" d="m -3.4018846,0.07092588 0.1068818,0.21466355 c 0.00189,0.002817 0.00282,0.00657 0.00376,0.009389 0.00657,0.0168885 0.011249,0.0403167 0.011249,0.0553162 v 0.1021721 c 0,0.0318872 -0.022033,0.0600323 -0.052031,0.067531 l 2.68e-4,0.0682741 c 1.141e-4,0.0290672 -0.023429,0.0515659 -0.051566,0.0515659 -0.029068,0 -0.051566,-0.0224984 -0.051566,-0.0515659 l -2.68e-4,-0.0682741 -0.3717877,4e-8 -4.561e-4,0.0676163 c -1.96e-4,0.0290667 -0.021182,0.0522237 -0.050249,0.0522237 -0.028139,0 -0.051902,-0.0225002 -0.051565,-0.0515658 l 7.833e-4,-0.0676163 C -3.938432,0.51315666 -3.96,0.48501231 -3.96,0.45312491 V 0.35095207 c 0,-0.0149987 0.0047,-0.0384267 0.011249,-0.055316 9.356e-4,-0.002817 0.00189,-0.00657 0.00376,-0.009389 l 0.1068781,-0.21466378 c 0.00843,-0.01592876 0.031226,-0.03174559 0.049975,-0.03174559 h 0.3368611 c 0.018748,0 0.041246,0.01499859 0.049676,0.0309278 z"/>
 <path style="fill:#fff;fill-opacity:1;stroke:none;stroke-width:.08;stroke-dasharray:none;stroke-opacity:1;paint-order:markers stroke fill" d="M-3.420633.45243683c.029998 0 .055317-.0243884.055317-.0553162 0-.0299981-.025319-.0534261-.055317-.0534261-.029998 0-.053426.023428-.053426.0534261 0 .0309279.023429.0553162.053426.0553162zM-3.8193493.45309472c.029998 0 .053426-.0243884.053426-.0553162 0-.0299981-.023429-.0534261-.053426-.0534261-.029998 0-.055317.023428-.055317.0534261 0 .0309279.025319.0553162.055317.0553162zM-3.7940613.1362591l-.057176.13030997c-.00282.004679-.00282.010319-.00282.0140689l.468101-.00065789c0-.003754 0-.009389-.00282-.0140689l-.057183-.13030997c-.0075-.0168886-.029997-.0319336-.047817-.0318872L-3.746249.1043719c-.017818.00004643-.040316.0149986-.047817.0318872z"/>
</svg>
