<svg height="19" width="17" viewBox="0 0 1080 1080" xml:space="preserve" xmlns="http://www.w3.org/2000/svg">
 <g style="stroke:#fff;stroke-width:38.37212635;stroke-dasharray:none;stroke-opacity:1">
  <path d="M 613.14175,928.02182 H 54.859363 V 820.12624 H 111.6616 v -6.45442 c 1.6e-4,-228.18538 0.21247,-456.37113 -0.27823,-684.55556 -0.0589,-27.35866 9.11824,-50.350381 27.08381,-70.860567 18.26459,-20.851545 40.00604,-37.242719 67.99975,-44.83326 6.49696,-1.761654 13.4785,-2.693058 20.23912,-2.702667 113.44878,-0.161346 226.89786,-0.09239 340.34688,-0.146637 13.5539,-0.0067 26.00053,3.696343 37.90131,9.364169 28.90721,13.767269 51.19778,34.108845 66.77145,60.92772 7.28623,12.547434 10.73585,26.023502 10.72256,40.433812 -0.0973,105.0728 -0.0524,210.14572 -0.0522,315.21858 v 5.87027 c 1.95757,0 3.71719,-5.7e-4 5.47682,1.7e-4 17.40212,0.008 34.80843,-0.20996 52.20556,0.0741 27.30345,0.44579 49.92012,17.93236 55.26035,42.63032 0.99593,4.60595 1.19595,9.42934 1.20326,14.15316 0.0843,54.75175 -0.0301,109.5039 0.16618,164.25513 0.029,8.16672 0.60184,16.49008 2.41598,24.43611 1.18018,5.1691 4.37632,10.29432 7.88413,14.54186 6.82342,8.26218 15.89304,11.75271 27.09319,8.50431 11.00124,-3.19067 17.05485,-10.23265 17.92147,-20.97317 0.76269,-9.45367 1.40267,-18.94398 1.42043,-28.41921 0.13455,-71.68345 0.0753,-143.36727 0.20835,-215.05077 0.01,-3.25124 -0.96139,-4.73774 -4.24066,-5.69437 -26.18151,-7.63802 -47.93689,-21.93938 -66.89114,-40.30978 -16.82673,-16.30842 -25.53899,-36.08595 -26.76185,-58.68701 -1.29595,-23.95369 2.61257,-46.90333 16.12138,-67.82267 2.13002,-3.29852 3.50649,-7.18928 4.44981,-10.98013 1.48521,-5.96867 0.90034,-11.53123 -3.03137,-17.09399 -22.35411,-31.62869 -44.35639,-63.47976 -67.01355,-96.02383 11.42347,-9.88638 22.88136,-19.80243 34.33926,-29.7185 -0.38317,-0.47623 -0.76632,-0.95246 -1.14947,-1.42869 0.96391,0.83594 1.96838,1.63391 2.88569,2.51322 41.48296,39.76389 83.0861,79.41679 124.35298,119.38039 11.67297,11.30441 22.65283,23.28695 33.40234,35.39376 7.87178,8.86566 9.43733,20.0316 10.08614,31.17817 0.39511,6.78823 0.35454,13.60383 0.35585,20.40719 0.0201,110.29487 0.01,220.58975 0.0251,330.88461 0,18.38176 -0.57985,36.68795 -6.31096,54.47264 -11.18357,34.70453 -43.1742,56.19912 -81.44918,54.31847 -19.3161,-0.94901 -34.92761,-9.74015 -48.71393,-21.94698 -23.77185,-21.04828 -34.16663,-47.51307 -34.37417,-77.73343 -0.33154,-48.26179 -0.14379,-96.5266 -0.23153,-144.79007 -0.0271,-14.79408 -10.08333,-25.2236 -25.63482,-26.38862 -6.65918,-0.49889 -13.37497,-0.34137 -20.0657,-0.43681 -3.64078,-0.052 -7.28309,-0.01 -11.15734,-0.01 v 324.09477 h 56.67307 v 107.90316 h -126.1762" style="fill:#000;fill-opacity:1;stroke:#fff;stroke-width:24.32036177;stroke-dasharray:none;stroke-opacity:1;stroke-linecap:butt;stroke-linejoin:round" transform="matrix(1.14433 0 0 1.07705 -8.715 35.522)"/>
  <path fill="#fefefe" d="m 514.68005,529.33114 c -79.95566,101.95972 -159.69427,203.64577 -239.43289,305.33187 -0.57544,-0.3106 -1.15091,-0.62119 -1.72635,-0.93169 31.34482,-99.99039 62.6896,-199.98075 94.25928,-300.68839 -54.30997,-0.83256 -108.02185,-1.65599 -162.85663,-2.49665 112.72888,-139.09292 224.86352,-277.45263 336.99817,-415.81237 0.48675,0.2228 0.97345,0.44561 1.4602,0.66841 -36.22473,105.09728 -72.4494,210.19459 -108.80685,315.67696 52.22494,0 103.85141,0 156.73904,0 -25.85351,33.14815 -51.13519,65.56321 -76.63397,98.25186 z" style="fill:#fff;fill-opacity:1;stroke:#9a93cd;stroke-width:0;stroke-dasharray:none;stroke-opacity:1" transform="matrix(1.14433 0 0 1.07705 -8.715 35.522)" stroke="none"/>
 </g>
</svg>
