<svg width="14" height="20" version="1.0" xml:space="preserve" xmlns="http://www.w3.org/2000/svg">
 <g style="display:inline">
  <path style="display:inline;fill:#000;fill-opacity:1;stroke:#fff;stroke-width:2;stroke-linecap:round;stroke-linejoin:round;stroke-dasharray:none;stroke-opacity:1;paint-order:stroke markers fill" d="m 11.691278,-0.2185309 c -0.955806,1 -1.506849,2.1746212 -1.5,4 0.0032,0.8568358 0.600897,1.6176624 1,1.9999999 -3.0036486,0 -3.8180928,-0.4464793 -5.9999998,-0.9999999 0,1.0590112 0.7985404,1.6113281 0.7985404,1.6113281 0.6262255,0.4735851 1.3404429,0.3827309 2.4885693,0.3886719 H 11.191278 V 8.7814697 H 6.6912783 V 17.781469 H 15.691278 V 8.7814697 l -3.5,-6e-7 V 6.7814685 l 1.71289,6e-7 c 1.198171,-0.037253 1.642603,-0.060003 2.28711,-0.5 0.4963,-0.3388177 1,-0.839844 1,-1.5 0.0971,-0.022718 -3.462023,1.0463493 -5,1 0.393426,-0.3569567 1.003838,-1.2085653 1,-2 -0.0078,-1.611195 -1.5,-2 -1.5,-4 z m -7e-6,3 c -0.01104,1.1988738 0.500007,1.2769053 0.500007,2.0000001 0,0.4714209 -0.286414,0.7903764 -0.5,1 -0.213587,-0.2096236 -0.5,-0.5285791 -0.5,-1 0,-0.8832988 0.196315,-1.3571994 0.499993,-2.0000001 z" transform="translate(-4.191 1.218)"/>
 </g>
</svg>
