<svg width="20" height="20" xmlns="http://www.w3.org/2000/svg">
 <path d="M 9.9999869,2.0000005 C 10.364897,2.4211076 11.236686,3.372 12,3.372 c 0.763318,0 1.595677,-0.9106143 2,-1.3719995 l 3,2.9433862 c -0.483907,0.8309332 -1.576,2.0557035 -1.576,3.1488485 0,0.7862863 0.281425,1.5310155 0.544,2.1964208 0.226874,0.575267 0.663081,1.230786 0.663081,1.910493 0,2.440975 -1.879079,3.20704 -3.658462,4.171335 L 12.333334,16.71693 C 11.480596,17.179051 10.716372,17.200295 9.9999942,18 9.2836807,17.200312 8.5191362,17.179547 7.6666668,16.716932 L 7.0273686,16.37 C 5.248485,15.404642 3.3689075,14.640038 3.3689075,12.199149 c 0,-0.679673 0.4358009,-1.335235 0.6626959,-1.910493 0.2625556,-0.6654138 0.5447228,-1.4101429 0.5447228,-2.1964208 0,-1.093145 -1.0258979,-2.3889899 -1.5763258,-3.1488485 L 6,2.0000005 c 0.3676222,0.4194715 1.2366843,1.3724729 2,1.3724729 0.7633155,0 1.6192039,-0.9384755 2.000038,-1.3724729 z" fill="#fff" fill-rule="evenodd" stroke="#000" stroke-linecap="round" stroke-linejoin="round" stroke-miterlimit="3.864" stroke-width="1.178" style="fill:#000;fill-opacity:1;stroke:#f9f5f0;stroke-width:2;stroke-miterlimit:3.864;stroke-dasharray:none;stroke-opacity:1;paint-order:stroke markers fill"/>
</svg>
