<svg width="20" height="20" xmlns="http://www.w3.org/2000/svg">
 <path style="fill:#000;fill-opacity:1;stroke:#f9f5f0;stroke-width:2;stroke-linecap:round;stroke-linejoin:round;stroke-dasharray:none;stroke-opacity:1;paint-order:markers stroke fill;stop-color:#000" d="M 10,1 C 8.57507,1 7.1186554,1.678328 5,3 L 7.0117188,4.9003906 C 6.1391903,5.4123188 5.4123188,6.1391903 4.9003906,7.0117188 L 3,5 c -1.2660122,2.0351654 -2,3.5750693 -2,5 0,1.42493 0.6504981,2.909174 2,5 l 1.9003906,-2.011719 c 0.5119282,0.872528 1.2387998,1.5994 2.1113282,2.111328 L 5,17 c 2.0629957,1.432992 3.5750699,2 5,2 1.424931,0 2.881345,-0.650498 5,-2 l -2.011719,-1.900391 c 0.872528,-0.511928 1.5994,-1.2388 2.111328,-2.111328 L 17,15 c 1.310122,-2.102375 2,-3.575069 2,-5 C 19,8.5750693 18.314472,7.030756 17,5 L 15.107422,7.0019531 C 14.595773,6.130382 13.869618,5.4042269 12.998047,4.8925781 L 15,3 C 12.881345,1.7061579 11.424931,1 10,1 Z"/>
 <path d="M 10,5.0000019 C 7.1393287,5.8867364 6,8.5714309 6,10.714287 6,12.857146 7.3959464,14.471261 9.2,15.000002 7.6,12.672441 7.6,10.714287 10,9.2857159 c -0.4039378,0.9662991 0,2.8571421 0.8,3.5714301 0.345164,-0.286257 0.8,-1.017663 0.8,-1.428572 1.6,1.428572 0.450317,2.595185 0,3.571428 C 12.470544,14.600643 14,13.57143 14,11.428574 14,9.2857159 12.4,8.5714309 12.4,6.4285734 11.293188,6.8566042 10.8,7.8571448 10.8,8.5714309 10.038351,8.1738879 9.2,6.6045916 10,5.0000019 Z" style="fill:#f9f5f0;fill-opacity:1;stroke-width:.755929"/>
</svg>
