<svg height="19" width="17" viewBox="0 0 1080 1080" xml:space="preserve" xmlns="http://www.w3.org/2000/svg">
 <path fill="#FFF" d="M580.000000,1081.000000 C386.688904,1081.000000 193.877838,1081.000000 1.033378,1081.000000 C1.033378,721.063782 1.033378,361.127594 1.033378,1.095691 C360.894623,1.095691 720.789307,1.095691 1080.842041,1.095691 C1080.842041,360.999939 1080.842041,720.999939 1080.842041,1081.000000 C914.127136,1081.000000 747.313538,1081.000000 580.000000,1081.000000 M671.500000,1024.081665 C713.236267,1024.081665 754.972473,1024.081665 796.665283,1024.081665 C796.665283,985.864990 796.665283,948.420898 796.665283,910.444397 C777.749146,910.444397 759.026794,910.444397 740.221680,910.444397 C740.221680,796.500916 740.221680,683.090942 740.221680,569.126892 C744.080261,569.126892 747.707825,569.081970 751.333862,569.136719 C757.997498,569.237244 764.686096,569.071350 771.318298,569.596741 C786.806824,570.823669 796.822571,581.807434 796.849365,597.387695 C796.936768,648.215942 796.749756,699.045593 797.079895,749.872070 C797.286621,781.698364 807.639343,809.569519 831.314880,831.736328 C845.045471,844.591858 860.593750,853.850159 879.831665,854.849609 C917.951599,856.830200 949.812683,834.193359 960.951050,797.644592 C966.658936,778.914795 967.239624,759.635803 967.236450,740.277222 C967.217407,624.121155 967.231079,507.965088 967.211121,391.809021 C967.209839,384.644135 967.250244,377.466339 966.856689,370.317383 C966.210449,358.578461 964.651306,346.819153 956.811401,337.482361 C946.105347,324.732178 935.170044,312.112885 923.544250,300.207733 C882.444519,258.120422 841.009766,216.360321 799.694763,174.483337 C798.781189,173.557297 797.780762,172.716919 796.820801,171.836563 C797.202393,172.338104 797.583984,172.839645 797.965576,173.341171 C786.554077,183.784195 775.142639,194.227203 763.765381,204.638947 C786.330811,238.912445 808.243958,272.456116 830.507629,305.765594 C834.423401,311.623962 835.005859,317.482117 833.526672,323.767975 C832.587219,327.760284 831.216309,331.857788 829.094849,335.331604 C815.640808,357.362610 811.748047,381.531830 813.038757,406.758453 C814.256653,430.560547 822.933716,451.389069 839.692322,468.564148 C858.569824,487.910767 880.237122,502.972107 906.312622,511.016022 C909.578552,512.023499 910.542114,513.588989 910.536133,517.013000 C910.403870,592.505859 910.462585,667.999023 910.328552,743.491821 C910.310852,753.470581 909.673523,763.465210 908.913879,773.421265 C908.050842,784.732544 902.021729,792.148743 891.065002,795.508972 C879.910156,798.929993 870.877258,795.253967 864.081543,786.552734 C860.587891,782.079468 857.404663,776.681885 856.229309,771.238098 C854.422485,762.869812 853.852295,754.104126 853.823059,745.503418 C853.627136,687.842651 853.741760,630.180908 853.657593,572.519592 C853.650330,567.544739 853.451111,562.465027 852.459229,557.614319 C847.140625,531.603882 824.615479,513.188049 797.422546,512.718567 C780.095886,512.419434 762.760071,512.648254 745.428406,512.640564 C743.675903,512.639771 741.923401,512.640381 739.973755,512.640381 C739.973755,510.110413 739.973755,508.284302 739.973755,506.458160 C739.973694,395.801605 739.928955,285.144989 740.025879,174.488510 C740.039124,159.312408 736.603455,145.120209 729.346741,131.905991 C713.836121,103.661934 691.635803,82.239380 662.845642,67.740494 C650.993042,61.771473 638.596802,57.871880 625.097778,57.878708 C512.108093,57.935867 399.118347,57.863220 286.128906,58.033138 C279.395660,58.043262 272.442383,59.024158 265.971741,60.879425 C238.091370,68.873337 216.437943,86.135559 198.247299,108.095184 C180.354462,129.695297 171.214554,153.908829 171.273148,182.721359 C171.761856,423.031769 171.550415,663.343567 171.550247,903.654968 C171.550247,905.770691 171.550247,907.886414 171.550247,910.452393 C152.380768,910.452393 133.778412,910.452393 114.977997,910.452393 C114.977997,948.492065 114.977997,986.074951 114.977997,1024.081665 C300.288605,1024.081665 485.394318,1024.081665 671.500000,1024.081665 z"/>
 <g style="stroke:#fff;stroke-opacity:1;stroke-width:.90075414;stroke-dasharray:none">
  <path d="m 671,1024.0817 c -185.60568,0 -370.71139,0 -556.022,0 0,-38.00675 0,-75.58963 0,-113.62931 18.80041,0 37.40277,0 56.57225,0 0,-2.56598 0,-4.6817 0,-6.79742 1.6e-4,-240.3114 0.21161,-480.6232 -0.2771,-720.93361 -0.0586,-28.81253 9.08131,-53.02606 26.97415,-74.62618 18.19064,-21.959621 39.84407,-39.221843 67.72444,-47.215755 6.47064,-1.855267 13.42392,-2.836163 20.15717,-2.846287 112.98944,-0.169918 225.97918,-0.09727 338.96887,-0.15443 13.49902,-0.0068 25.89526,3.892765 37.74786,9.861786 28.79016,14.498886 50.99048,35.921436 66.5011,64.165496 7.25672,13.21422 10.69238,27.40642 10.67914,42.58252 -0.0969,110.65648 -0.0522,221.31309 -0.0521,331.96965 0,1.82614 0,3.65225 0,6.18222 1.94965,0 3.70215,-6.1e-4 5.45466,1.8e-4 17.33166,0.008 34.66748,-0.22113 51.99414,0.078 27.19293,0.46948 49.71807,18.88531 55.03668,44.89575 0.99188,4.85071 1.1911,9.93042 1.19836,14.90527 0.0842,57.66132 -0.0304,115.32306 0.16547,172.98383 0.0292,8.60071 0.59943,17.36639 2.40625,25.73468 1.17535,5.44378 4.35858,10.84137 7.85223,15.31463 6.79572,8.70124 15.82862,12.37726 26.98346,8.95624 10.95673,-3.36023 16.98584,-10.77643 17.84888,-22.08771 0.75964,-9.95605 1.39697,-19.95068 1.41467,-29.92944 0.13403,-75.4928 0.0753,-150.98596 0.20758,-226.47882 0.006,-3.42401 -0.95758,-4.9895 -4.22351,-5.99698 -26.0755,-8.04391 -47.7428,-23.10525 -66.6203,-42.45187 -16.7586,-17.17508 -25.43567,-38.0036 -26.65356,-61.8057 -1.29071,-25.22662 2.60205,-49.39584 16.05609,-71.42685 2.12146,-3.47381 3.49237,-7.57132 4.43182,-11.56363 1.47919,-6.28585 0.89673,-12.14401 -3.01904,-18.00238 -22.26367,-33.30947 -44.17682,-66.85315 -66.74225,-101.12664 11.37726,-10.41175 22.7887,-20.85476 34.2002,-31.29778 -0.3816,-0.50153 -0.76319,-1.00307 -1.14478,-1.50461 0.95996,0.88036 1.96039,1.72074 2.87396,2.64678 41.31501,41.87698 82.74976,83.63708 123.84949,125.72439 11.62579,11.90515 22.5611,24.52445 33.26715,37.27463 7.83991,9.33679 9.39905,21.0961 10.04529,32.83502 0.39355,7.14896 0.35315,14.32675 0.35443,21.49164 0.02,116.15607 0.006,232.31214 0.0253,348.4682 0.003,19.35858 -0.57751,38.63758 -6.2854,57.36737 -11.13837,36.54877 -42.99945,59.18561 -81.11938,57.20502 -19.23792,-0.99945 -34.7862,-10.25775 -48.51679,-23.11328 -23.67554,-22.16681 -34.02826,-50.03797 -34.23499,-81.86426 -0.33013,-50.82648 -0.14312,-101.65613 -0.23052,-152.48438 -0.0268,-15.58026 -10.04255,-26.56402 -25.53107,-27.79095 -6.6322,-0.52539 -13.3208,-0.3595 -19.98444,-0.46002 -3.62604,-0.0548 -7.2536,-0.01 -11.11218,-0.01 0,113.96405 0,227.37403 0,341.31751 18.80511,0 37.52747,0 56.4436,0 0,37.9765 0,75.42059 0,113.63728 -41.69281,0 -83.42901,0 -125.66528,0 M 571.9859,598.47827 c 25.28174,-33.53229 50.56342,-67.06457 76.41693,-101.35522 -52.88763,0 -104.5141,0 -156.73904,0 36.35745,-109.11795 72.58212,-217.83756 108.80685,-326.55715 -0.48675,-0.23048 -0.97345,-0.46097 -1.4602,-0.69145 -112.13465,143.12848 -224.26929,286.25693 -336.99817,430.14386 54.83478,0.86963 108.54666,1.72144 162.85663,2.5827 -31.56968,104.17865 -62.91446,207.6153 -94.25928,311.05194 0.57544,0.32129 1.15091,0.64258 1.72635,0.96387 C 412.07459,809.42596 491.8132,704.23517 571.9859,598.47827 Z" style="stroke:#fff;stroke-opacity:1;stroke-width:.90075414;stroke-dasharray:none;fill:#000;fill-opacity:1" transform="matrix(1.14433 0 0 1.07705 -82.952 -41.685)"/>
  <path fill="#fefefe" d="M 571.76886,598.76129 C 491.8132,704.23517 412.07459,809.42596 332.33597,914.61682 c -0.57544,-0.32129 -1.15091,-0.64258 -1.72635,-0.96387 31.34482,-103.43664 62.6896,-206.87329 94.25928,-311.05194 -54.30997,-0.86126 -108.02185,-1.71307 -162.85663,-2.5827 112.72888,-143.88693 224.86352,-287.01538 336.99817,-430.14386 0.48675,0.23048 0.97345,0.46097 1.4602,0.69145 -36.22473,108.71959 -72.4494,217.4392 -108.80685,326.55715 52.22494,0 103.85141,0 156.73904,0 -25.85351,34.29065 -51.13519,67.82293 -76.63397,101.63824 z" style="stroke:#fff;stroke-opacity:1;stroke-width:.90075414;stroke-dasharray:none;fill:#fff;fill-opacity:1" transform="matrix(1.14433 0 0 1.07705 -82.952 -41.685)"/>
 </g>
</svg>
