<svg width="20" height="20" xmlns="http://www.w3.org/2000/svg">
 <path style="stroke:#fff;stroke-width:2;stroke-linejoin:round;stroke-dasharray:none;stroke-opacity:1;paint-order:stroke markers fill" d="M 10.417129,1.7911297 12.186979,2.7356622 13.53535,1.3738163 13.267331,3.3059417 15.045204,4.2341234 13.10971,4.4837098 12.860123,6.4192036 11.931942,4.6413311 9.9998163,4.9093503 11.361663,3.5609781 Z M 6.9393398,2.2579979 a 4.5,4.5 0 0 0 0,6.3639608 4.5,4.5 0 0 0 6.3639612,0 A 4.5,4.5 0 0 0 14.546262,6.1940414 4,4 0 0 1 13.656854,7.5612988 4,4 0 0 1 8,7.5612987 4,4 0 0 1 8,1.9044445 4,4 0 0 1 9.3962594,0.99984526 4.5,4.5 0 0 0 6.9393398,2.2579979 Z M 14.5,10 v 9 h -9 v -9 c 1.5,0 6.344103,0 9,0 z"/>
</svg>
