<svg width="19" height="22" viewBox="-4 0 0.76 0.88" xmlns="http://www.w3.org/2000/svg">
 <path style="display:inline;stroke:#fff;stroke-width:.0800113;stroke-linecap:butt;stroke-linejoin:bevel;stroke-dasharray:none;stroke-opacity:1;paint-order:stroke markers fill" d="m -3.3958415,0.3353311 0.1007782,0.18345165 c 0.00189,0.002816 0.00282,0.006568 0.00376,0.009385 0.00657,0.0168821 0.011249,0.0403015 0.011249,0.0552953 v 0.10213422 c 0,0.0318752 -0.022034,0.0668607 -0.052035,0.0743565 l 4.653e-4,0.0512263 c 2.639e-4,0.0290552 -0.019994,0.0287675 -0.048133,0.0287675 -0.02907,0 -0.055005,2.8915e-4 -0.055005,-0.0287675 l -2.31e-5,-0.0512263 h -0.3722543 l 3.288e-4,0.0512273 c 1.866e-4,0.0290558 -0.02389,0.0287665 -0.052959,0.0287665 -0.028141,0 -0.048613,9.4673e-4 -0.048861,-0.0281088 l -4.421e-4,-0.0518849 c -0.030005,-0.007496 -0.051131,-0.0418232 -0.051131,-0.0736986 V 0.58412092 c 0,-0.014993 0.0047,-0.0384122 0.011249,-0.0552951 9.356e-4,-0.002816 0.00189,-0.006568 0.00376,-0.009385 l 0.1130106,-0.18345163 c 0.00843,-0.0159228 0.03093,-0.0308794 0.049679,-0.0309159 l 0.3368834,-6.5766e-4 c 0.018749,-3.66e-5 0.041249,0.0149929 0.049679,0.0309161 z m -0.00753,-0.0454084 c 0.061678,0.003192 0.1004264,-0.0266062 0.1213036,-0.0642931 0.00202,-0.002609 0.00276,-0.005179 0.00222,-0.008764 l -5.683e-4,-0.0126262 c -8.29e-5,-0.002317 -0.00108,-0.004495 -0.00276,-0.005951 -0.00168,-0.001482 -0.00385,-0.002116 -0.00599,-0.00176 l -0.086093,0.0119795 c -0.00248,4.1821e-4 -0.00499,-5.0655e-4 -0.0067,-0.002456 L -3.3965422,0.192629 c -0.00113,-0.001278 -0.00185,-0.002926 -0.00202,-0.004686 l -0.00402,-0.0517053 c -2.013e-4,-0.002064 3.329e-4,-0.004128 0.00153,-0.005776 l 0.010675,-0.0148551 c 0.00117,-0.001646 0.00288,-0.002748 0.0048,-0.003065 l 0.082651,-0.01339866 c 0.00379,-6.4595e-4 0.00651,-0.0042044 0.00637,-0.0082689 l -0.00185,-0.01614623 c -1.072e-4,-0.0034327 -0.00222,-0.0052051 -0.00529,-0.0074332 -0.019306,-0.01378998 -0.054256,-0.02699374 -0.088265,-0.02728393 -0.017054,-1.4552e-4 -0.034036,0.0030556 -0.048359,0.01085891 -0.037751,0.02055358 -0.054636,0.04542452 -0.054636,0.04542452 -0.016066,0.01713416 -0.036838,0.02365911 -0.049838,0.0236713 l -0.3586569,-1.1e-7 c -6.893e-4,-2.513e-5 0.00204,4.997e-5 0,0 -0.030163,0 -0.056668,0.0260875 -0.056656,0.0571512 0,0.0310768 0.02523,0.054555 0.055406,0.054542 0.0014,0 0.0028,-5.026e-5 0.00418,-1.767e-4 l 0.3664039,-0.0152093 c 0.040934,0.002545 0.063271,0.0701813 0.1307445,0.0736508 z"/>
 <path style="display:inline;fill:#fff;fill-opacity:1;stroke:none;stroke-width:.0800237;stroke-linecap:butt;stroke-linejoin:bevel;stroke-dasharray:none;stroke-opacity:1;paint-order:stroke markers fill" d="M-3.4207315.68581634c.029998 0 .055317-.0243884.055317-.0553162 0-.0299981-.025319-.0534261-.055317-.0534261-.029998 0-.053426.023428-.053426.0534261 0 .0309279.023429.0553162.053426.0553162zM-3.8194478.68647423c.029998 0 .053426-.0243884.053426-.0553162 0-.0299981-.023429-.0534261-.053426-.0534261-.029998 0-.055317.023428-.055317.0534261 0 .0309279.025319.0553162.055317.0553162zM-3.7880388.40078182l-.063297.0991668c-.00282.004679-.00282.010319-.00282.0140689l.468101-.00065789c0-.003754 0-.009389-.00282-.0140689l-.051058-.0991668c-.0075-.0168886-.0288-.0400633-.04662-.0400169h-.2536699c-.017818 0-.040316.0237862-.047816.0406748z"/>
</svg>
