<svg width="20" height="20" xmlns="http://www.w3.org/2000/svg">
 <circle cx="10" cy="10" r="9.5" fill="#fff" stroke="#000"/>
 <path d="m4.5 6c0-1 0.5-1.5 1.5-1.5h8c1 0 1.5 0.5 1.5 1.5v7c0 1-0.5 1.5-1.5 1.5h-8c-1 0-1.5-0.5-1.5-1.5v-7z" stroke="#000"/>
 <path d="m5.5 11.5v0.5c0 0.5 0.5 1 1 1h2.5zm9 0v0.5c0 0.5-0.5 1-1 1h-2.5z" fill="#fff" stroke="#fff" stroke-linecap="round" stroke-linejoin="round"/>
 <path d="m7 5.5h6c1.5 0 1.5 0 1.5 1.5v1c0 1.5 0 1.5-1.5 1.5h-6c-1.5 0-1.5 0-1.5-1.5v-1c0-1.5 0-1.5 1.5-1.5z" fill="#fff" stroke="#fff"/>
 <path d="M6.5 15.5v.5s0 .5.5.5.5-.5.5-.5v-.5zM12.5 15.5v.5s0 .5.5.5.5-.5.5-.5v-.5z" fill="none" stroke="#000"/>
</svg>
