<svg width="17" height="19" viewBox="0 0 10.88 12.159" xml:space="preserve" xmlns="http://www.w3.org/2000/svg">
 <path d="m 5.5255302,0.80457097 c -0.6683156,0 -0.6683156,0.77590413 -0.6683156,0.77590413 L 2.3510296,2.3563799 V 3.132284 L 0.84731825,7.011806 c 0,0.775905 0.52931135,1.5518089 1.67079055,1.5518089 1.1414782,0 1.6707894,-0.7759039 1.6707894,-1.5518089 L 2.685187,3.132284 h 2.1720276 v 7.759047 H 2.1839505 L 1.5156341,11.667236 H 9.5354262 L 8.8671099,10.891331 H 6.193846 V 3.132284 H 8.3658735 L 6.8621623,7.011806 c 0,0.775905 0.5165684,1.5518089 1.6707894,1.5518089 1.1542225,0 1.6707883,-0.7759039 1.6707883,-1.5518089 L 8.7000309,3.132284 V 2.3563799 L 6.193846,1.5804751 c 0,0 0,-0.77590413 -0.6683158,-0.77590413 z M 2.5181088,3.908189 3.6876616,7.011806 H 1.3485557 Z m 6.0148429,0 1.1695535,3.103617 H 7.3633989 Z" style="stroke:#fff;stroke-width:1.29734;stroke-dasharray:none;stroke-opacity:1;paint-order:markers stroke fill"/>
</svg>
