<svg width="20" height="20" xmlns="http://www.w3.org/2000/svg">
 <circle style="fill:#fff;fill-opacity:1;stroke:none;stroke-width:2.25;stroke-linecap:round;stroke-linejoin:round;paint-order:stroke markers fill" cx="10" cy="5.5" r="4.5"/>
 <path style="stroke-width:2;fill:#000;fill-opacity:1;stroke-dasharray:none;stroke:#fff;stroke-opacity:1;stroke-linecap:round;paint-order:stroke fill markers" d="M 10,10 C 12.480193,10 14.5,7.9627104 14.5,5.5000001 14.5,3.0372896 12.492534,1 10,1 7.5074667,1 5.5,3.0185265 5.5,5.5000001 5.5,7.9814742 7.5198071,10 10,10 Z m 0,-0.6428572 c -2.1340485,0 -3.8571429,-1.7230944 -3.8571429,-3.8571427 0,-2.1340485 1.7230944,-3.8571429 3.8571429,-3.8571429 1.928572,0 2.571428,3.5224679 0,3.8571429 -2.5714286,0.3346754 -1.8740918,3.8571427 0,3.8571427 z m 0,-1.2857143 c -0.3550403,0 -0.6428571,-0.2878174 -0.6428571,-0.6428571 0,-0.3550398 0.2878168,-0.642857 0.6428571,-0.642857 0.355041,0 0.642857,0.2878172 0.642857,0.642857 0,0.3550397 -0.287816,0.6428571 -0.642857,0.6428571 z m 0,-3.8571427 c 0.355041,0 0.642857,-0.2878168 0.642857,-0.6428572 0,-0.3550403 -0.287816,-0.6428571 -0.642857,-0.6428571 -0.3550403,0 -0.6428571,0.2878168 -0.6428571,0.6428571 0,0.3550404 0.2878168,0.6428572 0.6428571,0.6428572 z M 14.5,10 v 9 h -9 v -9 c 1.5,0 6.344103,0 9,0 z"/>
</svg>
