<svg width="22" height="21" xmlns="http://www.w3.org/2000/svg">
 <g fill="none" fill-rule="evenodd">
  <path d="M19.9854853,16.4641695 L19.7080082,16.6146471 L19.372574,16.784192 L18.828855,17.0397453 C17.1701087,17.7879341 13.8836869,19 10.0005286,19 C5.63197547,19 2.01810879,17.4676785 0.627676837,16.7866468 L0.0146491688,16.4669788 L0.00156842345,16.1239637 L0.00189322751,15.7153542 L0.0216176923,15.166596 C0.0326610304,14.9618117 0.0487905049,14.7359093 0.0718589751,14.4911286 L0.197674873,13.640335 C0.592793478,11.1449655 1.17536463,9.15642681 2.5090913,6.82276984 C5.64086683,1.34470182 10.0026532,0 10.0026532,0 L10.3634101,0.136221567 C11.4717499,0.594338395 14.9083145,2.31183189 17.4879104,6.82370626 C18.7834357,9.08891079 19.9829962,12.263381 19.9636187,14.9265648 L19.9949457,15.57293 C20.0103992,16.1407528 19.9854853,16.4641695 19.9854853,16.4641695 Z" stroke="#FFF" stroke-width="2" fill="#000" transform="translate(1 1)"/>
  <path d="M5.68331281,1.11715131 L4.2327674,0.622720552 C4.2945909,0.618974864 4.3610281,0.614292755 4.43207899,0.609610646 C5.18503386,0.56185313 5.82541459,0.171365205 5.82541459,0.171365205 C5.82541459,0.171365205 5.96382541,0.165746673 6.19081916,0.157318876 C6.13453209,0.207885658 6.08101324,0.265943815 6.03118535,0.330556925 C5.87247427,0.534696895 5.74975001,0.807195663 5.68331281,1.11715131 M7.49834006,1.69773287 L7.39222509,1.69960572 L7.49372636,1.7333169 C7.4946491,1.72207984 7.49649458,1.70990636 7.49834006,1.69773287 M7.69396068,1.33440118 L9.31982647,1.22296698 C9.32813112,0.805322819 9.4370143,0.426071957 9.61048919,0.145145392 C9.6224848,0.126416954 9.63355766,0.107688517 9.64647601,0.0898965007 C9.39918201,0.0945786102 9.16296087,0.0973878758 8.94888547,0.0973878758 C8.42753804,0.0973878758 7.79730743,0.110497782 7.23997319,0.125480532 C7.34055172,0.216313455 7.42821191,0.33336619 7.49926279,0.472893051 C7.61921884,0.708871365 7.69026973,1.00758995 7.69396068,1.33440118 M7.83606246,2.16126171 L7.57215916,2.17530803 C7.58230929,2.14440611 7.59153668,2.11256777 7.59984132,2.08072942 L7.83606246,2.16126171 Z M9.3871864,2.07885658 L8.62500414,2.11912272 L7.65981935,1.79043864 C7.66443304,1.75953672 7.66904674,1.72769837 7.67273769,1.69492361 L9.33459029,1.67244948 C9.34658589,1.82134056 9.36319519,1.95618531 9.3871864,2.07885658 M5.82264637,1.91498275 L6.34122559,1.6518482 L5.80788255,1.47018236 C5.80511434,1.52168556 5.80326886,1.57318876 5.80326886,1.62562839 C5.80326886,1.72582553 5.80972803,1.82227698 5.82264637,1.91498275 M6.43995864,1.78107442 L6.43719042,1.77451947 L5.83648746,2.00113356 C5.8614014,2.13597831 5.8992337,2.26145885 5.94906159,2.37102021 L5.94721611,2.36165599 L6.41135374,1.80823066 L6.43995864,1.78107442 Z M6.58206042,1.94401183 C6.56360564,1.93652045 6.54699634,1.92528339 6.53038704,1.91123706 L6.52669609,1.91498275 L5.98135745,2.43750616 C5.98781662,2.44967965 5.99427579,2.46091671 6.00073497,2.47309019 C6.04410369,2.54987679 6.09393159,2.61636274 6.14929591,2.67161163 C6.16959617,2.51897486 6.18528273,2.37663874 6.19543285,2.24834894 L6.55991468,2.22868408 L6.56821933,1.97585017 L6.56821933,1.97023164 C6.56914207,1.959931 6.57467851,1.9515032 6.58206042,1.94401183 M6.78506295,1.92809266 C6.76199448,1.94213898 6.73800328,1.95243963 6.71401207,1.95805816 C6.72047124,1.96648595 6.72416219,1.97678659 6.72323945,1.98708724 L6.72231672,1.98896008 L6.72231672,1.9898965 L6.69002086,2.22212913 L6.86441849,2.21276491 L6.78506295,1.92809266 Z M7.03051148,1.88689009 L7.40883439,2.11631345 C7.40145248,2.139724 7.39407057,2.16313455 7.38576592,2.18467225 L7.00098384,2.20527353 L6.92347378,1.85036964 L7.03051148,1.88689009 Z M7.09971689,1.37466732 L7.50203101,1.07594874 C7.51402662,1.16303598 7.52048579,1.25293248 7.52140853,1.34563825 L7.09971689,1.37466732 Z M5.90753835,0.94484968 L6.43995864,1.35781173 L6.43626768,1.36717595 L6.41504469,1.36623953 L5.84848306,1.17333662 C5.86416962,1.09374076 5.88446987,1.01789059 5.90753835,0.94484968 M6.4676408,1.07875801 L6.27386565,0.319319862 C6.12161375,0.467274519 6.01088509,0.663923115 5.93706599,0.862444554 L6.51008679,1.2239034 L6.51008679,1.22296698 L6.4676408,1.07875801 Z M6.6531113,1.10591424 L6.68263895,0.967323805 L6.83027716,0.136717595 C6.6125108,0.143272548 6.52669609,0.111434204 6.3486075,0.251897486 L6.61527901,1.03006407 L6.63927022,1.11153277 C6.64388392,1.10965993 6.64849761,1.10778709 6.6531113,1.10591424 M7.29441478,0.461655988 L6.84965467,1.12838837 C6.84042728,1.12183342 6.83027716,1.11527846 6.82012703,1.11059635 L6.83673633,0.985115821 L6.94746499,0.142336126 C7.08218485,0.199457861 7.20029542,0.310892065 7.29441478,0.461655988 M6.94192855,1.23514046 L7.34331994,0.548743223 L7.34516541,0.552488911 C7.40606617,0.672350912 7.45220312,0.810004929 7.4826535,0.95983243 L6.96407428,1.28570724 C6.95761511,1.26791523 6.9502332,1.25105964 6.94192855,1.23514046 M15.0048203,2.35603746 C15.048189,2.56392311 15.0823303,2.78491868 15.1238536,2.99655002 C15.2050546,2.92631838 15.277951,2.83642188 15.3397745,2.73060621 L15.0048203,2.35603746 Z M11.9736233,1.28851651 L13.4906059,1.38496796 C13.5026015,1.0441104 13.5810343,0.732281912 13.7083723,0.484130113 C13.7849596,0.334302612 13.8800017,0.206012814 13.9898076,0.107688517 C13.1325832,0.0702316412 12.2652088,0 12.2652088,0 C12.2652088,0 11.9376365,0.015919172 11.4651942,0.0346476097 C11.5371678,0.103006407 11.6026823,0.183538689 11.6626603,0.275308034 C11.833367,0.539379004 11.9487093,0.893346476 11.9736233,1.28851651 M11.4707306,1.25667817 L11.8001484,1.27727945 C11.7743117,0.922375554 11.670965,0.60680138 11.5177903,0.370823066 C11.4255164,0.227550517 11.313865,0.115179892 11.1920635,0.0449482504 L11.0997896,0.047757516 C11.1182444,0.0739773287 11.1366992,0.100197141 11.1542312,0.127353376 C11.3424699,0.416707738 11.462426,0.81562346 11.4707306,1.25667817 M11.7770799,1.82508625 L11.4190573,1.82040414 C11.4089071,1.87190734 11.3969115,1.92247413 11.3839932,1.97304091 L11.7540115,1.95337605 C11.7632388,1.91123706 11.7706208,1.86816166 11.7770799,1.82508625 M13.5145971,1.84756037 L11.9514776,1.82695909 C11.9459411,1.86722523 11.939482,1.90749138 11.9311773,1.94682109 L13.521979,1.89438147 C13.5192108,1.8784623 13.5173653,1.86254312 13.5145971,1.84756037 M15.0897123,1.89531789 C15.0620301,1.96367669 15.0241978,2.01798916 14.9780609,2.05076392 L15.3997525,2.61823558 C15.4744943,2.45998029 15.5280132,2.2764416 15.5556954,2.07604731 L15.0897123,1.89531789 Z M15.1340037,1.54135042 C15.1395402,1.60970922 15.1376947,1.67525875 15.12939,1.73612617 L15.5704592,1.94588467 C15.581532,1.81291276 15.581532,1.67244948 15.5686137,1.52917693 L15.567691,1.52449483 L15.5686137,1.52449483 C15.5649227,1.48516511 15.560309,1.44583539 15.5547726,1.40744209 L15.1340037,1.54135042 Z M14.9780609,1.10310498 C15.0288115,1.16584524 15.0712575,1.25199606 15.0998624,1.35125678 L15.5353951,1.28851651 C15.4855672,1.01789059 15.3923706,0.775357319 15.2724145,0.577772302 L14.9780609,1.10310498 Z M14.2703202,1.86909808 L14.267552,1.85692459 L13.6899175,1.84943322 C13.691763,1.86254312 13.6936084,1.87565303 13.6954539,1.88782652 L14.2703202,1.86909808 Z M13.6862265,1.13587974 L14.1319094,1.42523411 L13.6631581,1.39526861 C13.6659263,1.30630853 13.6733082,1.22015771 13.6862265,1.13587974 M13.8846154,0.522523411 L14.3229163,1.25105964 C14.3164571,1.2622967 14.309998,1.27447018 14.3044615,1.28664367 L13.709295,1.00758995 C13.7434363,0.844652538 13.7951097,0.694825037 13.8615469,0.565598817 C13.8689288,0.550616067 13.8763107,0.536569739 13.8846154,0.522523411 M14.6163472,0.128289798 L14.6532568,1.01882701 C14.6615614,1.01882701 14.6698661,1.01976343 14.677248,1.02163627 C14.702162,1.00384426 14.7298441,0.993543618 14.758449,0.98979793 C14.7695219,0.987925086 14.7805948,0.987925086 14.7916676,0.988861508 L15.2022864,0.472893051 C15.1939817,0.46259241 15.1865998,0.453228191 15.1792179,0.442927551 C15.0712575,0.302464268 14.9476105,0.194775752 14.8156588,0.131099064 C14.7510671,0.130162642 14.6846299,0.12922622 14.6163472,0.128289798 M14.4677863,1.08905865 L14.4963912,0.125480532 C14.4271858,0.123607689 14.3561349,0.121734845 14.2841613,0.118925579 C14.1605143,0.176983736 14.0497856,0.276244455 13.9575117,0.406407097 L14.4465633,1.10216856 C14.4530225,1.09748645 14.4604044,1.09280434 14.4677863,1.08905865 M10.759299,1.81197634 L10.822968,2.00206999 L11.2012909,1.98240513 C11.2169775,1.92902908 11.2308185,1.87378019 11.2437369,1.81759487 L10.759299,1.81197634 Z M10.4972412,1.80823066 L10.490782,2.019862 L10.7094711,2.00862494 L10.61812,1.8101035 L10.4972412,1.80823066 Z M9.55235665,2.02454411 L9.9814302,1.66308526 L9.50806519,1.66964022 C9.51729257,1.79980286 9.5320564,1.91779202 9.55235665,2.02454411 M10.1299911,1.74923608 L9.72029511,2.06106456 L10.0478674,2.04327255 L10.1299911,1.74923608 Z M10.345912,1.78294726 C10.3403756,1.78294726 10.3339164,1.78388369 10.3274573,1.78388369 C10.3062343,1.78482011 10.285934,1.78107442 10.2665565,1.77358305 L10.162287,2.03765402 L10.3652895,2.02641695 L10.345912,1.78294726 Z M10.7113166,1.20798423 L11.2418914,0.794085757 C11.2741873,0.935485461 11.2935648,1.08718581 11.2972557,1.2454411 L10.7113166,1.20798423 Z M10.6679479,0.973878758 L11.0241251,0.244406111 C11.1007124,0.3680138 11.1643814,0.513159192 11.2105183,0.673287334 L10.6808662,1.04598324 C10.6725616,1.01789059 10.6624114,0.991670774 10.6522613,0.966387383 L10.6679479,0.973878758 Z M10.5037004,0.786594381 L10.4981639,0.0683587974 C10.6282701,0.0646131099 10.7565308,0.0599310005 10.8801778,0.056185313 C10.9032463,0.0805322819 10.925392,0.106752095 10.9475377,0.134844751 L10.5664466,0.834351897 C10.5470691,0.813750616 10.5258461,0.797831444 10.5037004,0.786594381 M9.54128378,0.797831444 L10.0552493,1.09935929 C10.0497129,1.12276984 10.0460219,1.14805323 10.0432537,1.17427304 L9.49330137,1.21172992 C9.49699232,1.06752095 9.51360162,0.928930508 9.54128378,0.797831444 M9.86516511,0.088023657 L10.1539824,0.868999507 C10.1336821,0.894282898 10.1152273,0.92518482 10.098618,0.95983243 L9.56435225,0.700443568 C9.60956646,0.526269098 9.67508091,0.369886644 9.75720467,0.237851158 C9.79042326,0.183538689 9.82641008,0.133908329 9.86516511,0.088023657 M10.2794748,0.786594381 L9.95005708,0.0833415476 C10.0995408,0.0805322819 10.2499472,0.0758501725 10.3994309,0.0711680631 L10.3403756,0.787530803 C10.32838,0.784721538 10.3154616,0.783785116 10.303466,0.783785116 C10.2951614,0.783785116 10.2877795,0.784721538 10.2794748,0.786594381 M17.4879104,8.86042385 C14.3708987,14.3122721 10.0026532,15.6841301 10.0026532,15.6841301 C10.0026532,15.6841301 5.64086683,14.3394283 2.5090913,8.86136028 C1.02717277,6.26840808 0.472606748,4.10152785 0.0721381037,1.19206506 L1.76536382,1.48797437 L2.390058,1.21922129 L2.91878734,1.19487432 L3.65605565,0.737900444 L5.63902135,1.41306062 C5.63256218,1.48703795 5.62979396,1.55726959 5.62979396,1.62562839 C5.62979396,1.98615081 5.71099498,2.31483489 5.85125128,2.56111385 C5.92507038,2.69127649 6.01642152,2.79896501 6.12069101,2.8757516 C6.07824503,3.15761459 6.02472617,3.46382454 5.96659363,3.7700345 C5.92968408,3.91892558 5.88816083,4.34967965 5.81526446,4.46111385 C6.16405973,4.4245934 6.92993295,4.51261705 7.27872822,4.51261705 C8.18670321,4.51261705 9.44162799,4.66806309 10.4317267,4.74297684 C10.7436125,4.59408576 11.0970214,4.37964515 11.3904524,4.23075407 C11.6294417,4.10059142 12.345487,3.88053228 12.6546045,3.79625431 C13.4094049,3.59117792 13.5662705,3.62957122 14.5757467,3.55278462 C14.8774823,3.52937408 15.1662996,3.59117792 15.2945603,3.59117792 C15.2410414,3.47131592 15.1995182,3.3336619 15.1644541,3.18664367 C15.3111696,3.08270084 15.4357393,2.93006407 15.5326269,2.74184327 C15.6996426,2.41503204 15.7826891,1.97865944 15.7402431,1.50951207 L15.7411659,1.50951207 L15.7402431,1.50951207 L15.7402431,1.50857565 L15.7402431,1.50482997 C15.6968744,1.03849187 15.5381633,0.625529818 15.3157833,0.335239034 C15.2558052,0.256579596 15.1902908,0.187284377 15.1220081,0.128289798 C15.1736815,0.126416954 15.2225866,0.12454411 15.2687236,0.122671267 C16.1573211,0.0730409069 16.3741647,0.024346969 16.3741647,0.024346969 C16.3741647,0.024346969 16.638068,0.244406111 17.0228501,0.26875308 C17.4067094,0.293100049 17.6955267,0.341793987 17.6955267,0.341793987 C17.6955267,0.341793987 18.2002648,0.658304584 18.5361417,0.658304584 C18.8729414,0.658304584 19.7357022,0.829669788 19.7357022,0.829669788 L19.9636187,0.757565303 C19.9829962,3.42074914 18.7834357,6.59521932 17.4879104,8.86042385" fill="#FFCD00" transform="matrix(1 0 0 -1 1 16.684)"/>
  <path d="M15.3885852,8.78225804 C16.1535357,8.09024227 16.1802951,7.00961142 15.7982813,5.65179969 C15.7198485,5.37274597 15.4863956,4.33612694 15.3304527,4.06643744 C14.6697717,4.02898057 14.4049457,3.94844828 13.7230417,4.047709 C12.9479411,4.16101605 12.5770001,4.24810329 11.8674139,4.52060205 C11.3783624,4.71912349 10.934525,4.95603823 10.4547008,5.2116814 C9.71189608,5.2116814 8.82698956,5.05810821 8.26042793,5.03282482 C8.3333243,5.03563409 9.01707376,6.36441674 9.06782439,7.15756608 C9.09366108,7.56771886 9.09273834,8.23351482 8.51233563,8.64273118 C8.01221119,8.99576223 7.53146427,8.86279032 7.25095167,8.69423438 C6.56997043,8.2840816 6.61979833,7.74751186 6.61979833,7.36264247 C6.61979833,6.44120334 7.53607797,5.3783645 7.78060375,4.98132162 L5.83823855,4.93075484 C5.83823855,4.93075484 5.02991935,6.81015356 4.90350414,8.09024227 C4.77801166,9.37033098 5.01700101,11.4875809 7.38843976,11.6917208 C9.10657942,11.8406119 10.9677436,11.3930023 10.9926576,8.09024227 C10.9926576,8.09024227 11.9127131,9.65432735 10.5,11.2162791 C11.0305748,10.8838493 11.5,10.4662791 11.838809,10.251504 C12.0408888,10.0211442 12.7827708,9.39842364 12.6305189,7.78496874 C13.0008448,8.62150562 13.0406718,9.26527572 12.75,9.71627906 C13.1010861,9.55834341 13.288868,9.47798714 13.3133457,9.47521023 C13.3133457,9.47521023 14.0912145,8.95268682 13.9140486,7.6463783 C14.3938728,8.72232704 14,9.21627906 14,9.21627906 C14.4918198,9.1881864 14.7823458,9.33193769 15.3885852,8.78225804 Z" fill="#000" transform="matrix(1 0 0 -1 1 16.716)"/>
  <path d="M5.68118821,15.3741745 L4.2306428,14.8806801 C4.2924663,14.875998 4.35890349,14.8713159 4.42995438,14.8666338 C5.18290925,14.8188763 5.82328998,14.4283884 5.82328998,14.4283884 C5.82328998,14.4283884 5.96170081,14.4227698 6.18869455,14.414342 C6.13240749,14.4649088 6.07888864,14.522967 6.02906074,14.5875801 C5.87034966,14.7917201 5.7476254,15.0642188 5.68118821,15.3741745 M7.49621545,15.954756 L7.39010049,15.9566289 L7.49160176,15.9903401 C7.49252449,15.979103 7.49436997,15.9669295 7.49621545,15.954756 M7.69183608,15.5914243 L9.31770186,15.4799901 C9.32600651,15.062346 9.43488969,14.6830951 9.60836459,14.4021686 C9.62036019,14.3834401 9.63143306,14.3656481 9.6443514,14.3469197 C9.3970574,14.3525382 9.16083626,14.3553475 8.94676086,14.3553475 C8.42541343,14.3553475 7.79518282,14.3675209 7.23784858,14.3825037 C7.33842711,14.4733366 7.4260873,14.5903894 7.49713819,14.7299162 C7.61709423,14.9658945 7.68814512,15.2646131 7.69183608,15.5914243 M7.83393785,16.4182849 L7.57003455,16.4323312 C7.58018468,16.4014293 7.58941207,16.3695909 7.59771672,16.3377526 L7.83393785,16.4182849 Z M9.3850618,16.3358797 L8.62287954,16.3761459 L7.65769474,16.0474618 C7.66230844,16.0165599 7.66692213,15.9847215 7.67061308,15.9519468 L9.33246568,15.9294726 C9.34446129,16.0783637 9.36107059,16.2132085 9.3850618,16.3358797 M5.82052177,16.1720059 L6.33910098,15.9088714 L5.80575795,15.7272055 C5.80298973,15.7787087 5.80114425,15.8302119 5.80114425,15.8826516 C5.80114425,15.9828487 5.80760343,16.0793001 5.82052177,16.1720059 M6.43783403,16.0380976 L6.43506582,16.0324791 L5.83436285,16.2581567 C5.8592768,16.3930015 5.89710909,16.518482 5.94693699,16.6280434 L5.94509151,16.6186792 L6.40922913,16.0652538 L6.43783403,16.0380976 Z M6.57993581,16.201035 C6.56148103,16.1935436 6.54487174,16.1823066 6.52826244,16.1682602 L6.52457148,16.1720059 L5.97923284,16.6945293 C5.98569202,16.7067028 5.99215119,16.7179399 5.99861036,16.7301134 C6.04197908,16.8069 6.09180698,16.8733859 6.14717131,16.9286348 C6.16747156,16.775998 6.18315812,16.6336619 6.19330825,16.5053721 L6.55779008,16.4857072 L6.56609473,16.2328733 L6.56609473,16.2272548 C6.56701747,16.2169542 6.5725539,16.2085264 6.57993581,16.201035 M6.78293835,16.1851158 C6.75986988,16.1991621 6.73587867,16.2094628 6.71188746,16.2150813 C6.71834663,16.2235091 6.72203759,16.2338098 6.72111485,16.2441104 L6.72111485,16.2459832 L6.72019211,16.2469197 L6.68789625,16.4791523 L6.86229389,16.4697881 L6.78293835,16.1851158 Z M7.02838687,16.1439133 L7.40670978,16.374273 C7.39932787,16.3967472 7.39194596,16.4201577 7.38364131,16.4416954 L6.99885923,16.4622967 L6.92134917,16.1073928 L7.02838687,16.1439133 Z M7.09759228,15.6316905 L7.4999064,15.3329719 C7.51190201,15.4200591 7.51836118,15.5099556 7.51928392,15.6026614 L7.09759228,15.6316905 Z M5.90541374,15.2018728 L6.43783403,15.6148349 L6.43414308,15.6241991 L6.41292009,15.6232627 L5.84635846,15.4303598 C5.86204501,15.3517003 5.88234527,15.2749138 5.90541374,15.2018728 M6.4655162,15.3357812 L6.27174105,14.576343 C6.11948914,14.7242977 6.00876049,14.9209463 5.93494138,15.1194677 L6.50796218,15.4809266 L6.50796218,15.4799901 L6.4655162,15.3357812 Z M6.6509867,15.3629374 L6.68051434,15.224347 L6.82815255,14.3937408 C6.61038619,14.4002957 6.52457148,14.3684574 6.34648289,14.5089207 L6.61315441,15.2870872 L6.63714562,15.3685559 C6.64175931,15.3666831 6.646373,15.3648103 6.6509867,15.3629374 M7.29229017,14.7186792 L6.84753007,15.3854115 C6.83830268,15.3788566 6.82815255,15.3723016 6.81800242,15.3676195 L6.83461172,15.242139 L6.94534038,14.3993593 C7.08006025,14.456481 7.19817081,14.5679152 7.29229017,14.7186792 M6.93980395,15.4921636 L7.34119533,14.8057664 L7.34304081,14.8095121 C7.40394157,14.9293741 7.45007851,15.0670281 7.48052889,15.2168556 L6.96194968,15.5427304 C6.95549051,15.5249384 6.9481086,15.5080828 6.93980395,15.4921636 M15.0026957,16.6130606 C15.0460644,16.8209463 15.0802057,17.0428783 15.121729,17.2535732 C15.20293,17.1833415 15.2758264,17.093445 15.3376499,16.9876294 L15.0026957,16.6130606 Z M11.9714987,15.5455397 L13.4884813,15.6419911 C13.5004769,15.3011336 13.5789097,14.9893051 13.7062476,14.7411533 C13.782835,14.5913258 13.8778771,14.463036 13.987683,14.3647117 C13.1304586,14.3272548 12.2630841,14.2570232 12.2630841,14.2570232 C12.2630841,14.2570232 11.9355119,14.2729423 11.4630696,14.2916708 C11.5350432,14.3600296 11.6005577,14.4405619 11.6605357,14.5323312 C11.8312424,14.7964022 11.9465847,15.1503696 11.9714987,15.5455397 M11.468606,15.5137013 L11.7980238,15.5343026 C11.7721871,15.1793987 11.6688404,14.8638245 11.5156657,14.6278462 C11.4233918,14.4845737 11.3117404,14.3722031 11.1899389,14.3019714 L11.097665,14.3057171 C11.1161198,14.3310005 11.1345746,14.3572203 11.1521066,14.3843765 C11.3403453,14.6737309 11.4603014,15.0726466 11.468606,15.5137013 M11.7749553,16.0821094 L11.4169327,16.0774273 C11.4067825,16.1289305 11.3947869,16.1794973 11.3818686,16.2300641 L11.7518868,16.2103992 C11.7611142,16.1682602 11.7684961,16.1251848 11.7749553,16.0821094 M13.5124725,16.1045835 L11.949353,16.0839823 C11.9438165,16.1242484 11.9373573,16.1645145 11.9290527,16.2038443 L13.5198544,16.1514046 C13.5170862,16.1354855 13.5152407,16.1195663 13.5124725,16.1045835 M15.0875876,16.1523411 C15.0599055,16.2206999 15.0220732,16.2750123 14.9759363,16.3077871 L15.3976279,16.8752587 C15.4723697,16.7170034 15.5258886,16.5334648 15.5544935,16.3330705 L15.0875876,16.1523411 Z M15.1318791,15.7983736 C15.1374155,15.8667324 15.1355701,15.9322819 15.1272654,15.9931493 L15.5683346,16.2029078 C15.5794074,16.0699359 15.5794074,15.9294726 15.5664891,15.7862001 L15.5655664,15.781518 L15.5664891,15.781518 C15.5627981,15.7421883 15.5581844,15.7028586 15.552648,15.6644653 L15.1318791,15.7983736 Z M14.9759363,15.3601281 C15.0266869,15.4238048 15.0691329,15.5090192 15.0977378,15.6082799 L15.5332705,15.5455397 C15.4834426,15.2749138 15.390246,15.0323805 15.2702899,14.8347955 L14.9759363,15.3601281 Z M14.2681956,16.1261212 L14.2654274,16.1139478 L13.6877929,16.1064564 C13.6896383,16.1195663 13.6914838,16.1326762 13.6933293,16.1448497 L14.2681956,16.1261212 Z M13.6841019,15.3929029 L14.1297848,15.6822573 L13.6610334,15.6532282 C13.6638017,15.5633317 13.6711836,15.4771809 13.6841019,15.3929029 M13.8824908,14.7795466 L14.3207917,15.5080828 C14.3143325,15.5193199 14.3078734,15.5314933 14.3023369,15.5436668 L13.7071704,15.2646131 C13.7413117,15.1016757 13.7929851,14.9518482 13.8594223,14.822622 C13.8668042,14.8076392 13.8741861,14.7935929 13.8824908,14.7795466 M14.6142226,14.385313 L14.6511322,15.2758502 C14.6594368,15.2758502 14.6677415,15.2767866 14.6751234,15.2786594 C14.7000373,15.2608674 14.7277195,15.2505668 14.7563244,15.2468211 C14.7673973,15.2449483 14.7784701,15.2449483 14.789543,15.2458847 L15.2001618,14.7299162 C15.1927799,14.7196156 15.1844752,14.7102514 15.1770933,14.6999507 C15.0691329,14.5594874 14.9454859,14.4517989 14.8135342,14.3881222 C14.7489425,14.3871858 14.6825053,14.3862494 14.6142226,14.385313 M14.4656617,15.3460818 L14.4942666,14.3825037 C14.4250612,14.3806309 14.3540103,14.378758 14.2820367,14.3759487 C14.1583897,14.4340069 14.047661,14.5332676 13.9553871,14.6634303 L14.4444387,15.3591917 C14.4518206,15.3545096 14.4582798,15.3498275 14.4656617,15.3460818 M10.7571744,16.0689995 L10.8208434,16.2590931 L11.1991663,16.2394283 C11.2148529,16.1860522 11.2286939,16.1308034 11.2416123,16.074618 L10.7571744,16.0689995 Z M10.4951166,16.0652538 L10.4886574,16.2768852 L10.7073465,16.2656481 L10.6159954,16.0671267 L10.4951166,16.0652538 Z M9.55023204,16.2815673 L9.97930559,15.9201084 L9.50594058,15.9266634 C9.51516797,16.056826 9.52993179,16.1748152 9.55023204,16.2815673 M10.1278665,16.0062592 L9.71817051,16.3180877 L10.0457428,16.3002957 L10.1278665,16.0062592 Z M10.3437874,16.0399704 C10.338251,16.0409069 10.3317918,16.0409069 10.3253326,16.0409069 C10.3041097,16.0418433 10.2838094,16.0380976 10.2644319,16.0306062 L10.1601624,16.2946772 L10.3631649,16.2834401 L10.3437874,16.0399704 Z M10.709192,15.4650074 L11.2397668,15.0511089 C11.2720627,15.1925086 11.2914402,15.344209 11.2951311,15.5024643 L10.709192,15.4650074 Z M10.6658233,15.2309019 L11.0220004,14.5023657 C11.0985878,14.625037 11.1622567,14.7701824 11.2093164,14.9303105 L10.6787416,15.3030064 C10.670437,15.2749138 10.6612096,15.2486939 10.6501367,15.2234105 L10.6658233,15.2309019 Z M10.5015758,15.0436175 L10.4960393,14.325382 C10.6261455,14.3216363 10.7544062,14.3169542 10.8780532,14.3132085 C10.9011217,14.3375554 10.9232674,14.3637753 10.9454131,14.3918679 L10.564322,15.0913751 C10.5449445,15.0707738 10.5237215,15.0548546 10.5015758,15.0436175 M9.53915918,15.0548546 L10.0531247,15.3563825 C10.0475883,15.379793 10.0438973,15.4050764 10.0411291,15.4312962 L9.49117676,15.4687531 C9.49486771,15.3245441 9.51147701,15.1859537 9.53915918,15.0548546 M9.8630405,14.3450468 L10.1518577,15.1260227 C10.1315575,15.1513061 10.1131027,15.182208 10.0964934,15.2168556 L9.56222765,14.9574667 C9.60744185,14.7832923 9.6729563,14.6269098 9.75508006,14.4948743 C9.78829866,14.4405619 9.82428547,14.3909315 9.8630405,14.3450468 M10.2773502,15.0436175 L9.94793247,14.3403647 C10.0974162,14.3375554 10.2478226,14.3328733 10.3973063,14.3281912 L10.338251,15.044554 C10.3262554,15.0417447 10.313337,15.0408083 10.3013414,15.0408083 C10.2930368,15.0408083 10.2856549,15.0417447 10.2773502,15.0436175 M5.81313986,18.718137 C6.16193513,18.6816166 6.92780834,18.7696402 7.27660361,18.7696402 C8.1845786,18.7696402 9.43950339,18.9250862 10.4296021,19 C10.7414878,18.8511089 11.0948968,18.6366683 11.3883278,18.4877772 C11.6273171,18.3576146 12.3433624,18.1375554 12.6524799,18.0532775 C13.4072803,17.8482011 13.5641459,17.8865944 14.5736221,17.8098078 C14.8753577,17.7863972 15.164175,17.8482011 15.2924357,17.8482011 C15.2389168,17.7283391 15.1973936,17.5906851 15.1623295,17.4436668 C15.309045,17.339724 15.4336147,17.1870872 15.5305023,16.9988664 C15.697518,16.6720552 15.7805645,16.2356826 15.7381185,15.7665352 L15.7390412,15.7665352 L15.7381185,15.7665352 L15.7381185,15.7655988 L15.7381185,15.7618531 C15.6947498,15.295515 15.5360387,14.882553 15.3136587,14.5922622 C15.2536806,14.5136028 15.1881662,14.4443075 15.1198835,14.385313 C15.1715569,14.3834401 15.220462,14.3815673 15.266599,14.3796944 C16.1551965,14.3300641 16.3720401,14.2813701 16.3720401,14.2813701 C16.3720401,14.2813701 16.6359434,14.5014293 17.0207255,14.5257762 C17.4045848,14.5501232 17.6934021,14.5988172 17.6934021,14.5988172 C17.6934021,14.5988172 18.1981402,14.9153277 18.5340171,14.9153277 C18.8708168,14.9153277 19.735423,15.086693 19.735423,15.086693 L19.9633395,15.0145885 C20.0297767,14.0519468 19.9854853,13.4769837 19.9854853,13.4769837 C19.9854853,13.4769837 15.6172397,10.9411533 10.0005286,10.9411533 C4.38381744,10.9411533 0.0146491688,13.4741745 0.0146491688,13.4741745 C0.0146491688,13.4741745 -0.0434833763,14.2261212 0.0718589751,15.4500246 L0.0810863632,15.4518975 L1.76323922,15.7449975 L2.38793339,15.4762445 L2.91666273,15.4518975 L3.65393104,14.9949236 L5.63689675,15.6700838 C5.63043757,15.7440611 5.62766936,15.8142928 5.62766936,15.8826516 C5.62766936,16.243174 5.70887037,16.5718581 5.84912667,16.818137 C5.92294578,16.9482997 6.01429692,17.0559882 6.1185664,17.1327748 C6.07612042,17.4146378 6.02260157,17.7208477 5.96446902,18.0270577 C5.92755947,18.1759487 5.88603622,18.6067028 5.81313986,18.718137" fill="#000" transform="matrix(1 0 0 -1 1 30.941)"/>
 </g>
</svg>
