<svg width="20" height="20" xmlns="http://www.w3.org/2000/svg" xml:space="preserve" style="fill-rule:evenodd;clip-rule:evenodd;stroke-linejoin:round;stroke-miterlimit:2">
 <path d="M11.516,2.006C11.516,1.451 11.073,1 10.528,1L2.19,1C1.645,1 1.202,1.451 1.202,2.006L1.202,10.493C1.202,11.048 1.645,11.499 2.19,11.499L10.528,11.499C11.073,11.499 11.516,11.048 11.516,10.493L11.516,2.006Z" style="fill:#006747" transform="matrix(1.93923 0 0 1.90494 -2.332 -1.905)"/>
 <path d="M16,248C16,188.005 27.051,136 55.111,136L328.889,136C356.827,136 368,187.527 368,248C368,308.473 358.845,360 328.889,360L55.111,360C28.413,360 16,307.995 16,248Z" style="fill:#fff;fill-rule:nonzero" transform="matrix(.05114 0 0 .0625 .182 -3.5)"/>
 <path d="M11.235,3.167C11.235,2.733 11.05,2.381 10.823,2.381L3.412,2.381C3.184,2.381 3,2.733 3,3.167L3,4.214C3,4.648 3.184,5 3.412,5L10.823,5C11.05,5 11.235,4.648 11.235,4.214L11.235,3.167Z" style="fill:#fff" transform="matrix(2.18584 0 0 1.14559 -5.558 -1.728)"/>
</svg>
