<svg width="25" height="20" xmlns="http://www.w3.org/2000/svg">
 <rect style="fill:#fff;fill-rule:evenodd;stroke:#000;stroke-linecap:round;stroke-linejoin:round" width="24" height="19" x=".5" y=".5" rx="1.5" ry="1.5"/>
 <path style="fill:none;stroke:#000;stroke-width:.5;stroke-linecap:round;stroke-linejoin:round;stroke-miterlimit:3.86369;stroke-dasharray:none" d="m 19.88229,19.53114 c 0.0067,-0.08756 0.03248,-0.172947 0.07064,-0.251777 0.199641,-0.405023 0.594797,-0.643952 0.875642,-0.976879 0.0567,-0.423089 0.274958,-0.59986 0.48455,-0.964742 0.293004,-0.0449 0.460544,-0.332633 0.644605,-0.582241 0.517341,0.07249 0.492031,-0.503717 0.739599,-0.780689 0.417606,0.02198 0.629875,-0.314528 0.552725,-0.724812 H 7.2500508 v 0.5 H 3.6159915 c -0.258552,0.08716 -0.265503,0.52029 -0.506789,0.570301 -0.290706,0.204386 0.0578,0.540743 -0.270945,0.765035 0.07027,0.35302 -0.242555,0.69268 -0.594966,0.709916 -0.141807,0.222262 -0.03845,0.55151 -0.329376,0.670318 -0.07451,0.192822 -0.104722,0.452774 -0.357907,0.483947"/>
</svg>
