<svg width="35" height="20" version="1.0" xmlns:xlink="http://www.w3.org/1999/xlink" xmlns="http://www.w3.org/2000/svg">
 <use transform="matrix(.92938 0 0 -.92938 19977 4810.8)" width="300" height="240" fill="#fff" stroke="#000" stroke-linejoin="round" stroke-width="309" xlink:href="#state_outline"/>
 <path style="fill:#fff;stroke:#000;stroke-width:1px;stroke-linecap:round;stroke-linejoin:round;stroke-opacity:1" d="m 33,15.5 c 0.828427,0 1.5,0.671573 1.5,1.5 0,1.380712 -1.119288,2.5 -2.5,2.5 H 3 C 4.380712,19.5 5.5,18.380712 5.5,17 5.5,16.171573 4.828427,15.5 4,15.5 Z"/>
 <path style="fill:#fff;stroke:#000;stroke-width:1px;stroke-linecap:round;stroke-linejoin:round;stroke-opacity:1" d="m 31.5,17.5 c 0,-1.5 0.671573,-2 1.5,-2 H 4 c -0.828427,0 -1.5,0.5 -1.5,2 z"/>
 <path style="fill:#fff;stroke:#000;stroke-width:1px;stroke-linecap:round;stroke-linejoin:round;stroke-opacity:1" d="m 32,19.5 c -1.380712,0 -2.5,-1.119288 -2.5,-2.5 0,-4 5,-10 5,-14 C 34.5,1.619288 33.380712,0.5 32,0.5 H 3 c 1.380712,0 2.5,1.119288 2.5,2.5 0,4 -5,10 -5,14 0,1.380712 1.119288,2.5 2.5,2.5 z"/>
 <path style="fill:#fff;stroke:#000;stroke-width:1px;stroke-linecap:round;stroke-linejoin:round;stroke-opacity:1" d="m 31,4.5 c 0.828427,0 1.5,-0.5 1.5,-2 h -29 c 0,1.5 -0.671573,2 -1.5,2 z"/>
 <path style="fill:#fff;stroke:#000;stroke-width:1px;stroke-linecap:round;stroke-linejoin:round;stroke-opacity:1" d="m 32,0.5 c -1.380712,0 -2.5,1.119288 -2.5,2.5 0,0.828427 0.671573,1.5 1.5,1.5 H 2 C 1.171573,4.5 0.5,3.828427 0.5,3 0.5,1.619288 1.619288,0.5 3,0.5 Z"/>
</svg>
