<svg width="20" height="20" viewBox="0 0 18.751 18.751" xmlns="http://www.w3.org/2000/svg">
 <path style="color:#000;fill:#fff;fill-rule:evenodd;stroke-width:.93755;stroke-linejoin:round;-inkscape-stroke:none" d="M 18.281,9.375 A 8.9060001,8.9060001 0 0 1 9.375,18.281 8.9060001,8.9060001 0 0 1 0.469,9.375 8.9060001,8.9060001 0 0 1 9.375,0.46899986 8.9060001,8.9060001 0 0 1 18.281,9.375 Z"/>
 <path style="fill:#003f87;fill-rule:evenodd;stroke:none;stroke-width:1.8751;stroke-linecap:round;stroke-linejoin:round;paint-order:stroke fill markers" d="M 9.3755,4.218975 A 5.1565246,5.1565246 0 0 0 7.205584,4.7078927 L 6.57933,13.700682 A 5.1565246,5.1565246 0 0 0 9.3755,14.532025 5.1565246,5.1565246 0 0 0 14.532025,9.3755 5.1565246,5.1565246 0 0 0 9.3755,4.218975 Z M 6.224087,5.3048483 A 5.1565246,5.1565246 0 0 0 4.218975,9.3755 5.1565246,5.1565246 0 0 0 5.691221,12.970052 Z M 9.375,0 C 4.203012,0 0,4.2030123 0,9.375 c 0,5.171988 4.203012,9.375 9.375,9.375 5.171988,0 9.375,-4.203012 9.375,-9.375 C 18.75,4.2030123 14.546988,0 9.375,0 Z m 0,0.9375 c 4.665299,0 8.4375,3.7722014 8.4375,8.4375 0,4.665299 -3.772201,8.4375 -8.4375,8.4375 -4.665299,0 -8.4375,-3.772201 -8.4375,-8.4375 0,-4.6652986 3.772201,-8.4375 8.4375,-8.4375 z"/>
 <path d="m 9.9388,11.023 c -0.94328,-0.35415 -1.396,-0.53592 -3.2029,0.10417 0.15425,-1.8794 0.29704,-4.0735 0.42425,-5.8697 4.0333,-0.99613 4.3022,2.7481 6.7702,2.1208 -0.07635,0.60977 -0.39311,1.7135 -1.9416,1.9922 0.1968,0.61162 1.0712,2.3184 2.0369,2.5156 -2.5878,1.5633 -2.7719,-0.29312 -4.0869,-0.86333 z" style="fill:#df4661"/>
</svg>
