<svg width="21" height="20" version="1.0" viewBox="0 0 20.972 19.967" xmlns="http://www.w3.org/2000/svg">
 <path style="color:#000;fill:#fff;stroke-width:1.99733;-inkscape-stroke:none" d="M 10.486,19.470833 C 10.486,17.4735 7.9893333,16.474834 5.992,16.974167 3.708401,17.545066 0.99866667,15.476167 0.99866667,12.9795 V 0.9955 H 19.973333 v 11.984 c 0,2.496667 -2.709733,4.565567 -4.993333,3.994667 -1.997333,-0.499333 -4.494,0.499333 -4.494,2.496666 v 0.499334"/>
 <path style="color:#000;fill:#000;-inkscape-stroke:none" d="M 0,-0.00390625 V 12.980469 c 0,1.609629 0.85459858,3.013112 2.0214844,3.93164 1.1668858,0.918529 2.7055497,1.408085 4.2128906,1.03125 0.7517049,-0.187926 1.6710034,-0.08149 2.3066406,0.236328 0.6356373,0.317819 0.9472657,0.708461 0.9472657,1.291016 v 0.5 h 1.9960937 v -0.5 c 0,-0.582555 0.309675,-0.973197 0.945313,-1.291016 0.635637,-0.317818 1.556889,-0.424254 2.308593,-0.236328 1.507342,0.376836 3.046005,-0.112721 4.212891,-1.03125 1.166886,-0.918529 2.021484,-2.322011 2.021484,-3.93164 V -0.00390625 Z M 1.9980469,1.9941406 H 18.974609 V 12.980469 c 0,0.887035 -0.500886,1.763967 -1.259765,2.361328 -0.758879,0.597361 -1.715931,0.858126 -2.492188,0.664062 -1.245626,-0.311406 -2.573519,-0.169294 -3.685547,0.386719 -0.405271,0.202636 -0.728715,0.549489 -1.050781,0.886719 C 10.164262,16.942067 9.8408181,16.595214 9.4355469,16.392578 8.3235192,15.836564 6.9956264,15.694453 5.75,16.005859 4.9737442,16.199923 4.0147386,15.939158 3.2558594,15.341797 2.4969802,14.744436 1.9980469,13.867504 1.9980469,12.980469 Z"/>
 <path style="fill:#fff" d="m 19.973333,0.9955 v 11.984 c 0,2.496667 -2.709733,4.565567 -4.993333,3.994667 -1.997333,-0.499333 -4.494,0.499333 -4.494,2.496666 0,-1.997333 -2.4966667,-2.995999 -4.494,-2.496666 -2.283599,0.570899 -4.99333333,-1.498 -4.99333333,-3.994667 V 0.9955 Z"/>
</svg>
