<svg width="20" height="20" viewBox="0 0 18.751 18.751" xmlns="http://www.w3.org/2000/svg">
 <g style="stroke-width:1.00750008;stroke-dasharray:none">
  <path d="m 446.25,299.98033 a 146.25001,146.25008 0 1 1 -292.5,0 146.25001,146.25001 0 1 1 292.5,0 z" style="fill:#000;fill-opacity:1;stroke:none;stroke-width:.90675;stroke-dasharray:none" transform="translate(-7.933 -7.932) scale(.0577)"/>
  <path d="m300 300 71.9375 131.625c1.31853-.71914 2.63827-1.45845 3.9375-2.21875.008-.004.0236.004.0312 0 1.15468-.67599 2.29885-1.38536 3.4375-2.09375.18686-.1167.3762-.22625.5625-.34375.31403-.1973.62474-.39398.9375-.59375 1.0023-.64259 2.01418-1.30316 3-1.96875.012-.008.0192-.0231.0312-.0312.99751-.6739 1.98852-1.36543 2.96875-2.0625.98023-.69707 1.9437-1.40515 2.90625-2.125 2.88766-2.15955 5.68471-4.39252 8.40625-6.75.90718-.78583 1.79956-1.59922 2.6875-2.40625.53947-.49032 1.09275-.97072 1.625-1.46875.34424-.32237.68959-.64266 1.03125-.96875.36222-.34535.70374-.71358 1.0625-1.0625.50124-.48749 1.0056-.97435 1.5-1.46875.61406-.61406 1.24036-1.21916 1.84375-1.84375.22889-.23737.45993-.4796.6875-.71875.056-.0587.10036-.12869.15625-.1875.77057-.81083 1.52879-1.64086 2.28125-2.46875.80703-.88794 1.62042-1.78032 2.40625-2.6875.79541-.91824 1.57047-1.8437 2.34375-2.78125.74889-.91069 1.48785-1.84872 2.21875-2.78125.61295-.77997 1.2148-1.55144 1.8125-2.34375.12513-.16623.25044-.33311.375-.5.55861-.74695 1.11133-1.49238 1.65625-2.25zm0 0-121.84375 87.5c.54492.75762 1.09764 1.50305 1.65625 2.25.66235.88701 1.31863 1.75345 2 2.625.0594.0759.12798.14301.1875.21875.74224.94449 1.48577 1.88647 2.25 2.8125.76423.92603 1.52667 1.84282 2.3125 2.75.36397.42057.72519.83358 1.09375 1.25.42932.48475.87703.95838 1.3125 1.4375.53766.59197 1.07802 1.19803 1.625 1.78125.27192.28975.53831.58742.8125.875.13186.13838.27386.26838.40625.40625.69856.72714 1.41203 1.44328 2.125 2.15625.71795.71794 1.42385 1.42174 2.15625 2.125.42453.40784.85196.81588 1.28125 1.21875.31135.292.62365.58565.9375.875.2761.25473.56574.49732.84375.75.47584.43218.95607.88641 1.4375 1.3125.41362.36632.83232.73194 1.25 1.09375.90718.78583 1.82397 1.54827 2.75 2.3125.92603.76423 1.86801 1.50776 2.8125 2.25.87501.68677 1.73433 1.36368 2.625 2.03125.072.054.14667.10235.21875.15625.74387.55547 1.49545 1.11435 2.25 1.65625.10352.0743.20885.14473.3125.21875 1.09364.7824 2.19723 1.55904 3.3125 2.3125.05.0337.10618.0602.15625.0937 1.26771.85057 2.5277 1.66278 3.8125 2.46875 1.2848.80597 2.57453 1.61164 3.875 2.375 1.30047.76336 2.62278 1.49604 3.9375 2.21875zm71.78125 131.71875c-2.75238 1.50067-5.52434 2.90273-8.34375 4.21875 1.41062-.65675 2.82662-1.32959 4.21875-2.03125.20828-.10498.41715-.20652.625-.3125 1.18141-.60238 2.33288-1.24028 3.5-1.875zm-122.21875 9.5625c1.41202.50493 2.82836 1.00864 4.25 1.46875.13465.0436.27152.0818.40625.125 1.43151.45877 2.87236.86743 4.3125 1.28125-3.00744-.86433-6.00951-1.81806-8.96875-2.875zm8.96875 2.875c1.50338.43199 3.0196.86656 4.53125 1.25 1.51165.38344 3.0125.72714 4.53125 1.0625-3.04226-.67322-6.05506-1.44817-9.0625-2.3125zM297.65625 318.75l-3.15625 25h11.03125l-3.15625-25zm-5.53125 43.75-3.9375 31.25h23.65625l-3.9375-31.25zm-7.09375 56.25-3.78125 30.0625c12.46026 1.57084 25.0712 1.57189 37.53125 0L315 418.75Z" style="fill:#fff;fill-opacity:1;stroke:none;stroke-width:1.0075;stroke-dasharray:none" transform="translate(-7.5 -7.5) scale(.05625)"/>
  <path d="m 328.10005,222.76439 a 154.2012,154.2012 0 1 1 -250.502974,-0.002 l 125.250934,89.94563 z" transform="rotate(180 10.238 13.243) scale(.05472)" style="fill:#006747;fill-opacity:1;stroke:none;stroke-width:1.03572;stroke-dasharray:none"/>
  <path d="m 453.94737,299.98033 a 153.94738,153.94745 0 1 1 -307.89474,0 153.94738,153.94738 0 1 1 307.89474,0 z" style="fill:none;fill-opacity:1;stroke:#000;stroke-width:17.1053;stroke-dasharray:none;stroke-opacity:1" transform="translate(-7.933 -7.932) scale(.0577)"/>
 </g>
</svg>
