<svg width="20" height="20" xmlns="http://www.w3.org/2000/svg">
 <rect style="fill:#fff;fill-rule:evenodd;stroke:#fff;stroke-width:2;stroke-linecap:round;stroke-linejoin:round;paint-order:stroke fill markers" width="18" height="18" x="1" y="1" ry="1"/>
 <path style="color:#000;fill:#003f87;-inkscape-stroke:none" d="M 2,1 C 1.720897,1 1.474498,1.1114397 1.292969,1.2929688 1.11144,1.4744978 1,1.7208967 1,2 V 5.6386719 C 1.636617,5.2154593 2.303184,5 3,5 c 1.606682,0 1.5,0.5 3,0.5 1.5,0 2,-1 4,-1 2,0 2.465784,1 4,1 1.451087,0 1.5,-0.5 3,-0.5 0.666667,0 1.333333,0.2274306 2,0.671875 V 2 C 19,1.7208967 18.88856,1.4744978 18.707031,1.2929688 18.525502,1.1114397 18.279103,1 18,1 Z M 1,7 v 11 c 0,0.279103 0.11144,0.525502 0.292969,0.707031 C 1.474498,18.88856 1.720897,19 2,19 H 4 C 6.666667,17.897436 8,16.730769 8,15.5 8,13.653846 5,11.616286 5,9.3085938 5,8.3855166 5.833333,7.6153846 7.5,7 Z"/>
 <path d="M 9,7 C 7.395906,7.7261785 6.729239,8.4963106 7,9.3085938 7.461538,10.693209 12,12.538161 12,16.230469 12,17.461238 11.666667,18.384615 11,19 h 7 c 0.552285,0 1,-0.447715 1,-1 V 7 Z" style="fill:#006747"/>
</svg>
