<svg width="20" height="20" xmlns="http://www.w3.org/2000/svg">
 <path d="M10.000034,0.5 C12.6234291,0.5 14.9984021,1.56331836 16.717535,3.28246885 C18.4367,5.0016514 19.5,7.37668867 19.5,10.000068 C19.5,12.6234718 18.4367201,14.9984582 16.7175809,16.7175915 C14.9984436,18.436723 12.6234512,19.5 10.000034,19.5 C7.37667129,19.5 5.00164274,18.4366999 3.2824646,16.7175393 C1.56331853,14.9984107 0.5,12.6234465 0.5,10.000068 C0.5,7.37671404 1.56333861,5.00169883 3.28251053,3.28252106 C5.00168423,1.56334152 7.37669338,0.5 10.000034,0.5 Z" stroke="#FFF" fill="#006747"/>
 <path d="M12 5.0000345C12.7796782 5.00001657 13.4204297 5.59487623 13.4931303 6.35550897L13.5 6.4999655C13.5 7.32842712 12.8284271 8 12 8L11 8 11 9.5 10 9.49798731 10 5.00008051 12 5.0000345ZM10.5 3 10.5 4 9.00404951 4 9 7.5 7.99595049 7.5 8 4 6.5 4 6.5 3 10.5 3ZM12 6 11 6 11.0000805 7 12 7C12.2761424 7 12.5 6.77614237 12.5 6.5 12.5 6.22385763 12.2761424 6 12 6ZM16.7889389 10 3.21106109 10C2.5421956 10 2 10.5571152 2 11.2442198 2 11.3287646 2.00824374 11.4112147 2.02390388 11.4909934 2.03072934 11.5213809 2.03832303 11.551556 2.04547352 11.5817918 2.91632533 15.26506 6.14695421 18 9.99985226 18 13.849766 18 17.0782379 15.2693707 17.952074 11.5905043 17.9605837 11.5547739 17.9693593 11.5191649 17.9773962 11.4833434 17.9920813 11.4059326 18 11.3260021 18 11.2442198 18 10.5570848 17.4577749 10 16.7889389 10Z" fill="#FFF"/>
 <path fill="#F38F00" d="M6.59 13.005374 9.1943111 13.005374 9.99937488 10.52 10.8043962 13.005374 13.4086649 13.005374 11.3039915 14.5374265 12.1090128 17.02 9.99937488 15.4848499 7.88969449 17.02 8.69471584 14.5374265z"/>
</svg>
