<svg width="20" height="22" xmlns="http://www.w3.org/2000/svg">
 <rect style="fill:#003f87;fill-rule:evenodd;stroke:#fff" width="19" height="21" x=".5" y=".5" rx="1.5" ry="1.5"/>
 <g style="fill:#fff;stroke-width:.14389">
  <path style="fill:#fff;fill-opacity:1;fill-rule:nonzero;stroke:none;stroke-width:.14389" d="M 7.2008537,1.9001453 C 4.5250679,2.2643178 1.4344744,2.2399499 -0.65492382,0.27008351 -2.5657859,-1.1755377 -3.8862507,-3.4128475 -3.9240105,-5.8426519 c 0.049593,-2.0234608 -0.90238,-3.8196446 -1.7856538,-5.5702061 -0.6769054,-1.609462 -1.1054994,-3.388352 -1.3892737,-5.111152 l 4.5747256,-2e-6 c 0.2310126,1.12592 -1.527583,2.270277 -0.027192,3.371291 1.2157164,1.475559 2.49524895,2.92562 3.41325647,4.6152118 C 1.8500674,-9.4214394 2.50241,-10.398118 2.7300572,-11.918864 c 0.2153523,-1.438612 0.7038809,-2.722276 1.5190054,-3.546318 0.4850477,-0.490354 1.0032587,-0.551728 1.1857066,-1.05883 h 3.794926 c 0.00602,1.029398 -1.6146435,1.525298 -2.316361,2.45053 -0.5467722,1.623079 0.6580474,3.205492 1.6871285,4.357088 0.5568969,0.5289241 1.0586808,0.7762439 1.4554213,1.2878642 -0.4608335,-1.5858702 0.309052,-3.8247622 0.826624,-4.8949262 0.467414,-0.966456 0.796341,-2.209098 0.820027,-3.200556 h 4.410207 c -0.04468,1.488053 -1.535518,2.40371 -1.668381,3.825307 -0.326722,1.259683 -0.911364,3.0657756 0.464031,3.9232458 1.438093,0.859934 3.218677,0.5067281 4.81204,0.564046 2.328283,-0.066489 4.681262,-0.6447164 6.996792,-0.1383938 0.652438,0.3119838 1.215334,0.944161 0.212717,1.2600187 -1.38269,1.5668626 -2.401929,3.6046403 -4.459354,4.4108709 -1.619399,0.6403576 -3.311533,1.1016303 -4.848377,1.94475928 -1.18433,0.58559788 -2.459037,1.19710781 -3.792908,0.71072536 C 12.479983,-0.14466458 11.440891,0.96004692 10.139757,1.1461608 9.160416,1.3972202 8.1950098,1.712898 7.2008537,1.9001453 Z" transform="matrix(.215 0 0 -.215 7.81 2.447)"/>
 </g>
 <path style="fill:none;stroke:#fff;stroke-width:1px;stroke-linecap:butt;stroke-linejoin:miter;stroke-opacity:1" d="m 0.5,7.5 h 19"/>
</svg>
