<svg width="19" height="19" xmlns="http://www.w3.org/2000/svg">
 <g fill="none">
  <rect stroke="#FFF" fill="#000" fill-rule="evenodd" x=".5" y=".5" width="18" height="18" rx="2"/>
  <path d="M6.63374281,10.5030766 C7.41380294,9.50102552 8.36922201,9 9.5,9 C10.630778,9 11.5861971,9.50102552 12.3662572,10.5030766 L12.366882,10.5025899 C12.7769455,11.0291215 12.999734,11.677353 12.9999998,12.3447266 L13,16.5 L13,16.5 L6,16.5 L6.00000024,12.3447266 C6.00026596,11.677353 6.2230545,11.0291215 6.633118,10.5025899 Z" fill="#FFF" fill-rule="evenodd"/>
  <path d="M-.5 3.5.5 4C1.12951461 4.3147573 1.87048539 4.3147573 2.5 4 3.12951461 3.6852427 3.87048539 3.6852427 4.5 4 5.12951461 4.3147573 5.87048539 4.3147573 6.5 4 7.12951461 3.6852427 7.87048539 3.6852427 8.5 4 9.12951461 4.3147573 9.87048539 4.3147573 10.5 4 11.1295146 3.6852427 11.8704854 3.6852427 12.5 4 13.1295146 4.3147573 13.8704854 4.3147573 14.5 4 15.1295146 3.6852427 15.8704854 3.6852427 16.5 4 17.1295146 4.3147573 17.8704854 4.3147573 18.5 4L19.5 3.5 19.5 3.5M-.5 6.5.5 7C1.12951461 7.3147573 1.87048539 7.3147573 2.5 7 3.12951461 6.6852427 3.87048539 6.6852427 4.5 7 5.12951461 7.3147573 5.87048539 7.3147573 6.5 7 7.12951461 6.6852427 7.87048539 6.6852427 8.5 7 9.12951461 7.3147573 9.87048539 7.3147573 10.5 7 11.1295146 6.6852427 11.8704854 6.6852427 12.5 7 13.1295146 7.3147573 13.8704854 7.3147573 14.5 7 15.1295146 6.6852427 15.8704854 6.6852427 16.5 7 17.1295146 7.3147573 17.8704854 7.3147573 18.5 7L19.5 6.5 19.5 6.5" stroke="#FFF" stroke-width="1.5" stroke-linejoin="round"/>
  <path fill="#000" fill-rule="evenodd" d="M1 2H2V10H1zM17 2H18V10H17z"/>
 </g>
</svg>
