<svg width="20" height="20" viewBox="0 0 5.292 5.292" xml:space="preserve" xmlns="http://www.w3.org/2000/svg">
 <path style="fill:#fff;stroke:#000;stroke-width:.529167;stroke-linecap:round;stroke-linejoin:round;stroke-dasharray:none;stroke-opacity:1;paint-order:stroke markers fill" d="M 132.55625,115.35833 H 133.35 c 0.26458,-0.39687 0.99587,-0.79375 1.5875,-0.79375 0.59163,0 1.32292,0.39688 1.5875,0.79375 h 0.79375 c -0.52917,1.05834 0,1.45521 0,2.11667 0,0.79375 -0.52917,1.5875 -1.32292,1.5875 -0.26458,0 -0.79375,0 -1.05833,0.26458 -0.26458,-0.26458 -0.79375,-0.26458 -1.05833,-0.26458 -0.79375,0 -1.32292,-0.79375 -1.32292,-1.5875 0,-0.66146 0.52917,-1.05833 0,-2.11667 z" transform="translate(-132.292 -114.3)"/>
 <path style="fill:none;stroke:#000;stroke-width:.264583px;stroke-linecap:round;stroke-linejoin:miter;stroke-opacity:1" d="m 132.60917,115.75521 h 4.65666" transform="translate(-132.292 -114.3)"/>
</svg>
