<svg width="20" height="20" xmlns="http://www.w3.org/2000/svg">
 <g fill="none" fill-rule="evenodd">
  <rect stroke="#FFF" fill="#693F23" x=".5" y=".5" width="19" height="19" rx="2"/>
  <path d="M18.25,14 L15.75,16 C13.3254386,15.2359882 11.1587719,14.7359882 9.25,14.5 C6.38684211,14.1460177 1.75,14.25 1.75,12.25 C1.75,10.9166667 2.58333333,10.25 4.25,10.25 C3.25,10.5833333 2.75,11.0833333 2.75,11.75 C2.75,12.75 4.26578947,12.8230088 5.25,13 C5.90614035,13.1179941 10.2394737,13.4513274 18.25,14 Z" fill="#FFF"/>
  <path d="M4 6.5C4.41666667 6.33333333 4.83333333 6.25 5.25 6.25 5.66666667 6.25 6.08333333 6.33333333 6.5 6.5L6.5 12.25C6.08333333 12.4166667 5.66666667 12.5 5.25 12.5 4.83333333 12.5 4.41666667 12.4166667 4 12.25L4 6.5ZM4 6 4 5.5C4.19230769 4.83333333 4.60897436 4.5 5.25 4.5 5.89102564 4.5 6.30769231 4.83333333 6.5 5.5L6.5 6C6.08333333 5.83333333 5.66666667 5.75 5.25 5.75 4.83333333 5.75 4.41666667 5.83333333 4 6ZM9.5 6 12.5 9 12.5 13 7 12.5 7 9.25 9.5 6ZM9 10 8 10 8 11.75 9 11.75 9 10ZM11.5 10 10.5 10 10.5 11.75 11.5 11.75 11.5 10ZM9 8 8.25 8 8.25 9 9 9 9 8ZM10.75 7.75 10 7.75 10 8.75 10.75 8.75 10.75 7.75ZM15 7 17 8.75 12.75 8.5 9.5 5.5 9.5 4.75zM13 9 16.5 9.25 16.5 13 13 13 13 9ZM14.5 9.5 14 9.5 14 10.5 14.5 10.5 14.5 9.5ZM15.75 9.5 15.25 9.5 15.25 10.5 15.75 10.5 15.75 9.5Z" fill="#FFF"/>
  <path fill="#FFF" d="M9.5 4.75 6.5 8.5 6.5 9.25 9.5 5.5z"/>
 </g>
</svg>
