<svg width="24" height="24" xmlns="http://www.w3.org/2000/svg">
 <path style="color:#000;fill:#003f87;stroke-linecap:round;stroke-linejoin:round;-inkscape-stroke:none;paint-order:stroke markers fill" d="m 51.292969,23.707031 -11,-11 a 1.0001,1.0001 0 0 1 0,-1.414062 l 11,-11.00000025 a 1.0001,1.0001 0 0 1 1.414062,0 l 11,11.00000025 a 1.0001,1.0001 0 0 1 0,1.414062 l -11,11 a 1.0001,1.0001 0 0 1 -1.414062,0 z" transform="translate(-40)"/>
 <path style="fill:#9bcbeb;stroke:none;stroke-width:2;stroke-linecap:round;stroke-linejoin:round;stroke-miterlimit:4;stroke-dasharray:none;stroke-opacity:1;paint-order:stroke markers fill;fill-opacity:1" d="M 12 1 L 1 12 L 4.890625 15.890625 C 5.1411418 15.825545 5.3798043 15.749585 5.6132812 15.669922 C 4.6227378 14.754707 4 13.446388 4 12 C 4 9.2504236 6.250424 7 9 7 C 11.11256 7 12.929259 8.3287691 13.658203 10.191406 C 15.131218 9.2434191 16.867829 8.399348 18.919922 7.9199219 L 12 1 z M 21.578125 13.421875 C 18.881383 13.513423 17.482726 14.661704 15.458984 16.287109 C 13.882356 17.553407 11.995307 19.222716 9.4785156 20.478516 L 12 23 L 21.578125 13.421875 z"/>
 <path style="color:#000;fill:#000;-inkscape-stroke:none" d="m 19.736328,8.7363281 c -3.146412,0.5820926 -5.490116,2.1117959 -7.408203,3.6523439 -2.226623,1.788353 -3.966041,3.45469 -6.634766,4.304687 l 3.044922,3.044922 c 2.531708,-1.20065 4.416215,-2.883125 6.09375,-4.230469 2.292428,-1.841206 4.111125,-3.207252 7.722657,-3.0625 L 23,12 Z"/>
 <path style="fill:#ffcd00;fill-rule:evenodd;stroke:none;stroke-width:2;stroke-linecap:round;stroke-linejoin:round;stroke-miterlimit:4;stroke-dasharray:none;paint-order:stroke markers fill" d="m 9,8 a 4,4 0 0 0 -4,4 4,4 0 0 0 1.673828,3.242188 c 1.783987,-0.84879 3.177885,-2.147386 5.027344,-3.632813 0.348308,-0.27975 0.715526,-0.562433 1.103516,-0.839844 A 4,4 0 0 0 9,8 Z m 12.029297,2.029297 c -3.380964,0.313587 -5.672764,1.849945 -7.763672,3.529297 -1.986118,1.595187 -3.813749,3.288689 -6.40625,4.300781 l 0.755859,0.755859 c 2.563053,-1.09798 4.425746,-2.790199 6.277344,-4.277343 2.231509,-1.792278 4.432278,-3.317008 8.0625,-3.382813 z"/>
</svg>
