<svg width="22" height="21" xmlns="http://www.w3.org/2000/svg">
 <g fill="none" fill-rule="evenodd">
  <path stroke="#FFF" d="M10.9888705,1.53541164 C12.4932905,2.17213039 15.6549806,3.87611026 18.0538816,8.07193788 C19.311349,10.2705988 20.4865793,13.351667 20.4635207,15.9366539 L20.4952729,16.5917888 C20.5014614,16.8224065 20.5007132,17.0099295 20.4978836,17.1483271 L19.6146601,17.587847 C17.9917962,18.3189203 14.7868092,19.5 11.0005286,19.5 C6.74015838,19.5 3.21513315,18.0067865 1.85323088,17.3403669 L1.52154499,16.1815027 C1.53204122,15.9896301 1.54713988,15.7788513 1.56842789,15.5510978 L1.69152238,14.7185312 C2.07673476,12.2857243 2.64277057,10.3462577 3.94316334,8.07092597 C6.60805142,3.40953244 10.1920991,1.83760152 10.9888705,1.53541164 Z" stroke-linejoin="square" fill="#BF5700"/>
  <path stroke="#000" d="M10.8553487,0.522191046 C12.7064083,1.1499044 16.2583722,2.91672937 18.9219393,7.57547464 C20.2554561,9.90710666 21.4793665,13.1747632 21.4636972,15.9160756 L21.4946142,16.5539789 C21.5112777,17.1582891 21.4840083,17.5025726 21.4840083,17.5025726 L20.0431555,18.491591 C18.348598,19.2568847 14.9806692,20.5 11.0005286,20.5 C6.52368045,20.5 2.82089975,18.9284912 1.4020398,18.2328833 L0.513021913,17.7692982 L0.521689379,16.1518789 C0.533269482,15.9341385 0.55043236,15.6929746 0.575318901,15.430959 L0.703827367,14.5621389 C1.10885219,12.0042067 1.70795868,9.9665959 3.07501927,7.5746137 C6.32347976,1.8924416 10.8553487,0.522191046 10.8553487,0.522191046 Z"/>
  <path d="M0.168224299,0.75 L0.358878505,0.795314109 L0.61682243,1.33908342 L0.930841121,1.67893924 L1.3682243,1.93949537 L2.92149533,1.75 L3.17149533,2 L3.511,2.566 L3.73457944,2.40396498 L3.93272566,2.21997354 C4.00287681,2.15433335 4.05403968,2.10568167 4.08621427,2.0740185 L4.10771893,2.05250092 L4.11953098,2.04004479 C4.12457886,2.03447959 4.1271028,2.03117252 4.1271028,2.03012358 L4.53084112,1.82621009 L5.27157352,1.63355553 C5.28547898,1.63136003 5.50206833,1.59741098 5.92149533,1.53166838 L5.92149533,10.4812049 L5.74205607,10.3452626 L5.68598131,10.0167353 L5.56261682,9.86946447 L5.40560748,9.86946447 L5.11401869,10.073378 L5.22616822,10.4812049 L5.28224299,11.0249743 L5.3046729,11.3308445 L5.3046729,11.7160144 L5.2775993,11.7275642 C5.24191005,11.7425214 5.22102804,11.75 5.21495327,11.75 L5.08037383,11.7160144 L5.02429907,11.6253862 L4.81121495,10.0167353 L4.51962617,9.32569516 L4.23925234,9.06513903 L4.21682243,8.06822863 L4.15962617,7.96899073 C4.12299065,7.90449365 4.1046729,7.86960179 4.1046729,7.86431514 L3.98130841,7.72837281 L3.92523364,7.54711637 L3.92523364,7.42250257 L3.98130841,7.42250257 L3.57757009,6.96936148 L3.36448598,6.9353759 L3.17383178,6.79943357 L3.05046729,6.66349125 L2.96074766,6.49356334 L2.89345794,6.32363543 L2.83738318,6.01776519 L2.82616822,5.41735324 L2.93831776,5.1907827 L3.36448598,4.77162719 L3.47663551,4.54505664 L3.478,4.436 L2.92149533,4.25 L2.26542056,4.00128733 L1.64859813,3.67276004 L1.29415022,3.41472136 C1.23470636,3.37108556 1.20332295,3.34758935 1.2,3.34423275 L0.594392523,2.8684346 L0.480206355,2.71705376 C0.361937944,2.55953285 0.302803738,2.47782698 0.302803738,2.47193615 L0.141045515,2.08094086 C0.0813570061,1.93825761 0.0492951053,1.86467588 0.0448598131,1.86019567 L0,1.373069 L0.0715391157,1.00701244 C0.0761828205,0.984468206 0.0785046729,0.974320909 0.0785046729,0.976570546 L0.168224299,0.75 Z" fill="#000" transform="translate(5.079 7)"/>
  <path d="M6.08971963,0.75 L6.28037383,0.795314109 L6.53831776,1.33908342 L6.85233645,1.67893924 L7.28971963,1.93949537 L8.84299065,1.75 L9.09299065,2 L9.43249533,2.566 L9.65607477,2.40396498 L9.85422099,2.21997354 C9.92437214,2.15433335 9.97553501,2.10568167 10.0077096,2.0740185 L10.0292143,2.05250092 L10.0410263,2.04004479 C10.0460742,2.03447959 10.0485981,2.03117252 10.0485981,2.03012358 L10.4523364,1.82621009 L11.1930689,1.63355553 C11.2069743,1.63136003 11.4235637,1.59741098 11.8429907,1.53166838 L11.8429907,10.4812049 L11.6635514,10.3452626 L11.6074766,10.0167353 L11.4841121,9.86946447 L11.3271028,9.86946447 L11.035514,10.073378 L11.1476636,10.4812049 L11.2037383,11.0249743 L11.2261682,11.3308445 L11.2261682,11.7160144 L11.1990946,11.7275642 C11.1634054,11.7425214 11.1425234,11.75 11.1364486,11.75 L11.0018692,11.7160144 L10.9457944,11.6253862 L10.7327103,10.0167353 L10.4411215,9.32569516 L10.1607477,9.06513903 L10.1383178,8.06822863 L10.0811215,7.96899073 C10.044486,7.90449365 10.0261682,7.86960179 10.0261682,7.86431514 L9.90280374,7.72837281 L9.84672897,7.54711637 L9.84672897,7.42250257 L9.90280374,7.42250257 L9.49906542,6.96936148 L9.28598131,6.9353759 L9.0953271,6.79943357 L8.97196262,6.66349125 L8.88224299,6.49356334 L8.81495327,6.32363543 L8.7588785,6.01776519 L8.74766355,5.41735324 L8.85981308,5.1907827 L9.28598131,4.77162719 L9.39813084,4.54505664 L9.39949533,4.436 L8.84299065,4.25 L8.18691589,4.00128733 L7.57009346,3.67276004 L7.21564555,3.41472136 C7.15620168,3.37108556 7.12481828,3.34758935 7.12149533,3.34423275 L6.51588785,2.8684346 L6.40170168,2.71705376 C6.28343327,2.55953285 6.22429907,2.47782698 6.22429907,2.47193615 L6.06254084,2.08094086 C6.00285233,1.93825761 5.97079043,1.86467588 5.96635514,1.86019567 L5.92149533,1.373069 L5.99303444,1.00701244 C5.99767815,0.984468206 6,0.974320909 6,0.976570546 L6.08971963,0.75 Z" fill="#000" transform="matrix(-1 0 0 1 22.843 7)"/>
  <path d="M5.74205607,9.59526262 L5.68598131,9.26673532 L5.56261682,9.11946447 L5.40560748,9.11946447 L5.28224299,8.91555098 L5.22616822,8.41709578 L5.11401869,8.57569516 L5.05794393,8.73429454 L5.11401869,9.32337796 L5.22616822,9.73120494 L5.28224299,10.2749743 L5.3046729,10.5808445 L5.3046729,10.9660144 L5.2775993,10.9775642 C5.24191005,10.9925214 5.22102804,11 5.21495327,11 L5.08037383,10.9660144 L5.02429907,10.8753862 L4.81121495,9.26673532 L4.58691589,7.98661174 L4.49719626,7.94129763 L4.47588785,7.94786818 C4.4153271,7.9669001 4.38504673,7.97981462 4.38504673,7.98661174 L4.51962617,8.57569516 L4.23925234,8.31513903 L4.21682243,7.31822863 L4.15962617,7.21899073 C4.12299065,7.15449365 4.1046729,7.11960179 4.1046729,7.11431514 L3.98130841,6.97837281 L3.92523364,6.79711637 L3.92523364,6.67250257 L3.98130841,6.67250257 L4.03687075,6.72882849 C4.13166321,6.82532211 4.18381751,6.88079673 4.19333368,6.89525236 L4.19449254,6.89731687 L4.21682243,6.61585994 L4.4411215,6.69515963 L4.66542056,6.8084449 L4.77757009,6.9330587 L4.93457944,7.06900103 L4.91216684,6.79671428 L4.81121495,6.54788877 L4.67663551,6.37796087 L4.47489908,6.11757604 L4.43248408,6.07520443 C4.38432632,6.02778612 4.35732087,6.00411946 4.35140187,6.00411946 L4.22803738,5.97013388 L4.03738318,6.0607621 L3.81308411,6.19670443 L3.57757009,6.21936148 L3.36448598,6.1853759 L3.17383178,6.04943357 L3.05046729,5.91349125 L2.96074766,5.74356334 L2.89345794,5.57363543 L2.83738318,5.26776519 L2.82616822,4.66735324 L2.93831776,4.4407827 L3.36448598,4.02162719 L3.47663551,3.79505664 L3.48785047,3.14933059 L3.34205607,2.9454171 L3.12897196,2.85478888 L2.93831776,2.70751802 L2.91588785,2.5715757 L3.0728972,2.25437693 L3.12897196,1.869207 L3.45420561,1.85787848 L3.73457944,1.65396498 L3.93272566,1.46997354 C4.00287681,1.40433335 4.05403968,1.35568167 4.08621427,1.3240185 L4.10771893,1.30250092 L4.11953098,1.29004479 C4.12457886,1.28447959 4.1271028,1.28117252 4.1271028,1.28012358 L4.53084112,1.07621009 L5.27157352,0.883555531 C5.28547898,0.881360032 5.50206833,0.847410984 5.92149533,0.781668383 L6.57264231,0.883801974 L7.31231769,1.07629502 L7.71588785,1.28012358 C7.71588785,1.28180188 7.72234914,1.289261 7.73527172,1.30250092 L7.75677639,1.3240185 C7.80146331,1.36799512 7.88277887,1.4447428 8.00072305,1.55426151 L8.10841121,1.65396498 C8.10841121,1.65396498 8.20186916,1.72193615 8.38878505,1.85787848 L8.71401869,1.869207 L8.77009346,2.25437693 L8.9271028,2.5715757 L8.9046729,2.70751802 L8.71401869,2.85478888 L8.50093458,2.9454171 L8.35514019,3.14933059 L8.36635514,3.79505664 L8.47850467,4.02162719 L8.9046729,4.4407827 L9.01682243,4.66735324 L9.00560748,5.26776519 L8.94953271,5.57363543 L8.88178524,5.74443032 L8.79236601,5.91366464 L8.66915888,6.04943357 C8.66915888,6.04943357 8.60560748,6.09474768 8.47850467,6.1853759 L8.26542056,6.21936148 L8.02990654,6.19670443 L7.80476012,6.06035931 C7.79685151,6.05659992 7.73358255,6.02652477 7.61495327,5.97013388 L7.49158879,6.00411946 C7.48411215,6.00411946 7.44299065,6.04188122 7.36809158,6.11757604 L7.13704673,6.41496739 C7.11471651,6.44316283 7.07962617,6.48746996 7.0317757,6.54788877 L6.93084112,6.79711637 C6.92998731,6.79993685 6.92253375,6.89068162 6.90841121,7.06900103 L7.06542056,6.9330587 C7.06542056,6.9330587 7.10280374,6.89152077 7.17757009,6.8084449 L7.40186916,6.69515963 C7.40186916,6.69515963 7.47663551,6.6687264 7.62616822,6.61585994 L7.64849812,6.89731687 L7.64877509,6.89668974 C7.65607477,6.88358112 7.71958193,6.81639945 7.83929658,6.69514473 L7.86168224,6.67250257 L7.91775701,6.67250257 L7.91775701,6.79711637 L7.86168224,6.97837281 L7.73831776,7.11431514 C7.73831776,7.12186749 7.70093458,7.18983865 7.62616822,7.31822863 L7.60373832,8.31513903 L7.32336449,8.57569516 L7.45794393,7.98661174 C7.45794393,7.97905939 7.42056075,7.96395469 7.34579439,7.94129763 L7.25607477,7.98661174 L7.03147925,9.26897337 L6.81869159,10.8753862 L6.76261682,10.9660144 L6.62803738,11 C6.62056075,11 6.59065421,10.9886715 6.53831776,10.9660144 L6.53838518,10.5799251 L6.56121109,10.2704803 C6.56430061,10.2405206 6.58283772,10.0607621 6.61682243,9.73120494 L6.72897196,9.32337796 L6.78504673,8.73429454 L6.72897196,8.57569516 L6.61682243,8.41709578 L6.56074766,8.91555098 L6.43738318,9.11946447 L6.28037383,9.11946447 L6.15700935,9.26673532 L6.10093458,9.59526262 L5.92149533,9.73120494 L5.74205607,9.59526262 Z M0.0785046729,0.226570546 L0.168224299,0 L0.358878505,0.0453141092 L0.61682243,0.589083419 L0.930841121,0.928939238 L1.3682243,1.18949537 L2.2317757,1.40473738 L3.0728972,1.63130793 L3.00560748,1.93717817 L2.89345794,2.10710608 L2.71401869,2.25437693 L2.81495327,2.41297631 L2.61308411,2.45829042 L2.74766355,2.70751802 L2.34392523,2.65087539 L2.64672897,2.96807415 L2.51214953,2.9907312 L2.18691589,2.8661174 L1.82803738,2.65087539 L1.82822819,2.68402578 C1.8290762,2.75255374 1.83275091,2.78681771 1.83925234,2.78681771 L2.19813084,3.04737384 L2.50093458,3.16065911 L2.41121495,3.25128733 L2.26542056,3.25128733 L1.64859813,2.92276004 L1.29415022,2.66472136 C1.23470636,2.62108556 1.20332295,2.59758935 1.2,2.59423275 L0.594392523,2.1184346 L0.480206355,1.96705376 C0.361937944,1.80953285 0.302803738,1.72782698 0.302803738,1.72193615 L0.141045515,1.33094086 C0.0813570061,1.18825761 0.0492951053,1.11467588 0.0448598131,1.11019567 L0,0.623069001 L0.0715391157,0.257012437 C0.0761828205,0.234468206 0.0785046729,0.224320909 0.0785046729,0.226570546 Z M11.4841121,0.0453141092 L11.6747664,0 L11.764486,0.226570546 C11.764486,0.219500259 11.7874202,0.334881318 11.8332886,0.572713723 L11.8429907,0.623069001 C11.8429907,0.623069001 11.8280374,0.785444559 11.7981308,1.11019567 L11.7970999,1.11164062 C11.7847348,1.13179831 11.6990971,1.33523015 11.5401869,1.72193615 L11.5397204,1.72344058 C11.5339664,1.73640645 11.4749877,1.81761085 11.3627843,1.96705376 L11.2485981,2.1184346 C11.2485981,2.1184346 11.046729,2.27703399 10.6429907,2.59423275 L10.6389908,2.59758935 C10.6125816,2.6185681 10.4643821,2.72695833 10.1943925,2.92276004 L9.57757009,3.25128733 L9.4317757,3.25128733 L9.34205607,3.16065911 L9.64485981,3.04737384 L10.0037383,2.78681771 C10.011215,2.78681771 10.0149533,2.7415036 10.0149533,2.65087539 L9.65607477,2.8661174 L9.33084112,2.9907312 L9.19626168,2.96807415 L9.49906542,2.65087539 L9.0953271,2.70751802 L9.22990654,2.45829042 L9.02803738,2.41297631 L9.12897196,2.25437693 L8.94936143,2.10684655 L8.83738318,1.93717817 L8.77009346,1.63130793 L9.61121495,1.40473738 L10.4747664,1.18949537 L10.9121495,0.928939238 L11.2261682,0.589083419 L11.4841121,0.0453141092 Z" fill="#FFF" transform="translate(5.079 7)"/>
  <path d="M3.0728972 4.78063852 3.06671709 4.78241049C3.05216704 4.7870866 3.01539942 4.8019151 2.99439252 4.83728115 2.97408816 4.87146446 2.97211216 4.93027781 2.97196197 4.946384L2.97198597 4.95075516 3.02808591 5.40389745 3.11775701 5.75489186C3.11775701 5.75489186 3.18878505 5.84929626 3.33084112 6.03810505L3.54392523 6.04943357 3.83551402 5.99279094 3.82429907 5.84552008 3.6 5.5623069C3.59911122 5.5623069 3.59588259 5.55644409 3.5904043 5.54554341L3.55593246 5.47546327C3.52542906 5.41386977 3.47973128 5.32428354 3.42056075 5.22245108 3.37061746 5.13649871 3.25472961 4.98922785 3.0728972 4.78063852ZM8.77009346 4.78063852 8.72213779 4.83600622C8.57288226 5.00951456 8.47455362 5.13566859 8.42715187 5.21446831L8.40419433 5.25418326C8.35380715 5.34283363 8.31435071 5.4203533 8.28705819 5.47546327L8.25507166 5.54056566C8.24807828 5.55464936 8.24400641 5.5623069 8.24299065 5.5623069L8.01869159 5.84552008 8.00747664 5.99279094 8.29906542 6.04943357 8.51214953 6.03810505 8.72523364 5.75489186 8.81495327 5.40370752 8.87102869 4.95056643 8.87102869 4.946384C8.87087849 4.93027781 8.86890249 4.87146446 8.84859813 4.83728115 8.82198939 4.79248415 8.77009346 4.78063852 8.77009346 4.78063852Z" fill="#000" transform="translate(5.079 7)"/>
 </g>
</svg>
