<?xml version="1.0" encoding="UTF-8" standalone="no"?>
<!-- Generator: Adobe Illustrator 19.0.0, SVG Export Plug-In . SVG Version: 6.00 Build 0)  -->

<svg
   id="layer"
   width="20.006659"
   height="25"
   version="1.1"
   viewBox="-153 -46 20.006659 25"
   xml:space="preserve"
   sodipodi:docname="shield_us_co_nw.svg"
   inkscape:version="1.3.2 (091e20e, 2023-11-25, custom)"
   xmlns:inkscape="http://www.inkscape.org/namespaces/inkscape"
   xmlns:sodipodi="http://sodipodi.sourceforge.net/DTD/sodipodi-0.dtd"
   xmlns="http://www.w3.org/2000/svg"
   xmlns:svg="http://www.w3.org/2000/svg"><defs
   id="defs1" /><sodipodi:namedview
   id="namedview1"
   pagecolor="#ffffff"
   bordercolor="#666666"
   borderopacity="1.0"
   inkscape:showpageshadow="2"
   inkscape:pageopacity="0.0"
   inkscape:pagecheckerboard="0"
   inkscape:deskcolor="#d1d1d1"
   inkscape:zoom="19.07211"
   inkscape:cx="8.913539"
   inkscape:cy="11.718682"
   inkscape:window-width="1600"
   inkscape:window-height="829"
   inkscape:window-x="-8"
   inkscape:window-y="-8"
   inkscape:window-maximized="1"
   inkscape:current-layer="layer" />
<style
   type="text/css"
   id="style1">
	.st0{fill:#fafafa;}
	.st1{fill:none;stroke:#000000;stroke-width:4.5024;stroke-miterlimit:10;}
</style>
<rect
   x="-152.98335"
   y="-45.983356"
   width="19.97337"
   height="24.966711"
   rx="1.2483356"
   ry="1.2483356"
   fill="#fafafa"
   stroke="#000000"
   stroke-linecap="round"
   stroke-linejoin="bevel"
   style="display:inline;stroke-width:0.0332889;paint-order:fill markers stroke"
   id="rect1" />




<g
   transform="matrix(0.04640479,0,0,0.04640479,-145.33555,-44.325066)"
   id="g1"><path
     id="XMLID_39_"
     class="st0"
     d="m 62.4,142.7 c 61.4,0 117.3,26.3 158.9,69.2 V -15.6 H -120.5 V 240.6 C -77.8,181 -11.8,142.7 62.4,142.7"
     fill="#fafafa"
     style="display:inline" /><path
     id="XMLID_38_"
     class="st1"
     d="m 62.4,142.7 c 61.4,0 117.3,26.3 158.9,69.2 V -15.6 H -120.5 V 240.6 C -77.8,181 -11.8,142.7 62.4,142.7 Z"
     style="display:inline" /><path
     id="XMLID_37_"
     class="st0"
     d="m 62.4,173.4 c -76.7,0 -144,46.9 -182.8,117.8 v 97.7 H 221.3 V 255 C 181.6,204.8 125.1,173.4 62.4,173.4"
     fill="#fafafa"
     style="display:inline" /><path
     id="XMLID_36_"
     class="st1"
     d="m 62.4,173.4 c -76.7,0 -144,46.9 -182.8,117.8 v 97.7 H 221.3 V 255 C 181.6,204.8 125.1,173.4 62.4,173.4 Z"
     style="display:inline" /><path
     id="XMLID_9_"
     d="m 188.5,-15.6 v 199.3 c -10.1,-7.2 -20.8,-13.6 -31.8,-19 V -15.6 Z M 156.7,317.7 -41.5,204.6 c -10,6.5 -19.6,13.8 -28.6,22.1 l 226.8,129.5 v 32.7 h 31.8 V 221.1 c -10,-8.5 -20.7,-15.8 -31.8,-22.2 z M -120.5,159.5 v 38.4 l 24.2,13.8 c 8.2,-8.5 17,-16.3 26.3,-23.3 z m 341.8,245.3 h -341.8 v 79.6 h 341.8 z"
     style="display:inline;fill:#000000;fill-opacity:1"
     sodipodi:nodetypes="cccccccccccccccccccccccc" /></g>
</svg>
