<svg width="20" height="20" version="1.0" viewBox="0 0 150 150" xmlns="http://www.w3.org/2000/svg">
 <path d="m149.5 75a74.498 74.482 0 1 1-149 0 74.498 74.482 0 1 1 149 0z" fill="#fff"/>
 <path d="m74.997 14.514c-33.395 0-60.494 27.102-60.494 60.49 0 0.24011 0.0068 0.47909 0.0095 0.71854 3.0322-1.623 5.1284-3.7162 5.8731-6.3796 1.1831-2.0692 2.9016-4.0112 2.8264-6.4943 1.0504-2.1749 2.9986-3.7969 3.8515-6.0826 2.2255-3.2422 6.4977-4.2426 10.137-4.2721 2.5791-0.18678 5.216 0.30507 7.6647 1.2165 2.1083 0.24367 4.7099-0.62138 6.793-1.9253 1.7535-1.2814 3.9328-1.3824 5.8156-2.3468 2.1374-0.66912 4.3187-0.83345 6.5054-0.98647 2.2023-0.60404 2.9763-2.7015 2.9413-4.7224-0.5175-0.79211-1.1661-1.7974-1.0539-2.6054 0.14736-1.0624 1.3016-1.8455 2.7305-1.9732 2.7854-2.7893 5.0605 0.1713 3.0179-3.2472-0.61891-0.93296-2.4072-1.1741-2.9891-1.887-0.31083-0.38084-0.0314-0.89629 0.41192-1.7242 1.1758-2.2692 3.534-3.5593 5.4037-5.1917 1.7243-1.3063 3.3646-2.7291 4.8766-4.2721 1.8574-1.0763 4.1067-0.20723 6.1318-0.60346 1.979-0.52139 3.8708-0.85985 5.7581-0.87167 2.9254-0.37396 5.8857-0.05708 8.824-0.24904 0.78536-0.01345 1.5712-0.02481 2.3569-0.03827-8.2265-4.1876-17.534-6.5519-27.392-6.5519zm31.761 9.004c-0.0257 0.9897 0.45487 1.8854 0.82403 2.797-0.12842 1.5441-0.56645 2.4781-0.58446 3.2759 0.12713 0.82189-0.11113 1.5674-0.22034 2.3947 0.45653 0.42621 0.4318 1.736 0.85278 2.4522 0.50047 1.6269-0.12245 3.3038-0.49819 4.8852-0.0404 1.167-0.1803 2.3984 0.21064 3.525 0.57763 1.1065 0.40475 2.3766 0.0282 3.5058-0.23365 1.0243-0.39098 2.0574 0.0282 3.3047 0.18881 0.68825 0.71697 1.7452 1.5425 2.7394 0.94602 0.81137 1.2258 2.8431 1.121 4.0231-0.60443 1.8067-0.46173 3.8276-0.48863 5.6993 0.14752 1.1279 0.63887 2.1847 0.48863 3.3525-0.0532 1.1585-0.17616 2.4519-0.96766 3.3622-0.22299 0.22-0.45832 0.32745-0.69942 0.35451-0.0659-0.02653-0.12414-0.05397-0.21078-0.09595-0.25045-0.12067-0.40223-0.48778-1.5617-0.43088-1.6251 0.07972-2.9245-0.31261-4.4551-0.6898-1.1145-0.27453-2.4184-0.5209-3.8324-0.35433-0.37917-1.4982-1.3574-2.8152-2.788-3.5155-2.9856-1.4614-6.0156-1.7618-8.4216-2.6724-1.3932-0.52738-2.9411-1.6867-4.9246-2.5096-0.46414-0.19265-0.98578-0.57076-1.6766-1.0346-0.69088-0.46386-1.5844-1.0264-2.7785-1.226-1.5428-0.25807-3.0687-0.35413-4.5988-0.37356-1.5301-0.01961-3.0684 0.03987-4.6372 0.1053-3.3445 0.13986-5.7966 1.3661-8.2875 1.9253-2.8479 0.63959-4.438 0.65774-7.3965 0.74712-3.4635 0.10646-7.2775-0.05535-10.472 1.3602-1.5518 0.68794-3.7548 0.12209-6.5437 1.1399-1.4554 0.53129-2.6425 1.2999-3.7749 2.0883 0.0275-1.9986-0.1475-4.1038-0.56527-6.3316l-3.612 0.6801c1.1753 6.2677 0.41466 10.921-2.0503 14.32-2.1624 2.9819-5.7988 5.1727-11.19 6.4177 0.07568 1.2404 0.19546 2.4687 0.34491 3.6878 6.2415-1.3615 10.932-3.9637 13.816-7.9407 1.2877-1.7758 2.1749-3.7981 2.7018-6.0156 2.3283-1.4248 3.9731-2.8563 5.5952-3.4483 1.4191-0.51801 3.8747 0.04875 6.7737-1.2357 1.9799-0.87764 5.5171-0.93426 9.0923-1.0441 2.9411-0.089 4.9545-0.13961 8.0863-0.84289 3.0056-0.67484 5.1688-1.7264 7.636-1.8295 1.1701-0.0484 2.2862-0.09432 3.3629-0.10529 1.7944-0.01886 3.4776 0.05333 5.1066 0.32559 0.36828 0.06149 0.76337 0.26324 1.3413 0.65135 0.57796 0.3881 1.303 0.95793 2.3186 1.3794 1.3683 0.56773 2.9537 1.762 5.03 2.5479 3.0074 1.1382 5.9005 1.4591 8.1055 2.5384 0.68848 0.33694 1.1632 1.3249 0.77605 2.2511-0.73494 1.758-0.52099 3.4209-0.11498 4.4157 0.40604 0.99479 0.58157 1.2516 0.57487 1.3986-0.08414 1.8451-0.78966 3.133-0.52695 5.4118 0.23388 2.0293 0.53081 3.7794 0.2491 5.3258-0.31787 1.7449-0.41498 3.7489 0.35448 5.7378 0.41629 1.0759-0.08335 2.8215-0.3066 5.1342-0.18305 1.8966 0.2965 4.0254 1.3318 6.4082 0.45479 1.0466 0.50802 1.6724 3.3533 2.5574 0.68227 0.69919 1.7315 0.67404 2.5293 1.1591 0.7884 0.47389 0.23858 1.376-0.22036 1.8773-0.50171 0.62301-0.53061 2.1321 0.48863 2.2033 0.9597-0.16759 2.0844 0.30761 2.903-0.40231 0.98026-0.2905 2.0172-0.26811 3.0276-0.21076 1.713 0.13657 3.0259-0.41576 4.8288-0.74713 0.99897-0.16179 2.4337-0.11336 3.4395-0.0477 1.4383-0.0556 2.465-0.12652 3.8994-0.31605 1.1412-0.0711 1.8815-1.0636 2.4336-1.954 0.36362-0.84885 1.2178-0.86806 2.1078-0.86212 0.48992-2e-3 0.97411-0.0355 1.4372-9e-3 5.7058-9.2276 9.006-20.096 9.006-31.734 0-21.746-11.497-40.824-28.743-51.486zm-7.6071 47.702c0.63082-0.02201 1.2775 0.11417 2.1365 0.32576 1.2737 0.31365 2.9333 0.79343 4.9821 0.78539 0.0117-0.0068 0.16702 1.26e-4 0.32566 0.07673 0.31728 0.15284 0.82991 0.40476 1.533 0.5076 0.3141 0.06306 0.62774 0.16746 0.92935 0.0088 0.39521-0.04027 0.80883-0.12924 1.2072-0.30651 0.16997 0.13118 0.26926 0.34039 0.19158 0.60348-0.26852 0.64122-0.21096 1.4602-0.33536 2.1361-0.12395 1.1056-0.16469 1.5343-0.59399 2.6437-0.0396 0.83417-0.69783 2.0249-0.97732 2.7779-0.60126 1.2117-0.67437 2.2151-0.6515 3.7453 2e-3 1.2121 0.28252 1.987 0.38335 3.0365-0.0457 0.80151 0.26063 1.5352 0.72806 2.0978 0.52206 0.43184 0.54217 1.1105 0.80479 1.7816-0.1697 0.56732-0.23894 1.1605-0.22986 1.7529-0.0542 1.5549-0.61502 2.997 0.27785 4.5308 0.80248 0.50058 0.64476 1.3854 0.3066 2.2031-0.57248 0.5099-1.2808 0.83408-2.012 1.0441-1.1319 0.41866-1.9811 0.13944-3.1043 0.59389-0.67798 0.29875-1.2685 0.94861-2.012 1.1782-0.92478 0.37428-2.1181 0.0436-3.0084-0.23946-0.29582-0.038-0.50443-0.17542-0.66103-0.37358l-0.1533-0.24904c-0.04896-0.0936-0.09365-0.19422-0.13408-0.29697-0.54746-1.2889-0.64468-2.5311-0.48866-4.1476 0.16234-1.683 1.1175-4.12 0.07656-6.8105-0.42459-1.0976-0.42279-2.3897-0.17235-3.7645 0.43663-2.3969 0.01309-4.5405-0.20129-6.3986-0.1396-1.2122 0.42249-2.3171 0.53665-4.8181 0.06914-1.5176-0.63178-2.4653-0.83355-2.9598-0.164-0.40178-0.20043-0.65469-0.01013-1.2356 0.40591-0.14314 0.78075-0.21627 1.1593-0.22992zm-22.917 10.738-61.069 1.9828c4.325 29.153 29.475 51.543 59.833 51.543 18.273 0 34.661-8.1139 45.758-20.93-1.9288-0.51808-3.3335 0.8794-5.0301 1.3985-1.9906-0.47-3.4946 0.76389-4.206 2.5288-1.9905 0.50361-4.2513-0.19463-5.9402 1.4367-2.266 0.41968-4.5712-0.0392-6.8598 0.0388-1.4235 0.94792-3.4509 1.4537-5.3845 0.93865-1.6135-1.7399-3.7915 1.6032-5.2504-0.44059 0.48173-1.9052 2.1986-1.9627 3.8994-1.6762 1.9474-0.82851 0.49734-2.3572 2.4241-3.5155 1.0472-1.2874 3.005-2.8518 3.8132-4.5212-1.1333-1.5974-2.7473-2.9293-4.3786-4.0709-2.3518-1.9205-4.4527-2.5013-6.8023-3.7933-1.928-0.87648-3.8671-1.9989-5.557-3.2759-1.5935-1.2702-3.5499-2.9537-3.9185-5.1055-0.84458-1.7607 1.0154-2.9453 0.89089-4.4158-1.1243-1.5815 1.2866-1.7767 0.57493-3.4675-2.059-0.64917-1.5856-3.2703-2.7976-4.6553zm-1.236-70.5c35.084 3e-6 63.56 28.47 63.56 63.545 1.8e-4 35.076-28.476 63.536-63.56 63.536-35.084 0-63.55-28.46-63.55-63.536 0-35.076 28.466-63.545 63.55-63.545zm75.003 63.542a75 74.983 0 1 1-150 0 75 74.983 0 1 1 150 0z" fill-rule="evenodd" style="fill:#003f87"/>
</svg>
