<?xml version="1.0" encoding="UTF-8"?>
<svg width="20px" height="20px" viewBox="0 0 20 20" version="1.1" xmlns="http://www.w3.org/2000/svg" xmlns:xlink="http://www.w3.org/1999/xlink">
    <path d="M18,0.5 C18.4142136,0.5 18.7892136,0.667893219 19.0606602,0.939339828 C19.3321068,1.21078644 19.5,1.58578644 19.5,2 L19.5,18 C19.5,18.4142136 19.3321068,18.7892136 19.0606602,19.0606602 C18.7892136,19.3321068 18.4142136,19.5 18,19.5 L2,19.5 C1.58578644,19.5 1.21078644,19.3321068 0.939339828,19.0606602 C0.667893219,18.7892136 0.5,18.4142136 0.5,18 L0.5,2 C0.5,1.58578644 0.667893219,1.21078644 0.939339828,0.939339828 C1.21078644,0.667893219 1.58578644,0.5 2,0.5 Z" id="rect3651_1_" stroke="#FFFFFF" fill="#006747" fill-rule="nonzero"></path>
    <path d="M2,12 C4,10 6.66666667,9 10,9 C13.3333333,9 16,10 18,12 L18,13.5 C15.6666667,11.5 13,10.5 10,10.5 C7,10.5 4.33333333,11.5 2,13.5 L2,12 Z" id="Rectangle" fill="#FFFFFF"></path>
    <polygon id="Path" fill="#FFFFFF" fill-rule="nonzero" points="15.5 3 15.5 2 14.5 1.5 13.5 2 13.5 3"></polygon>
    <path d="M6,12 L6.5,15 C8.36635172,15.9067087 10.1996851,16.240042 12,16 C13.8003149,15.759958 15.6336483,14.759958 17.5,13 C16.8660733,11.6572621 15.1994066,10.8239288 12.5,10.5 C9.80059339,10.1760712 7.63392672,10.6760712 6,12 Z" id="Path" fill="#FFFFFF" fill-rule="nonzero"></path>
    <polygon id="Path" fill="#FFFFFF" fill-rule="nonzero" points="13 13 13.5 5 15.5 5 16 13"></polygon>
    <path d="M14.5,10 C14.7761424,10 15,10.2238576 15,10.5 L15,13 L15,13 L14,13 L14,10.5 C14,10.2238576 14.2238576,10 14.5,10 Z" id="Rectangle" fill="#006747"></path>
    <path d="M7.375,6.22607151 L7.375,13.5538874 L4.05557787,12.2261185 C4.59503766,10.0627852 5.42167904,7.54194152 7.375,6.22607151 Z" id="Path" stroke="#006747" stroke-width="0.75" fill="#FFFFFF" fill-rule="nonzero"></path>
    <path d="M7.625,5.88867438 C7.98965817,6.06079538 8.19897779,6.18202325 8.20627599,6.18683037 C8.22321975,6.19799075 9.24663204,6.96180028 10.2924925,8.26532338 C11.4774805,9.74224999 12.6682177,12.5987904 12.3103363,13.375 L7.625,13.375 Z" id="Path" stroke="#006747" stroke-width="0.75" fill="#FFFFFF" fill-rule="nonzero"></path>
    <path d="M10.0660656,13.625 L18.0357288,16.5230593 L6.78253792,15.8688041 L3.19245142,13.625 L10.0660656,13.625 Z" id="Path" stroke="#006747" stroke-width="0.75" fill="#FFFFFF" fill-rule="nonzero"></path>
    <path d="M18.375,12.2328412 L18.375,15.1537021 C16.2967525,17.2939247 13.5084083,18.375 10,18.375 C6.49159173,18.375 3.7032475,17.2939247 1.625,15.1537021 L1.625,12.2328412 C4.41699423,14.486469 7.20637464,15.625 10,15.625 C12.7936254,15.625 15.5830058,14.486469 18.375,12.2328412 Z" id="Rectangle" stroke="#006747" stroke-width="0.75" fill="#FFFFFF"></path>
    <rect id="Rectangle" fill="#FFFFFF" x="13" y="4" width="3" height="1"></rect>
    <line x1="12.5" y1="3.5" x2="7.5" y2="2" id="Line" stroke="#FFFFFF" stroke-linecap="round" stroke-linejoin="round"></line>
    <line x1="16.5" y1="3.5" x2="21.5" y2="2" id="Line-Copy-2" stroke="#FFFFFF" stroke-linecap="round" stroke-linejoin="round"></line>
    <line x1="16.5" y1="3.5" x2="21.5" y2="5" id="Line-Copy-3" stroke="#FFFFFF" stroke-linecap="round" stroke-linejoin="round"></line>
    <line x1="12.5" y1="3.5" x2="7.5" y2="5" id="Line-Copy" stroke="#FFFFFF" stroke-linecap="round" stroke-linejoin="round"></line>
</svg>