<svg width="20" height="20" xmlns="http://www.w3.org/2000/svg">
 <g fill="none" fill-rule="evenodd">
  <rect stroke="#FFCD00" fill="#693F23" x=".5" y=".5" width="19" height="19" rx="2"/>
  <g transform="translate(4.25 8.63)" stroke="#FFCD00">
   <rect x="1.25" y=".375" width="2.5" height="2.25" rx="1.125"/>
   <rect x="6.25" y=".375" width="2.5" height="2.25" rx="1.125"/>
   <path d="M4,0.625 C4.33333333,0.458333333 4.66666667,0.375 5,0.375 C5.33333333,0.375 5.66666667,0.458333333 6,0.625" stroke-linecap="square"/>
   <path d="M0,8.625 C0.12222275,7.01610805 0.288889417,5.59944138 0.5,4.375 C0.711110583,3.15055862 0.961110583,2.15055862 1.25,1.375" stroke-width=".75" stroke-linecap="round"/>
  </g>
  <path d="M6.52691936 15.75368C6.69842625 14.2512267 7.68945313 13.5 9.5 13.5 11.3804688 13.5 12.1558867 14.6050508 11.8262537 16.8151525L11.8260583 16.8151217C11.8131368 16.8969505 11.7363266 16.9528109 11.6544978 16.9398894 11.6076935 16.9324986 11.5671334 16.9034272 11.5450989 16.8614779 10.7675189 15.4537171 9.91894531 14.75 9 14.75 8.13964844 14.75 7.40266434 15.1201024 6.78904772 15.8603072L6.79123908 15.8621168C6.7384901 15.9259953 6.64394487 15.9350175 6.58006639 15.8822685 6.54202974 15.850859 6.52186753 15.8027558 6.52614074 15.7536123ZM5.25276773 7.41551682C5.4289151 3.49526068 7.59465919 1.91988638 11.75 2.68939394 15.9972046 3.47591331 17.2750681 6.11827083 15.5835906 10.6164665L15.5839474 10.616593C15.5562593 10.6946717 15.4705184 10.7355214 15.3924397 10.7078333 15.3342855 10.6872108 15.2946924 10.6330805 15.2926552 10.5714117 15.290341 10.3909697 15.276145 10.2636297 15.25 10.1893939 15.0619949 9.6555757 14.5305778 9.40134097 14.5 9.18939394 14.3627495 8.23805544 14.7142394 7.54042635 14.5 7.18939394 13.8435551 6.11380527 11.9921662 6.12507889 11.75 5.68939394 11.3012219 4.88199022 12.6838308 3.92819345 12.25 3.68939394 11.9818882 3.54181345 11.4097253 4.94265543 11 5.18939394 10.3266001 5.59491855 9.26650722 5.18939394 8.75 5.18939394 7.21118164 5.18939394 6.14204168 5.95262134 5.54258013 7.47907615L5.54228305 7.47895977C5.51206561 7.55609485 5.42503919 7.59412912 5.34790411 7.56391168 5.28745006 7.54022898 5.24909559 7.48034034 5.2528715 7.41552287Z" fill="#FFCD00"/>
 </g>
</svg>
