<svg width="20" height="20" xmlns="http://www.w3.org/2000/svg">
 <path d="m 13.166,1.354 c 1.093546,0 1.794482,-0.1963329 2.566414,-0.85401224 L 19.499609,4.2672259 C 18.806353,5.2526295 18.3993,6.454039 18.3993,7.7503995 c 0,0.9324568 0.210533,1.8156313 0.586706,2.6047335 0.325025,0.682209 0.513573,1.459591 0.513573,2.265654 0,2.894753 -2.346585,5.241263 -5.241205,5.241263 h -0.822667 c -1.387197,0 -2.625094,0.638651 -3.4359921,1.637965 C 9.1889085,18.500721 7.9509199,17.86205 6.5637234,17.86205 H 5.7410559 c -2.8947204,0 -5.24120446,-2.346611 -5.24120446,-5.241263 0,-0.806023 0.18856666,-1.583455 0.51362206,-2.265654 0.3761441,-0.7891122 0.5867068,-1.6722866 0.5867068,-2.6047335 0,-1.2963605 -0.4070839,-2.4977296 -1.10030867,-3.4831736 L 4.2670662,0.49998776 C 5.0390084,1.1576166 5.7394546,1.354 6.833,1.354 7.9265453,1.354 8.5,0.5 9.9997451,0.4996594 11.5,0.49931868 12.072455,1.354 13.166,1.354 Z" fill="#fff" fill-rule="evenodd" stroke="#000" stroke-linecap="round" stroke-linejoin="round" stroke-miterlimit="3.864" stroke-width="1.178" style="fill:#006747;stroke:#fff;stroke-width:1;stroke-miterlimit:3.864;stroke-dasharray:none;stroke-opacity:1"/>
</svg>
