<svg width="22" height="21" xmlns="http://www.w3.org/2000/svg">
 <g fill="none">
  <path stroke="#693F23" stroke-width="1.75" d="M10.9827304,1.94115272 C12.4980301,2.60648513 15.4614139,4.29308142 17.7283599,8.25811159 C18.9572388,10.4067861 20.1142358,13.4176562 20.0884342,15.9439498 L20.1205151,16.6058692 L19.4540841,17.2488884 C17.8581795,17.967118 14.7142206,19.125 11.0005286,19.125 C6.82122128,19.125 3.36277905,17.6610649 2.02234146,17.0056284 L1.89648977,16.1928124 C1.9065685,16.010593 1.92089601,15.811063 1.94087422,15.5959381 L2.06190801,14.7771783 C2.43969073,12.3912935 2.99332503,10.4886309 4.26871737,8.25704307 C6.73886032,3.93629563 10.0181398,2.33569658 10.9827304,1.94115272 Z" stroke-linejoin="square" fill="#FFF" fill-rule="evenodd"/>
  <path stroke="#FFF" d="M10.9888705,1.53541164 C12.4932905,2.17213039 15.6549806,3.87611026 18.0538816,8.07193788 C19.311349,10.2705988 20.4865793,13.351667 20.4635207,15.9366539 L20.4952729,16.5917888 C20.5014614,16.8224065 20.5007132,17.0099295 20.4978836,17.1483271 L19.6146601,17.587847 C17.9917962,18.3189203 14.7868092,19.5 11.0005286,19.5 C6.74015838,19.5 3.21513315,18.0067865 1.85323088,17.3403669 L1.52154499,16.1815027 C1.53204122,15.9896301 1.54713988,15.7788513 1.56842789,15.5510978 L1.69152238,14.7185312 C2.07673476,12.2857243 2.64277057,10.3462577 3.94316334,8.07092597 C6.60805142,3.40953244 10.1920991,1.83760152 10.9888705,1.53541164 Z" stroke-linejoin="square"/>
  <path stroke="#000" d="M10.8553487,0.522191046 C12.7064083,1.1499044 16.2583722,2.91672937 18.9219393,7.57547464 C20.2554561,9.90710666 21.4793665,13.1747632 21.4636972,15.9160756 L21.4946142,16.5539789 C21.5112777,17.1582891 21.4840083,17.5025726 21.4840083,17.5025726 L20.0431555,18.491591 C18.348598,19.2568847 14.9806692,20.5 11.0005286,20.5 C6.52368045,20.5 2.82089975,18.9284912 1.4020398,18.2328833 L0.513021913,17.7692982 L0.521689379,16.1518789 C0.533269482,15.9341385 0.55043236,15.6929746 0.575318901,15.430959 L0.703827367,14.5621389 C1.10885219,12.0042067 1.70795868,9.9665959 3.07501927,7.5746137 C6.32347976,1.8924416 10.8553487,0.522191046 10.8553487,0.522191046 Z"/>
  <path d="M0.792666326,4.95313987 C0.803640689,4.98715509 1.31394856,5.23647547 1.36955201,5.25927688 C1.42478963,5.2817045 1.85754535,5.25927688 1.9350975,5.25927688 C2.01301549,5.25927688 2.27896088,5.19124643 2.32358996,5.16844502 C2.36785322,5.1460174 2.51198319,5.07798695 2.50100883,5.02117031 C2.48966864,4.96435368 2.32358996,4.66980426 2.27896088,4.61298764 C2.23469762,4.55654479 1.97972658,4.35245344 1.94643768,4.31843822 C1.91314878,4.284423 1.89083425,4.284423 1.768653,4.37525486 C1.64683758,4.46571293 1.51368197,4.48851434 1.43612981,4.48851434 C1.35821183,4.48851434 1.31394856,4.49972815 1.28065966,4.53374337 C1.24737076,4.5677586 1.1698186,4.65859046 1.09226644,4.66980426 C1.01434845,4.68101808 0.792666326,4.82866658 0.792666326,4.82866658 C0.792666326,4.82866658 0.781691963,4.91912465 0.792666326,4.95313987 L0.792666326,4.95313987 Z M4.94134133,3.74017942 C4.94682851,3.75737393 4.93036697,3.8650265 4.94134133,3.92595487 C4.9523157,3.98688324 4.9856046,3.94987767 4.9856046,3.94987767 C4.9856046,3.94987767 5.02438068,3.94427077 5.03572085,3.92595487 C5.04669522,3.90726519 5.06315676,3.85381269 5.07449693,3.82540438 C5.0854713,3.79699606 5.12424738,3.76298084 5.15753628,3.74616012 C5.19082518,3.72896561 5.29617907,3.73457252 5.32946797,3.71625662 C5.36275687,3.69756694 5.40153295,3.64411445 5.44030903,3.61570613 C5.47945092,3.58729781 5.58480481,3.62131303 5.61224072,3.65532826 C5.64004244,3.68934348 5.67881852,3.68373657 5.70113306,3.68560555 C5.72344759,3.68747452 5.77319804,3.72896561 5.80099976,3.7121449 C5.82880148,3.69495038 5.8174613,3.60449232 5.8174613,3.5704771 C5.8174613,3.53646187 5.87306474,3.40040098 5.87306474,3.40040098 L5.77319804,3.40040098 L5.77319804,3.44450863 C5.77319804,3.44450863 5.73442196,3.45123691 5.69564588,3.44525622 C5.65686979,3.43927552 5.42384749,3.46843143 5.39055859,3.48525214 C5.35726969,3.50244665 5.27971752,3.56487019 5.25740298,3.61009922 C5.23508844,3.65532826 5.09644566,3.66654207 5.05766958,3.68560555 C5.0188935,3.70429523 4.94134133,3.61009922 4.94134133,3.61009922 C4.94134133,3.61009922 4.93585415,3.72335871 4.94134133,3.74017942 L4.94134133,3.74017942 Z M4.45883517,3.8650265 C4.48078389,3.87063341 4.53638734,3.88184722 4.5806506,3.91025554 C4.62527968,3.93866385 4.6805173,3.92184314 4.70283184,3.91025554 C4.72478056,3.89904173 4.70831903,3.84222509 4.70831903,3.82540438 C4.70831903,3.80820987 4.75258229,3.66093516 4.75806946,3.61009922 C4.76392246,3.55888949 4.75258229,3.53085497 4.73612074,3.51366046 C4.71929338,3.49683974 4.72478056,3.48525214 4.69149166,3.45684383 C4.65856858,3.4288093 4.69149166,3.45684383 4.65271558,3.48525214 C4.6139395,3.51366046 4.32567957,3.82540438 4.32567957,3.82540438 C4.32567957,3.82540438 4.43652064,3.8594196 4.45883517,3.8650265 L4.45883517,3.8650265 Z M2.58331654,5.18003262 C2.58331654,5.18003262 2.44540539,5.2817045 2.26798652,5.32730732 C2.09056765,5.37253636 1.92412315,5.40655159 1.87985988,5.40655159 C1.8352308,5.40655159 1.73572991,5.4177654 1.71341538,5.40655159 C1.71341538,5.40655159 1.88973681,5.48691722 2.14031809,5.46336823 C2.50137463,5.429353 2.64513879,5.26936931 2.64513879,5.26936931 L2.58331654,5.18003262 Z M5.95061691,0 L6.15035032,0 C6.15035032,0 6.26667856,0.016820715 6.35008372,0.0848511619 L6.43312307,0.15288161 C6.51652822,0.220912057 6.56627867,0.170076118 6.59956757,0.356972951 C6.63285647,0.543869784 6.63285647,0.37416746 6.63285647,0.543869784 C6.63285647,0.713945902 6.58310602,0.645915455 6.63285647,0.850006797 C6.68297273,1.05409814 6.63285647,1.05409814 6.71589581,1.19015904 C6.79930098,1.32621993 6.74918471,1.37705587 6.83258988,1.46228082 C6.91562922,1.54713198 6.88234032,1.58114721 6.91562922,1.66599837 C6.94891813,1.75122333 6.99903438,1.85326899 7.01549593,1.85326899 C7.03232328,1.85326899 7.14865153,1.70001359 7.19876778,1.61516243 C7.24851823,1.53031127 7.74785174,0.713945902 7.79760219,0.679930678 C7.84735263,0.645915455 7.93075779,0.697125187 7.91393044,0.799170858 C7.89746889,0.90121653 7.49800209,1.53031127 7.49800209,1.53031127 C7.49800209,1.53031127 7.49800209,1.5639527 7.54811834,1.63198315 C7.59786879,1.70001359 7.54811834,1.85326899 7.59786879,1.85326899 L7.71456284,1.85326899 C7.71456284,1.85326899 7.78077483,1.87008971 7.71456284,1.98932989 C7.64798504,2.10819628 7.64798504,2.17622673 7.53129099,2.24425717 C7.41496274,2.31228762 7.49800209,2.31228762 7.49800209,2.41433329 C7.49800209,2.51637896 7.49800209,2.5844094 7.38167384,2.5844094 C7.26497977,2.5844094 7.26497977,2.66926057 7.18194043,2.82214218 C7.09890108,2.97539758 7.03232328,3.04342803 7.01549593,3.16229442 C6.99903438,3.2811608 6.93465145,3.4344162 6.93355402,3.46843143 C6.93245658,3.50244665 6.94891813,3.53646187 7.03232328,3.58729781 C7.11536263,3.63850755 7.18194043,3.65532826 7.23169087,3.74017942 C7.28180713,3.82540438 7.34838494,3.84222509 7.36484648,3.96146527 C7.38167384,4.08033166 7.49800209,4.04631643 7.49800209,4.04631643 L7.59786879,4.14836211 L7.71456284,4.01230121 C7.71456284,4.01230121 7.85174238,3.99548049 7.91612531,4.04631643 C7.98050824,4.09752616 8.16378008,4.18237732 8.24681942,4.14836211 C8.32985877,4.11434688 8.49630327,4.04631643 8.54641957,4.04631643 C8.59616999,4.04631643 8.82663163,4.06351095 8.86101798,4.08033166 C8.89577014,4.09752616 9.04538727,4.14836211 9.04538727,4.14836211 L8.92905899,4.17415386 C8.92905899,4.17415386 9.11196506,4.23358706 9.22865914,4.284423 C9.34498734,4.33525894 9.52789341,4.35245344 9.61129856,4.42048389 C9.69433791,4.48851434 9.89407134,4.5733655 9.96064913,4.65859046 C10.0272269,4.74344162 10.4266937,4.7266209 10.5594835,4.89632323 C10.6926391,5.06639935 10.9091999,5.20246024 10.9754119,5.49140275 C11.0419897,5.78071905 11.1919726,5.96761588 11.1418564,6.20572244 C11.092106,6.44382901 11.0419897,6.715577 11.0419897,6.85163789 C11.0419897,6.98769879 11.0087007,7.22580535 11.0419897,7.34467174 C11.0752786,7.46391192 11.2120923,7.65080875 11.1520992,7.75285443 C11.092106,7.8549001 10.9754119,7.75285443 10.9754119,7.75285443 C10.9754119,7.75285443 10.7925058,7.73565992 10.7592169,7.7188392 C10.725928,7.70164469 10.4098664,7.20861085 10.3934048,7.1405804 C10.3765775,7.07254995 10.2935381,6.98769879 10.2602492,7.10656517 C10.2269603,7.22580535 10.2434219,7.54876309 10.2434219,7.59997282 C10.2434219,7.65080875 10.3601159,7.90573603 10.3934048,7.97376649 C10.4266937,8.04179693 10.5763109,8.36475468 10.6428887,8.43278507 C10.7094665,8.50081554 10.7427554,8.62005569 10.7427554,8.73892215 C10.7427554,8.85778852 10.6926391,9.45286802 10.725928,9.57210817 C10.7592169,9.69097454 10.7760443,9.99711162 10.7760443,10.0479475 C10.7760443,10.0991573 10.725928,10.3372638 10.6761775,10.3880998 C10.6260613,10.4389357 10.509733,10.5069662 10.509733,10.5581758 C10.509733,10.6090118 10.543022,10.779088 10.543022,10.779088 L10.4266937,11 L9.84432085,11 C9.84432085,11 9.87760978,10.8131032 9.96064913,10.728252 C10.0436885,10.643027 10.0938047,10.4901455 10.1603826,10.472951 C10.2269603,10.4561302 10.210133,10.3372638 10.210133,10.3372638 C10.210133,10.3372638 10.2767108,9.99711162 10.3099997,9.86105068 C10.3432885,9.72498982 10.2602492,9.29998637 10.2269603,9.23195598 C10.1936714,9.16392551 10.0272269,8.85778852 10.0103995,8.75574285 C9.99393806,8.65407097 9.9273602,8.43278507 9.91089871,8.34793398 C9.89407134,8.26270902 9.44485406,7.7188392 9.37827628,7.54876309 C9.37827628,7.54876309 9.19537021,7.83770558 9.17854284,8.10982738 C9.16208128,8.38194917 9.14525399,8.55202531 9.19537021,8.68808617 C9.24512063,8.82377324 9.27840956,8.92581899 9.14525399,9.14710481 C9.01209834,9.36801684 8.51313064,10.1671877 8.47984179,10.2520389 C8.44655286,10.3372638 8.46301442,10.4561302 8.39643655,10.5241607 C8.32985877,10.5921911 8.24681942,10.6942368 8.18024164,10.6942368 C8.11366385,10.6942368 7.98050824,11 7.98050824,11 L7.39813538,11 C7.39813538,11 7.48154054,10.728252 7.54811834,10.6602216 C7.61469614,10.5921911 7.76431329,10.5069662 7.76431329,10.5069662 L7.79760219,10.4049205 C7.79760219,10.4049205 7.74785174,10.422115 7.91393044,10.2352181 C8.08037494,10.0479475 8.14695271,9.94590186 8.23035794,9.809841 C8.31339721,9.67415384 8.47984179,9.38483755 8.47984179,9.24877669 C8.47984179,9.11308961 8.504717,9.06187985 8.55885718,8.92581899 C8.61299736,8.78975805 8.39643655,8.56884601 8.32985877,8.34793398 C8.26364679,8.12664809 8.19706901,7.61679353 8.18024164,7.53194236 C8.16378008,7.44671741 8.04708604,7.27664129 8.04708604,7.20861085 L8.04708604,7.1405804 C8.04708604,7.1405804 7.83089109,7.07254995 7.64798504,7.1405804 C7.46471318,7.20861085 7.06561218,7.39588147 6.91562922,7.39588147 C6.76601208,7.39588147 5.85075021,7.48073264 5.6843057,7.4298967 C5.6843057,7.4298967 5.66784416,7.4298967 5.6843057,7.54876309 C5.70113306,7.66762947 5.6843057,7.65080875 5.58480481,7.7188392 C5.48493811,7.78686965 5.58480481,7.88891532 5.58480481,7.88891532 C5.58480481,7.88891532 5.51237401,8.38194917 5.54017573,8.50081554 C5.56797746,8.62005569 5.66784416,9.11308961 5.66784416,9.11308961 C5.66784416,9.11308961 5.76771086,9.79302029 5.8174613,9.91188666 C5.86757756,10.0311268 5.90086646,10.1499932 5.83428866,10.201203 L5.76771086,10.2520389 C5.76771086,10.2520389 5.65101679,10.3709052 5.6843057,10.4901455 C5.7175946,10.6090118 5.66784416,10.7110575 5.63455526,10.7622673 C5.60126636,10.8131032 5.0188935,10.8471184 5.0188935,10.8471184 C5.0188935,10.8471184 4.9856046,10.7962825 5.0188935,10.643027 C5.0521824,10.4901455 5.16851064,10.4389357 5.2519158,10.3372638 C5.33495515,10.2352181 5.33495515,10.3540845 5.33495515,10.2352181 C5.33495515,10.115978 5.3850714,10.0479475 5.3850714,9.99711162 C5.3850714,9.94590186 5.23508844,9.24877669 5.185338,9.09589504 C5.13522174,8.94301348 5.03937897,8.68808617 5.00426101,8.5860405 C4.96914305,8.48399484 4.91902679,8.3139187 4.91902679,8.22869376 L4.91902679,7.97376649 C4.91902679,7.97376649 4.65271558,8.04179693 4.55284888,7.99096099 C4.45334799,7.93975126 4.36994283,7.80369037 4.55284888,7.7188392 L4.73612074,7.63361425 L4.75258229,7.32785103 C4.75258229,7.32785103 4.58613778,7.19179013 4.53638734,7.25982058 C4.48663689,7.32785103 3.82085887,7.82088487 3.62112546,7.88891532 C3.42175787,7.95694576 3.05557997,8.17785782 3.0054637,8.24588827 C2.95571326,8.3139187 2.68940205,8.73892215 2.65611315,8.82377324 C2.62282425,8.9089982 2.58624304,9.07010327 2.57307381,9.23195598 C2.5577097,9.41810517 2.60636271,9.43604731 2.53978491,9.50407779 C2.47320711,9.57210817 2.53978491,9.74218431 2.53978491,9.74218431 C2.53978491,9.74218431 2.64696785,9.82703549 2.51015413,10.0139323 C2.3733404,10.201203 2.12385655,10.3200693 2.07374029,10.3372638 C2.02398985,10.3540845 1.97387359,10.3372638 1.99070095,10.201203 C2.00716249,10.065142 1.98740863,9.92908115 1.98740863,9.92908115 C1.98740863,9.92908115 1.90107698,9.79302029 1.98740863,9.60612345 C2.07374029,9.41885283 2.12385655,9.24877669 2.17360699,9.16392551 C2.22372325,9.07907434 2.42309084,8.51801003 2.43991821,8.43278507 C2.45637974,8.34793398 2.42309084,8.16066332 2.58953535,7.99096099 C2.75597986,7.82088487 2.77280721,7.75285443 2.90596282,7.70164469 C3.0387526,7.65080875 3.15544667,7.36186625 3.25531337,7.27664129 C3.35518007,7.19179013 3.47150832,7.12375969 3.48796986,6.95368357 C3.50479722,6.78360745 3.23848601,6.73277151 3.20519711,6.54550088 C3.17190821,6.35860405 3.0720415,6.22254316 3.05557997,6.06966154 C3.0387526,5.91677994 3.05557997,5.83155499 2.92242436,5.67867337 C2.78926876,5.52541797 2.68940205,5.40655159 2.68940205,5.40655159 C2.68940205,5.40655159 2.2734737,5.74670382 1.8077949,5.61064293 C1.34175029,5.47458203 0.825955226,5.16844502 0.776204781,5.11760908 L0.726088523,5.06639935 L0.726088523,5.25366997 C0.726088523,5.25366997 0.859244126,5.38935707 0.875705673,5.5 C0.892533027,5.61064293 0.908994573,5.88276471 0.908994573,5.93360065 C0.908994573,5.98443659 0.942283474,6.23973766 0.875705673,6.2905736 C0.809127872,6.34178334 0.59293292,6.0016311 0.59293292,5.91677994 C0.59293292,5.83155499 0.559644019,5.7126886 0.526355118,5.64465815 C0.493066217,5.5766277 0.543182474,5.38935707 0.59293292,5.33852113 C0.643049178,5.2876852 0.56147308,5.04957864 0.56147308,5.04957864 C0.56147308,5.04957864 0.426488415,5.1516243 0.343449069,5.06639935 L0.260043911,4.98154819 C0.260043911,4.98154819 0.227120822,5.06639935 0.143715664,4.96435368 C0.0606763173,4.8626818 0.0939652185,4.84548729 0.0438489609,4.74344162 C-0.00590148448,4.64139595 -0.022728841,4.52252956 0.0438489609,4.36927417 C0.110426763,4.21639255 0.37673797,3.87624031 0.526355118,3.77419465 C0.676338078,3.67252277 0.676338078,3.55328259 0.776204781,3.40040098 L0.875705673,3.24714557 C0.875705673,3.24714557 0.825955226,3.09426397 0.908994573,3.06024874 C0.992399728,3.02623352 1.10872798,2.90736714 1.12555534,2.8561574 C1.14201688,2.80532146 1.40832809,2.65206606 1.49136743,2.63524534 C1.57477259,2.61842463 1.75767864,2.431154 1.8077949,2.38031806 C1.85754535,2.32910833 2.02398985,2.09137556 2.02398985,2.32910833 C2.02398985,2.5672149 1.99070095,2.61842463 1.97387359,2.70327579 C1.95741205,2.78812696 2.17360699,2.82214218 2.2734737,2.8561574 C2.3733404,2.89017262 2.57307381,2.90736714 2.67294051,2.9922183 C2.77280721,3.07744325 2.88913546,3.11145848 2.9721748,3.11145848 C3.05557997,3.11145848 3.08886887,3.1454737 3.13861931,3.19630963 C3.18873557,3.24714557 3.28860227,3.31517602 3.35518007,3.33237054 C3.42175787,3.34919125 3.58783656,3.4344162 3.68770327,3.46843143 C3.78756997,3.50244665 4.13692052,3.67252277 4.18703678,3.72335871 L4.68600448,3.2811608 C4.68600448,3.2811608 4.81916009,3.1454737 5.03572085,3.11145848 C5.2519158,3.07744325 5.36824405,3.07744325 5.46811075,3.04342803 C5.56797746,3.0094128 5.85075021,2.80532146 5.85075021,2.80532146 L5.88403911,2.55039418 C5.88403911,2.55039418 5.7841724,2.63524534 5.7175946,2.66926057 C5.65101679,2.70327579 5.6843057,2.41433329 5.7175946,2.29509311 C5.7508835,2.17622673 5.8174613,1.85326899 5.86757756,1.85326899 C5.91732801,1.85326899 5.83428866,1.61516243 5.83428866,1.61516243 L5.91732801,1.51311676 L5.95061691,1.37705587 L5.92574168,1.28360745 C5.92574168,1.28360745 5.73442196,1.28771918 5.7175946,1.21968873 C5.70113306,1.15165828 5.67625783,0.943455209 5.67625783,0.943455209 C5.67625783,0.943455209 5.6148014,0.954669027 5.58334156,0.926634496 C5.5573689,0.903085493 5.5752937,0.841409544 5.62614158,0.773379095 C5.67735527,0.705722441 5.68540313,0.714693489 5.65540655,0.654512709 C5.60785097,0.559195324 5.6843057,0.356972951 5.6843057,0.356972951 C5.6843057,0.356972951 5.58334156,0.263524534 5.66784416,0.136060894 C5.72747153,0.0456028272 5.95061691,0 5.95061691,0 L5.95061691,0 Z" fill="#693F23" transform="translate(2.25 7)"/>
  <path d="M15.7841948,7.93130352 C15.7757811,7.99073671 15.7593196,8.1267976 15.7841948,8.19482806 C15.8090701,8.26285848 15.933812,8.55180099 15.933812,8.55180099 C15.933812,8.55180099 16.1419591,8.31369446 16.1668343,8.23744053 C16.1917095,8.16081283 16.1752479,8.1267976 16.1668343,8.10137964 C16.1584206,8.07596167 16.0669676,7.99073671 16.0172172,7.94849803 C15.9671009,7.90588555 15.7841948,7.72721218 15.7841948,7.72721218 C15.7841948,7.72721218 15.7926085,7.87187033 15.7841948,7.93130352 M11.0033965,3.96124099 C11.0311982,4.00086313 11.0864358,4.03487834 11.1197248,4.04011146 C11.1530136,4.04534457 11.3249453,4.05207286 11.3637214,4.04011146 C11.4024975,4.02815006 11.3695744,3.98964932 11.386036,3.9728286 C11.4024975,3.95563409 11.4193249,3.87638983 11.4193249,3.82891803 C11.4193249,3.78144624 11.4526138,3.74593585 11.458101,3.70070681 C11.4635882,3.65547777 11.4635882,3.66108468 11.4193249,3.66108468 C11.3750616,3.66108468 11.3304325,3.70631371 11.2583675,3.75154275 C11.1863026,3.79714558 10.9313315,3.88199674 10.9313315,3.88199674 C10.9313315,3.88199674 10.9755948,3.92161887 11.0033965,3.96124099 M8.67939228,3.9728286 C8.69073246,3.97843551 8.92887613,4.02366454 9.01228128,4.03487834 C9.09532063,4.04646595 9.21201464,4.03487834 9.21201464,4.03487834 L9.17872579,3.93881338 C9.17872579,3.93881338 9.16189842,3.87078293 9.12860948,3.86966154 C9.09532063,3.86854017 9.0009411,3.91040505 8.94021631,3.91040505 C8.87912563,3.91040505 8.75145725,3.87078293 8.71670509,3.84798151 C8.68231874,3.82555389 8.67939228,3.8195732 8.64610335,3.84798151 C8.61281441,3.87638983 8.54074944,3.91040505 8.54074944,3.91040505 C8.54074944,3.91040505 8.6684179,3.9668479 8.67939228,3.9728286 M8.53050676,4.04646595 C8.53050676,4.04646595 8.43832208,4.07188392 8.3966195,4.04646595 C8.35491692,4.02104798 8.33004171,3.94442028 8.30516651,3.96983825 C8.28029122,3.99525622 8.230175,4.02104798 8.230175,4.02104798 C8.230175,4.02104798 8.13030828,4.05506321 8.08055785,4.04646595 C8.03044159,4.0378687 7.97227746,3.96983825 7.95581592,3.94442028 C7.93898856,3.91900231 7.83070818,3.8547098 7.82266032,3.81022835 C7.81424664,3.76574691 7.83912186,3.72350822 7.82266032,3.68089575 C7.80583296,3.63828327 7.80583296,3.45138644 7.85594922,3.41737121 C7.90569966,3.38335599 8.09701943,3.23869784 8.230175,3.11983146 C8.36333057,3.00096507 8.46319728,2.90714286 8.47965885,2.87312763 C8.49648622,2.83911241 8.49648622,2.73706674 8.57147764,2.66941008 C8.64610335,2.60137964 8.7295085,2.54157265 8.78767264,2.48213946 C8.84583678,2.42270627 8.8955872,2.35467582 8.8955872,2.35467582 C8.9457035,2.32066059 8.99545391,2.29524263 8.99545391,2.29524263 C8.99545391,2.29524263 8.96216498,2.21861493 8.97057871,2.13376376 C8.97899235,2.04853881 8.99545391,1.96368765 9.02874277,1.92967242 C9.0620317,1.89565719 9.08727271,1.91247792 9.10373428,1.92967242 C9.12019584,1.94686693 9.17872579,2.01452358 9.19518735,2.04031535 C9.21201464,2.06573331 9.2284762,2.10834579 9.25335141,2.11656925 C9.2785925,2.12516651 9.31188135,2.05713606 9.31188135,2.05713606 C9.31188135,2.05713606 9.32834292,1.98050836 9.36163185,1.9722849 C9.3949207,1.96368765 9.42820963,1.99770287 9.45308484,2.04853881 C9.47796005,2.09974854 9.52807635,2.22721218 9.52807635,2.26982466 C9.52807635,2.31206334 9.54453783,2.38869105 9.56977893,2.43130352 C9.59465414,2.473916 9.80243541,2.6267976 9.85255163,2.66941008 C9.90230212,2.71164877 10.0771603,2.95835259 10.1104492,2.98377056 C10.1437381,3.00918853 10.3350578,3.17066739 10.3683467,3.22187712 C10.4016356,3.27271306 10.5512528,3.40877396 10.5680801,3.44278918 C10.5845417,3.4768044 10.6595331,3.54483485 10.6928221,3.60426804 C10.7261109,3.66370123 10.7425725,3.72350822 10.7758614,3.74032894 C10.8091503,3.75752345 10.8925554,3.74892619 10.9507195,3.72350822 C11.0088837,3.69771646 11.333359,3.51941688 11.4083505,3.48540166 C11.4829762,3.45138644 11.6329591,3.30672829 11.6995369,3.30672829 C11.7661148,3.30672829 11.79099,3.28990757 11.8242788,3.3239228 C11.8575678,3.35793801 11.9073182,3.33214626 11.9321935,3.3239228 C11.9574345,3.31532554 12.098638,3.23047438 12.1487542,3.23047438 C12.1985046,3.23047438 12.2402072,3.13665217 12.2899577,3.11983146 C12.3400739,3.10263694 12.3400739,3.01778578 12.3733628,2.96694984 C12.4066517,2.91574011 12.4399406,2.85630692 12.4812774,2.79687372 C12.52298,2.73706674 12.5065184,2.6267976 12.5478552,2.55016991 C12.5895577,2.473916 12.6725971,2.36327307 12.6725971,2.30383988 C12.6725971,2.24403289 12.7142997,2.08255403 12.7560022,2.04031535 C12.7977048,1.99770287 12.8390416,1.85341851 12.8807442,1.85341851 C12.9224467,1.85341851 12.9721972,1.82762675 12.9806109,1.78501428 C12.9890246,1.74277559 12.9890246,1.76370804 12.9389083,1.75548458 C12.8891579,1.74688731 12.9096433,1.77230529 12.8390416,1.73417834 C12.77978,1.70203208 12.7933151,1.64484165 12.8101424,1.61942367 C12.826604,1.59400571 12.7768536,1.53008699 12.7768536,1.50466902 C12.7768536,1.47925106 12.8017288,1.43663858 12.8017288,1.43663858 C12.8017288,1.43663858 12.6810108,1.41122061 12.731127,1.35178742 C12.7918518,1.27927144 12.8309938,1.21572652 12.8390416,1.1817113 C12.8474553,1.14769607 12.7933151,1.15591953 12.8390416,1.06247112 C12.8639168,1.01163518 12.9056195,0.994440672 12.8891579,0.952201984 C12.8723305,0.909589504 12.8390416,0.832961805 12.8807442,0.782125866 C12.9224467,0.730916134 13.0888912,0.680080195 13.1968059,0.696900911 C13.3050862,0.714095419 13.4382418,0.646064972 13.5629837,0.782125866 C13.6877257,0.918186757 13.7126009,1.13909882 13.6877257,1.24974174 C13.6628505,1.36001088 13.6295615,1.4706538 13.5962727,1.50466902 C13.5629837,1.53868425 13.5128675,1.56410222 13.5128675,1.6067147 C13.5128675,1.64932717 13.5381085,1.69156586 13.5794453,1.71698382 C13.6211479,1.74277559 13.7126009,1.77679082 13.7627172,1.92107517 C13.8124676,2.06573331 13.8541702,2.10834579 13.8541702,2.21861493 C13.8541702,2.32925785 13.829295,2.58418513 13.8541702,2.6862308 C13.8790454,2.78827647 13.920748,3.00918853 13.9287959,3.06039826 C13.9372095,3.1112342 13.9620847,3.27271306 13.9789121,3.4001767 C13.9953737,3.52801413 13.9704984,3.62968602 13.920748,3.68089575 C13.8706317,3.73173168 13.770765,3.79976214 13.7458898,3.78294141 L13.7210146,3.76574691 C13.7210146,3.76574691 13.7041872,3.86779258 13.7210146,3.9018078 C13.7374762,3.93582303 13.770765,3.99525622 13.8040539,3.96124099 C13.8373428,3.92722577 13.9141633,3.85097187 13.9840335,3.85097187 C14.0539036,3.85097187 14.1618182,3.85097187 14.1951071,3.88498709 C14.2283959,3.91900231 14.3033874,4.01245073 14.3033874,4.05506321 C14.3033874,4.09730189 14.2865601,4.16570613 14.2199823,4.17392959 C14.1537703,4.18252685 14.0703652,4.16570613 14.04549,4.17392959 C14.0206147,4.18252685 13.9953737,4.20794481 13.9789121,4.23336279 C13.9620847,4.25878075 13.9620847,4.30139323 14.0370762,4.3268112 C14.1120677,4.35260297 14.2283959,4.36942368 14.3033874,4.34400571 C14.378379,4.31858774 14.4197157,4.30139323 14.4449567,4.31858774 L14.469832,4.33540845 C14.469832,4.33540845 14.7610184,4.31858774 14.9190492,4.31858774 C15.07708,4.31858774 15.4597195,4.36082643 15.5511725,4.37802093 C15.6426256,4.39484164 16.1086701,4.48829007 16.1752479,4.5394998 C16.2418257,4.59033574 16.5245985,4.71779938 16.5747148,4.73499388 C16.6244652,4.7518146 16.7660345,4.76900911 16.8073713,4.76900911 C16.8490739,4.76900911 17.1402603,4.86245752 17.2317133,4.9645032 C17.3231663,5.06654886 17.5978912,5.29605818 17.6476416,5.33867066 C17.6977579,5.38090933 17.7976246,5.62761316 17.8056725,5.74647954 C17.8140861,5.86571973 17.8722503,6.16325948 17.8890776,6.20549817 C17.9055392,6.24811065 17.9223666,6.40099225 17.8890776,6.53705314 C17.8557887,6.67311404 17.894199,6.66451679 17.9080998,6.71572652 C17.9223666,6.76656246 17.9637033,6.84319016 17.9889444,6.91122061 C18.0138196,6.97925106 17.9889444,7.01326628 17.9889444,7.01326628 C17.9889444,7.01326628 17.9805306,7.03868425 17.9304144,7.030087 C17.880664,7.02186353 17.7310468,6.97925106 17.7058058,6.8940261 C17.6809306,6.80917494 17.6893442,6.72432378 17.6560553,6.70712926 C17.6227664,6.69030855 17.5397271,6.5456504 17.4731493,6.48621721 C17.4065715,6.42678402 17.2317133,6.1800802 17.1735491,6.0440193 C17.1153851,5.90795841 17.0319799,5.72965883 16.9906431,5.58500068 C16.9489406,5.44071633 16.8406601,5.26204296 16.8241986,5.21120702 C16.8073713,5.15999728 16.7243319,5.12598206 16.6661678,5.10916134 C16.6076378,5.09196684 16.6244652,5.02393639 16.6076378,5.09196684 C16.5911763,5.15999728 16.6409268,5.22802773 16.6577541,5.31287889 C16.6742156,5.39810385 16.7075046,5.65303113 16.6742156,5.79768927 C16.6409268,5.94197363 16.5827626,6.19727471 16.4580207,6.43500748 C16.3332788,6.67311404 16.3998566,6.57106837 16.3914429,6.6222781 C16.3830292,6.67311404 16.3665676,6.86860813 16.3416924,6.92804132 C16.3168172,6.98784831 16.266701,7.24277559 16.3168172,7.33622401 C16.3665676,7.42967242 16.5330122,7.62516651 16.5911763,7.66777899 C16.6493404,7.71039147 16.7993234,7.79524263 16.8326123,7.83785511 C16.8659012,7.88046759 16.9240653,7.90588555 16.9240653,8.04194644 C16.9240653,8.17800734 16.8907764,8.22024602 16.8490739,8.27145577 C16.8073713,8.32229167 16.6409268,8.4837706 16.5911763,8.52638308 C16.5414259,8.56899548 16.4331455,8.69645913 16.3998566,8.73047441 C16.3665676,8.7644896 16.1752479,8.98540164 16.1419591,9.01941691 C16.1086701,9.05343211 15.9923419,9.20631376 15.959053,9.23210545 C15.9257641,9.25752344 15.8756479,9.30835942 15.8756479,9.30835942 C15.8756479,9.30835942 15.8591863,9.29153863 15.9089367,9.3595691 C15.959053,9.42759958 16.0088034,9.44442028 16.0172172,9.48703276 C16.0256308,9.52964524 16.0669676,9.63131712 15.9506393,9.75055728 C15.8339453,9.86942365 15.7092034,9.96287211 15.6678666,9.9800666 C15.626164,9.9968873 15.5595862,10.0226791 15.5595862,9.9800666 C15.5595862,9.93745412 15.5178836,9.83540845 15.5178836,9.83540845 L15.5098357,9.76737798 C15.5098357,9.76737798 15.4264306,9.89484164 15.4348443,9.92885683 C15.4432579,9.96287211 15.384728,10.1501427 15.3598528,10.1923814 C15.3349776,10.2349939 15.3265639,10.2944271 15.293275,10.3456368 C15.2599861,10.3964728 15.1934083,10.4816977 15.1601194,10.4816977 C15.1268305,10.4816977 15.0522048,10.4985184 15.0353774,10.5239364 C15.0189159,10.5497282 15.0437912,10.6091614 15.0437912,10.6345793 C15.0437912,10.6599973 15.0602526,10.7534457 15.0269638,10.7620429 C14.9940407,10.7706402 14.7774799,10.8386706 14.6443243,10.8300734 C14.5111687,10.8214761 14.4032542,10.8046554 14.378379,10.7792374 C14.3531379,10.7534457 14.469832,10.5919668 14.4947072,10.5665489 C14.5195824,10.5411309 14.652738,10.40507 14.6944406,10.3796521 C14.7357774,10.3542341 14.7858936,10.3116216 14.7858936,10.2862036 C14.7858936,10.2604118 14.8689329,10.098933 14.9106355,10.0226791 C14.9523381,9.9460514 15.0020886,9.86942365 15.0522048,9.75915456 C15.1019552,9.64851161 15.1853605,9.42759958 15.2351109,9.21491096 C15.2848613,9.00259613 15.3181502,8.68786193 15.2848613,8.63702595 C15.2515724,8.58581626 15.0437912,8.15221558 15.0189159,8.10137964 C14.9940407,8.05016991 14.8773467,7.68497349 14.8608851,7.64236102 C14.8440577,7.59974854 14.6611517,7.28538807 14.6194491,7.28538807 C14.5777465,7.28538807 14.2785122,7.41285171 14.2532712,7.41285171 C14.2283959,7.41285171 13.8457565,7.59974854 13.770765,7.61694305 C13.6961394,7.63376376 13.4214144,7.74440669 13.3299615,7.7612274 C13.2385085,7.77842191 12.8390416,7.79524263 12.6894245,7.7612274 C12.5398073,7.72721218 12.1820431,7.71861493 12.1154653,7.67637624 C12.0488875,7.63376376 11.7408737,7.60834579 11.7408737,7.60834579 C11.7408737,7.60834579 11.6911233,7.65095827 11.6995369,7.71039147 C11.7075848,7.76982466 11.7661148,8.07596167 11.7741626,8.16081283 C11.7825763,8.24566399 11.8242788,8.54320378 11.8407404,8.63702595 C11.8575678,8.73047441 11.9157319,9.01941691 11.9490208,9.19809025 C11.9823097,9.37638981 12.0320601,9.58048114 12.065349,9.66533232 C12.098638,9.75055728 12.1319268,9.88661822 12.1319268,9.95464861 C12.1319268,10.0226791 12.0902242,10.1075303 12.0404738,10.1501427 C11.9907233,10.1923814 11.9073182,10.2776064 11.8989045,10.3116216 C11.8908567,10.3456368 11.8656156,10.4645032 11.882443,10.5157129 C11.8989045,10.5665489 11.9406071,10.6345793 11.9073182,10.6685946 C11.8740293,10.7026098 11.8407404,10.8143741 11.5828429,10.830821 C11.3249453,10.8472679 11.3000701,10.830821 11.3000701,10.830821 L11.2751949,10.837923 C11.2751949,10.837923 11.3084838,10.6685946 11.3831095,10.5751461 C11.458101,10.4816977 11.549554,10.3624576 11.549554,10.3624576 C11.549554,10.3624576 11.5246788,10.2690091 11.5744292,10.1501427 C11.6245455,10.0309026 11.6161317,9.89484164 11.6161317,9.83540845 C11.6161317,9.77597527 11.5579677,9.3509719 11.5330924,9.30013592 C11.5078514,9.24892615 11.3498205,8.91737125 11.3165317,8.8067283 C11.2832427,8.69645913 11.1753282,8.29687376 11.1669145,8.21202256 C11.1585008,8.1267976 11.0838752,7.90588555 11.0838752,7.90588555 C11.0838752,7.90588555 10.817564,8.13539487 10.7758614,8.1862308 C10.7341588,8.23744053 10.6427058,8.43293462 10.6427058,8.43293462 C10.576128,8.36490415 10.4265108,8.04194644 10.3932219,7.973916 C10.3687125,7.92345385 10.2988424,7.77131983 10.2640903,7.67488107 L10.4539468,7.25922251 C10.5516186,7.42780345 10.7345246,7.70590594 10.7593998,7.71861493 C10.7926888,7.73580943 10.9755948,7.75263015 10.9755948,7.75263015 C10.9755948,7.75263015 11.091923,7.85467582 11.1519162,7.75263015 C11.2119094,7.65095827 11.0754615,7.46368765 11.0421726,7.34482126 C11.0088837,7.22558108 11.0421726,6.98784831 11.0421726,6.85178742 C11.0421726,6.71572652 11.091923,6.44360473 11.1420393,6.20549817 C11.1917898,5.96776539 11.0421726,5.78049477 10.9755948,5.49155226 C10.909017,5.20260976 10.6928221,5.06654886 10.5596664,4.89647275 C10.4265108,4.72639663 10.027044,4.74359114 9.96046618,4.65836619 C9.8938884,4.57351502 9.69452085,4.48829007 9.6111157,4.42025962 C9.56319432,4.38101128 9.4816182,4.35895746 9.39894466,4.33727742 C9.39894466,4.33727742 9.35907112,4.27672285 9.32614807,4.21766345 M10.1499569,9.08146667 C10.0910611,8.96596436 10.0211911,8.82018486 10.0105825,8.75589232 C9.99375512,8.65384665 9.92717733,8.43293462 9.91071577,8.34770966 C9.91071577,8.34770966 9.81084905,8.73907161 9.80243541,8.78990759 C9.79438749,8.84074349 9.69452085,9.20631376 9.68610713,9.24892615 C9.67769348,9.29153863 9.48637377,9.73336279 9.45308484,9.80999046 C9.41979591,9.88661822 9.37809333,9.98866388 9.37809333,10.0394998 C9.37809333,10.0907095 9.3949207,10.2095759 9.37809333,10.2349939 C9.36163185,10.2604118 9.26176513,10.4985184 9.25335141,10.5411309 C9.24530357,10.5837434 9.2284762,10.6177586 9.25335141,10.6517739 C9.2785925,10.685789 9.37004549,10.6771918 9.49478742,10.6517739 C9.61952934,10.6259821 9.73585762,10.5579516 9.76914647,10.5157129 C9.80243541,10.4731004 9.81926278,10.3710548 9.82767642,10.3370396 C9.83572426,10.3030243 9.75268491,10.1583662 9.75268491,10.1247247 C9.75268491,10.0907095 9.81926278,10.0821123 9.85255163,10.0394998 C9.88584056,9.9968873 9.93559098,9.89484164 9.95241835,9.77597527 C9.96887991,9.6571089 10.027044,9.45301757 10.0438713,9.4018078 C10.0603329,9.3509719 10.1499569,9.08146667 10.1499569,9.08146667" fill="#693F23" transform="translate(2.25 7)"/>
  <path d="M14.7748827,4.46563817 C14.8414605,4.47161887 15.190811,4.45442436 15.5734504,4.53927552 C15.9560899,4.62450048 16.2388626,4.71495854 16.2834918,4.74336686 C16.327755,4.77177518 16.3610439,4.79457659 16.4107943,4.80579041 C16.4609106,4.81700422 16.4887124,4.82298491 16.4941995,4.86260704 C16.4996867,4.90222917 16.5051739,4.88204431 16.4663978,4.92316162 C16.4276217,4.96465271 16.4440833,4.99268724 16.4440833,5.03829006 C16.4440833,5.0835191 16.4576183,5.18556477 16.4982234,5.25920212 C16.5384628,5.33283947 16.6405243,5.64458339 16.4982234,6.02996466 C16.3555567,6.41534593 16.1667977,6.69157945 16.0837583,6.81979067 C16.0003532,6.94800191 15.7011189,7.38085497 15.6788043,7.48476961 C15.6564898,7.58831045 15.6400283,7.88323366 15.6455155,7.9512641 C15.6510026,8.01929455 15.6510026,8.07573739 15.6623428,8.12134022 C15.6733172,8.16656926 15.6897787,8.2289928 15.66783,8.2574011 C15.6455155,8.28543566 15.5679632,8.24095419 15.5566231,8.30562051 C15.5456488,8.37066062 15.5566231,8.47831313 15.5679632,8.52354219 C15.5789376,8.56877124 15.6122266,8.619981 15.6345411,8.6539962 C15.6564898,8.68801139 15.6842915,8.72202667 15.7120933,8.71641974 C15.7398949,8.71043903 15.7563565,8.64240856 15.7896454,8.6539962 C15.8229343,8.66520997 15.8397617,8.76164879 15.8284215,8.79005706 C15.8237182,8.80223206 15.7911982,8.87537358 15.7506731,8.96284457 L15.6648192,9.14307415 C15.6365568,9.20030708 15.6106065,9.25009029 15.5928385,9.2786054 C15.5807667,9.29804268 15.5719872,9.3227131 15.5386984,9.40195735 C15.5054094,9.48120159 15.5054094,9.48120159 15.4596829,9.61090796 C15.4395633,9.66809843 15.4183461,9.74771647 15.4124931,9.78173166 C15.4070059,9.81574694 15.3016521,10.0594604 15.2851905,10.0878687 C15.2683632,10.1159032 15.2295871,10.2691586 15.1853238,10.2975669 C15.1406947,10.3256015 15.0075391,10.3936319 14.9742502,10.4220402 C14.9409614,10.4504486 14.929987,10.4844638 14.9244998,10.5240859 C14.9190126,10.563708 14.9354742,10.5977233 14.9244998,10.6373454 C14.9135254,10.6769675 14.8747494,10.7165896 14.8524348,10.7165896 C14.8301203,10.7165896 14.5916108,10.7337841 14.569662,10.7165896 C14.5473476,10.6997689 14.5418604,10.6773413 14.5806364,10.6373454 C14.6194125,10.5977233 14.7247664,10.4844638 14.7693955,10.4560555 C14.8136587,10.4276471 14.9190126,10.3199945 14.9632759,10.2635517 C15.0075391,10.2067351 14.9965648,10.1274909 15.0353409,10.0594604 C15.0741169,9.99142992 15.118746,9.92900638 15.1465477,9.87256355 C15.158306,9.84821357 15.19049,9.75726729 15.2247569,9.65636588 L15.2906329,9.45807215 C15.309894,9.39873812 15.324646,9.35176217 15.3294538,9.33392688 C15.3459153,9.27150333 15.4183461,8.89210272 15.4124931,8.82407233 C15.4070059,8.75604186 15.3960316,8.51793534 15.3627427,8.47270629 C15.3294538,8.42710345 15.1630093,8.07573739 15.0799699,7.83800462 C14.9965648,7.59989805 14.857922,7.32216937 14.8191459,7.27955689 C14.7803699,7.2369444 14.6307527,7.01042545 14.6139254,6.94800191 C14.5974638,6.88557837 14.5473476,6.74391056 14.525033,6.73269675 C14.5030843,6.72148294 14.3918774,6.7596099 14.308838,6.81979067 C14.2257987,6.87997145 14.1091047,6.96519641 14.0593542,7.01603235 C14.0092379,7.06724209 13.8983969,7.16928775 13.8705952,7.20292919 C13.8427934,7.2369444 13.8153575,7.25974582 13.8427934,7.27955689 C13.8705952,7.29936795 13.8541336,7.29376104 13.9207114,7.26535273 C13.9872892,7.2369444 14.0535012,7.17489466 14.0926431,7.16928775 C14.1314191,7.16330705 14.1870226,7.18610847 14.2312859,7.12929184 C14.2755492,7.07284899 14.3033508,7.05004757 14.3421269,7.02163926 C14.3809031,6.99323093 14.4419937,6.95360881 14.4862569,7.00481854 C14.530886,7.05565448 14.5641749,7.0896697 14.5363732,7.12929184 C14.5085714,7.16928775 14.3033508,7.2429251 14.2532346,7.26535273 C14.2034842,7.28815414 13.9426602,7.38907843 13.8373063,7.4320647 C13.7319524,7.47505097 13.538072,7.58494631 13.4213779,7.60101944 C13.3050496,7.61671878 12.91107,7.63952019 12.8112033,7.63952019 C12.7117024,7.63952019 12.5174562,7.63690363 12.5284305,7.56438766 C12.5397707,7.49224548 12.5730596,7.36179149 12.5730596,7.32777627 C12.5730596,7.29376104 12.4951417,7.11807802 12.4618527,7.26535273 C12.4285639,7.41262743 12.4728271,7.39019981 12.4285639,7.41262743 C12.3843006,7.43542885 12.3030904,7.43655022 12.2965057,7.3793598 C12.2899211,7.32216937 12.3067484,7.31058176 12.3345502,7.27955689 C12.361986,7.24853201 12.3455245,7.16928775 12.32321,7.16928775 C12.3012612,7.16928775 12.3012612,7.13527253 12.3400374,7.0896697 C12.3788134,7.04444067 12.3455245,6.99360473 12.3286972,6.94800191 C12.3122356,6.90277287 12.2965057,6.87436455 12.2965057,6.87436455 C12.3122356,6.78951339 12.3564989,6.73419193 12.3788134,6.77007612 C12.401128,6.8063341 12.4230767,6.88296181 12.4508784,6.9068846 C12.4786801,6.93118119 12.6004956,6.97641022 12.656099,6.942395 C12.7117024,6.90837978 12.7727931,6.84034933 12.7669401,6.67588011 C12.7614529,6.51178469 12.8057161,6.49459019 12.8444922,6.49459019 C12.8836341,6.49459019 13.0222769,6.48262879 13.0998291,6.53383852 C13.1773812,6.58542205 13.3050496,6.63438902 13.3548001,6.61831589 C13.4049163,6.60224276 13.5435591,6.67588011 13.5991626,6.67588011 C13.6544002,6.67588011 13.7154908,6.6590594 13.7542669,6.67588011 C13.7930429,6.69307462 13.8819353,6.81642653 13.9261986,6.81979067 C13.9704618,6.82352862 14.0648414,6.81904309 14.1314191,6.77007612 C14.197997,6.72148294 14.1811696,6.66466631 14.2865235,6.67588011 C14.3918774,6.68746772 14.530886,6.59850483 14.5861236,6.56075167 C14.641727,6.52299851 14.7525681,6.37011689 14.7748827,6.30208645 C14.7968314,6.234056 14.8469476,6.00155634 14.8356075,5.76344978 C14.8246331,5.525717 14.6581886,5.09734946 14.6307527,4.92316162 C14.602951,4.74897377 14.5363732,4.56207694 14.5751492,4.52245481 C14.6139254,4.48283267 14.7083049,4.46003126 14.7748827,4.46563817 Z M11.4969125,8.17072421 L11.5247885,8.17782045 C11.5580774,8.19464116 11.5829526,8.1864177 11.6125834,8.22118051 C11.64258,8.25631713 11.6744057,8.34789659 11.6945253,8.45106361 C11.7150107,8.55423063 11.7493971,8.78972066 11.7687852,8.9597968 C11.7881732,9.12987293 11.9407168,9.73354972 11.9765665,9.86624644 C12.0127819,9.99894316 11.9988809,10.0565074 11.9633972,10.0905226 C11.9279134,10.1245379 11.8990142,10.1499558 11.8660912,10.1753738 C11.8331681,10.2011656 11.782686,10.3372264 11.7687852,10.3794651 C11.7548843,10.4220776 11.8075612,10.5581385 11.8075612,10.5581385 C11.8075612,10.5581385 11.782686,10.6429896 11.7687852,10.6687814 C11.7548843,10.6941994 11.6327031,10.7282146 11.5869766,10.7244767 C11.54125,10.720365 11.4662586,10.7110201 11.4830859,10.6601842 C11.4995474,10.6089744 11.6125834,10.4306749 11.6125834,10.4306749 C11.6125834,10.4306749 11.6411167,10.3794651 11.6645287,10.3032112 C11.6879407,10.2265836 11.7325697,10.1925683 11.7687852,10.1331351 C11.8046348,10.0737019 11.757445,9.92904376 11.7687852,9.86624644 L11.7682964,9.81532079 C11.759435,9.73230869 11.7226197,9.5990587 11.7164741,9.53805559 C11.7084261,9.46142792 11.6411167,9.20650061 11.6125834,9.13136807 C11.58405,9.05586175 11.449797,8.85775113 11.436262,8.79831795 C11.4227269,8.73888476 11.4582107,8.75570547 11.4746722,8.73028748 C11.4914996,8.70486948 11.4995474,8.6454363 11.4746722,8.60506661 C11.449797,8.5650707 11.3916329,8.44994225 11.3916329,8.3733145 C11.3916329,8.29668682 11.3916329,8.22043293 11.436262,8.17782045 C11.436262,8.17782045 11.4914996,8.16099973 11.5247885,8.17782045 Z M9.80254511,9.4189649 C9.84424769,9.44438289 9.86253828,9.44438289 9.85741699,9.52101057 C9.8522956,9.59763832 9.81900667,9.6824895 9.80254511,9.75911717 C9.78571774,9.83537106 9.78754686,9.90340154 9.72426134,9.91199874 C9.66097581,9.92059603 9.61963913,10.0140445 9.61963913,10.0140445 C9.61963913,10.0140445 9.58635019,10.1415081 9.61963913,10.1755233 C9.65292798,10.2095385 9.73779636,10.2689717 9.72426134,10.3201815 C9.71109212,10.3710174 9.69426475,10.4222271 9.66938954,10.4476451 C9.64451433,10.473063 9.51977241,10.5579142 9.4447809,10.5579142 C9.36978939,10.5579142 9.35332791,10.5070783 9.37820311,10.473063 C9.40307832,10.4390479 9.4447809,10.3624202 9.46160827,10.3201815 C9.47806983,10.277569 9.47806983,10.2943897 9.4948972,10.1927178 C9.51135868,10.0906722 9.52818605,9.98002921 9.56110918,9.92919331 C9.59439803,9.87798355 9.65292798,9.77593788 9.66938954,9.71650469 C9.68621691,9.65707151 9.70450751,9.58044384 9.72426134,9.52960785 C9.74438105,9.47839809 9.80254511,9.4189649 9.80254511,9.4189649 Z M15.7740618,9.4018078 C15.8007661,9.45862441 15.8285678,9.47544512 15.8508824,9.50946039 C15.8728311,9.54347559 15.9006328,9.5494563 15.8896585,9.6002922 C15.8783183,9.65150197 15.8128379,9.70233795 15.8011319,9.72513928 C15.7897918,9.74756692 15.7477234,9.80438361 15.7104105,9.82681117 C15.6730977,9.84961258 15.6756584,9.87802093 15.6467592,9.86082644 C15.6178601,9.84400574 15.573231,9.76476149 15.5790839,9.69673102 C15.5845711,9.62870055 15.5392105,9.55506323 15.5787181,9.50385347 C15.6178601,9.45301757 15.6621233,9.41900229 15.6730977,9.39059402 C15.6844379,9.36218568 15.7104105,9.35657875 15.7104105,9.35657875 C15.7287012,9.35657875 15.7469918,9.34536497 15.7740618,9.4018078 Z M16.1640941,7.24211678 L16.1834422,7.25410154 C16.2112438,7.28250986 16.2057566,7.29372366 16.2002695,7.3449334 C16.1947824,7.39576934 16.2723345,7.53183023 16.3389123,7.60060826 C16.4054901,7.66976009 16.7383791,7.96244053 16.7771552,8.00206266 C16.8159312,8.04205859 16.7991039,8.08728762 16.7771552,8.13251665 C16.7548406,8.17774569 16.6827757,8.21176091 16.6604611,8.22746024 C16.6381466,8.24353337 16.5273055,8.41585229 16.4885294,8.45098883 C16.4497533,8.48649925 16.3443995,8.5971422 16.2445328,8.69918786 C16.1446661,8.80123353 16.0894284,8.86365707 16.0393121,8.93729439 C15.9895617,9.01093179 15.9174968,9.1017636 15.8842078,9.14699265 C15.850919,9.1922217 15.7843411,9.21502312 15.7740984,9.1922217 C15.7638557,9.16979407 15.7953155,9.09017604 15.811777,9.06176769 C15.8286044,9.03373321 15.889695,8.93729439 15.9109122,8.89206542 C15.9321292,8.84646258 15.9562728,8.77843211 16.0005361,8.72198928 C16.0131827,8.70575594 16.0453294,8.66547775 16.0854408,8.61542645 L16.2181335,8.45022489 C16.2848915,8.36723616 16.3436156,8.29436929 16.3553739,8.27979135 C16.3831755,8.24577613 16.3722011,8.17774569 16.3553739,8.14373046 C16.3389123,8.10971523 16.3111106,8.0532724 16.294649,8.02486407 C16.2778217,7.99645576 16.1892952,7.9172115 16.1336917,7.87198247 C16.0780883,7.82637964 15.96176,7.71872706 15.9229839,7.67349803 C15.8842078,7.62789521 15.9507856,7.54304404 15.9672472,7.52024263 C15.9840745,7.49781501 16.0506523,7.42417765 16.0616267,7.40137624 C16.0726011,7.37857482 16.0839413,7.3333458 16.0949156,7.30493747 C16.10589,7.27690295 16.10589,7.26531535 16.1336917,7.25410154 C16.1336917,7.25410154 16.1392703,7.24699946 16.1482784,7.24344842 L16.1640941,7.24211678 Z M10.5700189,7.44907231 C10.6552531,7.58289045 10.7426823,7.71035409 10.7591437,7.71857755 C10.7924327,7.73577205 10.9757045,7.75259277 10.9757045,7.75259277 C10.9757045,7.75259277 10.9504635,7.8038025 10.9171746,7.82922048 C10.8838857,7.85463844 10.8758378,7.91668819 10.8509626,7.87743985 C10.8257216,7.83781773 10.80926,7.786608 10.7591437,7.82062321 C10.7093933,7.85463844 10.7108565,7.93126614 10.6684224,7.94846065 C10.6259882,7.96528137 10.5926992,7.99069933 10.5762378,8.02471456 C10.5597762,8.05872978 10.567824,8.08414775 10.5846514,8.13535749 C10.601113,8.18619342 10.6259882,8.17124168 10.6095266,8.22133002 C10.5926992,8.27141838 10.5597762,8.30580736 10.5597762,8.30580736 C10.5462411,8.28143602 10.5323695,8.25537513 10.518656,8.22890755 L10.4422276,8.07548471 C10.4200213,8.02955893 10.4024038,7.99226927 10.3933317,7.97387862 C10.3860155,7.95892687 10.3746753,7.93463028 10.3611402,7.90547438 Z M13.4603369,1.77933261 C13.4881386,1.81334783 13.5046001,1.81334783 13.609954,1.91539351 C13.7153079,2.01743917 13.7321353,2.1931222 13.7266481,2.23274433 C13.7207951,2.27274024 13.7211609,2.56728965 13.7431097,2.6353201 C13.7654241,2.70335055 13.7431097,2.87342667 13.759937,2.9186557 C13.7763985,2.96388474 13.7818857,3.05471659 13.7818857,3.13209189 C13.7818857,3.20946717 13.8096875,3.21918581 13.8042003,3.25021068 C13.7987131,3.28123556 13.7544498,3.30964387 13.7321353,3.37206742 C13.7098207,3.43449097 13.7431097,3.4909338 13.7321353,3.52793938 C13.7211609,3.56457116 13.6823848,3.6269947 13.6414138,3.63596575 C13.600443,3.64493679 13.615807,3.69502515 13.5934925,3.73464727 C13.571178,3.7742694 13.5656908,3.74623488 13.4991129,3.81426533 C13.4325351,3.88192198 13.5100873,3.96714693 13.5214275,3.99555526 C13.5324019,4.02358978 13.6044668,3.98957455 13.6267814,4.05685741 C13.6487301,4.12376648 13.643243,4.30131848 13.6267814,4.37383444 C13.609954,4.44635041 13.5433762,4.49980291 13.4936258,4.55661955 C13.4435095,4.61306239 13.4767985,4.81715373 13.427048,4.98162295 C13.3772975,5.14571836 13.1995129,5.32700829 13.0831846,5.38382493 C12.9668564,5.44064156 12.9277145,5.59913008 12.9222273,5.66716053 C12.9167401,5.73519097 12.8944256,5.71238956 12.8391879,5.72958407 C12.7835845,5.74640478 12.8446751,5.83162974 12.8391879,5.86003806 C12.8337007,5.88844638 12.7949247,5.89405328 12.7726101,5.88246568 C12.7502956,5.87125187 12.7338341,5.92208781 12.737858,5.95610303 C12.7422477,5.99011825 12.7338341,6.27943455 12.737858,6.33027049 C12.7415161,6.38110643 12.695058,6.46633138 12.6837178,6.52875493 C12.6727434,6.59117847 12.6562819,6.61360609 12.6193348,6.60799918 C12.5827537,6.60239228 12.5842169,6.56277015 12.5747058,6.53436183 C12.5651947,6.50595352 12.545075,6.50595352 12.5231263,6.50595352 C12.5008117,6.50595352 12.4510613,6.49473971 12.4232596,6.44352997 C12.3954579,6.39269403 12.4232596,6.44352997 12.3844835,6.40951475 C12.3457074,6.37549953 12.3010784,6.39830094 12.2908356,6.35867881 C12.2805928,6.31905668 12.2846168,6.28504146 12.218039,6.25663314 C12.1514612,6.22822482 12.1514612,6.25663314 12.1404869,6.21140411 C12.1291467,6.16580128 12.1737757,6.13776676 12.1957245,6.08095012 C12.218039,6.02413348 12.1902373,6.01291967 12.2066988,5.95610303 C12.2235262,5.89966019 12.3233928,5.83162974 12.362169,5.78976485 C12.4009451,5.74752617 12.3899707,5.72958407 12.3676562,5.70117576 C12.3457074,5.67276743 12.3065656,5.68435503 12.2908356,5.65033981 C12.2747399,5.61632459 12.3120527,5.57670246 12.3233928,5.54268724 C12.3343672,5.50867201 12.4177724,5.49708441 12.4452083,5.46904989 C12.4730101,5.44064156 12.4342339,5.40101944 12.4064322,5.3442028 C12.3786305,5.28738617 12.4232596,5.202535 12.4342339,5.17412668 C12.4455741,5.14571836 12.5231263,5.14571836 12.5231263,5.10161071 C12.5231263,5.05712927 12.5062989,5.03806579 12.5286135,4.98162295 C12.5505622,4.92480631 12.6116528,4.95882153 12.661769,4.96442843 C12.7115195,4.97003534 12.7115195,4.93041321 12.7338341,4.89079108 C12.7565144,4.85116896 12.6727434,4.85116896 12.6193348,4.81154683 C12.5662921,4.77192469 12.5897041,4.64707761 12.5747058,4.61306239 C12.5597075,4.57904716 12.6562819,4.58465407 12.7060323,4.53942504 C12.7557828,4.49419601 12.7283469,4.4885891 12.7060323,4.46578768 C12.6837178,4.44298627 12.661769,4.44896697 12.6193348,4.41495175 C12.5772665,4.38093652 12.5117861,4.42055865 12.4342339,4.43737937 C12.3566818,4.45457387 12.3786305,4.61306239 12.3731433,4.66987903 C12.3676562,4.72669567 12.3343672,4.81715373 12.2908356,4.92331113 C12.247304,5.02909474 12.2791296,5.18534049 12.2754715,5.24215713 C12.2721792,5.29897377 12.2345005,5.46904989 12.2066988,5.53708033 C12.1792629,5.60473699 12.1624355,5.71238956 12.1236595,5.77406551 C12.0848834,5.83574147 12.0237928,5.89966019 11.976603,5.92208781 C11.9297791,5.94488923 11.9407534,6.12617915 11.931974,6.17178197 C11.9228286,6.21701101 11.9352662,6.26784695 11.8661277,6.25102624 C11.7969893,6.23383172 11.8408867,6.2057972 11.813085,6.1998165 C11.7852833,6.1942096 11.7519944,6.1942096 11.7026098,6.31905668 C11.6532252,6.44352997 11.7355328,6.45511758 11.7596764,6.45511758 C11.7838201,6.45511758 11.8185722,6.40951475 11.8408867,6.39830094 C11.8628355,6.38708713 11.8906372,6.44913688 11.8661277,6.4891328 C11.8412525,6.52875493 11.8408867,6.51716733 11.8185722,6.53996874 C11.7966235,6.56277015 11.8573483,6.56277015 11.8661277,6.60799918 C11.8745415,6.65322822 11.8573483,6.68163654 11.7680901,6.79489601 C11.678832,6.90852929 11.7355328,6.87451407 11.7552867,6.94815142 C11.7754063,7.02178877 11.7962577,6.94217072 11.8295465,6.95936523 C11.8628355,6.97618594 11.8185722,7.02739568 11.7680901,7.04720675 C11.717608,7.06701781 11.7300457,7.19186489 11.6799294,7.22027321 C11.630179,7.24830774 11.5800627,7.22588012 11.5559191,7.28232295 C11.5317755,7.33913959 11.5855499,7.41277695 11.5559191,7.44903493 C11.5262883,7.48491912 11.4582473,7.45239907 11.4362985,7.41838386 C11.4143498,7.38436863 11.486049,7.37315482 11.4362985,7.31073128 C11.3865481,7.24830774 11.3305788,7.32194509 11.2848524,7.38436863 C11.2391258,7.44679217 11.2585139,7.47520049 11.2197378,7.54323094 C11.1809617,7.61126139 11.1491361,7.60004758 11.1491361,7.60004758 C11.1195053,7.51257985 11.0620728,7.41651488 11.0423189,7.3447465 C11.00903,7.22588012 11.0423189,6.98777355 11.0423189,6.85171265 C11.0423189,6.71565176 11.0920694,6.44352997 11.1418198,6.2057972 C11.1571839,6.13215985 11.1538916,6.0637556 11.1396249,5.99572516 L11.2029105,5.81443523 C11.2029105,5.81443523 11.1879121,5.73892891 11.2361993,5.6806171 L11.2848524,5.62193149 C11.3389926,5.61071768 11.3803293,5.62193149 11.4161789,5.66155362 C11.4520285,5.70117576 11.5412866,5.66716053 11.5877448,5.66155362 C11.6342029,5.65594672 11.6023772,5.53109964 11.5877448,5.45185537 C11.5731123,5.37261112 11.5855499,5.38382493 11.5248251,5.38943183 C11.4637345,5.39503874 11.4304456,5.38382493 11.4194712,5.33373658 C11.408131,5.28364822 11.4304456,5.27056545 11.4362985,5.22533642 C11.4421515,5.17973359 11.486049,5.16291287 11.5193379,5.19132119 C11.552261,5.21935572 11.5357995,5.25337094 11.5877448,5.25897784 C11.6396901,5.26495854 11.6246918,5.202535 11.6371294,5.16851978 C11.649567,5.13450455 11.702244,5.13450455 11.7552867,5.12329074 C11.8086953,5.11170314 11.8353995,5.10161071 11.8353995,5.10161071 L11.8661277,5.19692809 C11.8661277,5.19692809 11.9019773,5.202535 11.931974,5.21374881 C11.9616048,5.22533642 11.9294132,5.26495854 11.9634338,5.31579448 C11.9970885,5.36700421 12.068056,5.29299307 12.0848834,5.28738617 C12.1013449,5.28177926 12.1459741,5.29299307 12.1902373,5.23094332 C12.2345005,5.16851978 12.1792629,5.10048933 12.1679227,5.07768791 C12.1569483,5.0552603 12.1459741,4.98162295 12.1624355,4.94760772 C12.1792629,4.9135925 12.2235262,4.82276064 12.2345005,4.7775316 C12.2458407,4.73230257 12.2345005,4.65829142 12.2345005,4.6186693 C12.2345005,4.57904716 12.1902373,4.55063885 12.1459741,4.53942504 C12.1013449,4.52821122 12.035133,4.4885891 12.0069654,4.46018078 C11.9787979,4.43177246 11.9850167,4.39215033 11.976603,4.34617371 C11.9685552,4.30019709 12.0183056,4.27889085 12.0475706,4.24188528 C12.0768355,4.20487971 12.0461073,4.2052535 12.0475706,4.17422863 C12.0490338,4.14320375 12.0073312,4.12002855 12.0069654,4.09872231 C12.0065996,4.07741607 12.0128184,4.06919261 12.0406201,4.07293054 C12.068056,4.07666848 12.073909,4.0519981 12.0848834,4.02358978 C12.0958577,3.99555526 12.073909,3.98957455 12.0848834,3.94770966 C12.0848834,3.94770966 12.1181723,3.9159372 12.1404869,3.92191791 C12.1624355,3.92752481 12.1792629,3.93873862 12.2012117,3.96976349 C12.2235262,4.00116216 12.2677894,4.03517738 12.3343672,4.07293054 C12.4009451,4.1106837 12.5341007,4.08601332 12.5747058,4.07293054 C12.6149452,4.05947397 12.5897041,4.04639119 12.6193348,4.03517738 C12.6493314,4.02358978 12.6672562,4.03517738 12.6727434,4.09872231 C12.6782306,4.16226723 12.7448084,4.12002855 12.7780973,4.10133886 C12.8113863,4.08302297 12.7890717,3.95555933 12.7780973,3.94770966 C12.7671229,3.93986 12.7170067,3.9159372 12.7448084,3.88790268 C12.7726101,3.85949436 12.8446751,3.85949436 12.8724768,3.8568778 C12.9002786,3.85426125 13.0334342,3.7802501 13.0722103,3.75744869 C13.1109863,3.73464727 13.1720769,3.79146391 13.1995129,3.81426533 C13.2273146,3.83669295 13.2715778,3.86510127 13.3048668,3.79034253 C13.3381556,3.7155838 13.3604702,3.66100992 13.3604702,3.6329754 C13.3604702,3.60494087 13.427048,3.44009787 13.427048,3.34926601 C13.427048,3.25880794 13.3882719,3.28684246 13.3271813,3.29843006 C13.2660906,3.30964387 13.210853,3.42851026 13.1274479,3.49654071 C13.0444085,3.56457116 12.950029,3.66661683 12.8611367,3.70623896 C12.7726101,3.74623488 12.7890717,3.69502515 12.7726101,3.60232431 C12.7557828,3.50924969 12.7616358,3.33244529 12.7835845,3.30964387 C12.8058991,3.28684246 12.8282135,3.1963844 12.8501623,3.13209189 C12.8724768,3.06779937 12.8724768,3.03191518 12.8834512,2.95827783 C12.8947914,2.88464047 12.8889384,2.78820171 12.8669897,2.74857958 C12.8446751,2.70895746 12.7671229,2.7657741 12.7502956,2.81100312 C12.7338341,2.85623216 12.7283469,2.92986951 12.7115195,2.95827783 C12.695058,2.98668615 12.7005452,3.07714422 12.7060323,3.13209189 C12.7115195,3.18666576 12.7115195,3.26441485 12.661769,3.29282316 C12.6116528,3.32085769 12.6006784,3.27562865 12.5747058,3.21918581 C12.5487331,3.16236917 12.5286135,3.07153731 12.5395878,3.02070138 C12.550928,2.96949164 12.5951913,2.89585429 12.6193348,2.86744597 C12.6438442,2.83941145 12.6727434,2.80539622 12.6727434,2.72017127 C12.6727434,2.6353201 12.7338341,2.61251869 12.7502956,2.58411037 C12.7671229,2.55607585 12.7616358,2.51047302 12.7616358,2.47085089 C12.7616358,2.43122876 12.7949247,2.38039282 12.8113863,2.36880522 C12.8282135,2.35759141 12.8834512,2.35198451 12.9112529,2.36880522 C12.9390546,2.38599973 12.9112529,2.42001495 12.8501623,2.45403017 C12.7894375,2.4880454 12.8501623,2.45403017 12.8391879,2.4936523 C12.8282135,2.53327444 12.8282135,2.54448824 12.8282135,2.58411037 C12.8282135,2.62410629 12.8391879,2.64653392 12.9167401,2.640927 C12.9946581,2.6353201 13.0389214,2.43683567 13.0553829,2.38599973 C13.0722103,2.33478999 13.0722103,2.22713742 13.1054991,2.16546147 C13.1138214,2.15004248 13.1259389,2.13450668 13.1396969,2.11925706 L13.224691,2.03441758 L13.2496291,2.00061846 C13.2660906,1.96099633 13.3216941,1.85334376 13.3440086,1.77933261 C13.3659574,1.70569526 13.4325351,1.74569118 13.4603369,1.77933261 Z M12.1959073,6.87425241 C12.2178561,6.87425241 12.2456578,6.90826764 12.2756544,6.94788976 C12.305651,6.98788569 12.3012612,7.07273685 12.2756544,7.08955757 C12.2500476,7.10675207 12.2401706,7.07834375 12.2233433,7.04731888 C12.2068817,7.01592021 12.1959073,7.08395066 12.1845672,7.12955348 C12.1735929,7.17478252 12.2233433,7.23122537 12.2233433,7.27944475 C12.2233433,7.32766413 12.2123689,7.40728218 12.17908,7.44877328 C12.1457911,7.49063817 12.0905535,7.51493476 12.0514116,7.53736238 C12.0126355,7.56016379 11.9186218,7.5713776 11.8659449,7.56016379 C11.8136337,7.54894998 11.7521773,7.54894998 11.7298628,7.50895405 C11.7075482,7.46933193 11.7463243,7.45811812 11.8074149,7.44877328 C11.8685055,7.43980223 11.8739927,7.4412974 11.9021603,7.44877328 C11.929962,7.45662294 11.9738594,7.4353167 12.0067825,7.44877328 C12.0400714,7.46222985 12.0682389,7.37887386 12.1026253,7.32766413 C12.1366458,7.27682819 12.1015279,7.16917562 12.0792133,7.12955348 C12.0568988,7.08993136 12.0572646,7.07273685 12.1015279,7.04731888 C12.1457911,7.02152711 12.1015279,7.02750782 12.1015279,6.98190499 C12.1015279,6.93667595 12.1015279,6.91985524 12.1403039,6.89705382 C12.1403039,6.89705382 12.1735929,6.87425241 12.1959073,6.87425241 Z M14.3698921,4.46492796 C14.3698921,4.46492796 14.4697588,4.93067487 14.4862204,5.00991913 C14.5030477,5.08916338 14.5030477,5.2536326 14.5696255,5.32726995 C14.6362033,5.4009073 14.6859537,5.48015156 14.664005,5.5369682 C14.6416905,5.59341103 14.6084015,5.74180712 14.6307161,5.78965271 C14.6526649,5.8371245 14.730217,5.89954805 14.6691264,6.09803249 C14.6084015,6.29614313 14.475246,6.44939854 14.3589177,6.49462756 C14.2422237,6.54023039 14.070292,6.58134769 14.0037141,6.56078905 C13.9371364,6.54023039 13.7319158,6.42659712 13.6433893,6.42659712 C13.5544969,6.42659712 13.4546302,6.43220402 13.3880524,6.3981888 C13.3218405,6.36417358 13.2826985,6.34174596 13.2384353,6.30773073 C13.194172,6.27371551 13.1440558,6.25091409 13.1107668,6.27371551 C13.0774779,6.29614313 13.0997925,6.35295977 13.0441891,6.35856667 C12.9889515,6.36417358 12.9556625,6.43220402 12.8835975,6.32455144 C12.8115326,6.21689887 12.8170198,6.13204771 12.8835975,6.1092463 C12.9501753,6.08681868 13.0888181,6.03000204 13.1330814,6.03000204 C13.1773446,6.03000204 13.3328147,5.99598681 13.3770781,6.03560895 C13.4213413,6.07523107 13.4714576,6.09242558 13.521208,6.06962417 C13.5713243,6.04682276 13.6931397,6.00720062 13.7264286,6.01280753 C13.7597175,6.01878823 13.8595842,6.07523107 13.9429893,6.05841036 C14.0260287,6.04121585 14.109068,5.89394114 14.142357,5.88833424 C14.1756458,5.88272733 14.2367365,5.89954805 14.2480767,5.87712043 C14.259051,5.85431902 14.2809997,5.82703208 14.259051,5.78965271 C14.2367365,5.75227334 14.2202749,5.6898498 14.2312493,5.65022767 C14.2422237,5.61060555 14.2868527,5.57359997 14.3033143,5.51566196 C14.3201417,5.45772393 14.3088015,5.1646697 14.2755125,5.10149857 C14.2422237,5.03832744 14.1646715,4.96132595 14.1646715,4.92319899 C14.1646715,4.88507204 14.0980937,4.70266074 14.0593176,4.66939309 C14.0205415,4.63575167 13.9762783,4.57893503 13.9649381,4.55650741 C13.9539637,4.53370599 13.9594509,4.46492796 13.9594509,4.46492796 L14.3698921,4.46492796 Z M16.733595,4.85448521 L16.765815,4.85685062 C16.7991039,4.86245752 16.8547074,4.89086585 17.1210186,5.04374745 C17.3869639,5.19700286 17.4535418,5.34427756 17.5314597,5.42576458 C17.6090119,5.5072516 17.7143658,5.88814734 17.7366803,6.00178062 C17.758629,6.1150401 17.7809436,6.38118119 17.7809436,6.43239092 C17.7809436,6.48322686 17.758629,6.53443659 17.7421675,6.52882968 C17.7253401,6.52322278 17.7253401,6.47761995 17.7143658,6.43799783 C17.7033914,6.3983757 17.6701025,6.31315074 17.6587623,6.26792171 C17.6477879,6.22269267 17.575723,6.12625391 17.5479212,6.08812696 C17.5201196,6.0503738 17.503658,6.05261656 17.4923178,6.07541797 C17.4813434,6.09784559 17.42574,6.09223868 17.3983041,6.04700965 C17.3705024,6.00178062 17.3983041,5.94496398 17.3983041,5.89412804 C17.3983041,5.84291831 17.3536751,5.79208237 17.3203861,5.76367405 C17.2870973,5.73526573 17.2651485,5.79208237 17.2651485,5.8317045 C17.2651485,5.87132663 17.2373468,5.8672149 17.2373468,5.8672149 C17.2373468,5.8672149 17.209545,5.81450999 17.1985707,5.77488786 C17.1875964,5.73526573 17.1762562,5.69564361 17.170769,5.68368221 C17.1652818,5.6720946 17.1429673,5.61639934 17.1374801,5.59359793 C17.1319929,5.57079652 17.0932168,5.42352181 17.0709023,5.3895066 C17.0489535,5.35549137 16.915798,5.15140003 16.8934834,5.10355444 C16.8711688,5.05608265 16.8045911,5.00973222 16.7826424,5.00412532 C16.7603278,4.99851842 16.6494867,4.98730461 16.621685,4.97571701 C16.5938833,4.9645032 16.5938833,4.93609487 16.5938833,4.90207966 C16.5938833,4.86806443 16.6161979,4.86245752 16.6494867,4.85685062 C16.6494867,4.85685062 16.7325261,4.85124371 16.765815,4.85685062 Z M14.0537207,5.51562458 C14.0924968,5.53954737 14.0592078,5.63336958 13.9816557,5.64944271 C13.9041035,5.66588963 13.8872762,5.67859862 13.8316727,5.67859862 C13.7764351,5.67859862 13.6377923,5.69541933 13.6264521,5.71822074 C13.615112,5.74102216 13.5767017,5.77503738 13.5324385,5.78961533 C13.4881752,5.80419328 13.4435461,5.75784287 13.4325718,5.73504146 C13.4215974,5.71261383 13.3828213,5.72382765 13.3338025,5.72943456 C13.2847837,5.73504146 13.2994161,5.797465 13.2496657,5.83708713 C13.1995495,5.87670926 13.1274844,5.87708305 13.0554195,5.83708713 C12.9833545,5.797465 13.0444451,5.78625119 13.0554195,5.71261383 C13.064199,5.65370395 13.1158224,5.64909882 13.1615928,5.64961316 L13.2496657,5.65019029 C13.2774674,5.65019029 13.3436794,5.64458339 13.3992828,5.60496127 C13.4326449,5.58118799 13.5038027,5.57167867 13.5577614,5.56787495 L13.6264521,5.56533913 C13.6370607,5.56533913 13.8042368,5.53132391 13.8316727,5.51562458 C13.8594745,5.49992524 14.0149446,5.49170178 14.0537207,5.51562458 Z M10.5345717,4.0730053 C10.5429854,4.09730189 10.5678606,4.10103983 10.584688,4.17579856 C10.6011495,4.25055729 10.6344384,4.27186353 10.6677274,4.30774772 C10.7010162,4.34400571 10.6973581,4.30999049 10.7408898,4.33540845 C10.7844214,4.36082643 10.7522299,4.38699198 10.8433171,4.37390921 C10.9340385,4.36082643 10.9673274,4.34811744 11.0006164,4.30774772 C11.0339052,4.26737801 11.0423189,4.18626478 11.075242,4.17579856 C11.1085309,4.16533234 11.2833891,4.17579856 11.2833891,4.17579856 C11.2833891,4.17579856 11.2749754,4.32718499 11.2833891,4.37390921 C11.2918028,4.42063341 11.2918028,4.51408182 11.2833891,4.56491776 C11.2749754,4.6161275 11.1502335,4.81162158 11.1586471,4.88787549 C11.1670609,4.9645032 11.1835224,5.05795161 11.1670609,5.10916134 C11.1502335,5.15999728 11.1337719,5.32147615 11.1169446,5.38090933 C11.100483,5.44071633 11.0920694,5.52556749 11.0920694,5.55958271 C11.0920694,5.59359793 11.0737788,5.78946581 11.0737788,5.78946581 C11.0393924,5.69975533 11.001348,5.60331657 10.9757411,5.49155226 C10.9091633,5.20260976 10.6926026,5.06654886 10.5594469,4.89647275 C10.493052,4.81143469 10.3599879,4.77321429 10.2352003,4.74560028 L10.0635944,4.70760766 C10.014707,4.69457744 9.97725697,4.67967242 9.96061251,4.65836619 C9.91634928,4.60192334 9.8131903,4.5454805 9.72429796,4.49352318 L9.72429796,4.24196004 C9.72429796,4.24196004 9.80958443,4.2265811 9.89824961,4.20984212 L10.0688929,4.17579856 C10.1519323,4.15673508 10.3984896,4.0905736 10.4456794,4.0730053 C10.4932349,4.05506321 10.5265239,4.04833492 10.5345717,4.0730053 Z M13.8651812,5.202535 C13.9039572,5.23655022 14.0093111,5.19692809 14.0535743,5.202535 C14.0982034,5.2081419 14.1812428,5.24215713 14.1812428,5.29897377 C14.1812428,5.35541661 14.1589282,5.38382493 14.1314924,5.40662634 C14.1036906,5.42905396 14.0480871,5.43503466 14.0202855,5.40662634 C13.9928495,5.37821802 14.0202855,5.40662634 14.0147983,5.35541661 C14.0093111,5.30458067 13.9873624,5.31018758 13.9595607,5.3206538 C13.9317589,5.33149382 13.7931162,5.25897784 13.6822751,5.24215713 C13.571434,5.22533642 13.5710682,5.29897377 13.4382784,5.36102352 C13.3051228,5.42344706 13.3603605,5.40662634 13.3384117,5.36102352 C13.3160972,5.31579448 13.3826749,5.24215713 13.3826749,5.24215713 C13.3826749,5.24215713 13.45474,5.22533642 13.5103434,5.2081419 C13.565581,5.19132119 13.5103434,5.15730597 13.5769212,5.10385347 C13.6431332,5.05040098 13.826405,5.16851978 13.8651812,5.202535 Z M11.5746487,4.34381881 C11.5830624,4.37783404 11.5995239,4.42904376 11.5746487,4.52249218 C11.5497734,4.6159406 11.4963649,4.65855308 11.4978281,4.71798627 C11.4996572,4.77741946 11.4795375,4.81143469 11.4978281,4.88806239 C11.5164846,4.9643163 11.4978281,5.00692878 11.4978281,5.00692878 C11.4978281,5.00692878 11.4330794,4.95609284 11.4082042,5.00692878 C11.3833289,5.05813851 11.4082042,5.10897445 11.3584537,5.10037719 C11.3083374,5.09215373 11.2710246,5.05813851 11.289681,4.99010806 C11.3083374,4.92207762 11.3332127,4.94749558 11.3665016,4.85404716 C11.3997905,4.76059875 11.3416264,4.80395882 11.3749153,4.70976281 L11.4082042,4.6159406 C11.4082042,4.6159406 11.4499067,4.5393129 11.4499067,4.49707422 C11.4499067,4.45446174 11.3913768,4.37783404 11.4499067,4.34381881 C11.5080709,4.30980359 11.566235,4.30980359 11.5746487,4.34381881 Z M9.14532715,2.18471184 C9.14532715,2.18471184 9.21190494,2.21012981 9.2283665,2.24414503 C9.24519379,2.27816026 9.29494428,2.3461907 9.31177165,2.37160867 C9.32823313,2.39740044 9.46980243,2.53308753 9.46980243,2.53308753 C9.46980243,2.53308753 9.61941956,2.67774569 9.6775837,2.71176091 C9.73611365,2.74577613 9.87731713,2.8478218 9.90255815,2.89043428 C9.92743336,2.93267297 9.9855975,3.02612138 10.0104727,3.05191315 C10.035348,3.07733111 10.1019258,3.15395881 10.1352146,3.18797404 C10.1685036,3.22198927 10.2186198,3.33225839 10.2599566,3.37487087 C10.3016591,3.41748335 10.4099396,3.51093176 10.4348148,3.52775248 C10.45969,3.54494699 10.551143,3.65521613 10.5679703,3.6978286 L10.6177208,3.82529224 C10.6177208,3.82529224 10.4516421,3.91874066 10.2851976,3.96995039 C10.1187531,4.02078633 9.78586414,4.08059332 9.7028248,4.08881678 C9.61941956,4.09741403 9.48626399,4.10601128 9.44492722,4.08881678 C9.40322464,4.07199606 9.3450605,3.9867711 9.32823313,3.92733791 C9.31177165,3.86790472 9.27006908,3.82529224 9.29494428,3.79127702 L9.37834944,3.68923134 C9.40322464,3.65521613 9.45297506,3.74903833 9.45297506,3.74903833 C9.45297506,3.74903833 9.45297506,3.81706878 9.47821615,3.85930746 C9.50309136,3.90191994 9.56966915,3.89332268 9.56966915,3.89332268 C9.56966915,3.89332268 9.55284178,3.84248675 9.54479394,3.80847152 C9.53638029,3.7744563 9.55284178,3.67241063 9.55284178,3.67241063 L9.51150501,3.64699266 C9.51150501,3.64699266 9.54479394,3.59578293 9.51150501,3.5617677 C9.47821615,3.52775248 9.51150501,3.50233451 9.46138878,3.46831928 C9.41163829,3.43430407 9.394811,3.44290132 9.37834944,3.47691655 C9.36152207,3.51093176 9.32823313,3.5617677 9.30335793,3.61297744 C9.27848272,3.66381338 9.178616,3.73184382 9.14532715,3.74903833 C9.11203822,3.76585904 8.87060221,3.7744563 8.82926544,3.75726179 C8.78756286,3.74044108 8.67123466,3.73184382 8.64599365,3.68100788 C8.62111836,3.62979815 8.5629543,3.57036496 8.54649274,3.53634974 C8.52966537,3.50233451 8.49637643,3.46831928 8.47991495,3.50233451 C8.46308758,3.53634974 8.49637643,3.58718567 8.52125172,3.62979815 C8.54649274,3.67241063 8.57136794,3.72324657 8.57136794,3.74903833 C8.57136794,3.7744563 8.49564482,3.79127702 8.47515938,3.79127702 C8.45467386,3.79127702 8.421385,3.7744563 8.38809607,3.79987427 C8.35480714,3.82529224 8.35480714,3.83388949 8.30505672,3.80847152 C8.25530631,3.78305356 8.23847894,3.7744563 8.19677636,3.7744563 C8.15543959,3.7744563 8.13861222,3.76585904 8.11373702,3.79127702 C8.08886181,3.81706878 8.05557288,3.83388949 8.03069766,3.82529224 C8.00545662,3.81706878 7.93887882,3.76585904 7.95570617,3.73184382 C7.97216772,3.6978286 7.98899508,3.68100788 8.0138703,3.67241063 C8.03874552,3.66381338 8.04715921,3.6212009 8.02228398,3.59578293 C7.99740876,3.57036496 7.9835079,3.53634974 7.95314549,3.53634974 C7.92241727,3.53634974 7.93887882,3.46831928 8.00545662,3.42570681 C8.07203442,3.38346812 8.13019858,3.34085564 8.23847894,3.26422795 C8.3467593,3.18797404 8.44662602,3.09415183 8.47150123,3.07733111 C8.49637643,3.06013661 8.52966537,3.00930067 8.57136794,2.9838827 C8.61270471,2.95846473 8.60465688,2.89865774 8.64599365,2.81380658 C8.68769622,2.72895541 8.79597658,2.64373046 8.82926544,2.6183125 C8.86255437,2.59289452 8.94559372,2.50766957 8.97888265,2.49084886 C9.0121715,2.47365434 9.07033564,2.4228184 9.09557666,2.43141566 C9.12045186,2.43963912 9.12045186,2.49907232 9.16178863,2.50766957 C9.20349121,2.51626682 9.25360751,2.49084886 9.23678014,2.44823638 C9.22031858,2.4056239 9.2283665,2.38020593 9.19507757,2.33759345 C9.16178863,2.29535476 9.12045186,2.30357822 9.10362457,2.26133954 C9.08716301,2.21872706 9.0622878,2.12527865 9.14532715,2.18471184 Z M12.549206,3.63528461 L12.574596,3.63611526 C12.6013004,3.64770287 12.6034952,3.6753636 12.6144696,3.70638847 C12.6254439,3.73741335 12.6144696,3.81404105 12.6144696,3.83684246 C12.6144696,3.85927009 12.5950816,3.91047982 12.574596,3.93589778 C12.5541106,3.96131575 12.5394781,3.93888813 12.4897276,3.93290744 C12.4396114,3.92730053 12.4509515,3.94150469 12.409249,3.93290744 C12.3675464,3.92468398 12.3675464,3.93029088 12.3401105,3.89066875 C12.3123088,3.85104662 12.2954814,3.86525078 12.2735327,3.84244937 C12.2512182,3.81964795 12.2234164,3.80843414 12.1846404,3.79983689 C12.1458643,3.79123964 12.0902609,3.79983689 12.0653856,3.79983689 C12.0405104,3.79983689 12.0072215,3.79983689 11.963324,3.77441892 C11.9194266,3.74900095 11.9351565,3.76021476 11.93223,3.7404037 C11.9296694,3.72059264 11.9435702,3.70078157 11.963324,3.69218431 C11.963324,3.69218431 12.0489241,3.67798016 12.0708728,3.67648498 C12.0931873,3.67498981 12.2014677,3.69517466 12.2234164,3.70078157 C12.245731,3.70638847 12.2621925,3.70078157 12.2757276,3.67648498 C12.2888968,3.65218839 12.337184,3.66676635 12.3675464,3.67648498 C12.3982747,3.68620362 12.481314,3.70339812 12.5036285,3.67648498 L12.5258482,3.65139927 L12.549206,3.63528461 Z M12.4091392,3.25028545 C12.4314538,3.25028545 12.4676692,3.25850891 12.4980316,3.27570341 C12.528394,3.29252412 12.5452214,3.33214626 12.553635,3.35793801 C12.5616829,3.38335599 12.5839974,3.43718228 12.5700966,3.46820715 C12.5561957,3.49960582 12.5368076,3.50820307 12.509006,3.50521272 C12.48157,3.50222238 12.4259666,3.50820307 12.4065785,3.51081963 C12.3871905,3.51380998 12.3260999,3.53623759 12.3096383,3.54221829 C12.292811,3.5478252 12.2178195,3.55903901 12.168069,3.56464592 C12.1179528,3.57025282 12.0850297,3.57585973 12.0543015,3.56464592 C12.0239391,3.55343211 12.0378399,3.51941688 12.0308895,3.49100857 C12.0239391,3.46260024 12.0045511,3.46260024 12.0071117,3.44577953 C12.0100383,3.42858503 12.0543015,3.40316705 12.0543015,3.40316705 C12.0543015,3.40316705 12.0766161,3.37475874 12.0985648,3.37214218 C12.1208793,3.36915183 12.168069,3.36055457 12.1874571,3.36055457 C12.2068452,3.36055457 12.2818366,3.34934076 12.2906161,3.34074351 C12.2997614,3.33214626 12.3260999,3.30112138 12.3454879,3.28131032 C12.3648759,3.26149925 12.3871905,3.25028545 12.4091392,3.25028545 Z M13.4826514,0.872733451 C13.537889,0.940763897 13.5656908,0.963191514 13.5492292,0.991599837 C13.5324019,1.02000815 13.5155745,1.00318744 13.4936258,1.02561506 C13.4713113,1.04841647 13.4713113,1.07121788 13.4936258,1.0824317 C13.5159403,1.09364551 13.5656908,1.03122197 13.5766652,1.0824317 C13.5880053,1.13326763 13.6267814,1.21288569 13.5766652,1.30895066 C13.5269147,1.40538943 13.4936258,1.41099633 13.4658241,1.3713742 C13.4380223,1.33175208 13.427048,1.31493135 13.3882719,1.36016039 C13.3494958,1.40538943 13.3326684,1.42333152 13.2993796,1.39454941 C13.2660906,1.3657673 13.2273146,1.32053826 13.2660906,1.29212994 C13.3048668,1.26372162 13.3440086,1.23531331 13.3714445,1.25811472 C13.3992463,1.28091614 13.3992463,1.30334375 13.4102207,1.25811472 C13.4215608,1.21288569 13.3882719,1.17326356 13.3659574,1.17887046 C13.3440086,1.18447737 13.3227916,1.17887046 13.3249864,1.15606905 C13.3271813,1.13326763 13.3827847,1.09364551 13.354983,1.07121788 C13.3271813,1.04841647 13.2993796,1.02561506 13.2774308,1.05402338 C13.2551163,1.0824317 13.2715778,1.07009651 13.2606035,1.11607313 C13.2496291,1.16167596 13.2386548,1.17326356 13.2053659,1.17326356 C13.1720769,1.17326356 13.1567129,1.16653528 13.1585419,1.11607313 C13.1607367,1.06523719 13.1435436,1.01440125 13.1022069,1.01440125 C13.0608701,1.01440125 12.9895367,1.02000815 12.9946581,0.980386028 C13.0001452,0.940763897 12.9350307,0.895534869 12.9946581,0.867126546 L13.0492382,0.840582755 C13.0518391,0.846602941 13.0812184,0.849231177 13.2163402,0.838718232 C13.4325351,0.821897513 13.427048,0.804703004 13.4826514,0.872733451 Z M13.4225471,1.4847832 L13.3677938,1.51281773 L13.3677938,1.62495582 L13.3949442,1.65149517 L13.4225471,1.62495582 L13.4501499,1.56813918 L13.4225471,1.4847832 Z" fill="#DDCBA4" transform="translate(2.25 7)"/>
 </g>
</svg>
