<svg width="20" height="20" xmlns="http://www.w3.org/2000/svg">
 <path style="color:#000;fill:#ffcd00;fill-rule:evenodd;stroke-linejoin:round;-inkscape-stroke:none" d="M 10,0 C 4.48308,0 0,4.4830803 0,10 0,15.51692 4.48308,20 10,20 15.51692,20 20,15.51692 20,10 20,4.4830803 15.51692,0 10,0 Z"/>
 <path style="color:#000;fill:#006747;fill-rule:evenodd;stroke-linejoin:round;-inkscape-stroke:none" d="m 10,1 c 4.97648,0 9,4.0235199 9,9 0,4.97648 -4.02352,9 -9,9 C 5.02352,19 1,14.97648 1,10 1,5.0235199 5.02352,1 10,1 Z"/>
 <path style="fill:#ffcd00;fill-opacity:1;fill-rule:evenodd;stroke:none;stroke-linecap:round;stroke-linejoin:round;paint-order:stroke fill markers" d="m 9.8378906,1.7304688 c -0.080611,0.00676 -0.1589715,0.04726 -0.2109375,0.109375 l -0.029297,0.033203 h -0.00195 c -0.010808,0.00784 -0.069832,0.065899 -0.1074219,0.09375 -0.033028,0.024472 -0.062295,0.051194 -0.091797,0.078125 C 5.9901284,2.3026228 3.1232362,4.694839 2.2597656,8 H 17.744141 C 16.867966,4.6424284 13.927172,2.2325233 10.462891,2.0332031 L 10.015625,1.7714844 c -0.04389,-0.02579 -0.093646,-0.039416 -0.1445312,-0.041016 -0.0057,-1.839e-4 -0.011828,-1.584e-4 -0.017578,0 -0.00539,1.556e-4 -0.010251,-4.511e-4 -0.015625,0 z m 0.023437,0.3046874 1.7675779,1.0371094 1.710938,1.0117188 c -0.06114,0.1159889 -0.127952,0.2336332 -0.175782,0.296875 -0.03494,0.046196 -0.07767,0.08855 -0.123046,0.1210937 C 12.864894,4.6282672 12.561673,4.6749299 12.283203,4.8867188 12.174858,4.9691208 12.098951,5.0683099 12.035156,5.15625 11.874334,5.377937 11.748738,5.6171882 11.638672,5.8554688 11.497928,6.1601634 11.368112,6.4796463 11.287109,6.8183594 11.238704,7.0207406 11.21089,7.3051 11.195312,7.5 H 7.5 C 7.4781631,7.3762158 7.324518,7.3152519 7.1875,7.1875 7.1731751,7.1741439 7.1766958,7.1498422 7.171875,7.1308594 c -0.046809,-0.1843167 -0.039647,-0.234285 0.033203,-0.234375 0.11592,-1.53e-4 0.1794875,-0.086584 0.1796875,-0.2460938 5.1e-5,-0.05259 0.014318,-0.093101 0.054687,-0.1601562 0.06403,-0.10632 0.066522,-0.1559038 0.013672,-0.2460938 C 7.417895,6.1840256 7.4141155,6.1702319 7.4296875,6.1230469 7.4392835,6.0938619 7.4514581,6.038565 7.4550781,6 c 0.0085,-0.09036 0.055151,-0.1798662 0.1152344,-0.2226562 0.04374,-0.03115 0.057834,-0.033278 0.1835937,-0.023438 0.1606501,0.01257 0.1320682,0.045932 0.2363282,-0.2890624 C 8.0564544,5.252054 8.0608313,5.2318814 8.0507812,5.1289062 8.0384513,5.0025562 7.9887687,4.8811331 7.8554688,4.6582031 7.8075588,4.5780881 7.7625665,4.4970406 7.7578125,4.4785156 7.7432535,4.4217056 7.77966,4.3456769 7.875,4.2324219 7.97276,4.1162819 8.0878786,4.0366144 8.2460938,3.9746094 8.3694587,3.9262634 8.4889131,3.8584231 8.6113281,3.7675781 8.8300531,3.6052681 8.9510706,3.4197331 9.3691406,2.5957031 9.4774256,2.3822781 9.5271019,2.3187106 9.6699219,2.2128906 9.7331719,2.1660266 9.8011856,2.1072362 9.8222656,2.0820312 Z m 3.8261719,2.2539063 0.06445,0.033203 -0.01172,0.3007813 c -0.01167,0.327015 -0.04944,0.5470717 -0.121093,0.7011719 -0.0406,0.08731 -0.232782,0.3664162 -0.347657,0.5039062 -0.04227,0.050585 -0.09502,0.1270869 -0.117187,0.1699219 -0.03597,0.06951 -0.04169,0.095549 -0.04297,0.2460937 -0.0017,0.199635 -0.01782,0.2439669 -0.18164,0.4511719 -0.0559,0.070695 -0.109981,0.142301 -0.119141,0.1601563 -0.03019,0.05884 -0.09552,0.1171874 -0.130859,0.1171874 -0.05924,0 -0.109591,-0.032677 -0.119141,-0.076172 -0.01238,-0.05635 0.0086,-0.1050538 0.07422,-0.1679688 0.03184,-0.030505 0.06286,-0.080324 0.07226,-0.1152344 0.01408,-0.05229 0.01189,-0.069897 -0.01758,-0.1328124 -0.06545,-0.1397251 -0.0924,-0.1268363 -0.316406,0.1523437 -0.224185,0.2794 -0.234375,0.3001794 -0.234375,0.4433594 L 12,7.5 h -0.402344 c 0.01733,-0.1918492 0.04451,-0.4473527 0.07813,-0.5878906 0.07188,-0.3005521 0.191286,-0.5966572 0.326172,-0.8886719 0.10387,-0.2248658 0.21867,-0.4415483 0.357422,-0.6328125 0.05663,-0.078056 0.111131,-0.1438047 0.166016,-0.1855469 0.169659,-0.1290333 0.468612,-0.1770964 0.75,-0.3789062 0.0803,-0.057593 0.148677,-0.1259683 0.207031,-0.203125 0.07097,-0.093838 0.14293,-0.2172598 0.205078,-0.3339844 z M 2.2597656,12 c 0.7421252,2.841642 2.9816428,5.04817 5.8339844,5.748047 -0.02592,0.03109 -0.049857,0.06945 -0.072266,0.123047 -0.04672,0.11173 -0.028205,0.226564 -0.015625,0.287109 0.0027,0.0131 0.00205,0.01684 0.00195,0.01758 -0.0106,0.04595 -0.017764,0.08295 -0.021484,0.128907 -0.141185,0.117429 -0.1987081,0.260824 -0.2207031,0.427734 -0.0045,0.0341 -0.016731,0.116324 -0.025391,0.167969 -0.01901,0.113345 -0.098477,0.29979 -0.044922,0.435547 0.053564,0.13576 0.1568819,0.219963 0.2480469,0.283203 0.039,0.02706 0.1149841,0.07465 0.2207031,0.07813 0.10572,0.0035 0.1729389,-0.03301 0.2148437,-0.05469 0.1525351,-0.07888 0.3028619,-0.279385 0.4042969,-0.474609 0.08043,-0.154795 0.1106031,-0.188653 0.3300781,-0.382813 v -0.002 l 0.1230469,-0.107422 c 0.06092,-0.05373 0.097468,-0.13176 0.1015625,-0.21289 l 0.00977,-0.191407 c 0.01048,-0.20525 -0.024792,-0.105542 0.1132813,-0.289062 l 0.015625,-0.02148 C 9.6505698,17.979693 9.8251373,17.992696 10,18 c 3.645852,-0.0026 6.828772,-2.469918 7.740234,-6 z m 4.4863282,0.5 h 4.2500002 l -0.277344,0.6875 c -0.116364,0.288396 -0.467346,0.519443 -0.7265625,0.894531 -0.1370595,0.198327 -0.1486687,0.406512 -0.1914063,0.541016 -0.048261,0.151886 -0.096532,0.284113 -0.1679687,0.392578 -0.1502198,0.228084 -0.2583494,0.477137 -0.3339844,0.732422 -0.1002186,0.33826 -0.074829,0.653412 -0.1523437,0.888672 -0.052878,0.160485 -0.1176952,0.198579 -0.2558594,0.384765 -0.1328084,0.178972 -0.1792652,0.401595 -0.1953125,0.570313 -0.016301,0.171377 -0.096097,0.350794 -0.1660156,0.568359 -0.034051,0.105177 0.023688,0.21803 0.1289062,0.251953 0.1057494,0.03389 0.2188616,-0.02486 0.2519531,-0.130859 0.059829,-0.186168 0.1589944,-0.393721 0.1835938,-0.652344 0.00856,-0.08998 0.083811,-0.324162 0.1171875,-0.36914 0.114551,-0.154366 0.2356156,-0.258774 0.3144531,-0.498047 0.1118349,-0.339422 0.085017,-0.659963 0.15625,-0.900391 0.065941,-0.222565 0.1594277,-0.434102 0.2851563,-0.625 0.1076421,-0.163437 0.1649301,-0.335102 0.2148441,-0.492187 0.06115,-0.192453 0.08449,-0.354326 0.140625,-0.435547 0.193583,-0.280117 0.58659,-0.522144 0.767578,-0.970703 L 11.427734,12.5 h 0.972657 l 0.08594,0.34375 c 0.02771,0.109355 0.01614,0.142205 -0.123047,0.359375 -0.10975,0.17125 -0.12968,0.211473 -0.18164,0.376953 -0.02763,0.08798 -0.07245,0.118596 -0.210938,0.144531 -0.11984,0.02245 -0.158774,0.05175 -0.177734,0.132813 -0.03624,0.15494 -0.08933,0.183909 -0.339844,0.183594 -0.11444,-1.53e-4 -0.194485,-0.0073 -0.21875,-0.01953 -0.16567,-0.03452 -0.164623,0.08984 -0.0078,0.207032 0.0253,0.04762 0.05663,0.0996 0.07031,0.115234 0.05646,0.06456 0.0619,0.09261 0.03516,0.185547 -0.01398,0.04857 -0.04004,0.113634 -0.05664,0.146484 -0.02418,0.04788 -0.02517,0.06814 -0.01172,0.09766 0.03726,0.08177 0.0046,0.182871 -0.05469,0.171874 -0.01755,-0.0032 -0.04386,-0.03697 -0.06445,-0.08008 -0.01914,-0.04006 -0.04351,-0.07226 -0.05469,-0.07226 -0.05584,0 -0.10017,0.128702 -0.125,0.367187 -0.01854,0.17818 -0.03148,0.211312 -0.103516,0.248047 -0.03552,0.01811 -0.09419,0.05598 -0.130859,0.08399 -0.07595,0.05796 -0.278745,0.141941 -0.375,0.154296 -0.04778,0.0061 -0.08018,-8.2e-5 -0.125,-0.02344 -0.03341,-0.01741 -0.07174,-0.0332 -0.08399,-0.0332 -0.04285,0 -0.1555871,0.07839 -0.1796871,0.125 -0.03662,0.07082 -0.01734,0.114716 0.078125,0.175781 0.08334,0.05332 0.116354,0.09693 0.136719,0.181641 0.01648,0.06856 -0.01415,0.122077 -0.115235,0.195312 -0.1064845,0.07714 -0.1505204,0.143665 -0.1972654,0.302734 -0.0328,0.1116 0.063695,0.216863 -0.1280703,0.407063 -0.118155,0.117195 -0.2139556,0.22833 -0.2441406,0.28125 -0.0597,0.10467 -0.1957884,0.153769 -0.1961485,0.311687 v 0.115235 l -0.083984,0.113281 c -0.1036411,0.186094 -0.1133843,0.236909 -0.1738281,0.457031 l -0.00977,0.191407 -0.1230469,0.107422 c -0.2285249,0.202149 -0.3057326,0.294231 -0.3984374,0.472656 -0.09573,0.184245 -0.2083074,0.31007 -0.2734376,0.34375 -0.05588,0.0289 -0.07479,0.02816 -0.1210937,-0.0039 -0.146616,-0.101702 -0.1079669,-0.226386 -0.076172,-0.416016 0.0093,-0.05573 0.021784,-0.137518 0.027344,-0.179688 0.01298,-0.09855 0.066399,-0.198538 0.1308594,-0.246093 0.06381,-0.04707 0.088674,-0.09171 0.089844,-0.160157 5.01e-4,-0.02951 0.00903,-0.08396 0.017578,-0.121093 0.01082,-0.04691 0.0098,-0.09196 -0.00195,-0.148438 -0.020211,-0.09736 -0.011323,-0.115462 0.091797,-0.216797 0.07632,-0.07499 0.07601,-0.07603 0.15625,-0.404297 0.0075,-0.03066 0.020672,-0.108672 0.066992,-0.172102 0.088823,-0.121617 0.095925,-0.147099 0.060547,-0.208984 -0.012053,-0.02108 -0.021195,-0.05821 -0.021484,-0.08203 -4.08e-4,-0.03078 0.00665,-0.06879 -0.051367,-0.130633 C 8.5625119,16.832989 8.47848,16.733451 8.421875,16.660156 8.31917,16.527166 8.2580444,16.477899 8.1777344,16.458984 c -0.05987,-0.0141 -0.095864,0.0086 -0.2246094,0.146485 -0.06223,0.06664 -0.1410264,0.136497 -0.1757812,0.154297 -0.06447,0.03302 -0.2121601,0.04528 -0.25,0.02148 -0.01045,-0.0066 -0.057076,-0.09175 -0.1035157,-0.189453 -0.11338,-0.23853 -0.1898675,-0.325039 -0.3515625,-0.402344 -0.06881,-0.0329 -0.1936087,-0.08096 -0.2773437,-0.107422 -0.09584,-0.03028 -0.1697469,-0.06422 -0.2011719,-0.0918 -0.02745,-0.0241 -0.062815,-0.0478 -0.078125,-0.05273 -0.01532,-0.0049 -0.089291,-0.08158 -0.1640625,-0.169922 -0.074778,-0.08834 -0.1684444,-0.182969 -0.2089844,-0.208984 -0.04054,-0.02602 -0.092394,-0.07162 -0.1152343,-0.101563 -0.02284,-0.02995 -0.063374,-0.06317 -0.089844,-0.07422 -0.06015,-0.02515 -0.088404,-0.05534 -0.1367188,-0.152343 -0.05465,-0.10969 -0.064286,-0.162968 -0.066406,-0.361328 -0.001,-0.09699 -0.00552,-0.203622 -0.011719,-0.238282 -0.009,-0.05048 -0.0045,-0.07695 0.023438,-0.130859 0.06835,-0.1318 0.032128,-0.293681 -0.1074219,-0.478516 -0.03735,-0.04947 -0.0625,-0.09839 -0.0625,-0.123046 0,-0.05271 0.047377,-0.146448 0.1230469,-0.242188 0.06228,-0.07879 0.091657,-0.154129 0.091797,-0.240234 1.53e-4,-0.09317 0.050696,-0.159166 0.1660156,-0.212891 0.08686,-0.04046 0.1229519,-0.07037 0.2167969,-0.179687 C 6.2945181,12.882846 6.6301187,12.54935 6.7460938,12.5 Z"/>
</svg>
