<svg width="34" height="20" viewBox="0 0 8.996 5.292" xmlns="http://www.w3.org/2000/svg">
 <path style="fill:#ddcba4;fill-opacity:1;stroke:#000;stroke-width:.529167;stroke-linecap:round;stroke-linejoin:round;stroke-miterlimit:4;stroke-dasharray:none;paint-order:stroke fill markers" d="M 3.0647768,5.0274 2.6971008,4.690954 C 2.1782733,4.2161951 2.1806238,4.226082 2.4544338,3.79894 L 2.6086558,3.558355 2.3610788,3.427303 c -0.21704,-0.114889 -0.251957,-0.122842 -0.283105,-0.06448 -0.01954,0.03662 -0.105792,0.151706 -0.19167,0.255754 -0.115907,0.140431 -0.152766,0.219037 -0.14305,0.305061 0.0072,0.06374 0.01514,0.138662 0.01766,0.166503 0.0025,0.02784 0.113897,0.143381 0.24752,0.256758 0.24145,0.204866 0.402968,0.411052 0.453256,0.578603 z m 1.619645,-1.237931 c -0.0052,0.434685 0.05774,0.572707 0.306152,0.672191 0.165259,0.06618 0.186553,0.0913 0.241291,0.284583 0.03302,0.116598 0.06004,0.26224 0.06004,0.281157 h 0.466422 L 5.6398568,4.795907 C 5.4673253,4.4587766 5.4572398,4.335188 5.6700768,3.629916 5.7563756,3.2568166 5.9585857,3.1851581 5.9273648,3.317297 c -0.061742,0.2613144 -0.0939,0.407062 -0.02642,0.407062 0.02642,0 0.196325,0.04743 0.377584,0.10541 0.303151,0.09696 0.331698,0.11562 0.356251,0.232839 0.03002,0.143341 -0.03029,0.250052 -0.141313,0.250052 -0.08704,0 -0.221688,0.307726 -0.143179,0.327225 0.02671,0.0066 0.164508,-0.03127 0.306208,-0.08423 0.286125,-0.106943 0.304338,-0.139497 0.313727,-0.560799 0.0042,-0.187199 -0.01032,-0.227574 -0.120638,-0.336172 -0.195039,-0.191992 -0.355496,-0.441158 -0.355496,-0.552028 0,-0.142683 0.08949,-0.07989 0.239392,0.167983 0.125197,0.207015 0.320903,0.346951 0.351334,0.251216 0.0088,-0.02774 0.07818,-0.09072 0.154132,-0.139941 0.116928,-0.07578 0.157336,-0.08246 0.263619,-0.04361 0.275699,0.100783 0.335942,0.07192 0.584588,-0.280044 0.392907,-0.556171 0.619949,-0.968914 0.64107,-1.165402 C 8.7499238,1.694586 8.6515538,1.33208 8.5266708,1.154525 8.4835108,1.093155 8.3556568,0.98915096 8.2425468,0.92340596 8.0400068,0.80567696 8.0701,0.7938 7.4675508,0.7938 H 6.8982048 L 6.5057998,0.62122996 c -0.5883803,-0.25875515 -0.769376,-0.359646 -1.193862,-0.356564 -0.387168,0.0028 -1.216095,0.0380568 -1.410374,0.17154379 l -0.312763,0.157106 -0.841531,0.238887 C 1.6092439,1.1552563 1.1733438,1.472421 0.88861785,1.665396 c -0.536311,0.36349 -0.707675,0.667679 -0.587501,1.042873 0.09741,0.304114 0.126673,0.339153 0.199211,0.238496 0.03966,-0.05504 0.06085,-0.181732 0.06169,-0.368833 0.0015,-0.334227 0.06758,-0.525786 0.226838,-0.657479 l 0.115056,-0.09515 0.02644,0.434768 c 0.01454,0.239122 0.03979,0.52803 0.05612,0.642018 0.0237,0.165476 0.01075,0.264525 -0.06428,0.491412 l -0.09397,0.284163 0.104645,0.349017 C 1.0568968,4.440346 1.0929248,4.676826 1.0590098,4.854647 L 1.0341498,5.0274 h 0.501068 L 1.4072928,4.737637 c -0.07036,-0.15284 -0.129372,-0.334963 -0.131141,-0.404718 -0.0041,-0.160848 0.09408,-0.360342 0.286261,-0.581839 0.08294,-0.09558 0.245744,-0.311742 0.3618,-0.480355 0.203482,-0.295633 0.311545,-0.364816 0.293461,-0.187876 -0.01246,0.121901 0.634254,0.431343 0.901981,0.431583 0.103749,8.4e-5 0.35093,0.02653 0.549291,0.05874 0.357212,0.100447 0.951367,-0.04833 1.015473,0.216299 z m 2.691273,-1.787987 c -0.10336,-0.108385 -0.106538,-0.389963 -0.0067,-0.588957 0.09659,-0.19243 0.43607,-0.43975104 0.512413,-0.373313 0.02991,0.02603 0.04211,0.06812 0.02713,0.09354 -0.01498,0.02542 -0.03888,0.215363 -0.0531,0.422092 -0.02214,0.321892 -0.03895,0.386988 -0.117013,0.453276 -0.118889,0.100953 -0.262697,0.09832 -0.362789,-0.0066 z m 0.272496,-0.134469 c 0.05647,-0.05922 0.06612,-0.579896 0.01074,-0.579896 -0.05447,0 -0.187006,0.212065 -0.218903,0.35025 -0.05261,0.227913 0.07528,0.368995 0.208161,0.229646 z"/>
</svg>
