<svg width="20" height="20" viewBox="0 0 18.751 18.751" xmlns="http://www.w3.org/2000/svg">
 <circle style="fill:#000;fill-rule:evenodd;stroke-width:1.00006;stroke-linecap:round;stroke-linejoin:round;paint-order:stroke fill markers" cx="9.375" cy="9.375" r="9.375"/>
 <path d="m 9.3755,9.3755 4.046484,7.403906 c 0.07417,-0.04045 0.148403,-0.08204 0.221485,-0.124804 4.5e-4,-2.25e-4 0.0013,2.25e-4 0.0018,0 0.06495,-0.03803 0.12931,-0.07793 0.193359,-0.117774 0.01051,-0.0066 0.02116,-0.01273 0.03164,-0.01934 0.01766,-0.0111 0.03514,-0.02216 0.05273,-0.0334 0.05638,-0.03615 0.113298,-0.0733 0.16875,-0.110742 6.75e-4,-4.5e-4 0.0011,-0.0013 0.0018,-0.0018 0.05611,-0.03791 0.111854,-0.07681 0.166992,-0.116016 0.05514,-0.03921 0.109333,-0.07904 0.163477,-0.119531 0.162431,-0.121475 0.319765,-0.24708 0.472851,-0.379688 0.05103,-0.0442 0.101226,-0.08996 0.151172,-0.135351 0.03035,-0.02758 0.06147,-0.0546 0.09141,-0.08262 0.01936,-0.01813 0.03879,-0.03615 0.05801,-0.05449 0.02038,-0.01943 0.03959,-0.04014 0.05977,-0.05977 0.0282,-0.02742 0.05657,-0.05481 0.08438,-0.08262 0.03454,-0.03454 0.06977,-0.06858 0.103711,-0.10371 0.01288,-0.01335 0.02587,-0.02698 0.03867,-0.04043 0.0031,-0.0033 0.0056,-0.0072 0.0088,-0.01055 0.04334,-0.04561 0.08599,-0.0923 0.12832,-0.138867 0.0454,-0.04995 0.09115,-0.100143 0.135352,-0.151172 0.04474,-0.05165 0.08834,-0.103708 0.131836,-0.156445 0.04213,-0.05123 0.08369,-0.103991 0.124804,-0.156446 0.03448,-0.04387 0.06833,-0.08727 0.101953,-0.131836 0.007,-0.0094 0.01409,-0.01874 0.02109,-0.02813 0.03142,-0.04202 0.06251,-0.08395 0.09316,-0.126562 z m 0,0 -6.8537109,4.921875 c 0.030652,0.04262 0.061742,0.08455 0.093164,0.126563 0.037257,0.04989 0.074173,0.09863 0.1125,0.147656 0.00334,0.0043 0.0072,0.008 0.010547,0.0123 0.041751,0.05313 0.083575,0.106114 0.1265625,0.158204 0.042988,0.05209 0.085875,0.103658 0.1300781,0.154687 0.020473,0.02366 0.040792,0.04689 0.061523,0.07031 0.024149,0.02727 0.049333,0.05391 0.073828,0.08086 0.030243,0.0333 0.060639,0.06739 0.091406,0.100195 0.015296,0.0163 0.03028,0.03304 0.045703,0.04922 0.00742,0.0078 0.015405,0.0151 0.022851,0.02285 0.039294,0.0409 0.079427,0.08118 0.1195313,0.121289 0.040385,0.04038 0.080091,0.07997 0.121289,0.119531 0.02388,0.02294 0.047923,0.04589 0.07207,0.06855 0.017513,0.01642 0.03508,0.03294 0.052734,0.04922 0.015531,0.01433 0.031823,0.02797 0.047461,0.04219 0.026766,0.02431 0.053779,0.04986 0.080859,0.07383 0.023266,0.0206 0.046818,0.04117 0.070312,0.06152 0.051029,0.0442 0.1025984,0.08709 0.1546875,0.130079 0.052089,0.04299 0.1050756,0.08481 0.1582032,0.126562 0.049219,0.03863 0.097556,0.07671 0.1476562,0.114258 0.00405,0.003 0.00825,0.0058 0.012305,0.0088 0.041843,0.03125 0.084119,0.06268 0.1265625,0.09316 0.00582,0.0042 0.011748,0.0081 0.017578,0.0123 0.061517,0.04401 0.1235942,0.0877 0.1863282,0.130078 0.00281,0.0019 0.00597,0.0034 0.00879,0.0053 0.071309,0.04785 0.1421831,0.09353 0.2144531,0.138868 0.07227,0.04533 0.1448174,0.09065 0.2179688,0.133593 0.073151,0.04294 0.1475314,0.08415 0.2214844,0.124805 z m 4.037695,7.40918 c -0.154821,0.08441 -0.310744,0.163278 -0.469336,0.237304 0.07935,-0.03694 0.158998,-0.07479 0.237305,-0.114257 0.01172,-0.0059 0.02346,-0.01162 0.03516,-0.01758 0.06645,-0.03388 0.131225,-0.06977 0.196875,-0.105468 z m -6.8748044,0.53789 c 0.079426,0.0284 0.1590953,0.05674 0.2390625,0.08262 0.00757,0.0025 0.015273,0.0046 0.022852,0.007 0.080522,0.02581 0.1615702,0.04879 0.2425781,0.07207 C 6.8737143,17.43567 6.7048479,17.382023 6.5383906,17.32257 Z m 0.5044922,0.161719 c 0.084565,0.0243 0.1698525,0.04874 0.2548828,0.07031 0.08503,0.02157 0.1694531,0.0409 0.2548828,0.05976 -0.1711271,-0.03787 -0.3405971,-0.08146 -0.5097656,-0.130078 z M 9.2436641,10.430188 9.066125,11.836438 H 9.6866328 L 9.5090937,10.430188 Z M 8.9325313,12.891125 8.7110469,14.648938 H 10.041711 L 9.8202266,12.891125 Z m -0.3990235,3.164062 -0.2126953,1.691016 c 0.7008896,0.08836 1.410255,0.08842 2.1111325,0 L 10.21925,16.055187 Z" style="fill:#fff;fill-opacity:1;stroke:none;stroke-width:.0566719;stroke-dasharray:none"/>
 <path d="m 2.521639,14.297167 a 8.4378897,8.4378897 0 1 1 13.707523,1.09e-4 L 9.3754308,9.3754512 Z" style="fill:#006747;fill-opacity:1;stroke:none;stroke-dasharray:none"/>
</svg>
