<svg width="22" height="21" xmlns="http://www.w3.org/2000/svg">
 <g fill="none" fill-rule="evenodd">
  <path stroke="#FFF" d="M10.9888705,1.53541164 C12.4932905,2.17213039 15.6549806,3.87611026 18.0538816,8.07193788 C19.311349,10.2705988 20.4865793,13.351667 20.4635207,15.9366539 L20.4952729,16.5917888 C20.5014614,16.8224065 20.5007132,17.0099295 20.4978836,17.1483271 L19.6146601,17.587847 C17.9917962,18.3189203 14.7868092,19.5 11.0005286,19.5 C6.74015838,19.5 3.21513315,18.0067865 1.85323088,17.3403669 L1.52154499,16.1815027 C1.53204122,15.9896301 1.54713988,15.7788513 1.56842789,15.5510978 L1.69152238,14.7185312 C2.07673476,12.2857243 2.64277057,10.3462577 3.94316334,8.07092597 C6.60805142,3.40953244 10.1920991,1.83760152 10.9888705,1.53541164 Z" stroke-linejoin="square" fill="#FFCD00"/>
  <path stroke="#000" d="M10.8553487,0.522191046 C12.7064083,1.1499044 16.2583722,2.91672937 18.9219393,7.57547464 C20.2554561,9.90710666 21.4793665,13.1747632 21.4636972,15.9160756 L21.4946142,16.5539789 C21.5112777,17.1582891 21.4840083,17.5025726 21.4840083,17.5025726 L20.0431555,18.491591 C18.348598,19.2568847 14.9806692,20.5 11.0005286,20.5 C6.52368045,20.5 2.82089975,18.9284912 1.4020398,18.2328833 L0.513021913,17.7692982 L0.521689379,16.1518789 C0.533269482,15.9341385 0.55043236,15.6929746 0.575318901,15.430959 L0.703827367,14.5621389 C1.10885219,12.0042067 1.70795868,9.9665959 3.07501927,7.5746137 C6.32347976,1.8924416 10.8553487,0.522191046 10.8553487,0.522191046 Z"/>
  <path d="M11.4296021,11.9411533 C11.7414878,12.0900444 12.0948968,12.304485 12.3883278,12.453376 C12.6273171,12.5835387 13.3433624,12.8035978 13.6524799,12.8878758 C14.4072803,13.0929522 14.5641459,13.0545589 15.5736221,13.1313455 C15.8753577,13.154756 16.164175,13.0929522 16.2924357,13.0929522 C16.2389168,13.2128142 16.1973936,13.3504682 16.1623295,13.4974864 C16.309045,13.6014293 16.4336147,13.754066 16.5305023,13.9422868 C16.697518,14.2690981 16.7805645,14.7054707 16.7381185,15.174618 C16.6947498,15.6456382 16.5360387,16.0586003 16.3136587,16.3488911 C16.2536806,16.4275505 16.1881662,16.4968457 16.1198835,16.5558403 C16.1715569,16.5577132 16.220462,16.559586 16.266599,16.5614588 C17.1551965,16.6110892 17.3720401,16.6597831 17.3720401,16.6597831 C17.3720401,16.6597831 17.6359434,16.439724 18.0207255,16.415377 C18.4045848,16.3910301 18.6934021,16.3423361 18.6934021,16.3423361 C18.6934021,16.3423361 19.1981402,16.0258255 19.5340171,16.0258255 C19.6403639,16.0258255 19.7993343,16.00874 19.9670927,15.9853587 L19.9961182,16.6213397 L19.99956,16.8062548 L19.9985684,16.852 L19.9214741,16.8917186 L19.4034866,17.134725 C16.9490892,18.2416636 14.0530847,19 11.0005286,19 L10.5006061,18.9933526 C7.34638255,18.9096078 4.42506164,18.043293 2.0675463,16.8885851 L2.00156842,16.854 L2.00189291,16.7161491 L2.02097234,16.2025166 C2.03118811,16.016069 2.04679978,15.8040495 2.06744762,15.5849543 L2.10756842,15.3101533 L2.76323922,15.1961557 L3.38793339,15.4649088 L3.91666273,15.4892558 L4.65393104,15.9462297 L6.63689675,15.2710695 C6.63043757,15.1970922 6.62766936,15.1268605 6.62766936,15.0585017 C6.62766936,14.6979793 6.70887037,14.3692952 6.84912667,14.1230163 C6.92294578,13.9928536 7.01429692,13.8851651 7.1185664,13.8083785 C7.07612042,13.5265155 7.02260157,13.2203056 6.96446902,12.9140956 C6.92755947,12.7652045 6.88603622,12.3344505 6.81313986,12.2230163 C7.16193513,12.2595367 7.92780834,12.1715131 8.27660361,12.1715131 C9.1845786,12.1715131 10.4395034,12.016067 11.4296021,11.9411533 Z M14.4884813,15.2991621 L12.9714987,15.3956136 C12.9465847,15.7907836 12.8312424,16.1447511 12.6605357,16.4088221 C12.6005577,16.5005914 12.5350432,16.5811237 12.4630696,16.6494825 C12.9355119,16.6682109 13.2630841,16.6841301 13.2630841,16.6841301 L13.2730345,16.6833322 C13.3714663,16.6754792 14.1840352,16.6115574 14.987683,16.5764416 C14.8778771,16.4781173 14.782835,16.3498275 14.7062476,16.2 C14.5789097,15.9518482 14.5004769,15.6400197 14.4884813,15.2991621 Z M12.7980238,15.4068507 L12.468606,15.4274519 C12.4603014,15.8685067 12.3403453,16.2674224 12.1521066,16.5567767 C12.1345746,16.583933 12.1161198,16.6101528 12.097665,16.6354362 L12.1899389,16.6391819 C12.3117404,16.5689502 12.4233918,16.4565796 12.5156657,16.313307 C12.6688404,16.0773287 12.7721871,15.7617546 12.7980238,15.4068507 Z M11.564322,15.8497782 C11.5449445,15.8703795 11.5237215,15.8862987 11.5015758,15.8975357 L11.4960393,16.6157713 C11.6261455,16.619517 11.7544062,16.6241991 11.8780532,16.6279448 C11.9011217,16.6035978 11.9232674,16.577378 11.9454131,16.5492854 L11.564322,15.8497782 Z M11.338251,15.8965993 C11.3262554,15.8994086 11.313337,15.900345 11.3013414,15.900345 C11.2930368,15.900345 11.2856549,15.8994086 11.2773502,15.8975357 L10.9479325,16.6007886 C11.0974162,16.6035978 11.2478226,16.6082799 11.3973063,16.6129621 L11.338251,15.8965993 Z M11.0964934,15.7242977 L10.5622276,15.9836865 C10.6074418,16.157861 10.6729563,16.3142435 10.7550801,16.446279 C10.7882987,16.5005914 10.8242855,16.5502218 10.8630405,16.5961065 L11.1518577,15.8151306 C11.1315575,15.7898472 11.1131027,15.7589453 11.0964934,15.7242977 Z M8.69183608,15.3497289 C8.68814512,15.6765402 8.61709423,15.9752587 8.49713819,16.2112371 C8.4260873,16.3507639 8.33842711,16.4678167 8.23784858,16.5586496 C8.79518282,16.5736323 9.42541343,16.5858058 9.94676086,16.5858058 C10.1608363,16.5858058 10.3970574,16.5886151 10.6443514,16.5942336 L10.6083646,16.5389847 C10.4348897,16.2580582 10.3260065,15.8788073 10.3177019,15.4611631 Z M15.4444387,15.5819616 L14.9553871,16.277723 C15.047661,16.4078857 15.1583897,16.5071464 15.2820367,16.5652045 C15.3540103,16.5623953 15.4250612,16.5605224 15.4942666,16.5586496 L15.4656617,15.5950715 C15.4582798,15.5913258 15.4518206,15.5866437 15.4444387,15.5819616 Z M15.6751234,15.6624938 C15.6677415,15.6643667 15.6594368,15.6653031 15.6511322,15.6653031 L15.6142226,16.5558403 C15.6825053,16.5549039 15.7489425,16.5539675 15.8135342,16.553031 C15.9454859,16.4893544 16.0691329,16.3816658 16.1770933,16.2412026 C16.1844752,16.2309019 16.1927799,16.2215377 16.2001618,16.2112371 L15.789543,15.6952686 C15.7784701,15.696205 15.7673973,15.696205 15.7563244,15.6943322 C15.7277195,15.6905865 15.7000373,15.6802859 15.6751234,15.6624938 Z M7.63714562,15.5725973 L7.61315441,15.654066 L7.34648289,16.4322326 C7.52457148,16.5726959 7.61038619,16.5408576 7.82815255,16.5474125 L7.68051434,15.7168063 L7.6509867,15.5782159 L7.63714562,15.5725973 Z M7.84753007,15.5557417 C7.83830268,15.5622967 7.82815255,15.5688517 7.81800242,15.5735338 L7.83461172,15.6990143 L7.94534038,16.541794 C8.08006025,16.4846723 8.19817081,16.373238 8.29229017,16.2224741 L7.84753007,15.5557417 Z M6.68118821,15.5669788 L5.2306428,16.0604731 C5.2924663,16.0651552 5.35890349,16.0698374 5.42995438,16.0745195 C6.18290925,16.122277 6.82328998,16.5127649 6.82328998,16.5127649 C6.82328998,16.5127649 6.96170081,16.5183834 7.18869455,16.5268112 C7.13240749,16.4762445 7.07888864,16.4181863 7.02906074,16.3535732 C6.87034966,16.1494332 6.7476254,15.8769345 6.68118821,15.5669788 Z M11.6787416,15.6381469 C11.670437,15.6662395 11.6612096,15.6924593 11.6501367,15.7177427 L11.6658233,15.7102514 L12.0220004,16.4387876 C12.0985878,16.3161163 12.1622567,16.1709709 12.2093164,16.0108428 L11.6787416,15.6381469 Z M7.50796218,15.4602267 L6.93494138,15.8216856 C7.00876049,16.020207 7.11948914,16.2168556 7.27174105,16.3648103 L7.4655162,15.6053721 L7.50796218,15.4611631 Z M15.3023369,15.3974864 L14.7071704,15.6765402 C14.7413117,15.8394776 14.7929851,15.9893051 14.8594223,16.1185313 C14.8668042,16.133514 14.8741861,16.1475604 14.8824908,16.1616067 L15.3207917,15.4330705 C15.3143325,15.4218334 15.3078734,15.4096599 15.3023369,15.3974864 Z M7.96194968,15.3984229 C7.95549051,15.4162149 7.9481086,15.4330705 7.93980395,15.4489897 L8.34119533,16.1353869 C8.40394157,16.0117792 8.45007851,15.8741252 8.48052889,15.7242977 L7.96194968,15.3984229 Z M16.0977378,15.3328733 C16.0691329,15.4321341 16.0266869,15.5173484 15.9759363,15.5810251 L16.2702899,16.1063578 C16.390246,15.9087728 16.4834426,15.6662395 16.5332705,15.3956136 Z M12.2951311,15.438689 L11.709192,15.4761459 L12.2397668,15.8900444 C12.2720627,15.7486447 12.2914402,15.5969443 12.2951311,15.438689 Z M10.4911768,15.4724002 C10.4948677,15.6166092 10.511477,15.7551996 10.5391592,15.8862987 L11.0531247,15.5847708 C11.0475883,15.5613603 11.0438973,15.5360769 11.0411291,15.5098571 L10.4911768,15.4724002 Z M16.5683346,14.7382454 L16.1272654,14.9480039 C16.1355701,15.0088714 16.1374155,15.0744209 16.1318791,15.1427797 L16.552648,15.276688 C16.5581844,15.2382947 16.5627981,15.198965 16.5664891,15.1596353 C16.5794074,15.0116806 16.5794074,14.8712173 16.5683346,14.7382454 Z M6.82052177,14.7691474 C6.80760343,14.8618531 6.80114425,14.9583046 6.80114425,15.0585017 C6.80114425,15.1109414 6.80298973,15.1624446 6.80575795,15.2139478 L7.33910098,15.0322819 Z M9.62287954,14.5650074 L8.65769474,14.8936915 C8.66230844,14.9245934 8.66692213,14.9564317 8.67061308,14.9892065 L10.3324657,15.0116806 C10.3444613,14.8627896 10.3610706,14.7279448 10.3850618,14.6052735 L9.62287954,14.5650074 Z M6.94693699,14.3131099 C6.89710909,14.4226713 6.8592768,14.5481518 6.83436285,14.6829966 L7.43506582,14.9086742 L7.40922913,14.8758995 L6.94509151,14.3224741 Z M12.9290527,14.737309 C12.9373573,14.7766387 12.9438165,14.8169049 12.949353,14.857171 L14.5124725,14.8365697 C14.5152407,14.821587 14.5170862,14.8056678 14.5198544,14.7897486 Z M16.3976279,14.0658945 L15.9759363,14.6333662 C16.0220732,14.666141 16.0599055,14.7204534 16.0875876,14.7888122 L16.5544935,14.6080828 C16.5258886,14.4076885 16.4723697,14.2241498 16.3976279,14.0658945 Z M7.14717131,14.0125185 C7.09180698,14.0677674 7.04197908,14.1342533 6.99861036,14.2110399 L6.97923284,14.246624 L7.52457148,14.7691474 C7.54487174,14.7588467 7.56148103,14.7476097 7.57993581,14.7401183 C7.5725539,14.7326269 7.56701747,14.7241991 7.56609473,14.7138985 L7.55779008,14.455446 L7.19330825,14.4357812 C7.18315812,14.3074914 7.16747156,14.1651552 7.14717131,14.0125185 Z" fill="#000" fill-rule="nonzero"/>
  <path d="M6.68331281,14.8047314 L5.2327674,14.3103006 C5.2945909,14.306555 5.3610281,14.3018728 5.43207899,14.2971907 C6.18503386,14.2494332 6.82541459,13.8589453 6.82541459,13.8589453 C6.82541459,13.8589453 6.96382541,13.8533268 7.19081916,13.844899 C7.13453209,13.8954657 7.08101324,13.9535239 7.03118535,14.018137 C6.87247427,14.222277 6.74975001,14.4947758 6.68331281,14.8047314 M8.49834006,15.385313 L8.39222509,15.3871858 L8.49372636,15.420897 C8.4946491,15.4096599 8.49649458,15.3974864 8.49834006,15.385313 M8.69396068,15.0219813 L10.3198265,14.9105471 C10.3281311,14.4929029 10.4370143,14.113652 10.6104892,13.8327255 C10.6224848,13.813997 10.6335577,13.7952686 10.646476,13.7774766 C10.399182,13.7821587 10.1629609,13.784968 9.94888547,13.784968 C9.42753804,13.784968 8.79730743,13.7980779 8.23997319,13.8130606 C8.34055172,13.9038935 8.42821191,14.0209463 8.49926279,14.1604731 C8.61921884,14.3964515 8.69026973,14.69517 8.69396068,15.0219813 M8.83606246,15.8488418 L8.57215916,15.8628881 C8.58230929,15.8319862 8.59153668,15.8001479 8.59984132,15.7683095 L8.83606246,15.8488418 Z M10.3871864,15.7664367 L9.62500414,15.8067028 L8.65981935,15.4780187 C8.66443304,15.4471168 8.66904674,15.4152785 8.67273769,15.3825037 L10.3345903,15.3600296 C10.3465859,15.5089207 10.3631952,15.6437654 10.3871864,15.7664367 M6.82264637,15.6025628 L7.34122559,15.3394283 L6.80788255,15.1577624 C6.80511434,15.2092656 6.80326886,15.2607689 6.80326886,15.3132085 C6.80326886,15.4134056 6.80972803,15.5098571 6.82264637,15.6025628 M7.43995864,15.4686545 L7.43719042,15.4620996 L6.83648746,15.6887137 C6.8614014,15.8235584 6.8992337,15.9490389 6.94906159,16.0586003 L6.94721611,16.0492361 L7.41135374,15.4958107 L7.43995864,15.4686545 Z M7.58206042,15.6315919 C7.56360564,15.6241005 7.54699634,15.6128635 7.53038704,15.5988172 L7.52669609,15.6025628 L6.98135745,16.1250862 C6.98781662,16.1372597 6.99427579,16.1484968 7.00073497,16.1606703 C7.04410369,16.2374569 7.09393159,16.3039428 7.14929591,16.3591917 C7.16959617,16.206555 7.18528273,16.0642188 7.19543285,15.935929 L7.55991468,15.9162642 L7.56821933,15.6634303 L7.56821933,15.6578117 C7.56914207,15.6475111 7.57467851,15.6390833 7.58206042,15.6315919 M7.78506295,15.6156727 C7.76199448,15.6297191 7.73800328,15.6400197 7.71401207,15.6456382 C7.72047124,15.654066 7.72416219,15.6643667 7.72323945,15.6746673 L7.72231672,15.6765402 L7.72231672,15.6774766 L7.69002086,15.9097092 L7.86441849,15.900345 L7.78506295,15.6156727 Z M8.03051148,15.5744702 L8.40883439,15.8038935 C8.40145248,15.8273041 8.39407057,15.8507146 8.38576592,15.8722523 L8.00098384,15.8928536 L7.92347378,15.5379497 L8.03051148,15.5744702 Z M8.09971689,15.0622474 L8.50203101,14.7635288 C8.51402662,14.8506161 8.52048579,14.9405126 8.52140853,15.0332183 L8.09971689,15.0622474 Z M6.90753835,14.6324298 L7.43995864,15.0453918 L7.43626768,15.054756 L7.41504469,15.0538196 L6.84848306,14.8609167 C6.86416962,14.7813208 6.88446987,14.7054707 6.90753835,14.6324298 M7.4676408,14.7663381 L7.27386565,14.0069 C7.12161375,14.1548546 7.01088509,14.3515032 6.93706599,14.5500246 L7.51008679,14.9114835 L7.51008679,14.9105471 L7.4676408,14.7663381 Z M7.6531113,14.7934943 L7.68263895,14.6549039 L7.83027716,13.8242977 C7.6125108,13.8308526 7.52669609,13.7990143 7.3486075,13.9394776 L7.61527901,14.7176442 L7.63927022,14.7991129 C7.64388392,14.79724 7.64849761,14.7953672 7.6531113,14.7934943 M8.29441478,14.1492361 L7.84965467,14.8159685 C7.84042728,14.8094135 7.83027716,14.8028586 7.82012703,14.7981764 L7.83673633,14.6726959 L7.94746499,13.8299162 C8.08218485,13.8870379 8.20029542,13.9984722 8.29441478,14.1492361 M7.94192855,14.9227206 L8.34331994,14.2363233 L8.34516541,14.240069 C8.40606617,14.359931 8.45220312,14.497585 8.4826535,14.6474125 L7.96407428,14.9732873 C7.95761511,14.9554953 7.9502332,14.9386397 7.94192855,14.9227206 M16.0048203,16.0436175 C16.048189,16.2515032 16.0823303,16.4724988 16.1238536,16.6841301 C16.2050546,16.6138985 16.277951,16.524002 16.3397745,16.4181863 L16.0048203,16.0436175 Z M12.9736233,14.9760966 L14.4906059,15.0725481 C14.5026015,14.7316905 14.5810343,14.419862 14.7083723,14.1717102 C14.7849596,14.0218827 14.8800017,13.8935929 14.9898076,13.7952686 C14.1325832,13.7578117 13.2652088,13.6875801 13.2652088,13.6875801 C13.2652088,13.6875801 12.9376365,13.7034993 12.4651942,13.7222277 C12.5371678,13.7905865 12.6026823,13.8711188 12.6626603,13.9628881 C12.833367,14.2269591 12.9487093,14.5809266 12.9736233,14.9760966 M12.4707306,14.9442583 L12.8001484,14.9648595 C12.7743117,14.6099556 12.670965,14.2943815 12.5177903,14.0584032 C12.4255164,13.9151306 12.313865,13.80276 12.1920635,13.7325283 L12.0997896,13.7353376 C12.1182444,13.7615574 12.1366992,13.7877772 12.1542312,13.8149335 C12.3424699,14.1042878 12.462426,14.5032035 12.4707306,14.9442583 M12.7770799,15.5126663 L12.4190573,15.5079842 C12.4089071,15.5594874 12.3969115,15.6100542 12.3839932,15.660621 L12.7540115,15.6409561 C12.7632388,15.5988172 12.7706208,15.5557417 12.7770799,15.5126663 M14.5145971,15.5351405 L12.9514776,15.5145392 C12.9459411,15.5548053 12.939482,15.5950715 12.9311773,15.6344012 L14.521979,15.5819616 C14.5192108,15.5660424 14.5173653,15.5501232 14.5145971,15.5351405 M16.0897123,15.582898 C16.0620301,15.6512568 16.0241978,15.7055692 15.9780609,15.738344 L16.3997525,16.3058157 C16.4744943,16.1475604 16.5280132,15.9640217 16.5556954,15.7636274 L16.0897123,15.582898 Z M16.1340037,15.2289305 C16.1395402,15.2972893 16.1376947,15.3628388 16.12939,15.4237063 L16.5704592,15.6334648 C16.581532,15.5004929 16.581532,15.3600296 16.5686137,15.216757 L16.567691,15.2120749 L16.5686137,15.2120749 C16.5649227,15.1727452 16.560309,15.1334155 16.5547726,15.0950222 L16.1340037,15.2289305 Z M15.9780609,14.7906851 C16.0288115,14.8534253 16.0712575,14.9395761 16.0998624,15.0388369 L16.5353951,14.9760966 C16.4855672,14.7054707 16.3923706,14.4629374 16.2724145,14.2653524 L15.9780609,14.7906851 Z M15.2703202,15.5566782 L15.267552,15.5445047 L14.6899175,15.5370133 C14.691763,15.5501232 14.6936084,15.5632331 14.6954539,15.5754066 L15.2703202,15.5566782 Z M14.6862265,14.8234598 L15.1319094,15.1128142 L14.6631581,15.0828487 C14.6659263,14.9938886 14.6733082,14.9077378 14.6862265,14.8234598 M14.8846154,14.2101035 L15.3229163,14.9386397 C15.3164571,14.9498768 15.309998,14.9620503 15.3044615,14.9742238 L14.709295,14.69517 C14.7434363,14.5322326 14.7951097,14.3824051 14.8615469,14.2531789 C14.8689288,14.2381962 14.8763107,14.2241498 14.8846154,14.2101035 M15.6163472,13.8158699 L15.6532568,14.7064071 C15.6615614,14.7064071 15.6698661,14.7073435 15.677248,14.7092164 C15.702162,14.6914243 15.7298441,14.6811237 15.758449,14.677378 C15.7695219,14.6755052 15.7805948,14.6755052 15.7916676,14.6764416 L16.2022864,14.1604731 C16.1939817,14.1501725 16.1865998,14.1408083 16.1792179,14.1305076 C16.0712575,13.9900444 15.9476105,13.8823558 15.8156588,13.8186792 C15.7510671,13.8177427 15.6846299,13.8168063 15.6163472,13.8158699 M15.4677863,14.7766387 L15.4963912,13.8130606 C15.4271858,13.8111878 15.3561349,13.8093149 15.2841613,13.8065057 C15.1605143,13.8645638 15.0497856,13.9638245 14.9575117,14.0939872 L15.4465633,14.7897486 C15.4530225,14.7850665 15.4604044,14.7803844 15.4677863,14.7766387 M11.759299,15.4995564 L11.822968,15.6896501 L12.2012909,15.6699852 C12.2169775,15.6166092 12.2308185,15.5613603 12.2437369,15.505175 L11.759299,15.4995564 Z M11.4972412,15.4958107 L11.490782,15.7074421 L11.7094711,15.696205 L11.61812,15.4976836 L11.4972412,15.4958107 Z M10.5523566,15.7121242 L10.9814302,15.3506654 L10.5080652,15.3572203 C10.5172926,15.4873829 10.5320564,15.6053721 10.5523566,15.7121242 M11.1299911,15.4368162 L10.7202951,15.7486447 L11.0478674,15.7308526 L11.1299911,15.4368162 Z M11.345912,15.4705274 C11.3403756,15.4705274 11.3339164,15.4714638 11.3274573,15.4714638 C11.3062343,15.4724002 11.285934,15.4686545 11.2665565,15.4611631 L11.162287,15.7252341 L11.3652895,15.713997 L11.345912,15.4705274 Z M11.7113166,14.8955643 L12.2418914,14.4816658 C12.2741873,14.6230655 12.2935648,14.7747659 12.2972557,14.9330212 L11.7113166,14.8955643 Z M11.6679479,14.6614588 L12.0241251,13.9319862 C12.1007124,14.0555939 12.1643814,14.2007393 12.2105183,14.3608674 L11.6808662,14.7335633 C11.6725616,14.7054707 11.6624114,14.6792509 11.6522613,14.6539675 L11.6679479,14.6614588 Z M11.5037004,14.4741745 L11.4981639,13.7559389 C11.6282701,13.7521932 11.7565308,13.7475111 11.8801778,13.7437654 C11.9032463,13.7681124 11.925392,13.7943322 11.9475377,13.8224248 L11.5664466,14.521932 C11.5470691,14.5013307 11.5258461,14.4854115 11.5037004,14.4741745 M10.5412838,14.4854115 L11.0552493,14.7869394 C11.0497129,14.8103499 11.0460219,14.8356333 11.0432537,14.8618531 L10.4933014,14.89931 C10.4969923,14.755101 10.5136016,14.6165106 10.5412838,14.4854115 M10.8651651,13.7756037 L11.1539824,14.5565796 C11.1336821,14.581863 11.1152273,14.6127649 11.098618,14.6474125 L10.5643523,14.3880237 C10.6095665,14.2138492 10.6750809,14.0574667 10.7572047,13.9254312 C10.7904233,13.8711188 10.8264101,13.8214884 10.8651651,13.7756037 M11.2794748,14.4741745 L10.9500571,13.7709216 C11.0995408,13.7681124 11.2499472,13.7634303 11.3994309,13.7587482 L11.3403756,14.4751109 C11.32838,14.4723016 11.3154616,14.4713652 11.303466,14.4713652 C11.2951614,14.4713652 11.2877795,14.4723016 11.2794748,14.4741745" fill="#FFCD00" transform="matrix(1 0 0 -1 0 30.372)"/>
  <path d="M16.3885852,9.78225804 C17.1535357,9.09024227 17.1802951,8.00961142 16.7982813,6.65179969 C16.7198485,6.37274597 16.4863956,5.33612694 16.3304527,5.06643744 C15.6697717,5.02898057 15.4049457,4.94844828 14.7230417,5.047709 C13.9479411,5.16101605 13.5770001,5.24810329 12.8674139,5.52060205 C12.3783624,5.71912349 11.934525,5.95603823 11.4547008,6.2116814 C10.7118961,6.2116814 9.82698956,6.05810821 9.26042793,6.03282482 C9.3333243,6.03563409 10.0170738,7.36441674 10.0678244,8.15756608 C10.0936611,8.56771886 10.0927383,9.23351482 9.51233563,9.64273118 C9.01221119,9.99576223 8.53146427,9.86279032 8.25095167,9.69423438 C7.56997043,9.2840816 7.61979833,8.74751186 7.61979833,8.36264247 C7.61979833,7.44120334 8.53607797,6.3783645 8.78060375,5.98132162 L6.83823855,5.93075484 C6.83823855,5.93075484 6.02991935,7.81015356 5.90350414,9.09024227 C5.77801166,10.370331 6.01700101,12.4875809 8.38843976,12.6917208 C10.1065794,12.8406119 11.9677436,12.3930023 11.9926576,9.09024227 C11.9926576,9.09024227 12.9127131,10.6543274 11.5,12.2162791 C12.0305748,11.8838493 12.5,11.4662791 12.838809,11.251504 C13.0408888,11.0211442 13.7827708,10.3984236 13.6305189,8.78496874 C14.0008448,9.62150562 14.0406718,10.2652757 13.75,10.7162791 C14.1010861,10.5583434 14.288868,10.4779871 14.3133457,10.4752102 C14.3133457,10.4752102 15.0912145,9.95268682 14.9140486,8.6463783 C15.3938728,9.72232704 15,10.2162791 15,10.2162791 C15.4918198,10.1881864 15.7823458,10.3319377 16.3885852,9.78225804 Z" fill="#000" transform="matrix(1 0 0 -1 0 17.716)"/>
 </g>
</svg>
