<svg width="22" height="22" xmlns="http://www.w3.org/2000/svg">
 <g fill="none">
  <g stroke-linejoin="square">
   <rect stroke="#000" stroke-width="2" fill="#FFCD00" fill-rule="evenodd" x="1" y="1" width="20" height="20" rx="10"/>
   <rect stroke="#FFCD00" x=".5" y=".5" width="21" height="21" rx="10.5"/>
  </g>
  <path d="M2.24999233 0C3.37498473 0 4.5.55 4.5 2.75 4.5 3.37129373 4.41027634 3.86099454 4.25616805 4.24387754L4.90165043 4.89016504 4.19454365 5.59727182 3.66464546 5.06690112C3.2611686 5.38891555 2.75557815 5.5 2.24999233 5.5 1.12499992 5.5 0 4.95 0 2.75 0 .55 1.12499992 0 2.24999233 0ZM2.25000924 1C1.62501346 1 1.0000135 1.35 1.0000135 2.75 1.0000135 4.15 1.62501346 4.5 2.25000924 4.5 2.48237947 4.5 2.71475145 4.451619 2.91500301 4.31888139L2.25 3.65272818 2.95710678 2.94562139 3.43889465 3.42806025C3.47829059 3.23551036 3.5000135 3.01100218 3.5000135 2.75 3.5000135 1.35 2.87500502 1 2.25000924 1ZM5.5.25 6.5.25 8 3.25 9.5.25 10.5.25 10.5 5.25 9.5 5.25 9.5 2.25 8 5.25 6.5 2.25 6.5 5.25 5.5 5.25z" transform="translate(5.5 4.75)" fill-rule="evenodd" fill="#000"/>
  <path d="M2,11 L20,11 C20,15.9705627 15.9705627,20 11,20 C6.02943725,20 2,15.9705627 2,11 L2,11 L2,11 Z" fill="#000" fill-rule="evenodd"/>
  <path d="M6.5,12.5 L6.5,14.5 C6.5,14.7761424 6.72385763,15 7,15 C7.27614237,15 7.5,14.7761424 7.5,14.5 L7.5,12.5 L8.25,12.5 L8.25,14.5 C8.25,15.1903559 7.69035594,15.75 7,15.75 C6.30964406,15.75 5.75,15.1903559 5.75,14.5 L5.75,13.25 L5,13.25 L5,15.75 L4.25,15.75 L4.25,13.25 L3.5,13.25 L3.5,12.5 L6.5,12.5 Z M8.5,12.5 L9.25,12.5 L10.25,14.25 L10.25,12.5 L11,12.5 L11,15.75 L10.25,15.75 L9.25,14 L9.25,15.75 L8.5,15.75 L8.5,12.5 Z M11.25,12.5 L12,12.5 L13,14.25 L13,12.5 L13.75,12.5 L13.75,15.75 L13,15.75 L12,14 L12,15.75 L11.25,15.75 L11.25,12.5 Z M14,15.75 L14,12.5 L16,12.5 L16,13.25 L14.75,13.25 L14.75,13.75 L15.5,13.75 L15.5,14.5 L14.75,14.5 L14.75,15 L16,15 L16,15.75 L14,15.75 Z M16.25,15.75 L16.25,12.5 L17,12.5 L17,15 L18.25,15 L18.25,15.75 L16.25,15.75 Z" fill="#FFCD00"/>
 </g>
</svg>
