<svg width="20" height="20" xml:space="preserve" xmlns="http://www.w3.org/2000/svg">
 <path style="color:#000;fill:#006747;-inkscape-stroke:none" d="M 2,0 C 1.057191,0 0,1.057191 0,2 v 11 c 0,2.164462 1.5725197,3.920542 3.5527344,5.117188 C 5.532949,19.313833 7.9658494,20 10,20 12.034151,20 14.467051,19.313833 16.447266,18.117188 18.42748,16.920542 20,15.164462 20,13 V 2 C 20,1.057191 18.942809,0 18,0 Z"/>
 <path style="color:#000;fill:#fff;-inkscape-stroke:none" d="m 2,4 h 16 c 0.166667,0 0.448186,0.1239676 0.662109,0.3378906 C 18.876032,4.5518137 19,4.8333334 19,5 v 8 c 0,1.672489 -1.259771,3.167606 -3.070312,4.261719 C 14.119144,18.355832 11.8028,19 10,19 8.1971997,19 5.8808554,18.355832 4.0703125,17.261719 2.2597696,16.167606 1,14.672489 1,13 V 5 C 1,4.8333335 1.1239676,4.5518137 1.3378906,4.3378906 1.5518137,4.1239676 1.8333335,4 2,4 Z"/>
</svg>
