<svg width="16" height="20" viewBox="0 0 4.234 5.292" xmlns="http://www.w3.org/2000/svg">
 <path d="M 2.1192881,0.13229703 C 1.9717497,0.2047781 1.7565675,0.3979842 1.5948729,0.3965433 L 0.1325948,0.3969 0.1323,3.2624133 c 5.683e-5,0.1267304 0.0285958,0.2548226 0.0740171,0.3726066 0.25518222,0.5343784 0.65419203,0.9804645 1.1582322,1.2892348 0.2210274,0.1533085 0.4833232,0.2354414 0.7520694,0.2354414 0.2687462,0 0.5312552,-0.082204 0.7526536,-0.2357343 C 3.3737231,4.6150252 3.7769885,4.1694379 4.0322417,3.634727 4.0776717,3.5166263 4.1012264,3.385961 4.101299,3.2594839 L 4.1013,0.3969 H 2.6393376 C 2.4775483,0.3986094 2.2668216,0.20477941 2.1192832,0.13229755 Z" fill="#ffcd00" stroke="#000" stroke-linecap="round" stroke-linejoin="round" stroke-width=".265" style="stroke-width:.2646;stroke-miterlimit:4;stroke-dasharray:none"/>
</svg>
