<svg width="20" height="20" viewBox="0 0 5.292 5.292" xmlns="http://www.w3.org/2000/svg">
 <path style="fill:#9bcbeb;fill-opacity:1;stroke:#9bcbeb;stroke-width:1;stroke-linecap:round;stroke-linejoin:round;stroke-dasharray:none;stroke-opacity:1" d="M5.253 7.229 1.994 3.505l.014-.846c.01-.71.022-.87.068-.996.076-.205.321-.465.525-.557l.165-.075h14.5l.16.084c.198.105.425.354.5.55.055.14.059.348.067 4.062.005 2.152.001 3.914-.008 3.914-.009 0-.965-.759-2.124-1.686-1.512-1.21-2.143-1.696-2.234-1.724-.284-.085-.165-.188-2.737 2.38a228.019 228.019 0 0 1-2.361 2.342c-.01 0-1.484-1.676-3.276-3.724z" transform="scale(.26458)"/>
 <path style="fill:#ddcba4;fill-opacity:1;stroke:#ddcba4;stroke-width:1;stroke-linecap:round;stroke-linejoin:round;stroke-dasharray:none;stroke-opacity:1" d="M2 10.54c0-5.352.001-5.443.06-5.383.032.034 1.404 1.602 3.048 3.484 1.644 1.882 3.03 3.454 3.08 3.495.102.083.284.116.458.084.107-.019.376-.277 2.51-2.408l2.39-2.386 2.227 1.782L18 10.991v4.993H10.001l-.008-1.357-.009-1.358-.107-.11c-.128-.133-.22-.164-.552-.186-.34-.023-.548-.106-1.005-.401-.743-.48-1.024-.568-1.804-.567-.441 0-.572.012-.772.066-.286.079-.626.244-1.01.492-.475.307-.793.421-1.178.421a.565.565 0 0 0-.447.186l-.093.1-.01 1.357-.008 1.357H2Z" transform="scale(.26458)"/>
 <path style="fill:#fff;fill-opacity:1;stroke:#fff;stroke-width:1;stroke-linecap:round;stroke-linejoin:round;stroke-dasharray:none;stroke-opacity:1" d="M2.734 18.94a.894.894 0 0 1-.461-.298c-.217-.242-.247-.358-.265-1.04l-.016-.586H4v-3.03l.086-.019c.422-.091.718-.22 1.18-.514.593-.377.835-.453 1.359-.428.428.02.623.093 1.132.423.486.315.722.42 1.157.518l.086.02v3.03h9.008l-.016.586c-.012.445-.028.621-.07.734-.069.192-.295.442-.497.549l-.16.084-7.203.006c-5.75.004-7.228-.002-7.328-.034z" transform="scale(.26458)"/>
 <rect style="fill:none;stroke:#006747;stroke-width:.264583;stroke-linejoin:round;stroke-dasharray:none;stroke-opacity:1" width="4.498" height="5.027" x=".397" y=".132" ry=".397" rx=".397"/>
 <path style="fill:none;stroke:#006747;stroke-width:.264583;stroke-linecap:round;stroke-linejoin:round;stroke-dasharray:none;stroke-opacity:1" d="M3.836 5.027V2.758M4.366 3.036v.529h-.53M3.836 3.83h-.529V3.3M.926 4.366v-.794c.397 0 .406-.265.794-.265h.01c.397 0 .387.265.784.265v.794M1.72 4.366v-.259"/>
 <path style="fill:none;stroke:#006747;stroke-width:.264583;stroke-linecap:square;stroke-linejoin:miter;stroke-dasharray:none;stroke-opacity:1" d="M1.72 4.233v.133"/>
 <path style="fill:none;stroke:#006747;stroke-width:.264583;stroke-linecap:round;stroke-linejoin:round;stroke-dasharray:none;stroke-opacity:1" d="M4.895 2.838 3.572 1.78 2.249 3.103.397.986"/>
 <path style="fill:none;stroke:#006747;stroke-width:.264583;stroke-linecap:square;stroke-linejoin:round;stroke-dasharray:none;stroke-opacity:1" d="M.397 4.366h.529M2.514 4.366h2.38"/>
 <path style="fill:none;fill-opacity:1;stroke:#006747;stroke-width:.265;stroke-linecap:round;stroke-linejoin:round;stroke-dasharray:none;stroke-opacity:1" d="M1.72 2.503V.668"/>
 <path style="fill:none;fill-opacity:1;stroke:#006747;stroke-width:.264999;stroke-linecap:round;stroke-linejoin:round;stroke-dasharray:none;stroke-opacity:1" d="M1.72 1.462h.264L1.72.668l-.265.794Z"/>
 <path style="fill:none;fill-opacity:1;stroke:#006747;stroke-width:.265;stroke-linecap:round;stroke-linejoin:round;stroke-dasharray:none;stroke-opacity:1" d="M2.778 2.514V1.19"/>
 <path style="fill:none;fill-opacity:1;stroke:#006747;stroke-width:.264999;stroke-linecap:round;stroke-linejoin:round;stroke-dasharray:none;stroke-opacity:1" d="M2.778 1.72h.265l-.265-.53-.264.53Z"/>
 <path style="fill:none;fill-opacity:1;stroke:#006747;stroke-width:.265;stroke-linecap:round;stroke-linejoin:round;stroke-dasharray:none;stroke-opacity:1" d="M4.101 2.117V.66"/>
 <path style="fill:none;fill-opacity:1;stroke:#006747;stroke-width:.264999;stroke-linecap:round;stroke-linejoin:round;stroke-dasharray:none;stroke-opacity:1" d="M4.101 1.455h.271L4.101.661l-.265.794z"/>
</svg>
