<?xml version="1.0" encoding="UTF-8"?>
<!-- Created with Inkscape (http://www.inkscape.org/) -->
<svg width="20.003" height="24.16" version="1.1" xmlns="http://www.w3.org/2000/svg" xmlns:cc="http://creativecommons.org/ns#" xmlns:dc="http://purl.org/dc/elements/1.1/" xmlns:rdf="http://www.w3.org/1999/02/22-rdf-syntax-ns#">
 <metadata>
  <rdf:RDF>
   <cc:Work rdf:about="">
    <dc:format>image/svg+xml</dc:format>
    <dc:type rdf:resource="http://purl.org/dc/dcmitype/StillImage"/>
   </cc:Work>
  </rdf:RDF>
 </metadata>
 <g>
  <path d="m1.5625 1.0138v0.46152h-0.58789v3.7068h18.119v-3.7068h-0.79688v-0.33912h-2.5645v0.33912h-3.9473v-0.36158h-3.8496v0.36158h-3.8203v-0.46152z" fill="#fff" stroke-width=".75824"/>
  <path d="m0.97461 6.1567v3.7402h-0.11328v4.9473h0.62695v1.5215h0.41406v0.8457h0.52734v0.93164h0.55469v0.9375h0.73242v0.68555h0.60352v0.59961h0.70117v0.80859h0.95703v0.66992h1.0566v0.64648h1.1445v0.68945h3.7656v-0.68945h1.1309v-0.64648h1.0586v-0.66992h0.86914v-0.80859h0.64062v-0.59961h0.70117v-0.68555h0.61914v-0.9375h0.52734v-0.93164h0.41406v-0.8457h0.62891v-1.5215h0.59375v-4.9473h-0.10547v-3.7402z" fill="#fff"/>
  <path d="m10.003 0c-1.1919 0.66288-2.5637 1.0411-4.0243 1.0411-1.3973 0-2.7142-0.34562-3.8694-0.95595l-2.1055 2.1055-0.0035426 3.7164c0.37584 0.73312 0.58854 1.564 0.58854 2.4445 0 0.88048-0.2127 1.7114-0.58854 2.4445l8.6e-4 2e-3h-8.6e-4c0 6.3791 4.1861 11.531 9.9613 13.356l0.0387 6e-3 0.0387-6e-3c5.7748-1.8254 9.9613-6.9768 9.9613-13.356-0.37639-0.73354-0.58854-1.5651-0.58854-2.4462 0-0.88115 0.21216-1.7127 0.58854-2.4462l0.0035-3.7147-2.1064-2.1064c-1.1552 0.61045-2.4719 0.95681-3.8694 0.95681-1.461 0-2.833-0.37791-4.0251-1.0411zm-3e-3 1.0971c1.218 0.58875 2.5842 0.91981 4.0277 0.91981 1.303 0 2.5432-0.26919 3.668-0.75461l1.332 1.332-0.0035 2.5875h-18.049l0.003543-2.5875 1.3397-1.3397c1.1246 0.48512 2.3646 0.7546 3.6672 0.7546 1.438 0 2.7994-0.32759 4.0139-0.91206zm-8.8265 5.0604h17.653c-0.25227 0.68382-0.39063 1.4228-0.39063 2.1941 0 0.95369 0.21143 1.8577 0.58853 2.6691 1.1e-4 2.4e-4 -1.1e-4 6.2e-4 0 8.6e-4 -3.6e-4 5.8318-3.7564 10.316-8.9812 12.104-0.0211 0.01-0.017 5e-3 -0.0569 0.018-0.0733-0.0328-0.0783-0.0306-0.13415-0.055-5.1703-1.812-8.8763-6.2746-8.8763-12.068 0.37705-0.81137 0.58767-1.7155 0.58767-2.6691 0-0.77126-0.13761-1.5103-0.38977-2.1941z"/>
 </g>
</svg>
