<svg xmlns="http://www.w3.org/2000/svg" viewBox="0 0 20 17" width="20" height="20">
 <path fill="#fff" d="M 0.9615 16.7949 C 0.5769 16.7949 0.4487 16.6667 0.641 16.3462 L 9.6795 0.5128 C 9.9359 0.1282 10.1923 0.1282 10.4487 0.5128 L 19.6154 16.2179 C 19.817 16.544 19.805 16.7949 19.2308 16.7949 Z"/>
 <path fill="#bf2033" d="M 0.9615 16.7949 C 0.5769 16.7949 0.4487 16.6667 0.641 16.3462 L 9.6795 0.5128 C 9.9359 0.1282 10.1923 0.1282 10.4487 0.5128 L 14.4231 7.2436 C 6.4744 7.0513 5.0641 10.3846 4.6795 10.7692 C 4.4872 11.0256 4.4231 11.2821 4.8077 11.6667 C 7.7564 13.7821 7.5641 14.6154 3.0128 16.7949 Z M 14.828 8.001 C 8.3974 9.1026 9.9359 12.1795 13.2051 12.8205 C 15.641 14.0385 13.4615 16.3462 12.4359 16.5385 C 12.2436 16.6667 12.2436 16.6667 12.436 16.805 L 19.2308 16.7949 C 19.701 16.792 19.877 16.638 19.6154 16.2179 Z"/>
</svg>
