<?xml version="1.0" encoding="UTF-8"?>
<svg width="20px" height="20px" viewBox="0 0 20 20" version="1.1" xmlns="http://www.w3.org/2000/svg" xmlns:xlink="http://www.w3.org/1999/xlink">
   <path d="M2,1.42108547e-14 L18,1.42108547e-14 C19.1045695,1.40079486e-14 20,0.8954305 20,2 L20,18 C20,19.1045695 19.1045695,20 18,20 L2,20 C0.8954305,20 -5.51538359e-14,19.1045695 -5.5067062e-14,18 L-5.5067062e-14,2 C-5.52023328e-14,0.8954305 0.8954305,1.41917162e-14 2,1.42108547e-14 Z" fill="#006747" fill-rule="nonzero"></path>
    <path d="M18,1.42108547e-14 C19.1045695,1.42108547e-14 20,0.8954305 20,2 L20,18 C20,19.1045695 19.1045695,20 18,20 L2,20 C0.8954305,20 0,19.1045695 0,18 L0,2 C0,0.8954305 0.8954305,1.42108547e-14 2,1.42108547e-14 L18,1.42108547e-14 Z M18,1 L2,1 C1.44771525,1 1,1.44771525 1,2 L1,18 C1,18.5522847 1.44771525,19 2,19 L18,19 C18.5522847,19 19,18.5522847 19,18 L19,2 C19,1.44771525 18.5522847,1 18,1 Z" fill="#FFFFFF" fill-rule="nonzero"></path>
    <path d="M2,12 C4,10 6.66666667,9 10,9 C13.3333333,9 16,10 18,12 L18,14 C15.6666667,11.6666667 13,10.5 10,10.5 C7,10.5 4.33333333,11.6666667 2,14 L2,12 Z" fill="#FFFFFF"></path>
    <path d="M18.375,12.2328412 L18.375,15.1864633 C15.5834025,17.3187526 12.7898047,18.375 10,18.375 C7.21019534,18.375 4.41659749,17.3187526 1.625,15.1864633 L1.625,12.2328412 C4.41699423,14.486469 7.20637464,15.625 10,15.625 C12.7936254,15.625 15.5830058,14.486469 18.375,12.2328412 Z" stroke="#006B54" stroke-width="0.75" fill="#FFFFFF"></path>
    <path d="M7.84644328,12.2102886 C7.84644328,12.2102886 7.9591987,11.9566213 7.96234636,11.9495498 C8.03241426,11.7918216 8.07178164,11.6085671 8.08333745,11.4376876 C8.10528487,11.1128744 8.26667819,10.8683051 8.52146663,10.676125 C8.6859645,10.5521588 8.93540621,10.3410927 9.13823661,10.3014666 C9.84719438,10.1630987 10.2349609,11.114901 10.4199402,11.6234862 C10.5240287,11.909665 10.4509125,14.4182159 11.6927312,14.4182159 C12.93455,14.4182159 12.9172032,12.0218168 12.8627011,11.8107938 C12.7807756,11.493397 12.6773769,11.1821231 12.5786782,10.8694262 C12.3736056,10.2197135 12.3567031,9.71237884 12.5229688,9.03041338 C12.6589652,8.47254355 12.9632539,7.95606769 13.1226638,7.3980685 L13.1226638,7.02116789 C13.1226638,7.02116789 12.8907714,6.58631573 12.8906852,6.5862295 C12.6559038,6.36378009 12.4732961,6.09260654 12.2437321,5.86515537 C12.1530103,5.77525286 11.6439078,5.53085604 11.6152769,5.45578637 C11.413352,4.92667672 12.2958626,5.18116333 12.4804538,5.2954279 C13.0236201,5.63158133 13.4596365,6.18324207 13.9633923,6.58627262 C13.9633923,6.58627262 14.1655328,6.64400856 14.166309,6.73072028 C14.1673869,6.85593701 14.149234,6.98343902 14.1376782,7.10796585 C14.5015569,7.20347378 14.3060567,7.01094876 14.5426922,6.90539416 C14.8970417,6.74727787 15.1312625,6.98680228 15.4084296,7.1680302 C15.7400124,7.3849173 16.012307,7.35930479 16.3978745,7.34003072 C16.7342004,7.32325755 16.5753942,6.86011952 16.5610788,6.65897075 C16.5505579,6.51068552 16.5257646,6.35877832 16.605836,6.22571399 C16.7047504,6.06147484 17.0119711,6.020124 16.9996392,5.78025463 C16.9859274,5.51317737 16.6775424,5.42879406 16.4964439,5.29810126 C16.2236318,5.10122124 16.1743903,4.75907431 15.945818,4.53343412 C15.6939616,4.28476854 15.3287893,4.32392032 15.0232502,4.18848446 C14.4855599,3.95021049 14.3721577,3.46357277 13.9924112,3.10745537 C13.7929441,2.92044954 13.4993488,2.46386556 13.1971729,2.50159443 C13.0803644,2.51616855 13.0486721,2.61413425 12.9500165,2.65220807 C12.6571111,2.76526532 12.4316865,2.59339415 12.1546488,2.53833156 C11.8407447,2.47598191 11.6990135,2.5852016 11.4702687,2.7885063 C11.0219635,2.74366285 11.1372198,2.60814075 11.0061821,2.23796665 C10.9500847,2.07946229 10.3932497,2.31558033 10.3037352,2.34490105 C10.063176,2.42376516 9.78057598,2.45123178 9.53454064,2.37607587 C9.35508058,2.3203665 9.24439486,2.10524728 9.07118702,2.04902048 C8.87266849,1.98447178 8.68803419,2.10602341 8.49645778,2.13672393 C8.25594164,2.17527206 8.00675863,2.12012323 7.76809659,2.16535475 C7.5864806,2.19976348 7.41995615,2.32903336 7.231743,2.32394536 C7.11515002,2.32075457 6.97350507,2.23447404 6.85941297,2.20519644 C6.25803637,2.05104706 5.62199233,2.13603403 5.0108709,2.02241624 C4.68299626,1.96144639 4.29316003,2.03612799 3.97425408,2.11171508 C3.98628419,2.45623355 4.13926937,2.50159443 4.37616354,2.68402967 C4.54833653,2.81666282 4.59330935,2.95994628 4.69606122,3.13983752 C4.72710669,3.19425333 5.0048774,3.11870935 5.05825836,3.28001644 C5.11017328,3.43688229 4.98732809,3.46301223 4.86090404,3.54187634 C4.66587813,3.66308302 4.29510037,3.53467552 4.08890672,3.50104293 C3.85666936,3.46266728 3.67595886,3.36043282 3.44639487,3.43679605 C3.0873454,3.55623487 2.89128464,3.77838245 3.06306957,4.1219523 C3.48830625,4.97699625 4.18833845,4.26941828 4.77850419,4.61872292 C5.2243085,4.8826094 5.55696932,5.18418164 6.08215516,5.27615384 C6.67063927,5.37916443 7.00821562,5.46673852 7.26675539,6.03543114 C7.42599277,6.19466852 7.45613275,6.37016166 7.52710614,6.58579831 C7.57125969,6.72002684 7.23721907,6.73589453 7.1948765,6.82398604 C7.09626402,7.02983475 7.33634898,7.09925587 7.45324379,7.19735092 C7.6111445,7.32972535 7.71191291,7.41747192 7.79198435,7.62582151 C7.93824301,8.0061285 7.85864587,8.39208405 7.83894062,8.78437804 C7.82190874,9.12307548 7.8944344,9.4681976 7.70255616,9.77283127 C7.59795017,9.93901076 7.51766314,10.1092003 7.4922231,10.3050886 C7.47247474,10.456694 7.54241328,10.6540914 7.44992365,10.7856897 C7.28762484,11.0166766 6.85885242,10.8833104 6.69866643,11.1236541 C6.62303622,11.2372719 6.5531408,11.9404518 6.66917323,12.1688516 C7.0035588,12.2320205 7.34083333,12.2853152 7.68073809,12.3286926 L7.84644328,12.2102886 Z" fill="#FFFFFF" fill-rule="nonzero"></path>
    <path d="M5.0108709,2.02241624 C4.68299626,1.96144639 4.29316003,2.03612799 3.97425408,2.11171508 C3.98628419,2.45623355 4.13926937,2.50159443 4.37616354,2.68402967 C4.54833653,2.81666282 4.59330935,2.95994628 4.69606122,3.13983752 C4.72710669,3.19425333 5.0048774,3.11870935 5.05825836,3.28001644 C5.11017328,3.43688229 4.98732809,3.46301223 4.86090404,3.54187634 C4.66587813,3.66308302 4.29510037,3.53467552 4.08890672,3.50104293 C3.85666936,3.46266728 3.67595886,3.36043282 3.44639487,3.43679605 C3.0873454,3.55623487 2.89128464,3.77838245 3.06306957,4.1219523 C3.48830625,4.97699625 4.18833845,4.26941828 4.77850419,4.61872292 C5.2243085,4.8826094 5.55696932,5.18418164 6.08215516,5.27615384 C6.67063927,5.37916443 7.00821562,5.46673852 7.26675539,6.03543114 C7.42599277,6.19466852 7.45613275,6.37016166 7.52710614,6.58579831 C7.57125969,6.72002684 7.23721907,6.73589453 7.1948765,6.82398604 C7.09626402,7.02983475 7.33634898,7.09925587 7.45324379,7.19735092 C7.6111445,7.32972535 7.71191291,7.41747192 7.79198435,7.62582151 C7.93824301,8.0061285 7.85864587,8.39208405 7.83894062,8.78437804 C7.82190874,9.12307548 7.8944344,9.4681976 7.70255616,9.77283127 C7.59795017,9.93901076 7.51766314,10.1092003 7.4922231,10.3050886 C7.47247474,10.456694 7.54241328,10.6540914 7.44992365,10.7856897 C7.3890616,10.8723098 7.29072669,10.9076927 7.18313499,10.9307598 L6.96396951,10.972005 C6.85657589,10.9959493 6.75873618,11.0335252 6.69866643,11.1236541 C6.62303622,11.2372719 6.5531408,11.9404518 6.66917323,12.1688516 C7.0035588,12.2320205 7.34083333,12.2853152 7.68073809,12.3286926 L7.84644328,12.2102886 C7.84644328,12.2102886 7.9591987,11.9566213 7.96234636,11.9495498 C8.03241426,11.7918216 8.07178164,11.6085671 8.08333745,11.4376876 C8.10528487,11.1128744 8.26667819,10.8683051 8.52146663,10.676125 C8.6859645,10.5521588 8.93540621,10.3410927 9.13823661,10.3014666 C9.84719438,10.1630987 10.2349609,11.114901 10.4199402,11.6234862 C10.5240287,11.909665 10.4509125,14.4182159 11.6927312,14.4182159 C12.93455,14.4182159 12.9172032,12.0218168 12.8627011,11.8107938 C12.7807756,11.493397 12.6773769,11.1821231 12.5786782,10.8694262 C12.3736056,10.2197135 12.3567031,9.71237884 12.5229688,9.03041338 C12.6589652,8.47254355 12.9632539,7.95606769 13.1226638,7.3980685 L13.1226638,7.02116789 C13.1226638,7.02116789 12.8907714,6.58631573 12.8906852,6.5862295 C12.6559038,6.36378009 12.4732961,6.09260654 12.2437321,5.86515537 C12.1530103,5.77525286 11.6439078,5.53085604 11.6152769,5.45578637 C11.413352,4.92667672 12.2958626,5.18116333 12.4804538,5.2954279 C13.0236201,5.63158133 13.4596365,6.18324207 13.9633923,6.58627262 C13.9633923,6.58627262 14.1655328,6.64400856 14.166309,6.73072028 C14.1673869,6.85593701 14.149234,6.98343902 14.1376782,7.10796585 C14.5015569,7.20347378 14.3060567,7.01094876 14.5426922,6.90539416 C14.8970417,6.74727787 15.1312625,6.98680228 15.4084296,7.1680302 C15.7400124,7.3849173 16.012307,7.35930479 16.3978745,7.34003072 C16.7342004,7.32325755 16.5753942,6.86011952 16.5610788,6.65897075 C16.5505579,6.51068552 16.5257646,6.35877832 16.605836,6.22571399 C16.7047504,6.06147484 17.0119711,6.020124 16.9996392,5.78025463 C16.9859274,5.51317737 16.6775424,5.42879406 16.4964439,5.29810126 C16.2236318,5.10122124 16.1743903,4.75907431 15.945818,4.53343412 C15.6939616,4.28476854 15.3287893,4.32392032 15.0232502,4.18848446 C14.4855599,3.95021049 14.3721577,3.46357277 13.9924112,3.10745537 C13.7929441,2.92044954 13.4993488,2.46386556 13.1971729,2.50159443 C13.0803644,2.51616855 13.0486721,2.61413425 12.9500165,2.65220807 C12.6571111,2.76526532 12.4316865,2.59339415 12.1546488,2.53833156 C11.8407447,2.47598191 11.6990135,2.5852016 11.4702687,2.7885063 C11.0219635,2.74366285 11.1372198,2.60814075 11.0061821,2.23796665 C10.9500847,2.07946229 10.3932497,2.31558033 10.3037352,2.34490105 C10.063176,2.42376516 9.78057598,2.45123178 9.53454064,2.37607587 C9.35508058,2.3203665 9.24439486,2.10524728 9.07118702,2.04902048 C8.87266849,1.98447178 8.68803419,2.10602341 8.49645778,2.13672393 C8.25594164,2.17527206 8.00675863,2.12012323 7.76809659,2.16535475 C7.5864806,2.19976348 7.41995615,2.32903336 7.231743,2.32394536 C7.11515002,2.32075457 6.97350507,2.23447404 6.85941297,2.20519644 C6.25803637,2.05104706 5.62199233,2.13603403 5.0108709,2.02241624 Z M9.712,11.871 L9.65876618,11.7315247 C9.49086959,11.3084077 9.33681094,11.0815093 9.29258471,11.0433066 C9.26740784,11.0570615 9.24048355,11.0746651 9.2089965,11.096832 L9.15826604,11.13356 C9.12100144,11.1611857 8.9899733,11.2621808 8.97310248,11.2748947 C8.86969104,11.3528951 8.83707888,11.4076256 8.83162836,11.4882912 C8.8137894,11.7520815 8.75226228,12.0187873 8.64753263,12.2545413 C8.63206555,12.2893319 8.63206555,12.2893319 8.58977041,12.3844813 L8.56843153,12.4324871 C8.54570281,12.4836195 8.5433836,12.4888371 8.53178753,12.5149249 L8.44877056,12.7016893 L8.28247706,12.8205136 L8.11677187,12.9389176 L7.87750371,13.1098857 L7.58579579,13.072659 C7.23109957,13.0273939 6.87905888,12.9717665 6.52995286,12.9058167 L6.16755534,12.8373561 L6.00051255,12.5085468 C5.77558004,12.0657867 5.83207209,11.0720167 6.07457704,10.7077065 C6.24937193,10.4454436 6.42398539,10.3355965 6.69217846,10.2651962 L6.74299223,10.253 L6.74846905,10.2084971 C6.77965361,9.96837604 6.85512841,9.75299953 6.97229627,9.53629699 L7.06794903,9.37311411 C7.08395784,9.34769788 7.09151099,9.29101184 7.08758234,9.05438916 C7.08724389,9.03411507 7.08701826,9.02059901 7.08684963,9.00907357 L7.08683871,8.8336799 L7.08988501,8.74675236 C7.09387285,8.66736221 7.09844686,8.6059505 7.10915017,8.47665928 C7.13819721,8.12578397 7.13432019,8.00516293 7.09190422,7.89487135 C7.08037898,7.86488214 7.08390319,7.86627935 7.01897055,7.81188923 L6.98,7.779 C6.96505702,7.77064994 6.96505702,7.77064994 6.94179877,7.75603303 C6.4958614,7.47449357 6.23447497,7.09281441 6.51890986,6.49907207 C6.53641753,6.46264826 6.55333915,6.42993708 6.57016234,6.40035629 L6.593,6.364 L6.58400003,6.34582625 C6.48951257,6.1379885 6.45925711,6.10704061 6.07807818,6.03723455 L5.95278164,6.01491123 C5.5485546,5.94412172 5.23702891,5.80102565 4.83892894,5.5468401 C4.78291215,5.51107355 4.59909016,5.3907808 4.56926377,5.37156059 C4.50372764,5.32932892 4.44907489,5.29526827 4.39649499,5.26414446 C4.39541014,5.26350237 4.37773651,5.26059767 4.30393734,5.26543396 C4.26208925,5.2681764 4.22118658,5.27266211 4.128907,5.28421006 C3.30261235,5.38761327 2.78215887,5.24137663 2.39224918,4.4573625 C1.99585876,3.66458166 2.43018893,2.98443165 3.2096652,2.72513668 C3.25692176,2.70941704 3.303602,2.69668206 3.34991722,2.68673078 L3.30493195,2.58084851 C3.27312716,2.49320601 3.25063661,2.39890945 3.237469,2.29687609 L3.2247109,2.13788812 L3.20326345,1.5236762 L3.80128135,1.38193399 C4.33846385,1.25461099 4.73754802,1.20873356 5.14795945,1.28505152 C5.31957661,1.31695805 5.49242107,1.33083636 5.81537763,1.34333841 C5.84789427,1.34458758 5.84789427,1.34458758 5.88085254,1.34583435 C6.44283849,1.36709416 6.70279102,1.39080294 7.04583319,1.47873412 C7.1101175,1.49523036 7.1491275,1.50804986 7.2158081,1.53444663 L7.254,1.551 C7.41472536,1.48299068 7.49705433,1.45336426 7.62844163,1.4284718 C7.80192128,1.39559372 7.92133508,1.39249916 8.16471851,1.39915805 L8.18694379,1.39976048 C8.296439,1.40267194 8.34482756,1.40145444 8.37778289,1.3961726 C8.38029753,1.39576963 8.39819445,1.39076867 8.45511246,1.3725732 C8.79106054,1.26519118 8.99288033,1.23490837 9.30275662,1.33566537 C9.51399651,1.40423814 9.6266022,1.48920485 9.80505633,1.65763135 L9.817,1.67 L9.89108559,1.6687535 C9.91853645,1.66666182 9.94772695,1.66263055 9.97785823,1.65656393 L10.0702755,1.63216227 L10.1005517,1.62051671 C10.1450097,1.60394969 10.2271544,1.57393355 10.2818209,1.55541333 C10.3385942,1.53617933 10.3935265,1.51892193 10.4476921,1.50365322 C10.5949045,1.46215565 10.7271701,1.43686157 10.8627803,1.43394234 C11.1484384,1.42779308 11.4245604,1.51252341 11.6009801,1.76534902 L11.631,1.817 L11.7195054,1.79234106 C11.8487088,1.76459655 11.9860974,1.75947514 12.1404807,1.77727252 L12.3008551,1.80272044 C12.412207,1.82485218 12.4936159,1.84963505 12.631552,1.89739951 C12.649292,1.90355193 12.6611186,1.90765355 12.6703967,1.91084509 L12.685,1.916 L12.7428258,1.87597785 C12.8097633,1.83565685 12.8817035,1.8046662 12.96648,1.78296435 L13.1042514,1.75737296 C13.6107279,1.69413567 13.9175012,1.90973601 14.3059987,2.33916295 L14.3215184,2.35732858 C14.3305578,2.36749346 14.3412882,2.37953064 14.3529625,2.39259696 L14.4283547,2.47659885 C14.4657352,2.51802908 14.4981584,2.55354412 14.5054477,2.56037802 C14.66521,2.71019945 14.7746656,2.84852133 14.9345379,3.0790082 C14.9523412,3.10471112 14.9523412,3.10471112 14.9693218,3.12926933 C15.1444262,3.38237705 15.2107976,3.45125253 15.3271805,3.50282687 C15.3566028,3.51586885 15.4041945,3.52906293 15.5109188,3.55197671 C15.5260694,3.55522191 15.5260694,3.55522191 15.5419821,3.55861552 C15.9796139,3.6519625 16.2064422,3.73679369 16.4727137,3.99969172 C16.5975095,4.12288666 16.6722475,4.22557664 16.7660085,4.39017687 L16.8778417,4.59439147 C16.9194261,4.66968771 16.9323617,4.6877824 16.9353397,4.68993151 C16.9393189,4.69280315 16.954957,4.70235238 16.9866132,4.72018963 C17.0153326,4.73626522 17.0153326,4.73626522 17.0514782,4.75649678 C17.4778455,4.99657335 17.7229277,5.2407295 17.74865,5.74174716 C17.768645,6.1306719 17.6433504,6.35370677 17.3998687,6.55207921 L17.311,6.619 L17.3133467,6.6314181 C17.3145511,6.63875453 17.3160977,6.64814795 17.3180813,6.66016128 L17.3254377,6.70462401 C17.3373284,6.77730723 17.3431791,6.81677188 17.349149,6.86956939 C17.4189992,7.48732083 17.2016803,8.05087561 16.4353194,8.0890954 C16.4211656,8.08980667 16.4211656,8.08980667 16.4069471,8.09053229 C15.9725079,8.11275749 15.8153507,8.11020673 15.550301,8.04239165 C15.3579061,7.99316586 15.1756921,7.91199006 14.9979873,7.79575397 C14.9587828,7.77011983 14.9301655,7.75048923 14.873037,7.71051016 L14.845,7.691 L14.807484,7.72495403 C14.6093364,7.87224001 14.3530329,7.91138494 14.0700793,7.86060796 L13.9472737,7.83339408 L13.786,7.791 L13.7792137,7.8125677 C13.7331174,7.94954507 13.6780722,8.09090857 13.5967454,8.28708984 L13.5305516,8.44529212 C13.5176056,8.47601069 13.5176056,8.47601069 13.5048325,8.50635518 C13.3626423,8.84437689 13.2969903,9.02197259 13.2516256,9.20806263 C13.1182161,9.75526329 13.1296011,10.1231548 13.2938965,10.6436768 C13.3200497,10.7262776 13.3200497,10.7262776 13.3467579,10.8101069 C13.4732158,11.2070208 13.5287285,11.390233 13.588872,11.6232417 C13.6692499,11.9344514 13.6370633,12.7439446 13.4946972,13.3619912 C13.2492873,14.4273759 12.6898122,15.1682159 11.6927312,15.1682159 C10.6344303,15.1682159 10.1113251,14.3646975 9.86864738,13.1551409 C9.82203352,12.9228077 9.78763563,12.6841278 9.75822255,12.4140682 C9.75431351,12.3781769 9.74883549,12.3240632 9.74288696,12.2640151 L9.72472828,12.0783558 C9.71604162,11.9889126 9.70876785,11.913765 9.70661426,11.8943849 C9.70372668,11.8683997 9.70063828,11.8476081 9.70625891,11.858039 L9.712,11.871 Z" fill="#006B54" fill-rule="nonzero"></path>
    <path d="M2,13 C4.66666667,15 7.33333333,16 10,16 C12.6666667,16 15.3333333,15 18,13 L18,15 C16,17 13.3333333,18 10,18 C6.66666667,18 4,17 2,15 L2,13 Z" fill="#FFFFFF"></path>
</svg>