<svg width="22" height="22" xmlns="http://www.w3.org/2000/svg">
 <g fill="none">
  <g stroke-linejoin="square">
   <rect stroke="#000" stroke-width="2" fill="#FFF" fill-rule="evenodd" x="1" y="1" width="20" height="20" rx="10"/>
   <rect stroke="#FFF" x=".5" y=".5" width="21" height="21" rx="10.5"/>
  </g>
  <path d="M5 5 6 5 6 7 8 7 8 5 9 5 9 10 8 10 8 8 6 8 6 10 5 10 5 5ZM11 5 11 9 13 9 13 10 10 10 10 5 11 5ZM14.9999933 5C15.9999933 5 16.9999933 5.5 16.9999933 6.75L15.9999933 6.75C15.9999933 6.25 15.66666 6 14.9999933 6 13.9999933 6 13.9999933 6.75 13.9999933 7.5 13.9999933 8.25 13.9999933 9 14.9999933 9 15.66666 9 15.9999933 8.75 15.9999933 8.25L16.9999933 8.25C16.9999933 9.5 15.9999933 10 14.9999933 10 13.9999933 10 12.9999933 9.5 12.9999933 7.5 12.9999933 5.5 13.9999933 5 14.9999933 5ZM2 11 20 11C20 15.9705627 15.9705627 20 11 20 6.02943725 20 2 15.9705627 2 11L2 11 2 11Z" fill="#000" fill-rule="evenodd"/>
  <path d="M6.5,12.5 L6.5,14.5 C6.5,14.7761424 6.72385763,15 7,15 C7.27614237,15 7.5,14.7761424 7.5,14.5 L7.5,12.5 L8.25,12.5 L8.25,14.5 C8.25,15.1903559 7.69035594,15.75 7,15.75 C6.30964406,15.75 5.75,15.1903559 5.75,14.5 L5.75,13.25 L5,13.25 L5,15.75 L4.25,15.75 L4.25,13.25 L3.5,13.25 L3.5,12.5 L6.5,12.5 Z M8.5,12.5 L9.25,12.5 L10.25,14.25 L10.25,12.5 L11,12.5 L11,15.75 L10.25,15.75 L9.25,14 L9.25,15.75 L8.5,15.75 L8.5,12.5 Z M11.25,12.5 L12,12.5 L13,14.25 L13,12.5 L13.75,12.5 L13.75,15.75 L13,15.75 L12,14 L12,15.75 L11.25,15.75 L11.25,12.5 Z M14,15.75 L14,12.5 L16,12.5 L16,13.25 L14.75,13.25 L14.75,13.75 L15.5,13.75 L15.5,14.5 L14.75,14.5 L14.75,15 L16,15 L16,15.75 L14,15.75 Z M16.25,15.75 L16.25,12.5 L17,12.5 L17,15 L18.25,15 L18.25,15.75 L16.25,15.75 Z" fill="#FFF"/>
 </g>
</svg>
