<svg width="20" height="26" version="1.0" xmlns="http://www.w3.org/2000/svg">
 <path style="fill:#000" d="M 2,0 C 0.90065,0 0,0.9006497 0,2 v 22 c 0,1.09935 0.90065,2 2,2 h 16 c 1.09935,0 2,-0.90065 2,-2 V 2 C 20,0.9006497 19.09935,0 18,0 Z"/>
 <path style="fill:#fff" d="m 16.8185,6 h -2.877 V 1.002 h 2.877 V 1.87 h -1.82 v 1.099 h 1.694 v 0.868 h -1.694 v 1.288 h 1.82 z m -5.704494,0 h -1.057 V 1.884 H 8.6990056 V 1.002 h 3.7730004 v 0.882 h -1.358 z M 7.2295,6 H 5.8855 L 3.7085,2.22 h -0.028 l 0.028,0.714 c 0.014,0.238 0.025667,0.476 0.035,0.714 V 6 H 2.7985 V 1.002 h 1.337 l 2.17,3.745 h 0.021 C 6.32183,4.5136667 6.3149972,4.2826599 6.3055,4.054 L 6.2775,3.368 V 1.002 h 0.952 z M 19,7 v 17 c 0,0.562648 -0.437352,1 -1,1 H 2 C 1.4373519,25 1,24.562648 1,24 V 7 Z"/>
</svg>
