<svg width="20" height="20" xmlns="http://www.w3.org/2000/svg" xmlns:xlink="http://www.w3.org/1999/xlink">
 <defs>
  <path id="a" d="M0 0H12V4H0z"/>
  <path id="c" d="M0 0H12V4H0z"/>
 </defs>
 <g fill="none" fill-rule="evenodd">
  <path d="M16,0.5 C16.4142136,0.5 16.7892136,0.667893219 17.0606602,0.939339828 C17.3321068,1.21078644 17.5,1.58578644 17.5,2 L17.5,18 C17.5,18.4142136 17.3321068,18.7892136 17.0606602,19.0606602 C16.7892136,19.3321068 16.4142136,19.5 16,19.5 L4,19.5 C3.58578644,19.5 3.21078644,19.3321068 2.93933983,19.0606602 C2.66789322,18.7892136 2.5,18.4142136 2.5,18 L2.5,2 C2.5,1.58578644 2.66789322,1.21078644 2.93933983,0.939339828 C3.21078644,0.667893219 3.58578644,0.5 4,0.5 Z" stroke="#000" fill="#FFF" fill-rule="nonzero"/>
  <g transform="translate(4 13)">
   <mask id="b" fill="#fff">
    <use xlink:href="#a"/>
   </mask>
   <path d="M-1.5,1 L-0.75,2 C-0.439339828,2.41421356 0.148286438,2.49816017 0.5625,2.1875 C0.633567812,2.13419914 0.696699141,2.07106781 0.75,2 C1.06066017,1.58578644 1.64828644,1.50183983 2.0625,1.8125 C2.13356781,1.86580086 2.19669914,1.92893219 2.25,2 C2.56066017,2.41421356 3.14828644,2.49816017 3.5625,2.1875 C3.63356781,2.13419914 3.69669914,2.07106781 3.75,2 C4.06066017,1.58578644 4.64828644,1.50183983 5.0625,1.8125 C5.13356781,1.86580086 5.19669914,1.92893219 5.25,2 C5.56066017,2.41421356 6.14828644,2.49816017 6.5625,2.1875 C6.63356781,2.13419914 6.69669914,2.07106781 6.75,2 C7.06066017,1.58578644 7.64828644,1.50183983 8.0625,1.8125 C8.13356781,1.86580086 8.19669914,1.92893219 8.25,2 C8.56066017,2.41421356 9.14828644,2.49816017 9.5625,2.1875 C9.63356781,2.13419914 9.69669914,2.07106781 9.75,2 C10.0606602,1.58578644 10.6482864,1.50183983 11.0625,1.8125 C11.1335678,1.86580086 11.1966991,1.92893219 11.25,2 C11.5606602,2.41421356 12.1482864,2.49816017 12.5625,2.1875 C12.6335678,2.13419914 12.6966991,2.07106781 12.75,2 L13.5,1 L13.5,1" stroke="#003F87" stroke-linejoin="round" mask="url(#b)"/>
  </g>
  <g transform="translate(4 11)">
   <mask id="d" fill="#fff">
    <use xlink:href="#c"/>
   </mask>
   <path d="M-1.5,1 L-0.75,2 C-0.439339828,2.41421356 0.148286438,2.49816017 0.5625,2.1875 C0.633567812,2.13419914 0.696699141,2.07106781 0.75,2 C1.06066017,1.58578644 1.64828644,1.50183983 2.0625,1.8125 C2.13356781,1.86580086 2.19669914,1.92893219 2.25,2 C2.56066017,2.41421356 3.14828644,2.49816017 3.5625,2.1875 C3.63356781,2.13419914 3.69669914,2.07106781 3.75,2 C4.06066017,1.58578644 4.64828644,1.50183983 5.0625,1.8125 C5.13356781,1.86580086 5.19669914,1.92893219 5.25,2 C5.56066017,2.41421356 6.14828644,2.49816017 6.5625,2.1875 C6.63356781,2.13419914 6.69669914,2.07106781 6.75,2 C7.06066017,1.58578644 7.64828644,1.50183983 8.0625,1.8125 C8.13356781,1.86580086 8.19669914,1.92893219 8.25,2 C8.56066017,2.41421356 9.14828644,2.49816017 9.5625,2.1875 C9.63356781,2.13419914 9.69669914,2.07106781 9.75,2 C10.0606602,1.58578644 10.6482864,1.50183983 11.0625,1.8125 C11.1335678,1.86580086 11.1966991,1.92893219 11.25,2 C11.5606602,2.41421356 12.1482864,2.49816017 12.5625,2.1875 C12.6335678,2.13419914 12.6966991,2.07106781 12.75,2 L13.5,1 L13.5,1" stroke="#003F87" stroke-linejoin="round" mask="url(#d)"/>
  </g>
  <g transform="translate(6.5 2)" fill="#000">
   <rect y="6.5" width="4" height="1" rx=".5"/>
   <path d="M2,0 C2.76190476,0.761904762 3.14285714,1.52380952 3.14285714,2.28571429 C3.14285714,3.04761905 2.76190476,4.95238095 2,8 C1.23809524,4.95238095 0.857142857,3.04761905 0.857142857,2.28571429 C0.857142857,1.52380952 1.23809524,0.761904762 2,0 Z"/>
   <path d="M2,7 C2.5,7.33333333 2.75,7.83333333 2.75,8.5 C2.75,9 2.5,9.41666667 2,9.75 C1.5,9.41666667 1.25,9 1.25,8.5 C1.25,7.83333333 1.5,7.33333333 2,7 Z"/>
   <path d="M2,6.25 C2,7.08333333 2,7.66666667 2,8 C2,8 2,8 2,8 C2,8.40791845 1.66931676,8.73860168 1.26139832,8.73860168 C0.922477902,8.73860168 0.627049705,8.50793832 0.544788136,8.17915254 L0.5,8 L0.5,8 C1.0919124,8 1.61211029,7.607614 1.77472113,7.03847605 L2,6.25 L2,6.25 Z"/>
   <path d="M3.5,6.25 C3.5,7.08333333 3.5,7.66666667 3.5,8 C3.5,8 3.5,8 3.5,8 C3.5,8.40791845 3.16931676,8.73860168 2.76139832,8.73860168 C2.4224779,8.73860168 2.1270497,8.50793832 2.04478814,8.17915254 L2,8 L2,8 C2.5919124,8 3.11211029,7.607614 3.27472113,7.03847605 L3.5,6.25 L3.5,6.25 Z" transform="matrix(-1 0 0 1 5.5 0)"/>
  </g>
  <path d="M7.75,6.20209957 C7.75,7.20209957 7.23215573,9.39406064 6,9.70209957 C5,9.95209957 4,9.20209957 4,7.95209957 C4,7.45209957 4.33333333,7.11876624 5,6.95209957 C5,7.78543291 5.33333333,8.20209957 6,8.20209957 C6.40834401,8.20209957 6.96683186,6.95245133 7,6.20209957 C7.01398834,5.88564605 6.84732167,5.55231271 6.5,5.20209957 C7.16666667,5.20209957 7.58333333,5.53543291 7.75,6.20209957 Z" fill="#000" transform="matrix(1 0 0 -1 0 14.952)"/>
  <path d="M13,6.20209957 C13,7.20209957 12.4821557,9.39406064 11.25,9.70209957 C10.25,9.95209957 9.25,9.20209957 9.25,7.95209957 C9.25,7.45209957 9.58333333,7.11876624 10.25,6.95209957 C10.25,7.78543291 10.5833333,8.20209957 11.25,8.20209957 C11.658344,8.20209957 12.2168319,6.95245133 12.25,6.20209957 C12.2639883,5.88564605 12.0973217,5.55231271 11.75,5.20209957 C12.4166667,5.20209957 12.8333333,5.53543291 13,6.20209957 Z" fill="#000" transform="rotate(180 11.125 7.476)"/>
 </g>
</svg>
