<svg xmlns="http://www.w3.org/2000/svg" width="20" height="20">
 <path fill="#693f23" stroke="#fff" stroke-width="2" d="M0 0H20V20H0z"/>
 <path fill="#fff" d="M -0.0816 20.2028 V 12.5288 L 4.3704 8.4032 C 4.824 7.922 4.95 7.9268 5.4648 8.3804 L 20.31 19.448 V 20.2028 Z M 0.6108 12.8036 V 19.4192 H 19.236 L 10.776 13.16 C 10.2348 14.5676 10.0584 13.7456 8.7672 12.9836 H 8.508 C 8.25 15.3728 7.7268 14.2724 6.7596 12.416 C 6.6852 12.3284 6.546 12.4208 6.4392 12.4232 L 5.7444 15.464 C 5.6364 15.7652 5.1948 15.6476 5.1756 15.4268 L 4.8852 13.3688 C 4.8684 13.1756 4.6296 13.2368 4.584 13.364 C 3.792 14.528 3.4068 14.9372 3.36 13.2428 C 3.3576 13.094 3.15 13.088 3.0696 13.2404 C 1.7052 14.9996 1.6452 14.9996 1.4844 14.594 V 12.5528 C 1.3848 12.29 1.188 12.3056 1.0872 12.3884 Z"/>
</svg>
