<svg width="20" height="20" xmlns="http://www.w3.org/2000/svg">
 <rect style="fill:#fff;fill-rule:evenodd;stroke:#000" width="19" height="19" x=".5" y=".5" rx="1.5" ry="1.5"/>
 <path d="m2.3372541 13.272179.3772186.546199.625998.183198-.4028991.527541.019212.651971-.626224-.220161-.6141244.219742.015871-.663608-.3987616-.516163.6360331-.189971zM5.5287821 12.78109l.3772187.546199.625998.183198-.4028991.527541.019212.651971-.626224-.22016-.6141244.219741.015871-.663608-.3987616-.516163.636033-.189971zM8.5558813 13.046959l.3772187.546199.6259979.183198-.4028991.527541.019212.651971-.626224-.22016-.6141244.219741.015871-.663608-.3987616-.516163.6360331-.189971zM11.038303 13.933678l.377219.546199.625998.183198-.402899.527541.01921.651971-.626224-.220161-.614125.219742.01587-.663608-.398761-.516163.636033-.189971zM12.205051 16.679771l.377219.546199.625998.183199-.402899.527541.01921.651971-.626224-.220161-.614125.219742.01587-.663608-.398762-.516163.636033-.189972zM16.267307 15.793419l.377219.546199.625998.183198-.402899.527541.01921.651971-.626224-.22016-.614124.219741.01587-.663608-.398761-.516163.636033-.189971zM16.188205 12.764976l.377219.546199.625998.183199-.402899.527541.01921.651971-.626224-.220161-.614125.219742.01587-.663608-.398762-.516163.636033-.189972z"/>
</svg>
