<svg viewBox="0 0 540 660" width="18" height="22" xmlns="http://www.w3.org/2000/svg">
 <path style="color:#000;fill:#fff;fill-rule:evenodd;stroke:#000;stroke-width:30;stroke-linecap:round;stroke-linejoin:round;stroke-dasharray:none;stroke-opacity:1" d="M 82.478027,14.977189 V 435.69523 c -5.56559,3.66002 -12.543636,8.95366 -12.772636,13.86711 -0.22916,4.91369 10.852626,12.14513 8.975376,21.92738 -9.022216,-1.48523 -14.318536,6.43139 -18.180886,11.52699 3.0654,11.30109 -5.33835,24.64959 10.126046,33.71442 -14.887806,2.58439 -29.498728,5.36877 -29.342598,22.62074 10.893932,8.2129 14.809651,17.15566 12.056671,26.08745 -43.227774,35.77939 -43.924057,71.3622 -30.96,78.17581 11.598249,6.09577 17.790079,-8.64109 26.728039,-7.97356 14.230132,-2.26266 23.755978,1.29619 44.761818,9.01362 26.271993,-13.34721 32.960243,-10.52529 47.983803,-11.00702 23.14433,-0.74239 30.61767,1.3836 44.99201,3.55354 14.37372,2.16992 23.0851,-12.78499 37.16729,-16.98723 17.71641,-5.28691 33.33296,-1.49233 51.55094,-7.45354 18.21911,-5.96143 21.23647,-26.30622 31.18373,-41.25466 25.44917,-5.77923 39.46629,-18.32503 51.32073,-31.63436 l 83.77028,-1.8198 c 37.32735,-8.25503 54.66336,-17.37954 53.04684,-31.80799 -1.61722,-14.42844 -12.65335,-16.20524 -19.67679,-24.00743 8.22454,-2.01506 5.35303,-11.07022 -1.03574,-11.61366 0.12376,-20.59716 22.80455,-24.61272 20.71241,-47.14817 V 14.977189 Z"/>
 <path style="color:#000;fill:#000;fill-rule:evenodd;stroke:#000;stroke-width:30;stroke-linecap:round;stroke-linejoin:round;stroke-dasharray:none;stroke-opacity:1" d="m 82.478467,359.97719 v 75.72128 c -5.56561,3.66002 -12.543726,8.95366 -12.772726,13.86711 -0.22916,4.91369 10.852666,12.14513 8.975436,21.92738 -9.022276,-1.48523 -14.318626,6.43139 -18.181006,11.52699 3.06544,11.30109 -5.33834,24.64959 10.126126,33.71442 -14.887886,2.58439 -29.498928,5.36877 -29.342768,22.62074 10.893982,8.2129 14.80637,17.15566 12.05335,26.08745 -43.228034,35.77939 -43.917887,71.3622 -30.953758,78.17581 11.598318,6.09577 17.787148,-8.64109 26.725168,-7.97356 14.230182,-2.26266 23.756108,1.29619 44.762088,9.01362 26.272123,-13.34721 32.960413,-10.52529 47.984063,-11.00702 23.14447,-0.74239 30.61785,1.3836 44.9923,3.55354 14.3738,2.16992 23.08522,-12.78499 37.1675,-16.98723 17.7165,-5.28691 33.33316,-1.49233 51.55123,-7.45354 18.21923,-5.96143 21.2366,-26.30622 31.18391,-41.25466 25.44933,-5.77923 39.46653,-18.32503 51.32106,-31.63436 l 83.77076,-1.8198 c 37.32756,-8.25503 54.66367,-17.37954 53.04715,-31.80799 -1.61723,-14.42844 -12.65343,-16.20524 -19.6769,-24.00743 1.98568,-20.03596 11.8004,-45.01614 19.67678,-58.76183 v -63.50092 z"/>
 <path style="fill:none;stroke:#ffcd00;stroke-width:30px;stroke-linecap:round;stroke-linejoin:miter;stroke-opacity:1" d="m 289.66876,610.40099 c -0.49731,-22.16599 1.28088,-44.4164 -1.20483,-66.51148 -6.49099,-15.70942 -4.11591,-33.13647 -6.38292,-49.62536 2.37905,-13.69176 0.55618,-30.55544 10.46633,-41.34222 14.00429,-10.96786 26.61631,8.58451 38.33842,14.4017 11.54633,7.25941 23.69698,13.94552 36.56831,18.54707 15.95681,4.17642 5.73092,-19.58277 4.66369,-28.19559 -5.96629,-17.015 -14.86898,-33.53752 -15.48279,-51.91313 -4.34002,-9.65127 -6.45356,-27.20841 10.17262,-22.93598 20.57536,3.25798 30.99261,23.61711 46.54477,35.19692 8.39207,3.37174 19.30739,22.94607 27.38562,14.46775 1.15035,-14.23056 6.82573,-28.63095 15.09736,-40.42448 7.64123,-14.57157 24.92828,-21.51344 36.06761,-32.089"/>
 <path d="M288.50688 84.908295V67.296339h-54.68976v17.611956h22.24668v70.077045c0 9.08406-4.63472 15.57268-15.75807 15.57268-6.85939 0-12.79184-2.41006-17.42656-12.97723l-14.46034 10.93795c5.19089 11.67951 15.01651 21.13434 33.74079 21.13434 20.94896 0 34.48236-11.49411 34.48236-34.85313V84.908295ZM439.98114 187.79919V170.18724H426.26235V84.908295h13.71879V67.296339h-48.20115v17.611956h13.90418V117.90754H348.76974V84.908295h13.71879V67.296339h-48.20114v17.611956h13.90417v85.278945h-13.90417v17.61195h48.20114v-17.61195h-13.71879v-34.85313h56.91443v34.85313h-13.90418v17.61195zM619.07844 84.908295V67.296339h-32.81386l-42.26869 82.127331h-.74156L498.76097 67.296339H466.1325v17.611956h15.2019v85.278945h-13.71878v17.61195h45.60569v-17.61195h-12.60645v-59.32448h.74156l36.89241 68.40854h9.26945l35.03852-66.74004h.74156v57.65598h-11.8649v17.61195h46.16186V170.18724H603.87654V84.908295Z" transform="matrix(.81571 0 0 1.22592 -48.097 29.977)" aria-label="JHM" style="font-weight:600;font-size:185.389px;line-height:1.25;font-family:'Zilla Slab';-inkscape-font-specification:'Zilla Slab Semi-Bold';text-align:center;letter-spacing:12.2474px;text-anchor:middle;fill:#bf2033;stroke-width:13.2419"/>
</svg>
