<svg width="17" height="21" xmlns="http://www.w3.org/2000/svg" xmlns:xlink="http://www.w3.org/1999/xlink">
 <defs>
  <path id="a" d="M0 0H15V6H0z"/>
 </defs>
 <g fill="none" fill-rule="evenodd">
  <path d="M15,0.5 C15.4142136,0.5 15.7892136,0.667893219 16.0606602,0.939339828 C16.3321068,1.21078644 16.5,1.58578644 16.5,2 L16.5,19 C16.5,19.4142136 16.3321068,19.7892136 16.0606602,20.0606602 C15.7892136,20.3321068 15.4142136,20.5 15,20.5 L2,20.5 C1.58578644,20.5 1.21078644,20.3321068 0.939339828,20.0606602 C0.667893219,19.7892136 0.5,19.4142136 0.5,19 L0.5,2 C0.5,1.58578644 0.667893219,1.21078644 0.939339828,0.939339828 C1.21078644,0.667893219 1.58578644,0.5 2,0.5 Z" stroke="#000" fill="#FFF" fill-rule="nonzero"/>
  <path d="M2,10 L6.71922359,10 C7.17809124,10 7.57807434,10.3122974 7.68936609,10.7574644 L8,12 L8,12 L2,12 L2,10 Z" fill="#000"/>
  <path stroke="#000" stroke-width=".75" stroke-linecap="round" stroke-linejoin="round" d="M2.5 10.5 3.5 3.5M6.5 10.5 5.5 3.5M3.5 3.5 4.5 2.5 5.5 3.5"/>
  <path stroke="#000" stroke-width=".5" stroke-linecap="round" stroke-linejoin="round" d="M4.5 2.5 4.5 10.5M2.5 10.5 5.5 4.5M7.5 5.75C7.66666667 5.5 7.75 5.25 7.75 5 7.75 4.75 7.66666667 4.5 7.5 4.25M9 6.5C9.33333333 6 9.5 5.5 9.5 5 9.5 4.5 9.33333333 4 9 3.5M11 7.25C11.3333333 6.5 11.5 5.75 11.5 5 11.5 4.25 11.3333333 3.5 11 2.75M6.5 10.5 3.5 4.5"/>
  <path d="M11.875,0 C12.5826064,0 12.890625,1 13.5,1 C13.5,1.33333333 13.5,1.66666667 13.5,2 C12.826903,2 12.484375,1 11.875,1 C11.265625,1 11.0625,2 10.25,2 C9.4375,2 9.234375,1 8.625,1 C8.015625,1 7.8125,2 7,2 C6.1875,2 6.1875,1 5.375,1 C4.5625,1 4.5625,2 3.75,2 C2.9375,2 2.734375,1 2.125,1 C1.515625,1 1.17309704,2 0.5,2 C0.5,1.66666667 0.5,1.33333333 0.5,1 C1.109375,1 1.41073139,0 2.125,0 C2.83926861,0 3.140625,1 3.75,1 C4.359375,1 4.5625,0 5.375,0 C6.1875,0 6.390625,1 7,1 C7.609375,1 7.8125,0 8.625,0 C9.4375,0 9.640625,1 10.25,1 C10.859375,1 11.1673936,0 11.875,0 Z" fill="#FFF" fill-rule="nonzero" transform="translate(1.5 11)"/>
  <g transform="translate(1.5 11)">
   <mask id="b" fill="#fff">
    <use xlink:href="#a"/>
   </mask>
   <path d="M11.875 1C12.5826064 1 12.890625 2 13.5 2 13.5 2.33333333 13.5 2.66666667 13.5 3 12.826903 3 12.484375 2 11.875 2 11.265625 2 11.0625 3 10.25 3 9.4375 3 9.234375 2 8.625 2 8.015625 2 7.8125 3 7 3 6.1875 3 6.1875 2 5.375 2 4.5625 2 4.5625 3 3.75 3 2.9375 3 2.734375 2 2.125 2 1.515625 2 1.17309704 3 .5 3 .5 2.66666667.5 2.33333333.5 2 1.109375 2 1.41073139 1 2.125 1 2.83926861 1 3.140625 2 3.75 2 4.359375 2 4.5625 1 5.375 1 6.1875 1 6.390625 2 7 2 7.609375 2 7.8125 1 8.625 1 9.4375 1 9.640625 2 10.25 2 10.859375 2 11.1673936 1 11.875 1ZM11.875 3C12.5826064 3 12.890625 4 13.5 4 13.5 4.33333333 13.5 4.66666667 13.5 5 12.826903 5 12.484375 4 11.875 4 11.265625 4 11.0625 5 10.25 5 9.4375 5 9.234375 4 8.625 4 8.015625 4 7.8125 5 7 5 6.1875 5 6.1875 4 5.375 4 4.5625 4 4.5625 5 3.75 5 2.9375 5 2.734375 4 2.125 4 1.515625 4 1.17309704 5 .5 5 .5 4.66666667.5 4.33333333.5 4 1.109375 4 1.41073139 3 2.125 3 2.83926861 3 3.140625 4 3.75 4 4.359375 4 4.5625 3 5.375 3 6.1875 3 6.390625 4 7 4 7.609375 4 7.8125 3 8.625 3 9.4375 3 9.640625 4 10.25 4 10.859375 4 11.1673936 3 11.875 3Z" fill="#003F87" fill-rule="nonzero" mask="url(#b)"/>
  </g>
  <path d="M13,8 C13.5,7 13.75,6 13.75,5 C13.75,4 13.5,3 13,2" stroke="#000" stroke-width=".5" stroke-linecap="round" stroke-linejoin="round"/>
 </g>
</svg>
