<svg width="20" height="20" xmlns="http://www.w3.org/2000/svg">
 <g fill="none">
  <rect stroke="#FFCD00" fill="#693F23" fill-rule="evenodd" x=".5" y=".5" width="19" height="19" rx="2"/>
  <path d="M14,4 C14.25,5.5 15,6 15,7 C15,9.25 12,9.25 10.25,10.75 C10.25,9.25 10.4070432,9.31329877 11.3627273,8.64285714 C12.1801407,8.06941659 12.3116197,8.0776368 12.9772727,7 C13.6429257,5.9223632 12.9672727,5.39285714 14,4 Z M16.5,7.25 C16.5,8.32142857 16.0181818,10.5 15,10.5 C13.9818182,10.5 12.75,10.25 11.75,10.75 C11.75,9.25 14.75,9.5 16.5,7.25 Z M8,2 C12.75,3.75 14.0029365,6.46218821 11.5,8.25 C10.3333333,9.08333333 9.83333333,9.91666667 10,10.75 C8.32909091,10.0595238 7.49363636,9.14285714 7.49363636,8 C7.49363636,5.42857143 10.25,5.5 8,2 Z M3.5,7.25 C4.31454545,7.46428571 4.75,8 5.34090909,9.25 C5.73484848,10.0833333 6.20454545,10.5 6.75,10.5 C6.08333333,10.5 5.33333333,10.4166667 4.5,10.25 C3.25,10 4.5,9 3.5,7.25 Z M5.75,4 C8.75,5.25 6.90029045,6.54495768 7.29,8.42857143 C7.43832364,9.14547572 8,9.5 8.5,10.5 C7,10.5 5.75,10.25 5.25,8.25 C4.75,6.25 7,6 5.75,4 Z" stroke="#693F23" stroke-width=".25" fill="#FFCD00" fill-rule="evenodd"/>
  <path d="M4,11 L16,11 L16,11.5 L4,11.5 L4,11 Z M5.75,13 L5.75,17.5 L7.25,17.5 L7.25,13.25 L9.25,14 L9.25,17.5 L10.75,17.5 L10.75,14 L12.75,13.25 L12.75,17.5 L14.25,17.5 L14.25,13 L16,12.25 L16,12 L4,12 L4,12.25 L5.75,13 Z" fill="#FFCD00" fill-rule="evenodd"/>
  <path stroke="#693F23" stroke-width=".25" d="M10 13 10 17.5M13.5 13 13.5 17.5M6.5 13 6.5 17.5"/>
 </g>
</svg>
