<svg width="20" height="20" xmlns="http://www.w3.org/2000/svg">
 <g fill="none" fill-rule="evenodd">
  <rect stroke="#FFF" fill="#6CC24A" x=".5" y=".5" width="19" height="19" rx="2"/>
  <path fill="#003F87" d="M0 2.75 18 2.75 18 11 0 11z" transform="translate(1 8)"/>
  <path d="M0,0.526315789 L0.75,1.05263158 L4,-1 L6.75,0.789473684 L10,-0.5 L15,2.36842105 L18,0.842105263 L18,2.89473684 C17.7003094,3.19954105 17.2003094,3.37497964 16.5,3.42105263 C15.4495359,3.49016211 15,3.15789474 14,3.15789474 C13.3333333,3.15789474 12.8333333,3.50877193 12.5,4.21052632 C12.1666667,4.73684211 11.5833333,5 10.75,5 C9.91666667,5 6.33333333,4.56140351 0,3.68421053 L0,0.526315789 Z" fill="#FFF" transform="translate(1 8)"/>
  <path d="M0,8.2173913 C1.66666667,7.28985507 3,6.82608696 4,6.82608696 C5.5,6.82608696 9.5,7.17391304 10.75,7.17391304 C12,7.17391304 13,7.08695652 13,6.04347826 C13,5 13.0928753,4.63086939 13.75,4.30434783 C14.4071247,3.97782626 15.75,4.25 16.5,4.25 C17,4.25 17.5,4 18,3.5 L18,4 C17.5,4.66666667 17,5 16.5,5 C15.75,5 14,4.25 14.25,6.25 C14.3755062,7.2540498 13.5,8.56521739 11.75,8.56521739 C10,8.56521739 8.71388177,8.34170858 6.25,8.91304348 C4.60741216,9.29393341 3.35741216,9.98958559 2.5,11 L0,11 L0,8.2173913 Z" fill="#FFF" transform="translate(1 8)"/>
  <path d="M1.04938725,2.3176169 C0.910429993,2.05005707 1.06470306,1.86836442 1.51220645,1.77253897 C1.5823675,1.75751514 1.73664056,1.75751514 1.97502565,1.77253897 L2.43784484,1.77253897 L3.59489284,1.5 C3.84779931,1.5710823 4.00207238,1.66192862 4.05771204,1.77253897 C4.17321261,2.00215142 4.03781045,2.49506974 4.28912163,2.59015587 C4.52817721,2.68060497 5.37763669,2.20722548 5.67757923,2.3176169 C6.03487135,2.44911538 5.87901319,3.22990369 6.37180802,3.40777278 C6.61382749,3.49512714 6.61960706,2.77022711 7.06603682,2.86269484 C7.3837626,2.92850448 6.95598186,2.85056672 7.76026562,3.13523381 C7.92248007,3.19264777 8.14829411,2.52099056 8.5,2.5 C8.62029584,2.49282049 8.87029584,2.65948715 9.25,3 C9.61455768,3.31190289 9.94789102,3.56190289 10.25,3.75 C10.3554566,3.81565871 10.7551907,3.59890781 11.0371808,3.72746103 C11.1455866,3.77688089 11.2998597,3.86772722 11.5,4 C10.949744,4.19897344 10.5640613,4.28981976 10.342952,4.27253897 C9.69458645,4.22186596 8.97700924,4.08417321 8.45449441,3.95285071 C7.70868332,3.76540766 6.71434295,3.79297075 6.14039843,3.68031174 C5.62234134,3.57862283 5.17156155,3.2874364 4.75194083,3.13523381 C4.39355569,3.00524226 3.93073649,2.82354961 3.36348324,2.59015587 L1.04938725,2.3176169 Z" fill="#6CC24A" transform="translate(1 8)"/>
 </g>
</svg>
