<?xml version="1.0" encoding="UTF-8" standalone="no"?>
<svg
   width="28"
   height="20"
   version="1.1"
   id="svg3165"
   sodipodi:docname="shield_hex_vert_green_yellow_3.svg"
   inkscape:version="1.2.1 (9c6d41e4, 2022-07-14)"
   xmlns:inkscape="http://www.inkscape.org/namespaces/inkscape"
   xmlns:sodipodi="http://sodipodi.sourceforge.net/DTD/sodipodi-0.dtd"
   xmlns="http://www.w3.org/2000/svg"
   xmlns:svg="http://www.w3.org/2000/svg">
  <defs
     id="defs3169" />
  <sodipodi:namedview
     id="namedview3167"
     pagecolor="#ffffff"
     bordercolor="#666666"
     borderopacity="1.0"
     inkscape:showpageshadow="2"
     inkscape:pageopacity="0.0"
     inkscape:pagecheckerboard="0"
     inkscape:deskcolor="#d1d1d1"
     showgrid="false"
     inkscape:zoom="11.8"
     inkscape:cx="10.805085"
     inkscape:cy="10"
     inkscape:window-width="1440"
     inkscape:window-height="456"
     inkscape:window-x="0"
     inkscape:window-y="23"
     inkscape:window-maximized="0"
     inkscape:current-layer="svg3165" />
  <path
     d="M 2,17.277778 C 1.3541604,17.158178 0.5,16.65682 0.5,16 V 4.5 C 0.5,3.7246511 1.2376133,2.8634049 2,2.7222222 L 13.5,0.59259258 c 0.16388,-0.0303482 0.33194,-0.0455223 0.5,-0.0455223 0.16806,0 0.33612,0.0151741 0.5,0.0455223 L 26,2.7222222 C 26.762387,2.8634049 27.5,3.7246511 27.5,4.5 v 11 c 0,0.775349 -0.737613,1.636595 -1.5,1.777778 l -11.5,2.129629 c -0.163881,0.03035 -0.33194,0.04553 -0.5,0.04553 -0.16806,0 -0.336119,-0.01518 -0.5,-0.04553 z"
     fill="#009140"
     style="fill:#006747;fill-rule:evenodd;stroke:#ffcd00;stroke-width:1;stroke-miterlimit:4;stroke-dasharray:none"
     id="path3163" />
</svg>
