<svg xmlns="http://www.w3.org/2000/svg" width="20" height="20">
 <path fill="#693f23" stroke="#fff" stroke-width="2" d="M0 0H20V20H0z"/>
 <path fill="#fff" d="M 20 20 H 0 M 0.012 15.563 C 2.853 14.514 5.384 13.001 8.039 11.056 C 8.903 10.315 10.015 10.5 10.817 10.964 C 11.311 11.149 12.237 11.211 12.608 10.902 C 13.133 10.624 14.892 12.353 16.467 13.649 C 17.208 14.112 17.887 13.248 19.986 15.224 V 16.212 C 18.782 14.73 18.003 14.69 17.238 14.699 C 15.364 14.513 13.898 12.728 12.718 11.58 C 11.762 11.931 10.519 12.026 9.913 11.357 C 9.371 10.465 6.949 13.652 4.175 14.736 C 2.518 15.724 1.211 16.266 0 16.489 Z M 4.655 15.536 C 5.99 14.143 7.691 13.16 9.084 12.295 C 9.494 12.046 11.313 12.104 11.372 12.544 C 10.976 13.732 10.389 14.759 9.773 15.375 C 10.213 14.289 10.374 13.454 10.242 12.706 C 9.348 13.351 8.497 14.231 7.603 15.301 C 7.603 14.964 7.867 14.348 8.087 13.85 C 7.089 14.172 6.004 14.817 4.846 15.58 Z M 11.994 12.42 C 12.472 12.188 12.979 12.275 12.994 12.796 C 12.414 14.217 11.399 15.377 10.689 16.232 C 11.356 14.855 11.907 13.507 11.979 12.477 Z"/>
 <path fill="#fff" d="M 11.8514 11.4122 C 12.9609 8.5401 12.3673 7.8639 10.919 7.7092 C 11.1864 4.8294 7.5121 4.6418 6.4957 6.1587 C 3.8378 4.2197 1.8673 5.2361 1.7266 6.2056 C 1.4298 7.0498 2.4931 8.5352 5.2448 7.8786 C 5.3386 8.7536 6.2297 8.7382 6.4957 8.7228 C 6.5587 9.5831 8.7959 10.6093 10.6607 9.4669 C 11.1038 9.6531 11.4769 10.3412 11.3369 11.3898 Z M 11.7394 10.5225 C 11.6617 8.9748 10.8189 8.818 10.4269 8.9552 C 9.0948 9.6405 7.5667 9.3563 7.2237 8.7396 C 7.1523 8.5863 7.538 8.3952 7.4512 8.132 C 7.3651 7.8569 7.132 7.845 6.9843 7.9192 C 6.3921 8.2552 5.9028 8.027 5.9371 7.7827 C 5.9259 7.5552 6.1758 7.4012 6.1023 7.1394 C 5.977 6.8384 5.6529 6.872 5.4646 7.0603 C 3.534 8.0046 2.2166 6.8699 2.3321 6.3799 C 2.3706 5.8318 4.2837 5.3026 6.2066 6.774 C 6.726 7.2647 6.9857 6.9854 7.0816 6.6396 C 7.2069 5.6974 10.947 5.178 10.1203 8.2069 C 10.0188 8.5513 10.6068 8.6318 10.7069 8.4813 C 11.7947 8.0144 12.011 9.1204 11.7618 10.5162 Z"/>
</svg>
