<svg width="20" height="20" viewBox="0 0 5.292 5.292" xmlns="http://www.w3.org/2000/svg">
 <rect style="opacity:1;fill:#fff;stroke:none;stroke-width:.264583;stroke-linecap:round;stroke-linejoin:round;stroke-dashoffset:.299999" width="5.027" height="5.027" x=".132" y=".132" rx=".529" ry=".529"/>
 <path style="opacity:1;fill:#9bcbeb;fill-opacity:1;stroke:none;stroke-width:.264583;stroke-linecap:round;stroke-linejoin:round;stroke-dashoffset:.299999" d="M.125 2.117H5.152V4.497999999999999H.125z"/>
 <path style="fill:#6cc24a;fill-opacity:1;stroke:#006747;stroke-width:.264583px;stroke-linecap:butt;stroke-linejoin:miter;stroke-opacity:1" d="m 0.13229166,1.9844458 c 0,0 1.45520834,-1.05833332 3.30729164,-0.79375 C 5.2916666,1.4552791 5.1593749,0.92611247 5.1593749,0.92611247 V 2.2490291 H 0.13229166 Z"/>
 <path style="opacity:1;stroke-width:.264583;stroke-linecap:round;stroke-linejoin:round;stroke-dashoffset:.299999" d="M 1.0583333 1.3229166 L 0.79374998 3.9687499 L 0.13229166 3.9687499 L 0.13229166 4.4979166 L 0.14882812 4.4979166 C 0.13798658 4.5402497 0.13229166 4.5844023 0.13229166 4.6302082 C 0.13229166 4.9233663 0.36830029 5.1593749 0.66145832 5.1593749 L 4.6302082 5.1593749 C 4.9233662 5.1593749 5.1593749 4.9233663 5.1593749 4.6302082 C 5.1593749 4.5844023 5.15368 4.5402497 5.1428384 4.4979166 L 5.1593749 4.4979166 L 5.1593749 3.7041666 L 4.4979166 3.9687499 L 3.7041666 3.7041666 L 3.4395833 3.1749999 L 2.6458333 3.9687499 L 1.8520833 3.4395833 L 1.3229166 3.9687499 L 1.0583333 1.3229166 z"/>
 <rect style="opacity:1;fill:none;stroke:#000;stroke-width:.264583;stroke-linecap:round;stroke-linejoin:round;stroke-dashoffset:.299999" width="5.027" height="5.027" x=".132" y=".132" rx=".529" ry=".529"/>
</svg>
