<?xml version="1.0" encoding="UTF-8" standalone="no"?>
<svg
   width="16"
   height="20"
   version="1.1"
   id="svg6"
   sodipodi:docname="shield_mx_mx_2.svg"
   inkscape:version="1.1.2 (0a00cf5339, 2022-02-04)"
   xmlns:inkscape="http://www.inkscape.org/namespaces/inkscape"
   xmlns:sodipodi="http://sodipodi.sourceforge.net/DTD/sodipodi-0.dtd"
   xmlns="http://www.w3.org/2000/svg"
   xmlns:svg="http://www.w3.org/2000/svg">
  <defs
     id="defs10" />
  <sodipodi:namedview
     id="namedview8"
     pagecolor="#505050"
     bordercolor="#eeeeee"
     borderopacity="1"
     inkscape:pageshadow="0"
     inkscape:pageopacity="0"
     inkscape:pagecheckerboard="0"
     showgrid="true"
     inkscape:zoom="32"
     inkscape:cx="7.171875"
     inkscape:cy="15.796875"
     inkscape:window-width="2256"
     inkscape:window-height="1440"
     inkscape:window-x="0"
     inkscape:window-y="0"
     inkscape:window-maximized="1"
     inkscape:current-layer="svg6">
    <inkscape:grid
       type="xygrid"
       id="grid1364"
       dotted="true" />
  </sodipodi:namedview>
  <path
     id="path1144"
     d="M 11.132656,1.8319984 C 12.1461,1.8319984 13.1107,1.3971528 13.985544,1 L 15,2.3043976 v 2.7864185 c -0.19621,0.5594764 -0.438768,1.2929434 -0.438768,1.9239927 0,0.780274 0.145468,1.5197952 0.438768,2.1840052 -2.8e-4,4.771716 -2.892303,8.323583 -6.956036,9.786459 -0.01641,0.0082 -0.01322,0.0041 -0.044256,0.01473 -0.057011,-0.02684 -0.0609,-0.02504 -0.1043389,-0.045 C 3.874025,17.472489 1,13.93876 1,9.198814 1.2932611,8.534981 1.4382933,7.7948947 1.4382933,7.0146942 1.4382933,6.3836776 1.1961244,5.6502761 1,5.0908161 V 2.3041522 L 2.0254557,1 C 2.9001446,1.3969073 3.864589,1.8256903 4.8777223,1.8256903 5.9961668,1.8256903 7.0550334,1.4782082 7.9998223,1 8.947333,1.4816772 10.009933,1.8319984 11.132656,1.8319984 Z"
     sodipodi:nodetypes="scccscccccscccscs"
     style="fill:#ffffff;stroke-width:2;stroke-miterlimit:4;stroke-dasharray:none;stroke:#000000;stroke-linejoin:round;stroke-linecap:round;paint-order:markers stroke fill" />
  <path
     style="fill:none;stroke:#000000;stroke-width:1px;stroke-linecap:butt;stroke-linejoin:miter;stroke-opacity:1"
     d="m 0.5,4.5 h 15"
     id="path855" />
</svg>
