<svg width="17" height="21" xmlns="http://www.w3.org/2000/svg" xmlns:xlink="http://www.w3.org/1999/xlink">
 <defs>
  <path id="a" d="M0 0H15V6H0z"/>
 </defs>
 <g fill="none" fill-rule="evenodd">
  <path d="M15,0.5 C15.4142136,0.5 15.7892136,0.667893219 16.0606602,0.939339828 C16.3321068,1.21078644 16.5,1.58578644 16.5,2 L16.5,19 C16.5,19.4142136 16.3321068,19.7892136 16.0606602,20.0606602 C15.7892136,20.3321068 15.4142136,20.5 15,20.5 L2,20.5 C1.58578644,20.5 1.21078644,20.3321068 0.939339828,20.0606602 C0.667893219,19.7892136 0.5,19.4142136 0.5,19 L0.5,2 C0.5,1.58578644 0.667893219,1.21078644 0.939339828,0.939339828 C1.21078644,0.667893219 1.58578644,0.5 2,0.5 Z" stroke="#000" fill="#FFF" fill-rule="nonzero"/>
  <path fill="#003F87" d="M4.5 10 6 12.5 2 12.5 2 4 3.5 4 3.5 6 4 6 4 9 4.5 9z"/>
  <path d="M5.75 12.5 6.23686029 3.24965446C6.24422626 3.10970102 6.35985285 3 6.5 3 6.64014715 3 6.75577374 3.10970102 6.76313971 3.24965446L7.25 12.5 7.25 12.5 5.75 12.5ZM9.75 12.5 10.2368603 3.24965446C10.2442263 3.10970102 10.3598529 3 10.5 3 10.6401471 3 10.7557737 3.10970102 10.7631397 3.24965446L11.25 12.5 11.25 12.5 9.75 12.5Z" fill="#003F87"/>
  <path fill="#003F87" transform="matrix(-1 0 0 1 26 0)" d="M13.5 10 15 12.5 11 12.5 11 4 12.5 4 12.5 6 13 6 13 9 13.5 9z"/>
  <path d="M11.875,0 C12.5826064,0 12.890625,1 13.5,1 C13.5,1.33333333 13.5,1.66666667 13.5,2 C12.826903,2 12.484375,1 11.875,1 C11.265625,1 11.0625,2 10.25,2 C9.4375,2 9.234375,1 8.625,1 C8.015625,1 7.8125,2 7,2 C6.1875,2 6.1875,1 5.375,1 C4.5625,1 4.5625,2 3.75,2 C2.9375,2 2.734375,1 2.125,1 C1.515625,1 1.17309704,2 0.5,2 C0.5,1.66666667 0.5,1.33333333 0.5,1 C1.109375,1 1.41073139,0 2.125,0 C2.83926861,0 3.140625,1 3.75,1 C4.359375,1 4.5625,0 5.375,0 C6.1875,0 6.390625,1 7,1 C7.609375,1 7.8125,0 8.625,0 C9.4375,0 9.640625,1 10.25,1 C10.859375,1 11.1673936,0 11.875,0 Z" fill="#FFF" fill-rule="nonzero" transform="translate(1.5 11)"/>
  <g transform="translate(1.5 11)">
   <mask id="b" fill="#fff">
    <use xlink:href="#a"/>
   </mask>
   <path d="M11.875 1C12.5826064 1 12.890625 2 13.5 2 13.5 2.33333333 13.5 2.66666667 13.5 3 12.826903 3 12.484375 2 11.875 2 11.265625 2 11.0625 3 10.25 3 9.4375 3 9.234375 2 8.625 2 8.015625 2 7.8125 3 7 3 6.1875 3 6.1875 2 5.375 2 4.5625 2 4.5625 3 3.75 3 2.9375 3 2.734375 2 2.125 2 1.515625 2 1.17309704 3 .5 3 .5 2.66666667.5 2.33333333.5 2 1.109375 2 1.41073139 1 2.125 1 2.83926861 1 3.140625 2 3.75 2 4.359375 2 4.5625 1 5.375 1 6.1875 1 6.390625 2 7 2 7.609375 2 7.8125 1 8.625 1 9.4375 1 9.640625 2 10.25 2 10.859375 2 11.1673936 1 11.875 1ZM11.875 3C12.5826064 3 12.890625 4 13.5 4 13.5 4.33333333 13.5 4.66666667 13.5 5 12.826903 5 12.484375 4 11.875 4 11.265625 4 11.0625 5 10.25 5 9.4375 5 9.234375 4 8.625 4 8.015625 4 7.8125 5 7 5 6.1875 5 6.1875 4 5.375 4 4.5625 4 4.5625 5 3.75 5 2.9375 5 2.734375 4 2.125 4 1.515625 4 1.17309704 5 .5 5 .5 4.66666667.5 4.33333333.5 4 1.109375 4 1.41073139 3 2.125 3 2.83926861 3 3.140625 4 3.75 4 4.359375 4 4.5625 3 5.375 3 6.1875 3 6.390625 4 7 4 7.609375 4 7.8125 3 8.625 3 9.4375 3 9.640625 4 10.25 4 10.859375 4 11.1673936 3 11.875 3Z" fill="#003F87" fill-rule="nonzero" mask="url(#b)"/>
  </g>
  <path d="M3.5,8.75 C5.16666667,7.75 6.83333333,7.25 8.5,7.25 C10.1666667,7.25 11.8333333,7.75 13.5,8.75" stroke="#003F87" stroke-width=".75" stroke-linecap="square"/>
  <path d="M3.5,8 C4.07599049,7.69662928 4.65932383,7.11329595 5.25,6.25 C5.84067617,5.38670405 6.25734284,4.38670405 6.5,3.25" stroke="#003F87" stroke-width=".75" stroke-linecap="round" stroke-linejoin="round"/>
  <path d="M10.5,8 C11.0759905,7.69662928 11.6593238,7.11329595 12.25,6.25 C12.8406762,5.38670405 13.2573428,4.38670405 13.5,3.25" stroke="#003F87" stroke-width=".75" stroke-linecap="round" stroke-linejoin="round" transform="matrix(-1 0 0 1 24 0)"/>
  <path d="M6.5,3.25 C7.16666667,5.41666667 7.83333333,6.5 8.5,6.5 C9.16666667,6.5 9.83333333,5.41666667 10.5,3.25" stroke="#003F87" stroke-width=".75" stroke-linecap="round" stroke-linejoin="round"/>
 </g>
</svg>
