<svg width="28" height="20" viewBox="0 0 7.409 5.292" xmlns="http://www.w3.org/2000/svg">
 <path d="M 3.7088781,0.13229718 C 3.443309,0.20477824 3.0559811,0.39798433 2.7649308,0.39654344 L 0.13283065,0.39690014 0.1323,3.2624133 C 0.1324023,3.3891437 0.1837725,3.5172359 0.26553076,3.6350198 0.72485869,4.1693982 1.4430762,4.6154843 2.3503484,4.9242546 2.7481977,5.0775631 3.2203301,5.159696 3.7040732,5.159696 c 0.483743,0 0.9562591,-0.082204 1.3547762,-0.2357343 C 5.9668607,4.6150251 6.6927383,4.1694378 7.152194,3.6347269 7.233968,3.5166263 7.2763664,3.385961 7.2764971,3.2594839 l 1.9e-6,-2.86258376 H 4.6449671 C 4.3537464,0.39860953 3.9744384,0.20477955 3.7088693,0.1322977 Z" fill="#ffcd00" stroke="#000" stroke-linecap="round" stroke-linejoin="round" stroke-width=".265" style="stroke-width:.2646;stroke-miterlimit:4;stroke-dasharray:none"/>
</svg>
