<svg width="27" height="26" xml:space="preserve" xmlns="http://www.w3.org/2000/svg">
 <path fill="#fff" d="m 25.97131,12.514833 c -0.04267,-0.249438 -0.265841,-0.555793 -0.481648,-0.685952 -0.06702,-0.483446 -0.183987,-0.919047 -0.61944,-1.143238 L 24.850363,7.4046808 C 24.300467,7.3242337 23.737145,7.0659758 23.227302,6.9703118 22.626216,6.4572949 22.055315,6.5081369 21.332765,6.5866173 20.935931,6.8169614 20.470103,6.9492439 20.05125,7.0029064 19.652981,6.6941886 19.076467,6.6276604 18.622133,6.8478463 17.984157,6.9822949 17.215309,6.7986047 16.686822,6.3659563 15.927228,6.5035347 15.329768,6.3775304 14.727177,6.0232369 14.564181,5.7668277 14.208277,5.774679 14.065755,5.9005633 13.786333,5.7417904 12.32888,5.5720473 12,5.6154219 V 1 H 6 V 11.5 H 1 c 0.149219,0.963618 0.8159589,1.580173 1.7073233,1.969958 0.5435504,0.227981 1.0133767,0.668033 1.2819513,1.110404 0.1931159,0.265347 0.3030473,0.601241 0.3919669,0.914804 0.054666,0.38996 0.1520011,0.726555 0.3511336,1.069693 0.4274688,0.720628 0.8331275,0.99381 1.6086822,1.29815 0.7026813,0.543246 1.2548954,0.45682 1.6739229,-0.122361 0.01355,-0.583191 0.324943,-1.090023 0.8654749,-1.355527 1.1657879,-0.260901 2.4394009,0.273708 3.0622669,1.265785 0.611001,1.349304 1.526927,2.675256 2.572096,3.756042 0.19163,0.955295 0.523131,1.714267 1.135008,2.498671 0.597503,0.08307 1.284933,0.3706 1.771886,0.726832 0.488153,-0.133061 0.96874,-0.04378 1.396221,0.2205 0.367482,0.289857 0.91517,0.05655 0.947469,-0.392022 -0.875533,-1.056969 -1.078986,-2.544242 -0.514467,-3.821512 0.164883,-0.343705 0.343004,-0.635615 0.595982,-0.922693 0.280627,-0.327797 0.318854,-0.291116 0.669757,-0.522805 0.769649,-0.478971 1.540774,-0.954528 2.318913,-1.420719 -0.116243,-0.509077 0.617803,-1.337651 0.881802,-0.979872 0.539968,-0.432979 1.138117,-0.792165 1.772116,-1.069692 v -0.0082 c 0.221918,-0.369524 0.331145,-0.765432 0.351109,-1.200228 l -0.220561,-0.91467 c 0.306255,-0.275909 0.443893,-0.681985 0.351101,-1.085841 z" style="stroke:#000;stroke-width:2;stroke-linejoin:round;stroke-miterlimit:4;stroke-dasharray:none;stroke-opacity:1;fill:none"/>
 <path fill="#fff" fill-rule="evenodd" d="m 25.97131,12.514833 c -0.04267,-0.249438 -0.265841,-0.555793 -0.481648,-0.685952 -0.06702,-0.483446 -0.183987,-0.919047 -0.61944,-1.143238 L 24.850363,7.4046808 C 24.300467,7.3242337 23.737145,7.0659758 23.227302,6.9703118 22.626216,6.4572949 22.055315,6.5081369 21.332765,6.5866173 20.935931,6.8169614 20.470103,6.9492439 20.05125,7.0029064 19.652981,6.6941886 19.076467,6.6276604 18.622133,6.8478463 17.984157,6.9822949 17.215309,6.7986047 16.686822,6.3659563 15.927228,6.5035347 15.329768,6.3775304 14.727177,6.0232369 14.564181,5.7668277 14.208277,5.774679 14.065755,5.9005633 13.786333,5.7417904 12.32888,5.5720473 12,5.6154219 V 1 H 6 V 11.5 H 1 c 0.149219,0.963618 0.8159589,1.580173 1.7073233,1.969958 0.5435504,0.227981 1.0133767,0.668033 1.2819513,1.110404 0.1931159,0.265347 0.3030473,0.601241 0.3919669,0.914804 0.054666,0.38996 0.1520011,0.726555 0.3511336,1.069693 0.4274688,0.720628 0.8331275,0.99381 1.6086822,1.29815 0.7026813,0.543246 1.2548954,0.45682 1.6739229,-0.122361 0.01355,-0.583191 0.324943,-1.090023 0.8654749,-1.355527 1.1657879,-0.260901 2.4394009,0.273708 3.0622669,1.265785 0.611001,1.349304 1.526927,2.675256 2.572096,3.756042 0.19163,0.955295 0.523131,1.714267 1.135008,2.498671 0.597503,0.08307 1.284933,0.3706 1.771886,0.726832 0.488153,-0.133061 0.96874,-0.04378 1.396221,0.2205 0.367482,0.289857 0.91517,0.05655 0.947469,-0.392022 -0.875533,-1.056969 -1.078986,-2.544242 -0.514467,-3.821512 0.164883,-0.343705 0.343004,-0.635615 0.595982,-0.922693 0.280627,-0.327797 0.318854,-0.291116 0.669757,-0.522805 0.769649,-0.478971 1.540774,-0.954528 2.318913,-1.420719 -0.116243,-0.509077 0.617803,-1.337651 0.881802,-0.979872 0.539968,-0.432979 1.138117,-0.792165 1.772116,-1.069692 v -0.0082 c 0.221918,-0.369524 0.331145,-0.765432 0.351109,-1.200228 l -0.220561,-0.91467 c 0.306255,-0.275909 0.443893,-0.681985 0.351101,-1.085841 z" style="stroke:none;stroke-width:2;stroke-linejoin:round;stroke-miterlimit:4;stroke-dasharray:none;stroke-opacity:1"/>
</svg>
