<svg width="20" height="20" xmlns="http://www.w3.org/2000/svg">
 <circle stroke="#FFF" stroke-width=".89" fill="#006747" cx="10" cy="10" r="7.445"/>
 <path d="M10,0.155 C10.3299901,0.155 10.6287401,0.288754931 10.8449926,0.505007396 C11.0674923,0.727507079 11.2026591,1.03733961 11.1946639,1.37867577 L10.945,3.52578523 L10.945,16.4742148 L11.1946639,18.6213242 C11.2026591,18.9626604 11.0674923,19.2724929 10.8449926,19.4949926 C10.6287401,19.7112451 10.3299901,19.845 10,19.845 C9.67000986,19.845 9.37125986,19.7112451 9.1550074,19.4949926 C8.93250771,19.2724929 8.79734088,18.9626604 8.80533611,18.6213242 L9.055,16.4742148 L9.055,3.52578523 L8.80533611,1.37867577 C8.79734088,1.03733961 8.93250771,0.727507079 9.1550074,0.505007396 C9.37125986,0.288754931 9.67000986,0.155 10,0.155 Z" stroke="#FFF" stroke-width=".89" fill="#006747" transform="rotate(-15 10 10)"/>
 <path d="M10,0.155 C10.3299901,0.155 10.6287401,0.288754931 10.8449926,0.505007396 C11.0674923,0.727507079 11.2026591,1.03733961 11.1946639,1.37867577 L10.945,3.52578523 L10.945,16.4742148 L11.1946639,18.6213242 C11.2026591,18.9626604 11.0674923,19.2724929 10.8449926,19.4949926 C10.6287401,19.7112451 10.3299901,19.845 10,19.845 C9.67000986,19.845 9.37125986,19.7112451 9.1550074,19.4949926 C8.93250771,19.2724929 8.79734088,18.9626604 8.80533611,18.6213242 L9.055,16.4742148 L9.055,3.52578523 L8.80533611,1.37867577 C8.79734088,1.03733961 8.93250771,0.727507079 9.1550074,0.505007396 C9.37125986,0.288754931 9.67000986,0.155 10,0.155 Z" stroke="#FFF" stroke-width=".89" fill="#006747" transform="rotate(15 10 10)"/>
 <path d="M10,0.155 C10.3299901,0.155 10.6287401,0.288754931 10.8449926,0.505007396 C11.0674923,0.727507079 11.2026591,1.03733961 11.1946639,1.37867577 L10.945,3.52578523 L10.945,16.4742148 L11.1946639,18.6213242 C11.2026591,18.9626604 11.0674923,19.2724929 10.8449926,19.4949926 C10.6287401,19.7112451 10.3299901,19.845 10,19.845 C9.67000986,19.845 9.37125986,19.7112451 9.1550074,19.4949926 C8.93250771,19.2724929 8.79734088,18.9626604 8.80533611,18.6213242 L9.055,16.4742148 L9.055,3.52578523 L8.80533611,1.37867577 C8.79734088,1.03733961 8.93250771,0.727507079 9.1550074,0.505007396 C9.37125986,0.288754931 9.67000986,0.155 10,0.155 Z" stroke="#FFF" stroke-width=".89" fill="#006747" transform="rotate(45 10 10)"/>
 <path d="M10,0.155 C10.3299901,0.155 10.6287401,0.288754931 10.8449926,0.505007396 C11.0674923,0.727507079 11.2026591,1.03733961 11.1946639,1.37867577 L10.945,3.52578523 L10.945,16.4742148 L11.1946639,18.6213242 C11.2026591,18.9626604 11.0674923,19.2724929 10.8449926,19.4949926 C10.6287401,19.7112451 10.3299901,19.845 10,19.845 C9.67000986,19.845 9.37125986,19.7112451 9.1550074,19.4949926 C8.93250771,19.2724929 8.79734088,18.9626604 8.80533611,18.6213242 L9.055,16.4742148 L9.055,3.52578523 L8.80533611,1.37867577 C8.79734088,1.03733961 8.93250771,0.727507079 9.1550074,0.505007396 C9.37125986,0.288754931 9.67000986,0.155 10,0.155 Z" stroke="#FFF" stroke-width=".89" fill="#006747" transform="rotate(75 10 10)"/>
 <path d="M10,0.155 C10.3299901,0.155 10.6287401,0.288754931 10.8449926,0.505007396 C11.0674923,0.727507079 11.2026591,1.03733961 11.1946639,1.37867577 L10.945,3.52578523 L10.945,16.4742148 L11.1946639,18.6213242 C11.2026591,18.9626604 11.0674923,19.2724929 10.8449926,19.4949926 C10.6287401,19.7112451 10.3299901,19.845 10,19.845 C9.67000986,19.845 9.37125986,19.7112451 9.1550074,19.4949926 C8.93250771,19.2724929 8.79734088,18.9626604 8.80533611,18.6213242 L9.055,16.4742148 L9.055,3.52578523 L8.80533611,1.37867577 C8.79734088,1.03733961 8.93250771,0.727507079 9.1550074,0.505007396 C9.37125986,0.288754931 9.67000986,0.155 10,0.155 Z" stroke="#FFF" stroke-width=".89" fill="#006747" transform="rotate(105 10 10)"/>
 <path d="M10,0.155 C10.3299901,0.155 10.6287401,0.288754931 10.8449926,0.505007396 C11.0674923,0.727507079 11.2026591,1.03733961 11.1946639,1.37867577 L10.945,3.52578523 L10.945,16.4742148 L11.1946639,18.6213242 C11.2026591,18.9626604 11.0674923,19.2724929 10.8449926,19.4949926 C10.6287401,19.7112451 10.3299901,19.845 10,19.845 C9.67000986,19.845 9.37125986,19.7112451 9.1550074,19.4949926 C8.93250771,19.2724929 8.79734088,18.9626604 8.80533611,18.6213242 L9.055,16.4742148 L9.055,3.52578523 L8.80533611,1.37867577 C8.79734088,1.03733961 8.93250771,0.727507079 9.1550074,0.505007396 C9.37125986,0.288754931 9.67000986,0.155 10,0.155 Z" stroke="#FFF" stroke-width=".89" fill="#006747" transform="rotate(135 10 10)"/>
 <circle fill="#006747" cx="10" cy="10" r="7"/>
 <circle fill="#FFF" cx="10" cy="10" r="3.5"/>
 <circle fill="none" stroke="#FFF" stroke-width=".5" cx="10" cy="10" r="5.75"/>
</svg>
