<svg width="20" height="20" version="1.0" xmlns="http://www.w3.org/2000/svg">
 <g stroke-width=".094">
  <path d="m287 59.9c25.8-12.6 55.6-16.2 84-12.1 26.9 4 52.6 16.1 73.1 34.1 25.9 22.5 43.1 54.7 47.6 88.7 4.1 0 8.1-1.3 12.3-1.6 42.1-4.5 85.4 11.9 115.5 41.4 21.6 21 35.1 49.3 40.2 78.7 5.1 31.3-0.3 64.2-15.6 92-14.1 26.5-37.1 47.9-64 61.1 27.3 48.4 21.4 112.6-12.5 156.4-18.7 23.4-44.4 41.4-73.2 49.9-28.8 8.6-60.3 7.8-88.6-2.2-19.6-6.9-37.8-17.9-52.5-32.6-1.4-1.1-2.5-3-4.3-3.4-8.8 8.8-18.3 17.2-29.2 23.5-36.3 21.8-82.4 26.9-122.5 13-24-9-46-24-62.5-43.7-16.5-19.6-27.7-43.8-31.7-69.2-4.7-26.9-1-55.1 9.7-80.2 1.8-3.8 3.9-7.6 5.4-11.6-44.3-20.1-74.9-65.2-80.8-113.1-3.4-27.9 2.6-56.5 14.9-81.7 13.4-26.5 35.4-48.6 61.7-62.3 26-13.6 56.1-19.1 85.2-15.2 2.5 0.4 4.9 0.7 7.4 0.9 5.3-47.6 37.8-89.9 80.4-110.8m49 19.1c-21.4 2.6-42.1 11.4-58.6 25.4-15.8 13.2-27.9 30.9-34.3 50.5-7 20.2-7.5 42.5-2.2 63.1-5-2.2-9.4-5.5-14.5-7.4-35.8-16.7-80.4-11.8-112 11.8-16.3 11.9-29.1 28.5-36.9 47.1-13.8 32.2-10.8 70.8 7.4 100.6 10.1 17.1 25.1 31 42.4 40.7 14.5 7.5 30.5 12.5 46.8 13.3-3.6 3.5-7.5 6.6-10.8 10.3-14.6 15.6-24.6 35.5-28.3 56.6-4 22-1.1 45.3 8.3 65.7 14.8 33.6 47.4 58.6 83.7 64.2 36.5 6.3 75.4-7.3 100.3-34.6 9.1-10.2 16.8-21.8 21.8-34.6 1.8 2.5 2.7 5.4 4 8.2 8 16.3 20 30.6 34.8 41.3 17.4 12.5 38.6 20.1 60.1 21 32.5 1.8 65.4-11.8 87.4-35.8 27.5-29.2 37.2-73.9 23.7-111.7-4.9-15.9-14.3-30.1-25.7-42.1-2.7-3.1-6-5.4-8.7-8.5 5.6-0.7 11.2-1.2 16.7-2.5 35.4-7.3 66.1-33.1 79.6-66.6 14.8-35 9.8-77.6-12.8-108.2-12.6-17.4-30.3-31-50.3-38.7-17.3-6.7-36.3-8.7-54.7-6.7-16.2 2.4-31.9 8.2-45.9 16.6 6.9-26.1 3.9-54.7-8.6-78.7-11.1-22.1-29.9-40.2-52.4-50.6-18.7-8.7-39.8-12.2-60.3-9.7z" fill="#006747" transform="translate(-1.165 -1.208) scale(.03199)" style="stroke-width:.09377931;stroke-miterlimit:4;stroke-dasharray:none;stroke:none;fill:#006747"/>
  <path d="m336 79c20.5-2.5 41.6 1 60.3 9.7 22.5 10.4 41.3 28.5 52.4 50.6 12.5 24 15.5 52.6 8.6 78.7 14-8.4 29.7-14.2 45.9-16.6 18.4-2 37.4 0 54.7 6.7 20 7.7 37.7 21.3 50.3 38.7 22.6 30.6 27.6 73.2 12.8 108.2-13.5 33.5-44.2 59.3-79.6 66.6-5.5 1.3-11.1 1.8-16.7 2.5 2.7 3.1 6 5.4 8.7 8.5 11.4 12 20.8 26.2 25.7 42.1 13.5 37.8 3.8 82.5-23.7 111.7-22 24-54.9 37.6-87.4 35.8-21.5-0.9-42.7-8.5-60.1-21-14.8-10.7-26.8-25-34.8-41.3-1.3-2.8-2.2-5.7-4-8.2-5 12.8-12.7 24.4-21.8 34.6-24.9 27.3-63.8 40.9-100.3 34.6-36.3-5.6-68.9-30.6-83.7-64.2-9.4-20.4-12.3-43.7-8.3-65.7 3.7-21.1 13.7-41 28.3-56.6 3.3-3.7 7.2-6.8 10.8-10.3-16.3-0.8-32.3-5.8-46.8-13.3-17.3-9.7-32.3-23.6-42.4-40.7-18.2-29.8-21.2-68.4-7.4-100.6 7.8-18.6 20.6-35.2 36.9-47.1 31.6-23.6 76.2-28.5 112-11.8 5.1 1.9 9.5 5.2 14.5 7.4-5.3-20.6-4.8-42.9 2.2-63.1 6.4-19.6 18.5-37.3 34.3-50.5 16.5-14 37.2-22.8 58.6-25.4" fill="#fff" transform="translate(-1.165 -1.208) scale(.03199)" style="stroke:none"/>
 </g>
</svg>
