<svg width="24" height="23" xml:space="preserve" xmlns="http://www.w3.org/2000/svg">
 <path fill="#fff" d="M 22.96869,10.892807 C 22.931154,10.673362 22.734815,10.403844 22.544957,10.289336 22.485998,9.8640199 22.383093,9.480797 22,9.2835636 L 21.982529,6.3971134 C 21.498754,6.3263395 21.003167,6.0991352 20.554629,6.0149741 20.02582,5.5636438 19.523565,5.6083724 18.887897,5.6774161 18.538779,5.880063 18.128964,5.9964395 17.760475,6.0436495 17.410095,5.7720528 16.902902,5.7135241 16.503199,5.9072342 15.941935,6.0255164 15.265535,5.8639136 14.800595,5.483288 14.132337,5.6043236 13.606717,5.4934704 13.076583,5.1817782 12.933186,4.9562003 12.620077,4.9631076 12.494692,5.0738552 12.248869,4.9341736 11.289334,4.7848409 11,4.823 V 1 H 6 v 9 H 1 c 0.1312765,0.84775 0.7178457,1.390169 1.50203,1.733085 0.4781924,0.200568 0.8915254,0.587707 1.1278059,0.976886 0.1698951,0.233441 0.266608,0.528946 0.3448357,0.804805 0.048093,0.34307 0.1337241,0.639192 0.3089123,0.94107 0.3760688,0.633978 0.7329499,0.874312 1.4152498,1.142057 0.6181889,0.477925 1.1040033,0.401891 1.4726457,-0.107648 0.011921,-0.513066 0.285871,-0.958955 0.7614078,-1.192534 1.0256102,-0.22953 2.1460808,0.240796 2.6940518,1.113583 0.537532,1.18706 1.343325,2.353576 2.26282,3.304405 0.168588,0.840428 0.460228,1.508139 0.998531,2.198224 0.525658,0.07308 1.130429,0.326038 1.55883,0.639436 0.429456,-0.117062 0.852256,-0.03852 1.228335,0.193986 0.323295,0.255004 0.805128,0.04975 0.833543,-0.344884 -0.770257,-0.929876 -0.949246,-2.238315 -0.452606,-3.362003 0.145057,-0.302377 0.30176,-0.559187 0.524319,-0.811746 0.246884,-0.288381 0.280514,-0.256111 0.589224,-0.459941 0.677104,-0.421378 1.355507,-0.839753 2.04008,-1.249888 -0.102265,-0.447864 0.543517,-1.176808 0.775772,-0.862049 0.475041,-0.380917 1.001267,-0.696913 1.559032,-0.94107 v -0.0072 c 0.195234,-0.325092 0.291327,-0.673395 0.30889,-1.05591 l -0.19404,-0.804687 c 0.26943,-0.242733 0.390518,-0.599981 0.308884,-0.955277 z" style="stroke:#000;stroke-width:2;stroke-linejoin:round;stroke-miterlimit:4;stroke-dasharray:none;stroke-opacity:1;fill:none"/>
 <path fill="#fff" fill-rule="evenodd" d="M 22.96869,10.892807 C 22.931154,10.673362 22.734815,10.403844 22.544957,10.289336 22.485998,9.8640199 22.383093,9.480797 22,9.2835636 L 21.982529,6.3971134 C 21.498754,6.3263395 21.003167,6.0991352 20.554629,6.0149741 20.02582,5.5636438 19.523565,5.6083724 18.887897,5.6774161 18.538779,5.880063 18.128964,5.9964395 17.760475,6.0436495 17.410095,5.7720528 16.902902,5.7135241 16.503199,5.9072342 15.941935,6.0255164 15.265535,5.8639136 14.800595,5.483288 14.132337,5.6043236 13.606717,5.4934704 13.076583,5.1817782 12.933186,4.9562003 12.620077,4.9631076 12.494692,5.0738552 12.248869,4.9341736 11.289334,4.7848409 11,4.823 V 1 H 6 v 9 H 1 c 0.1312765,0.84775 0.7178457,1.390169 1.50203,1.733085 0.4781924,0.200568 0.8915254,0.587707 1.1278059,0.976886 0.1698951,0.233441 0.266608,0.528946 0.3448357,0.804805 0.048093,0.34307 0.1337241,0.639192 0.3089123,0.94107 0.3760688,0.633978 0.7329499,0.874312 1.4152498,1.142057 0.6181889,0.477925 1.1040033,0.401891 1.4726457,-0.107648 0.011921,-0.513066 0.285871,-0.958955 0.7614078,-1.192534 1.0256102,-0.22953 2.1460808,0.240796 2.6940518,1.113583 0.537532,1.18706 1.343325,2.353576 2.26282,3.304405 0.168588,0.840428 0.460228,1.508139 0.998531,2.198224 0.525658,0.07308 1.130429,0.326038 1.55883,0.639436 0.429456,-0.117062 0.852256,-0.03852 1.228335,0.193986 0.323295,0.255004 0.805128,0.04975 0.833543,-0.344884 -0.770257,-0.929876 -0.949246,-2.238315 -0.452606,-3.362003 0.145057,-0.302377 0.30176,-0.559187 0.524319,-0.811746 0.246884,-0.288381 0.280514,-0.256111 0.589224,-0.459941 0.677104,-0.421378 1.355507,-0.839753 2.04008,-1.249888 -0.102265,-0.447864 0.543517,-1.176808 0.775772,-0.862049 0.475041,-0.380917 1.001267,-0.696913 1.559032,-0.94107 v -0.0072 c 0.195234,-0.325092 0.291327,-0.673395 0.30889,-1.05591 l -0.19404,-0.804687 c 0.26943,-0.242733 0.390518,-0.599981 0.308884,-0.955277 z" style="stroke:none;stroke-width:2;stroke-linejoin:round;stroke-miterlimit:4;stroke-dasharray:none;stroke-opacity:1"/>
</svg>
