<svg width="25" height="20" xmlns="http://www.w3.org/2000/svg">
 <path style="color:#000;fill:#bf2033;fill-opacity:1;-inkscape-stroke:none" d="M 4.28125,0.5 0.5,4.2675781 1.171875,5.5 V 6 h 22.65625 V 5.5 L 24.5,4.2675781 20.71875,0.5 18.892578,1.3242188 15.537109,1.5878906 12.5,0.5 10.541016,1.3632812 6.8105469,1.5019531 Z"/>
 <path style="fill:#fff;fill-opacity:1;stroke-width:.5;stroke-linecap:round;stroke-linejoin:round" d="m 1.171875,6 0.4325595,1.7504172 -1.10424408,4.8702908 1.08585568,3.189736 2.60654,1.814913 6.6719169,0.621166 1.635647,1.253489 2.414832,-1.517385 5.964232,-0.380061 2.585491,-1.858702 1.035404,-3.123156 L 23.395866,7.7504172 23.828125,6 Z"/>
 <path d="M 12.499997,0.50008973 C 11.305653,1.2359789 9.8977891,1.6606637 8.3904732,1.6606637 c -1.5073159,0 -2.915282,-0.4247779 -4.1095233,-1.16067746 L 0.5001393,4.2672462 c 0.6957551,0.9854115 1.1042952,2.1867101 1.1042952,3.483171 0,0.9355795 -0.2127538,1.8216892 -0.5926746,2.6127908 -0.32794619,0.683626 -0.51156948,1.449218 -0.51156948,2.2575 0,2.894812 2.35505968,5.241419 5.26032488,5.241419 h 3.2914208 c 1.3921229,0 2.6345059,0.638606 3.4482139,1.637885 0.813708,-0.999279 2.056091,-1.637885 3.448214,-1.637885 h 3.291421 c 2.905162,0 5.260324,-2.346607 5.260324,-5.241419 0,-0.808282 -0.183613,-1.573926 -0.511569,-2.2575 -0.379941,-0.7911016 -0.592674,-1.6772113 -0.592674,-2.6127908 0,-1.2964609 0.408488,-2.4978111 1.104295,-3.483171 L 20.71935,0.49998624 C 19.525006,1.2358754 18.117143,1.6606637 16.609826,1.6606637 c -1.507418,0 -2.915281,-0.4247158 -4.109523,-1.16057397 z" fill="#fff" stroke="#000" stroke-width="1.159" style="fill:none;stroke:#000;stroke-width:1;stroke-linejoin:round;stroke-miterlimit:4;stroke-dasharray:none;stroke-opacity:1"/>
</svg>
