<svg width="20" height="20" viewBox="0 0 18.751 18.751" xmlns="http://www.w3.org/2000/svg">
 <circle cx="9.375" cy="9.375" fill="#fff" fill-rule="evenodd" stroke-linejoin="round" style="stroke:#003f87;stroke-width:.93755;stroke-miterlimit:4;stroke-dasharray:none" r="8.906"/>
 <path d="m9.3753 4.4761c-0.72787 0-1.4262 0.16417-2.0563 0.45887a0.27459 0.31218 0 0 1 0.00265 0.041458 0.27459 0.31218 0 0 1-0.15954 0.28304c-0.20631 2.6482-0.33076 5.4837-0.66172 8.0653 0.81513 0.59422 1.8137 0.94268 2.8748 0.94268 2.6413 0 4.8957-2.1578 4.8957-4.8958-1e-6 -2.7379-2.2543-4.8957-4.8957-4.8957zm-2.5294 0.71232c-1.4039 0.85353-2.3664 2.3945-2.3664 4.1834 0 1.1843 0.42217 2.2598 1.1147 3.0994l1.45-7.1827a0.27459 0.31218 0 0 1-0.19846-0.10001zm0.2125 0.099743a0.27459 0.31218 0 0 1-0.00105 7.45e-5l-1.0924 7.5848c0.13988 0.13586 0.2874 0.26371 0.44222 0.38223 0.32325-2.5479 0.44798-5.3457 0.65127-7.9668z" color="#000" style="isolation:auto;mix-blend-mode:normal;text-decoration-color:#000;text-decoration-line:none;text-decoration-style:solid;text-indent:0;text-transform:none;white-space:normal;fill:#003f87"/>
 <path d="m9.9388 11.023c-0.94328-0.35415-1.396-0.53592-3.2029 0.10417 0.15425-1.8794 0.29704-4.0735 0.42425-5.8697 4.0333-0.99613 4.3022 2.7481 6.7702 2.1208-0.07635 0.60977-0.39311 1.7135-1.9416 1.9922 0.1968 0.61162 1.0712 2.3184 2.0369 2.5156-2.5878 1.5633-2.7719-0.29312-4.0869-0.86333z" style="fill:#df4661"/>
</svg>
