<svg width="22" height="21" xmlns="http://www.w3.org/2000/svg" xmlns:xlink="http://www.w3.org/1999/xlink">
 <defs>
  <path d="M20.9854853,17.4641695 L20.7080082,17.6146471 L20.372574,17.784192 L19.828855,18.0397453 C18.1701087,18.7879341 14.8836869,20 11.0005286,20 C6.63197547,20 3.01810879,18.4676785 1.62767684,17.7866468 L1.01464917,17.4669788 L1.00156842,17.1239637 L1.00189323,16.7153542 L1.02161769,16.166596 C1.03266103,15.9618117 1.0487905,15.7359093 1.07185898,15.4911286 L1.19767487,14.640335 C1.59279348,12.1449655 2.17536463,10.1564268 3.5090913,7.82276984 C6.64086683,2.34470182 11.0026532,1 11.0026532,1 L11.3634101,1.13622157 C12.4717499,1.5943384 15.9083145,3.31183189 18.4879104,7.82370626 C19.7834357,10.0889108 20.9829962,13.263381 20.9636187,15.9265648 L20.9949457,16.57293 C21.0103992,17.1407528 20.9854853,17.4641695 20.9854853,17.4641695 Z" id="a"/>
 </defs>
 <g fill="none" fill-rule="evenodd">
  <use fill="#9BCBEB" xlink:href="#a"/>
  <path stroke="#000" d="M10.8553487,0.522191046 C12.7064083,1.1499044 16.2583722,2.91672937 18.9219393,7.57547464 C20.2554561,9.90710666 21.4793665,13.1747632 21.4636972,15.9160756 L21.4946142,16.5539789 C21.5112777,17.1582891 21.4840083,17.5025726 21.4840083,17.5025726 L20.0431555,18.491591 C18.348598,19.2568847 14.9806692,20.5 11.0005286,20.5 C6.52368045,20.5 2.82089975,18.9284912 1.4020398,18.2328833 L0.513021913,17.7692982 L0.521689379,16.1518789 C0.533269482,15.9341385 0.55043236,15.6929746 0.575318901,15.430959 L0.703827367,14.5621389 C1.10885219,12.0042067 1.70795868,9.9665959 3.07501927,7.5746137 C6.32347976,1.8924416 10.8553487,0.522191046 10.8553487,0.522191046 Z"/>
  <path stroke="#FFF" d="M10.9888705,1.53541164 C12.4932905,2.17213039 15.6549806,3.87611026 18.0538816,8.07193788 C19.311349,10.2705988 20.4865793,13.351667 20.4635207,15.9366539 L20.4952729,16.5917888 C20.5014614,16.8224065 20.5007132,17.0099295 20.4978836,17.1483271 L19.6146601,17.587847 C17.9917962,18.3189203 14.7868092,19.5 11.0005286,19.5 C6.74015838,19.5 3.21513315,18.0067865 1.85323088,17.3403669 L1.52154499,16.1815027 C1.53204122,15.9896301 1.54713988,15.7788513 1.56842789,15.5510978 L1.69152238,14.7185312 C2.07673476,12.2857243 2.64277057,10.3462577 3.94316334,8.07092597 C6.60805142,3.40953244 10.1920991,1.83760152 10.9888705,1.53541164 Z" stroke-linejoin="square"/>
  <path fill="#BF2033" fill-rule="nonzero" transform="rotate(-180 11 4.509)" d="M11 2.7 11.4495037 4.08131118 12.902113 4.08196601 11.7273123 4.9363181 12.1755705 6.31803399 11 5.46474144 9.8244295 6.31803399 10.2726877 4.9363181 9.09788697 4.08196601 10.5504963 4.08131118z"/>
  <path fill="#BF2033" fill-rule="nonzero" transform="rotate(-180 8 7.509)" d="M8 5.7 8.44950374 7.08131118 9.90211303 7.08196601 8.72731233 7.9363181 9.1755705 9.31803399 8 8.46474144 6.8244295 9.31803399 7.27268767 7.9363181 6.09788697 7.08196601 7.55049626 7.08131118z"/>
  <path fill="#BF2033" fill-rule="nonzero" transform="rotate(-180 14 7.509)" d="M14 5.7 14.4495037 7.08131118 15.902113 7.08196601 14.7273123 7.9363181 15.1755705 9.31803399 14 8.46474144 12.8244295 9.31803399 13.2726877 7.9363181 12.097887 7.08196601 13.5504963 7.08131118z"/>
  <path d="M1.95186149,14.1647059 L3.46302419,13.2294118 L4.31934972,11.6941176 L4.52083808,11.4823529 L4.52083808,10.8117647 L4.68874505,10.4941176 L5.02455899,10.4058824 L5.25962874,10.6352941 L5.25962874,11.0411765 L5.15888456,11.1647059 L5.15888456,11.3941176 C5.33798532,11.4529412 5.42753571,11.4823529 5.42753571,11.4823529 C5.41634191,11.6470588 5.41074501,11.7294118 5.41074501,11.7294118 C5.32119463,11.8 5.27641944,11.8352941 5.27641944,11.8352941 C5.24283804,12.0588235 5.22604735,12.1705882 5.22604735,12.1705882 C4.91262101,12.5117647 4.75590784,12.6823529 4.75590784,12.6823529 C4.53203188,12.8588235 4.4200939,12.9470588 4.4200939,12.9470588 C4.4200939,13.1235294 4.4200939,13.2117647 4.4200939,13.2117647 C4.76710164,13.0117647 4.9406055,12.9117647 4.9406055,12.9117647 C5.27641944,12.9117647 5.4443264,12.9117647 5.4443264,12.9117647 C5.42193881,12.6176471 5.41074501,12.4705882 5.41074501,12.4705882 C5.67939616,12.4705882 5.81372173,12.4705882 5.81372173,12.4705882 C5.89207832,12.6352941 5.93125661,12.7176471 5.93125661,12.7176471 C6.15513256,12.7411765 6.26707054,12.7529412 6.26707054,12.7529412 C6.28945814,12.5882353 6.30065194,12.5058824 6.30065194,12.5058824 C6.75959765,12.1058824 6.9890705,11.9058824 6.9890705,11.9058824 C6.93310151,12.1411765 6.90511702,12.2588235 6.90511702,12.2588235 C6.59169068,12.6352941 6.43497751,12.8235294 6.43497751,12.8235294 C6.36781472,12.9647059 6.33423333,13.0352941 6.33423333,13.0352941 C6.32303953,13.2 6.31744263,13.2823529 6.31744263,13.2823529 C6.61967517,13.2941176 6.77079144,13.3 6.77079144,13.3 C6.82676043,12.9823529 6.85474493,12.8235294 6.85474493,12.8235294 C6.91071392,12.5647059 6.93869841,12.4352941 6.93869841,12.4352941 C7.09541158,12.0941176 7.17376816,11.9235294 7.17376816,11.9235294 C7.26331855,11.7470588 7.30809374,11.6588235 7.30809374,11.6588235 C7.4983883,11.7882353 7.58793868,11.8529412 7.57674489,11.8529412 C7.54316349,11.6294118 7.52637279,11.5176471 7.52637279,11.5176471 C7.30249684,11.4588235 7.19055886,11.4294118 7.19055886,11.4294118 C6.95548911,11.5705882 6.83795423,11.6411765 6.83795423,11.6411765 C6.73721005,11.7 6.68683796,11.7294118 6.68683796,11.7294118 C6.69803176,11.4470588 6.70362866,11.3058824 6.70362866,11.3058824 C6.63646587,11.1882353 6.60288448,11.1294118 6.60288448,11.1294118 C6.59169068,11.0117647 6.58609378,10.9529412 6.58609378,10.9529412 C6.4741558,11.0588235 6.41818681,11.1117647 6.41818681,11.1117647 C6.29505504,11.2764706 6.23348915,11.3588235 6.23348915,11.3588235 C6.22229535,11.5 6.21669845,11.5705882 6.21669845,11.5705882 C6.38460542,11.6411765 6.4685589,11.6764706 6.4685589,11.6764706 C6.4685589,11.8882353 6.4685589,11.9941176 6.4685589,11.9941176 C6.30065194,12.0764706 6.21669845,12.1176471 6.21669845,12.1176471 C6.16072946,12.2470588 6.13274497,12.3117647 6.13274497,12.3117647 C6.03200079,12.3705882 5.9816287,12.4 5.9816287,12.4 C5.88088452,12.2823529 5.83051243,12.2235294 5.83051243,12.2235294 C5.9536442,12.0470588 6.01521009,11.9588235 6.01521009,11.9588235 C6.03759769,11.7588235 6.04879148,11.6588235 6.04879148,11.6588235 C6.07117908,11.5529412 6.08237288,11.5 6.08237288,11.5 C5.92565971,11.5588235 5.84170622,11.5882353 5.83051243,11.5882353 C5.71857445,11.6117647 5.66260546,11.6235294 5.66260546,11.6235294 C5.61783027,11.4941176 5.59544267,11.4294118 5.59544267,11.4294118 C5.66260546,11.2647059 5.69618685,11.1823529 5.69618685,11.1823529 C5.60663647,11.0882353 5.56186128,11.0411765 5.56186128,11.0411765 C5.55066748,10.7823529 5.54507058,10.6529412 5.54507058,10.6529412 C5.67939616,10.3941176 5.74655894,10.2647059 5.74655894,10.2647059 C6.17192326,10.2411765 6.38460542,10.2294118 6.38460542,10.2294118 C6.4853496,10.3705882 6.53572169,10.4411765 6.53572169,10.4411765 C6.87153562,10.3235294 7.03944259,10.2647059 7.03944259,10.2647059 C7.28570614,10.3117647 7.40883792,10.3352941 7.40883792,10.3352941 C7.54316349,10.6058824 7.61032628,10.7411765 7.61032628,10.7411765 C7.72226426,11.0117647 7.77823325,11.1529412 7.77823325,11.1647059 C7.81181464,11.5176471 7.82860534,11.6941176 7.82860534,11.6941176 C7.77263635,11.9647059 7.74465185,12.1 7.74465185,12.1 C7.83420223,12.2058824 7.87897743,12.2588235 7.87897743,12.2588235 C8.08046579,12.1764706 8.18120997,12.1352941 8.18120997,12.1352941 C8.62896188,11.6176471 8.85283784,11.3588235 8.85283784,11.3588235 C8.97820215,10.6941176 9.04088431,10.3617647 9.04088431,10.3617647 C9.1080471,10.2205882 9.14162849,10.15 9.14162849,10.15 C9.33192305,10.3147059 9.42707033,10.3970588 9.42707033,10.3970588 C9.69572148,10.1264706 9.83004706,9.99117647 9.83004706,9.99117647 C9.84124085,9.89705882 9.84683775,9.85 9.84683775,9.85 C9.56699281,10.05 9.42707033,10.15 9.42707033,10.15 C9.32632615,10.0323529 9.27595406,9.97352941 9.27595406,9.97352941 C9.1080471,9.92647059 9.02409361,9.90294118 9.02409361,9.90294118 C9.02409361,9.59705882 9.02409361,9.44411765 9.02409361,9.44411765 C9.15841919,9.32647059 9.22558197,9.26764706 9.22558197,9.26764706 C9.03528741,9.19705882 8.94014013,9.16176471 8.94014013,9.16176471 C8.96252773,8.99705882 8.97372152,8.91470588 8.97372152,8.91470588 C9.25579901,8.78823529 9.39683775,8.725 9.39683775,8.725 C9.54894592,8.575 9.625,8.5 9.625,8.5 C10.0505042,8.5 10.2744502,8.5 10.2968378,8.5 C10.6641249,8.86176471 10.8477685,9.04264706 10.8477685,9.04264706 C10.8589623,9.28970588 10.8645592,9.41323529 10.8645592,9.41323529 C10.9360782,9.55441176 10.9718378,9.625 10.9718378,9.625 C10.9718378,9.775 10.9718378,9.85 10.9718378,9.85 C10.6718378,9.85 10.5218378,9.85 10.5218378,9.85 C10.5376366,9.93529412 10.545536,9.97794118 10.545536,9.97794118 C10.9261251,10.2014706 11.1164196,10.3132353 11.1164196,10.3132353 C11.051365,11.0338235 11.0188377,11.3941176 11.0188377,11.3941176 C10.8957059,11.7235294 10.83414,11.8882353 10.83414,11.8882353 C10.7445897,12.0411765 10.6998145,12.1176471 10.6998145,12.1176471 C10.7110083,12.2823529 10.7166052,12.3647059 10.7166052,12.3647059 C10.8957059,12.1647059 10.9852563,12.0647059 10.9852563,12.0647059 C11.0524191,11.8176471 11.0860005,11.6941176 11.0860005,11.6941176 C11.332264,11.5411765 11.4553958,11.4647059 11.4553958,11.4647059 C11.4106206,11.3117647 11.388233,11.2352941 11.388233,11.2352941 C11.2539075,11.2235294 11.1867447,11.2176471 11.1867447,11.2176471 C11.2427137,10.8882353 11.2706982,10.7235294 11.2706982,10.7235294 C11.3714423,10.5588235 11.4218144,10.4764706 11.4218144,10.4764706 C11.7128532,10.4647059 11.8583725,10.4588235 11.8583725,10.4588235 C11.9031477,10.5647059 11.9255353,10.6176471 11.9255353,10.6176471 C11.8695663,10.8882353 11.8415818,11.0235294 11.8415818,11.0235294 C11.8751632,11.1176471 11.8919539,11.1705882 11.8919539,11.1823529 C12.0822485,11.0647059 12.1773958,11.0058824 12.1773958,11.0058824 C12.3005276,10.8294118 12.3620934,10.7411765 12.3620934,10.7411765 C12.2725431,10.5411765 12.2277679,10.4411765 12.2277679,10.4411765 C12.1829927,10.2411765 12.1606051,10.1411765 12.1606051,10.1411765 C12.2277679,9.83529412 12.2613493,9.68235294 12.2613493,9.68235294 C12.4740314,9.61176471 12.5803725,9.57647059 12.5803725,9.57647059 C12.7930547,9.6 12.8993957,9.61176471 12.8993957,9.61176471 C12.9889461,9.74117647 13.0337213,9.80588235 13.0337213,9.80588235 C12.9553647,10.1117647 12.9161864,10.2647059 12.9161864,10.2647059 C12.9161864,10.5235294 12.9161864,10.6529412 12.9161864,10.6529412 C13.1848376,10.8176471 13.3191632,10.9 13.3191632,10.9 C13.3975197,10.9823529 13.436698,11.0235294 13.436698,11.0235294 C13.4255042,11.5176471 13.4199073,11.7647059 13.4199073,11.7647059 C13.7333337,11.6941176 13.8900468,11.6588235 13.8900468,11.6588235 C13.8564655,11.4352941 13.8396748,11.3235294 13.8396748,11.3235294 C13.8508686,10.8647059 13.8564655,10.6352941 13.8564655,10.6352941 C14.0803414,10.5764706 14.1922794,10.5470588 14.1922794,10.5470588 C14.4385429,10.6058824 14.5616747,10.6352941 14.5616747,10.6352941 L15.025,9.625 L15.25,9.75 C14.7687289,10.704902 14.5280933,11.1823529 14.5280933,11.1823529 C14.8639073,11.1235294 15.0318142,11.0941176 15.0318142,11.0941176 C15.2556902,11.2235294 15.3676282,11.2882353 15.3676282,11.2882353 C15.210915,11.5117647 15.1325584,11.6235294 15.1325584,11.6235294 C15.1773336,11.7294118 15.1997212,11.7823529 15.1997212,11.7823529 C15.4683723,11.9352941 15.6026979,12.0117647 15.6026979,12.0117647 C15.6474731,12.5058824 15.6698607,12.7529412 15.6698607,12.7529412 C15.8601553,12.3411765 15.9553025,12.1352941 15.9553025,12.1352941 C16.0784343,11.9470588 16.1400002,11.8529412 16.1400002,11.8529412 C15.9944808,11.7352941 15.9217212,11.6764706 15.9217212,11.6764706 C15.9217212,11.2882353 15.9217212,11.0941176 15.9217212,11.0941176 C16.2575351,11.0588235 16.4254421,11.0411765 16.4254421,11.0411765 C16.5597676,11.2647059 16.6269304,11.3764706 16.6269304,11.3764706 C16.8843878,11.2941176 17.0131164,11.2529412 17.0131164,11.2529412 C16.9235661,10.9117647 16.8787909,10.7411765 16.8787909,10.7411765 C16.9571474,10.5764706 16.9963257,10.4941176 16.9963257,10.4941176 C17.2537831,10.3647059 17.3825118,10.3 17.3825118,10.3 C17.5504187,10.5 17.6343722,10.6 17.6343722,10.6 C17.6791474,10.8235294 17.701535,10.9352941 17.701535,10.9352941 C17.645566,11.0647059 17.6175815,11.1294118 17.6175815,11.1294118 C17.4496746,11.2 17.3657211,11.2352941 17.3657211,11.2352941 C17.4552714,11.3176471 17.5056435,11.3588235 17.5168373,11.3588235 C17.6959381,11.3823529 17.7854885,11.3941176 17.7854885,11.3941176 C17.8078761,11.7352941 17.8190699,11.9058824 17.8190699,11.9058824 C17.7631009,12.0941176 17.7351164,12.1882353 17.7351164,12.1882353 C18.0037675,12.1176471 18.1380931,12.0823529 18.1380931,12.0823529 C18.1045117,11.7764706 18.087721,11.6235294 18.087721,11.6235294 C18.2892094,11.5647059 18.3899536,11.5352941 18.3899536,11.5352941 C18.3339846,11.3941176 18.3060001,11.3235294 18.3060001,11.3235294 C18.1940621,11.0411765 18.1380931,10.9 18.1380931,10.9 C18.1157055,10.7117647 18.1045117,10.6176471 18.1045117,10.6176471 C18.2388373,10.4529412 18.3060001,10.3705882 18.3060001,10.3705882 C18.5074884,10.3117647 18.6082326,10.2823529 18.6082326,10.2823529 C18.7425582,10.3294118 18.809721,10.3529412 18.809721,10.3529412 C18.8768838,10.7058824 18.9104652,10.8823529 18.9104652,10.8823529 C18.7985272,11.0470588 18.7425582,11.1294118 18.7425582,11.1294118 C18.7313644,11.2705882 18.7257675,11.3411765 18.7257675,11.3411765 C19.0615814,11.3647059 19.2294884,11.3764706 19.2294884,11.3764706 C19.3190388,11.5647059 19.363814,11.6588235 19.363814,11.6588235 C19.6212713,11.8117647 19.75,11.8941176 19.75,11.9058824 C19.7164186,12.2705882 19.6996279,12.4529412 19.6996279,12.4529412 C19.5876899,12.5823529 19.5317209,12.6470588 19.5317209,12.6470588 C19.2966512,13.2823529 19.1791163,13.6 19.1791163,13.6 C19.2126977,15.5764706 19.2294884,16.5647059 19.2294884,16.5647059 C18.4683102,16.4823529 18.087721,16.4411765 18.087721,16.4411765 C17.4160932,16.3470588 17.0802792,16.3058824 17.0802792,16.3176471 C16.5205893,16.3764706 16.2407444,16.4058824 16.2407444,16.4058824 C15.4459847,16.4176471 15.0486049,16.4235294 15.0486049,16.4235294 C15.0262173,16.6705882 15.0150235,16.7941176 15.0150235,16.7941176 C14.8359228,16.8529412 14.7463724,16.8823529 14.7463724,16.8823529 C14.3881709,16.8823529 14.2090701,16.8823529 14.2090701,16.8823529 C14.1307135,16.7529412 14.0915352,16.6882353 14.0915352,16.6882353 C14.1139228,16.1235294 14.1251166,15.8411765 14.1251166,15.8411765 C13.9795972,15.7352941 13.9068375,15.6823529 13.9068375,15.6823529 C13.7948996,15.7176471 13.7389306,15.7352941 13.7389306,15.7352941 C13.7837058,16.2411765 13.8060934,16.4941176 13.8060934,16.4941176 C13.5710236,16.7058824 13.4534887,16.8117647 13.4534887,16.8117647 C12.8154423,16.8823529 12.496419,16.9176471 12.496419,16.9176471 C12.3508996,16.8352941 12.27814,16.7941176 12.27814,16.7941176 C12.0318764,16.9588235 11.9087446,17.0411765 11.9087446,17.0411765 C11.5169617,17.0529412 11.3210703,17.0588235 11.3210703,17.0588235 C11.2986827,16.9647059 11.2874889,16.9176471 11.2874889,16.9176471 C11.1083881,17.0470588 11.0188377,17.1117647 11.0188377,17.1117647 C10.3472098,17.0764706 10.0113959,17.0588235 10.0113959,17.0588235 C10.1233339,16.8117647 10.1793029,16.6882353 10.1793029,16.6882353 C9.76513236,16.5823529 9.5580471,16.5294118 9.5580471,16.5294118 C9.27820215,16.3058824 9.13827968,16.1941176 9.13827968,16.1941176 C9.08231069,16.6294118 9.0543262,16.8470588 9.0543262,16.8470588 C8.89761303,17.0941176 8.81925644,17.2176471 8.81925644,17.2176471 C8.65134947,17.3588235 8.56739599,17.4294118 8.56739599,17.4294118 C7.89576812,17.4294118 7.55995419,17.4294118 7.55995419,17.4294118 C7.21294646,17.2529412 7.03944259,17.1647059 7.03944259,17.1647059 C7.06183019,16.6705882 7.07302398,16.4235294 7.07302398,16.4235294 C6.64765967,15.7529412 6.43497751,15.4176471 6.43497751,15.4176471 C6.33423333,15.4058824 6.28386124,15.4 6.28386124,15.4 C6.28386124,15.6588235 6.28386124,15.7882353 6.28386124,15.7882353 C6.60848137,16.1764706 6.77079144,16.3705882 6.77079144,16.3705882 C6.79317904,16.8176471 6.80437284,17.0411765 6.80437284,17.0411765 C6.69243486,17.1823529 6.63646587,17.2529412 6.63646587,17.2529412 C6.06558218,17.2647059 5.78014034,17.2705882 5.78014034,17.2705882 C5.76894654,17.1411765 5.77454344,17.0764706 5.79693103,17.0764706 C5.92006281,16.9352941 5.9816287,16.8647059 5.9816287,16.8647059 C5.74655894,16.5352941 5.62902407,16.3705882 5.62902407,16.3705882 C5.52827989,16.3941176 5.4779078,16.4058824 5.4779078,16.4058824 C5.53387679,16.6411765 5.56186128,16.7588235 5.56186128,16.7588235 C5.62902407,16.9 5.66260546,16.9705882 5.66260546,16.9705882 C5.4611171,17.1117647 5.36037292,17.1823529 5.36037292,17.1823529 C5.03575278,17.2176471 4.87344271,17.2352941 4.87344271,17.2352941 C4.68314815,17.1176471 4.58800087,17.0588235 4.58800087,17.0588235 C4.55441948,16.6941176 4.53762878,16.5117647 4.53762878,16.5117647 C4.4256908,16.5 4.36972181,16.4941176 4.36972181,16.4941176 C4.30255903,16.7294118 4.26897763,16.8470588 4.26897763,16.8470588 C4.11226446,17.0352941 4.03390788,17.1352941 4.03390788,17.1470588 C3.50779938,17.1235294 3.23914823,17.1117647 3.22795444,17.1117647 C3.13840405,17.0176471 3.09362886,16.9705882 3.09362886,16.9705882 C3.19437304,16.8411765 3.24474513,16.7764706 3.24474513,16.7764706 C3.4238459,16.6235294 3.51339628,16.5470588 3.51339628,16.5470588 C3.79324123,16.0294118 3.9331637,15.7705882 3.9331637,15.7705882 C3.9443575,15.5470588 3.9499544,15.4352941 3.9499544,15.4352941 C3.84921022,15.4823529 3.79883813,15.5058824 3.79883813,15.5058824 C3.08243507,16.5764706 2.72423354,17.1117647 2.72423354,17.1117647 C2.72423354,17.2764706 2.72423354,17.3588235 2.72423354,17.3588235 C2.55632657,17.4529412 2.47237309,17.5 2.47237309,17.5 C1.97984598,17.5 1.73917933,17.5 1.75037313,17.5 C1.77276072,17.3823529 1.78395452,17.3235294 1.78395452,17.3235294 C1.8623111,17.2529412 1.9014894,17.2176471 1.9014894,17.2176471 C1.94626459,17.0411765 1.96865218,16.9529412 1.96865218,16.9529412 C2.29327232,16.6352941 2.45558239,16.4764706 2.45558239,16.4764706 C2.63468315,16.1 2.72423354,15.9117647 2.72423354,15.9117647 C2.93691569,15.4058824 3.04325677,15.1529412 3.04325677,15.1529412 C3.4126521,14.4823529 3.59734976,14.1470588 3.59734976,14.1470588 C3.58615597,13.9705882 3.58055907,13.8823529 3.58055907,13.8823529 L3.17758235,13.9529412 L2.47237309,14.4470588 L1.96865218,14.4470588 L1.95186149,14.1647059 Z" fill="#003F87"/>
  <path d="M15,9.45 L15.6169202,8.42179971 C15.645335,8.37444169 15.706761,8.35908518 15.754119,8.3875 C15.7782785,8.40199565 15.7952021,8.42601031 15.8007275,8.45363768 L16.1961618,10.4308089 C16.206993,10.4849648 16.1718713,10.5376473 16.1177153,10.5484785 C16.0887482,10.554272 16.0587017,10.5469614 16.0356342,10.5285074 L15,9.7 L15,9.7 L15,9.45 Z" fill="#BF2033"/>
 </g>
</svg>
