<svg width="26" height="20" xml:space="preserve" xmlns="http://www.w3.org/2000/svg">
 <path style="fill:#fff;stroke:#000;stroke-width:2;stroke-linecap:round;stroke-linejoin:round;stroke-miterlimit:4;stroke-dasharray:none;stroke-opacity:1;paint-order:stroke markers fill" d="M 1,19 V 17 L 1.6666667,16 C 1,15 0.7405893,13.815584 1.6666667,12.5 0.9942787,11.175694 1.3878773,9.4367341 3,9 2.562568,7.7052888 3.4129,6.3353983 5,6 4.7850653,4.9205713 6.362672,3.7063958 7.6666667,3.5 7.681072,2.5350613 9.6609373,2.0834368 11,2 c 0.313155,-0.8234359 0.933304,-1 2,-1 1.066696,0 1.686845,0.1765641 2,1 1.339063,0.083437 3.318928,0.5350613 3.333333,1.5 C 19.637328,3.7063958 21.214935,4.9205713 21,6 c 1.5871,0.3353983 2.437432,1.7052888 2,3 1.612123,0.4367341 2.005721,2.175694 1.333333,3.5 0.926078,1.315584 0.666667,2.5 0,3.5 L 25,17 v 2 z"/>
 <path style="fill-rule:evenodd;stroke-width:.0421843" d="m 14.696937,17.959843 c 0,-0.995446 -0.391601,-1.990893 -1.681432,-1.993105 -1.320841,-0.0023 -1.712442,0.997659 -1.712442,1.993105 z"/>
 <path style="fill:none;stroke:#000;stroke-width:.6;stroke-linecap:round;stroke-linejoin:miter;stroke-miterlimit:4;stroke-dasharray:none;stroke-opacity:1" d="m 1.2519728,15.96895 c 7.8320183,2.986339 15.6640362,2.986339 23.4960542,0"/>
 <path style="fill:none;stroke:#000;stroke-width:.5;stroke-linecap:round;stroke-linejoin:miter;stroke-miterlimit:4;stroke-dasharray:none;stroke-opacity:1" d="M10.389327 1.5349772c1.305337.9954464 3.916009.9954464 5.221346 0M7.1259864 3.0281469c1.9580047 1.4931696 9.7900226 1.4931696 11.7480276 0"/>
</svg>
