<svg xmlns="http://www.w3.org/2000/svg" width="20" height="20">
 <path fill="#693f23" stroke="#fff" stroke-width="2" d="M0 0H20V20H0z"/>
 <path fill="#fff" d="M2.47 11.07C5.06 9.65 6.7 7.5 8.55 5.63c2.78-2.73 7.95-2.03 7.9 1.91-3.16-2.03-4.84-1.28-7.09-.1L2.48 11.1ZM.73 12.2c2.63-.38 5.09-1.57 7.68-3.56 1.1-.81 5.9-3.88 8.8.7a7.2 7.2 0 00-7.47-.02C7.52 11.06 3.3 13.14.73 12.2m13.63-1.83c-1.27-1.29-2.34-.77-2.66-.16-.56.71-.36 2.73 1.92 3.55 1.78.7 3.44.65 5.6.37-6.57 3.37-8.57-.362-8.76-1.47-.239-1.41.057-2.624.95-3.32.81-.66 2.23-.56 2.94 1Z"/>
</svg>
