<svg width="20" height="20" overflow="visible" xml:space="preserve" xmlns="http://www.w3.org/2000/svg">
 <path clip-rule="evenodd" fill="#fff" d="m 19,13 c 0,3.605551 -5.394449,6 -9,6 C 5.5,19 1,16.605551 1,13 V 2 C 1,1.5285955 1.5285955,1 2,1 h 16 c 0.471405,0 1,0.5285955 1,1 z" style="stroke:#000;stroke-width:2;stroke-miterlimit:4"/>
 <path fill-rule="evenodd" clip-rule="evenodd" fill="#fff" d="m 19,13 c 0,3.605551 -5.394449,6 -9,6 C 5.5,19 1,16.605551 1,13 V 3.5 h 18 z" style="stroke-width:2;stroke-miterlimit:4"/>
 <path fill-rule="evenodd" clip-rule="evenodd" d="m 10.584635,5.147323 3.928607,0.030687 0.120851,-0.2757827 1.208736,0.030667 1.057751,3.6462093 -0.211606,1.2869313 0.302244,1.7159481 0.483477,0.949817 0.181354,0.980463 v 1.195032 l -1.178602,1.103051 h -0.725256 l -0.785721,-0.367684 0.227403,-0.486005 0.677666,0.317092 h 0.393987 l 0.853966,-0.799189 v -0.913088 l -0.15829,-0.855545 -0.484544,-0.951949 -0.332021,-1.8848224 0.206748,-1.2572337 -0.91455,-3.1525612 -0.455989,-0.011571 -0.118166,0.269562 -4.684451,-0.03659 -0.09445,-0.333838 H 7.2915966 L 7.4174225,6.0868313 7.8704512,6.1240542 8.0265291,5.9658243 9.2166036,6.2442129 10.562046,7.2673887 12.085031,6.9406399 12.772414,7.3096663 12.518628,7.7824222 12.004879,7.5066196 10.433494,7.8437747 8.9829021,6.7406054 8.1972788,6.5568424 8.0764097,6.6793907 6.958292,6.587509 6.656049,4.8103255 h 3.807697 l 0.06039,0.091901 z" style="stroke-width:.0404412"/>
 <path fill-rule="evenodd" clip-rule="evenodd" fill="#fff" d="M 1,3.5 V 2 C 1,1.5285955 1.5285955,1 2,1 h 16 c 0.471405,0 1,0.5285955 1,1 v 1.5 z" style="fill:#ffcd00;stroke-width:2;stroke-miterlimit:4"/>
 <path style="stroke:#000;stroke-width:1px;stroke-linecap:butt;stroke-linejoin:miter" d="m 0.5,3.5 h 19"/>
</svg>
