<?xml version="1.0" encoding="UTF-8"?>
<svg width="20px" height="20px" viewBox="0 0 20 20" version="1.1" xmlns="http://www.w3.org/2000/svg" xmlns:xlink="http://www.w3.org/1999/xlink">
    <path d="M2,1.42108547e-14 L18,1.42108547e-14 C19.1045695,1.40079486e-14 20,0.8954305 20,2 L20,18 C20,19.1045695 19.1045695,20 18,20 L2,20 C0.8954305,20 -5.51538359e-14,19.1045695 -5.5067062e-14,18 L-5.5067062e-14,2 C-5.52023328e-14,0.8954305 0.8954305,1.41917162e-14 2,1.42108547e-14 Z" fill="#006747" fill-rule="nonzero"></path>
    <path d="M12.7034843,16.5163001 L12.6896905,16.5274657 L12.4185066,16.841072 C12.3284986,16.9388088 12.234509,17.0245528 12.1511371,17.0527889 L12.03712,17.0720275 C11.9168929,17.0764461 11.7804216,17.0429328 11.6491798,17.0302396 L11.5204766,17.0266624 C11.4786868,17.0292341 11.4382734,17.0362951 11.4000317,17.0500215 C11.2930199,17.08847 11.2321439,17.1927092 11.1222057,17.2322279 C11.0426387,17.2608353 10.9601463,17.2733586 10.8764863,17.2797669 L10.6996863,17.2876546 C10.5561489,17.2922992 10.4127922,17.2994391 10.2782508,17.3580529 C10.2133284,17.3863174 10.1564626,17.4239173 10.1045463,17.4672735 L10.0213263,17.5509948 C10.0129769,17.5584295 10.0059645,17.5641171 10.0002892,17.5680576 L9.88024703,17.712776 L9.74266791,17.8882668 C9.56474755,18.1054008 9.43226646,18.2181592 9.14928033,18.2518903 L8.97971258,18.2672586 C8.92727248,18.2739281 8.87508528,18.28628 8.81166221,18.3167215 L8.59620695,18.4666866 C8.57657662,18.4788694 8.55868078,18.4886885 8.54413449,18.4944304 L8.51215935,18.4977103 C8.3466275,18.3881757 8.29680669,18.2040772 8.2655509,18.0065626 L8.24439054,17.8591439 C8.22285797,17.7050376 8.19816005,17.5519005 8.12612943,17.4275334 C8.06875784,17.3284601 7.94613869,17.176031 7.8570104,17.1036355 C7.82332988,17.0762804 7.78690388,17.0555584 7.74946338,17.0377603 L7.63045077,16.9871878 C7.54321213,16.9507251 7.46025846,16.9091014 7.40309557,16.8162304 C7.36069743,16.7473945 7.33699783,16.634955 7.33166001,16.5228661 C8.17425278,16.6743089 9.0636466,16.75 10,16.75 C10.9497778,16.75 11.8512399,16.672123 12.7034843,16.5163001 Z M17.3043478,11.4990548 L17.6521739,11.2551985 L18,11 L18,13 C17.6,13.4 17.1733333,13.76 16.72,14.08 L16.4448,14.2672 C15.6096,14.8144 14.688,15.232 13.68,15.52 L13.5699648,15.5508296 C12.4797922,15.8502765 11.2898039,16 10,16 C9.2,16 8.4384,15.9424 7.7152,15.8272 L7.57467272,15.8040076 C5.34702647,15.4234714 3.48880223,14.4888022 2,13 L2,11 C2.11594203,11.0869565 2.23188406,11.1720227 2.34782609,11.2551985 L2.69565217,11.4990548 C5.13043478,13.1663516 7.56521739,14 10,14 C11.0144928,14 12.0289855,13.8552694 13.0434783,13.5658081 L13.5404119,13.4120553 C14.7949359,12.9960724 16.0496418,12.3582557 17.3043478,11.4990548 Z M10.0211804,1.50001379 L10.1144108,1.51050617 C10.1457609,1.51740361 10.1773724,1.52784272 10.2092097,1.54224859 C10.1219906,1.72306987 9.98713475,1.86774025 9.84041615,1.99917065 L9.71107399,2.11037993 C9.54296943,2.2507062 9.48223791,2.39959299 9.753344,2.49671073 C9.90804499,2.55213277 10.095731,2.50209796 10.2479392,2.56740889 C10.3220197,2.5993026 10.3865225,2.64647801 10.447453,2.69937342 L10.570008,2.81347393 C10.6362221,2.8767451 10.7031402,2.93893587 10.7793129,2.98643205 C10.8802623,3.04938515 10.9690218,3.07476897 11.0523872,3.07597733 L11.1342064,3.06962328 C11.2952555,3.04278247 11.4437902,2.93709831 11.6341786,2.85972145 C11.9090781,2.74802868 12.2000909,2.81345032 12.4655971,2.71419245 C12.4924579,2.7041431 12.5185315,2.68717652 12.5443188,2.66698193 L12.6233269,2.59861517 C12.6852224,2.54343733 12.7484355,2.49148374 12.8199426,2.49412781 C13.0495012,2.50261454 12.9450546,2.70570572 13.0578468,2.80684543 C13.1034873,2.8477636 13.1538225,2.85989969 13.2055367,2.86198805 L13.2575878,2.86142103 L13.3202431,2.85775948 L13.3711589,2.8570903 C13.4382723,2.85959264 13.5016552,2.87925222 13.5537065,2.95901622 L13.6493379,3.10550459 L13.9614495,3.37523507 L14.0334891,3.62042782 C13.9511024,3.72560425 13.8221882,3.77690249 13.6783939,3.79507561 L13.5682526,3.80281875 C13.381682,3.80645329 13.1842233,3.7664365 13.0376873,3.72330177 L12.7923895,3.6429828 C12.5967008,3.58053564 12.3998852,3.54081334 12.2053295,3.66238179 C11.9794198,3.80355673 11.7959607,3.96941699 11.5360544,4.0512586 L11.387899,4.09657606 C11.1185388,4.17855429 10.8523934,4.26830073 10.6851628,4.51622081 L10.499071,4.79265223 L10.3718951,4.99096121 L10.2884681,5.13106517 L10.1875232,5.32031194 L10.132906,5.44517393 C10.0726201,5.59159857 9.99740097,5.80488267 10.0748128,5.78653697 C10.1317653,5.77301281 10.2077604,5.69832184 10.2931295,5.60324123 L10.5264402,5.34031731 C10.6276705,5.23283448 10.7301831,5.14199262 10.8220287,5.11818898 L10.8757604,5.11235456 L10.9263584,5.12502838 L10.9732491,5.15862951 C11.0673992,5.25301673 10.8270021,5.56067921 10.7892482,5.65757555 C10.626888,6.07427408 10.5900372,6.53960528 10.5285109,6.97947628 C10.5139905,7.08322634 10.4802938,7.18163097 10.4389919,7.2779544 L10.3372373,7.49434412 C10.2774662,7.61734029 10.2196147,7.74098547 10.1887612,7.87235426 C10.1541142,8.0198758 10.2088485,8.20241433 10.2308144,8.35698355 C10.2514075,8.50177457 10.3415474,8.70412778 10.3440402,8.84139144 C10.3449555,8.89209044 10.340588,8.93954234 10.3330037,8.98484044 L10.3105855,9.09541224 L10.2577792,9.2604682 C10.212764,9.40531611 10.1789758,9.55032668 10.2423754,9.74105881 C10.3060333,9.93245307 10.4473308,10.1773875 10.6306092,10.3076773 L10.7106519,10.3554089 C10.7341122,10.366929 10.7580695,10.3766936 10.7826006,10.3837627 C10.8113999,10.3920228 10.8399523,10.396605 10.8681315,10.3979033 L10.951424,10.3923407 C11.0879591,10.3679632 11.2120153,10.2713372 11.3078325,10.1517059 L11.3661605,10.0778138 C11.4040596,10.0160343 11.4364267,9.95124458 11.4601844,9.88901554 L11.4889793,9.7982889 C11.5353439,9.61040004 11.5877458,9.51541424 11.6700566,9.4007764 L11.8622316,9.13944301 C11.9493901,9.01418523 11.9735511,8.94949229 11.9773243,8.7795121 C11.9829966,8.52484864 11.9018331,8.28688746 11.7962274,8.06211256 L11.7204889,7.90954829 C11.5638731,7.60760513 11.5231205,7.36318725 11.5379692,7.02497254 C11.5536849,6.66668486 11.6702707,6.47735694 11.7685394,6.15770234 C11.8805529,5.79366665 11.8767849,5.44499544 12.1097308,5.15050974 L12.20887,5.04269338 C12.4143673,5.08379868 12.3447482,5.38976381 12.4646577,5.42134921 C12.584206,5.45293461 12.6165046,5.2190698 12.6170827,5.13914693 C12.6176953,5.05744007 12.6700347,4.97725382 12.7338929,4.89914617 L12.8257647,4.79232869 C12.8810234,4.72856497 12.93133,4.66644281 12.9530028,4.60629087 C12.9910096,4.5007602 12.9711752,4.32615492 13.0011978,4.20889042 L13.1232474,4.19578273 L13.2438456,4.18615692 L13.3556377,4.18371794 C13.5363609,4.18704187 13.6934539,4.23081009 13.8922278,4.36751851 C14.0018769,4.44293973 14.0894156,4.54352595 14.2110593,4.58916981 L14.2343025,4.59760541 C14.6100754,4.72931031 14.7967474,4.56985105 14.8487583,5.08774685 C14.8749874,5.34921199 14.8740481,5.63621112 14.8188803,5.89476125 C14.735966,6.28267869 14.3627616,6.60273918 14.1295179,6.9059369 C14.1521639,7.11399423 14.2176177,7.1864855 14.3025397,7.18275125 L14.3465151,7.17480672 C14.4977869,7.12898269 14.6923317,6.89889356 14.8220957,6.75926403 L14.9378293,6.62068825 C15.0149171,6.528623 15.100638,6.44468028 15.2187834,6.44499666 L15.2991104,6.45600004 C15.473674,6.50454784 15.5862539,6.7049274 15.6370482,6.88009359 L15.6590779,6.97464253 C15.7201346,7.32616269 15.796334,7.61777028 15.9197111,7.95315559 L15.9602447,8.06298924 C16.0236995,8.24158742 16.0194824,8.3026866 15.886505,8.49491139 C15.6888536,8.78075436 15.4430312,8.99882134 15.2657019,9.28867877 L15.1632244,9.48449847 L15.0579947,9.76971095 C14.981648,9.9670376 14.8785242,10.1818507 14.7614161,10.1911341 L13.6233755,10.1915036 L13.6159469,10.3298362 C13.6107974,10.506473 13.6077841,10.832918 13.6050086,11.1946146 L13.5972221,11.3057755 L13.5797091,12.1694058 C13.5761049,12.3156731 13.5721579,12.4624344 13.5678683,12.6086844 C12.3730377,13.0374461 11.1843754,13.25 10,13.25 C8.75184544,13.25 7.49892987,13.0139375 6.23974945,12.5388974 C6.23208723,11.8860767 6.5557021,11.0972128 6.62026078,11.0428702 C6.68462613,10.9226452 6.76735324,10.8390292 6.85666429,10.7663893 L7.02978052,10.6362406 C7.13176044,10.5607634 7.23211543,10.4803129 7.31281118,10.3653871 C7.5615539,10.011108 7.45414832,9.66878406 7.27207484,9.34114371 L7.09830141,9.05127259 L7.05604775,8.98747564 C6.99606919,8.89204195 6.93866744,8.79803867 6.89152012,8.70556683 C6.80663954,8.53891703 6.75269884,8.36513243 6.70916995,8.18878475 L6.63585375,7.86137333 C6.60384077,7.7135109 6.57029136,7.56582161 6.52339306,7.42093617 C6.47595569,7.27438538 6.41486081,7.13070326 6.32788393,6.99261226 C6.09594082,6.62433115 5.80895237,6.37904615 5.5244561,6.08949536 L5.33618536,5.88840434 C5.18813666,5.71915846 5.00961035,5.46596138 5.0080843,5.23840479 C5.00689207,5.06619793 5.1262958,4.92269837 5.13008926,4.75683811 C5.13366595,4.60164161 5.00075027,4.50452388 4.99997624,4.36537838 C4.99879935,4.10553679 5.35560155,3.96236931 5.44353761,3.72998046 C5.46854082,3.66388065 5.48072088,3.58762379 5.4881629,3.50717838 L5.49959942,3.33413307 C5.50532398,3.23407131 5.51237555,3.13399431 5.53472521,3.04421563 C5.55210288,2.97443993 5.57872937,2.91086324 5.62114389,2.8583562 C5.70740739,2.75159759 5.83366631,2.73178378 5.96763746,2.72926669 L6.17923764,2.72955538 L6.27904362,2.72201391 L6.3720326,2.7000233 L6.43577893,2.67299828 L6.55023552,2.61132646 C6.59533729,2.58631741 6.64000612,2.56296477 6.68605088,2.54849572 L6.75637609,2.53435824 L6.83012187,2.53896653 L6.9086449,2.56774098 C7.02371324,2.62810747 7.03599683,2.8299072 7.13560231,2.85097643 L7.18458815,2.85061428 L7.24144993,2.83400843 L7.37916237,2.77118088 L7.4251059,2.74130996 L7.44986795,2.72807601 C7.51565853,2.69340408 7.57910564,2.66455346 7.63034201,2.66246029 L7.74455918,2.66375204 C7.82262501,2.6674986 7.90371984,2.67501298 7.9829649,2.67427736 L8.09983532,2.66548422 C8.13792313,2.65948919 8.17493864,2.64992944 8.21027203,2.63530275 C8.50753494,2.51206064 8.77931735,2.3612123 9.0291708,2.16626484 L9.2370773,1.98888441 L9.28791873,1.94099715 C9.46842535,1.7695792 9.68843579,1.55277215 9.92973212,1.50822092 L10.0211804,1.50001379 Z M5.80597883,7.63989722 C5.82958111,7.71216698 5.85235347,7.7979252 5.87719637,7.90525522 L5.93527392,8.17017386 C6.00347715,8.48173099 6.06534678,8.70036564 6.1612586,8.91612658 L6.22321377,9.04595868 C6.24258429,9.08395088 6.26238179,9.12080413 6.28382283,9.15883493 C5.20079552,9.56309728 4.1708436,10.1538226 3.19411223,10.9308198 C2.94694169,10.7637048 2.6986189,10.5864642 2.45,10.4 L2,10.0620138 L2,10 C3.04,8.96 4.26026667,8.1904 5.6608,7.6912 L5.80597883,7.63989722 Z M18,10 L18,10.0620138 L17.55,10.4 C17.3013811,10.5864642 17.0530583,10.7637048 16.8050204,10.9317435 C16.4482607,10.6463247 16.0834986,10.3868019 15.7116016,10.1522514 L15.7765478,9.98969444 C15.8154781,9.88579607 15.8571298,9.76919076 15.8575059,9.76848565 C15.8952691,9.68439841 15.9501604,9.60324887 16.0682968,9.46090105 L16.1945654,9.31238581 C16.2988535,9.19077894 16.3708616,9.10336869 16.4375194,9.01350617 L16.5033913,8.92146886 C16.5276468,8.88640643 16.5500835,8.85192523 16.5707137,8.81788801 C17.0805499,9.16244789 17.5566545,9.55665455 18,10 Z" fill="#FFFFFF"></path>
    <path d="M18,1.42108547e-14 C19.1045695,1.42108547e-14 20,0.8954305 20,2 L20,18 C20,19.1045695 19.1045695,20 18,20 L2,20 C0.8954305,20 0,19.1045695 0,18 L0,2 C0,0.8954305 0.8954305,1.42108547e-14 2,1.42108547e-14 L18,1.42108547e-14 Z M18,1 L2,1 C1.44771525,1 1,1.44771525 1,2 L1,18 C1,18.5522847 1.44771525,19 2,19 L18,19 C18.5522847,19 19,18.5522847 19,18 L19,2 C19,1.44771525 18.5522847,1 18,1 Z" fill="#FFFFFF" fill-rule="nonzero"></path>
</svg>