<svg width="22" height="20" viewBox="0 0 5.822 5.292" xmlns="http://www.w3.org/2000/svg">
 <path style="color:#000;fill:#ffcd00;stroke:#000;stroke-width:.52925;stroke-linecap:round;stroke-linejoin:round;stroke-miterlimit:4;stroke-dasharray:none;paint-order:stroke fill markers" d="m 5.473888,3.5820313 c -0.3490292,0.509878 -0.8966953,0.9335192 -1.5848215,1.2285156 -0.00379,0.00122 -0.0075,0.00252 -0.011157,0.00391 C 3.5931511,4.952679 3.256257,5.0273438 2.910875,5.0273437 c -0.3454153,0 -0.6823723,-0.072954 -0.9665626,-0.2109375 -0.0027,-0.00201 -0.0055,-0.00397 -0.00837,-0.00586 C 1.2482881,4.5156717 0.70592709,4.0907618 0.35670089,3.5800781 0.30128333,3.4771531 0.26469183,3.366043 0.264625,3.2617188 V 0.529 H 2.3905309 C 2.5236212,0.52952627 2.6284547,0.4649199 2.7264684,0.40429688 2.8013774,0.35796458 2.8568892,0.29709738 2.9108747,0.264375 2.9641277,0.2969582 3.0237382,0.3579848 3.0975625,0.40429688 3.1950085,0.46542718 3.301127,0.53041924 3.4354531,0.529 l 2.1216719,8.22e-5 v 2.7307245 c -8.86e-5,0.1080438 -0.029213,0.221713 -0.083237,0.3222246 z"/>
</svg>
