<?xml version="1.0" encoding="UTF-8"?>
<svg width="20px" height="20px" viewBox="0 0 20 20" version="1.1" xmlns="http://www.w3.org/2000/svg" xmlns:xlink="http://www.w3.org/1999/xlink">
    <path d="M2,1.42108547e-14 L18,1.42108547e-14 C19.1045695,1.40079486e-14 20,0.8954305 20,2 L20,18 C20,19.1045695 19.1045695,20 18,20 L2,20 C0.8954305,20 -5.51538359e-14,19.1045695 -5.5067062e-14,18 L-5.5067062e-14,2 C-5.52023328e-14,0.8954305 0.8954305,1.41917162e-14 2,1.42108547e-14 Z" fill="#006747" fill-rule="nonzero"></path>
    <path d="M18,1.42108547e-14 C19.1045695,1.42108547e-14 20,0.8954305 20,2 L20,18 C20,19.1045695 19.1045695,20 18,20 L2,20 C0.8954305,20 0,19.1045695 0,18 L0,2 C0,0.8954305 0.8954305,1.42108547e-14 2,1.42108547e-14 L18,1.42108547e-14 Z M18,1 L2,1 C1.44771525,1 1,1.44771525 1,2 L1,18 C1,18.5522847 1.44771525,19 2,19 L18,19 C18.5522847,19 19,18.5522847 19,18 L19,2 C19,1.44771525 18.5522847,1 18,1 Z" fill="#FFFFFF" fill-rule="nonzero"></path>
    <path d="M18,12 L18,14 C17.5461818,14.4538182 17.0580385,14.8561486 16.53557,15.2069913 C14.8473301,16.3405603 12.8011826,16.9365565 10.3968,16.9952 L10,17 C6.66666667,17 4,16 2,14 L2,12 L2.34,12.249867 C4.08695652,13.5028355 5.82608696,14.3251418 7.56521739,14.7221172 L7.91304348,14.7958412 C8.41012827,14.8930969 8.90721306,14.9556052 9.40429785,14.9833659 C9.6021989,14.9944367 9.80109945,15 10,15 L10.3478261,14.9943289 C12.5378422,14.9229154 14.7278583,14.1770403 16.9178744,12.7567038 L17.3473263,12.4695373 L17.6521739,12.2551985 L18,12 Z M10,13 L12,14 L7.77942372,14.0015283 C6.86088615,13.7962385 5.93931829,13.4634314 5.01412958,13.001962 L10,13 Z M14.5,5 L14.8377373,8.4846877 L15.0646579,8.44742136 C15.2928456,8.41846463 15.5243941,8.41251755 15.7553401,8.41230716 C15.9495626,8.41211905 16.1189432,8.43497514 16.2846379,8.43216472 L16.4085483,8.42448333 C16.5324287,8.41046726 16.6572108,8.37516384 16.7918197,8.29802324 C17.1004707,8.12115912 17.3684239,7.84824303 17.6897797,7.69466585 L17.8054144,7.64666219 C17.8222257,7.64099192 17.8378428,7.63644321 17.8523204,7.63295064 L17.909962,7.62414231 C18.1783276,7.6128309 17.8375262,8.15334188 17.6428215,8.34139257 L17.3947619,8.56476774 C17.2750567,8.67660368 17.1849008,8.79235237 17.1211597,9.03375559 C17.0032745,9.48026264 16.5464919,9.32971812 16.3272362,9.63672708 L16.252831,9.76297367 C16.1028698,10.0701231 16.0984245,10.453797 15.8186243,10.6726144 C15.6726332,10.786761 15.5025392,10.8368166 15.3405544,10.9022476 L15.2210896,10.9554455 C15.1041519,11.0140096 14.9963056,11.0923974 14.9111399,11.2241338 C14.7183197,11.5223613 14.8140167,11.5484803 14.4450992,11.6027822 L14.1522648,11.6361615 C14.0552503,11.6479888 13.95948,11.6644503 13.8668954,11.6973457 C13.4369888,11.8500895 13.2766464,12.3634222 12.8864886,12.5552404 C12.7793253,12.6079932 12.6504484,12.6266423 12.537336,12.6648143 C12.2435678,12.7639917 12.0495003,12.9161637 11.8747514,13.0983864 L11.058,12.690867 L11.75,12 C11.75,11.550625 11.5975363,11.0089449 11.3546244,10.4404135 L11.6594116,10.2551705 C11.822482,10.1533355 11.96473,10.0134731 12.0943841,9.87820322 L12.2380565,8.16544266 L12.5,5 L14.5,5 Z M7,7.5 L7,12 L5,11.5 C5.45853597,10.3222293 5.62453902,8.34492521 7,7.5 Z M16.9767242,10.1070737 C17.3347861,10.37849 17.6761338,10.6761338 18,11 L18,11.062867 L17.55,11.4 C17.3010469,11.5867148 17.0523908,11.7641812 16.8040203,11.932421 C16.5674072,11.7411446 16.3267773,11.5632734 16.0830013,11.3964132 C16.1496356,11.3589263 16.2132015,11.3161401 16.2805862,11.2634538 C16.562053,11.0433331 16.6824223,10.8336214 16.8042165,10.4622772 L16.9107317,10.129 L16.9767242,10.1070737 Z M5.01679302,8.94428215 C4.94426408,9.13141578 4.8757182,9.32952619 4.80989625,9.53917718 L4.52418096,10.5304951 C4.46707758,10.7318449 4.41966116,10.8892851 4.37502193,11.0225241 L4.34032116,11.1196955 C3.95078373,11.362506 3.56904631,11.6326165 3.19510888,11.9300271 C2.94760922,11.7641812 2.69895307,11.5867148 2.45,11.4 L2,11.062867 L2,11 C2.8,10.2 3.70666667,9.56 4.72,9.08 L5.01679302,8.94428215 Z M13.5,8 C13.2238576,8 13,8.22385763 13,8.5 L13,10 L14,10 L14,8.5 C14,8.22385763 13.7761424,8 13.5,8 Z M9.91854676,9.33153609 L10.0291711,9.5000368 L10.341,10.012867 L10.4724667,10.2549353 C10.535709,10.3762763 10.5948976,10.4978373 10.6490956,10.6189928 C10.863799,11.0991243 11,11.5721226 11,12 L8,12 L8.00186771,7.00154586 L8.26027306,7.26794573 C8.41500233,7.43306329 8.62736402,7.66708664 8.8659459,7.94904304 C9.19460365,8.33746543 9.5727097,8.81644566 9.91854676,9.33153609 Z M10,8 C10.5131742,8 11.0105475,8.0237013 11.49212,8.07110389 L11.3697317,9.536 L11.3198325,9.57863069 C11.1842674,9.56155025 11.0467871,9.54772505 10.908566,9.53649278 C10.6123984,9.0016231 10.2661493,8.47238677 9.91931756,8.00128242 L10,8 Z M15.067,4.248867 L15.0937668,4.20829524 L15.1438,4.14892827 L15.1949196,4.10375811 L15.268481,4.05681734 L15.3143047,4.03576165 L19,2.560867 L19,3.637867 L16.846,4.499867 L19,5.360867 L19,6.437867 L15.3143047,4.96423835 L15.252,4.933867 L15.1957993,4.89692269 L15.1625833,4.86916004 L15.1157183,4.8200978 L15.0680845,4.75202361 L15.0299695,4.67051781 L15.0185879,4.63521714 L15.0039881,4.56376743 L14.999867,4.49997354 L15.0070641,4.41582654 L15.0239254,4.34714415 L15.047,4.288867 L15.067,4.248867 Z M13.5,2.5 L14.5,3 L14.5,4 L12.5,4 L12.5,3 L13.5,2.5 Z M11.98214,4.63261071 L11.9700305,4.67051781 L11.9250376,4.76310436 L11.86916,4.8374167 L11.8200978,4.88428166 L11.7520236,4.93191553 L11.6856953,4.96423835 L6.68569534,6.96423835 C6.42930358,7.06679505 6.13831836,6.9420871 6.03576165,6.68569534 C5.93320495,6.42930358 6.0579129,6.13831836 6.31430466,6.03576165 L10.153,4.499867 L6.31430466,2.96423835 C6.0579129,2.86168164 5.93320495,2.57069642 6.03576165,2.31430466 C6.13831836,2.0579129 6.42930358,1.93320495 6.68569534,2.03576165 L11.6856953,4.03576165 L11.7458123,4.06457592 L11.8051002,4.10376608 L11.8706882,4.16424958 L11.9062106,4.20835741 L11.9324695,4.24893095 L11.9642383,4.31430466 C11.9777054,4.34797227 11.9872537,4.38223637 11.9930996,4.416592 L12.000133,4.50002646 L11.9960128,4.56375147 L11.98214,4.63261071 Z" fill="#FFFFFF"></path>
</svg>