<svg xmlns="http://www.w3.org/2000/svg" width="20" height="20">
 <circle fill="#fff" stroke="#000" cx="10" cy="10" r="9.5"/>
 <path d="M 2.912 6.564 H 4.929 L 5.99 11.108 L 7.185 6.564 H 9.019 L 10.178 11.078 L 10.939 7.842 H 14.009 C 15.669 7.993 15.802 10.073 14.03 10.4 H 13.292 L 15.24 13.062 H 16 L 14.405 10.89 C 17.085 10.069 16.074 7.368 14.373 7.292 H 11.057 L 11.254 6.564 H 14.318 C 16.29 6.491 18.106 9.345 15.624 11.233 L 17.508 13.805 H 14.788 L 12.501 10.584 V 9.608 H 14.007 C 14.848 9.458 14.584 8.614 14.001 8.622 H 12.459 L 11.068 13.805 H 9.23 L 7.953 9.158 L 6.702 13.805 H 4.909 Z"/>
</svg>
