<svg width="20" height="20" xmlns="http://www.w3.org/2000/svg">
 <path d="M13.0653276,0.5 C13.1580037,0.841559112 13.3419082,1.12636528 13.5690963,1.35355339 C14.0118195,1.79627652 14.6198185,2 15,2 C15.4061586,2 15.9836426,1.89281466 16.3405896,1.59217598 L17.0084061,0.778102468 L19.2958219,3.44675422 C18.870361,3.62054649 18.6803017,3.65949419 18.5165954,3.72412475 C18.2471352,3.83050648 18.0415574,4.00855195 17.8880621,4.2310676 C17.5281611,4.752801 17.4994799,5.5693313 17.4999718,5.96653754 C17.5000034,6.63376461 17.8498847,7.32130796 18.2977828,8.12668124 C18.8331151,9.08927157 19.5,10.2583549 19.5,11.8218086 C19.5,13.1970265 19.1230701,14.3189496 18.3664366,15.1782115 C17.5853921,16.0651955 16.4131824,16.6674929 14.8806245,17.0144596 C14.6594555,17.0688364 14.4476816,17.1172983 14.2426368,17.1642397 C12.7894895,17.4969125 11.6536613,17.7596696 9.99979419,19.304182 C8.34619034,17.7596353 7.21041568,17.4968908 5.75736318,17.1642397 C5.55231841,17.1172983 5.34054446,17.0688364 5.11037795,17.0123355 C3.5868175,16.6674929 2.41460776,16.0651955 1.63356337,15.1782116 C0.87692987,14.3189496 0.5,13.1970265 0.5,11.8218086 C0.5,10.2583549 1.1668849,9.08927157 1.70221721,8.12668124 C2.15101623,7.31968792 2.5,6.63072633 2.49999964,6.00060047 C2.50052417,5.56383455 2.47050518,4.75086775 2.1119379,4.23106783 C1.95844265,4.00855221 1.75286487,3.83050674 1.4834047,3.72412495 C1.31969835,3.65949435 1.12963912,3.62054661 0.907833564,3.62223761 L3.07350658,0.682537692 C4.01680808,1.9846193 4.53757299,1.99173789 4.99098006,1.99991863 C5.45610556,2.00831081 6.02048824,1.80995294 6.43094189,1.39949929 C6.66476355,1.16567764 6.85090791,0.865750231 6.94096323,0.5 Z" stroke="#FFF" fill="#003F87"/>
 <path d="M3 12.6148553C3 12.6148553 2.98163557 10.9564347 3.95624065 9.83218642 4.93084552 8.70793862 6.96381319 8.09868832 6.96381319 8.09868832L9.17864723 11.2980566C9.17864723 11.2980566 8.62391899 12.2173311 7.6033452 12.6769687 6.58276847 13.1366057 6.24717414 13.0962321 5.09634421 13.06207 3.94551429 13.027908 3 12.6148553 3 12.6148553ZM17 15C17 15 16.9816142 13.2018245 16.4728554 11.6893695 15.9641083 10.1769146 15.9120002 10.0852974 14.9649794 8.95017968 14.0179586 7.81506201 12.6847722 7.14889835 12.6847722 7.14889835L12.4641083 11.3477472C12.4641083 11.3477472 12.9658425 12.7133343 13.493875 13.2484093 13.9058042 13.665828 17 15 17 15Z" fill="#08DB76"/>
 <path d="M3.61298394,5.26065902 C3.61298394,5.26065902 5.00886254,4.84559805 6.32672363,5.06299403 C7.64458571,5.28039002 8.88443028,6.13024297 8.88443028,6.13024297 L6.98402237,8.13136952 C6.98402237,8.13136952 5.59925619,7.69237266 4.78402058,6.98428291 C3.96878645,6.27619316 3.61298394,5.26065902 3.61298394,5.26065902 Z" fill="#08DB76"/>
 <path d="M3.57437032 12.332158C3.63275848 12.3124355 3.84928219 12.1497264 4.49885378 11.7207658 5.14842538 11.2918051 4.99758872 11.2203116 5.59850319 10.8431225 6.19941766 10.4659333 6.90251166 10.2120082 6.90251166 10.2120082L7.31123074 10.0739518M3.95389337 5.44906768 4.71294338 5.82379176C4.71294338 5.82379176 5.45009721 6.22563411 5.97802624 6.41546147 6.50595526 6.60528883 6.8343905 6.65705979 6.8343905 6.65705979M16.775004 14.634738C16.775004 14.634738 16.4465688 14.0036242 15.8651174 13.1407728 15.2836659 12.2779215 15.3079942 12.3222962 14.6778857 11.5334035 14.0477771 10.7445107 13.3446827 9.98520175 13.3446827 9.98520175" stroke="#163082" stroke-width=".25" stroke-linecap="round"/>
 <path d="M12.9871485,5.29685713 C12.9871485,5.29685713 13.1970233,5.7675276 13.4516259,5.79541934 C13.706228,5.82331058 14.005558,5.40842309 14.005558,5.40842309 C14.005558,5.40842309 13.7234311,5.8616611 13.8094456,6.19984655 C13.89546,6.53803201 14.3496153,6.76116442 14.3496153,6.76116442 C14.3496153,6.76116442 14.1018941,6.68969228 13.9333059,6.69143557 C13.7647177,6.69317887 13.4550666,6.84483963 13.4550666,6.84483963 L12.7359871,6.07782082 C12.7359871,6.07782082 13.0370369,5.92267396 13.0594006,5.75358173 C13.0817642,5.584489 12.9871485,5.29685713 12.9871485,5.29685713 Z" fill="#08DB76"/>
 <path d="M10.6075021,12.9890082 C10.5434328,12.9451579 10.4545212,12.8766653 10.4099209,12.8368016 C10.3653206,12.796938 10.2259035,12.6771665 10.100105,12.5706431 C9.72885555,12.2562767 9.53415738,12.0063039 9.41315792,11.6886721 L9.33472149,11.4827713 L8.91638223,11.4636423 C8.68629532,11.4531214 8.42080594,11.4315248 8.32640506,11.4156507 C8.23200467,11.3997766 8.07752029,11.3796221 7.98310665,11.3708634 C7.88869302,11.3621042 7.69557442,11.337014 7.55395372,11.3151072 C7.41233351,11.2932005 7.23852638,11.2672131 7.16771603,11.2573583 C7.0156898,11.2361986 6.79916806,11.1652305 6.74330574,11.118251 C6.71221568,11.0921046 6.70739358,11.0225701 6.72081649,10.7939702 C6.73066231,10.6262971 6.7246467,10.429252 6.70662244,10.3290222 C6.65502348,10.0420937 6.64586737,9.65132905 6.68333163,9.3350449 C6.7027574,9.17104735 6.72956888,9.03002978 6.74291232,9.0216732 C6.75625625,9.01331661 6.76717343,8.94716284 6.76717343,8.8746652 C6.76717343,8.78062814 6.74872435,8.72028286 6.70280056,8.66410619 C6.66739514,8.6207967 6.60624127,8.54183191 6.56690213,8.48862784 C6.52756299,8.43542426 6.48250208,8.37734174 6.46676623,8.35955536 C6.45103087,8.34176897 6.43536272,8.31251172 6.43194849,8.29453892 C6.42853377,8.27656613 6.38724421,8.20406004 6.34019265,8.13341406 C6.29314159,8.06276808 6.242354,7.95384366 6.22733141,7.8913609 C6.21230931,7.82887764 6.18680073,7.73861648 6.17064546,7.69078048 C6.07483081,7.4070637 6.0428872,7.14652275 6.08497832,6.99204846 C6.11635093,6.87691091 6.23743281,6.7869823 6.39524066,6.76161429 C6.7835259,6.69919565 7.15925749,6.61390589 7.43323191,6.52599447 C7.60905912,6.46957571 7.78539847,6.41806324 7.82509718,6.41152302 C7.96328943,6.38875628 8.52685786,6.18296636 8.54958012,6.14697453 C8.5621637,6.1270427 8.59435013,6.11031412 8.6211052,6.10980013 C8.64786076,6.10928614 8.79849727,6.07224148 8.95585382,6.027478 L9.24195561,5.9460899 L9.24388592,5.83584073 C9.2462332,5.70175161 9.37058851,5.5734193 9.52698309,5.54368833 C9.74970587,5.50134816 10.0315369,5.60329592 10.0848925,5.74550302 C10.1093842,5.81077992 10.280045,5.96577617 10.3274272,5.96577617 C10.3392484,5.96577617 10.3863039,5.99275027 10.4319952,6.02571929 C10.5245643,6.09251332 10.5527709,6.08823089 10.8004205,5.96978321 C10.9910108,5.87862629 11.0469492,5.82442008 11.113998,5.66591488 C11.1746029,5.5226445 11.342001,5.33862714 11.449351,5.29726872 C11.6489541,5.22036786 11.8716058,5.43492894 11.9052913,5.73664238 C11.9158014,5.83077538 11.9367733,5.90779257 11.951896,5.90779257 C12.009799,5.90779257 12.2029995,6.07146204 12.2513447,6.16146969 C12.2791794,6.21329235 12.3066517,6.25569266 12.3123926,6.25569266 C12.318134,6.25569266 12.3545588,6.23040369 12.3933362,6.19949461 C12.5014411,6.1133255 12.7481223,6.03715734 12.7752168,6.08158131 C12.7922232,6.10946559 12.8438805,6.10613409 13.0100459,6.06643845 C13.2017669,6.02063754 13.235734,6.0198064 13.3496686,6.05812809 C13.5560433,6.12754178 13.6633452,6.35199447 13.5724395,6.52411795 C13.5545251,6.55803741 13.5101534,6.61826288 13.4738351,6.65795306 C13.3971999,6.74170234 13.4062658,6.77887774 13.4977513,6.75602997 C13.5617729,6.74004106 13.5617371,6.74037163 13.4905702,6.82196453 C13.451231,6.86706653 13.3514532,6.97480489 13.2688412,7.06138311 C13.0993887,7.23897111 13.076818,7.33747354 13.1830103,7.43596552 C13.264414,7.51146559 13.3183843,7.52757976 13.5952216,7.55903962 C13.800029,7.58231388 13.8264137,7.5928507 13.8982527,7.68004929 C13.9468103,7.73898929 13.9769433,7.80989177 13.9769433,7.86520748 C13.9769433,7.98003982 13.8364444,8.20519489 13.7220625,8.27366262 C13.6733794,8.30280355 13.6258171,8.35132752 13.6163692,8.38149245 C13.5924505,8.45785894 13.6297151,8.73242181 13.68082,8.85636482 C13.7414058,9.00330024 13.99528,9.2645739 14.1593124,9.34880386 C14.3803502,9.46230599 14.4347065,9.53274865 14.4347065,9.70570129 C14.4347065,9.82587536 14.4209299,9.86725564 14.3605511,9.92843951 C14.2904761,9.99944886 14.2747309,10.0026904 14.0744488,9.98734073 C13.9430683,9.97727217 13.8625024,9.98199055 13.8625024,9.99975407 C13.8625024,10.0605517 13.6565918,10.4759706 13.5357797,10.6589063 C13.1745988,11.205815 12.9656938,11.4031643 12.7109421,11.4381162 C12.6519339,11.4462123 12.603654,11.4677209 12.603654,11.4859134 C12.603654,11.504106 12.5553741,11.5443221 12.4963659,11.5752823 C12.4373572,11.6062431 12.3212357,11.6744409 12.2383181,11.7268337 C12.155401,11.7792266 12.0691369,11.8220931 12.0466211,11.8220931 C12.0241049,11.8220931 11.9953871,11.8402558 11.9828036,11.8624544 C11.97022,11.8846535 11.9148634,11.9280465 11.8597889,11.9588844 C11.7498474,12.0204436 11.6054757,12.1988836 11.4309642,12.4889015 C11.2986816,12.7087407 11.1964692,12.8260048 11.014334,12.9668852 C10.8545213,13.0904996 10.7630588,13.095473 10.6075021,12.9890082 Z" fill="#FFF"/>
 <path d="M11.6534142,11.4070386 C11.5802708,11.3077772 11.4544728,11.1205545 11.3738632,10.9909909 C11.2400889,10.7759755 11.2246282,10.7329707 11.1966718,10.4981333 C11.1798258,10.3566252 11.1352937,10.111319 11.0977108,9.95300869 C11.0177595,9.61622951 10.9833337,9.14228322 11.0238541,8.93622039 C11.0468726,8.81916109 11.0442104,8.78209455 11.0100216,8.7436297 C10.9726495,8.70158183 10.9726481,8.68396047 11.0100108,8.59334638 C11.0332898,8.53688885 11.0492945,8.46969367 11.0455766,8.44402392 C11.0350651,8.37144824 10.9488044,8.28390815 10.8878011,8.28390815 C10.8574626,8.28390815 10.8147122,8.27693646 10.7927988,8.26841534 C10.7333496,8.24529815 10.2656434,8.5751653 10.0103673,8.82025369 C9.85981023,8.96480258 9.73933467,9.19700888 9.62269718,9.5674555 C9.52214922,9.88679925 9.5118099,9.94902004 9.51100835,10.2395663 C9.51052221,10.4156695 9.49693693,10.6576009 9.48081845,10.7771914 C9.46470046,10.8967824 9.44562053,11.0402914 9.43841926,11.0961002 C9.40457526,11.3583819 9.35941036,11.5019834 9.31076157,11.5019834 C9.26868173,11.5019834 9.2649614,11.4846379 9.28433517,11.3787691 C9.31630674,11.2040563 9.33764173,10.9209449 9.34168582,10.6177373 C9.34826311,10.1245232 9.38975919,9.93612253 9.63520766,9.28507589 C9.79204766,8.8690615 9.92017187,8.73519508 10.5783693,8.29964454 C10.6692608,8.2394991 10.757259,8.16447574 10.773921,8.13292741 C10.8111277,8.06247927 10.7861951,7.94822107 10.7287404,7.92587984 C10.6727967,7.90412568 10.2715982,7.85577718 9.98396,7.83612571 C9.85807515,7.82752555 9.6005832,7.79968899 9.41175593,7.7742668 C8.77155334,7.68807482 8.8159937,7.68612473 8.37963607,7.8195567 C7.91090854,7.96288722 7.31606805,8.42309593 7.01662282,8.6283311 C6.78982799,8.78377273 6.63441549,8.82801526 6.90218201,8.61834803 C7.16994902,8.4086808 8.03105003,7.80433032 8.544214,7.67814494 C8.8518313,7.60250271 9.0118996,7.60145037 9.30053705,7.67317255 C9.53881711,7.73238097 10.1901503,7.82004136 10.3918025,7.82004136 C10.4832051,7.82004136 10.5186557,7.8059916 10.5428525,7.76017628 C10.6004735,7.65107489 10.5977004,7.59042142 10.5329831,7.54435408 C10.4873488,7.51187022 10.4688958,7.46647991 10.4650396,7.37723082 C10.4621277,7.30984078 10.4510633,7.20578039 10.4404518,7.1459849 C10.4226276,7.04554929 10.4263009,7.01083201 10.4886605,7.01083201 C10.5583799,7.01083201 10.5611299,7.04579187 10.5747049,7.30402831 C10.5769698,7.34710267 10.5865988,7.38090829 10.5961032,7.37915307 C10.6160842,7.37546217 10.708338,7.40809019 10.7707403,7.44091753 C10.831098,7.47266968 10.8409787,7.61245346 10.7871276,7.67275151 C10.7309366,7.73567022 10.7547425,7.76192951 10.8684921,7.76250167 C11.0368031,7.7633492 11.0512346,7.79986993 10.9816212,8.04878692 C10.9631255,8.11492031 10.9669557,8.11718207 11.065671,8.09841592 C11.2519337,8.06300718 11.3297628,8.21172318 11.2422743,8.43586965 C11.2074251,8.52515304 11.3090538,8.53181554 11.3974067,8.44604012 C11.5105593,8.33618764 11.6562864,8.31838633 11.7845955,8.39874297 C11.8406639,8.43385743 11.8865381,8.471431 11.8865381,8.48224023 C11.8865381,8.49304946 11.9108807,8.51729852 11.940633,8.53612681 C11.9883831,8.56634493 11.9930482,8.56291302 11.9804072,8.50686111 C11.9666503,8.44586465 11.8529168,8.12888706 11.8015872,8.00848731 C11.7879911,7.97659648 11.7233313,7.81351804 11.6578988,7.64609107 C11.5924664,7.47866458 11.5123753,7.2872699 11.4799181,7.22077065 C11.412362,7.08235684 11.4266454,7.00824515 11.5208603,7.008341 C11.5722091,7.00839328 11.6026997,7.04395015 11.6638119,7.17504331 C11.9279792,7.74171484 12.0009789,7.90805717 12.0009789,7.94333666 C12.0009789,7.96513805 12.0491367,8.08003948 12.1079958,8.19867307 C12.2115405,8.40737296 12.2149886,8.42424669 12.2142719,8.71878314 C12.2134845,9.04250874 12.1489723,9.29861663 12.0682151,9.29861663 C12.00375,9.29861663 11.9912135,9.22080559 12.0270958,9.04339853 L12.0605012,8.87823729 L11.9599371,8.78882267 C11.8615946,8.70138349 11.6932424,8.63180824 11.5800074,8.63180824 C11.5488197,8.63180824 11.4344422,8.6688027 11.325835,8.71401803 L11.1283677,8.79622782 L11.128949,8.93870335 C11.1300821,9.21661064 11.1702263,9.51981188 11.2437748,9.80597087 C11.2847578,9.96542501 11.3299669,10.1415491 11.3442394,10.1973584 C11.358512,10.2531672 11.370684,10.351014 11.3712883,10.4147957 C11.3718927,10.4785773 11.3922701,10.5894707 11.4165714,10.6612247 C11.4946218,10.8916827 11.8923722,11.5423794 11.9957654,11.6513098 C12.0462719,11.7045238 12.0555226,11.8470625 11.9815173,11.8462369 C11.9363083,11.8457263 11.7468114,11.5337877 11.6534142,11.4070386 Z M10.8172321,11.4113847 C10.769715,11.1706319 10.8134019,11.0091253 10.9260419,11.0091253 C10.9940826,11.0091253 11.0282322,11.057173 11.0282322,11.1529037 C11.0282322,11.1815386 11.0475442,11.2212079 11.0711475,11.2410587 C11.1702331,11.3243894 11.0618928,11.5019834 10.911973,11.5019834 C10.8487784,11.5019834 10.8319344,11.4858757 10.8172321,11.4113847 Z M8.46046688,9.73263265 C8.32043556,9.6695842 8.30334628,9.60013521 8.41755163,9.55822553 C8.46082449,9.54234598 8.52425844,9.51488074 8.55851597,9.49719278 C8.60879878,9.47122925 8.63418276,9.4756966 8.69023297,9.52037359 C8.74658682,9.56529316 8.7549188,9.58871307 8.73447122,9.6447257 C8.71147671,9.70771401 8.6312375,9.79124954 8.59636531,9.7885051 C8.58849739,9.78788573 8.52734302,9.7627429 8.46046688,9.73263265 Z M7.81511253,8.7748763 C7.79228235,8.68640964 7.8416601,8.57382465 7.9032903,8.57382465 C7.93200364,8.57382465 7.96937813,8.55975848 7.98634379,8.54256661 C8.04212124,8.48604496 8.17816292,8.52410915 8.21726463,8.60717692 C8.28470343,8.7504468 8.24593431,8.78293762 7.96344052,8.81989231 C7.84494286,8.83539407 7.82952194,8.83071396 7.81511253,8.7748763 Z M11.4323897,6.42037123 C11.4790361,6.84560764 11.4738132,6.83237112 11.6200338,6.89588435 C11.7927318,6.97089875 11.906528,6.9672352 12.1681533,6.87823963 C12.4723912,6.77474841 12.5971988,6.67509671 12.7191382,6.43830973 C12.8223719,6.23784712 12.896775,6.188837 12.9137225,6.31013598 C12.9249375,6.39040563 12.8873315,6.49787059 12.7650443,6.73501051 C12.6850999,6.89003906 12.6756559,6.93418913 12.6782244,7.1408937 C12.6794924,7.24294436 12.6897532,7.362826 12.7027798,7.43864504 L12.712971,7.48628051 C12.7417452,7.58872883 12.7361225,7.61966226 12.6550052,7.8051888 C12.5686748,8.00263854 12.53996,8.17303713 12.585279,8.21895982 C12.597112,8.23095113 12.6930277,8.21624223 12.7984247,8.18627265 C12.9038213,8.15630357 13.0512089,8.12609888 13.125953,8.11915104 L13.2618514,8.10651849 L13.2618514,8.20546282 C13.2618514,8.25988228 13.2479654,8.38052461 13.2309939,8.47355656 C13.2015153,8.63514869 13.2042849,8.65182607 13.2929827,8.84682466 C13.3440484,8.95908953 13.3842965,9.06801593 13.3824231,9.08888279 C13.3610464,9.32700198 13.3761122,9.45574738 13.4314692,9.50800797 C13.5058763,9.5782528 13.505711,9.65290383 13.4303164,10.0287752 C13.3764997,10.2970757 13.234696,10.6923714 13.1922669,10.6923714 C13.183493,10.6923714 13.1264553,10.5912632 13.0655177,10.4676861 C12.8773851,10.0861702 12.6859427,9.78891123 12.6000941,9.74500473 C12.5744432,9.73188602 12.4416387,9.61451852 12.304973,9.4841889 L12.0564905,9.24722495 L12.1037304,9.1546548 C12.1297124,9.10374132 12.1576065,8.9690189 12.1657168,8.85527271 C12.1783126,8.67861675 12.1693184,8.61886898 12.1040326,8.44551868 C12.0619959,8.33390102 11.9661504,8.07237733 11.8910423,7.86435497 C11.8159348,7.65633311 11.7341047,7.45411628 11.709198,7.41498433 C11.6842914,7.37585239 11.6549722,7.29427191 11.6440442,7.233694 C11.6331162,7.17311609 11.6054954,7.10462351 11.5826642,7.08148793 C11.5365133,7.03472217 11.3147642,7.02396016 11.2720124,7.06641118 C11.1889029,7.14893563 10.6099175,7.09095402 10.329306,6.97200577 C10.2019377,6.9180158 10.1382227,6.91219388 9.74811355,6.91890261 C9.39207312,6.92502477 9.26762999,6.93886427 9.08401187,6.99275681 L8.85805196,7.05907661 L8.77532272,6.95502666 C8.68432086,6.84057261 8.1997888,6.54647658 8.00472763,6.48729996 C7.937851,6.46701122 7.88313411,6.44135589 7.88313411,6.43028818 C7.88313411,6.41921997 8.03681987,6.3419771 8.2246582,6.25863693 L8.56618228,6.10710938 L8.69732484,6.18498902 C8.82184007,6.2589322 8.83819794,6.26142262 9.02098802,6.23426459 C9.12687414,6.21853267 9.21826795,6.20999664 9.22408538,6.21529662 C9.22990231,6.2205961 9.14943599,6.33553133 9.0452717,6.47070808 C8.90468606,6.65314868 8.85588078,6.73965085 8.85588078,6.80638423 C8.85588078,6.93429153 8.91942462,6.94387941 9.07501372,6.8394472 C9.14871341,6.78997975 9.23577419,6.74945744 9.26848159,6.74939779 C9.3011885,6.74933814 9.37167508,6.72227655 9.42511801,6.6892613 C9.47856094,6.65624605 9.61374416,6.59598479 9.72552521,6.55534765 C9.83730626,6.51471102 9.97619018,6.45714746 10.0341555,6.42742941 C10.0921213,6.39771136 10.2852404,6.33419913 10.4633084,6.28629106 C10.9608371,6.15243557 11.1278074,6.10331012 11.159002,6.08160666 C11.1747373,6.07065874 11.2225022,6.05326158 11.2651456,6.04294695 C11.3706119,6.01743528 11.3939723,6.0701532 11.4323897,6.42037123 Z" fill="#BF2033"/>
</svg>
