<svg width="26" height="20" version="1.0" xmlns="http://www.w3.org/2000/svg">
 <path style="fill:#000" d="M 26,2 C 26,0.90065 25.09935,0 24,0 H 2 C 0.90065,0 0,0.90065 0,2 v 16 c 0,1.09935 0.90065,2 2,2 h 22 c 1.09935,0 2,-0.90065 2,-2 z"/>
 <path style="fill:#fff" d="M 24.047,18.9 H 21.17 v -4.998 h 2.877 v 0.868 h -1.82 v 1.099 h 1.694 v 0.868 h -1.694 v 1.288 h 1.82 z m -1.018497,-5.95 h -1.057 V 8.834 h -1.358 V 7.952 h 3.773 v 0.882 h -1.358 z M 24.88,4.494 c 0,0.518 -0.08633,0.970667 -0.259,1.358 C 24.453,6.234667 24.194,6.533333 23.844,6.748 23.494,6.962667 23.046,7.07 22.5,7.07 21.958667,7.07 21.510667,6.962667 21.156,6.748 20.806,6.533333 20.544667,6.232333 20.372,5.845 20.204,5.457667 20.12,5.005 20.12,4.487 c 0,-0.518 0.084,-0.968333 0.252,-1.351 0.172667,-0.3826667 0.434,-0.679 0.784,-0.889 0.354667,-0.2146667 0.805,-0.322 1.351,-0.322 0.541333,0 0.987,0.1073333 1.337,0.322 0.35,0.21 0.609,0.5086667 0.777,0.896 0.172667,0.382667 0.259,0.833 0.259,1.351 z m -3.647,0 c 0,0.522667 0.100333,0.935667 0.301,1.239 0.200667,0.298667 0.522667,0.448 0.966,0.448 0.452667,0 0.777,-0.149333 0.973,-0.448 0.196,-0.303333 0.294,-0.716333 0.294,-1.239 0,-0.527333 -0.098,-0.940333 -0.294,-1.239 -0.196,-0.2986667 -0.518,-0.448 -0.966,-0.448 -0.448,0 -0.772333,0.1493333 -0.973,0.448 -0.200667,0.298667 -0.301,0.711667 -0.301,1.239 z M 19,19 H 2 C 1.437352,19 1,18.562648 1,18 V 2 C 1,1.4373519 1.437352,1 2,1 h 17 z"/>
</svg>
