<?xml version="1.0" encoding="UTF-8"?>
<svg width="20px" height="20px" viewBox="0 0 20 20" version="1.1" xmlns="http://www.w3.org/2000/svg" xmlns:xlink="http://www.w3.org/1999/xlink">
    <path d="M2,1.42108547e-14 L18,1.42108547e-14 C19.1045695,1.40079486e-14 20,0.8954305 20,2 L20,18 C20,19.1045695 19.1045695,20 18,20 L2,20 C0.8954305,20 -5.51538359e-14,19.1045695 -5.5067062e-14,18 L-5.5067062e-14,2 C-5.52023328e-14,0.8954305 0.8954305,1.41917162e-14 2,1.42108547e-14 Z" fill="#006747" fill-rule="nonzero"></path>
    <path d="M18,1.42108547e-14 C19.1045695,1.42108547e-14 20,0.8954305 20,2 L20,18 C20,19.1045695 19.1045695,20 18,20 L2,20 C0.8954305,20 0,19.1045695 0,18 L0,2 C0,0.8954305 0.8954305,1.42108547e-14 2,1.42108547e-14 L18,1.42108547e-14 Z M17.618,3.5 L19,4.191 L19,2.809 L17.618,3.5 Z M18,13 L18,15 C16,17 13.3333333,18 10,18 C6.66666667,18 4,17 2,15 L2,13 C4.66666667,15 7.33333333,16 10,16 C12.6666667,16 15.3333333,15 18,13 Z M10,14 L12.5414408,14.9246594 C11.6918018,15.1418544 10.8448104,15.25 10,15.25 C8.34689226,15.25 6.685433,14.8359121 5.01212842,14.0009637 L10,14 Z M15.5,4 L15.8544543,10.3756067 C16.6391232,10.8128407 17.3543051,11.3543051 18,12 L18,12.062 L17.55,12.4 C16.265358,13.3634815 14.9886218,14.080702 13.7182469,14.554656 L11.507,13.75 L12.75,13.75 L12.75,13 C12.75,12.0503093 12.0995049,10.3878754 11.2909977,9.05285851 C11.9582824,9.10883634 12.5956982,9.20958268 13.203328,9.355008 L13.5,4 L15.5,4 Z M6.999,7.001 L7,13 L6.107,12.643 L4.5,12 C4.51949938,11.9248724 4.53937393,11.8493845 4.55966228,11.7736051 L4.58317393,11.6863511 C5.03934414,10.0044722 5.70544849,8.1928356 7,7 L6.999,7.001 Z M8,6.5 L8.00810248,6.50594854 C8.10538291,6.57885403 9.04152688,7.3053934 10,8.5 C10.9875429,9.7308381 12,11.9670006 12,13 L8,13 L8,6.5 Z M14.5,10 C14.2238576,10 14,10.2238576 14,10.5 L14,13 L15,13 L15,10.5 C15,10.2238576 14.7761424,10 14.5,10 Z M4.20143413,10.3457013 C4.05101011,10.8005706 3.90991686,11.2881242 3.77405367,11.8115805 L3.65142085,12.2858176 C3.41287688,12.433905 3.17740292,12.5912024 2.94499896,12.7577098 C2.78069246,12.6440348 2.61541177,12.5240588 2.45,12.4 L2,12.062 L2,12 C2.64,11.36 3.34826667,10.8224 4.1248,10.3872 Z M7.68569534,1.03576165 L12.6856953,3.03576165 L12.7079599,3.04529838 C12.7229913,3.05217031 12.7376872,3.05978444 12.7519878,3.06811504 L12.6856953,3.03576165 C12.7227297,3.0505754 12.7570166,3.06932056 12.7882679,3.091325 C12.7989175,3.09887928 12.8095649,3.10701954 12.8198908,3.11559703 C12.8319219,3.12556342 12.8432274,3.13590825 12.853995,3.14670764 C12.8640918,3.1567726 12.8744366,3.16807812 12.8842817,3.1799022 C12.8929805,3.19043507 12.9011207,3.20108253 12.9088103,3.21202019 C12.9168875,3.22339566 12.924646,3.2354821 12.9319155,3.24797639 C12.939848,3.26168184 12.9471565,3.2757128 12.9537878,3.29005258 C12.9572814,3.29756562 12.960862,3.30586378 12.9642383,3.31430466 L12.9700305,3.32948219 C12.9737294,3.33966722 12.9771005,3.34997527 12.9801363,3.36038941 L12.9642383,3.31430466 C12.9777292,3.3480318 12.9872874,3.38235755 12.9931306,3.41677426 C12.9946556,3.42585459 12.9960581,3.43582657 12.9971587,3.44585043 C12.9992038,3.46461901 13.0001394,3.48236517 13.000133,3.50002646 C13.0001675,3.5139685 12.9995238,3.52903426 12.9981819,3.54411948 C12.9969603,3.55721039 12.9954251,3.56916653 12.9934652,3.58103137 C12.9909358,3.59671013 12.9873885,3.61318453 12.9829659,3.62958562 C12.9791753,3.64357019 12.9748853,3.65714996 12.9700305,3.67051781 C12.9681281,3.67574468 12.9662259,3.68072651 12.9642383,3.68569534 L12.9547016,3.70795994 C12.9484866,3.72155445 12.9416644,3.73487466 12.9342542,3.74787614 L12.9642383,3.68569534 C12.9494246,3.7227297 12.9306794,3.75701659 12.908675,3.78826795 C12.9013814,3.7985467 12.8935318,3.80884274 12.8852738,3.81883959 C12.8749954,3.83131038 12.8643836,3.84293638 12.8532924,3.85399497 C12.8432274,3.86409175 12.8319219,3.87443658 12.8200978,3.88428166 C12.8095649,3.89298046 12.7989175,3.90112072 12.7879798,3.90881028 C12.7766043,3.91688749 12.7645179,3.92464598 12.7520236,3.93191553 C12.7376872,3.94021556 12.7229913,3.94782969 12.7079599,3.95470162 C12.7010504,3.95787676 12.6934328,3.96114336 12.6856953,3.96423835 L7.68569534,5.96423835 C7.42930358,6.06679505 7.13831836,5.9420871 7.03576165,5.68569534 C6.93320495,5.42930358 7.0579129,5.13831836 7.31430466,5.03576165 L11.153,3.5 L7.31430466,1.96423835 C7.0579129,1.86168164 6.93320495,1.57069642 7.03576165,1.31430466 C7.13831836,1.0579129 7.42930358,0.933204951 7.68569534,1.03576165 Z M14.5,1.5 L15.5,2 L15.5,3 L13.5,3 L13.5,2 L14.5,1.5 Z M16.2763932,3.9472136 L16.2517343,3.93407057 C16.2381509,3.92631811 16.2249061,3.91791551 16.2120521,3.90888007 L16.2763932,3.9472136 C16.2413503,3.92969214 16.209264,3.90861084 16.1803535,3.88462715 C16.1688608,3.87512876 16.1573278,3.86463511 16.1462627,3.85356126 C16.1353649,3.84267216 16.1248712,3.83113919 16.1149742,3.81918763 C16.1070005,3.80955428 16.0989819,3.79907507 16.0913449,3.78821818 C16.0820845,3.77509387 16.0736819,3.76184912 16.0659294,3.74826567 C16.0615522,3.74053812 16.0570633,3.73216054 16.0527864,3.7236068 L16.0463457,3.71027738 C16.0396756,3.69586312 16.0336958,3.68114695 16.0284245,3.66618367 L16.0527864,3.7236068 C16.0374692,3.69297247 16.025592,3.66151747 16.0170082,3.629681 C16.012743,3.61344294 16.0092204,3.59714074 16.0065151,3.58067856 C16.0044465,3.56864988 16.0029267,3.55658596 16.0018519,3.54452309 C16.0006082,3.53010391 15.9999227,3.51540577 15.9998916,3.50066253 C15.9998919,3.48526023 16.0005781,3.47022708 16.0019338,3.45528574 C16.0029267,3.44341404 16.0044465,3.43135012 16.006419,3.41930833 C16.0092204,3.40285926 16.012743,3.38655706 16.0170615,3.37047814 C16.0202825,3.35817503 16.024036,3.34608656 16.0282768,3.33407798 C16.0336958,3.31885305 16.0396756,3.30413688 16.0463457,3.28972262 C16.0482892,3.28555925 16.0504995,3.28096708 16.0527864,3.2763932 L16.0659294,3.25173433 C16.0736819,3.23815088 16.0820845,3.22490613 16.0911199,3.21205205 L16.0527864,3.2763932 C16.0703079,3.24135028 16.0913892,3.209264 16.1153728,3.18035351 C16.1248712,3.16886081 16.1353649,3.15732784 16.1464387,3.14626269 C16.1573278,3.13536489 16.1688608,3.12487124 16.1808124,3.11497419 C16.1904457,3.10700051 16.2009249,3.09898186 16.2117818,3.09134486 C16.2249061,3.08208449 16.2381509,3.07368189 16.2517343,3.06592943 C16.2594619,3.06155224 16.2678395,3.05706327 16.2763932,3.0527864 L18.9579338,1.7120941 C18.963726,1.73139354 18.968951,1.75093836 18.9735893,1.77070917 L18.9417014,1.66274122 C18.8033204,1.27639564 18.433938,1 18,1 L2,1 C1.44771525,1 1,1.44771525 1,2 L1,18 C1,18.5522847 1.44771525,19 2,19 L18,19 C18.5522847,19 19,18.5522847 19,18 L19,5.309 L16.2763932,3.9472136 Z" fill="#FFFFFF" fill-rule="nonzero"></path>
</svg>