<svg width="20" height="20" xmlns="http://www.w3.org/2000/svg">
 <path d="M18,0.5 C18.4142136,0.5 18.7892136,0.667893219 19.0606602,0.939339828 C19.3321068,1.21078644 19.5,1.58578644 19.5,2 L19.5,18 C19.5,18.4142136 19.3321068,18.7892136 19.0606602,19.0606602 C18.7892136,19.3321068 18.4142136,19.5 18,19.5 L2,19.5 C1.58578644,19.5 1.21078644,19.3321068 0.939339828,19.0606602 C0.667893219,18.7892136 0.5,18.4142136 0.5,18 L0.5,2 C0.5,1.58578644 0.667893219,1.21078644 0.939339828,0.939339828 C1.21078644,0.667893219 1.58578644,0.5 2,0.5 Z" stroke="#FFF" fill="#003F87"/>
 <path d="M0,6.5 C0.928878411,5.5 1.92887841,5 3,5 C4.60668238,5 4.5,5.5 6,5.5 C7.5,5.5 8,4.5 10,4.5 C12,4.5 12.4657845,5.5 14,5.5 C15.4510871,5.5 15.5,5 17,5 C18,5 19,5.5 20,6.5 L20,7 L0,7 L0,6.5 Z" fill="#FFF"/>
 <path d="M8,7 L19,7 L19,18 C19,18.5522847 18.5522847,19 18,19 L11,19 L11,19 L6,9 L8,7 Z" fill="#006747"/>
 <path d="M7.5,7 L9,7 C7.39590566,7.7261785 6.72923899,8.49540927 7,9.30769231 C7.46153846,10.6923077 12,12.5384615 12,16.2307692 C12,17.4615385 11.6666667,18.3846154 11,19 L4,19 C6.66666667,17.8974359 8,16.7307692 8,15.5 C8,13.6538462 5,11.6153846 5,9.30769231 C5,8.38461538 5.83333333,7.61538462 7.5,7 Z" fill="#FFF"/>
</svg>
