<svg width="28" height="20" xmlns="http://www.w3.org/2000/svg">
 <g fill="none" fill-rule="evenodd">
  <path d="M14,0.5 C17.6801478,0.5 21.0983432,1.59423413 23.5848056,3.3702787 C25.9681358,5.07265741 27.5,7.40600192 27.5,10 C27.5,12.5939981 25.9681358,14.9273426 23.5848056,16.6297213 C21.0983432,18.4057659 17.6801478,19.5 14,19.5 C10.3198522,19.5 6.90165683,18.4057659 4.41519443,16.6297213 C2.03186422,14.9273426 0.5,12.5939981 0.5,10 C0.5,7.40600192 2.03186422,5.07265741 4.41519443,3.3702787 C6.90165683,1.59423413 10.3198522,0.5 14,0.5 Z" stroke="#FFF" fill="#003F87"/>
  <path d="M14.2857143,4 C15.0966763,4 15.7130536,4.11192958 16.1904762,4.57142857 C16.3090453,4.68554628 16.1820612,5.19348279 15.8095238,6.0952381 L15.4285714,6.0952381 C15.4285714,5.52380952 14.8571429,4.38095238 13.7142857,4.95238095 C12.5714286,5.52380952 13.1550311,6.87994926 13.3333333,7.42857143 C13.6295357,8.33996335 15.2803294,10.4352014 18.2857143,13.7142857 C18.4126984,13.4603175 18.6031746,13.015873 18.8571429,12.3809524 C18.8571429,12.106254 19.0130054,10.8181287 17.7142857,9.71428571 C17.5671088,9.58919311 17.0591723,9.58919311 16.1904762,9.71428571 C16.0853342,9.74790429 16.0218422,9.68441223 16,9.52380952 C15.9767525,9.35287389 16.3644923,8.93625535 17.1428571,8.76190476 C17.3838049,8.70793343 17.8282494,8.70793343 18.4761905,8.76190476 L18.4728338,6.73112334 L17.75,6.75 L17.75,6 L23.25,6 L23.5,7.5 L23.0833333,7.51190476 C23.0833333,7.25793651 22.8928571,7.06746032 22.5119048,6.94047619 C22.1309524,6.81349206 21.3055556,6.75 20.0357143,6.75 L20,8.75 C21.1428571,9.26587302 21.9047619,9.14285714 22.2857143,8.38095238 L22.6666667,8.38095238 C22.6263055,9.00283238 22.4993214,9.44727682 22.2857143,9.71428571 C21.7777778,10.3492063 20.7619048,10.2857143 19.2380952,9.52380952 C19.5410276,10.0225985 19.7315038,10.467043 19.8095238,10.8571429 C19.8875438,11.2472427 19.8677025,11.6281951 19.75,12 L22,12 C23,12 23.5198413,11.8293651 23.5595238,11.4880952 C23.6865079,11.4880952 23.9166667,11.4920635 24.25,11.5 L24,13 L19.5,13 L18.8571429,14.0952381 C19.0667726,14.3782918 19.2572488,14.568768 19.4285714,14.6666667 C19.599894,14.7645653 19.8538623,14.8280574 20.1904762,14.8571429 L21,14 L22,14 C21.3333333,15.3333333 20.5396825,16 19.6190476,16 C18.8694053,15.8370118 18.2344846,15.5195514 17.7142857,15.047619 C16.8253814,15.6825397 15.7460163,16 14.4761905,16 C12.1904762,16 10.7936508,14.8571429 10.2857143,12.5714286 C9.76190476,13.1904762 8.91666667,13.5 7.75,13.5 C6.5,13.5 4.5,13 4,10 C3.58461942,7.50771653 5,5.5 7.5,5.5 C10.400477,5.51228879 11.5488318,8.19124424 11.5,9.5 C11.4931455,9.68371064 11.75,8.75 12.5,8.75 C12.1190476,7.98809524 12,8 12,6.66666667 C12,5.33333333 13.3333333,4 14.2857143,4 Z M12.75,9.5 C11.8690476,9.64285714 11.4285714,10.3492063 11.4285714,11.6190476 C11.4285714,13.5238095 12.952381,15.047619 14.6666667,15.047619 C15.8095238,15.047619 16.6349206,14.8571429 17.1428571,14.4761905 C16.1065382,13.3976684 15.3446334,12.5722715 14.8571429,12 C14.3696523,11.4277285 13.6672713,10.5943951 12.75,9.5 Z M7.5,6.25 C6.16666667,6.25 5.5,8 5.5,9.5 C5.5,12.25 7.75,13 8.5,12.5 C9.25,12 9.75,11 9.75,9.5 C9.75,7.5952381 8.83333333,6.25 7.5,6.25 Z" fill="#FFF"/>
 </g>
</svg>
