<svg width="20" height="20" version="1.0" xmlns="http://www.w3.org/2000/svg">
 <path d="M 0.85255052,1.0435882 H 6.1408535 c 0.4110736,0.2555616 0.8937662,0.4554984 1.4211268,0.61022 0.5274113,0.1547113 1.1403679,-0.2011735 1.7303671,-0.1264531 0.2949997,0.037363 0.5331381,0.2531899 0.8337126,0.2592916 0.300604,0.0061 0.663685,-0.1975245 0.963145,-0.1897302 0.598969,0.015601 0.779992,0.5936481 1.702291,0.510282 0.552396,-0.049923 0.952959,-0.3527732 1.500996,-0.5541189 0.548038,-0.2013559 1.245374,-0.2739579 1.824325,-0.2672481 1.108441,0.012865 2.216882,-0.54839221 3.325322,-0.78597308 l 0.05784,7.75330578 c -0.584171,0.3876704 -0.146278,1.0393149 -0.185341,1.6441124 -0.02135,0.3305254 -0.06661,0.6724534 -0.321981,0.8485604 -0.254386,0.17549 -0.23005,0.591317 -0.110236,1.068303 0.158624,0.631455 -0.10382,1.265139 -0.229513,1.884228 -0.125693,0.619038 -0.381234,1.201891 -0.886012,1.707764 -0.493781,0.494916 -1.231185,1.329703 -2.102753,1.460049 -1.125063,0.168263 -1.500692,0.679092 -2.104983,1.33031 -0.278691,0.300321 -0.40855,0.38534 -1.059586,0.442566 -0.362899,0.0319 -0.269063,0.30921 -1.078237,0.356675 -0.798591,0.04685 -1.5395112,0.50492 -2.0148756,0.504129 C 8.0738232,19.497682 6.9803835,17.743547 5.2237649,17.500595 4.3469253,17.379351 3.5354609,16.994894 2.7406191,16.575762 2.3414852,16.365162 1.9586496,15.948058 1.5176452,15.872395 0.98653438,15.78165 0.87144347,15.354308 0.50042607,15.174197 V 1.4170077 C 0.487798,1.1638686 0.64869113,1.0395136 0.85297622,1.0439328 Z" fill="#fff" stroke="#000" stroke-linecap="round" stroke-linejoin="round" stroke-width="1.254" style="stroke:#000;stroke-width:1;stroke-miterlimit:4;stroke-dasharray:none"/>
</svg>
