<svg xmlns="http://www.w3.org/2000/svg" viewBox="0 0 15 20" width="20" height="26.66">
 <path fill="#bf2033" stroke="#fff" stroke-width="2" d="M0 0H15V20H0z"/>
 <path fill="#fff" d="M 6.3388 16.1505 C 4.9947 12.1581 5.8114 6.1092 6.0342 4.7202 C 5.6322 4.3066 5.8286 3.7719 6.3554 3.6068 C 8.242 -0.9732 12.06 0.4781 10.7786 3.7469 C 11.6047 4.5629 11.9281 7.1944 9.6469 8.4785 C 10.1593 9.561 9.7722 10.6649 8.7702 11.5197 C 8.6317 11.63 8.4581 11.4829 8.5288 11.3907 C 9.7775 10.1015 9.2783 8.9239 8.5608 8.2844 C 10.3846 7.6283 11.2647 5.7364 10.2127 4.391 C 9.9961 4.7069 9.6271 4.8559 9.5392 4.8139 C 9.4588 4.8025 9.2476 4.3132 9.3692 4.0944 C 12.2415 1.9793 8.6597 -0.3329 7.109 3.8805 C 7.2927 4.3078 7.1047 4.69 6.8197 4.8392 C 6.1929 7.3144 6.492 9.6678 6.4924 11.7851 C 6.5144 9.3998 6.9442 8.2358 7.5161 7.0898 C 7.5831 7.0025 7.7681 7.0575 7.6856 7.3675 C 7.1468 8.5873 6.9305 11.029 7.3829 13.1781 C 7.381 11.11 7.7234 9.7946 8.1288 9.2541 C 8.1619 9.1666 8.3153 9.2524 8.2761 9.3415 C 7.9168 10.4485 7.8659 11.5866 7.9668 13.2078 C 8.12 12.6334 8.4146 12.3285 8.6383 12.1761 C 8.7337 12.14 8.8039 12.2203 8.7036 12.3507 C 8.2319 13.4731 8.1078 14.6297 8.3392 15.8771 V 16.5358 H 6.3375 M 14.7458 20 Z"/>
 <path fill="#003f87" d="M 3.791 16.8149 C 3.13 17.3417 3.1815 17.982 3.6464 18.2815 C 5.3944 19.7368 9.5078 19.7014 10.9754 18.172 C 11.5047 17.4351 11.3651 16.9695 10.0963 16.2478 C 10.7831 17.0625 10.5503 17.4466 9.9566 17.7376 C 8.1292 18.7271 5.9641 18.6341 4.4042 17.6912 C 3.7964 17.3624 3.7107 17.1429 3.8168 16.8042 Z M 5.0749 16.8858 C 5.7283 18.0992 8.8166 17.8425 9.3612 16.9402 C 9.6412 16.4112 9.4078 16.0066 8.3888 15.641 C 7.8598 16.7846 6.5763 16.5902 6.2339 15.75 C 6.2212 15.6839 5.9425 15.7192 6.1136 15.9463 C 6.3014 16.3947 5.6654 16.8732 5.1053 16.879 Z"/>
</svg>
