<svg width="20" height="20" xml:space="preserve" xmlns="http://www.w3.org/2000/svg">
 <path style="fill:#fff;fill-rule:evenodd;stroke:#000;stroke-width:2;stroke-linecap:round;stroke-linejoin:round;stroke-miterlimit:4;stroke-dasharray:none;paint-order:stroke fill markers" d="m 18.081228,16.494924 c 0.287295,0.249254 0.69947,0.429206 0.909872,0.721112 L 19,19 H 1 V 16.962352 C 1.1678932,16.556605 1.5805211,16.461925 1.9101841,16.300328 L 2.0624146,15.70211 C 1.7065655,15.312279 1.7236717,14.599874 2.1541436,14.276776 1.6127885,13.302262 1.4994076,12.650772 2.2847191,12.051175 2.0012318,11.196261 2.2120301,10.14413 2.9078121,9.575997 2.7478962,8.7312084 3.1800737,7.849561 3.8885689,7.4401889 3.7983274,6.4804918 4.4079931,5.5449497 5.2507695,5.204598 5.3963039,4.6138691 5.7375804,4.2109952 6.3905023,3.8885082 6.7670879,2.9824863 7.4137759,2.6032153 8.5333387,2.2791753 8.7051447,1.649955 9.3800867,1.1988131 9.9720446,1.2000023 c 0.7354424,0.00148 1.4744484,0.3746476 1.7426754,1.1274634 0.925616,0.1619139 1.569935,0.599047 1.895812,1.5155442 0.799686,0.1634626 1.228452,1.0380007 1.319576,1.6061236 0.855033,0.2048583 1.406943,1.1973118 1.220095,2.0859218 0.649838,0.3937037 1.160457,1.3711076 0.994134,2.1727741 0.602197,0.7449526 0.689543,1.2583106 0.562255,2.3932636 0.618531,0.530888 0.622612,1.561901 0.135407,2.258075 0.386749,0.45665 0.496248,1.40621 -0.164647,1.646184 z"/>
 <path style="fill-rule:evenodd;stroke-width:.0370067" d="m 1.9101841,16.300328 c 2.7098831,1.414132 5.7537601,2.057455 8.7707429,1.980585 2.552417,-0.03424 5.069412,-0.709128 7.400301,-1.785989 0.313049,-0.318868 0.107605,-0.63607 -0.403876,-0.489603 -1.996142,1.037141 -4.202785,1.557486 -6.414178,1.729619 0.01127,-0.676533 0.13141,-1.70928 -1.251296,-1.737162 C 8.5844547,15.968998 8.7344395,17.035603 8.7283179,17.685044 6.4190076,17.478818 4.0848955,16.921906 2.062415,15.702079 1.8237101,15.746739 1.6489623,16.072472 1.9101841,16.300328 Z"/>
</svg>
