<svg width="20" height="20" xmlns="http://www.w3.org/2000/svg" xmlns:xlink="http://www.w3.org/1999/xlink">
 <defs>
  <path id="a" d="M0 0H12V4H0z"/>
  <path id="c" d="M0 0H12V4H0z"/>
 </defs>
 <g fill="none" fill-rule="evenodd">
  <path d="M16,0.5 C16.4142136,0.5 16.7892136,0.667893219 17.0606602,0.939339828 C17.3321068,1.21078644 17.5,1.58578644 17.5,2 L17.5,18 C17.5,18.4142136 17.3321068,18.7892136 17.0606602,19.0606602 C16.7892136,19.3321068 16.4142136,19.5 16,19.5 L4,19.5 C3.58578644,19.5 3.21078644,19.3321068 2.93933983,19.0606602 C2.66789322,18.7892136 2.5,18.4142136 2.5,18 L2.5,2 C2.5,1.58578644 2.66789322,1.21078644 2.93933983,0.939339828 C3.21078644,0.667893219 3.58578644,0.5 4,0.5 Z" stroke="#000" fill="#FFF" fill-rule="nonzero"/>
  <g transform="translate(4 13)">
   <mask id="b" fill="#fff">
    <use xlink:href="#a"/>
   </mask>
   <path d="M-1.5,1 L-0.75,2 C-0.439339828,2.41421356 0.148286438,2.49816017 0.5625,2.1875 C0.633567812,2.13419914 0.696699141,2.07106781 0.75,2 C1.06066017,1.58578644 1.64828644,1.50183983 2.0625,1.8125 C2.13356781,1.86580086 2.19669914,1.92893219 2.25,2 C2.56066017,2.41421356 3.14828644,2.49816017 3.5625,2.1875 C3.63356781,2.13419914 3.69669914,2.07106781 3.75,2 C4.06066017,1.58578644 4.64828644,1.50183983 5.0625,1.8125 C5.13356781,1.86580086 5.19669914,1.92893219 5.25,2 C5.56066017,2.41421356 6.14828644,2.49816017 6.5625,2.1875 C6.63356781,2.13419914 6.69669914,2.07106781 6.75,2 C7.06066017,1.58578644 7.64828644,1.50183983 8.0625,1.8125 C8.13356781,1.86580086 8.19669914,1.92893219 8.25,2 C8.56066017,2.41421356 9.14828644,2.49816017 9.5625,2.1875 C9.63356781,2.13419914 9.69669914,2.07106781 9.75,2 C10.0606602,1.58578644 10.6482864,1.50183983 11.0625,1.8125 C11.1335678,1.86580086 11.1966991,1.92893219 11.25,2 C11.5606602,2.41421356 12.1482864,2.49816017 12.5625,2.1875 C12.6335678,2.13419914 12.6966991,2.07106781 12.75,2 L13.5,1 L13.5,1" stroke="#003F87" stroke-linejoin="round" mask="url(#b)"/>
  </g>
  <path d="M12,12.5 L4,12.5 L4,11.5 C5.5,8.5 7.08333333,7 8.75,7 C10.4166667,7 11.5,8.16666667 12,10.5 L12,12.5 Z" fill="#000"/>
  <path d="M9.5280977,2.83221367 L9.74821475,2.8460905 C10.4314514,2.95111631 10.983096,3.27455449 11.3425962,3.72596475 C11.7059908,4.18226494 11.8701799,4.76722318 11.7771672,5.37180574 C11.7425234,5.59699066 11.6730031,5.815402 11.571161,6.01915254 L11.2091263,6.74322188 L10.2665427,7.37161094 L10.9942357,8.82699695 C10.2102305,9.18751657 9.54632278,9.375 9,9.375 C8.42900478,9.375 7.60391295,9.1763604 6.52324371,8.79203807 L6.91926275,8 L6.41926275,7 L6.93273324,5.973059 L6.46412137,5.27014119 L7.31192221,4.21039014 C7.59833468,3.69664536 7.94536807,3.32073484 8.36252498,3.09290456 C8.76341675,2.87395749 9.22610276,2.79508892 9.74821475,2.8460905 Z" stroke="#000" stroke-width=".75" fill="#FFF"/>
  <path d="M14.15,11.3 C14.2949747,11.1067003 14.5692003,11.0675253 14.7625,11.2125 C14.795665,11.2373737 14.8251263,11.266835 14.85,11.3 C15.132183,11.676244 15.5633983,11.874775 16.0000837,11.8750842 L15.9999384,12.8750256 C15.8670639,12.8749051 15.735863,12.814484 15.65,12.7 C15.568272,12.5910294 15.4714706,12.494228 15.3625,12.4125 C14.7273725,11.9361544 13.8263456,12.0648725 13.35,12.7 C13.3251263,12.733165 13.295665,12.7626263 13.2625,12.7875 C13.0692003,12.9324747 12.7949747,12.8932997 12.65,12.7 C12.568272,12.5910294 12.4714706,12.494228 12.3625,12.4125 C11.7273725,11.9361544 10.8263456,12.0648725 10.35,12.7 C10.3251263,12.733165 10.295665,12.7626263 10.2625,12.7875 C10.0692003,12.9324747 9.79497475,12.8932997 9.65,12.7 C9.56827202,12.5910294 9.47147064,12.494228 9.3625,12.4125 C8.72737254,11.9361544 7.8263456,12.0648725 7.35,12.7 C7.32512627,12.733165 7.29566498,12.7626263 7.2625,12.7875 C7.06920034,12.9324747 6.79497475,12.8932997 6.65,12.7 C6.56827202,12.5910294 6.47147064,12.494228 6.3625,12.4125 C5.72737254,11.9361544 4.8263456,12.0648725 4.35,12.7 C4.32512627,12.733165 4.29566498,12.7626263 4.2625,12.7875 C4.18360812,12.8466689 4.09123623,12.8751636 3.99967289,12.8750252 L3.99955729,11.8750838 C4.30020126,11.8754063 4.60346535,11.781776 4.8625,11.5875 C4.97147064,11.505772 5.06827202,11.4089706 5.15,11.3 C5.29497475,11.1067003 5.56920034,11.0675253 5.7625,11.2125 C5.79566498,11.2373737 5.82512627,11.266835 5.85,11.3 C6.3263456,11.9351275 7.22737254,12.0638456 7.8625,11.5875 C7.97147064,11.505772 8.06827202,11.4089706 8.15,11.3 C8.29497475,11.1067003 8.56920034,11.0675253 8.7625,11.2125 C8.79566498,11.2373737 8.82512627,11.266835 8.85,11.3 C9.3263456,11.9351275 10.2273725,12.0638456 10.8625,11.5875 C10.9714706,11.505772 11.068272,11.4089706 11.15,11.3 C11.2949747,11.1067003 11.5692003,11.0675253 11.7625,11.2125 C11.795665,11.2373737 11.8251263,11.266835 11.85,11.3 C12.3263456,11.9351275 13.2273725,12.0638456 13.8625,11.5875 C13.9714706,11.505772 14.068272,11.4089706 14.15,11.3 Z" fill="#FFF"/>
  <g transform="translate(4 11)">
   <mask id="d" fill="#fff">
    <use xlink:href="#c"/>
   </mask>
   <path d="M-1.5,1 L-0.75,2 C-0.439339828,2.41421356 0.148286438,2.49816017 0.5625,2.1875 C0.633567812,2.13419914 0.696699141,2.07106781 0.75,2 C1.06066017,1.58578644 1.64828644,1.50183983 2.0625,1.8125 C2.13356781,1.86580086 2.19669914,1.92893219 2.25,2 C2.56066017,2.41421356 3.14828644,2.49816017 3.5625,2.1875 C3.63356781,2.13419914 3.69669914,2.07106781 3.75,2 C4.06066017,1.58578644 4.64828644,1.50183983 5.0625,1.8125 C5.13356781,1.86580086 5.19669914,1.92893219 5.25,2 C5.56066017,2.41421356 6.14828644,2.49816017 6.5625,2.1875 C6.63356781,2.13419914 6.69669914,2.07106781 6.75,2 C7.06066017,1.58578644 7.64828644,1.50183983 8.0625,1.8125 C8.13356781,1.86580086 8.19669914,1.92893219 8.25,2 C8.56066017,2.41421356 9.14828644,2.49816017 9.5625,2.1875 C9.63356781,2.13419914 9.69669914,2.07106781 9.75,2 C10.0606602,1.58578644 10.6482864,1.50183983 11.0625,1.8125 C11.1335678,1.86580086 11.1966991,1.92893219 11.25,2 C11.5606602,2.41421356 12.1482864,2.49816017 12.5625,2.1875 C12.6335678,2.13419914 12.6966991,2.07106781 12.75,2 L13.5,1 L13.5,1" stroke="#003F87" stroke-linejoin="round" mask="url(#d)"/>
  </g>
  <path d="M8.5,4.25 L10.771131,4.25 C11.2480651,4.25 11.7160324,4.37961944 12.125,4.625 C12.5127482,4.8576489 12.75,5.2766808 12.75,5.72886899 L12.75,7 L12.75,7 L12.2071068,6.45710678 C11.7543539,6.00435391 11.1402892,5.75 10.5,5.75 L10.5,5.75 L10.5,5.75" stroke="#000" stroke-width=".5" fill="#FFF" stroke-linecap="round" stroke-linejoin="round"/>
  <path stroke="#000" stroke-width=".5" stroke-linecap="round" stroke-linejoin="round" d="M7.5 6.5 6.75 5.5M10.75 7 9.75 7.5"/>
  <path d="M10,4.25 L10,5 C10,5.27614237 9.77614237,5.5 9.5,5.5 C9.22385763,5.5 9,5.27614237 9,5 L9,4.25 L9,4.25 L10,4.25 Z" fill="#000" fill-rule="nonzero"/>
 </g>
</svg>
