<svg width="20" height="20" xmlns="http://www.w3.org/2000/svg">
 <g fill="none">
  <rect stroke="#FFF" fill="#693F23" fill-rule="evenodd" x=".5" y=".5" width="19" height="19" rx="2"/>
  <path d="M9.8632287,14.8080569 C10.2708318,14.8080569 10.6103385,14.8970827 11.0419661,15.0798768 C11.0876148,15.099209 11.1340205,15.119383 11.1921293,15.1450291 C11.2131004,15.1542846 11.308865,15.1967419 11.3347829,15.2081669 C11.8192584,15.4217317 12.0981367,15.5 12.5,15.5 L12.5,17 C11.8858544,17 11.4532083,16.8785762 10.8210038,16.59989 C10.7935134,16.5877718 10.6974011,16.5451604 10.6778319,16.5365236 C10.625081,16.5132422 10.5841108,16.4954312 10.5452824,16.4789873 C10.2570432,16.3569182 10.0707069,16.3080569 9.8632287,16.3080569 C9.58191172,16.3080569 9.3206188,16.3837991 8.75274377,16.60912 C8.11847011,16.8607866 7.85946811,16.9457458 7.47553725,16.986535 C7.39183074,16.9954281 7.3089108,17 7.2264574,17 C6.95904487,17 6.6906418,16.9530681 6.39603113,16.8654876 C6.35922774,16.8545468 6.32419855,16.8437848 6.28942378,16.8326791 L6.26626161,16.8252186 C6.11573571,16.7763201 5.96364545,16.7187879 5.68632578,16.6101128 C5.32227431,16.4674496 5.15656143,16.4085147 4.97020769,16.3617692 C4.82642229,16.3257016 4.70155217,16.3080569 4.5896861,16.3080569 C4.39971194,16.3080569 4.2068223,16.356864 3.92142278,16.4720842 C3.87702105,16.4900099 3.82983533,16.5096845 3.77243352,16.5341085 C3.74959849,16.5438246 3.72619346,16.5538417 3.69397758,16.567672 C3.67396391,16.5762664 3.67396391,16.5762664 3.65371719,16.5849628 C3.63739942,16.5919705 3.62495607,16.5973097 3.61275089,16.6025389 C2.95705354,16.8834632 2.55552117,17 2,17 L2,15.5 C2.33870715,15.5 2.60255418,15.4234236 3.11116142,15.205518 C3.12297375,15.2004572 3.13511207,15.1952488 3.151124,15.1883725 C3.1712509,15.1797275 3.1712509,15.1797275 3.1915294,15.1710195 C3.22489717,15.1566946 3.24942865,15.1461954 3.27376618,15.13584 C3.3378667,15.1085657 3.39197654,15.0860041 3.44465906,15.0647353 C3.8682849,14.893711 4.2067966,14.8080569 4.5896861,14.8080569 C4.81433864,14.8080569 5.04087329,14.8400673 5.27990549,14.9000269 C5.32926188,14.9124076 5.37651344,14.9250345 5.42359358,14.9385107 L5.45183656,14.9467031 C5.64019218,15.0020634 5.83199182,15.0729429 6.15097267,15.197944 C6.74087608,15.4291133 6.97933057,15.5 7.2264574,15.5 C7.26305478,15.5 7.3011812,15.4978978 7.34110392,15.4936564 C7.56666797,15.4696922 7.7629416,15.4053095 8.28306149,15.1989368 C8.61422753,15.0675371 8.78890305,15.0033189 9.00269352,14.9413464 C9.3022744,14.8545055 9.58172799,14.8080569 9.8632287,14.8080569 Z M6.64755781,7.85781991 C9.02297625,7.85781991 10.0839339,8.05687204 11.8208999,8.88151659 C13.557866,9.70616114 15,12.2890995 15,13.4265403 C15.0102075,13.7478547 15.0160403,14.1502462 15.0174985,14.6337147 L15.0174985,15.144209 C15.0160403,15.6817289 15.0102075,16.3003259 15,17 L13.5,17 L13.5,13.7772512 C13.5,11.9668246 12.152465,9.9514218 10.5,9.25 C8.847535,8.5485782 6.2907756,8.20853081 5.10776088,8.39810427 C4.3190844,8.52448657 3.28316411,8.80884676 2,9.25118483 C3.51475958,8.32227488 5.06394552,7.85781991 6.64755781,7.85781991 Z M9,6.75 C10.9623022,6.75 13.25,7.5 14.5,8.5 C15.75,9.5 17.5,12.014218 17.5,13.4265403 C17.5102075,13.7478547 17.5160403,14.1502462 17.5174985,14.6337147 L17.5174985,15.144209 C17.5160403,15.6817289 17.5102075,16.3003259 17.5,17 L16,17 L16,13.4265403 C16,12.3554502 14.7428519,9.66943128 13.25,8.75 C11.7571481,7.83056872 10.0985137,7.39218009 9,7.25 C8.26765756,7.15521327 6.93432422,7.2385466 5,7.5 C6.35846521,7 7.69179854,6.75 9,6.75 Z M9.8632287,12.3080569 C10.2708318,12.3080569 10.6103385,12.3970827 11.0419661,12.5798768 C11.0876148,12.599209 11.1340205,12.619383 11.1921293,12.6450291 C11.2131004,12.6542846 11.308865,12.6967419 11.3347829,12.7081669 C11.8192584,12.9217317 12.0981367,13 12.5,13 L12.5,14.5 C11.8858544,14.5 11.4532083,14.3785762 10.8210038,14.09989 C10.7935134,14.0877718 10.6974011,14.0451604 10.6778319,14.0365236 C10.625081,14.0132422 10.5841108,13.9954312 10.5452824,13.9789873 C10.2570432,13.8569182 10.0707069,13.8080569 9.8632287,13.8080569 C9.58191172,13.8080569 9.3206188,13.8837991 8.75274377,14.10912 C8.11847011,14.3607866 7.85946811,14.4457458 7.47553725,14.486535 C7.39183074,14.4954281 7.3089108,14.5 7.2264574,14.5 C6.95904487,14.5 6.6906418,14.4530681 6.39603113,14.3654876 C6.35922774,14.3545468 6.32419855,14.3437848 6.28942378,14.3326791 L6.26626161,14.3252186 C6.11573571,14.2763201 5.96364545,14.2187879 5.68632578,14.1101128 C5.32227431,13.9674496 5.15656143,13.9085147 4.97020769,13.8617692 C4.82642229,13.8257016 4.70155217,13.8080569 4.5896861,13.8080569 C4.39971194,13.8080569 4.2068223,13.856864 3.92142278,13.9720842 C3.87702105,13.9900099 3.82983533,14.0096845 3.77243352,14.0341085 C3.74959849,14.0438246 3.72619346,14.0538417 3.69397758,14.067672 C3.67396391,14.0762664 3.67396391,14.0762664 3.65371719,14.0849628 C3.63739942,14.0919705 3.62495607,14.0973097 3.61275089,14.1025389 C2.95705354,14.3834632 2.55552117,14.5 2,14.5 L2,13 C2.33870715,13 2.60255418,12.9234236 3.11116142,12.705518 C3.12297375,12.7004572 3.13511207,12.6952488 3.151124,12.6883725 C3.1712509,12.6797275 3.1712509,12.6797275 3.1915294,12.6710195 C3.22489717,12.6566946 3.24942865,12.6461954 3.27376618,12.63584 C3.3378667,12.6085657 3.39197654,12.5860041 3.44465906,12.5647353 C3.8682849,12.393711 4.2067966,12.3080569 4.5896861,12.3080569 C4.81433864,12.3080569 5.04087329,12.3400673 5.27990549,12.4000269 C5.32926188,12.4124076 5.37651344,12.4250345 5.42359358,12.4385107 L5.45183656,12.4467031 C5.64019218,12.5020634 5.83199182,12.5729429 6.15097267,12.697944 C6.74087608,12.9291133 6.97933057,13 7.2264574,13 C7.26305478,13 7.3011812,12.9978978 7.34110392,12.9936564 C7.56666797,12.9696922 7.7629416,12.9053095 8.28306149,12.6989368 C8.61422753,12.5675371 8.78890305,12.5033189 9.00269352,12.4413464 C9.3022744,12.3545055 9.58172799,12.3080569 9.8632287,12.3080569 Z M9.8632287,9.80805687 C10.5035874,9.80805687 11.3825112,10.5387046 12.5,12 C11.8858544,12 11.4532083,11.8785762 10.8210038,11.59989 C10.7935134,11.5877718 10.6974011,11.5451604 10.6778319,11.5365236 C10.625081,11.5132422 10.5841108,11.4954312 10.5452824,11.4789873 C10.2570432,11.3569182 10.0707069,11.3080569 9.8632287,11.3080569 C9.58191172,11.3080569 9.3206188,11.3837991 8.75274377,11.60912 C8.11847011,11.8607866 7.85946811,11.9457458 7.47553725,11.986535 C7.39183074,11.9954281 7.3089108,12 7.2264574,12 C6.95904487,12 6.6906418,11.9530681 6.39603113,11.8654876 C6.35922774,11.8545468 6.32419855,11.8437848 6.28942378,11.8326791 L6.26626161,11.8252186 C6.11573571,11.7763201 5.96364545,11.7187879 5.68632578,11.6101128 C5.32227431,11.4674496 5.15656143,11.4085147 4.97020769,11.3617692 C4.82642229,11.3257016 4.70155217,11.3080569 4.5896861,11.3080569 C4.39971194,11.3080569 4.2068223,11.356864 3.92142278,11.4720842 C3.87702105,11.4900099 3.82983533,11.5096845 3.77243352,11.5341085 C3.74959849,11.5438246 3.72619346,11.5538417 3.69397758,11.567672 C3.67396391,11.5762664 3.67396391,11.5762664 3.65371719,11.5849628 C3.63739942,11.5919705 3.62495607,11.5973097 3.61275089,11.6025389 C2.95705354,11.8834632 2.55552117,12 2,12 L2,10.5 C2.33870715,10.5 2.60255418,10.4234236 3.11116142,10.205518 C3.12297375,10.2004572 3.13511207,10.1952488 3.151124,10.1883725 C3.1712509,10.1797275 3.1712509,10.1797275 3.1915294,10.1710195 C3.22489717,10.1566946 3.24942865,10.1461954 3.27376618,10.13584 C3.3378667,10.1085657 3.39197654,10.0860041 3.44465906,10.0647353 C3.8682849,9.89371099 4.2067966,9.80805687 4.5896861,9.80805687 C4.81433864,9.80805687 5.04087329,9.84006734 5.27990549,9.90002689 C5.32926188,9.91240759 5.37651344,9.92503446 5.42359358,9.93851066 L5.45183656,9.94670313 C5.64019218,10.0020634 5.83199182,10.0729429 6.15097267,10.197944 C6.74087608,10.4291133 6.97933057,10.5 7.2264574,10.5 C7.26305478,10.5 7.3011812,10.4978978 7.34110392,10.4936564 C7.56666797,10.4696922 7.7629416,10.4053095 8.28306149,10.1989368 C8.61422753,10.0675371 8.78890305,10.0033189 9.00269352,9.9413464 C9.3022744,9.85450546 9.58172799,9.80805687 9.8632287,9.80805687 Z M13.2300877,3.04934372 C14.2982998,3.04934372 15.5464973,5.2233796 16.149864,6.41098788 L16.2920941,6.69634425 C16.3975257,6.91203077 16.4690938,7.06811188 16.4983242,7.13211796 C16.5674145,7.28340504 16.8451713,7.99869218 17.143364,8.77749759 L17.3507568,9.3206678 C17.7399268,10.3425884 18.0897622,11.2756243 17.9793359,11.0005827 C17.7649789,10.4666784 16.1280713,8.59332982 15.4460265,8.12499268 C14.7639817,7.65665555 12.2988768,6.22354392 8.91788321,6.22354392 C6.66388746,6.22354392 4.35792639,6.80740421 2,7.9751248 C2.18187862,7.80652343 2.43520955,7.58484385 2.7599928,7.31008607 C3.24716768,6.89794939 3.26881236,5.85657674 3.98008768,5.85657674 C4.69136299,5.85657674 4.53330934,6.44834574 5.0789452,6.44834574 C5.62458106,6.44834574 5.88573433,4.78993049 6.48008768,4.68689632 C7.07444102,4.58386215 6.96918371,5.6709061 7.68045903,5.6709061 C8.39173435,5.6709061 8.1129164,4.07875549 8.98008768,3.98508806 C9.84725895,3.89142063 10.1065899,5.6709061 10.8860697,5.6709061 C11.6655495,5.6709061 11.8367675,3.04934372 13.2300877,3.04934372 Z" fill="#FFF"/>
 </g>
</svg>
