<svg width="28" height="20" viewBox="0 0 7.41 5.292" xmlns="http://www.w3.org/2000/svg">
 <path style="color:#000;fill:#ffcd00;stroke:#000;stroke-width:.52925;stroke-linecap:round;stroke-linejoin:round;stroke-miterlimit:4;stroke-dasharray:none;paint-order:stroke fill markers" d="m 7.0366665,3.5820313 c -0.4537378,0.509878 -1.1657038,0.9335192 -2.0602677,1.2285156 -0.00492,0.00122 -0.00975,0.00252 -0.014505,0.00391 C 4.591709,4.952679 4.1537466,5.0273438 3.70475,5.0273437 c -0.4490399,0 -0.887084,-0.072954 -1.2565313,-0.2109375 -0.00351,-0.00201 -0.00715,-0.00397 -0.010885,-0.00586 C 1.5433871,4.5156717 0.83831771,4.0907618 0.38432365,3.5800781 0.31228083,3.4771531 0.26471188,3.366043 0.264625,3.2617188 V 0.529 H 3.1844059 C 3.3174962,0.52952627 3.4223297,0.4649199 3.5203434,0.40429688 3.5952524,0.35796458 3.6507642,0.29709738 3.7047497,0.264375 3.7580027,0.2969582 3.8176132,0.3579848 3.8914375,0.40429688 3.9888835,0.46542718 4.095002,0.53041924 4.2293281,0.529 l 2.9155469,8.22e-5 v 2.7307245 c -1.151e-4,0.1080438 -0.037977,0.221713 -0.1082085,0.3222246 z"/>
</svg>
