<svg width="20" height="20" xmlns="http://www.w3.org/2000/svg">
 <path d="M 1.5555556,15.77779 C 1.1010758,15.658189 0.5,15.156825 0.5,14.5 v -9 C 0.5,4.7246457 1.0515407,4.4540028 1.5555556,4.2222097 L 9.448,0.59252626 C 9.563323,0.56217785 9.881736,0.54700364 10,0.54700364 c 0.118264,0 0.443658,-0.004303 0.552,0.0455226 L 18.444444,4.2222097 C 18.94846,4.4540032 19.5,4.7246457 19.5,5.5 v 9 c 0,0.775354 -0.55154,1.045997 -1.055556,1.27779 L 10.552,19.407473 c -0.115324,0.03035 -0.433736,0.04553 -0.552,0.04553 -0.118264,0 -0.436676,-0.01518 -0.552,-0.04553 z" fill="#009140" style="fill:#fff;fill-rule:evenodd;stroke:#000;stroke-width:1;stroke-miterlimit:4;stroke-dasharray:none;stroke-opacity:1"/>
</svg>
