<svg width="25" height="20" viewBox="0 0 6.615 5.292" xmlns="http://www.w3.org/2000/svg">
 <path d="m 3.3072864,0.13229224 c 0.3674879,0 0.7062199,0.1164765 0.9685344,0.3098695 1.0086799,0.83547176 1.7550802,1.87428046 2.1401027,3.01735976 0.040077,0.1004213 0.066368,0.2266981 0.066368,0.3580206 0,0.5427801 -0.4491174,0.9995639 -1.0830181,1.1351993 -0.6736016,0.1370113 -1.3499055,0.206633 -2.0919813,0.206633 -0.7420766,0 -1.4183794,-0.069619 -2.0919812,-0.206633 C 0.58140939,4.817106 0.13229222,4.3603222 0.13229222,3.8175421 c 0,-0.1313225 0.0262888,-0.2575993 0.0663669,-0.3580206 C 0.58368267,2.3164422 1.3300819,1.2776335 2.3387632,0.44216174 2.6010766,0.24876874 2.9398083,0.13229224 3.3072977,0.13229224 Z" style="display:inline;fill:#fff;fill-opacity:1;stroke:#000;stroke-width:.264583;stroke-linecap:butt;stroke-linejoin:round;stroke-miterlimit:4;stroke-dasharray:none;stroke-opacity:1"/>
</svg>
