<svg viewBox="0 0 5.292 5.292" height="20" width="20" xmlns="http://www.w3.org/2000/svg">
 <rect style="fill:#fff;fill-rule:evenodd;stroke:#000;stroke-width:.529167;stroke-linecap:round;stroke-linejoin:round;paint-order:stroke fill markers" width="4.763" height="4.763" x=".265" y=".265" ry=".265"/>
 <path d="m 0.90414562,1.3472583 c -0.0440372,0.039737 -0.0759084,0.071782 -0.12150047,0.1161318 -3.5666e-4,0.04453 -7.31e-4,0.08906 -0.001104,0.1335894 -0.0331136,6.72e-4 -0.0662269,0.00136 -0.0993402,0.00205 v 0.1233121 c 0.006241,8e-5 0.0125966,0.00123 0.0183969,0.00273 8.23e-4,7.813e-4 -0.0169592,0.4101188 -0.0395308,0.9096404 C 0.62949155,3.333493 0.61729065,3.5454 0.61729065,3.5454 L 0.45151632,3.588467 0.44097272,3.9676877 c 1.55544448,0.00385 4.40972248,0.00191 4.40972248,0.00191 l -4e-7,-0.1713168 -0.060456,-0.032688 -0.060456,-0.051905 -0.052538,0.052454 c -0.02416,0.019218 -0.078409,0.043123 -0.078409,0.043123 l -0.1104943,0.015604 c 0,0 -0.06148,0.00295 -0.099909,-0.00642 -0.028535,-0.00327 -0.083681,-0.022442 -0.083681,-0.022442 l -0.054234,-0.039633 c 0,0 -0.045862,-0.041511 -0.047088,-0.041511 -0.00123,0 -0.011619,0.00706 -0.023093,0.015686 -0.02308,0.017353 -0.046413,0.028932 -0.1051564,0.052157 -0.035223,0.013926 -0.037338,0.014479 -0.078284,0.020508 -0.038592,0.00932 -0.079445,0.00411 -0.1134293,-0.00205 -0.039112,-0.00715 -0.049535,-0.00992 -0.077989,-0.020709 -0.029258,-0.00883 -0.054585,-0.024985 -0.075112,-0.045038 -0.012749,-0.012434 -0.024234,-0.022604 -0.025519,-0.022604 -0.00128,0 -0.015485,0.011035 -0.031553,0.024514 -0.026812,0.022493 -0.031227,0.025367 -0.053713,0.034946 -0.036035,0.01535 -0.095593,0.031471 -0.1443917,0.039091 l -0.040759,0.00636 -0.043263,-0.00317 c -0.039365,-0.00289 -0.046341,-0.00401 -0.077522,-0.01245 -0.024361,-0.00659 -0.042685,-0.013165 -0.063417,-0.022743 -0.033941,-0.01568 -0.0404,-0.02025 -0.054615,-0.038598 -0.00578,-0.00746 -0.011529,-0.013559 -0.012768,-0.013559 -0.019261,0.012701 -0.033342,0.025498 -0.052811,0.0402 -0.027426,0.011567 -0.04903,0.018951 -0.078408,0.02963 -0.044244,0.00276 -0.088486,0.00553 -0.1327284,0.00831 -0.033222,-0.00276 -0.066445,-0.00553 -0.099667,-0.00829 -0.028452,-0.00938 -0.058161,-0.01646 -0.085546,-0.028428 -0.019123,-0.017802 -0.031871,-0.035141 -0.051521,-0.053312 -0.018217,0.011735 -0.029015,0.03465 -0.048893,0.042588 -0.010404,0.00402 -0.036466,0.010212 -0.095468,0.022696 -0.021342,0.00742 -0.041404,0.00557 -0.063417,0.00411 -0.045026,-0.00376 -0.077612,-0.010449 -0.1217181,-0.01869 -0.024342,-0.012178 -0.049304,-0.023442 -0.072795,-0.037134 -0.081605,-0.081732 -0.1433119,-0.1483558 -0.2284762,-0.2352375 0,0 -0.1296872,0.034819 -0.2319287,0.064961 0,0 -0.1081987,-0.014333 -0.1619175,-0.02396 L 1.632884,3.2584331 1.3183638,3.0530876 1.1357322,3.1634414 c 0,0 -0.047221,-0.9653061 -0.049219,-1.4383432 0.00782,-0.00238 0.014201,-0.00225 0.022674,-0.00276 V 1.5990288 c -0.027479,-6.947e-4 -0.054957,-0.00137 -0.082436,-0.00205 -3.567e-4,-0.04453 -7.31e-4,-0.08906 -0.0011,-0.1335894 C 0.9847992,1.4251871 0.9464414,1.383703 0.90415075,1.3472586 Z m -0.0824362,0.1181811 h 0.0655322 v 0.1315401 h -0.0655322 z m 0.0993558,0 h 0.0655166 V 1.5969795 H 0.92106522 Z M 0.76054712,1.7231421 H 1.0266103 l 0.010606,0.4833717 H 0.74994125 Z m 0.28719708,1.150918 0.010653,0.3369934 -0.0908338,0.05886 -0.002115,0.4089807 -0.28519097,-7.39e-4 0.0379291,-0.8039707 z" style="fill:#000;stroke-width:.00244985"/>
</svg>
