<svg width="20" height="20" viewBox="0 0 5.292 5.292" xml:space="preserve" xmlns="http://www.w3.org/2000/svg">
 <circle style="fill:#fff;fill-opacity:1;stroke:#000;stroke-width:.264583;stroke-dasharray:none;stroke-opacity:1" cx="2.646" cy="2.646" r="2.514"/>
 <path style="fill:#ddcba4;fill-opacity:1;stroke:none;stroke-width:.264583;stroke-dasharray:none;stroke-opacity:1" d="M 2.6458333,4.7624998 A 2.1166666,2.1166666 0 0 1 0.58622172,3.1339702 2.1166666,2.1166666 0 0 1 1.695875,0.75431094 2.1166666,2.1166666 0 0 1 4.2672939,1.2852662"/>
 <path style="display:inline;opacity:1;fill:#ddcba4;fill-opacity:1;stroke:#404040;stroke-width:.26458333;stroke-linecap:butt;stroke-linejoin:miter;stroke-opacity:1;stroke-dasharray:none" d="M 3.6008137 1.4505574 C 3.6008137 1.4505574 3.5686251 1.4643613 3.5186482 1.4856974 C 3.4686713 1.5070335 3.4005036 1.5358861 3.3289957 1.5657959 C 3.2932417 1.5807508 3.2567951 1.596049 3.220992 1.6107544 C 3.1851888 1.6254597 3.1499357 1.639235 3.1176391 1.6520955 C 3.0853425 1.664956 3.056057 1.6767816 3.0308227 1.6862019 C 3.0182055 1.6909121 3.0063844 1.6950533 2.9961995 1.6986043 C 2.9860146 1.7021553 2.9771526 1.7051968 2.9698445 1.7073893 C 2.9661904 1.7084855 2.9630056 1.7088683 2.9595092 1.7094563 C 2.9560129 1.7100444 2.9525168 1.7103757 2.9491739 1.7104899 C 2.945831 1.7106041 2.9425491 1.7108153 2.9393554 1.7104899 C 2.9361617 1.7101644 2.9331025 1.7096704 2.9300536 1.7089396 C 2.9270048 1.7082088 2.9236602 1.7069409 2.9207519 1.705839 C 2.9178436 1.7047371 2.9152556 1.7036604 2.9124837 1.7022216 C 2.9097117 1.7007829 2.9068554 1.6993122 2.9042154 1.6975708 C 2.9015755 1.6958294 2.8989761 1.6938961 2.896464 1.6918864 C 2.8939518 1.6898766 2.891618 1.687929 2.8892293 1.6856852 C 2.8868406 1.6834414 2.8842641 1.6808941 2.8819946 1.6784505 C 2.8774555 1.6735632 2.8731634 1.6684287 2.8690755 1.6629476 C 2.8649875 1.6574664 2.8613778 1.6516952 2.8577066 1.6458943 C 2.8540354 1.6400935 2.85066 1.6341709 2.8473714 1.6283243 C 2.840794 1.6166313 2.8350541 1.6049661 2.8298014 1.5947347 C 2.827175 1.589619 2.8243965 1.5851212 2.8220499 1.580782 C 2.8197033 1.5764428 2.8174331 1.5721851 2.815332 1.5688964 C 2.8132309 1.5656078 2.8115374 1.563109 2.8096476 1.561145 C 2.8087026 1.560163 2.8074455 1.5591607 2.806547 1.5585612 C 2.8056484 1.5579617 2.8048196 1.5577103 2.8039632 1.5575276 C 2.8031067 1.5573449 2.8021979 1.5572593 2.8013793 1.5575276 C 2.8005607 1.557796 2.8000973 1.5583243 2.7993123 1.5590779 C 2.7985272 1.5598316 2.7974842 1.5609053 2.7967285 1.5621785 C 2.7959727 1.5634517 2.7953922 1.5650024 2.7946614 1.5668294 C 2.7939306 1.5686564 2.7930521 1.5702532 2.7920776 1.571997 C 2.791103 1.5737409 2.7901803 1.5754875 2.788977 1.5771647 C 2.7865704 1.580519 2.7834236 1.5837973 2.780192 1.5869832 C 2.7769604 1.5901691 2.7732766 1.5936529 2.7693399 1.5968017 C 2.7654033 1.5999505 2.7614595 1.6028605 2.7569376 1.6061035 C 2.7478938 1.6125894 2.7376306 1.6196401 2.7269653 1.6272908 C 2.7216326 1.6311162 2.715987 1.6348629 2.7104288 1.6391764 C 2.7048706 1.6434899 2.6995562 1.648196 2.6938924 1.653129 C 2.6882285 1.658062 2.6824887 1.6634649 2.6768391 1.6691487 C 2.6711896 1.6748325 2.6653013 1.6806696 2.6597859 1.6872355 C 2.6570282 1.6905184 2.6547361 1.6940427 2.6520344 1.6975708 C 2.6493328 1.7010989 2.6463969 1.7046331 2.6437662 1.7084228 C 2.6411356 1.7122125 2.6385594 1.7162407 2.6360148 1.7203084 C 2.6334701 1.724376 2.6312237 1.7283487 2.6287801 1.7327107 C 2.6263364 1.7370728 2.623873 1.7419905 2.6215454 1.7466634 C 2.6192177 1.7513362 2.6170241 1.7561327 2.6148274 1.7611328 C 2.6126307 1.7661329 2.6101603 1.771292 2.6081095 1.7766357 C 2.6060587 1.7819794 2.6043149 1.7874684 2.6024251 1.7931722 C 2.6005352 1.7988759 2.5984546 1.8046619 2.5967407 1.8107421 C 2.5950267 1.8168224 2.5936128 1.8228725 2.5920898 1.8293457 C 2.5905668 1.8358188 2.5892728 1.842617 2.5879557 1.8494995 C 2.5866386 1.8563819 2.5854345 1.8633787 2.5843383 1.8706868 C 2.5821459 1.8853031 2.5800641 1.9003153 2.5781372 1.9156453 C 2.5762102 1.9309753 2.5741313 1.9468442 2.5724527 1.9626709 C 2.5707742 1.9784976 2.5692492 1.9946235 2.5678019 2.0107299 C 2.5663545 2.0268364 2.564901 2.0431365 2.5636677 2.0593058 C 2.5612013 2.0916443 2.5591794 2.1236192 2.5574666 2.1549072 C 2.5557537 2.1861952 2.5544287 2.2163224 2.5533325 2.2448242 C 2.5522362 2.2733259 2.5513653 2.300426 2.5507486 2.3244059 C 2.550132 2.3483857 2.5499892 2.3697289 2.5497151 2.3874511 C 2.549167 2.4228956 2.5491983 2.4437784 2.5491983 2.4437784 C 2.5491983 2.4437784 2.5473422 2.4447264 2.5440307 2.4458455 C 2.5407192 2.4469645 2.5360159 2.4484266 2.5300781 2.4499796 C 2.5241402 2.4515326 2.5167698 2.452812 2.5088907 2.4541137 C 2.5049512 2.4547646 2.5007848 2.4557212 2.4964884 2.4561808 C 2.492192 2.4566404 2.4876201 2.4570316 2.4830525 2.4572143 C 2.4784849 2.457397 2.473853 2.4573941 2.4690999 2.4572143 C 2.4643467 2.4570345 2.4594835 2.456292 2.4546305 2.455664 C 2.4497774 2.455036 2.4450284 2.4542421 2.4401611 2.4530802 C 2.4352937 2.4519183 2.4304876 2.4507274 2.4256917 2.4489461 C 2.4208957 2.4471647 2.416378 2.4447146 2.411739 2.4422281 C 2.4071001 2.4397417 2.4021827 2.4372371 2.3977864 2.4339599 C 2.3955883 2.4323213 2.3937067 2.4306446 2.3915852 2.4287923 C 2.3894638 2.4269399 2.3874181 2.4246679 2.3853841 2.4225911 C 2.3833501 2.4205143 2.3811188 2.4181851 2.3791829 2.4158732 C 2.377247 2.4135612 2.3753255 2.4111963 2.3734985 2.4086385 C 2.3698444 2.4035227 2.3664833 2.3983311 2.3631632 2.3926188 C 2.3598431 2.3869064 2.3569103 2.3807554 2.3538614 2.374532 C 2.3508126 2.3683087 2.3479169 2.3620604 2.3450764 2.3554117 C 2.342236 2.348763 2.3395031 2.3417296 2.3368082 2.3347412 C 2.3314184 2.3207643 2.3259727 2.3061548 2.3207885 2.291333 C 2.3156043 2.2765111 2.3102499 2.2613562 2.3047688 2.2463745 C 2.3020283 2.2388836 2.2994096 2.2315559 2.2965006 2.2241536 C 2.2935916 2.2167512 2.2908558 2.2096777 2.2877156 2.2024495 C 2.2845754 2.1952213 2.2808146 2.1877138 2.2773803 2.1807454 C 2.2739461 2.173777 2.2708361 2.1672146 2.267045 2.1605916 C 2.2632539 2.1539686 2.2588534 2.1476632 2.2546427 2.1414713 C 2.2504319 2.1352794 2.2464168 2.1290598 2.2417236 2.1233846 C 2.239377 2.1205469 2.2369679 2.1178087 2.2344889 2.1151163 C 2.2320099 2.1124239 2.2293566 2.1099013 2.2267374 2.1073649 C 2.2241182 2.1048284 2.2212365 2.1025 2.2184692 2.1001302 C 2.2157019 2.0977604 2.2131242 2.0950879 2.210201 2.0928955 C 2.1985079 2.0841257 2.1875421 2.0761441 2.177128 2.0686075 C 2.1667139 2.061071 2.1566563 2.0539662 2.1471557 2.047937 C 2.1424054 2.0449224 2.1377935 2.0422551 2.1332031 2.0396687 C 2.1286126 2.0370823 2.1242434 2.034558 2.1197672 2.032434 C 2.115291 2.0303101 2.1107391 2.0283768 2.1063313 2.0267496 C 2.1019236 2.0251224 2.0972803 2.0242285 2.0928955 2.0231323 C 2.0885106 2.0220361 2.0843841 2.0210794 2.0799764 2.0205485 C 2.0755686 2.0200175 2.0710167 2.0194464 2.0665405 2.0195149 C 2.0620642 2.0195834 2.057695 2.020363 2.0531046 2.0210652 C 2.0485142 2.0217675 2.0439023 2.0227955 2.039152 2.0241658 C 2.0344017 2.0255361 2.0296384 2.0272609 2.0246826 2.0293335 C 2.0197267 2.031406 2.0143867 2.0337591 2.0091796 2.0365682 C 2.0039726 2.0393772 1.9986639 2.0422901 1.9931599 2.0458699 C 1.987656 2.0494498 1.9819532 2.0533706 1.9761067 2.0577555 C 1.9731835 2.0599479 1.9701515 2.0624209 1.9673217 2.0649902 C 1.964492 2.0675595 1.9617855 2.0703352 1.9590535 2.0732584 C 1.9563215 2.0761817 1.953932 2.0793058 1.951302 2.0825602 C 1.9486721 2.0858146 1.9460742 2.0893327 1.9435506 2.0928955 C 1.941027 2.0964582 1.9382121 2.0998993 1.9357991 2.1037475 C 1.9333861 2.1075957 1.9313792 2.112039 1.9290812 2.1161499 C 1.9267831 2.1202607 1.9245421 2.1242016 1.9223632 2.1285522 C 1.9201844 2.1329028 1.9177007 2.1374205 1.9156453 2.1419881 C 1.9115345 2.1511233 1.9078678 2.1605441 1.9042765 2.1704101 C 1.9006852 2.1802761 1.8974954 2.1904851 1.894458 2.2008992 C 1.8914205 2.2113133 1.8886391 2.2221591 1.8861897 2.2329386 C 1.8837404 2.2437181 1.8812988 2.2545325 1.8794718 2.2654947 C 1.8776448 2.276457 1.8765081 2.2876054 1.8753377 2.2985677 C 1.8741672 2.3095299 1.8732335 2.3203443 1.8727539 2.3311238 C 1.8722743 2.3419033 1.8719916 2.3527491 1.8722371 2.3631632 C 1.8724826 2.3735773 1.8732993 2.3837863 1.8743042 2.3936523 C 1.8748066 2.3985853 1.8751558 2.40336 1.8758545 2.4081217 C 1.8765531 2.4128834 1.877539 2.4175067 1.8784383 2.4220743 C 1.8793375 2.4266419 1.8804348 2.4311596 1.8815389 2.4355102 C 1.8826429 2.4398608 1.883843 2.4438017 1.8851562 2.4479125 C 1.8864694 2.4520234 1.8877637 2.4559499 1.8892903 2.4597981 C 1.8908169 2.4636463 1.892197 2.4676042 1.8939412 2.4711669 C 1.8956855 2.4747297 1.8976594 2.4782478 1.8996256 2.4815022 C 1.9015918 2.4847566 1.9036343 2.4878807 1.9058268 2.490804 C 1.9102117 2.4966505 1.9144609 2.5026274 1.9187459 2.5088907 C 1.9230309 2.515154 1.9274971 2.5214108 1.931665 2.528011 C 1.9358329 2.5346112 1.9400336 2.5413077 1.9440673 2.5481648 C 1.9481011 2.5550219 1.9520705 2.5623181 1.9559529 2.5693522 C 1.9637178 2.5834203 1.9711169 2.5974303 1.9781738 2.6117268 C 1.9852307 2.6260234 1.9915989 2.640216 1.9978108 2.6541015 C 2.0040228 2.667987 2.0101509 2.6815742 2.0153808 2.6944091 C 2.0206107 2.707244 2.0252226 2.7194377 2.0293335 2.7305826 C 2.0334443 2.7417275 2.036814 2.7517395 2.0396687 2.760555 C 2.0425235 2.7693704 2.0449251 2.7769293 2.0463867 2.7827758 C 2.0467521 2.7842375 2.0468809 2.7863945 2.0469034 2.7884602 C 2.046926 2.790526 2.0466856 2.7925502 2.0463867 2.7951782 C 2.0457887 2.8004341 2.0445249 2.8070453 2.0427693 2.8142984 C 2.0410137 2.8215516 2.0387936 2.8296713 2.0360514 2.8385864 C 2.0333092 2.8475014 2.0303073 2.8572836 2.0267496 2.8675252 C 2.0231919 2.8777667 2.0190662 2.8883319 2.0148641 2.8995646 C 2.0106619 2.9107972 2.0061037 2.9222994 2.0014282 2.9341878 C 1.9920771 2.9579646 1.9821907 2.982664 1.9719726 3.0070515 C 1.9617546 3.031439 1.9512 3.0555331 1.9414835 3.0778482 C 1.9317671 3.1001634 1.9229748 3.1207499 1.9151285 3.1383097 C 1.8994361 3.1734293 1.8887736 3.196704 1.8887736 3.196704 C 1.8768299 3.2279037 1.8545364 3.2564616 1.8479492 3.2861043 C 1.8314127 3.3605183 1.6495117 3.6416383 1.6577799 3.7243204 C 1.6660481 3.8070026 1.7321941 4.0219769 1.9719726 4.2617553 C 2.2117509 4.5015338 3.0137695 4.575948 3.0137695 4.575948 C 3.0137695 4.575948 2.9724301 4.1046592 2.9641601 3.9889037 C 2.9558921 3.8731486 3.0716471 3.567224 3.0716471 3.567224 C 3.0716471 3.567224 3.3941084 3.5837605 3.4437174 3.5837605 C 3.4933266 3.5837605 3.5842772 3.4928098 3.6173502 3.4183959 C 3.6504231 3.3439823 3.592545 3.2778356 3.576009 3.2282267 C 3.5594721 3.1786167 3.6338866 3.1124715 3.6338866 3.0793985 C 3.6338866 3.0463256 3.6173504 2.8892296 3.6586913 2.8644246 C 3.7000325 2.8396196 3.7827154 2.8478899 3.8405924 2.8396199 C 3.8984693 2.8313516 3.8819335 2.7404012 3.8819335 2.7073282 C 3.8819335 2.6742555 3.6752278 2.2360386 3.6752278 2.1450887 C 3.6752278 2.0541382 3.7579083 2.1120156 3.7661783 1.9797241 C 3.7744465 1.8474326 3.6504227 1.5745808 3.6008137 1.4505574 z"/>
 <path style="display:inline;opacity:1;fill:#404040;fill-opacity:1;stroke:#404040;stroke-width:.26458333;stroke-linecap:butt;stroke-linejoin:miter;stroke-opacity:1;stroke-dasharray:none" d="M 2.6628865 0.71571857 C 2.4678828 0.71655828 2.3233721 0.80511879 2.1621419 0.83870848 C 1.9637046 0.88004952 1.6412432 1.1777061 1.5254882 1.3182658 C 1.4097332 1.4588256 1.3931966 1.789555 1.4180013 2.0045288 C 1.4428059 2.2195025 1.4758789 2.4179404 1.5006836 2.6081095 C 1.5254882 2.7982786 1.583366 2.8974976 1.7818033 3.0215209 C 1.9011936 3.0961398 1.9068129 3.1495809 1.8887736 3.196704 C 1.8887736 3.196704 1.8994361 3.1734293 1.9151285 3.1383097 C 1.9229748 3.1207499 1.9317671 3.1001634 1.9414835 3.0778482 C 1.9512 3.0555331 1.9617546 3.031439 1.9719726 3.0070515 C 1.9821907 2.982664 1.9920771 2.9579646 2.0014282 2.9341878 C 2.0061037 2.9222994 2.0106619 2.9107972 2.0148641 2.8995646 C 2.0190662 2.8883319 2.0231919 2.8777667 2.0267496 2.8675252 C 2.0303073 2.8572836 2.0333092 2.8475014 2.0360514 2.8385864 C 2.0387936 2.8296713 2.0410137 2.8215516 2.0427693 2.8142984 C 2.0445249 2.8070453 2.0457887 2.8004341 2.0463867 2.7951782 C 2.0466856 2.7925502 2.046926 2.790526 2.0469034 2.7884602 C 2.0468809 2.7863945 2.0467521 2.7842375 2.0463867 2.7827758 C 2.0449251 2.7769293 2.0425235 2.7693704 2.0396687 2.760555 C 2.036814 2.7517395 2.0334443 2.7417275 2.0293335 2.7305826 C 2.0252226 2.7194377 2.0206107 2.707244 2.0153808 2.6944091 C 2.0101509 2.6815742 2.0040228 2.667987 1.9978108 2.6541015 C 1.9915989 2.640216 1.9852307 2.6260234 1.9781738 2.6117268 C 1.9711169 2.5974303 1.9637178 2.5834203 1.9559529 2.5693522 C 1.9520705 2.5623181 1.9481011 2.5550219 1.9440673 2.5481648 C 1.9400336 2.5413077 1.9358329 2.5346112 1.931665 2.528011 C 1.9274971 2.5214108 1.9230309 2.515154 1.9187459 2.5088907 C 1.9144609 2.5026274 1.9102117 2.4966505 1.9058268 2.490804 C 1.9036343 2.4878807 1.9015918 2.4847566 1.8996256 2.4815022 C 1.8976594 2.4782478 1.8956855 2.4747297 1.8939412 2.4711669 C 1.892197 2.4676042 1.8908169 2.4636463 1.8892903 2.4597981 C 1.8877637 2.4559499 1.8864694 2.4520234 1.8851562 2.4479125 C 1.883843 2.4438017 1.8826429 2.4398608 1.8815389 2.4355102 C 1.8804348 2.4311596 1.8793375 2.4266419 1.8784383 2.4220743 C 1.877539 2.4175067 1.8765531 2.4128834 1.8758545 2.4081217 C 1.8751558 2.40336 1.8748066 2.3985853 1.8743042 2.3936523 C 1.8732993 2.3837863 1.8724826 2.3735773 1.8722371 2.3631632 C 1.8719916 2.3527491 1.8722743 2.3419033 1.8727539 2.3311238 C 1.8732335 2.3203443 1.8741672 2.3095299 1.8753377 2.2985677 C 1.8765081 2.2876054 1.8776448 2.276457 1.8794718 2.2654947 C 1.8812988 2.2545325 1.8837404 2.2437181 1.8861897 2.2329386 C 1.8886391 2.2221591 1.8914205 2.2113133 1.894458 2.2008992 C 1.8974954 2.1904851 1.9006852 2.1802761 1.9042765 2.1704101 C 1.9078678 2.1605441 1.9115345 2.1511233 1.9156453 2.1419881 C 1.9177007 2.1374205 1.9201844 2.1329028 1.9223632 2.1285522 C 1.9245421 2.1242016 1.9267831 2.1202607 1.9290812 2.1161499 C 1.9313792 2.112039 1.9333861 2.1075957 1.9357991 2.1037475 C 1.9382121 2.0998993 1.941027 2.0964582 1.9435506 2.0928955 C 1.9460742 2.0893327 1.9486721 2.0858146 1.951302 2.0825602 C 1.953932 2.0793058 1.9563215 2.0761817 1.9590535 2.0732584 C 1.9617855 2.0703352 1.964492 2.0675595 1.9673217 2.0649902 C 1.9701515 2.0624209 1.9731835 2.0599479 1.9761067 2.0577555 C 1.9819532 2.0533706 1.987656 2.0494498 1.9931599 2.0458699 C 1.9986639 2.0422901 2.0039726 2.0393772 2.0091796 2.0365682 C 2.0143867 2.0337591 2.0197267 2.031406 2.0246826 2.0293335 C 2.0296384 2.0272609 2.0344017 2.0255361 2.039152 2.0241658 C 2.0439023 2.0227955 2.0485142 2.0217675 2.0531046 2.0210652 C 2.057695 2.020363 2.0620642 2.0195834 2.0665405 2.0195149 C 2.0710167 2.0194464 2.0755686 2.0200175 2.0799764 2.0205485 C 2.0843841 2.0210794 2.0885106 2.0220361 2.0928955 2.0231323 C 2.0972803 2.0242285 2.1019236 2.0251224 2.1063313 2.0267496 C 2.1107391 2.0283768 2.115291 2.0303101 2.1197672 2.032434 C 2.1242434 2.034558 2.1286126 2.0370823 2.1332031 2.0396687 C 2.1377935 2.0422551 2.1424054 2.0449224 2.1471557 2.047937 C 2.1566563 2.0539662 2.1667139 2.061071 2.177128 2.0686075 C 2.1875421 2.0761441 2.1985079 2.0841257 2.210201 2.0928955 C 2.2131242 2.0950879 2.2157019 2.0977604 2.2184692 2.1001302 C 2.2212365 2.1025 2.2241182 2.1048284 2.2267374 2.1073649 C 2.2293566 2.1099013 2.2320099 2.1124239 2.2344889 2.1151163 C 2.2369679 2.1178087 2.239377 2.1205469 2.2417236 2.1233846 C 2.2464168 2.1290598 2.2504319 2.1352794 2.2546427 2.1414713 C 2.2588534 2.1476632 2.2632539 2.1539686 2.267045 2.1605916 C 2.2708361 2.1672146 2.2739461 2.173777 2.2773803 2.1807454 C 2.2808146 2.1877138 2.2845754 2.1952213 2.2877156 2.2024495 C 2.2908558 2.2096777 2.2935916 2.2167512 2.2965006 2.2241536 C 2.2994096 2.2315559 2.3020283 2.2388836 2.3047688 2.2463745 C 2.3102499 2.2613562 2.3156043 2.2765111 2.3207885 2.291333 C 2.3259727 2.3061548 2.3314184 2.3207643 2.3368082 2.3347412 C 2.3395031 2.3417296 2.342236 2.348763 2.3450764 2.3554117 C 2.3479169 2.3620604 2.3508126 2.3683087 2.3538614 2.374532 C 2.3569103 2.3807554 2.3598431 2.3869064 2.3631632 2.3926188 C 2.3664833 2.3983311 2.3698444 2.4035227 2.3734985 2.4086385 C 2.3753255 2.4111963 2.377247 2.4135612 2.3791829 2.4158732 C 2.3811188 2.4181851 2.3833501 2.4205143 2.3853841 2.4225911 C 2.3874181 2.4246679 2.3894638 2.4269399 2.3915852 2.4287923 C 2.3937067 2.4306446 2.3955883 2.4323213 2.3977864 2.4339599 C 2.4021827 2.4372371 2.4071001 2.4397417 2.411739 2.4422281 C 2.416378 2.4447146 2.4208957 2.4471647 2.4256917 2.4489461 C 2.4304876 2.4507274 2.4352937 2.4519183 2.4401611 2.4530802 C 2.4450284 2.4542421 2.4497774 2.455036 2.4546305 2.455664 C 2.4594835 2.456292 2.4643467 2.4570345 2.4690999 2.4572143 C 2.473853 2.4573941 2.4784849 2.457397 2.4830525 2.4572143 C 2.4876201 2.4570316 2.492192 2.4566404 2.4964884 2.4561808 C 2.5007848 2.4557212 2.5049512 2.4547646 2.5088907 2.4541137 C 2.5167698 2.452812 2.5241402 2.4515326 2.5300781 2.4499796 C 2.5360159 2.4484266 2.5407192 2.4469645 2.5440307 2.4458455 C 2.5473422 2.4447264 2.5491983 2.4437784 2.5491983 2.4437784 C 2.5491983 2.4437784 2.549167 2.4228956 2.5497151 2.3874511 C 2.5499892 2.3697289 2.550132 2.3483857 2.5507486 2.3244059 C 2.5513653 2.300426 2.5522362 2.2733259 2.5533325 2.2448242 C 2.5544287 2.2163224 2.5557537 2.1861952 2.5574666 2.1549072 C 2.5591794 2.1236192 2.5612013 2.0916443 2.5636677 2.0593058 C 2.564901 2.0431365 2.5663545 2.0268364 2.5678019 2.0107299 C 2.5692492 1.9946235 2.5707742 1.9784976 2.5724527 1.9626709 C 2.5741313 1.9468442 2.5762102 1.9309753 2.5781372 1.9156453 C 2.5800641 1.9003153 2.5821459 1.8853031 2.5843383 1.8706868 C 2.5854345 1.8633787 2.5866386 1.8563819 2.5879557 1.8494995 C 2.5892728 1.842617 2.5905668 1.8358188 2.5920898 1.8293457 C 2.5936128 1.8228725 2.5950267 1.8168224 2.5967407 1.8107421 C 2.5984546 1.8046619 2.6005352 1.7988759 2.6024251 1.7931722 C 2.6043149 1.7874684 2.6060587 1.7819794 2.6081095 1.7766357 C 2.6101603 1.771292 2.6126307 1.7661329 2.6148274 1.7611328 C 2.6170241 1.7561327 2.6192177 1.7513362 2.6215454 1.7466634 C 2.623873 1.7419905 2.6263364 1.7370728 2.6287801 1.7327107 C 2.6312237 1.7283487 2.6334701 1.724376 2.6360148 1.7203084 C 2.6385594 1.7162407 2.6411356 1.7122125 2.6437662 1.7084228 C 2.6463969 1.7046331 2.6493328 1.7010989 2.6520344 1.6975708 C 2.6547361 1.6940427 2.6570282 1.6905184 2.6597859 1.6872355 C 2.6653013 1.6806696 2.6711896 1.6748325 2.6768391 1.6691487 C 2.6824887 1.6634649 2.6882285 1.658062 2.6938924 1.653129 C 2.6995562 1.648196 2.7048706 1.6434899 2.7104288 1.6391764 C 2.715987 1.6348629 2.7216326 1.6311162 2.7269653 1.6272908 C 2.7376306 1.6196401 2.7478938 1.6125894 2.7569376 1.6061035 C 2.7614595 1.6028605 2.7654033 1.5999505 2.7693399 1.5968017 C 2.7732766 1.5936529 2.7769604 1.5901691 2.780192 1.5869832 C 2.7834236 1.5837973 2.7865704 1.580519 2.788977 1.5771647 C 2.7901803 1.5754875 2.791103 1.5737409 2.7920776 1.571997 C 2.7930521 1.5702532 2.7939306 1.5686564 2.7946614 1.5668294 C 2.7953922 1.5650024 2.7959727 1.5634517 2.7967285 1.5621785 C 2.7974842 1.5609053 2.7985272 1.5598316 2.7993123 1.5590779 C 2.8000973 1.5583243 2.8005607 1.557796 2.8013793 1.5575276 C 2.8021979 1.5572593 2.8031067 1.5573449 2.8039632 1.5575276 C 2.8048196 1.5577103 2.8056484 1.5579617 2.806547 1.5585612 C 2.8074455 1.5591607 2.8087026 1.560163 2.8096476 1.561145 C 2.8115374 1.563109 2.8132309 1.5656078 2.815332 1.5688964 C 2.8174331 1.5721851 2.8197033 1.5764428 2.8220499 1.580782 C 2.8243965 1.5851212 2.827175 1.589619 2.8298014 1.5947347 C 2.8350541 1.6049661 2.840794 1.6166313 2.8473714 1.6283243 C 2.85066 1.6341709 2.8540354 1.6400935 2.8577066 1.6458943 C 2.8613778 1.6516952 2.8649875 1.6574664 2.8690755 1.6629476 C 2.8731634 1.6684287 2.8774555 1.6735632 2.8819946 1.6784505 C 2.8842641 1.6808941 2.8868406 1.6834414 2.8892293 1.6856852 C 2.891618 1.687929 2.8939518 1.6898766 2.896464 1.6918864 C 2.8989761 1.6938961 2.9015755 1.6958294 2.9042154 1.6975708 C 2.9068554 1.6993122 2.9097117 1.7007829 2.9124837 1.7022216 C 2.9152556 1.7036604 2.9178436 1.7047371 2.9207519 1.705839 C 2.9236602 1.7069409 2.9270048 1.7082088 2.9300536 1.7089396 C 2.9331025 1.7096704 2.9361617 1.7101644 2.9393554 1.7104899 C 2.9425491 1.7108153 2.945831 1.7106041 2.9491739 1.7104899 C 2.9525168 1.7103757 2.9560129 1.7100444 2.9595092 1.7094563 C 2.9630056 1.7088683 2.9661904 1.7084855 2.9698445 1.7073893 C 2.9771526 1.7051968 2.9860146 1.7021553 2.9961995 1.6986043 C 3.0063844 1.6950533 3.0182055 1.6909121 3.0308227 1.6862019 C 3.056057 1.6767816 3.0853425 1.664956 3.1176391 1.6520955 C 3.1499357 1.639235 3.1851888 1.6254597 3.220992 1.6107544 C 3.2567951 1.596049 3.2932417 1.5807508 3.3289957 1.5657959 C 3.4005036 1.5358861 3.4686713 1.5070335 3.5186482 1.4856974 C 3.5686251 1.4643613 3.6008137 1.4505574 3.6008137 1.4505574 C 3.5512048 1.3265341 3.5842773 1.1611688 3.5512043 1.0702189 C 3.5181316 0.97926851 3.079915 0.78909864 2.8070637 0.7312215 C 2.7559041 0.72036945 2.7078873 0.71552479 2.6628865 0.71571857 z"/>
 <path style="fill:none;fill-opacity:1;stroke:#ddcba4;stroke-width:.264583;stroke-dasharray:none;stroke-opacity:1" d="M 3.7703125,0.69817824 A 2.2489583,2.2489583 0 0 1 4.7591628,3.4150224 2.2489583,2.2489583 0 0 1 2.2553056,4.8606249"/>
</svg>
