<svg width="20" height="20" xmlns="http://www.w3.org/2000/svg">
 <g fill="none">
  <path d="M 17.5,0.5 V 16.247179 C 15.000208,18.402763 12.504328,19.5 10.000017,19.5 7.4957059,19.5 4.9998146,18.402763 2.5,16.247178 V 0.5 Z" stroke="#006747" fill="#fff" style="stroke:#000"/>
  <circle fill="#006747" cx="10" cy="14" r="4" style="fill:#000"/>
  <path d="M12,4.0000345 C12.7796782,4.00001657 13.4204297,4.59487623 13.4931303,5.35550897 L13.5,5.4999655 C13.5,6.32842712 12.8284271,7 12,7 L11,7 L11,8.5 L10,8.49798731 L10,4.00008051 L12,4.0000345 Z M10.5,2 L10.5,3 L9.00404951,3 L9,6.5 L7.99595049,6.5 L8,3 L6.5,3 L6.5,2 L10.5,2 Z M12,5 L11,5 L11.0000805,6 L12,6 C12.2761424,6 12.5,5.77614237 12.5,5.5 C12.5,5.22385763 12.2761424,5 12,5 Z" fill="#006747" style="fill:#000"/>
 </g>
</svg>
