<svg width="22" height="22" xmlns="http://www.w3.org/2000/svg">
 <g fill="none">
  <g stroke-linejoin="square">
   <rect stroke="#000" stroke-width="2" fill="#FFF" fill-rule="evenodd" x="1" y="1" width="20" height="20" rx="10"/>
   <rect stroke="#FFF" x=".5" y=".5" width="21" height="21" rx="10.5"/>
  </g>
  <path d="M5 5 6 5 6 7 8 7 8 5 9 5 9 10 8 10 8 8 6 8 6 10 5 10 5 5ZM11 5 11 9 13 9 13 10 10 10 10 5 11 5ZM14.9999933 5C15.9999933 5 16.9999933 5.5 16.9999933 6.75L15.9999933 6.75C15.9999933 6.25 15.66666 6 14.9999933 6 13.9999933 6 13.9999933 6.75 13.9999933 7.5 13.9999933 8.25 13.9999933 9 14.9999933 9 15.66666 9 15.9999933 8.75 15.9999933 8.25L16.9999933 8.25C16.9999933 9.5 15.9999933 10 14.9999933 10 13.9999933 10 12.9999933 9.5 12.9999933 7.5 12.9999933 5.5 13.9999933 5 14.9999933 5ZM2 11 20 11C20 15.9705627 15.9705627 20 11 20 6.02943725 20 2 15.9705627 2 11L2 11 2 11Z" fill="#000" fill-rule="evenodd"/>
  <path fill="#FFF" fill-rule="evenodd" d="M5 12 8 12 8 13 7 13 7 16 6 16 6 13 5 13zM9 12 10 12 10 14.75C10 15.0261424 10.2238576 15.25 10.5 15.25 10.7761424 15.25 11 15.0261424 11 14.75L11 12 11 12 12 12 12 14.75C12 15.5784271 11.3284271 16.25 10.5 16.25 9.67157288 16.25 9 15.5784271 9 14.75L9 12 9 12ZM13 12 14 12 15.5 14.25 15.5 12 16.5 12 16.5 16 15.5 16 14 13.75 14 16 13 16z"/>
 </g>
</svg>
