<svg width="22" height="21" xmlns="http://www.w3.org/2000/svg">
 <g fill="none" fill-rule="evenodd">
  <path stroke="#FFF" d="M10.9888705,1.53541164 C12.4932905,2.17213039 15.6549806,3.87611026 18.0538816,8.07193788 C19.311349,10.2705988 20.4865793,13.351667 20.4635207,15.9366539 L20.4952729,16.5917888 C20.5014614,16.8224065 20.5007132,17.0099295 20.4978836,17.1483271 L19.6146601,17.587847 C17.9917962,18.3189203 14.7868092,19.5 11.0005286,19.5 C6.74015838,19.5 3.21513315,18.0067865 1.85323088,17.3403669 L1.52154499,16.1815027 C1.53204122,15.9896301 1.54713988,15.7788513 1.56842789,15.5510978 L1.69152238,14.7185312 C2.07673476,12.2857243 2.64277057,10.3462577 3.94316334,8.07092597 C6.60805142,3.40953244 10.1920991,1.83760152 10.9888705,1.53541164 Z" stroke-linejoin="square" fill="#693F23"/>
  <path stroke="#000" d="M10.8553487,0.522191046 C12.7064083,1.1499044 16.2583722,2.91672937 18.9219393,7.57547464 C20.2554561,9.90710666 21.4793665,13.1747632 21.4636972,15.9160756 L21.4946142,16.5539789 C21.5112777,17.1582891 21.4840083,17.5025726 21.4840083,17.5025726 L20.0431555,18.491591 C18.348598,19.2568847 14.9806692,20.5 11.0005286,20.5 C6.52368045,20.5 2.82089975,18.9284912 1.4020398,18.2328833 L0.513021913,17.7692982 L0.521689379,16.1518789 C0.533269482,15.9341385 0.55043236,15.6929746 0.575318901,15.430959 L0.703827367,14.5621389 C1.10885219,12.0042067 1.70795868,9.9665959 3.07501927,7.5746137 C6.32347976,1.8924416 10.8553487,0.522191046 10.8553487,0.522191046 Z"/>
  <path d="M11,3.75 C12.0806437,3.75 12.3480892,4.44182178 12.5,4.75 C12.696057,4.74938902 13.2107522,4.66575019 14.0440855,4.49908353 L14.1036367,4.57843633 C13.9344206,4.77254058 13.2408183,5.4252134 13,5.5 C12.9449792,5.73491864 12.9262637,5.91578097 12.9438535,6.04258699 C13.3070894,6.59145228 13.4924716,6.91058995 13.5,7 L12.75,7 C12.7225048,7.26218847 12.6435324,7.75189557 12.5828844,8.01054236 C12.4212445,8.06007379 11.8123289,7.97340301 11.6390564,7.95861129 C11.6359368,8.09137219 11.8985859,8.68423271 11.9377665,8.84371246 L12.3343315,9.07808833 C12.4344246,9.19803669 12.5401752,9.31090169 12.6515836,9.41663125 C12.6969946,9.55580707 12.6464668,9.83359666 12.5,10.25 L14.25,9.25 C14.3792802,9.15739549 14.5202458,9.08796815 14.6730027,9.0416659 C14.8121706,9.09062441 14.9531362,9.09932236 15.0960054,9.06770766 C15.304017,8.91749877 15.5243485,8.78728996 15.7569471,8.67708122 C15.9471397,8.7577586 16.1322034,8.84458184 16.3121381,8.93749885 C16.4323767,8.91301959 16.5381273,8.86093606 16.6293902,8.78124827 L17.5728792,9.19207947 C17.6821767,9.23675012 17.9822066,9.34605655 18.4729689,9.51999877 C18.4496979,9.68484624 18.5231049,9.8783968 18.6935563,10.1007875 L17.6515168,9.74309258 C17.0617824,9.53629225 16.6819005,9.39279501 16.5114832,9.3124642 C16.3939942,9.37902694 16.2705831,9.43111047 16.1413558,9.46871477 C15.9278981,9.37829777 15.7163967,9.29147454 15.5068518,9.20829715 C15.3436785,9.35012059 15.1673921,9.4803294 14.9780984,9.59892359 C14.7847333,9.59329857 14.5908923,9.59329857 14.3964697,9.59892359 L12.5987082,10.6405941 C12.5655554,10.7311153 12.5479479,10.8265844 12.5458329,10.9270535 L12.7044589,11.864557 C13.2981432,11.8236714 13.8886021,11.7542441 14.4757827,11.6562229 C14.5715928,11.6558583 15.0740309,11.3192711 15.25,11.25 C15.5173377,11.3863026 15.7917969,11.7317961 16.0884805,11.6822646 C16.7608432,11.5036572 18.2293889,10.9825734 19.0448751,10.7929817 L19.1103188,10.7793897 L19.1408116,10.941467 C19.1524504,10.9981538 19.1683408,11.0596041 19.1968133,11.1321257 L19.25543,11.2624613 L18.9470101,11.3924447 C17.7649441,11.8629069 16.0850495,12.2583491 16.0620428,12.3333087 C15.8977591,12.5217469 15.7058437,12.875937 15.5,13 C15.2139973,13.0656252 14.938812,12.8503419 14.6608464,12.7499769 C13.7958587,12.9904465 12.9322459,13.2595621 12.0699549,13.5572716 C11.8272571,13.597428 11.5981482,13.5800841 11.3825755,13.505188 C11.4673346,13.6888866 11.4232366,13.8364393 11.2503871,13.947898 L11.2239495,14.1301903 C11.5627218,14.7618593 11.7918835,15.4302472 11.9113289,16.1354061 C11.8810313,16.270042 11.792941,16.3221255 11.6469522,16.2916567 C11.7679838,16.686554 11.8737345,17.0858263 11.9642042,17.4895778 C12.0167623,17.9836421 12.0343698,18.4870814 12.0170795,19 L12.1757055,19 C13.4315383,18.8822467 14.7608548,18.6960166 16.0597787,18.4035457 C14.3646272,19.1344037 12.7616141,19.5 11.25,19.5 C8.671875,19.5 7.63393023,19.1540558 6.6565112,18.7212296 L5.95918109,18.4054676 C5.73691224,18.3063941 5.50130346,18.2061073 5.23750792,18.1072067 C5.39112897,18.0079233 5.52679854,17.8886149 5.64560144,17.75 C5.78445207,17.3244209 5.88142544,16.8904089 5.93641579,16.4479072 C5.80808735,16.4467093 5.68472919,16.4206676 5.56628843,16.3697819 C5.53673112,16.3320214 5.51912363,16.2886358 5.51341309,16.2395731 C5.64528418,15.9194678 5.68868213,15.7814308 5.80358024,15.4591379 L5.7507049,15.4330962 C5.18076164,15.8815353 4.2615671,16.2807938 3.73878864,16.787254 C3.68866282,16.8124103 3.63578748,16.8210562 3.58016263,16.8132957 C3.62415491,16.5016279 3.63298509,16.1891268 3.6066003,15.8757923 C3.54912481,15.6199059 3.41693646,15.4115718 3.21003527,15.25079 C4.00025718,14.9478722 5.25495845,14.5651399 6.06860413,14.3124827 C6.22511513,14.1680551 6.32203562,13.9944086 6.35941848,13.7916474 C6.28126874,13.8052933 6.21078591,13.7879495 6.14791714,13.7395639 C5.78170255,12.9660715 5.40274501,12.2021624 5.01109739,11.4478888 C4.95605417,11.1905961 4.99132202,10.9475744 5.11684807,10.7187194 C5.60393567,10.2268947 6.05337603,9.7060594 6.46516916,9.15621362 C6.26794415,9.02803606 6.0564428,8.94121283 5.83066512,8.89579599 C5.66542969,8.98564007 5.48919619,9.06376536 5.30191175,9.13017186 C4.86849668,9.14300844 3.62462712,9.47794882 3.11202389,9.70964861 L3.05859724,9.73572998 C3.0468641,9.59005575 3.02733168,9.45362018 3,9.32642326 L3.00826711,9.31535315 L4.15392515,8.98655327 C4.67156549,8.84491303 5.18559973,8.72015807 5.36549596,8.73437587 C5.56911888,8.64062552 5.78062023,8.56250023 6,8.5 C6.18226129,8.56369815 6.35849478,8.64182344 6.52875337,8.73437587 C6.59923619,8.76911558 6.66977189,8.76911558 6.74025472,8.73437587 C7.0987495,8.32885353 8.4778961,8.111376 8.64309212,7.95877279 L8.84088954,7.77200027 C8.97687458,7.64943461 9.12992379,7.53953129 9.3529808,7.49487203 L9.40441006,6.96878869 L9.26367185,6.8266381 C9.20339379,6.76298142 9.09535063,6.64885243 8.93954235,6.48425113 C8.23967686,6.43822301 7.81270474,6.41222282 7.65862601,6.40625058 C7.5936951,6.36567751 7.54081976,6.31359399 7.5,6.25 C7.76363643,6.01755122 8.65681793,5.83513415 8.99241769,5.70299825 C9.001195,4.69601536 9.91935626,3.75 11,3.75 Z M9.04551144,16.0841818 C8.70404252,16.7855907 8.16823088,18.0868195 7.73417724,18.7395824 C7.82512282,18.8142701 7.93087349,18.8576557 8.05142926,18.8697912 C8.45470946,18.9360414 8.86010466,18.979427 9.26756201,19 C9.43665734,19.0279168 9.57767586,18.9931771 9.6905647,18.8958329 C9.6616419,18.549165 9.63520423,18.2019241 9.6112517,17.8541624 C9.41233468,17.444213 9.32247246,16.4381415 9.04551144,16.0841818 Z M8,10.25 C7.84198791,10.4454899 6.94112936,10.5751465 6.75,10.75 C6.62437999,10.8862794 6.53164543,11.2913056 6.46516916,11.361628 C6.61286735,11.5467997 7.10230181,12.0648283 7.25,12.25 C7.54136752,11.7052792 7.94222607,10.8164683 8,10.25 Z" fill="#FFF"/>
  <path d="M12,14.75 L12,14.5625 L13,13.75 L13,17 L12.5,17 L12.5,14.75 L12,14.75 Z M18.5,14 C19.1666667,14 19.5,14.75 19.5,15.5 C19.5,16.25 19.1666667,17 18.5,17 C17.8333333,17 17.5,16.25 17.5,15.5 C17.5,14.75 17.8333333,14 18.5,14 Z M18.5,14.1875 C18.1666667,14.1875 18,15.125 18,15.5 C18,15.875 18.1666667,16.8125 18.5,16.8125 C18.8333333,16.8125 19,15.875 19,15.5 C19,15.125 18.8333333,14.1875 18.5,14.1875 Z M16.25,14 C17.3611111,14 17.5462963,14.5 16.8055556,15.5 C17.5462963,16.5 17.3611111,17 16.25,17 C15.1388889,17 14.9537037,16.5 15.6944444,15.5 C14.9537037,14.5 15.1388889,14 16.25,14 Z M16.25,15.6875 C15.9722222,15.941896 15.8333333,16.1561817 15.8333333,16.3303571 C15.8333333,16.5916204 15.9722222,16.8125 16.25,16.8125 C16.5277778,16.8125 16.6666667,16.6315939 16.6666667,16.3303571 C16.6666667,16.1295326 16.5277778,15.9152469 16.25,15.6875 Z M16.25,14.1875 C15.9722222,14.1875 15.8333333,14.4083796 15.8333333,14.6696429 C15.8333333,14.8438183 15.9722222,15.058104 16.25,15.3125 C16.5277778,15.0847531 16.6666667,14.8704674 16.6666667,14.6696429 C16.6666667,14.3684061 16.5277778,14.1875 16.25,14.1875 Z M13.25,14.75 L13.25,14 L15.25,14 L14.25,17 L13.75,17 L14.5,14.375 L13.75,14.375 L13.25,14.75 Z" fill="#FFF"/>
 </g>
</svg>
