<svg width="20" height="22" xmlns="http://www.w3.org/2000/svg">
 <rect style="fill:#fff;fill-rule:evenodd;stroke:#000;stroke-width:2;stroke-linecap:round;stroke-linejoin:round;stroke-miterlimit:4;stroke-dasharray:none;stroke-opacity:1;paint-order:stroke fill markers" width="18" height="20" x="1" y="1" ry="1"/>
 <path d="m 7.0457892,11.506489 c -0.011248,-0.03688 -0.0281,-0.112204 -0.0281,-0.112204 C 6.92353,11.018305 6.4942901,10.477471 6.244756,10.418229 6.1774549,10.402214 5.9906218,10.337205 5.8301692,10.274255 5.6697265,10.211342 5.4719532,10.148802 5.3905819,10.134246 5.0208558,10.016762 4.3717351,9.889211 4.2530631,9.825451 3.8764269,9.770641 3.0155427,8.950673 3.0155427,8.950673 2.6900373,8.5752293 2.3297714,8.2301145 1.9884357,7.8683017 L 7.8416624,2.0640212 8.1572876,1.7403275 8.3791712,1.934946 17.955369,10.319288 8.4206019,19.942205 8.2789396,20.112992 8.2164386,19.876671 c -0.029701,-0.110622 -0.067101,-0.329318 -0.083301,-0.48554 -0.0188,-0.18097 -0.071901,-0.366703 -0.1468724,-0.511364 -0.064801,-0.124882 -0.1378323,-0.291657 -0.1625027,-0.370364 -0.0247,-0.07874 -0.077001,-0.225711 -0.1156319,-0.326677 -0.1031817,-0.269455 -0.055801,-0.476857 0.1770929,-0.778463 0.2107435,-0.272878 0.2738645,-0.63532 0.2739645,-0.635474 0.1256249,-0.193462 0.3967036,-0.743994 0.4463002,-1.153174 0.062699,-0.517279 0.0055,-1.07139 -0.199579,-1.550402 C 8.214912,13.619088 7.727865,13.356706 7.4893281,12.934086 7.2754568,12.555166 7.1727268,11.922672 7.0457892,11.506489 Z M 7.216482,16.76879 C 7.1762,16.8644 7.157649,16.957644 7.131221,17.042478 c -0.057001,0.11961 -0.1431723,0.20516 -0.1718728,0.301846 -0.029901,0.08998 -0.071101,0.205514 -0.091702,0.257169 -0.0206,0.05166 -0.037501,0.212014 -0.037501,0.356465 0,0.264651 0.0155,0.309662 0.3281354,0.952227 0.058001,0.119199 0.1670627,0.430892 0.1968732,0.545126 0.055101,0.234739 0.062901,0.347629 0.095802,0.587811 0.040601,0.247378 0.089701,0.540913 0.1093818,0.653354 0.0197,0.112442 0.036801,0.264509 0.038501,0.337602 L 7.6018386,21.185 8.4226922,21.1764 19.083518,10.25078 8.3770612,0.814 7.8562126,0.8149533 0.91651798,7.7303234 2.0352865,8.909511 c 0.2769246,0.332283 1.1326587,1.166197 1.1968898,1.166197 0.024,0 0.124302,0.05262 0.2229236,0.11716 0.2175936,0.142391 0.5344989,0.267244 0.8229336,0.323703 0.5196886,0.101718 1.1241886,0.265682 1.2479306,0.338583 0.074001,0.04356 0.1642827,0.0794 0.2000033,0.0794 0.099802,0 0.4187739,0.327211 0.4468874,0.456744 0,0 0.014106,0.07744 0.025,0.115188 0.157062,0.544268 0.3066643,1.301118 0.5797965,1.797399 0.2193667,0.398589 0.6762491,0.653413 0.8347654,1.079872 0.1490798,0.401073 0.1423319,0.86027 0.068874,1.2818 C 7.6127827,16.058683 7.216482,16.76879 7.216482,16.76879 Z" style="fill:#000;stroke-width:.0325445"/>
</svg>
