<svg width="35" height="20" version="1.0" viewBox="0 0 34.952 19.967" xmlns="http://www.w3.org/2000/svg">
 <path style="fill:#fff;stroke:#000;stroke-width:.99864;stroke-miterlimit:4;stroke-dasharray:none" d="M 34.440575,5.9158801 C 34.455213,14.9767 27.035626,18.60967 17.4762,19.428432 7.9167753,18.609603 0.49718695,14.9767 0.51182505,5.9158801 h 7.06e-5 c 0,-0.424388 0.027566,-0.8442272 0.081475,-1.258688 C 0.82125605,3.3909145 1.3575504,1.7690878 2.0300314,0.63386038 h 3.771e-4 C 4.4300662,1.0941562 6.9526006,1.3396135 9.5549162,1.3396135 c 2.7471188,0 5.4050278,-0.2734802 7.9234108,-0.78447772 2.518433,0.51100092 5.176341,0.78447772 7.923414,0.78447772 2.602503,0 5.124942,-0.2454405 7.524505,-0.70575312 0.672481,1.13512622 1.204993,2.75691922 1.432832,4.02333172 0.05393,0.4144608 0.08149,0.8343 0.08149,1.258688 z"/>
 <path style="fill:none;stroke:#000;stroke-width:1;stroke-linecap:butt;stroke-linejoin:miter;stroke-opacity:1" d="M 0.49931998,4.4992637 34.45308,4.49098"/>
</svg>
