<svg width="17" height="21" xmlns="http://www.w3.org/2000/svg" xmlns:xlink="http://www.w3.org/1999/xlink">
 <defs>
  <path id="a" d="M0 0H15V6H0z"/>
 </defs>
 <g fill="none" fill-rule="evenodd">
  <path d="M15,0.5 C15.4142136,0.5 15.7892136,0.667893219 16.0606602,0.939339828 C16.3321068,1.21078644 16.5,1.58578644 16.5,2 L16.5,19 C16.5,19.4142136 16.3321068,19.7892136 16.0606602,20.0606602 C15.7892136,20.3321068 15.4142136,20.5 15,20.5 L2,20.5 C1.58578644,20.5 1.21078644,20.3321068 0.939339828,20.0606602 C0.667893219,19.7892136 0.5,19.4142136 0.5,19 L0.5,2 C0.5,1.58578644 0.667893219,1.21078644 0.939339828,0.939339828 C1.21078644,0.667893219 1.58578644,0.5 2,0.5 Z" stroke="#000" fill="#FFF" fill-rule="nonzero"/>
  <g fill="#000">
   <path d="M-7.98111577e-14 5.25143338 9 6.25143338 8 9.25143338 2 9.25143338z" transform="translate(2 3.749)"/>
   <path d="M6.75,4.25143338 L7,4.25143338 C7.97058667,5.55535339 8.47058667,6.22202005 8.5,6.25143338 C8.55838926,6.30982264 8.22505593,6.30982264 7.5,6.25143338 L6.75,4.25143338 Z" transform="translate(2 3.749)"/>
   <path d="M4.25,4.25143338 C4.08333333,3.78668207 4,3.45334874 4,3.25143338 C4,3.25143338 4,3.25143338 4,3.25143338 C4,2.85331664 4.25475276,2.49986607 4.63243438,2.37395526 L5,2.25143338 L5,2.25143338 L5,1.75143338 L4.61035156,1.23190213 C4.44441255,1.01117533 4.49020056,0.697921552 4.7116508,0.532953678 C4.73665284,0.514328581 4.76334208,0.498082747 4.79126368,0.484210504 C5.49523383,0.14384017 5.89814594,-0.0170855377 6,0.0014333826 C6.10327026,0.0202097936 6.34699852,0.192577197 6.73118478,0.518535592 C6.89277583,0.656504871 6.94899909,0.881662842 6.86914062,1.07858182 L6.57060124,1.82493028 C6.52512182,1.93862882 6.43949864,2.03168406 6.32996969,2.08644854 L6,2.25143338 L6,2.25143338 C6.17828245,2.27466495 6.34494912,2.44133162 6.5,2.75143338 C6.65505088,3.06153515 6.82171755,3.56153515 7,4.25143338 L7,4.75143338 L6.3618034,4.43233508 C6.23830877,4.37058777 6.08814051,4.42064386 6.0263932,4.54413848 C6.00903627,4.57885234 6,4.61713061 6,4.65594188 L6,6.25143338 L6,6.25143338 L5,6.25143338 L5,4.75143338 L4,6.25143338 L3,6.25143338 L4.25,4.25143338 Z" transform="translate(2 3.749)"/>
  </g>
  <path d="M11.875,0 C12.5826064,0 12.890625,1 13.5,1 C13.5,1.33333333 13.5,1.66666667 13.5,2 C12.826903,2 12.484375,1 11.875,1 C11.265625,1 11.0625,2 10.25,2 C9.4375,2 9.234375,1 8.625,1 C8.015625,1 7.8125,2 7,2 C6.1875,2 6.1875,1 5.375,1 C4.5625,1 4.5625,2 3.75,2 C2.9375,2 2.734375,1 2.125,1 C1.515625,1 1.17309704,2 0.5,2 C0.5,1.66666667 0.5,1.33333333 0.5,1 C1.109375,1 1.41073139,0 2.125,0 C2.83926861,0 3.140625,1 3.75,1 C4.359375,1 4.5625,0 5.375,0 C6.1875,0 6.390625,1 7,1 C7.609375,1 7.8125,0 8.625,0 C9.4375,0 9.640625,1 10.25,1 C10.859375,1 11.1673936,0 11.875,0 Z" fill="#FFF" fill-rule="nonzero" transform="translate(1.5 11)"/>
  <g transform="translate(1.5 11)">
   <mask id="b" fill="#fff">
    <use xlink:href="#a"/>
   </mask>
   <path d="M11.875 1C12.5826064 1 12.890625 2 13.5 2 13.5 2.33333333 13.5 2.66666667 13.5 3 12.826903 3 12.484375 2 11.875 2 11.265625 2 11.0625 3 10.25 3 9.4375 3 9.234375 2 8.625 2 8.015625 2 7.8125 3 7 3 6.1875 3 6.1875 2 5.375 2 4.5625 2 4.5625 3 3.75 3 2.9375 3 2.734375 2 2.125 2 1.515625 2 1.17309704 3 .5 3 .5 2.66666667.5 2.33333333.5 2 1.109375 2 1.41073139 1 2.125 1 2.83926861 1 3.140625 2 3.75 2 4.359375 2 4.5625 1 5.375 1 6.1875 1 6.390625 2 7 2 7.609375 2 7.8125 1 8.625 1 9.4375 1 9.640625 2 10.25 2 10.859375 2 11.1673936 1 11.875 1ZM11.875 3C12.5826064 3 12.890625 4 13.5 4 13.5 4.33333333 13.5 4.66666667 13.5 5 12.826903 5 12.484375 4 11.875 4 11.265625 4 11.0625 5 10.25 5 9.4375 5 9.234375 4 8.625 4 8.015625 4 7.8125 5 7 5 6.1875 5 6.1875 4 5.375 4 4.5625 4 4.5625 5 3.75 5 2.9375 5 2.734375 4 2.125 4 1.515625 4 1.17309704 5 .5 5 .5 4.66666667.5 4.33333333.5 4 1.109375 4 1.41073139 3 2.125 3 2.83926861 3 3.140625 4 3.75 4 4.359375 4 4.5625 3 5.375 3 6.1875 3 6.390625 4 7 4 7.609375 4 7.8125 3 8.625 3 9.4375 3 9.640625 4 10.25 4 10.859375 4 11.1673936 3 11.875 3Z" fill="#003F87" fill-rule="nonzero" mask="url(#b)"/>
  </g>
 </g>
</svg>
