<svg width="22" height="20" xmlns="http://www.w3.org/2000/svg">
 <path d="m 3.125,0.5 0.375,3 h -3 l 2,16 h 17 l 2,-16 h -3 l 0.375,-3 z" fill="#fff" stroke="#000" style="fill:#006747;stroke:#fff"/>
 <path style="fill:#fff;stroke-width:11.7895" d="m 4.0405522,12 h 1.8076691 c 0.234945,6e-6 0.4472604,0.04284 0.6400518,0.126426 0.1987988,0.07764 0.3674248,0.18932 0.505988,0.338566 0.1445846,0.143285 0.2542189,0.320314 0.3265052,0.529256 0.078352,0.208955 0.1167677,0.439245 0.1167677,0.689984 -4e-6,0.549236 -0.1380453,0.966965 -0.4151737,1.253513 -0.2711011,0.286557 -0.6620715,0.428564 -1.1741548,0.428564 H 4.9075897 v 2.633503 H 4.0405001 Z m 4.2359722,0 h 0.8497853 v 5.99972 H 8.2765244 Z m 2.1883036,0 h 0.867105 v 2.399864 L 12.713604,12 h 1.003336 l -1.256272,2.104186 1.401231,3.895534 h -0.912497 l -1.066038,-2.929182 -0.551395,1.013539 v 1.915667 h -0.867093 z m 4.411173,0 h 2.847819 v 0.842106 h -1.978546 v 1.512829 h 1.256272 v 0.824972 h -1.256272 v 1.977827 H 17.9595 v 0.842106 h -3.083499 z m -9.9679756,0.842106 v 1.701349 H 5.80322 c 0.253031,3e-6 0.4448126,-0.07584 0.5773405,-0.224986 0.1385452,-0.149245 0.2075759,-0.359638 0.2075879,-0.634256 -4.1e-6,-0.25074 -0.071632,-0.45547 -0.2162271,-0.610689 C 6.2273369,12.918299 6.0381671,12.842106 5.8032201,12.842106 Z"/>
 <path style="fill:#fff;stroke-width:11.7898" d="M 2.927,5 H 5.9543917 V 5.7831494 H 4.8709048 V 10.894751 H 4.0083628 V 5.7831494 H 2.927 Z m 3.8431288,0 h 0.8519223 v 4.2399759 c -1.9e-6,0.2815424 0.075565,0.5078 0.2294405,0.6778924 0.1539008,0.1701097 0.3568777,0.2547307 0.6054787,0.2547307 0.2308453,0 0.4192573,-0.08464 0.5672325,-0.2547307 0.1538811,-0.1701102 0.2315643,-0.39635 0.2315643,-0.6778924 V 5 h 0.8519209 v 4.1346935 c -2e-6,0.1173168 -0.0051,0.2240531 -0.0169,0.3178888 -0.0059,0.093838 -0.01847,0.1810342 -0.03607,0.2631619 -0.01768,0.076272 -0.04267,0.1532131 -0.072147,0.2294757 -0.02959,0.076273 -0.064837,0.1511111 -0.1062348,0.2273681 C 9.728368,10.413076 9.5249155,10.612112 9.2644906,10.770473 9.0099716,10.922979 8.7412927,10.999951 8.4571942,10.999951 8.161246,10.999949 7.88013,10.922971 7.6137733,10.770473 7.3533368,10.617968 7.1477683,10.418923 6.9997952,10.172588 6.9583581,10.096315 6.923169,10.021457 6.8935598,9.9452199 6.8639506,9.8689475 6.841179,9.7919873 6.8234566,9.7157442 c -0.017683,-0.082167 -0.032733,-0.1693243 -0.0446,-0.2631619 -0.00589,-0.093857 -0.00845,-0.20058 -0.00845,-0.3178888 z m 4.6292772,0 h 1.776016 c 0.230834,5.9e-6 0.439432,0.037488 0.628846,0.1136424 0.195318,0.076272 0.360994,0.1829992 0.497129,0.3178908 0.142053,0.1349014 0.249757,0.3016302 0.320803,0.5010549 0.07698,0.1935696 0.11472,0.4074922 0.11472,0.6420981 -5e-6,0.3519383 -0.07038,0.6505036 -0.212441,0.8968391 -0.142053,0.2463493 -0.355369,0.4228432 -0.639469,0.5284202 l 0.85191,2.8947605 H 13.857366 L 13.06918,8.1242118 h -0.817893 v 2.7704942 h -0.851909 z m 4.333936,0 h 0.854033 l 1.633716,3.5368321 V 5 H 19.073 v 5.894681 H 18.425031 L 16.587351,6.9452036 V 10.894681 H 15.73332 Z m -3.481651,0.8273627 v 1.4863422 h 0.87952 c 0.248589,4e-6 0.437024,-0.062126 0.567233,-0.1852585 0.136119,-0.1290465 0.203938,-0.3132088 0.20395,-0.5536854 -3e-6,-0.2287469 -0.07038,-0.4103569 -0.21244,-0.5452564 C 13.5479,5.8946228 13.362044,5.8274157 13.131211,5.827404 Z"/>
</svg>
