<svg width="20" height="20" xmlns="http://www.w3.org/2000/svg">
 <g fill="none" fill-rule="evenodd">
  <rect stroke="#FFCD00" fill="#693F23" x=".5" y=".5" width="19" height="19" rx="2"/>
  <path d="M4.17225783,7 L4.92225783,0.25 C5.0889245,-0.0833333333 5.42225783,-0.25 5.92225783,-0.25 C6.67225783,-0.25 6.74614119,1.06174111 7.67225783,1 C8.59837447,0.938258891 9.17225783,-0.5 9.67225783,-0.5 C10.0055912,-0.5 10.2555912,-0.25 10.4222578,0.25 L11.1722578,7 C12.1722578,4.66666667 13.2555912,3.91666667 14.4222578,4.75 C16.1722578,6 14.1722578,12.25 7.67225783,12.25 C1.17225783,12.25 -0.827742171,6 0.672257829,4.75 C1.67225783,3.91666667 2.8389245,4.66666667 4.17225783,7 Z" fill="#FFCD00" transform="translate(2.328 4)"/>
  <path d="M4.17225783,7 L6.05687321,7.25 C6.05687321,6.58333333 6.59533475,6.25 7.67225783,6.25 C8.74918091,6.25 9.28764244,6.58333333 9.28764244,7.25 L11.1722578,7 L11.1722578,8.25 C10.2748219,8.75 9.10815527,9 7.67225783,9 C6.23636039,9 5.06969373,8.75 4.17225783,8.25 L4.17225783,7 Z" fill="#693F23" transform="translate(2.328 4)"/>
 </g>
</svg>
