<svg width="22" height="20" viewBox="0 0 5.821 5.292" xmlns="http://www.w3.org/2000/svg">
 <path d="M 2.9140828,0.13229711 C 2.7075292,0.20477817 2.4062741,0.39798427 2.1799017,0.39654337 L 0.13271272,0.39690007 0.1323,3.2624133 c 7.956e-5,0.1267304 0.0400341,0.2548226 0.10362395,0.3726066 0.35725503,0.5343784 0.91586875,0.9804645 1.62152475,1.2892347 0.3094383,0.1533085 0.6766524,0.2354414 1.052897,0.2354414 0.3762446,0 0.7437572,-0.082204 1.0537149,-0.2357343 C 4.6702915,4.6150252 5.234863,4.1694379 5.5922174,3.634727 5.6558194,3.5166263 5.688796,3.385961 5.6888976,3.2594839 l 1.4e-6,-2.86258383 H 3.642152 C 3.415647,0.39860947 3.1206297,0.20477948 2.914076,0.13229763 Z" fill="#ffcd00" stroke="#000" stroke-linecap="round" stroke-linejoin="round" stroke-width=".265" style="stroke-width:.2646;stroke-miterlimit:4;stroke-dasharray:none"/>
</svg>
