<svg width="26" height="20" version="1.0" xmlns="http://www.w3.org/2000/svg">
 <path style="fill:#000" d="m 0,18 c 0,1.09935 0.90065,2 2,2 h 22 c 1.09935,0 2,-0.90065 2,-2 V 2 C 26,0.90065 25.09935,0 24,0 H 2 C 0.90065,0 0,0.90065 0,2 Z"/>
 <path style="fill:#fff" d="m 5.0470019,18.9 h -2.877 v -4.998 h 2.877 v 0.868 h -1.82 v 1.099 h 1.694 v 0.868 h -1.694 v 1.288 h 1.82 z M 4.028505,12.95 h -1.057 V 8.834 h -1.358 V 7.952 h 3.773 v 0.882 h -1.358 z M 3.5280058,2.002 c 0.644,0 1.113,0.14 1.407,0.42 0.2986667,0.2753333 0.448,0.6556667 0.448,1.141 0,0.2893333 -0.060667,0.562333 -0.182,0.819 -0.1213333,0.252 -0.3243333,0.455 -0.609,0.609 -0.28,0.154 -0.6626667,0.231 -1.148,0.231 h -0.455 V 7 h -1.057 V 2.002 Z m -0.056,0.868 h -0.483 v 1.484 h 0.35 c 0.2986667,0 0.5343333,-0.05833 0.707,-0.175 0.1773333,-0.121333 0.266,-0.315 0.266,-0.581 0,-0.4853333 -0.28,-0.728 -0.84,-0.728 z M 7,1 h 17 c 0.562648,0 1,0.437352 1,1 v 16 c 0,0.562648 -0.437352,1 -1,1 H 7 Z"/>
</svg>
