<svg width="22" height="22" xmlns="http://www.w3.org/2000/svg">
 <g fill="none">
  <g stroke-linejoin="square">
   <rect stroke="#000" stroke-width="2" fill="#FFCD00" fill-rule="evenodd" x="1" y="1" width="20" height="20" rx="10"/>
   <rect stroke="#FFCD00" x=".5" y=".5" width="21" height="21" rx="10.5"/>
  </g>
  <path d="M2.24999233 0C3.37498473 0 4.5.55 4.5 2.75 4.5 3.37129373 4.41027634 3.86099454 4.25616805 4.24387754L4.90165043 4.89016504 4.19454365 5.59727182 3.66464546 5.06690112C3.2611686 5.38891555 2.75557815 5.5 2.24999233 5.5 1.12499992 5.5 0 4.95 0 2.75 0 .55 1.12499992 0 2.24999233 0ZM2.25000924 1C1.62501346 1 1.0000135 1.35 1.0000135 2.75 1.0000135 4.15 1.62501346 4.5 2.25000924 4.5 2.48237947 4.5 2.71475145 4.451619 2.91500301 4.31888139L2.25 3.65272818 2.95710678 2.94562139 3.43889465 3.42806025C3.47829059 3.23551036 3.5000135 3.01100218 3.5000135 2.75 3.5000135 1.35 2.87500502 1 2.25000924 1ZM5.5.25 6.5.25 8 3.25 9.5.25 10.5.25 10.5 5.25 9.5 5.25 9.5 2.25 8 5.25 6.5 2.25 6.5 5.25 5.5 5.25z" transform="translate(5.5 4.75)" fill-rule="evenodd" fill="#000"/>
  <path d="M2,11 L20,11 C20,15.9705627 15.9705627,20 11,20 C6.02943725,20 2,15.9705627 2,11 L2,11 L2,11 Z" fill="#000" fill-rule="evenodd"/>
  <path fill="#FFCD00" fill-rule="evenodd" d="M5 12 8 12 8 13 7 13 7 16 6 16 6 13 5 13zM9 12 10 12 10 14.75C10 15.0261424 10.2238576 15.25 10.5 15.25 10.7761424 15.25 11 15.0261424 11 14.75L11 12 11 12 12 12 12 14.75C12 15.5784271 11.3284271 16.25 10.5 16.25 9.67157288 16.25 9 15.5784271 9 14.75L9 12 9 12ZM13 12 14 12 15.5 14.25 15.5 12 16.5 12 16.5 16 15.5 16 14 13.75 14 16 13 16z"/>
 </g>
</svg>
