<?xml version="1.0" encoding="UTF-8"?>
<svg width="22px" height="21px" viewBox="0 0 22 21" version="1.1" xmlns="http://www.w3.org/2000/svg" xmlns:xlink="http://www.w3.org/1999/xlink">
    <title>shield_us_nht_safe</title>
    <defs>
        <path d="M20.9854853,17.4641695 L20.7080082,17.6146471 L20.372574,17.784192 L19.828855,18.0397453 C18.1701087,18.7879341 14.8836869,20 11.0005286,20 C6.63197547,20 3.01810879,18.4676785 1.62767684,17.7866468 L1.01464917,17.4669788 L1.00156842,17.1239637 L1.00189323,16.7153542 L1.02161769,16.166596 C1.03266103,15.9618117 1.0487905,15.7359093 1.07185898,15.4911286 L1.19767487,14.640335 C1.59279348,12.1449655 2.17536463,10.1564268 3.5090913,7.82276984 C6.64086683,2.34470182 11.0026532,1 11.0026532,1 L11.3634101,1.13622157 C12.4717499,1.5943384 15.9083145,3.31183189 18.4879104,7.82370626 C19.7834357,10.0889108 20.9829962,13.263381 20.9636187,15.9265648 L20.9949457,16.57293 C21.0103992,17.1407528 20.9854853,17.4641695 20.9854853,17.4641695 Z" id="path-1"></path>
    </defs>
    <g id="shield_us_nht_safe" stroke="none" fill="none">
        <path d="M20.9854853,17.4641695 L20.7080082,17.6146471 L20.372574,17.784192 L19.828855,18.0397453 C18.1701087,18.7879341 14.8836869,20 11.0005286,20 C6.63197547,20 3.01810879,18.4676785 1.62767684,17.7866468 L1.01464917,17.4669788 L1.00156842,17.1239637 L1.00189323,16.7153542 L1.02161769,16.166596 C1.03266103,15.9618117 1.0487905,15.7359093 1.07185898,15.4911286 L1.19767487,14.640335 C1.59279348,12.1449655 2.17536463,10.1564268 3.5090913,7.82276984 C6.64086683,2.34470182 11.0026532,1 11.0026532,1 L11.3634101,1.13622157 C12.4717499,1.5943384 15.9083145,3.31183189 18.4879104,7.82370626 C19.7834357,10.0889108 20.9829962,13.263381 20.9636187,15.9265648 L20.9949457,16.57293 C21.0103992,17.1407528 20.9854853,17.4641695 20.9854853,17.4641695 Z" id="Path" fill="#F38F00" fill-rule="evenodd"></path>
        <g id="Path-Copy" stroke-width="1">
            <path stroke="#FFFFFF" d="M10.9888705,1.53541164 C12.4932905,2.17213039 15.6549806,3.87611026 18.0538816,8.07193788 C19.311349,10.2705988 20.4865793,13.351667 20.4635207,15.9366539 L20.4952729,16.5917888 C20.5014614,16.8224065 20.5007132,17.0099295 20.4978836,17.1483271 L19.6146601,17.587847 C17.9917962,18.3189203 14.7868092,19.5 11.0005286,19.5 C6.74015838,19.5 3.21513315,18.0067865 1.85323088,17.3403669 L1.52154499,16.1815027 C1.53204122,15.9896301 1.54713988,15.7788513 1.56842789,15.5510978 L1.69152238,14.7185312 C2.07673476,12.2857243 2.64277057,10.3462577 3.94316334,8.07092597 C6.60805142,3.40953244 10.1920991,1.83760152 10.9888705,1.53541164 Z" stroke-linejoin="square"></path>
            <path stroke="#000000" d="M10.8553487,0.522191046 C12.7064083,1.1499044 16.2583722,2.91672937 18.9219393,7.57547464 C20.2554561,9.90710666 21.4793665,13.1747632 21.4636972,15.9160756 L21.4946142,16.5539789 C21.5112777,17.1582891 21.4840083,17.5025726 21.4840083,17.5025726 L20.0431555,18.491591 C18.348598,19.2568847 14.9806692,20.5 11.0005286,20.5 C6.52368045,20.5 2.82089975,18.9284912 1.4020398,18.2328833 L0.513021913,17.7692982 L0.521689379,16.1518789 C0.533269482,15.9341385 0.55043236,15.6929746 0.575318901,15.430959 L0.703827367,14.5621389 C1.10885219,12.0042067 1.70795868,9.9665959 3.07501927,7.5746137 C6.32347976,1.8924416 10.8553487,0.522191046 10.8553487,0.522191046 Z"></path>
        </g>
        <path d="M12.1904729,11.6922918 C10.9155367,8.98576223 12.5205369,6.66987874 14.919914,7.038799 C16.0550434,7.21344076 16.5877633,7.88192601 16.8246226,8.34067399 C17.0238582,8.80610687 17.0918376,9.37724394 17.0790113,10.1439129 C17.1371573,10.1046394 17.3115953,9.85270402 17.3115953,9.85270402 C17.3115953,9.85270402 17.3051821,9.42570908 17.1991512,8.94439971 C17.4095028,9.10358277 17.6040354,9.26151242 17.7592339,9.53015993 C17.7934373,9.793376 17.7724877,10.0925231 17.663464,10.4397176 C17.7126316,10.4250945 17.9144324,10.3294176 17.9144324,10.3294176 C17.9158408,10.3166414 17.9177493,10.2989989 17.9203968,10.2729957 L17.9220716,10.2564012 C17.9349696,10.1275053 17.9610347,9.84186902 17.9751436,9.51219437 C17.9948106,9.52514627 18.9529368,10.1581182 19.2013399,10.5433328 C19.3073707,10.7079473 19.8807073,12.1786148 19.0837653,13.5807626 C18.1474439,13.6196183 17.3107402,12.9966737 16.9323637,12.5291518 L16.9323637,12.275963 L15.1713098,12.0591231 L15.0007948,12.2362069 L16.5138836,12.3933657 L16.5138836,12.6849924 L16.5194665,12.6905369 C16.6083243,12.7779928 17.7465957,13.8696986 19.1240399,13.7950957 C19.0552053,13.9814359 18.959863,14.1882486 18.8687961,14.372082 C19.0115958,14.6365515 19.0705969,15.0288688 19.0299802,15.4625486 C18.9611456,16.1941221 18.6396325,16.8266762 18.1556526,16.7757042 C18.1466742,16.776122 18.1381234,16.7773754 18.129145,16.7773754 C17.6772309,16.7803001 17.3091155,16.1686361 17.3065502,15.4111587 C17.303985,14.7685773 17.5660695,14.2275221 17.9217861,14.0771129 C17.9410256,14.0637432 17.9615477,14.0512091 17.9820698,14.0395106 C17.8794592,14.0478667 17.7832618,14.0612364 17.7447829,14.0771129 C17.3548627,14.2388028 17.245839,14.656606 17.23173,15.0915393 L17.0171029,15.1212033 C17.0521616,15.2912492 17.0684082,15.4851099 17.0598574,15.7006964 C17.0337772,16.362079 16.7982004,16.9465858 16.4463316,17.0485298 C16.3702288,17.0848787 16.289423,17.105351 16.2056244,17.105351 C15.7451594,17.105351 15.3719135,16.5166662 15.3719135,15.7901063 C15.3719135,15.3338651 15.5194162,14.9319384 15.7430217,14.6962974 C15.8546107,14.5571689 16.0384547,14.4176226 16.2689009,14.3854517 C16.2958362,14.3816915 16.3253367,14.3808559 16.3556923,14.3837805 C16.3616779,14.3812737 16.3706564,14.3808559 16.3796348,14.3808559 C16.430085,14.3808559 16.4783974,14.3887941 16.5249997,14.4038351 C16.4377808,14.3077403 16.3514169,14.3102471 16.1910879,14.3035623 C15.7443043,14.2847611 15.4941911,14.6962974 15.4193709,15.3413856 L15.2624623,15.3631114 C15.2115845,15.4349735 15.1542936,15.5110138 15.099568,15.5862183 C14.9499276,15.7905241 15.0593788,16.0437129 15.0593788,16.1118148 C15.0593788,16.1799168 14.940094,16.2868744 14.8203817,16.3650036 C14.701097,16.442715 14.7408586,16.6570481 14.7305975,16.744369 C14.720764,16.8321076 14.7904537,16.9490926 14.7408586,17.007585 C14.6908359,17.0656597 14.4916004,17.1437889 14.4022437,17.075687 C14.3911275,17.0430983 14.4005335,16.9432433 14.4189179,16.8262584 C14.2957852,16.8316899 14.2675673,16.8300186 14.3124595,16.7347595 C14.3646198,16.6244595 14.3864245,16.5588643 14.4830495,16.5112347 C14.5048542,16.4243317 14.526659,16.3562297 14.541623,16.3357574 C14.5912181,16.2676555 14.6412408,16.0629319 14.6113127,15.975611 C14.5860876,15.9016598 14.4338819,15.7938666 14.2974954,15.7495794 C14.1983052,15.7809147 14.0978323,15.8080719 13.9986421,15.8293798 C13.7267241,15.8878723 13.3757105,15.9229678 13.036668,15.9058378 C12.9759568,16.0232405 13.0003268,16.319463 12.9477389,16.4134688 C12.8878827,16.5204264 12.9276443,16.9975578 12.9276443,17.0560502 C12.9276443,17.1145427 12.9079773,17.1730351 12.8677882,17.2311098 C12.8280266,17.2896022 12.9477389,17.4161966 12.8878827,17.4650796 C12.8280266,17.5135448 12.7681704,17.4943258 12.6587192,17.542791 C12.6181025,17.5607566 12.6189576,17.5135448 12.4795782,17.5039353 C12.4594836,17.4161966 12.5291733,17.2799928 12.5492679,17.2411371 C12.5689349,17.2022814 12.5291733,17.1826446 12.4894117,17.1533984 C12.4496501,17.1241522 12.2602481,17.1337616 12.2405811,17.0949059 C12.2224428,17.0300831 12.2884786,16.9545179 12.3588353,16.8811383 L12.3799921,16.859203 C12.4187244,16.8191557 12.4563483,16.7801608 12.4795782,16.744369 C12.4795782,16.6570481 12.5591014,16.510817 12.5689349,16.423496 C12.579196,16.3357574 12.6386246,16.0921781 12.5291733,16.0341034 C12.448795,15.9910697 12.4056131,15.9476181 12.3453294,15.877845 C12.2478493,15.9058378 12.1431011,15.9375909 12.0516066,15.954303 C12.0298019,15.9580632 12.0079971,15.9601522 11.9857648,15.9601522 C11.8784513,15.9601522 11.7856743,15.9125227 11.7232528,15.846092 C11.6728026,15.7921953 11.6394542,15.7266002 11.6232075,15.6559914 C11.5137562,15.6956828 11.225164,15.8001336 11.0203705,15.8615507 C10.9780436,15.9091802 11.0105369,16.0324322 10.9878771,16.0775549 C10.9609418,16.130616 10.9558113,16.3328328 10.9583766,16.4168112 C10.9609418,16.5007897 10.8502079,16.5367208 10.8425121,16.5780833 C10.8343888,16.6198636 10.8356714,16.6992462 10.840802,16.7238966 C10.8451996,16.7443093 10.8175575,16.7770003 10.80957,16.785924 C10.8074535,16.7882383 10.6633712,16.8601005 10.6261748,16.8646963 C10.5894061,16.8692922 10.5342529,16.8609361 10.4979117,16.8534156 C10.4615704,16.8458952 10.5115931,16.6842053 10.5821378,16.6094185 C10.6526826,16.534214 10.6573855,16.5663848 10.6736322,16.4769749 C10.6894513,16.387565 10.7399016,16.3416066 10.7617063,16.2826964 C10.7963374,16.1907797 10.8057433,15.9588988 10.8018955,15.8239484 C10.7381914,15.7884351 10.67577,15.7487438 10.6214719,15.7562643 C10.5252744,15.7700518 10.2251386,16.1807523 10.0973029,16.289799 C10.0857592,16.4715435 10.1216729,16.674178 10.1062813,16.7564853 C10.0836215,16.8734702 9.93440858,17.1437889 9.9044805,17.2678765 C9.87455247,17.3919641 9.95664093,17.6986317 9.91944457,17.8005757 C9.81469631,17.8958348 9.6505194,17.9468068 9.6505194,17.9468068 C9.6505194,17.9468068 9.50857478,17.9104579 9.42605875,17.8736912 C9.3456805,17.8394314 9.40382647,17.7349805 9.50985741,17.5574142 C9.56800337,17.4358334 9.61289552,17.4797027 9.66548341,17.3627178 C9.67275169,17.3409921 9.6877157,17.1508915 9.69498398,17.0560502 C9.70267977,16.9612088 9.80742803,16.7201364 9.76253594,16.6181924 C9.7257671,16.534214 9.65351217,16.5484193 9.55902495,16.6006447 C9.51242265,16.7034243 9.45171139,16.8596827 9.45171139,16.9378119 C9.45171139,17.0435161 9.31062187,17.0844608 9.2990782,17.1362684 C9.28753448,17.1884938 9.28625186,17.2887667 9.29138241,17.3196841 C9.29694048,17.3501837 9.24691784,17.3994845 9.24691784,17.3994845 C9.24691784,17.3994845 9.06264637,17.4842986 9.01561649,17.4888944 C8.96901419,17.4930724 8.87837484,17.2574314 8.97029681,17.1655147 C9.06264637,17.0740158 9.06692176,17.1145427 9.09086425,17.0025714 C9.11480674,16.8910179 9.1806485,16.8350323 9.20972148,16.7614989 C9.23836694,16.6879655 9.41323246,16.4209892 9.39442052,16.3591544 C9.38031156,16.3123604 9.32900629,16.2008069 9.24306991,16.1928687 C9.17338022,16.2329778 9.10369059,16.2826964 9.02288476,16.3115248 C8.85828028,16.3695995 8.00784976,17.1218543 7.93324328,17.1437889 C7.78360292,17.1872404 7.6942462,17.4358334 7.63439003,17.5377774 C7.57453387,17.6401392 7.6493541,17.9468068 7.61942602,18.0491686 C7.58949794,18.1511126 7.41035696,18.4431571 7.45482153,18.9106789 C7.11150371,19.0418692 6.90200713,18.9979998 6.82761448,18.9687536 C6.81265041,18.9253021 6.85754256,18.7498247 6.97682731,18.5893882 C6.99478415,18.5776897 7.02943233,18.5192641 7.06837649,18.444006 L7.08315767,18.4150536 C7.13791632,18.3064299 7.19786755,18.1730473 7.23078846,18.0926201 C7.21582445,17.9906761 7.26071655,17.7717472 7.27568062,17.6986317 C7.28864945,17.6352648 7.2903786,17.5063103 7.29060914,17.4254534 L7.29064463,17.3919641 C7.29064463,17.3355606 7.18461375,17.2361234 7.0948295,17.1070222 C6.8660934,17.0510366 6.74125057,17.1567408 6.74766375,17.309239 C6.75279424,17.4283129 6.71773567,17.5235721 6.62795142,17.5720373 C6.53859469,17.6205025 6.44881044,17.8151987 6.43897692,17.8837185 C6.4291434,17.9518204 6.44881044,18.0784148 6.41888236,18.1172705 C6.37570041,18.1732562 6.25940842,18.2338377 6.22990792,18.2827206 C6.19997984,18.3311858 6.19997984,18.4189245 6.17988528,18.4577802 C6.16021823,18.4966359 6.08026751,18.5455189 6.02041134,18.5551284 C5.9609827,18.5647378 5.71172457,18.5747651 5.66212945,18.5066632 C5.6121068,18.4385612 5.86093741,18.2438649 5.93105461,18.1657357 C6.01057782,17.9514026 6.0405059,17.7763431 6.14012367,17.6886044 C6.23974144,17.6012835 6.28035809,17.440847 6.3141341,17.2912735 C6.33893163,17.1813912 6.29147423,17.0042426 6.30814845,16.8580115 C6.14183382,16.9110725 5.93319234,16.9603733 5.87419127,16.8734702 C5.78483461,16.74228 5.71514492,16.5843503 5.70488382,16.4815707 C5.69932575,16.4218249 5.68521684,16.3520517 5.66426717,16.2923058 C5.62194032,16.2893812 5.57961347,16.2885456 5.53814167,16.289799 C5.45348797,16.313196 5.35771807,16.336593 5.25639016,16.3591544 C5.25724526,16.3645858 5.25810036,16.3700172 5.2589554,16.3762843 C5.27092665,16.493687 5.1905484,16.9006274 5.21491841,17.0042426 C5.23928842,17.1066044 5.31838405,17.2139799 5.35729055,17.3702383 C5.37567497,17.6133998 5.51248903,17.7859525 5.46759694,18.0926201 C5.31881157,18.1444277 5.23672312,18.1761808 5.13881555,18.1803588 C5.00798707,18.1857902 5.02209604,18.1536194 4.97976919,18.1356539 C4.96608775,18.0913667 5.0404804,17.8791226 5.08922043,17.7613022 C5.1345401,17.7333093 5.05629958,17.4007379 5.01824812,17.2478219 C4.94513814,17.1730351 4.85150597,16.9691471 4.82029526,16.901463 C4.78908455,16.8337789 4.70400328,16.6612261 4.67963326,16.5922886 C4.66680698,16.5563575 4.64072676,16.5275291 4.60695081,16.5032965 C4.298264,16.5780833 4.19693607,16.5329605 4.11784042,16.7836425 C4.06311479,16.9578664 4.05798426,16.9783388 3.92843842,17.1533984 C3.87328524,17.228603 3.85703857,17.4354156 3.87499542,17.4976683 C3.89252472,17.5595031 3.91347438,17.5452978 3.91860491,17.6305297 C3.92117017,17.6735635 3.82197996,17.6906934 3.8155668,17.7821923 C3.80958118,17.8732734 3.86772717,17.8540545 3.58212776,17.9898405 C3.47267649,18.0416481 3.3931533,17.9756352 3.3931533,17.9756352 C3.3931533,17.9756352 3.4145305,17.7491858 3.43077717,17.6551801 C3.44702385,17.5615922 3.53894581,17.536524 3.57528705,17.3844436 C3.6116283,17.232781 3.56545354,17.0898923 3.65523779,16.9683115 C3.74502203,16.8467308 3.6971371,16.6641507 3.63728094,16.4886734 C3.54835178,16.3959211 3.56545354,16.4155578 3.50303212,16.3299081 C3.429067,16.3533051 3.35253662,16.370435 3.28669484,16.3829691 C3.26617272,16.3863116 3.24565061,16.3884006 3.22555604,16.3884006 C3.02717561,16.3863116 2.89891241,16.2229505 2.88309327,16.0570826 C2.87411485,15.9517962 2.79373658,15.8394071 2.70822777,15.803476 C2.69668408,15.8047295 2.68471285,15.8051472 2.67359671,15.807654 C2.5239563,15.8369003 2.37474343,15.9973367 2.26999515,16.0412061 C2.16524686,16.0412061 2.10581824,16.0629319 2.10581824,16.0629319 C2.10581824,16.0629319 2.10463456,16.062998 2.10240283,16.0630396 C2.06446254,16.0627829 1.95477495,16.0556334 1.86639358,15.975611 C1.79926917,15.8807696 1.70221668,15.8440029 1.7471088,15.7708873 C1.79200093,15.6981896 1.86853131,15.6948472 1.88135762,15.6104509 C1.94121379,15.2160446 2.03826628,15.259914 2.06092612,15.15797 C2.0908542,15.0556081 2.13531878,14.9753899 2.15028282,14.8659255 C2.15028282,14.7781868 2.01603399,14.7635637 2.01603399,14.6904481 C2.01603399,14.6173325 2.10581824,14.5885041 2.0908542,14.4715192 C2.08999911,14.4673412 2.08957156,14.4619097 2.08914402,14.4568961 C2.0549405,14.3491029 2.02116452,14.3098293 1.98610591,14.2133168 C1.87665464,14.1940978 1.61414261,14.2559327 1.58250435,14.2133168 C1.51794521,14.1259959 1.47348063,13.9747511 1.51794521,13.940909 C1.60772945,13.8728071 1.61243244,13.8535881 1.61243244,13.8535881 C1.59276541,13.5857762 1.64578087,13.3225602 1.79670391,13.2302257 C1.8364655,13.2059931 1.84672656,13.2156026 1.8364655,13.2398351 C1.82663199,13.2644855 1.70221668,13.7123706 2.0083382,13.8510813 C2.25246584,13.8314446 2.40980204,13.7767124 2.56884842,13.7704453 C2.60818247,13.7691919 2.64751652,13.7700275 2.68471285,13.7721165 C2.67231407,13.57366 2.70309724,13.2728416 2.9027603,13.1867741 C2.9209774,13.1748213 2.91305692,13.2000206 2.90310467,13.2263776 L2.89878531,13.2376393 C2.89376491,13.2506159 2.88909748,13.2625963 2.88779626,13.2690814 C2.86128853,13.3944224 2.83520835,13.6120979 3.08403897,13.8189105 C3.32175345,13.8343692 3.62103426,13.8314446 3.76426152,13.7558222 C3.85404576,13.7086104 3.93271386,13.6710081 4.00454126,13.6417619 C3.99941073,13.3292451 4.07166567,13.2093355 4.19009536,13.1061381 C4.22258871,13.0777275 4.27090118,13.0827411 4.26064013,13.0973642 C4.25037907,13.1124052 4.14990623,13.378128 4.46372354,13.4625243 C4.7138368,13.4508258 4.7069961,13.3434504 4.86989038,13.3396901 C5.04105351,13.3359566 5.31805557,13.4673462 5.37505508,13.4953436 C5.38418809,13.499872 5.38550849,13.5005444 5.38550849,13.5005444 C5.4316832,13.5005444 5.45605322,13.4905171 5.4791406,13.473805 C5.55096801,13.3430325 5.66298455,13.2227052 5.78611723,13.1734044 C5.81647283,13.1546033 5.80663931,13.2578007 5.80150882,13.2791086 C5.77842143,13.3747856 5.85794458,13.4395451 5.94131571,13.4641955 C6.08260882,13.44621 6.22926904,13.4259661 6.37734893,13.4060822 L6.45148888,13.3961824 C7.05763314,13.3157773 9.10369059,13.8494101 9.3837319,13.8285199 L9.3989575,13.8294427 C9.45034357,13.8322227 9.61272181,13.8381164 9.58638779,13.7996915 C9.52653162,13.7123706 9.37047804,13.6538782 9.37047804,13.6538782 C9.2678675,13.6615915 9.11011681,13.6596216 8.95217059,13.6494198 L8.9127118,13.6466987 C8.65661631,13.6279075 8.81900081,13.2640499 9.03186318,13.3764568 C9.08530618,13.371861 9.14601744,13.3689363 9.21698975,13.3689363 C9.31532484,13.3689363 9.41066716,13.3735322 9.50387176,13.3806348 C9.52054597,13.0768919 9.63598285,12.9436126 9.656505,12.9862286 C9.67218162,13.0190957 9.6741768,13.0592049 9.67439851,13.0882345 L9.67441395,13.1041761 C9.67441056,13.1113356 9.67446183,13.1171681 9.67488941,13.121179 C9.68301273,13.1988904 9.71550606,13.2937318 9.82581245,13.4140591 C10.0028156,13.4362027 10.1669925,13.4604353 10.3153503,13.4712982 C10.6154863,13.4926061 10.6360084,13.5001266 10.7989026,13.4658667 C10.7937721,13.3559844 10.8006128,13.2448488 10.841657,13.19137 C10.894245,13.1224324 10.9083539,13.2665746 11.0383273,13.3831416 C11.1794168,13.3288272 11.365826,13.2682457 11.6484326,13.2594719 C11.8575016,13.2498624 11.9515613,13.4712982 11.9515613,13.4712982 L11.9515613,13.4784008 C12.579196,13.4859213 13.0101603,13.322978 13.347065,13.4031962 C13.376138,13.4102989 13.4701977,13.4583463 13.5544239,13.495113 C13.4526684,13.4842501 13.3620291,13.4750584 13.3162818,13.473805 C13.0332477,13.4637777 12.8908755,13.5811804 12.788265,13.6196183 C12.6386246,13.6756039 12.5599565,13.7123706 12.4103161,13.7269938 C12.5035207,13.7996915 12.6642772,13.7850684 13.1328655,13.7169665 C13.229918,13.7027612 13.3021729,13.6196183 13.5210754,13.6685013 C13.7404055,13.7169665 14.0931294,13.75624 14.3124595,13.7462127 C14.1132239,13.6003994 14.1230574,13.5515164 13.9935116,13.5419069 C13.9422063,13.5381467 13.8438712,13.5272838 13.7365576,13.5151675 C13.7451085,13.4997088 13.7489564,13.4775652 13.7519492,13.4491546 C13.6873901,13.4153125 13.642498,13.3960936 13.642498,13.3960936 C13.642498,13.3960936 13.558148,13.3590902 13.4645652,13.3197061 L13.4376409,13.3084187 C13.3700266,13.2801876 13.3013515,13.2524242 13.258991,13.2377461 C13.1813917,13.2107706 12.9326047,13.2100278 12.686109,13.2171613 L12.6413554,13.218541 C12.5594952,13.2212147 12.4790577,13.2246398 12.4064682,13.2281366 L11.8121819,12.1013212 L12.0114175,12.1013212 L12.0114175,11.9258439 L13.6832078,12.0994224 L13.6680651,11.8740363 L12.1904729,11.6922918 Z M16.3685186,15.9622413 L16.0538463,16.8446418 C16.0837744,16.8730524 16.1154126,16.8985384 16.1483335,16.9202642 C16.2334147,16.9185929 16.2757416,16.8772304 16.2975463,16.8137243 L16.3685186,15.9622413 Z M16.4531724,16.0641853 L16.4796801,16.8024436 C16.5365435,16.748547 16.5887038,16.6816985 16.6353061,16.6048227 L16.4531724,16.0641853 Z M16.265053,15.8962283 L15.8263928,16.5275291 C15.8499078,16.5759943 15.8759879,16.621117 15.9033508,16.6633152 C15.9512357,16.6399182 15.9982655,16.61485 16.056839,16.5229332 L16.3155032,15.9154473 L16.265053,15.8962283 Z M18.3070033,15.6426218 L17.9867728,16.5250223 C18.0457738,16.5684738 18.110333,16.5985556 18.17874,16.6152677 C18.1984071,16.5981379 18.2137987,16.5730696 18.2253423,16.5429878 L18.3070033,15.6426218 Z M18.4096138,15.6154645 L18.4433898,16.4757215 C18.5049561,16.4101264 18.5609644,16.3307438 18.6109871,16.2400804 L18.4096138,15.6154645 Z M18.2420166,15.4855277 L17.6917674,16.0996986 C17.7272535,16.1945399 17.7704355,16.2789361 17.8208857,16.3507983 C17.8589371,16.3161206 17.8974161,16.2726691 17.9405981,16.2108342 L18.2954596,15.5214588 L18.2420166,15.4855277 Z M16.1654352,15.8686534 L15.7126661,16.211252 C15.7233547,16.2526145 15.7348984,16.2931414 15.7477247,16.3328328 C15.7678193,16.3248945 15.7862037,16.3169562 15.8050156,16.3044222 L16.1654352,15.8686534 Z M16.1231084,15.7838392 L15.6566578,15.7838392 C15.6579405,15.8431673 15.6617884,15.901242 15.6682015,15.9580632 C15.7404565,15.9751932 15.8033055,15.9718507 16.0226355,15.8431673 C16.0243457,15.8469275 16.0247732,15.8506878 16.0256283,15.854448 L16.1226809,15.7976268 L16.1231084,15.7838392 Z M18.1351306,15.4140834 L17.5989904,15.70571 C17.6071137,15.7746476 17.6186574,15.8402427 17.6331939,15.9029132 C17.6944396,15.8875589 17.7503944,15.8383626 17.8071909,15.7868748 L17.8356877,15.7610861 C17.845229,15.7525236 17.854822,15.7440435 17.8644952,15.7357919 L18.1423988,15.419097 L18.1351306,15.4140834 Z M16.4677089,15.4612952 L16.3847653,15.4612952 L16.3847653,15.4625486 C16.3236265,15.4704868 16.275314,15.5494516 16.275314,15.646382 C16.275314,15.748326 16.328757,15.831051 16.3945988,15.831051 C16.396309,15.831051 16.3980192,15.8306332 16.3993018,15.8302154 L16.3997293,15.8360646 L16.4621508,15.8360646 C16.4249545,15.7967912 16.4001569,15.729107 16.4001569,15.6509778 C16.4001569,15.5695062 16.4275197,15.4993152 16.4677089,15.4612952 Z M15.8015953,15.2833109 L15.7036877,15.2991875 C15.682738,15.3923576 15.6686291,15.4909592 15.6613608,15.5929032 C15.6942817,15.6020949 15.7310505,15.6112865 15.7708121,15.6200604 L16.1008761,15.6539024 L15.8015953,15.2833109 Z M17.5887293,15.293756 L17.5857365,15.3334474 C17.5827437,15.4002958 17.5835988,15.4646376 17.5857365,15.5281436 C17.6349041,15.5331573 17.6819339,15.5252191 17.7469206,15.4938838 L18.0282446,15.312975 L17.5887293,15.293756 Z M18.3471924,15.0522657 L18.3471924,15.053937 C18.2749375,15.0597862 18.2142262,15.1466892 18.2090957,15.2574072 C18.2039651,15.3735565 18.2625387,15.4704868 18.3394966,15.4742471 C18.3416343,15.4742471 18.3433445,15.4734114 18.3450547,15.4734114 L18.3450547,15.4796785 L18.4177372,15.4830209 C18.3762654,15.4366447 18.3510403,15.3576799 18.3548882,15.2691056 C18.3591636,15.1763533 18.3946498,15.0978063 18.4438173,15.0564438 L18.3471924,15.0522657 Z M17.8901478,14.9473971 L17.6242154,15.0067252 C17.6212227,15.0213483 17.6190849,15.0359714 17.6165196,15.0510123 C17.6695351,15.0773339 17.7221231,15.1036556 17.7768487,15.1232923 L18.0205488,15.1679972 L17.8901478,14.9473971 Z M15.3184705,13.9994015 C15.2291138,13.8535881 15.0593788,13.8047052 14.9499276,13.8924438 C15.0593788,13.9216901 15.1589966,14.0286477 15.2188528,14.1063592 C15.2787089,14.1844884 15.2885425,14.174461 15.3287316,14.3887941 L15.3284742,14.3912897 C15.3270813,14.4058531 15.3214633,14.4804184 15.3483986,14.5153885 C15.4279218,14.3399112 15.4082548,14.1452149 15.3184705,13.9994015 Z M15.668116,10.3682733 C15.6856453,9.40523671 14.768991,8.77769626 13.8339522,9.20218434 C12.9249935,9.61539176 13.118671,11.1662775 13.8600323,11.740757 C13.8262564,11.6417377 13.876279,11.5485675 13.876279,11.5485675 C13.5902521,11.1265862 13.2110205,9.93083323 13.8993664,9.47626329 C14.5877123,9.02169336 15.3483131,9.51762581 15.3705454,10.4317794 C15.3876472,11.1353601 15.1371064,11.5502387 14.7364976,11.9646996 C14.7055553,11.9965625 14.6280084,12.0714382 14.507685,12.184995 L14.7454266,12.2097246 C14.8111173,12.140991 14.8984728,12.0545218 14.9532624,12.0198496 L14.9632926,12.0133486 C15.2424079,11.8278563 15.6533301,11.1761804 15.668116,10.3682733 Z" id="Path-9" fill="#BF2033" fill-rule="nonzero"></path>
    </g>
</svg>