<svg xmlns="http://www.w3.org/2000/svg" width="20" height="20">
 <path fill="#693f23" stroke="#fff" stroke-width="2" d="M0 0H20V20H0z"/>
 <path fill="#fff" d="M 2.4719 11.0695 C 5.0605 9.6535 6.6974 7.5109 8.5512 5.633 C 9.0595 5.1288 9.6495 4.7437 10.4772 4.5016 C 10.2877 4.274 9.8693 4.1849 9.517 4.1537 C 11.0663 3.4388 16.5033 3.6019 16.4574 7.5447 C 13.2919 5.514 11.6074 6.2649 9.3647 7.4488 C 7.0707 8.6611 4.7767 9.8733 2.4828 11.0856 Z M 0.7263 12.197 C 3.3619 11.8235 5.8193 10.6256 8.4114 8.6386 C 9.5056 7.83 14.3133 4.7581 17.2009 9.3353 C 14.2519 7.5842 11.3642 8.3523 9.736 9.32 C 7.5242 11.0556 5.4814 11.8849 3.6381 12.53 C 3.3123 12.5909 3.2719 12.3542 3.6379 12.0665 C 2.2686 12.4923 1.4523 12.3658 0.7398 12.2221 Z M 14.3551 10.3693 C 13.0881 9.0847 12.017 9.601 11.6972 10.2098 C 11.1386 10.9205 11.6588 13.2026 13.8772 13.6135 C 15.5565 14.0335 17.3126 14.2193 19.217 14.1263 C 18.393 14.6274 16.4458 15.1353 15.4298 15.1474 C 15.2935 15.1777 15.286 15.2523 15.4542 15.2858 C 15.913 15.3449 15.7165 15.7681 15.3988 15.7456 C 12.0886 15.7549 10.591 14.009 10.4642 12.6433 C 10.1807 10.4463 10.9074 9.7453 11.4137 9.343 C 12.224 8.683 13.6414 8.7786 14.3523 10.3467 Z"/>
</svg>
