<svg width="26" height="20" xmlns="http://www.w3.org/2000/svg" xml:space="preserve" style="fill-rule:evenodd;clip-rule:evenodd;stroke-linejoin:round;stroke-miterlimit:2">
 <path d="M11.516,2.006C11.516,1.451 11.175,1 10.756,1L1.962,1C1.543,1 1.202,1.451 1.202,2.006L1.202,10.493C1.202,11.048 1.543,11.499 1.962,11.499L10.756,11.499C11.175,11.499 11.516,11.048 11.516,10.493L11.516,2.006Z" style="fill:#006747" transform="matrix(2.521 0 0 1.90494 -3.031 -1.905)"/>
 <path d="M16,248C16,188.005 23.671,136 45.333,136L338.667,136C360.347,136 368,187.527 368,248C368,308.473 360.869,360 338.667,360L45.333,360C23.743,360 16,307.995 16,248Z" style="fill:#fff;fill-rule:nonzero" transform="matrix(.06818 0 0 .0625 -.09 -3.5)"/>
 <path d="M11.235,3.167C11.235,2.733 11.096,2.381 10.926,2.381L3.309,2.381C3.138,2.381 3,2.733 3,3.167L3,4.214C3,4.648 3.138,5 3.309,5L10.926,5C11.096,5 11.235,4.648 11.235,4.214L11.235,3.167Z" style="fill:#fff" transform="matrix(2.91445 0 0 1.14559 -7.743 -1.728)"/>
</svg>
