<svg width="20" height="20" viewBox="0 0 450 450" xmlns="http://www.w3.org/2000/svg">
 <path style="color:#000;fill:#fff;stroke-width:.999999;-inkscape-stroke:none;paint-order:stroke fill markers" d="m 118.74024,0 -10.23925,5.0976562 -3.33986,5.0976568 -5.18555,7.954101 -1.58202,2.241211 -0.1758,0.219726 c -5.64432,8.259455 -11.25384,17.497895 -15.77636,26.499024 -4.52248,9.001129 -8.96484,15.572227 -8.96484,29.179687 0,5.014776 1.34838,9.916135 2.72462,13.974611 -1.88687,1.63323 -3.0746,3.215824 -4.61426,4.833983 -2.93827,3.088098 -5.67436,6.383514 -8.30567,9.755854 -2.63131,3.37236 -5.09989,6.73613 -7.20702,9.8877 -2.10548,3.14907 -3.57376,4.84221 -5.71291,10.2832 1.13916,-2.90128 -0.98721,1.80177 -3.03221,5.7129 -2.04937,3.91943 -4.66601,8.98138 -7.11916,14.458 -2.45313,5.47662 -4.80075,11.234 -6.32812,17.97363 -1.52735,6.73963 -4.62182,16.68128 5.09766,28.6963 2.29469,2.83687 5.22968,5.42919 8.4375,7.64648 -0.23924,1.3548 -0.45409,2.67105 -0.61523,4.26269 -0.36516,3.60663 -1.44813,7.94667 1.05468,14.58985 -0.7596,3.51706 -1.17479,7.32075 -0.65918,10.41504 0.98829,5.92999 4.74448,11.05578 8.17385,14.67772 -0.14331,0.77022 -0.29991,1.40362 -0.48342,2.28517 -1.12848,5.42133 -2.94979,9.8174 -0.83495,20.03906 2.4566,11.87275 10.7964,17.95662 16.43553,20.91798 5.63915,2.96134 8.56494,4.30663 16.34767,4.30663 3.69218,0 5.53313,-0.22628 6.63574,-0.43947 h 0.0439 c 0.43299,-0.0847 0.54592,-0.0974 0.79101,-0.17577 -0.0125,0.12663 0.0115,0.2673 0,0.39551 -0.19086,-0.0177 -0.55217,-0.16477 -0.79101,-0.21974 0.28082,0.1119 0.56502,0.26728 0.79101,0.35159 -0.16677,1.90913 -0.28402,3.87832 -0.17577,6.15233 0.53516,11.23686 1.52888,17.74683 5.27344,28.95995 l 0.43945,1.27443 -24.38964,30.3662 c -1.23557,0.7583 -2.65019,0.43546 -3.82325,1.45021 l -0.17579,0.13183 -0.13183,0.13183 c -3.14412,2.92311 -8.06701,7.85032 -10.32714,16.08399 -0.0366,0.13338 -0.45461,1.34478 -0.92286,3.07618 -0.4115,-7.4e-4 -0.84834,-0.0953 -2.28516,-0.30762 -0.7221,-0.10674 -1.70235,-0.32564 -3.60351,-0.21974 -1.79404,0.0999 -5.00425,0.85784 -7.64649,3.20801 -1.8896,1.61374 -2.97363,3.1574 -3.51563,4.65822 -2.03551,1.4022 -3.30525,3.16699 -4.13084,4.79002 -0.21999,0.49298 -1.33166,3.32035 -1.31837,6.81154 h -0.48339 v 3.29589 c -0.93876,2.30974 -1.27867,4.97086 0,8.17382 V 450 H 410.80078 C 432.13405,450 450,432.13381 450,410.80077 V 39.199219 C 450,17.866105 432.13376,0 410.80078,0 Z"/>
 <path style="fill:#006747;stroke:none;stroke-width:22.5;stroke-miterlimit:4;stroke-dasharray:none;stroke-opacity:1;paint-order:stroke fill markers" d="m 124.01368,22.5 -5.44923,8.393555 -1.75781,2.416993 c -10.2247,14.962003 -20.830078,34.513546 -20.830078,42.978514 0,8.464494 2.02419,8.405429 3.515625,11.601563 1.234373,2.645208 1.055023,5.13292 0.878923,7.954101 -0.17913,2.865008 -1.520938,7.682414 -6.987312,10.151364 -5.466578,2.4681 -20.165085,22.31011 -22.104496,27.2461 -1.940377,4.93696 -21.173512,36.60568 -14.809567,44.47265 6.24861,7.72505 10.098247,4.78965 12.919905,4.96582 2.821477,0.17618 4.790047,1.84571 4.790047,1.84571 0,0 0.878896,0.73771 0.878918,3.73535 0,2.99765 -3.452265,6.76976 -4.482428,10.54687 -1.05804,3.87977 -2.473087,10.77466 -0.659182,13.79883 1.617323,2.69672 1.450192,2.40812 1.450192,5.22949 0,2.82137 -2.682764,3.01891 -1.977547,7.25098 0.705308,4.23211 5.13387,3.89893 7.602547,7.77831 2.468656,3.87941 4.708148,4.55909 2.768558,8.08594 -1.673887,3.04326 -4.705493,15.14502 -3.647475,20.2588 1.058153,5.11386 8.2539,7.29492 10.722667,7.29492 2.468948,0 9.834706,-2.06999 12.480458,-0.13185 2.645285,1.93973 4.996415,1.76243 8.657235,4.21875 4.23155,2.84002 14.47882,1.15178 16.39161,2.417 0.22027,0.14625 0.34747,0.29052 0.52733,0.43947 l -5.71288,8.7451 c -1.20083,3.04537 -2.78958,7.6873 -2.59277,11.82129 0.0839,1.76265 0.96674,5.08077 1.53808,8.48145 l 5.88868,-7.29493 C 124.50782,282.13238 136.79775,270.13324 151.875,270 167.40801,270 180,282.59199 180,298.125 c -0.43938,12.21318 -8.71556,22.74487 -20.47851,26.05957 -0.0423,0.0743 -0.0862,0.14773 -0.13185,0.21973 l -46.36228,57.74414 c -0.0434,0.0292 -0.0875,0.0587 -0.13185,0.0879 v 0.0439 c -0.82141,5.75016 -3.17329,9.5782 -5.58106,13.35937 -2.40773,3.78119 -5.0733,7.15205 -7.426757,9.79981 -6.303803,7.09186 -13.756816,11.51383 -21.40137,14.0625 -5.69133,1.89722 -11.127826,2.91665 -16.435553,2.85644 -0.65511,-0.007 -1.750882,-0.58847 -2.460915,-0.61522 V 427.5 H 410.80078 c 9.2585,0 16.69922,-7.44091 16.69922,-16.69923 V 39.199219 C 427.5,29.940705 420.05919,22.5 410.80078,22.5 Z M 132.7588,45 H 360 V 67.5 H 121.5088 c 2.97069,-8.184348 6.48022,-15.895519 11.25,-22.5 z m 48.07615,49.042969 c 7.80521,-0.01312 14.96559,1.327862 21.48928,3.999024 6.5236,2.671447 12.48264,6.747287 17.84178,12.260747 l -14.0625,12.65625 c -3.33284,-3.47394 -7.12168,-6.08517 -11.38183,-7.82227 -4.26006,-1.7369 -8.89625,-2.63664 -13.88673,-2.63672 -5.40857,0.0298 -9.60761,0.99568 -12.56834,2.90039 -2.96075,1.9049 -4.44294,4.57355 -4.48243,7.99805 -0.12179,2.84903 1.00308,5.15144 3.42774,6.85547 2.42426,1.70421 6.88397,3.27448 13.31543,4.70215 6.99996,1.42452 12.87613,2.86693 17.66601,4.35058 4.78969,1.48375 8.61867,2.9791 11.51366,4.48242 4.7144,2.51992 8.44141,6.06651 11.16212,10.67871 2.7206,4.61181 4.119,9.85247 4.1748,15.68848 0.0266,10.71241 -4.93209,18.96882 -14.85351,24.78516 -3.75372,2.29944 -7.92211,4.05949 -12.52442,5.27343 -4.60325,1.21393 -9.3883,1.8352 -14.32616,1.84571 -9.02688,0.01 -17.08168,-1.68835 -24.21386,-5.05371 -7.13115,-3.36545 -13.64281,-8.47786 -19.51173,-15.33692 l 15.16113,-11.82129 c 3.89213,4.5599 8.11309,7.91196 12.65625,10.06348 4.54335,2.15141 9.73491,3.22781 15.6006,3.20801 6.83356,-0.0789 12.3596,-1.38456 16.56737,-3.91113 4.20739,-2.52686 6.38213,-5.8171 6.5039,-9.84375 0,-2.05931 -0.56464,-3.9119 -1.66991,-5.53712 -1.10558,-1.62501 -2.75528,-2.97488 -4.96584,-4.08691 -1.88844,-0.72376 -3.89092,-1.47347 -5.97656,-2.19727 -2.08581,-0.72356 -4.27383,-1.36771 -6.63572,-1.93359 l -4.92188,-1.40625 -4.87793,-1.09863 -5.05372,-1.58203 c -5.35876,-1.21708 -9.66852,-2.60227 -12.87596,-4.17481 -3.20765,-1.57244 -5.87611,-3.62785 -7.99806,-6.10839 -2.21074,-2.47057 -3.86046,-5.21865 -4.96582,-8.26173 -1.10535,-3.04326 -1.62598,-6.24086 -1.62598,-9.58007 0.17113,-8.89088 3.49724,-15.94544 10.06348,-21.22559 6.56548,-5.279968 15.32615,-8.001386 26.23534,-8.129881 z M 218.8037,204.12598 h 79.45314 v 18.63281 h -30.49805 v 87.14356 H 249.30176 V 222.75879 H 218.8037 Z M 151.875,281.25 A 16.875,16.875 0 0 0 135,298.125 16.875,16.875 0 0 0 151.875,315 16.875,16.875 0 0 0 168.75,298.125 16.875,16.875 0 0 0 151.875,281.25 Z m 141.94336,15.20507 h 77.21191 v 18.98438 h -57.91992 v 19.55567 h 31.55274 v 19.42382 h -31.55274 v 28.91601 h 59.85352 v 18.94044 h -79.14551 z m -166.81641,14.72169 -33.793945,42.09961 c 0.0279,0.004 0.05998,-0.005 0.08788,0 v -0.0439 c 0.105975,0.0145 0.202275,0.0721 0.30762,0.0879 0.171675,0.0337 0.312278,0.006 0.483413,0.0439 v 0.0879 c 7.830892,1.4157 13.904682,7.15363 16.479472,12.70021 0.16206,0.34918 0.16224,0.66423 0.30761,1.01073 l 33.70606,-41.96777 a 28.125,28.125 0 0 1 -17.57812,-14.01855 z m -35.244138,53.17382 c -3.898034,-0.83052 -9.138284,0.0949 -12.788077,3.25197 -2.265322,2.10606 -5.810603,6.08753 -7.119157,10.85447 -0.236385,0.86116 -0.585923,1.77676 -0.922838,3.03224 -0.336645,1.25426 -0.927405,2.31891 -1.274422,3.03223 -0.826336,1.6987 -2.384393,3.05878 -3.339833,3.60351 -1.368427,0.78016 -3.914168,1.66993 -6.196298,1.66993 -3.209355,0 -5.326245,-1.04326 -6.152332,-0.21974 -0.52236,0.40565 -0.715657,1.7156 -0.04397,2.46094 1.222493,1.35659 4.07124,1.82846 7.33887,1.88964 2.940975,0.0552 4.467443,0.0959 5.44923,0.52735 1.980202,0.87017 0.0169,2.98281 -1.84572,3.95508 -0.792293,0.41362 -1.94994,0.69842 -3.383775,1.01074 -3.095078,0.67404 -8.56251,-0.55485 -10.063485,-3.47168 -0.33417,-0.64951 -1.881833,-1.86991 -2.68065,0 0,0 -0.495203,0.83176 -0.04397,1.97755 0.652365,1.65638 2.19006,2.73449 2.680673,3.12012 1.798425,1.41363 4.232654,1.84088 5.844734,2.06543 1.841018,0.25643 2.918025,0.18061 5.31738,0.61522 0.728956,0.13205 2.157233,0.59454 0.922838,1.58204 -1.32345,0.83907 -2.181285,1.25269 -5.229473,1.36231 -1.479104,0.0531 -3.04227,-0.22503 -5.097667,-1.23048 -2.089148,-1.022 -2.42928,-1.91991 -3.73536,-2.15332 -1.236308,-0.22093 -2.032673,1.41057 -1.538077,2.19726 1.383839,1.55059 3.323002,2.84985 4.262692,3.3838 2.945723,1.67382 7.314458,2.21001 10.063485,2.2412 3.218085,0.0365 8.300407,-0.80386 12.744135,-2.28515 4.443547,-1.48146 12.617438,-6.41076 16.56738,-10.85449 3.949672,-4.44355 9.542545,-12.08619 10.283225,-17.27051 0.79096,-5.5606 -1.21917,-15.14124 -10.019548,-16.34766 z"/>
</svg>
