<svg width="20" height="27.107" xmlns="http://www.w3.org/2000/svg">
 <path d="M1.5625.87891v.80273h-.58789v6.4473h18.119v-6.4473h-.79688v-.58984h-2.5645v.58984h-3.9473v-.62891h-3.8496v.62891h-3.8203v-.80273h-2.5527zM.97461 9.1035v3.7402h-.11328v4.9473h.62695v1.5215h.41406v.8457h.52734v.93164h.55469v.9375h.73242v.68555h.60352v.59961h.70117v.80859h.95703v.66992h1.0566v.64648h1.1445v.68945h3.7656v-.68945h1.1309v-.64648h1.0586v-.66992h.86914v-.80859h.64062v-.59961h.70117v-.68555h.61914v-.9375h.52734v-.93164h.41406v-.8457h.62891v-1.5215h.59375v-4.9473h-.10547v-3.7402h-18.049z" fill="#fff"/>
 <path d="m9.9991 0c-1.1919 0.66288-2.5637 1.0411-4.0243 1.0411-1.3973 0-2.7142-0.34562-3.8694-0.95595l-2.1055 2.1055v6.6632c0.37584 0.73312 0.58854 1.564 0.58854 2.4445 0 0.88048-0.2127 1.7114-0.58854 2.4445l8.6e-4 2e-3h-8.6e-4c0 6.3791 4.1861 11.531 9.9613 13.356l0.0387 6e-3 0.0387-6e-3c5.7748-1.8254 9.9613-6.9768 9.9613-13.356-0.37639-0.73354-0.58854-1.5651-0.58854-2.4462 0-0.88115 0.21216-1.7127 0.58854-2.4462v-6.6615l-2.1064-2.1064c-1.1552 0.61045-2.4719 0.95681-3.8694 0.95681-1.461 0-2.833-0.37791-4.0251-1.0411zm-3e-3 1.0971c1.218 0.58875 2.5842 0.91981 4.0277 0.91981 1.303 0 2.5432-0.26919 3.668-0.75461l1.332 1.332v5.5343h-18.049v-5.5343l1.3397-1.3397c1.1246 0.48512 2.3646 0.7546 3.6672 0.7546 1.438 0 2.7994-0.32759 4.0139-0.91206zm-8.8229 8.0072h17.653c-0.25227 0.68382-0.39063 1.4228-0.39063 2.1941 0 0.95369 0.21143 1.8577 0.58853 2.6691 1.1e-4 2.4e-4 -1.1e-4 6.2e-4 0 8.6e-4 -3.6e-4 5.8318-3.7564 10.316-8.9812 12.104-0.0211 0.01-0.017 5e-3 -0.0569 0.018-0.0733-0.0328-0.0783-0.0306-0.13415-0.055-5.1703-1.812-8.8763-6.2746-8.8763-12.068 0.37705-0.81137 0.58767-1.7155 0.58767-2.6691 0-0.77126-0.13761-1.5103-0.38977-2.1941z"/>
 <path d="M276.31 505.24v-104.66l-21.091 66.173-21.618-66.173v104.66h-22.409v-176.64h22.409l21.618 62.482 21.091-62.482h22.146v176.64h-22.146M336.83 505.24v-176.64h65.119v22.937h-42.71v45.346h28.473v23.464h-28.473v61.955h45.082v22.937h-67.492M480.34 505.24l-17.4-53.255-17.137 53.255h-24.255l29.791-90.428-28.473-86.21h24.782l15.291 49.037 16.346-49.037h23.991l-28.473 86.21 29.791 90.428h-24.255M532.5 505.24v-176.64h22.409v176.64h-22.409M664.43 463.58c-.00009 3.5152-.088 6.4152-.26364 8.7001-.00009 2.2849-.088 4.3061-.26364 6.0637-.17585 1.5819-.43949 3.0758-.79092 4.4819-.3516 1.4061-.791 2.9-1.3182 4.4819-1.4062 6.5031-4.9213 11.688-10.546 15.555-5.6244 3.691-12.391 5.5364-20.3 5.5364-8.9638 0-16.346-1.8455-22.146-5.5364-5.6243-3.8667-9.8426-9.9304-12.655-18.191-2.4606-7.3819-4.3061-16.873-5.5364-28.473-1.2303-11.776-1.8455-24.782-1.8455-39.019-.00002-4.0424.0879-8.4363.26364-13.182.17574-4.7454.43938-9.4909.79091-14.236.52727-4.9211 1.0545-9.5788 1.5818-13.973.52726-4.3938 1.1424-8.3484 1.8455-11.864 2.2848-13.533 6.2394-23.2 11.864-29 5.8-5.7999 13.973-8.6999 24.518-8.7001 10.018.00018 18.103 2.9881 24.255 8.9637 6.1515 5.8002 9.6667 14.149 10.546 25.046h-22.937c-.35158-3.6908-1.5819-6.4151-3.6909-8.1728-1.9334-1.9332-4.394-2.8999-7.3819-2.9-4.0425.00016-7.2062 1.4062-9.491 4.2182-2.2849 2.8123-4.1304 7.1184-5.5364 12.918-.87884 3.5153-1.5819 7.1184-2.1091 10.809-.35156 3.5153-.70308 7.2941-1.0546 11.336-.1758 3.8668-.35155 8.1729-.52728 12.918-.00003 4.7456-.00003 10.018 0 15.818-.00003 6.1517-.00003 11.6 0 16.346.17573 4.5698.35148 8.788.52728 12.655.35148 3.691.703 7.2941 1.0546 10.809.52724 3.3395 1.2303 6.8546 2.1091 10.546 1.406 5.8001 3.1636 10.282 5.2728 13.446 2.2848 2.9879 5.2727 4.4819 8.9637 4.4819 4.0424.00002 7.0303-1.6697 8.9637-5.0091 1.9333-3.3394 2.9-8.9637 2.9-16.873h22.937M774.51 416.65c-.0001 4.7456-.0001 10.37 0 16.873-.0001 6.3274-.35162 12.918-1.0546 19.773-.52737 6.8546-1.5819 13.621-3.1637 20.3-1.4062 6.5031-3.691 12.391-6.8546 17.664-2.988 5.097-6.9426 9.2274-11.864 12.391-4.7456 3.1637-10.721 4.7455-17.927 4.7455-7.3819 0-13.534-1.5818-18.455-4.7455-4.7455-3.1637-8.7001-7.294-11.864-12.391-2.9879-5.2728-5.2728-11.161-6.8546-17.664-1.4061-6.6788-2.3728-13.446-2.9-20.3-.52729-6.8546-.79093-13.446-.79092-19.773-.00001-6.3273-.00001-11.952 0-16.873-.00001-5.0969-.00001-10.809 0-17.137-.00001-6.503.26363-13.094.79092-19.773.70302-6.6787 1.8454-13.182 3.4273-19.509 1.5818-6.5029 3.8667-12.215 6.8546-17.137 2.9879-5.0968 6.8546-9.1393 11.6-12.127 4.9212-3.1635 10.985-4.7453 18.191-4.7455 7.2061.00018 13.182 1.582 17.927 4.7455 4.9212 2.9881 8.8758 7.0305 11.864 12.127 3.1636 5.0972 5.4484 10.897 6.8546 17.4 1.5817 6.3275 2.6363 12.831 3.1637 19.509.70294 6.679 1.0545 13.27 1.0546 19.773-.0001 6.3274-.0001 11.952 0 16.873m-23.464 0c-.00007-2.4605-.0879-5.8-.26364-10.018-.00007-4.2181-.17583-8.7879-.52727-13.709-.35159-5.0969-.87887-10.194-1.5818-15.291-.7031-5.2726-1.7577-10.018-3.1637-14.236-1.2304-4.2181-2.8122-7.6454-4.7455-10.282-1.9334-2.6362-4.3062-3.9544-7.1182-3.9546-3.3395.00016-6.1516 1.4062-8.4364 4.2182-2.1092 2.6365-3.8668 6.1517-5.2728 10.546-1.2304 4.2184-2.197 8.9639-2.9 14.236-.52731 5.2729-.96671 10.458-1.3182 15.555-.1758 4.9214-.26368 9.4911-.26364 13.709.17572 4.0426.2636 7.1184.26364 9.2274-.00004 1.9334-.0879 5.0092-.26364 9.2274-.00004 4.0425.0878 8.6123.26364 13.709.35148 5.0971.79088 10.37 1.3182 15.818.703 5.4486 1.6697 10.37 2.9 14.764 1.406 4.394 3.1636 8.085 5.2728 11.073 2.2848 2.8122 5.097 4.2182 8.4364 4.2182 3.3394.00002 6.0636-1.406 8.1728-4.2182 2.109-2.9879 3.7788-6.6788 5.0091-11.073 1.406-4.394 2.3727-9.3152 2.9-14.764.5272-5.4485.87872-10.721 1.0546-15.818.35145-5.097.43933-9.6667.26364-13.709-.00007-4.2181-.00007-7.2939 0-9.2274" transform="translate(-3.493 -6.358) scale(.02753)"/>
</svg>
