<svg width="28" height="27.821" viewBox="0 0 26.25 26.082" xmlns="http://www.w3.org/2000/svg">
 <path d="m13.896 24.802c6.122 0 11.084-4.9226 11.084-10.995 0-6.0706-4.9618-10.995-11.084-10.995-6.1211 0-11.083 4.924-11.083 10.995 0 6.072 4.9623 10.995 11.083 10.995z" fill="none" stroke="#fff" stroke-width="5.625" transform="scale(.94451)"/>
 <path d="m13.896 24.802c6.122 0 11.084-4.9226 11.084-10.995 0-6.0706-4.9618-10.995-11.084-10.995-6.1211 0-11.083 4.924-11.083 10.995 0 6.072 4.9623 10.995 11.083 10.995z" fill="#fff" stroke="#003f87" stroke-width="2.329" transform="scale(.94451)"/>
 <path d="m9.7375 4.7706c-0.0024 1.188e-4 -0.0048 5.939e-4 -0.0059 0.00238-0.0024 0.00238 0.0024 0.00595 0 0.00831l0.0083-0.00831-0.0024-0.00238zm-0.0059 0.010687c-0.0024 0.00238-0.0083-0.00238-0.01069 0-0.0095 0.0095-5.11e-4 0.00831 0.0048 0.00831zm-0.02945 0.016866c-0.0012-8.553e-4 -0.0012 7.601e-4 -0.0059 0.010687-0.01318 0.026368 0.01948-0.010687-0.01069 0.018884-0.0011 0.00238 0.0024 0.00595 0 0.00831-0.01853 0.018529 0.0012-0.0291-0.01686 0.00831-0.0024 0.00595 0.0048 0.014847 0 0.018884-0.0024 0.00238-0.0083-0.00238-0.01069 0-0.0048 0.00476 0.0024 0.011876 0 0.016865-0.0024 0.00356-0.0059 0.00712-0.0083 0.010687-0.0011 0.00238 0.0024 0.00595 0 0.00831-0.0024 0.00238-0.0059-0.00238-0.0083 0s0.0024 0.00831 0 0.010687c-0.0024 0.00238-0.0083-0.00238-0.01069 0-0.0024 0.00238 0.0024 0.021616 0 0.02518-0.0024 0.00356-0.0059 0.00595-0.0083 0.010687-0.0024 0.00356 0.0024 0.023398 0 0.025299-0.0024 0.00238-0.0083-0.00238-0.01069 0-0.0048 0.00476 0.0024 0.013303 0 0.018884-0.02162 0.064849 0.0036-0.013658-0.01686 0.027317-0.0024 0.00595 0.0048 0.012594 0 0.016865-0.01199 0.011876-0.0083-0.013658-0.0083 0.010687v0.00831c0 0.00356 0.0011 0.00476 0 0.00831-0.0024 0.00356-0.0083 0.00595-0.01069 0.010687-0.0024 0.00595 0.0048 0.012712 0 0.016865-0.01853 0.018529 0.0024-0.027079-0.01687 0.010687-0.0012 0.00238 0.0024 0.00595 0 0.00831-0.0024 0.00238-0.0083-0.00238-0.01069 0-0.0048 0.00476 0.0048 0.022803 0 0.027317-0.0024 0.00238-0.0059-0.00238-0.0083 0s0 0.00476 0 0.00831v0.48372c0 0.00357 0.0024 0.00831 0 0.010687-0.0024 0.00238-0.0083-0.00238-0.01069 0-0.0024 0.00238 0.0011 0.03088 0 0.035751-0.0024 0.00712-0.0059 0.010687-0.0083 0.016866-0.0024 0.00831 0.0024 0.01924 0 0.027317-0.0011 0.00357-0.0071 0.00357-0.0083 0.00831-0.0036 0.0095 0.0012 0.018409 0 0.027317-0.0024 0.015084-0.0083 0.0291-0.01069 0.044183-0.0024 0.011876 0 0.024348 0 0.035751v0.12613c0 0.00476 0.0011 0.024704 0 0.027317-0.0024 0.00357-0.0059 0.00357-0.0083 0.00831-0.0011 0.00238 9.49e-4 0.00712 0 0.010687-0.0024 0.00712-0.0059 0.010687-0.0083 0.016865-0.0024 0.00831 0.0036 0.048815 0 0.054635-0.0024 0.00357-0.0083 0.00476-0.01069 0.00831-0.0024 0.00595 0.0024 0.049289 0 0.054635-0.0024 0.00357-0.0059 0.00476-0.0083 0.00831-0.0012 0.00238 0.0024 0.00595 0 0.00831-0.0024 0.00238-0.0059-0.00238-0.0083 0s0.0012 0.042876 0 0.046202c-0.0011 0.00238-0.0083-0.00238-0.01069 0-0.0024 0.00238 0.0024 0.033612 0 0.035751-0.0024 0.00238-0.0059-0.00238-0.0083 0s0 0.00476 0 0.00831v0.044183c0 0.00357 0.0024 0.00831 0 0.010687-0.0024 0.00238-0.0083-0.00238-0.01069 0-0.0048 0.00476 0.0024 0.011876 0 0.016865-0.0024 0.00357-0.0059 0.00595-0.0083 0.010687-0.0036 0.00712 0.0036 0.018053 0 0.025299-0.0024 0.00357-0.0059 0.00595-0.0083 0.010687-0.0024 0.00595 0.0024 0.030169 0 0.035751-0.0024 0.00357-0.0095 0.00357-0.01069 0.00831-1.2e-5 4.75e-5 1.2e-5 0.027318 0 0.027318-0.0024 0.00238-0.0071-0.00238-0.0083 0-0.0024 0.00595 0.0024 0.038482 0 0.044183-0.0024 0.00357-0.0059 0.00595-0.0083 0.010687-0.0012 0.00238 0 0.00476 0 0.00831-0.0036 0-0.0083-0.00238-0.01069 0-0.0024 0.00238 0.0024 0.023755 0 0.027318-0.0024 0.00356-0.0059 0.00356-0.0083 0.00831-0.0024 0.00595 0.0024 0.038483 0 0.044183-0.0024 0.00357-0.0083 0.00595-0.01069 0.010687-0.0024 0.00595 0.0024 0.047033 0 0.052616-0.0024 0.00356-0.0059 0.00595-0.0083 0.010687-0.0036 0.00712 0.0036 0.02019 0 0.027317-0.0024 0.00357-0.0059 0.00357-0.0083 0.00831-0.0024 0.00356 0.0024 0.025536 0 0.027318-0.0024 0.00238-0.0083-0.00238-0.01069 0-0.0024 0.00238 0 0.00476 0 0.00831v0.044183c0 0.00356 0.0024 0.00831 0 0.010687-0.0024 0.00238-0.0059-0.00238-0.0083 0s0.0024 0.03088 0 0.035751c-0.0024 0.00357-0.0071 0.00357-0.0083 0.00831-0.0024 0.00595 0.0024 0.013658 0 0.018884-0.0011 0.00238-0.0083-0.00238-0.01069 0-0.0024 0.00238 0.0024 0.033612 0 0.035751-0.0024 0.00238-0.00594-0.00238-0.00831 0-4.157e-4 4.157e-4 0 0.039907 0 0.044183 0 0.00357 0.00238 0.00595 0 0.00831-0.00238 0.00238-0.00594-0.00238-0.00831 0-0.00238 0.00238 0.00238 0.023754 0 0.027317-0.00238 0.00357-0.00831 0.00712-0.010687 0.010687-0.00238 0.00595 0.00476 0.012712 0 0.016865-0.00238 0.00238-0.00594-0.00238-0.00831 0-0.00476 0.00476 0.00476 0.022803 0 0.027318-0.00238 0.00238-0.00831-0.00238-0.010687 0-0.00594 0.00595 0.00595 0.010687 0 0.016865-0.00238 0.00238-0.00594-0.00238-0.00831 0-0.00476 0.00476 0.00476 0.022805 0 0.027318-0.00476 0.00476-0.012712-0.00476-0.016865 0-0.00238 0.00238 0.00238 0.033611 0 0.035751-0.00238 0.00238-0.00831-0.00238-0.010687 0-0.00476 0.00476 0.00238 0.013658 0 0.018885-0.00238 0.00357-0.00594 0.00357-0.00831 0.00831-0.00115 0.00238 0.00238 0.00595 0 0.00831-0.00238 0.00238-0.00831-0.00238-0.010687 0-0.00594 0.00595 0.00595 0.012947 0 0.018885-0.00238 0.00238-0.00594-0.00238-0.00831 0-0.00476 0.00476 0.00476 0.022805 0 0.027317-0.00238 0.00238-0.00595-0.00238-0.00831 0-0.011876 0.011993 0.01354 0.00831-0.010687 0.00831-0.00238 0.00238 0.00115 0.00595 0 0.00831-0.00238 0.00356-0.00594 0.00595-0.00831 0.010687-0.00115 0.00238 0.00115 0.00476 0 0.00831-0.00238 0.00357-0.00595 0.00357-0.00831 0.00831-0.00115 0.00238 0.00238 0.00831 0 0.010687-0.018529 0.018529-3.445e-4 -0.0291-0.018885 0.00831-0.00115 0.00238 0.00238 0.00831 0 0.010687-0.00238 0.00238-0.00476-0.00115-0.00831 0-0.00357 0.00238-0.00595 0.00595-0.010687 0.00831-0.00238 0.00115-0.00594-0.00238-0.00831 0-0.00238 0.00238 0.00238 0.00595 0 0.00831-0.00238 0.00238-0.00476-0.00115-0.00831 0-0.00831 0.00356-0.011876 0.015083-0.018885 0.018885-0.00238 0.00115-0.00595-0.00115-0.00831 0-0.00357 0.00238-0.00595 0.00595-0.010687 0.00831-0.00238 0.00115-0.00476-0.00115-0.00831 0-0.019717 0.010687-0.00118 0.00712-0.00831 0.018885-0.018647 0.037293-4.276e-4 -0.0095-0.018885 0.00831-0.00238 0.00238 0.00238 0.00595 0 0.00831-0.00476 0.00476-0.014729-0.00476-0.018886 0-0.00238 0.00238 0.00238 0.00831 0 0.010687-0.00238 0.00238-0.00594-0.00238-0.00831 0-0.00595 0.00595 0.00594 0.010687 0 0.016866-0.00238 0.00238-0.00595-0.00238-0.00831 0-0.00238 0.00238 0.00238 0.00831 0 0.010687-0.00238 0.00238-0.00831-0.00238-0.010687 0-0.00238 0.00238 0.00238 0.00595 0 0.00831-0.00238 0.00238-0.00594-0.00238-0.00831 0-0.00476 0.00476 0.00476 0.014847 0 0.018885-0.00238 0.00238-0.00476-0.00115-0.00831 0-0.00238 0.00115-0.041332 0.03765-0.046202 0.044183-0.00712 0.00831-0.011876 0.018171-0.016866 0.027318-0.00356 0.00595-0.00595 0.011993-0.010687 0.016865-0.00238 0.00238-0.00594-0.00238-0.00831 0-0.00238 0.00238 0.00238 0.00831 0 0.010687-0.00238 0.00238-0.00594-0.00238-0.00831 0-0.00238 0.00238 0.00238 0.00595 0 0.00831-0.018529 0.018529-3.324e-4 -0.0291-0.018884 0.00831-0.00115 0.00238 0.00238 0.00831 0 0.010687-0.011876 0.011876-0.020428 0.00357-0.027317 0.016865-0.00115 0.00238 0.00238 0.00831 0 0.010687-0.00238 0.00238-0.00594-0.00238-0.00831 0-0.00238 0.00238 0.00238 0.00595 0 0.00831-0.00238 0.00238-0.00595-0.00115-0.00831 0-0.00356 0.00238-0.00712 0.00476-0.010687 0.00831-0.00356 0.00356-0.00595 0.00595-0.00831 0.010687-0.00115 0.00238 0 0.00476 0 0.00831-0.00357 0-0.00595-0.00238-0.00831 0-0.00238 0.00238 0.00238 0.00595 0 0.00831-0.00476 0.00476-0.014252 0.00595-0.018885 0.010687-0.018529 0.018647 0.029099-0.00238-0.00831 0.016865-0.00238 0.00115-0.00831-0.00238-0.010687 0-0.00476 0.00476 0.00476 0.014728 0 0.018885-0.00238 0.00238-0.00595-0.00238-0.00831 0-0.018529 0.018529 0.029099-0.00118-0.00831 0.016865-0.00238 0.00115-0.00831-0.00238-0.010687 0-0.00238 0.00238 0.00115 0.00712 0 0.010687-0.00238 0.00357-0.00595 0.00357-0.00831 0.00831-0.00115 0.00238 0.00238 0.00595 0 0.00831-0.00594 0.00595-0.010687 6.295e-4 -0.012595-0.00238-0.00118 0.00118-0.00356 0.00595-0.00594 0.012594-0.013184 0.039551 0.02411-0.00476-0.016866 0.035751-0.00238 0.00595 0.00238 0.011876 0 0.016865-0.00115 0.00238-0.00831-0.00238-0.010687 0-0.00476 0.00476-0.00357 0.014134-0.00831 0.018885-0.00238 0.00238-0.00594-0.00238-0.00831 0-0.00238 0.00238 0.00238 0.00595 0 0.00831-0.00238 0.00238-0.00831-0.00238-0.010687 0-0.00238 0.00238 0.00238 0.00831 0 0.010687-0.00238 0.00238-0.00595-0.00238-0.00831 0-0.00238 0.00238 0.00115 0.00476 0 0.00831-0.00356 0.00831-0.015321 0.0095-0.018885 0.016865-0.00238 0.00595 0.00476 0.014728 0 0.018885-0.018529 0.018529 0.00238-0.0291-0.016865 0.00831-0.00115 0.00238 0.00115 0.00831 0 0.010687-0.00476 0.0095-0.014252 0.00712-0.018885 0.016865-0.00115 0.00238 0.00238 0.00831 0 0.010687-0.00238 0.00238-0.00595-0.00238-0.00831 0-0.00238 0.00238 0.00238 0.00595 0 0.00831-0.00238 0.00238-0.00595-0.00238-0.00831 0-0.00238 0.00238 0.00115 0.00476 0 0.00831-0.00595 0.010687-0.021973 0.016627-0.027317 0.027318-0.00115 0.00238 0.00238 0.00595 0 0.00831-0.00238 0.00238-0.00595-0.00238-0.00831 0-0.00238 0.00238 0.00115 0.00712 0 0.010687-0.00356 0.00831-0.015202 0.0095-0.018885 0.016865-0.00115 0.00238 0.00238 0.00831 0 0.010687-0.00238 0.00238-0.00595-0.00238-0.00831 0-0.00238 0.00238 0.00115 0.00476 0 0.00831-0.00238 0.00357-0.00831 0.00476-0.010687 0.00831-0.00115 0.00238 0.00238 0.00831 0 0.010687-0.00238 0.00238-0.00595-0.00238-0.00831 0-0.00238 0.00238 0.00115 0.00476 0 0.00831-0.00238 0.00357-0.00595 0.00712-0.00831 0.010687-0.00115 0.00238 0.00238 0.00595 0 0.00831-0.00238 0.00238-0.00831-0.00238-0.010687 0-0.00476 0.00476 0.00476 0.012594 0 0.016865-0.00238 0.00238-0.00595-0.00115-0.00831 0-0.00356 0.00238-0.00356 0.00831-0.00831 0.010687-0.00238 0.00115-0.00831-0.00238-0.010687 0-0.00476 0.00476-0.00476 0.010687-0.00831 0.016865-0.00238 0.00357-0.00712 0.00712-0.010687 0.010687-0.00356 0-0.00595-0.00238-0.00831 0-0.00238 0.00238 0.00238 0.00595 0 0.00831-0.00476 0.00476-0.012712-0.00476-0.016865 0-0.00238 0.00238 0.00238 0.00595 0 0.00831-0.00238 0.00238-0.00712-0.00115-0.010687 0-0.00831 0.00356-0.0095 0.015202-0.016865 0.018885-0.00595 0.00238-0.01354-0.00238-0.018885 0-0.026368 0.013183 0.013421 0.00831-0.027318 0.00831-0.00238 0.00115 0.00238 0.00831 0 0.010687-0.00238 0.00238-0.00476-0.00115-0.00831 0-0.00831 0.00357-0.011876 0.013184-0.018885 0.016866-0.00357 0.00238-0.023398-0.00238-0.025299 0-0.00238 0.00238 0.00238 0.00831 0 0.010687-0.00476 0.00476-0.022803-0.00476-0.027318 0-0.018647 0.018529 0.02898-0.00238-0.00831 0.016866-0.00356 0.00238-0.025535-0.00238-0.027317 0-0.00238 0.00238 0.00238 0.00831 0 0.010687-0.00238 0.00238-0.023755-0.00238-0.027318 0-0.00356 0.00238-0.00476 0.00595-0.00831 0.00831-0.00356 0.00238-0.025537-0.00238-0.027317 0-0.00238 0.00238 0.00238 0.00595 0 0.00831-0.00476 0.00476-0.013658-0.00238-0.018884 0-0.00712 0.00356-0.00595 0.0095-0.00595 0.010687 0.00118 6.413e-4 0.00118 0-0.018885 0-0.00831 0.00238-0.011876 0.013065-0.018885 0.016865-0.00357 0.00238-0.025536-0.00238-0.027318 0-0.00238 0.00238 0.00238 0.00831 0 0.010687-0.00238 0.00238-0.041451-0.00238-0.044183 0-0.00238 0.00238 0.00238 0.00595 0 0.00831-0.00476 0.00476-0.010687-0.00238-0.016865 0-0.00712 0.00238-0.012594 0.00595-0.018885 0.00831-0.00238 9.494e-4 -0.00476-0.00115-0.00831 0-0.00356 0.00238-0.00595 0.00831-0.010687 0.010687-0.00238 0.00115-0.00595-0.00115-0.00831 0-0.00357 0.00238-0.00357 0.00595-0.00831 0.00831-0.00595 0.00238-0.01354-0.00238-0.018885 0-0.00357 0.00238-0.00476 0.00595-0.00831 0.00831-0.00238 0.00115-0.00712-9.407e-4 -0.010687 0-0.00712 0.00238-0.010687 0.00831-0.016865 0.010687-0.00238 9.407e-4 -0.00831-0.00115-0.010687 0-0.00831 0.00356-0.0095 0.013065-0.016865 0.016865-0.00238 0.00115-0.00831-0.00238-0.010687 0-0.00238 0.00238 0.00238 0.00831 0 0.010687-0.00476 0.00476-0.020785-0.00476-0.025299 0-0.00238 0.00238 0.00238 0.00595 0 0.00831-0.00476 0.00476-0.022805-0.00476-0.027318 0-0.00238 0.00238 0.00238 0.00595 0 0.00831-0.00238 0.00238-0.00595-0.00238-0.00831 0-0.00238 0.00238 0.00238 0.00831 0 0.010687-0.00476 0.00476-0.022805-0.00476-0.027318 0-0.00238 0.00238 0.00238 0.00595 0 0.00831-0.00238 0.00238-0.030168-0.00238-0.035751 0-0.00357 0.00238-0.00712 0.00831-0.010687 0.010687-0.00238 0.00115-0.00476-0.00115-0.00831 0-0.00356 0.00238-0.00356 0.00595-0.00831 0.00831-0.00238 0.00115-0.023279 0-0.027317 0h-0.0715c-0.00238 0-0.033731-0.00101-0.035751 0-0.00356 0.00238-0.00595 0.00712-0.010687 0.00831-0.00595 0.00238-0.010687 0-0.016865 0-0.00357 0-0.00476-9.406e-4 -0.00831 0-0.064849 0.021617 0.01366-0.00118-0.027317 0.018885-0.00595 0.00238-0.013658-0.00238-0.018886 0-0.00356 0.00238-0.00356 0.00595-0.00831 0.00831-0.00238 0.00115-0.00595-0.00238-0.00831 0-0.00238 0.00238 0.00238 0.00831 0 0.010687-0.00476 0.00476-0.012595 0.00595-0.018885 0.00831-0.00238 9.493e-4 -0.00595-0.00238-0.00831 0-0.00238 0.00238 0.00238 0.00595 0 0.00831-0.00476 0.00476-0.014728-0.00476-0.018885 0-0.00238 0.00238 0.00238 0.00831 0 0.010687-0.00238 0.00238-0.00476-0.00115-0.00831 0-0.00357 0.00238-0.00595 0.00595-0.010687 0.00831-0.00238 0.00115-0.00712-0.00238-0.00831 0-0.00238 0.00595 0.00238 0.013659 0 0.018885-0.00115 0.00238-0.00476 0-0.00831 0-0.021023 0 0.00357-0.00357-0.018885 0.00831-0.00238 0.00115-0.00595-0.00238-0.00831 0-0.00476 0.00476 0.00476 0.012712 0 0.016866-0.00238 0.00238-0.00712-0.00115-0.010687 0-0.00238 0.00115-0.024111 0.025061-0.025179 0.027317-0.00115 0.00238 0.00238 0.00831 0 0.010687-0.00476 0.00476-0.012947 0.00476-0.018886 0.00831-0.00356 0.00595-0.00356 0.012111-0.00831 0.016865-0.00476 0.00476-0.019716-0.00831-0.018885 0.010687-0.00357 0.00594-0.00476 0.010687-0.00831 0.016865-0.00357 0.00595-0.015202 0.013422-0.018885 0.018884-0.00357 0.00595-0.00357 0.011993-0.00831 0.016865-0.00238 0.00238-0.00595-0.00115-0.00831 0-0.00356 0.00238-0.00712 0.00712-0.010687 0.010687-0.00356 0.00356-0.00595 0.00356-0.00831 0.00831-0.00115 0.00238 0.00238 0.00595 0 0.00831-0.00238 0.00238-0.00595-0.00238-0.00831 0-0.00238 0.00238 0.00238 0.00831 0 0.010687-0.00238 0.00238-0.00831-0.00238-0.010687 0-0.011993 0.011876 0.015678 0.00831-0.00831 0.00831-0.00356 0.00238-0.00712 0.00712-0.010687 0.010687-0.00356 0.00356-0.00595 0.00356-0.00831 0.00831-0.00115 0.00238 0.00238 0.00594 0 0.00831-0.00238 0.00238-0.00595-0.00238-0.00831 0-0.00238 0.00238 0.00115 0.00712 0 0.010687-0.018647 0.037293-3.325e-4 -0.0095-0.018885 0.00831-0.00238 0.00238 0.00238 0.00595 0 0.00831-0.00238 0.00238-0.00595-0.00238-0.00831 0-0.00238 0.00238 0.00238 0.00831 0 0.010687-0.00238 0.00238-0.00831-0.00238-0.010687 0-0.00238 0.00238 0.00238 0.00594 0 0.00831-0.00476 0.00476-0.012712-0.00476-0.016865 0-0.00476 0.00476 0.00476 0.014847 0 0.018886-0.00238 0.00238-0.00595-0.00238-0.00831 0-0.00238 0.00238 0.00238 0.00594 0 0.00831-0.00238 0.00238-0.00712-0.00115-0.010687 0-0.00356 0.00238-0.00356 0.00595-0.00831 0.00831-0.00238 0.00115-0.00831-0.00238-0.010687 0-0.00238 0.00238 0.00238 0.00831 0 0.010687-0.00238 0.00238-0.00595-0.00238-0.00831 0-0.00238 0.00238 0.00238 0.00594 0 0.00831-0.00238 0.00238-0.00476-0.00115-0.00831 0-0.00357 0.00238-0.00595 0.00595-0.010687 0.00831-0.00595 0.00238-0.012712-0.00476-0.016866 0-0.00238 0.00238 0.00238 0.00831 0 0.010687-0.00238 0.00238-0.041451-0.00238-0.044183 0-0.00238 0.00238 0.00238 0.00595 0 0.00831-0.00238 0.00238-0.00831-0.00115-0.010687 0-0.00357 0.00238-0.00357 0.00831-0.00831 0.010687-0.00118 7.601e-4 -0.020428 2.494e-4 -0.035751 0l-0.10327-0.027508c-0.15009 0.0367-0.2999 0.029337-0.429 0.067344-0.043352 0.019122-0.11022 0.080883-0.15351 0.10096-0.47487 0.15009-0.95053 0.34479-1.3459 0.62667-0.044658 0.04026-0.10879 0.05867-0.17453 0.09882-0.13001 0.03706-0.26206 0.11806-0.39115 0.17665-0.044183 0.04193-0.087535 0.0797-0.15141 0.09882l-0.04632-0.0048c-0.43287 1.0788-0.69437 2.2502-0.74444 3.4783-0.021853 0.5249-0.00356 1.0441 0.050477 1.552h0.10725l3.5119 0.12196 10.973-0.97997 6.4455-0.29021c-0.0024-0.53903 0.02435-0.37487-0.05464-0.88113-0.20227-0.04811-0.43524-0.09668-0.61196-0.16404-0.33557-0.14061-1.1391-0.84444-1.4768-0.94367-0.41946-0.14563-0.49642-0.3191-0.94002-0.4227-0.39981-0.1063-0.65951-0.28494-0.99679-0.43951l-1.6992-0.08409c0.0024-0.0071 0.0024-0.01425-0.0024-0.01888-0.0084-0.0083-0.02435 0.0036-0.03575 0-0.0084-0.0024-0.0095-0.01211-0.01687-0.01686-0.01189-0.0071-0.02637-0.0095-0.03575-0.01888-0.01533-0.01532-0.02043-0.03943-0.03575-0.05464-0.0095-0.0095-0.02636-0.0071-0.03574-0.01686-0.0047-0.0048 0.0047-0.01485 0-0.01888-1.2e-5 -1.1e-5 -0.05464 2.4e-5 -0.05464 0-0.0084-0.0024-0.0095-0.01319-0.01687-0.01686-0.0059-0.0024-0.01293 0-0.01887 0h-0.10725c-0.01189 0-0.02435 0.0036-0.03574 0-0.01254-0.0048-0.0228-0.01556-0.03574-0.01888-0.02898-0.0071-0.06105 0.0048-0.09038 0-0.01865-0.0036-0.03469-0.01069-0.05261-0.01686-0.03587-0.01199-0.07293-0.0259-0.10939-0.03575-0.06437-0.01758-0.13113-0.01817-0.19557-0.03575-0.03101-0.0083-0.06045-0.02375-0.09038-0.03575-0.01794 0-0.03693 0.0036-0.05464 0-0.01865-0.0036-0.03469-0.01294-0.05261-0.01888-0.01794-0.0059-0.03705-0.01069-0.05464-0.01686-0.01241-0.0048-0.02279-0.01556-0.03574-0.01888-0.01734-0.0048-0.03562 0.0059-0.05261 0-0.01254-0.0048-0.02317-0.01271-0.03575-0.01686-0.0058-0.0024-0.01293 0-0.01887 0h-0.03575c-0.01189 0-0.02411 0.0036-0.03575 0-0.01293-0.0036-0.02256-0.01663-0.03574-0.01888-0.02352-0.0036-0.04799 0.0036-0.0715 0-0.04086-0.0071-0.03896-0.03088-0.07151-0.05262-0.0084-0.0059-0.0772 0.0048-0.09038 0-0.0084-0.0024-0.01071-0.01437-0.01687-0.01888-0.01189-0.0071-0.02387-0.01069-0.03575-0.01686-0.01189-0.0059-0.02268-0.01627-0.03574-0.01888-0.01757-0.0036-0.03705 0.0036-0.05464 0-0.09633-0.01603-0.01241-0.01817-0.10725-0.05464-0.05821-0.02233-0.11958-0.03278-0.17875-0.05262-0.03052-0.01069-0.06105-0.02269-0.09038-0.03575-0.02447-0.01069-0.04608-0.0272-0.0715-0.03575-0.02898-0.0095-0.05986-0.0083-0.08837-0.01888-0.0202-0.0083-0.03539-0.02613-0.05464-0.03575-0.01687-0.0083-0.0367-0.01069-0.05464-0.01686-0.10167-0.03563-0.20427-0.06889-0.30492-0.10725-0.02494-0.0095-0.04668-0.0259-0.0715-0.03575-0.03504-0.01402-0.07174-0.02293-0.10725-0.03575-0.06033-0.02198-0.08516-0.03361-0.09465-0.03789-0.0084-0.0024-0.02435-0.0048-0.06735-0.01686-0.01817-0.0059-0.03515-0.01247-0.05261-0.01888-0.01241-0.0048-0.02268-0.01425-0.03575-0.01686-0.01759-0.0036-0.03717 0.0048-0.05464 0-0.0084-0.0024-0.0095-0.0152-0.01687-0.01888-0.0059-0.0024-0.0133 0.0024-0.01888 0-0.01254-0.0048-0.02279-0.01354-0.03575-0.01686-0.02814-0.0071-0.06022 0.0071-0.08837 0-0.02601-0.0071-0.04549-0.02934-0.0715-0.03575-0.01189-0.0036-0.02624 0.0036-0.03789 0-0.02602-0.0071-0.04669-0.02589-0.07151-0.03575-0.01758-0.0071-0.0342-0.01449-0.05261-0.01889-0.0059-0.0011-0.01401 0.0036-0.01889 0-0.01401-0.0095-0.02102-0.02732-0.03575-0.03575-0.02791-0.01591-0.05868-0.02316-0.08837-0.03575-0.02459-0.01069-0.04881-0.02589-0.07363-0.03575-0.01758-0.0071-0.03504-0.0095-0.05262-0.01687-0.04775-0.01912-0.03112-0.02375-0.09038-0.03575-0.09573-0.01912 0.04169 0.03314-0.08836-0.01889-0.01234-0.0048-0.02339-0.01401-0.03575-0.01888-0.01758-0.0071-0.03706-0.0095-0.05464-0.01686-0.03302-0.01318-0.04347-0.0177-0.04419-0.01888 0.0048 0.0012 0.01972 0.0048-0.04621-0.01686-0.01793-0.0059-0.03409-0.0152-0.05262-0.01889-0.01187-0.0024-0.02459 0.0048-0.03575 0-0.04002-0.01591-0.06876-0.05226-0.10725-0.0715-0.01686-0.0083-0.03717-0.0095-0.05464-0.01687-0.02459-0.01069-0.04668-0.02589-0.0715-0.03575-0.0059-0.0024-0.01402 0.0036-0.01888 0-0.01402-0.0095-0.02221-0.02565-0.03575-0.03575-0.01069-0.0083-0.02387-0.01295-0.03575-0.01889-0.0059 0-0.01187 0.0024-0.01686 0-0.0083-0.0036-0.01188-0.01318-0.01888-0.01687-0.0059-0.00238-0.01187 0.0024-0.01686 0-0.0083-0.00357-0.01247-0.014371-0.01888-0.018886-0.01188-0.00712-0.02387-0.010687-0.03575-0.016865-0.03575-0.017895-0.06996-0.03975-0.10725-0.054595-0.03515-0.014015-0.07257-0.020785-0.10725-0.035751-0.02459-0.010687-0.04763-0.023754-0.0715-0.035751-0.01199-0.00595-0.02316-0.012594-0.03575-0.016866-0.0234-0.00831-0.04786-0.012477-0.0715-0.018886-0.01817-0.00594-0.03658-0.012947-0.05464-0.018884-0.01793-0.00595-0.03563-0.00831-0.05262-0.016866-0.0538-0.026843 0.03504-0.018766-0.05464-0.054635-0.01663-0.00712-0.0367 0-0.05464 0-0.0059 0-0.01188 0.00238-0.01686 0-0.0152-0.00831-0.02055-0.028149-0.03575-0.035751-0.01069-0.00595-0.02435 0.00356-0.03575 0-0.01449-0.00476-0.09561-0.043945-0.10725-0.052616-0.01354-0.010687-0.02221-0.025654-0.03575-0.035751-0.01069-0.00831-0.02506-0.011876-0.03575-0.018886-0.06675-0.050122-0.0036-0.027674-0.09038-0.0715-0.0059-0.00238-0.01354 0.00238-0.01888 0-0.0083-0.00356-0.01069-0.012229-0.01686-0.016866-0.01187-0.00712-0.0253-0.010687-0.03575-0.018885-0.01972-0.015797-0.03361-0.040501-0.05464-0.054635-0.01568-0.010687-0.03635-0.00712-0.05262-0.016866-0.01449-0.0095-0.02375-0.023755-0.03575-0.035751-0.0059-0.00594-0.01188-0.015083-0.01888-0.018885-0.01686-0.00831-0.03907-0.00357-0.05262-0.016866-0.0133-0.013303-0.0083-0.039551-0.01888-0.054634-0.0083-0.010687-0.02637-0.00712-0.03575-0.016866-0.0048-0.00476 0.0048-0.014847 0-0.018885-0.0048-0.00476-0.01271 0.00476-0.01686 0-0.0048-0.00476 0.0048-0.012594 0-0.016865-0.0048-0.00476-0.01366 0.00238-0.01888 0-0.0083-0.00356-0.01069-0.013896-0.01686-0.018884-0.01722-0.012947-0.03955-0.020428-0.05464-0.035751-0.0095-0.0095-0.0071-0.026367-0.01686-0.035751-0.07055-0.07055-0.03717-5.464e-4 -0.09038-0.0715-0.0083-0.010687-0.0095-0.026367-0.01888-0.035751-0.04359-0.043589-0.02506 0.00595-0.05262-0.035751-0.0071-0.011876-0.0095-0.026368-0.01888-0.035751-0.0048-0.00476-0.01069 0.00115-0.01686 0-0.01841-0.00476-0.03848-0.0095-0.05464-0.018885-0.0329-0.019597-0.04585-0.066274-0.09038-0.0715-0.0228-0.013778-0.04917-0.020904-0.0715-0.035751-0.0071-0.00476-0.0095-0.013183-0.01686-0.016865-0.01686-0.00831-0.03955-0.00831-0.05464-0.018885-0.01069-0.00831-0.0095-0.024585-0.01686-0.035751-0.01187-0.017578-0.0361-0.029574-0.05464-0.035751-0.0059-0.00238-0.01259 0.00476-0.01686 0-0.0095-0.0095-0.0095-0.026368-0.01888-0.035751-0.0048-0.00476-0.01187 0.00238-0.01686 0-0.0152-0.00831-0.02055-0.028149-0.03575-0.035751-0.0059-0.00238-0.01354 0.00238-0.01888 0-0.0083-0.00356-0.0095-0.012111-0.01686-0.016865-0.01187-0.00712-0.02459-0.011876-0.03575-0.018885-0.01401-0.0095-0.02387-0.026367-0.03789-0.035751-0.02233-0.014847-0.0506-0.019122-0.0715-0.035751-0.01972-0.015796-0.03266-0.038837-0.05262-0.054635-0.01069-0.00831-0.02459-0.0095-0.03575-0.016865-0.0071-0.00476-0.01069-0.016272-0.01888-0.018885-0.01187-0.00357-0.02731 0.00831-0.03575 0-0.0083-0.00831 0.0083-0.027198 0-0.035751-0.0083-0.00831-0.02506 0.00595-0.03575 0-0.0059-0.00238 0.0048-0.012595 0-0.016865-0.0048-0.00476-0.01271 0.00476-0.01686 0-0.0095-0.0095-0.0095-0.026367-0.01888-0.035751-0.0048-0.00476-0.01069 0.00238-0.01686 0-0.0126-0.00476-0.02839-0.0095-0.03789-0.018885-0.0048-0.00476 0.0048-0.012595 0-0.016865-0.0048-0.00476-0.01188 0.00238-0.01686 0-0.01936-0.0095-0.03741-0.022803-0.05464-0.035751-0.0071-0.00476-0.0095-0.016272-0.01686-0.018885-0.01187-0.00357-0.02411 0.00357-0.03575 0-0.08658-0.021616-8.4e-5 -0.00831-0.05464-0.035751-0.04406-0.022092 0.01734 0.051071-0.05262-0.018884-0.0048-0.00476 0.0048-0.012712 0-0.016865-0.0048-0.00476-0.01366 0.00238-0.01888 0-0.0083-0.00357-0.01069-0.012947-0.01686-0.018886-0.0059 0-0.01354 0.00238-0.01888 0-0.0083-0.00356-0.0095-0.014133-0.01686-0.016865-0.01188-0.00356-0.02506 0.00595-0.03575 0-0.0059-0.00238 0.0048-0.014847 0-0.018885-0.06996-0.069957-0.0095 0.00595-0.05464-0.016865-0.07447-0.037293 0.01806 0.00118-0.01888-0.035751-0.0048-0.00476-0.01069 0.00238-0.01686 0-0.01259-0.00476-0.02375-0.012947-0.03575-0.018886-0.01187-0.00595-0.02506-0.0095-0.03575-0.016865-0.01354-0.010687-0.02055-0.028148-0.03575-0.035751-0.01069-0.00595-0.02411 0.00356-0.03575 0-0.0071-0.00115-0.10369-0.051071-0.10725-0.054635-0.0048-0.00476 0.0048-0.012712 0-0.016865-0.0048-0.00476-0.01366 0.00238-0.01888 0-0.0083-0.00356-0.0095-0.015083-0.01686-0.018885-0.0059-0.00238-0.01366 0.00238-0.01888 0-0.0152-0.00831-0.02055-0.02815-0.03575-0.035751-0.0059-0.00238-0.01188 0.00238-0.01686 0-0.08207-0.040977 0.07518 0.00712-0.05464-0.035751-0.0059-0.00238-0.01473 0.00476-0.01888 0-0.0048-0.00476 0.0048-0.014609 0-0.018885-0.0083-0.00831-0.02731 0.00831-0.03575 0-0.0048-0.00476 0.0048-0.012594 0-0.016865-0.0048-0.00476-0.01188 0.00238-0.01686 0-0.0215-0.010687-0.03314-0.043827-0.05464-0.054635-0.0059-0.00238-0.01187 0.00238-0.01686 0-0.0083-0.00357-0.01188-0.013184-0.01888-0.016866-0.05274-0.026368 0.02375 0.04062-0.03575-0.018885-0.0024-0.00115-0.0048 0.00118-0.0083 0.00238v-0.00238c-0.0024-0.00476-0.0059-0.00831-0.0083-0.012595 4.63e-4 -0.00238-6.89e-4 -0.00357-0.0024-0.00476l-0.0024-0.00238c-0.0024-0.00238-0.0036-0.00476-0.0059-0.00831-0.0011-0.00238 9.58e-4 -0.00476 0-0.00831-0.0024-0.00712-0.0048-0.010687-0.0083-0.016866-0.0036-0.00595-0.0071-0.013303-0.01069-0.018885-0.0048-0.00712-0.01319-0.010687-0.01686-0.018885-0.0011-0.00238 0.0024-0.00595 0-0.00831-0.0024-0.00238-0.0083 0.00238-0.01069 0-0.0024-0.00238 0.0011-0.00476 0-0.00831-0.0024-0.00357-0.0059-0.00712-0.0083-0.010687-0.0024-0.00595 0.0048-0.012594 0-0.016865-0.01853-0.018529-2.26e-4 0.026961-0.01888-0.010687-0.0011-0.00238 0-0.00476 0-0.00831l-0.01686-0.035751c-0.0024-0.00357-0.0059-0.00357-0.0083-0.00831-0.0011-0.00238 0.0024-0.00831 0-0.010687-0.0024-0.00238-0.0083 0.00238-0.01069 0-0.0024-0.00238 0-0.00476 0-0.00831 0-0.00595 0.0024-0.01354 0-0.018885-0.0011-0.00238-0.0059 0.00238-0.0083 0s0.0011-0.00595 0-0.00831c-0.0048-0.0095-0.01425-0.00712-0.01888-0.016866-0.0024-0.00476 0.0024-0.033374 0-0.035751-0.0024-0.00238-0.0059 0.00238-0.0083 0-0.0059-0.00595 0.0059-0.012947 0-0.018885-0.0024-0.00238-0.0059 0.00238-0.0083 0-0.0048-0.00476 0.0048-0.022805 0-0.027318-0.0024-0.00238-0.0083 0.00238-0.01069 0-0.0048-0.00476 0.0048-0.022805 0-0.027317-0.0024-0.00238-0.0071 0.00238-0.0083 0-0.0024-0.00595 0.0024-0.011876 0-0.016866-0.0011-0.00238-0.0083 0.00238-0.01069 0-0.0024-0.00238 0.0024-0.03088 0-0.035751-0.0024-0.00356-0.0059-0.00356-0.0083-0.00831-0.0024-0.00476 0.0024-0.035394 0-0.037888-0.0024-0.00238-0.0059 0.00238-0.0083 0s0-0.00476 0-0.00831c0-0.0095 0.0011-0.051903 0-0.054635-0.0024-0.00356-0.0083-0.00356-0.01069-0.00831-0.0011-0.00238 0-0.00476 0-0.00831 0-0.00712 0.0011-0.052378 0-0.054635-0.0024-0.00357-0.0059-0.00357-0.0083-0.00831-0.0011-0.00238 0-0.00712 0-0.010687v-0.27766c0-0.00357 0.0024-0.00595 0-0.00831-0.0024-0.00238-0.0059 0.00238-0.0083 0s0-0.00476 0-0.00831v-0.18112c0-0.00238 1e-3 -0.033849 0-0.035751-0.0024-0.00356-0.0083-0.00356-0.01069-0.00831-0.0011-0.00238 0-0.030999 0-0.035751v-0.1346c0-0.00712 0.0011-0.052378 0-0.054634-0.0024-0.00357-0.0059-0.00476-0.0083-0.00831-0.0024-0.00595 0.0024-0.030168 0-0.035751-0.0024-0.00357-0.0059-0.00357-0.0083-0.00831-0.0036-0.00595 0.0036-0.042995 0-0.046202-0.0024-0.00238-0.0083 0.00238-0.01069 0-0.0011-0.00115 0.0011-0.023874 0-0.027317-0.0024-0.00712-0.0048-0.011876-0.0083-0.016865-0.0024-0.00357-0.0095-0.00357-0.01069-0.00831-0.0024-0.00831 0-0.018409 0-0.027318v-0.054632c0-0.00357 0.0011-0.00595 0-0.00831-0.01187-0.02221-0.0083 0.00238-0.0083-0.018884 0-0.00712 7.13e-4 -0.043471 0-0.044183-0.0024-0.00238-0.0059 0.00238-0.0083 0-0.0048-0.00476 0.0048-0.014728 0-0.018885-0.0024-0.00238-0.0083 0.00238-0.01069 0-0.0024-0.00238 0.0024-0.021616 0-0.02518-0.0024-0.00356-0.0048-0.00712-0.0083-0.010687-0.0036-0.00356-0.0048-0.00595-0.0083-0.00831-0.0024-0.00115-0.0083 0.00238-0.01069 0-0.0059-0.00595 0.0059-0.012947 0-0.018885-0.0024-0.00238-0.0059 0.00238-0.0083 0s0.0024-0.00595 0-0.00831c-0.0048-0.00476-0.01485 0.00476-0.01888 0-0.0024-0.00238 0.0024-0.00595 0-0.00831-0.0024-0.00238-0.02173 0.00238-0.0253 0-0.0036-0.00238-0.0059-0.00831-0.01069-0.010687-0.0024-0.00115-0.0059 0.00238-0.0083 0s0.0024-0.00595 0-0.00831c-0.0048-0.00476-0.01366 0.00238-0.01888 0-0.0036-0.00238-0.0036-0.00595-0.0083-0.00831-0.0024-0.00115-0.0059 0.00238-0.0083 0s0.0024-0.00831 0-0.010687c-0.0048-0.00476-0.01473 0.00476-0.01888 0-0.0024-0.00238 0.0024-0.00595 0-0.00831-0.0024-0.00238-0.0059 0.00238-0.0083 0s0.0024-0.00831 0-0.010687c-0.0024-0.00238-0.0083 0.00238-0.01069 0-0.0024-0.00238 0.0012-0.00595 0-0.00831-0.0036-0.00831-0.01318-0.0095-0.01686-0.016865-0.0011-0.00238 0.0011-0.00712 0-0.010687-0.0024-0.00357-0.0083-0.00476-0.01069-0.00831-0.0011-0.00238 0.0012-0.00712 0-0.010687-0.0024-0.00357-0.0059-0.00357-0.0083-0.00831-0.0024-0.00595 0.0024-0.013183 0-0.018885-0.0024-0.00712-0.0059-0.010687-0.0083-0.016865-9.41e-4 -0.00238 0.0024-0.00595 0-0.00831-0.0024-0.00238-0.0083 0.00238-0.01069 0-0.0048-0.00476 0.0024-0.01354 0-0.018886-0.0024-0.00356-0.0059-0.00476-0.0083-0.00831-0.0024-0.00595 0.0024-0.01354 0-0.018885-0.0024-0.00356-0.0059-0.00356-0.0083-0.00831-0.0024-0.00594 0.0024-0.030168 0-0.035751-0.0024-0.00356-0.0083-0.00712-0.01069-0.010687-0.0036-0.00831 0.0083-0.018291 0-0.025299-0.0011-0.00238-0.0059 0.00238-0.0083 0s0-0.00712 0-0.010687c0-0.00476 4.16e-4 -0.043707 0-0.044183-0.0024-0.00238-0.0083 0.00238-0.01069 0-0.0024-0.00238 0.0024-0.033612 0-0.035751-0.0024-0.00238-0.0059 0.00238-0.0083 0-0.0048-0.00476 0.0048-0.022805 0-0.027317-0.0024-0.00238-0.0059 0.00238-0.0083 0s0.0024-0.00595 0-0.00831c-0.0024-0.00238-0.0083 0.00238-0.01069 0-0.0048-0.00476 0.0048-0.022805 0-0.027317-0.0024-0.00238-0.0059 0.00238-0.0083 0-0.0048-0.00476 0.0048-0.014609 0-0.018885-0.0024-0.00238-0.0048 0-0.0083 0-0.0024 0.00118 1e-3 -4.988e-4 -0.0048 0.00238-0.0059 0.00238-0.0083-0.00118-0.01069-0.00238zm14.695 8.1784c0.01353 0.0036 0.02886 0.0071 0.04204 0.01069l-0.04418-0.02102c7.6e-4 0.0048 0.0012 0.0059 0.0024 0.01069z" fill="#bf2033" transform="scale(.94451)"/>
 <path d="m21.156 7.7442v0.11986h-0.09465v0.22501h-0.1031v0.31965h-0.12617v0.55097h-0.11355v0.35119h-0.09465v1.8716l-0.17875 0.15351-0.02529 0.11988-0.03159 0.09882-0.10095 0.08623h-0.20823v-0.41849h-0.10298v-0.1388h-0.30914v-0.20608h-0.75496v0.10096h-0.20188v0.12408h-0.31124v0.83066l0.01254 0.01686-0.09252 0.06105-1.3017 0.0083 0.0024 0.54256c-0.28768 0.0024-0.57466-0.15447-0.83064-0.28179-0.28859-0.12508-0.67064 0.29216-0.99049 0.22923-0.19165-0.03041-0.86045 0.29299-1.0199 0.3596-0.22285 0.09644 0.09716-0.0652-0.12618 0-0.57403 0.16356-1.0873 0.03694-1.6613 0.16823-0.38329 0.06615-0.76447 0.19591-1.1482 0.26288-0.54277 0.09894-1.0542-0.05534-1.5961 0.10725-0.20975 0.06117-0.39088 0.14738-0.59724 0.15982l-4.5929 0.02313-0.76779-0.46935 0.057248 1.8267 0.68074 0.75445c-0.53098-0.71135-0.73775-2.0519-0.73775-3.052v-0.09882l-0.14721-0.72341c-0.12548 0.6473-0.19348 1.316-0.19348 1.9999 0 3.1485 1.3941 5.972 3.6044 7.8987 0 0 3.0195 1.4713 5.795 1.3784 7.7233-3.8858-2.2624-6.0537-5.7024-6.3876l6.1018 2.8836c4.5557 7.5415 0.23309 3.0685 7.9742 1.9208 1.4063-1.8494 3.4663-5.7421 3.4503-8.2679-7.25e-4 -0.15814-0.0677-0.31472-0.07565-0.47107l-0.23342 0.0024 0.05464-0.03361c-0.01071 0-0.30774-0.03112-0.38273-0.05262-0.20148-0.07409-0.39409-0.13863-0.57411-0.27757-0.11854-0.07862-0.2271-0.16407-0.32596-0.26076l0.01687-0.01473v-1.9452h-0.81805v0.1388h-0.11355v0.12617h-0.34278v-1.3859l-0.09253-0.027318v-0.6435h-0.10309v-0.21871h-0.10939v-0.21871h-0.11355v-0.12618h-0.13879l-0.01254-0.10096z" fill="#003f87" transform="scale(.94451)"/>
 <path d="m4.3668 13.321c-0.21657-0.52266-0.31372-1.115-0.32234-1.7498-0.01207-0.94169 0.68279-1.8168 1.2103-2.511v-0.046083c-1.0351 0.75942-1.7002 1.9942-1.6825 3.3803 0.026796 2.0634 1.1872 3.7583 3.4299 4.0285l4.9743 0.58343c0.61425 0.18494 1.6298 0.21084 2.7185 0.97563 1.7084 1.2021 0.31825 2.6267 0.31825 2.6267-0.44582 0.38597-1.9322 1.283-4.6143 1.4067-2.7961 0.12642-3.3554-0.55751-3.3554-0.55751l0.00965 0.01794c1.8881 1.5903 4.341 2.5369 7.0114 2.5043 3.3904-0.04253 6.3899-1.6564 8.3057-4.1362l0.0024-0.0059s1.5985-2.817-1.3506-4.0375c-2.1415-0.88361-6.2374-0.30064-7.346-0.24882-1.9903 0.09073-3.9338 0.1076-5.5641 0.0059l-0.00483-0.0084c-2.1165-0.18263-3.2424-1.0251-3.7399-2.2295" fill="#fff" transform="scale(.94451)"/>
 <path d="m13.896 24.802c6.122 0 11.084-4.9226 11.084-10.995 0-6.0706-4.9618-10.995-11.084-10.995-6.1211 0-11.083 4.924-11.083 10.995 0 6.072 4.9623 10.995 11.083 10.995z" fill="none" stroke="#003f87" stroke-width="2.329" transform="scale(.94451)"/>
</svg>
