<svg width="20" height="20" xmlns="http://www.w3.org/2000/svg">
 <path d="M2,1.42108547e-14 L18,1.42108547e-14 C19.1045695,1.40079486e-14 20,0.8954305 20,2 L20,18 C20,19.1045695 19.1045695,20 18,20 L2,20 C0.8954305,20 -5.51538359e-14,19.1045695 -5.5067062e-14,18 L-5.5067062e-14,2 C-5.52023328e-14,0.8954305 0.8954305,1.41917162e-14 2,1.42108547e-14 Z"/>
 <path d="M2,10 C4,8 6.66666667,7 10,7 C13.3333333,7 16,8 18,10 L18,12 C15.6666667,9.66666667 13,8.5 10,8.5 C7,8.5 4.33333333,9.66666667 2,12 L2,10 Z" fill="#FFF"/>
 <path d="M9.63495944,1.21394242 C10.4210985,1.53393977 10.4588642,1.79136738 10.2859443,2.05168824 C10.6237473,2.30315054 10.8667824,2.45185058 11.0524787,2.53145149 C11.6728651,2.43923171 11.8571365,2.42028557 12.0412112,2.40721412 C13.3054557,2.94095968 13.5693633,3.24394175 13.6629864,3.40908346 C13.5843528,3.60651174 13.5098785,3.75075581 13.4389636,3.85496891 L13.394,3.914 L13.4698954,3.89525363 C13.697994,3.8502998 13.8515302,3.90109499 14.0053858,3.99385859 L14.0826869,4.04348877 C14.2787361,4.14075352 14.4308245,4.19523561 14.5487097,4.23773277 C14.7903792,4.3248537 14.9300522,4.39994359 15.029335,4.51549697 C15.1225906,4.62403543 15.1940118,4.77276506 15.2218856,5.0503163 C15.251889,5.34940605 15.2486861,5.67746971 15.185597,5.97314401 C15.1540749,6.12062108 15.0906779,6.26175012 15.0089946,6.39711891 L14.992,6.421 L15.0408503,6.38096161 C15.2053435,6.25332959 15.3388851,6.245427 15.4451842,6.26459848 L15.4837766,6.27287591 C16.0854406,7.23805019 16.1564225,7.51044793 16.271653,7.82368787 C16.0839182,8.69893725 15.8726661,9.02947647 15.6972359,9.30314349 C15.4195188,9.8784951 15.3414204,10.0877896 15.2520608,10.2349269 C15.1063716,10.4748152 14.9196013,10.562151 14.7689468,10.5661317 L13.9862336,10.5663858 C13.9835062,10.7419787 13.9817807,10.9635886 13.97994,11.2017874 C13.9434118,13.1111612 13.8534939,15.3094504 13.716458,15.8677506 C13.6607351,16.1190195 13.3895284,16.4049302 13.1305642,16.6309143 C12.679695,17.1190504 12.4481801,17.3481103 12.2714062,17.4079794 C12.1169025,17.4602951 11.9299639,17.449545 11.7360281,17.4201087 C11.1713724,17.6142041 10.8675283,17.7905617 10.6202787,17.93407 C9.58639115,18.5341581 9.43868335,18.5950489 9.20206079,18.6231573 C8.75086121,18.6873012 8.48786434,18.6526884 8.32720289,18.5909965 C6.7923855,16.5904519 6.9496897,16.2853945 7.0108836,16.1203728 C6.8402301,15.0068787 6.01797473,13.5082658 5.89681758,12.8823016 C5.83912927,12.5842523 5.86494009,12.2298478 5.93149277,11.8986221 C6.05300101,11.2938884 6.32135046,10.8043111 6.37876873,10.755979 C6.70582955,10.3896102 6.89761982,10.1042725 6.97219364,9.87881274 C6.4158215,8.60521831 6.3582264,8.34866258 6.30183275,8.09105596 C6.21684457,7.69826643 6.16277799,7.43411116 6.01057086,7.19245574 C5.84357968,6.92730582 5.64304533,6.73413436 5.43942978,6.53387916 C5.31825014,6.4146994 5.19557538,6.29372294 5.07242597,6.15619637 C4.84543141,5.89703778 4.63512938,5.54461354 4.63309689,5.24147818 C4.62479025,4.22797498 4.8800439,3.89833031 5.03974991,3.67554216 C7.2387978,2.50433446 7.76578048,2.36918656 7.99104036,2.31028989 C8.39749281,2.1517319 8.69361132,1.97718042 8.95461026,1.73928641 C9.19794731,1.50866561 9.41613311,1.31376887 9.63495944,1.21394242 Z M12.9221858,4.08007118 C12.6690935,3.99813439 12.5297199,3.9018743 12.4040602,3.98039294 C12.051906,4.22050546 11.8726592,4.33841772 11.6454175,4.40995724 C11.4332887,4.47463287 11.2614841,4.51233081 11.1344173,4.59307824 C11.4230789,5.29532355 11.2169277,5.6370803 11.1428483,5.78642918 C11.0156318,6.10947667 10.9748053,6.45643183 10.9312819,6.79447333 C10.7270146,9.33610736 10.6873559,9.82717793 10.8192047,9.97628467 C11.2093831,9.38756556 11.3099737,9.25675258 11.459724,9.05526888 C11.5773933,8.51996284 11.5007883,8.30234828 11.3975266,8.10142939 C11.196139,7.71306356 11.1453638,7.41774937 11.1633294,7.00853951 C11.1765309,6.70757104 11.2464456,6.506619 11.3296533,6.28003243 C11.5597926,5.38338528 11.6479461,5.05586601 11.951757,4.76971375 C12.3604476,4.47110897 12.6588629,4.27101197 12.8863449,4.13910383 L12.969,4.092 Z" stroke="#000" stroke-width=".75" fill="#FFF"/>
 <path d="M13.0376873,3.72330177 C12.998323,3.71171553 12.9588541,3.69867518 12.9193086,3.68533566 L12.8298472,3.6551825 L12.7923895,3.6429828 C12.5967008,3.58053564 12.3998852,3.54081334 12.2053295,3.66238179 C11.9794198,3.80355673 11.7959607,3.96941699 11.5360544,4.0512586 L11.5032569,4.06147963 L11.387899,4.09657606 C11.1185388,4.17855429 10.8523934,4.26830073 10.6851628,4.51622081 L10.5785649,4.67384023 C10.5252926,4.7528058 10.4723532,4.83214863 10.4210656,4.91251429 L10.3718951,4.99096121 C10.3147719,5.08349426 10.2603041,5.1775811 10.2106216,5.27433409 L10.1875232,5.32031194 L10.1770144,5.34300269 C10.1280621,5.45081338 9.9752833,5.8101243 10.0748128,5.78653697 C10.1602416,5.76625073 10.2885161,5.60833916 10.4270052,5.45042524 L10.4586545,5.41458114 L10.4863216,5.38377322 L10.5105211,5.35736275 L10.5264402,5.34031731 C10.6884087,5.16834479 10.85366,5.03897314 10.9732491,5.15862951 C11.0673992,5.25301673 10.8270021,5.56067921 10.7892482,5.65757555 C10.626888,6.07427408 10.5900372,6.53960528 10.5285109,6.97947628 C10.5067303,7.13510138 10.441803,7.27869925 10.3727817,7.42128665 L10.3372373,7.49434412 C10.2774662,7.61734029 10.2196147,7.74098547 10.1887612,7.87235426 C10.1541142,8.0198758 10.2088485,8.20241433 10.2308144,8.35698355 C10.2514075,8.50177457 10.3415474,8.70412778 10.3440402,8.84139144 C10.3454131,8.91743994 10.3348998,8.98618247 10.319473,9.05130891 C10.3140538,9.08557563 10.307623,9.11011335 10.3001806,9.12492208 C10.296446,9.13764977 10.2925997,9.15027608 10.2886952,9.16282934 L10.2808244,9.18784688 L10.2653709,9.23632058 L10.2577792,9.2604682 C10.212764,9.40531611 10.1789758,9.55032668 10.2423754,9.74105881 C10.3060333,9.93245307 10.4473308,10.1773875 10.6306092,10.3076773 L10.7106519,10.3554089 C10.7341122,10.366929 10.7580695,10.3766936 10.7826006,10.3837627 C10.984196,10.4415832 11.1736884,10.3191897 11.3078325,10.1517059 L11.313473,10.1442756 C11.3261183,10.1281181 11.3502437,10.0992392 11.3661605,10.0778138 C11.4230092,9.9851446 11.4674108,9.88570224 11.4889793,9.7982889 C11.5585261,9.51645561 11.6416571,9.44365421 11.8189383,9.20001121 L11.845681,9.16292145 L11.8622316,9.13944301 C11.9493901,9.01418523 11.9735511,8.94949229 11.9773243,8.7795121 C11.9841311,8.47391595 11.8658942,8.19237107 11.7304301,7.92880185 L11.7204889,7.90954829 C11.5638731,7.60760513 11.5231205,7.36318725 11.5379692,7.02497254 C11.5536849,6.66668486 11.6702707,6.47735694 11.7685394,6.15770234 C11.8945546,5.74816218 11.8740338,5.35806771 12.20887,5.04269338 C12.4143673,5.08379868 12.3447482,5.38976381 12.4646577,5.42134921 C12.584206,5.45293461 12.6165046,5.2190698 12.6170827,5.13914693 C12.6178484,5.03701336 12.6994374,4.93725572 12.7833181,4.84096389 L12.8257647,4.79232869 C12.8810234,4.72856497 12.93133,4.66644281 12.9530028,4.60629087 C12.9910096,4.5007602 12.9711752,4.32615492 13.0011978,4.20889042 L13.0549135,4.20291209 L13.1232474,4.19578273 C13.4173554,4.16689774 13.3307593,3.80957124 13.0376873,3.72330177 Z"/>
 <path d="M18.375,10.2328412 L18.375,13.1537021 C16.2967525,15.2939247 13.5084083,16.375 10,16.375 C6.49159173,16.375 3.7032475,15.2939247 1.625,13.1537021 L1.625,10.2328412 C4.41699423,12.486469 7.20637464,13.625 10,13.625 C12.7936254,13.625 15.5830058,12.486469 18.375,10.2328412 Z" stroke="#000" stroke-width=".75" fill="#FFF"/>
 <path d="M18,0.5 C18.4142136,0.5 18.7892136,0.667893219 19.0606602,0.939339828 C19.3321068,1.21078644 19.5,1.58578644 19.5,2 L19.5,18 C19.5,18.4142136 19.3321068,18.7892136 19.0606602,19.0606602 C18.7892136,19.3321068 18.4142136,19.5 18,19.5 L2,19.5 C1.58578644,19.5 1.21078644,19.3321068 0.939339828,19.0606602 C0.667893219,18.7892136 0.5,18.4142136 0.5,18 L0.5,2 C0.5,1.58578644 0.667893219,1.21078644 0.939339828,0.939339828 C1.21078644,0.667893219 1.58578644,0.5 2,0.5 Z" stroke="#FFF" fill="none"/>
</svg>
