<svg xmlns="http://www.w3.org/2000/svg" width="27" height="20" viewBox="0 0 26 20">
 <path style="stroke:none;fill-rule:nonzero;fill:#fff;fill-opacity:1" d="M 21.667969 0 L 4.332031 0 L 0 6.347656 L 0 13.652344 L 4.332031 20 L 21.667969 20 L 26 13.652344 L 26 6.347656 Z M 21.667969 0"/>
 <path style="stroke:none;fill-rule:nonzero;fill:#0044dc;fill-opacity:1" d="M 21.090619 1 L 4.909381 1 L 1 6.925006 L 1 13.074994 L 4.909381 19 L 21.090619 19 L 25 13.074994 L 25 6.925006 Z M 21.090619 1"/>
 <path style="stroke:none;fill-rule:nonzero;fill:#fff;fill-opacity:1" d="M 20.513269 2 L 5.486731 2 L 2 7.502356 L 2 12.497644 L 5.486731 18 L 20.513269 18 L 24 12.497644 L 24 7.502356 Z M 20.513269 2"/>
 <path style="stroke:none;fill-rule:nonzero;fill:#cb2235;fill-opacity:1" d="M 22.090619 2.732051 L 3.909381 2.732051 L 4.909381 1 L 21.090619 1 Z M 22.090619 2.732051"/>
</svg>
