<svg width="20" height="20" xmlns="http://www.w3.org/2000/svg">
 <g fill="none">
  <rect stroke="#FFF" fill="#693F23" fill-rule="evenodd" x=".5" y=".5" width="19" height="19" rx="2"/>
  <path d="M10.0504484,14 C10.4677563,14 10.8153465,14.0916874 11.257251,14.2799463 L11.4109895,14.3470465 C11.4324599,14.3565787 11.5305047,14.4003052 11.5570396,14.4120718 C12.0530503,14.6320215 12.3385686,14.7126297 12.75,14.7126297 L12.75,16 C12.1212319,16 11.6782847,15.8749461 11.0310277,15.5879282 C11.0028828,15.5754477 10.9044821,15.5315624 10.884447,15.5226674 C10.8304401,15.4986899 10.7884944,15.4803464 10.7487415,15.463411 C10.4536394,15.3376924 10.2628666,15.2873703 10.0504484,15.2873703 C9.76243343,15.2873703 9.49491925,15.365377 8.91352339,15.5974342 C8.26414797,15.8566246 7.99897925,15.9441238 7.60590718,15.9861325 C7.52020766,15.9952914 7.43531344,16 7.35089686,16 C7.07711736,16 6.80232374,15.951665 6.50069854,15.8614661 C6.46301888,15.8501983 6.42715566,15.8391145 6.39155292,15.8276768 L6.36783927,15.8199933 C6.21372942,15.7696329 6.05801797,15.7103807 5.77409544,15.5984567 C5.40137608,15.4515283 5.23171766,15.3908315 5.04092692,15.3426885 C4.89371806,15.3055426 4.76587484,15.2873703 4.65134529,15.2873703 C4.45684794,15.2873703 4.25936569,15.3376367 3.96717094,15.4563015 C3.92171202,15.4747631 3.87340284,15.4950259 3.81463432,15.5201801 C3.7912556,15.5301867 3.76729331,15.5405032 3.73431038,15.554747 C3.71382019,15.5635983 3.71382019,15.5635983 3.69309141,15.5725547 C3.67638512,15.5797719 3.6636455,15.5852708 3.65114973,15.5906563 C2.97984053,15.8799791 2.56874786,16 2,16 L2,14.7126297 C2.3467716,14.7126297 2.61690071,14.6337639 3.13761765,14.4093437 C3.14971122,14.4041316 3.16213855,14.3987675 3.17853171,14.3916856 C3.19913782,14.3827822 3.19913782,14.3827822 3.21989915,14.3738138 C3.25406139,14.3590607 3.27917695,14.3482477 3.30409394,14.3375826 C3.36972067,14.309493 3.42511884,14.2862568 3.47905571,14.2643522 C3.91276787,14.0882149 4.25933938,14 4.65134529,14 C4.88134671,14 5.11327503,14.0329675 5.35799848,14.0947196 C5.40853002,14.1074704 5.45690662,14.1204748 5.50510772,14.1343539 L5.53402315,14.1427913 C5.72686342,14.1998066 5.92322972,14.2728052 6.24980535,14.4015433 C6.85375408,14.6396237 7.09788606,14.7126297 7.35089686,14.7126297 C7.38836561,14.7126297 7.4273998,14.7104647 7.46827306,14.7060964 C7.69920768,14.6814158 7.90015449,14.6151083 8.4326582,14.4025658 C8.77170914,14.2672377 8.9505436,14.2010996 9.16942432,14.1372744 C9.47613808,14.0478372 9.76224533,14 10.0504484,14 Z M6.64755781,8 C9.02297625,8 10.0839339,8.17418351 11.8208999,8.89580093 C13.557866,9.61741835 15,11.8776568 15,12.8729912 C15.0238174,13.5290567 15.0238174,14.571393 15,16 L13.75,16 L13.75,13.179886 C13.75,11.5956454 12.152465,9.83203733 10.5,9.2182478 C8.847535,8.60445827 6.2907756,8.30689476 5.10776088,8.47278383 C4.3190844,8.58337653 3.28316411,8.92578193 2,9.5 C3.51475958,8.5 5.06394552,8 6.64755781,8 Z M9,7 C10.9623022,7 13.25,7.65853659 14.5,8.53658537 C15.75,9.41463415 17.25,11.6222402 17.25,12.8623281 C17.2738174,13.5206308 17.2738174,14.5665214 17.25,16 L16,16 L16,12.8623281 C16,11.9218587 14.7428519,9.56340307 13.25,8.75609756 C11.7571481,7.94879205 10.0985137,7.56386545 9,7.43902439 C8.26765756,7.35579702 6.93432422,7.42896775 5,7.65853659 C6.35846521,7.2195122 7.69179854,7 9,7 Z M10.0504484,12 C10.4677563,12 10.8153465,12.0916874 11.257251,12.2799463 L11.4109895,12.3470465 C11.4324599,12.3565787 11.5305047,12.4003052 11.5570396,12.4120718 C12.0530503,12.6320215 12.3385686,12.7126297 12.75,12.7126297 L12.75,14 C12.1212319,14 11.6782847,13.8749461 11.0310277,13.5879282 C11.0028828,13.5754477 10.9044821,13.5315624 10.884447,13.5226674 C10.8304401,13.4986899 10.7884944,13.4803464 10.7487415,13.463411 C10.4536394,13.3376924 10.2628666,13.2873703 10.0504484,13.2873703 C9.76243343,13.2873703 9.49491925,13.365377 8.91352339,13.5974342 C8.26414797,13.8566246 7.99897925,13.9441238 7.60590718,13.9861325 C7.52020766,13.9952914 7.43531344,14 7.35089686,14 C7.07711736,14 6.80232374,13.951665 6.50069854,13.8614661 C6.46301888,13.8501983 6.42715566,13.8391145 6.39155292,13.8276768 L6.36783927,13.8199933 C6.21372942,13.7696329 6.05801797,13.7103807 5.77409544,13.5984567 C5.40137608,13.4515283 5.23171766,13.3908315 5.04092692,13.3426885 C4.89371806,13.3055426 4.76587484,13.2873703 4.65134529,13.2873703 C4.45684794,13.2873703 4.25936569,13.3376367 3.96717094,13.4563015 C3.92171202,13.4747631 3.87340284,13.4950259 3.81463432,13.5201801 C3.7912556,13.5301867 3.76729331,13.5405032 3.73431038,13.554747 C3.71382019,13.5635983 3.71382019,13.5635983 3.69309141,13.5725547 C3.67638512,13.5797719 3.6636455,13.5852708 3.65114973,13.5906563 C2.97984053,13.8799791 2.56874786,14 2,14 L2,12.7126297 C2.3467716,12.7126297 2.61690071,12.6337639 3.13761765,12.4093437 C3.14971122,12.4041316 3.16213855,12.3987675 3.17853171,12.3916856 C3.19913782,12.3827822 3.19913782,12.3827822 3.21989915,12.3738138 C3.25406139,12.3590607 3.27917695,12.3482477 3.30409394,12.3375826 C3.36972067,12.309493 3.42511884,12.2862568 3.47905571,12.2643522 C3.91276787,12.0882149 4.25933938,12 4.65134529,12 C4.88134671,12 5.11327503,12.0329675 5.35799848,12.0947196 C5.40853002,12.1074704 5.45690662,12.1204748 5.50510772,12.1343539 L5.53402315,12.1427913 C5.72686342,12.1998066 5.92322972,12.2728052 6.24980535,12.4015433 C6.85375408,12.6396237 7.09788606,12.7126297 7.35089686,12.7126297 C7.38836561,12.7126297 7.4273998,12.7104647 7.46827306,12.7060964 C7.69920768,12.6814158 7.90015449,12.6151083 8.4326582,12.4025658 C8.77170914,12.2672377 8.9505436,12.2010996 9.16942432,12.1372744 C9.47613808,12.0478372 9.76224533,12 10.0504484,12 Z M10.0504484,10 C10.7060538,10 11.6059043,10.6666667 12.75,12 C12.1212319,12 11.6782847,11.8749461 11.0310277,11.5879282 C11.0028828,11.5754477 10.9044821,11.5315624 10.884447,11.5226674 C10.8304401,11.4986899 10.7884944,11.4803464 10.7487415,11.463411 C10.4536394,11.3376924 10.2628666,11.2873703 10.0504484,11.2873703 C9.76243343,11.2873703 9.49491925,11.365377 8.91352339,11.5974342 C8.26414797,11.8566246 7.99897925,11.9441238 7.60590718,11.9861325 C7.52020766,11.9952914 7.43531344,12 7.35089686,12 C7.07711736,12 6.80232374,11.951665 6.50069854,11.8614661 C6.46301888,11.8501983 6.42715566,11.8391145 6.39155292,11.8276768 L6.36783927,11.8199933 C6.21372942,11.7696329 6.05801797,11.7103807 5.77409544,11.5984567 C5.40137608,11.4515283 5.23171766,11.3908315 5.04092692,11.3426885 C4.89371806,11.3055426 4.76587484,11.2873703 4.65134529,11.2873703 C4.45684794,11.2873703 4.25936569,11.3376367 3.96717094,11.4563015 C3.92171202,11.4747631 3.87340284,11.4950259 3.81463432,11.5201801 C3.7912556,11.5301867 3.76729331,11.5405032 3.73431038,11.554747 C3.71382019,11.5635983 3.71382019,11.5635983 3.69309141,11.5725547 C3.67638512,11.5797719 3.6636455,11.5852708 3.65114973,11.5906563 C2.97984053,11.8799791 2.56874786,12 2,12 L2,10.7126297 C2.3467716,10.7126297 2.61690071,10.6337639 3.13761765,10.4093437 C3.14971122,10.4041316 3.16213855,10.3987675 3.17853171,10.3916856 C3.19913782,10.3827822 3.19913782,10.3827822 3.21989915,10.3738138 C3.25406139,10.3590607 3.27917695,10.3482477 3.30409394,10.3375826 C3.36972067,10.309493 3.42511884,10.2862568 3.47905571,10.2643522 C3.91276787,10.0882149 4.25933938,10 4.65134529,10 C4.88134671,10 5.11327503,10.0329675 5.35799848,10.0947196 C5.40853002,10.1074704 5.45690662,10.1204748 5.50510772,10.1343539 L5.53402315,10.1427913 C5.72686342,10.1998066 5.92322972,10.2728052 6.24980535,10.4015433 C6.85375408,10.6396237 7.09788606,10.7126297 7.35089686,10.7126297 C7.38836561,10.7126297 7.4273998,10.7104647 7.46827306,10.7060964 C7.69920768,10.6814158 7.90015449,10.6151083 8.4326582,10.4025658 C8.77170914,10.2672377 8.9505436,10.2010996 9.16942432,10.1372744 C9.47613808,10.0478372 9.76224533,10 10.0504484,10 Z M13.2300877,3.5 C14.6234078,3.5 16.3229413,6.96756668 16.4983242,7.32760085 C16.5674145,7.46943249 16.8483781,8.14710837 17.1504579,8.88583747 L17.3606194,9.40118443 C17.6959339,10.2255267 18.0029492,10.9899291 18.0196937,11.042349 L18.019,11.043 L18.0131242,11.0302252 C18.0098783,11.0229234 18.0055213,11.0128926 18,11 C17.7856431,10.4994647 16.1280713,8.69748696 15.4460265,8.2584209 C14.7639817,7.81935484 12.2988768,6.47581269 8.91788321,6.47581269 C6.66388746,6.47581269 4.35792639,6.98387512 2,8 C2.18187862,7.92054939 2.43520955,7.75203137 2.7599928,7.49444595 C2.92238443,7.36565324 3.03305048,7.17131511 3.13477468,6.96943882 L3.2552898,6.72728141 C3.41755561,6.40948033 3.60074084,6.13178096 3.98008768,6.13178096 C4.69136299,6.13178096 4.45436414,6.5 5,6.5 C5.54563586,6.5 5.65564665,5.34659453 6.25,5.25 C6.84435335,5.15340547 6.78872468,5.75 7.5,5.75 C8.21127532,5.75 8.1129164,4.46507353 8.98008768,4.37726032 C9.84725895,4.28944711 10.2205202,5.5 11,5.5 C11.7794798,5.5 11.8367675,3.5 13.2300877,3.5 Z" fill="#FFF"/>
 </g>
</svg>
