<svg viewBox="0 0 600 600" width="20" height="20" xmlns="http://www.w3.org/2000/svg">
 <path d="m600 300a300 300 0 1 1-600 0 300 300 0 1 1 600 0z" style="fill:#006747"/>
 <path style="color:#000;fill:#006747;fill-rule:evenodd;stroke-width:30;stroke-linecap:round;stroke-linejoin:round;-inkscape-stroke:none" d="M 555,300 A 255,255 0 0 1 300,555 255,255 0 0 1 45,300 255,255 0 0 1 300,45 255,255 0 0 1 555,300 Z"/>
 <path style="color:#000;fill:#fff;fill-rule:evenodd;stroke-width:.0333333;stroke-linecap:round;stroke-linejoin:round;-inkscape-stroke:none" d="M 10 1 C 5.0353647 1 1 5.0353647 1 10 C 1 14.964635 5.0353647 19 10 19 C 14.964635 19 19 14.964635 19 10 C 19 5.0353647 14.964635 1 10 1 z M 10 2 C 14.424196 2 18 5.575804 18 10 C 18 14.424196 14.424196 18 10 18 C 5.575804 18 2 14.424196 2 10 C 2 5.575804 5.575804 2 10 2 z M 9.1640625 3.5 C 9.1173375 3.5581267 8.8176945 3.8131534 8.4296875 3.9960938 C 8.0416808 4.1790341 7.565435 4.2896135 7.1660156 4.0546875 L 7.0625 4.0078125 L 7 3.9628906 L 7 4.4550781 L 7.1660156 4.53125 L 7.2675781 4.5761719 A 0.250025 0.250025 0 0 1 7.2929688 4.5898438 C 7.5882351 4.7635108 7.9707613 4.6872144 8.3222656 4.5214844 C 8.4980853 4.4385877 8.6585648 4.3364227 8.7773438 4.25 C 8.8367331 4.2067883 8.8849842 4.1667421 8.9199219 4.1367188 C 8.9548599 4.1066954 8.9827757 4.076302 8.96875 4.09375 A 0.250025 0.250025 0 0 1 9.1640625 4 L 12.751953 4 A 0.250025 0.250025 0 0 1 12.923828 4.0683594 C 13.194198 4.3232277 13.449321 4.5062265 14 4.6171875 L 14 3.5 L 9.1640625 3.5 z M 9.2636719 4.5 C 9.2575719 4.50525 9.2529017 4.50977 9.2460938 4.515625 C 9.1995458 4.555625 9.1402225 4.6034299 9.0703125 4.6542969 C 8.9304918 4.7560295 8.7473429 4.8726129 8.5351562 4.9726562 C 8.1106479 5.1728069 7.5426335 5.3157166 7.0390625 5.0195312 L 7.0625 5.0332031 L 7 5.0039062 L 7 11.628906 C 6.905532 11.711386 6.7870901 11.83068 6.7832031 11.941406 C 6.7793131 12.052138 6.9674099 12.215101 6.9355469 12.435547 C 6.7824082 12.402077 6.6925108 12.580481 6.6269531 12.695312 C 6.6789841 12.949986 6.5363431 13.250799 6.7988281 13.455078 C 6.5461298 13.513318 6.2981309 13.576065 6.3007812 13.964844 C 6.4856889 14.149925 6.4471183 14.351453 6.4003906 14.552734 C 5.6666633 15.359035 5.856246 16.046787 5.875 16.314453 C 6.0916367 16.211042 6.2818851 16.119723 6.4335938 16.134766 C 6.6751287 16.083776 6.8368167 16.163976 7.1933594 16.337891 C 7.6392867 16.037107 7.7528098 16.1007 8.0078125 16.089844 C 8.4006528 16.073114 8.5275017 16.121022 8.7714844 16.169922 C 9.015457 16.218822 9.1633198 15.881808 9.4023438 15.787109 C 9.7030531 15.667967 9.9681208 15.753479 10.277344 15.619141 C 10.586586 15.484798 10.637801 15.026321 10.806641 14.689453 C 11.238603 14.559216 11.476522 14.276492 11.677734 13.976562 L 13.099609 13.935547 C 13.733185 13.749524 14.027438 13.5439 14 13.21875 C 13.97255 12.8936 13.785228 12.853559 13.666016 12.677734 C 13.805615 12.632324 13.756878 12.428263 13.648438 12.416016 C 13.650537 11.951852 14.035511 11.86136 14 11.353516 L 14 5.1210938 C 13.311957 4.9942014 12.912685 4.740807 12.65625 4.5 L 9.2636719 4.5 z" transform="scale(30)"/>
</svg>
