<svg width="20" height="20" version="1.0" xmlns="http://www.w3.org/2000/svg">
 <path d="m 2.2553153,18.499959 c 0,0 -0.7526637,-1.801903 -0.364028,-3.743467 C 1.7762429,14.23416 1.3442763,12.450961 1.8056904,10.719239 1.9393369,10.463614 1.4433379,9.5929184 1.4114529,9.2704347 1.2945109,8.0878938 0.7136972,1.1323506 0.57350009,0.5 H 12.933859 c 0,0 -0.09121,0.8288416 -0.120737,0.9792835 -0.217371,1.1079509 0.318002,1.0840295 0.500642,1.0938201 0.470483,0.025197 0.272269,-0.00429 0.579461,0.079203 0.313481,0.1139442 0.253809,0.3187794 0.975122,1.2912467 0.672371,1.0330579 1.099674,1.0733305 1.781584,1.936214 1.166189,1.0621268 3.028015,2.7855722 2.748327,3.8311459 -0.792179,2.2393188 -1.285089,3.7292028 -1.530662,5.9828538 -0.13619,1.434876 -0.788141,2.822483 -1.513503,2.806233 -0.560233,-0.01358 -0.338511,0.319951 -0.549887,0.637246 -0.123281,0.185052 -0.309241,0.360869 -0.596368,0.362504 -0.274964,0.0016 -0.485693,-0.03989 -0.656776,-0.321706 -0.2594,-0.427273 0.07827,-0.708122 -0.676106,-0.678044 l -11.6195044,4.1e-5" fill="#fff" fill-rule="evenodd" stroke="#000" stroke-linecap="round" stroke-width="1.176" style="stroke:#000;stroke-width:1;stroke-miterlimit:4;stroke-dasharray:none;stroke-opacity:1"/>
</svg>
