<?xml version="1.0" encoding="UTF-8"?>
<svg width="20px" height="20px" viewBox="0 0 20 20" version="1.1" xmlns="http://www.w3.org/2000/svg" xmlns:xlink="http://www.w3.org/1999/xlink">
    <path d="M2,1.42108547e-14 L18,1.42108547e-14 C19.1045695,1.40079486e-14 20,0.8954305 20,2 L20,18 C20,19.1045695 19.1045695,20 18,20 L2,20 C0.8954305,20 -5.51538359e-14,19.1045695 -5.5067062e-14,18 L-5.5067062e-14,2 C-5.52023328e-14,0.8954305 0.8954305,1.41917162e-14 2,1.42108547e-14 Z" fill="#006747" fill-rule="nonzero"></path>
    <path d="M18,1.42108547e-14 C19.1045695,1.42108547e-14 20,0.8954305 20,2 L20,18 C20,19.1045695 19.1045695,20 18,20 L2,20 C0.8954305,20 0,19.1045695 0,18 L0,2 C0,0.8954305 0.8954305,1.42108547e-14 2,1.42108547e-14 L18,1.42108547e-14 Z M18,1 L2,1 C1.44771525,1 1,1.44771525 1,2 L1,18 C1,18.5522847 1.44771525,19 2,19 L18,19 C18.5522847,19 19,18.5522847 19,18 L19,2 C19,1.44771525 18.5522847,1 18,1 Z" fill="#FFFFFF" fill-rule="nonzero"></path>
    <path d="M17.6521739,10.2551985 L18,10 L18,12 C17.5461818,12.4538182 17.0580385,12.8561486 16.53557,13.2069913 C14.8473301,14.3405603 12.8011826,14.9365565 10.3968,14.9952 L10,15 C6.66666667,15 4,14 2,12 L2,10 C4.66666667,12 7.33333333,13 10,13 L10.3478261,12.9943289 C12.5507246,12.9224953 14.7536232,12.168242 16.9565217,10.731569 L17.3043478,10.4990548 L17.6521739,10.2551985 Z M10.5699241,4.56496097 C10.7880951,4.41448531 11.2080164,4.56366966 11.4403657,4.62979236 C11.7600629,4.72075379 12.0625798,4.86340563 12.3757666,4.97464824 C12.6294193,5.06473614 12.9239791,5.09967748 13.1475393,5.26177494 C13.3808289,5.4309746 13.3950433,5.67358907 13.500946,5.92755947 C13.5754057,6.1061148 13.6560544,6.28477142 13.745882,6.45723874 L13.8878812,6.71051144 C13.9500096,6.81312575 14.0563471,7.05109403 14.1750802,7.29261419 L14.2475529,7.4368981 C14.3699716,7.67456693 14.498423,7.88942722 14.6010935,7.94967687 C14.7180774,8.01832522 14.827381,8.03949298 14.9356954,8.04028855 L15.0439278,8.0352974 L15.2643617,8.00866709 L15.4206756,7.99789882 L15.5,8 C15.6927546,8.01280459 15.8419773,8.12522845 15.971684,8.26132596 L16.103031,8.41015284 L16.1195015,8.43114581 C16.2535436,8.5935471 16.3477275,8.86597565 16.4696891,9.05188639 C16.6252879,9.28903177 16.6149103,9.58572834 16.6503558,9.76544838 C16.665149,9.84041178 16.7075329,9.90320322 16.7571371,9.962481 C16.4767757,10.1526941 16.1968977,10.3294879 15.9173664,10.494565 C15.7338748,10.1731433 15.3426468,9.95800254 15,10 L14.9402591,10.010388 L15,10 C14.4352221,10.069313 14.3269721,10.8727472 13.8299386,11.1046894 L13.341658,11.3325677 L12.7635337,11.3705094 C12.5104959,11.3871445 12.163889,11.1816742 11.9863357,11.009892 L11.7844,10.8165989 L11.5798331,10.6264107 C11.3350417,10.403014 11.0841378,10.1646532 10.7830315,10.0278503 C10.5357083,9.91554425 10.115787,9.96374051 9.92029389,9.76601808 C9.68320653,9.52625209 10.3076993,9.21538807 10.4844569,9.09165013 L10.5983931,9.01292551 C10.6994147,8.93988785 10.6947511,8.91198917 10.6471809,8.71200483 C10.628362,8.63289015 10.5518919,8.59360158 10.4444526,8.58340179 L10.3584833,8.58103832 C10.1159708,8.58838533 9.77626363,8.70135006 9.55281752,8.83403368 C9.3747217,8.93976922 9.21839957,9.14280882 9.06175192,9.28287803 C8.1067474,10.1368901 6.92337224,10.6224228 5.70241755,10.8766211 L5.58402972,10.8889916 C5.01501809,10.878996 5.40386641,9.70260758 4.81222777,9.71926504 C4.45632506,9.72929211 4.13261362,10.1191598 3.79067746,10.3190975 C3.55525212,10.1721889 3.31972723,10.0182096 3.08394355,9.85591807 C3.39723745,9.31532979 4.50285222,8.61282278 4.7096165,8.4839366 C5.05206396,8.27045258 5.43042717,8.05081584 5.82231757,7.95898087 C6.21207399,7.86763964 7,8 7.5,7.5 C7.69427566,7.30572434 7.9283977,7.0716023 7.98647583,6.68560245 L7.99021476,6.65861925 L8,6.5 C8,5.87284282 8.98002645,6.59835049 9.43306647,6.51945625 L9.45196384,6.51562102 L9.5,6.5 C9.72366266,6.40356316 9.4982022,5.75909887 9.45907225,5.47540006 L9.45349763,5.40765505 L9.45349763,5.10393121 C9.45349763,5.01618286 9.47467527,4.97196991 9.50979559,4.9567452 L9.54929552,4.95064447 C9.58463593,4.95265773 9.62754829,4.97052221 9.67418276,4.99649707 C9.83856099,5.08805388 10.049184,5.28037723 10.1374522,5.23446752 C10.2063488,5.19864721 10.2535264,5.14081727 10.2908154,5.07300011 L10.3243557,5.00432924 L10.402747,4.80652569 C10.4427517,4.70929016 10.4897728,4.62023983 10.5699241,4.56496097 Z M18,8 L18,9.06291234 L17.4470574,9.47669238 L17.3590885,9.39585631 C17.3433576,9.2801974 17.3308427,9.21679088 17.3039152,9.11450474 C17.2742026,9.00163943 17.2349804,8.89401705 17.1835049,8.79117686 L17.0607613,8.57801726 L16.9914832,8.44076847 C16.87393,8.20271761 16.8113149,8.09110934 16.6979248,7.95372933 C16.3255991,7.50264096 16.054215,7.28516322 15.5497126,7.25164937 C15.4310206,7.24378536 15.3384423,7.24662458 15.2168204,7.25939468 L15.017,7.284 L14.8523599,6.96900554 L14.6091155,6.47241849 C14.5742698,6.403617 14.5450705,6.34786602 14.5294517,6.32206927 C14.4147118,6.13262036 14.3066785,5.91109175 14.1931687,5.63889406 C15.6568549,6.13857083 16.9247706,6.92477064 18,8 Z M8.70490084,5.05310723 L8.704906,5.51380868 L8.71,5.569 L8.67198684,5.55770588 C8.51330616,5.51186918 8.40450896,5.49551751 8.25708576,5.49266644 C7.7207892,5.48229483 7.30829596,5.8385642 7.2556804,6.38098377 L7.25,6.5 C7.25,6.61921296 7.22345677,6.69265336 7.11182832,6.82027959 L7.02435181,6.91359224 C6.77280512,6.9864101 6.52400567,7.06884331 6.27795346,7.16089186 L5.91287552,7.18674658 C5.81350647,7.19637982 5.73739728,7.20856183 5.65119941,7.2287627 C5.21518954,7.33093656 4.84448919,7.51605312 4.3128468,7.84748251 C3.88658679,8.11319099 3.42698501,8.43474525 3.0389738,8.78181439 C2.79638579,8.99880506 2.60561778,9.20535426 2.47115432,9.41804447 L2.45,9.4 L2,9.06291234 L2,8 C3.7338992,6.2661008 5.96886615,5.2838032 8.70490084,5.05310723 Z" fill="#FFFFFF"></path>
</svg>