<svg viewBox="0 0 30 29" xmlns="http://www.w3.org/2000/svg" xml:space="preserve" style="fill-rule:evenodd;clip-rule:evenodd;stroke-linejoin:round">
 <path d="M25.865,2.271L23.932,2.271L22.432,-0.753L20.744,-0.753L20.744,2.271L19.057,2.271L19.057,-6.132L22.971,-6.132C23.362,-6.132 23.733,-6.077 24.084,-5.968C24.436,-5.858 24.744,-5.692 25.01,-5.47C25.276,-5.247 25.485,-4.97 25.637,-4.638C25.789,-4.306 25.865,-3.913 25.865,-3.46C25.865,-2.827 25.731,-2.31 25.461,-1.907C25.192,-1.505 24.791,-1.202 24.26,-0.999L25.865,2.271ZM24.131,-3.425C24.131,-3.808 24.026,-4.083 23.815,-4.251C23.604,-4.419 23.311,-4.503 22.936,-4.503L20.744,-4.503L20.744,-2.335L22.936,-2.335C23.733,-2.335 24.131,-2.698 24.131,-3.425Z" style="fill-rule:nonzero" transform="matrix(.60865 0 0 .58208 7.401 4.57)"/>
 <path d="M22.321,2.754L22.473,3.062C22.756,3.631 23.318,3.989 23.932,3.989L25.865,3.989C26.438,3.989 26.969,3.677 27.268,3.166C27.566,2.655 27.589,2.018 27.327,1.486L26.397,-0.409C26.549,-0.568 26.685,-0.74 26.807,-0.922C27.249,-1.582 27.508,-2.421 27.508,-3.46C27.508,-4.2 27.367,-4.838 27.118,-5.381C26.856,-5.952 26.494,-6.427 26.038,-6.81C25.611,-7.168 25.117,-7.439 24.553,-7.614C24.053,-7.77 23.526,-7.85 22.971,-7.85L19.057,-7.85C18.149,-7.85 17.414,-7.081 17.414,-6.132L17.414,2.271C17.414,3.219 18.149,3.989 19.057,3.989L20.744,3.989C21.491,3.989 22.122,3.468 22.321,2.754ZM25.865,2.271L23.932,2.271L22.432,-0.753L20.744,-0.753L20.744,2.271L19.057,2.271L19.057,-6.132L22.971,-6.132C23.362,-6.132 23.733,-6.077 24.084,-5.968C24.436,-5.858 24.744,-5.692 25.01,-5.47C25.276,-5.247 25.485,-4.97 25.637,-4.638C25.789,-4.306 25.865,-3.913 25.865,-3.46C25.865,-2.827 25.731,-2.31 25.461,-1.907C25.192,-1.505 24.791,-1.202 24.26,-0.999L25.865,2.271ZM24.131,-3.425C24.131,-3.808 24.026,-4.083 23.815,-4.251C23.604,-4.419 23.311,-4.503 22.936,-4.503L20.744,-4.503L20.744,-2.335L22.936,-2.335C23.733,-2.335 24.131,-2.698 24.131,-3.425Z" style="fill:#fff" transform="matrix(.60865 0 0 .58208 7.401 4.57)"/>
 <path d="M35.487,2.271L33.811,2.271L33.811,-0.811C33.811,-0.921 33.813,-1.065 33.817,-1.245C33.82,-1.425 33.822,-1.604 33.822,-1.784C33.822,-1.972 33.824,-2.145 33.828,-2.306C33.832,-2.466 33.834,-2.585 33.834,-2.663C33.772,-2.507 33.686,-2.296 33.576,-2.03C33.467,-1.765 33.354,-1.511 33.237,-1.269L31.537,2.458L29.838,-1.269C29.729,-1.511 29.619,-1.763 29.51,-2.024C29.401,-2.286 29.311,-2.499 29.24,-2.663C29.24,-2.585 29.242,-2.466 29.246,-2.306C29.25,-2.145 29.252,-1.972 29.252,-1.784C29.252,-1.597 29.254,-1.417 29.258,-1.245C29.262,-1.073 29.264,-0.929 29.264,-0.811L29.264,2.271L27.623,2.271L27.623,-6.132L29.24,-6.132L30.998,-2.323C31.053,-2.206 31.108,-2.081 31.162,-1.948C31.217,-1.815 31.272,-1.685 31.326,-1.556C31.381,-1.427 31.43,-1.308 31.473,-1.198C31.516,-1.089 31.549,-0.995 31.572,-0.917C31.627,-1.073 31.707,-1.286 31.813,-1.556C31.918,-1.825 32.026,-2.081 32.135,-2.323L33.834,-6.132L35.487,-6.132L35.487,2.271Z" style="fill-rule:nonzero" transform="matrix(.60865 0 0 .58208 7.401 4.57)"/>
 <path d="M30.308,3.597C30.615,3.96 31.06,4.176 31.537,4.176C32.015,4.176 32.46,3.96 32.767,3.597C33.051,3.842 33.414,3.989 33.811,3.989L35.487,3.989C36.394,3.989 37.129,3.219 37.129,2.271L37.129,-6.132C37.129,-7.081 36.394,-7.85 35.487,-7.85L33.834,-7.85C33.196,-7.85 32.615,-7.463 32.345,-6.858L31.551,-5.078L30.72,-6.878C30.446,-7.472 29.871,-7.85 29.24,-7.85L27.623,-7.85C26.716,-7.85 25.98,-7.081 25.98,-6.132L25.98,2.271C25.98,3.219 26.716,3.989 27.623,3.989L29.264,3.989C29.66,3.989 30.024,3.842 30.308,3.597ZM35.487,2.271L33.811,2.271L33.811,-0.811L33.834,-2.663C33.772,-2.507 33.686,-2.296 33.576,-2.03C33.467,-1.765 33.354,-1.511 33.237,-1.269L31.537,2.458L29.838,-1.269C29.729,-1.511 29.619,-1.763 29.51,-2.024C29.401,-2.286 29.311,-2.499 29.24,-2.663L29.264,-0.811L29.264,2.271L27.623,2.271L27.623,-6.132L29.24,-6.132L30.998,-2.323L31.473,-1.198C31.516,-1.089 31.549,-0.995 31.572,-0.917C31.627,-1.073 31.707,-1.286 31.813,-1.556C31.918,-1.825 32.026,-2.081 32.135,-2.323L33.834,-6.132L35.487,-6.132L35.487,2.271Z" style="fill:#fff" transform="matrix(.60865 0 0 .58208 7.401 4.57)"/>
 <path d="M22.969,10.893C22.931,10.673 22.735,10.404 22.545,10.289C22.486,9.864 22.383,9.481 22,9.284L21.983,6.397C21.499,6.326 21.003,6.099 20.555,6.015C20.026,5.564 19.524,5.608 18.888,5.677C18.539,5.88 18.129,5.996 17.76,6.044C17.41,5.772 16.903,5.714 16.503,5.907C15.942,6.026 15.266,5.864 14.801,5.483C14.132,5.604 13.607,5.493 13.077,5.182C12.933,4.956 12.62,4.963 12.495,5.074C12.249,4.934 11.289,4.785 11,4.823L11,1L6,1L6,10L1,10C1.131,10.848 1.718,11.39 2.502,11.733C2.98,11.934 3.394,12.321 3.63,12.71C3.8,12.943 3.896,13.239 3.975,13.515C4.023,13.858 4.108,14.154 4.284,14.456C4.66,15.09 5.017,15.33 5.699,15.598C6.317,16.076 6.803,16 7.171,15.49C7.183,14.977 7.457,14.531 7.933,14.298C8.958,14.068 10.079,14.539 10.627,15.411C11.164,16.598 11.97,17.765 12.89,18.716C13.058,19.556 13.35,20.224 13.888,20.914C14.414,20.987 15.019,21.24 15.447,21.553C15.877,21.436 16.299,21.515 16.675,21.747C16.999,22.002 17.481,21.797 17.509,21.402C16.739,20.473 16.56,19.164 17.056,18.04C17.201,17.738 17.358,17.481 17.581,17.229C17.828,16.94 17.861,16.973 18.17,16.769C18.847,16.347 19.525,15.929 20.21,15.519C20.108,15.071 20.754,14.342 20.986,14.657C21.461,14.276 21.987,13.96 22.545,13.716L22.545,13.709C22.74,13.383 22.836,13.035 22.854,12.653L22.66,11.848C22.929,11.605 23.05,11.248 22.969,10.893L22.969,10.893Z" style="fill:#fff;fill-rule:nonzero;stroke:#000;stroke-width:1.62px" transform="translate(-.238 .762) scale(1.23797)"/>
 <path d="M22.969,10.893C22.931,10.673 22.735,10.404 22.545,10.289C22.486,9.864 22.383,9.481 22,9.284L21.983,6.397C21.499,6.326 21.003,6.099 20.555,6.015C20.026,5.564 19.524,5.608 18.888,5.677C18.539,5.88 18.129,5.996 17.76,6.044C17.41,5.772 16.903,5.714 16.503,5.907C15.942,6.026 15.266,5.864 14.801,5.483C14.132,5.604 13.607,5.493 13.077,5.182C12.933,4.956 12.62,4.963 12.495,5.074C12.249,4.934 11.289,4.785 11,4.823L11,1L6,1L6,10L1,10C1.131,10.848 1.718,11.39 2.502,11.733C2.98,11.934 3.394,12.321 3.63,12.71C3.8,12.943 3.896,13.239 3.975,13.515C4.023,13.858 4.108,14.154 4.284,14.456C4.66,15.09 5.017,15.33 5.699,15.598C6.317,16.076 6.803,16 7.171,15.49C7.183,14.977 7.457,14.531 7.933,14.298C8.958,14.068 10.079,14.539 10.627,15.411C11.164,16.598 11.97,17.765 12.89,18.716C13.058,19.556 13.35,20.224 13.888,20.914C14.414,20.987 15.019,21.24 15.447,21.553C15.877,21.436 16.299,21.515 16.675,21.747C16.999,22.002 17.481,21.797 17.509,21.402C16.739,20.473 16.56,19.164 17.056,18.04C17.201,17.738 17.358,17.481 17.581,17.229C17.828,16.94 17.861,16.973 18.17,16.769C18.847,16.347 19.525,15.929 20.21,15.519C20.108,15.071 20.754,14.342 20.986,14.657C21.461,14.276 21.987,13.96 22.545,13.716L22.545,13.709C22.74,13.383 22.836,13.035 22.854,12.653L22.66,11.848C22.929,11.605 23.05,11.248 22.969,10.893L22.969,10.893Z" style="fill:#fff" transform="translate(-.238 .762) scale(1.23797)"/>
</svg>
