<svg width="20" height="20" xmlns="http://www.w3.org/2000/svg" xmlns:xlink="http://www.w3.org/1999/xlink">
 <defs>
  <path id="a" d="M0 0H12V4H0z"/>
  <path id="c" d="M0 0H12V4H0z"/>
 </defs>
 <g fill="none" fill-rule="evenodd">
  <path d="M16,0.5 C16.4142136,0.5 16.7892136,0.667893219 17.0606602,0.939339828 C17.3321068,1.21078644 17.5,1.58578644 17.5,2 L17.5,18 C17.5,18.4142136 17.3321068,18.7892136 17.0606602,19.0606602 C16.7892136,19.3321068 16.4142136,19.5 16,19.5 L4,19.5 C3.58578644,19.5 3.21078644,19.3321068 2.93933983,19.0606602 C2.66789322,18.7892136 2.5,18.4142136 2.5,18 L2.5,2 C2.5,1.58578644 2.66789322,1.21078644 2.93933983,0.939339828 C3.21078644,0.667893219 3.58578644,0.5 4,0.5 Z" stroke="#000" fill="#FFF" fill-rule="nonzero"/>
  <path d="M7.35,12.7 C7.8263456,12.0648725 8.72737254,11.9361544 9.3625,12.4125 C9.47147064,12.494228 9.56827202,12.5910294 9.65,12.7 L9.5847627,12.621501 C9.10895334,12.8635464 8.57041189,13 8,13 C7.67234243,13 7.35520087,12.9549756 7.05442477,12.8707762 C7.12791521,12.8624346 7.19950502,12.8347462 7.2625,12.7875 C7.29566498,12.7626263 7.32512627,12.733165 7.35,12.7 Z M5.70326134,12.139172 C5.93502198,12.1720569 6.16200913,12.2621318 6.3625,12.4125 C6.47147064,12.494228 6.56827202,12.5910294 6.65,12.7 C6.66317952,12.7175727 6.67742723,12.7338716 6.69258522,12.7488743 C6.36570608,12.616156 6.06157059,12.4353872 5.79100722,12.2149814 Z M8,6 C9.93299662,6 11.5,7.56700338 11.5,9.5 C11.5,10.3170681 11.2200218,11.0687437 10.7507697,11.6643226 C10.124476,12.0472457 9.29877026,11.8983603 8.85,11.3 C8.82512627,11.266835 8.79566498,11.2373737 8.7625,11.2125 C8.56920034,11.0675253 8.29497475,11.1067003 8.15,11.3 C8.06827202,11.4089706 7.97147064,11.505772 7.8625,11.5875 C7.22737254,12.0638456 6.3263456,11.9351275 5.85,11.3 C5.82512627,11.266835 5.79566498,11.2373737 5.7625,11.2125 C5.56920034,11.0675253 5.29497475,11.1067003 5.15,11.3 C5.12275734,11.3363235 5.09383986,11.371295 5.06335511,11.4048067 L4.9778526,11.266517 C4.67411149,10.7479985 4.5,10.1443322 4.5,9.5 C4.5,7.56700338 6.06700338,6 8,6 Z" fill="#F38F00"/>
  <g transform="translate(4 13)">
   <mask id="b" fill="#fff">
    <use xlink:href="#a"/>
   </mask>
   <path d="M-1.5,1 L-0.75,2 C-0.439339828,2.41421356 0.148286438,2.49816017 0.5625,2.1875 C0.633567812,2.13419914 0.696699141,2.07106781 0.75,2 C1.06066017,1.58578644 1.64828644,1.50183983 2.0625,1.8125 C2.13356781,1.86580086 2.19669914,1.92893219 2.25,2 C2.56066017,2.41421356 3.14828644,2.49816017 3.5625,2.1875 C3.63356781,2.13419914 3.69669914,2.07106781 3.75,2 C4.06066017,1.58578644 4.64828644,1.50183983 5.0625,1.8125 C5.13356781,1.86580086 5.19669914,1.92893219 5.25,2 C5.56066017,2.41421356 6.14828644,2.49816017 6.5625,2.1875 C6.63356781,2.13419914 6.69669914,2.07106781 6.75,2 C7.06066017,1.58578644 7.64828644,1.50183983 8.0625,1.8125 C8.13356781,1.86580086 8.19669914,1.92893219 8.25,2 C8.56066017,2.41421356 9.14828644,2.49816017 9.5625,2.1875 C9.63356781,2.13419914 9.69669914,2.07106781 9.75,2 C10.0606602,1.58578644 10.6482864,1.50183983 11.0625,1.8125 C11.1335678,1.86580086 11.1966991,1.92893219 11.25,2 C11.5606602,2.41421356 12.1482864,2.49816017 12.5625,2.1875 C12.6335678,2.13419914 12.6966991,2.07106781 12.75,2 L13.5,1 L13.5,1" stroke="#003F87" stroke-linejoin="round" mask="url(#b)"/>
  </g>
  <g transform="translate(4 11)">
   <mask id="d" fill="#fff">
    <use xlink:href="#c"/>
   </mask>
   <path d="M-1.5,1 L-0.75,2 C-0.439339828,2.41421356 0.148286438,2.49816017 0.5625,2.1875 C0.633567812,2.13419914 0.696699141,2.07106781 0.75,2 C1.06066017,1.58578644 1.64828644,1.50183983 2.0625,1.8125 C2.13356781,1.86580086 2.19669914,1.92893219 2.25,2 C2.56066017,2.41421356 3.14828644,2.49816017 3.5625,2.1875 C3.63356781,2.13419914 3.69669914,2.07106781 3.75,2 C4.06066017,1.58578644 4.64828644,1.50183983 5.0625,1.8125 C5.13356781,1.86580086 5.19669914,1.92893219 5.25,2 C5.56066017,2.41421356 6.14828644,2.49816017 6.5625,2.1875 C6.63356781,2.13419914 6.69669914,2.07106781 6.75,2 C7.06066017,1.58578644 7.64828644,1.50183983 8.0625,1.8125 C8.13356781,1.86580086 8.19669914,1.92893219 8.25,2 C8.56066017,2.41421356 9.14828644,2.49816017 9.5625,2.1875 C9.63356781,2.13419914 9.69669914,2.07106781 9.75,2 C10.0606602,1.58578644 10.6482864,1.50183983 11.0625,1.8125 C11.1335678,1.86580086 11.1966991,1.92893219 11.25,2 C11.5606602,2.41421356 12.1482864,2.49816017 12.5625,2.1875 C12.6335678,2.13419914 12.6966991,2.07106781 12.75,2 L13.5,1 L13.5,1" stroke="#003F87" stroke-linejoin="round" mask="url(#d)"/>
  </g>
 </g>
</svg>
