<svg width="17" height="21" xmlns="http://www.w3.org/2000/svg" xmlns:xlink="http://www.w3.org/1999/xlink">
 <defs>
  <path id="a" d="M0 0H15V6H0z"/>
 </defs>
 <g fill="none" fill-rule="evenodd">
  <path d="M15,0.5 C15.4142136,0.5 15.7892136,0.667893219 16.0606602,0.939339828 C16.3321068,1.21078644 16.5,1.58578644 16.5,2 L16.5,19 C16.5,19.4142136 16.3321068,19.7892136 16.0606602,20.0606602 C15.7892136,20.3321068 15.4142136,20.5 15,20.5 L2,20.5 C1.58578644,20.5 1.21078644,20.3321068 0.939339828,20.0606602 C0.667893219,19.7892136 0.5,19.4142136 0.5,19 L0.5,2 C0.5,1.58578644 0.667893219,1.21078644 0.939339828,0.939339828 C1.21078644,0.667893219 1.58578644,0.5 2,0.5 Z" stroke="#000" fill="#FFF" fill-rule="nonzero"/>
  <path d="M8,10.0439117 L0,10.0439117 L0,9.04391167 C1.5,6.04391167 3.08333333,4.54391167 4.75,4.54391167 C6.41666667,4.54391167 7.5,5.71057834 8,8.04391167 L8,10.0439117 Z" fill="#000" transform="translate(2 2.456)"/>
  <path d="M5.5280977,0.376125347 L5.74821475,0.390002171 C6.43145142,0.495027981 6.98309602,0.818466161 7.34259623,1.26987642 C7.70599075,1.72617661 7.87017992,2.31113485 7.77716722,2.91571742 C7.74252338,3.14090233 7.67300314,3.35931367 7.57116099,3.56306421 L7.20912631,4.28713356 L6.26654272,4.91552261 L6.99423573,6.37090862 C6.21023051,6.73142825 5.54632278,6.91891167 5,6.91891167 C4.42900478,6.91891167 3.60391295,6.72027207 2.52324371,6.33594974 L2.91926275,5.54391167 L2.41926275,4.54391167 L2.93273324,3.51697068 L2.46412137,2.81405286 L3.31192221,1.75430181 C3.59833468,1.24055703 3.94536807,0.864646509 4.36252498,0.636816236 C4.76341675,0.417869165 5.22610276,0.339000592 5.74821475,0.390002171 Z" stroke="#000" stroke-width=".75" fill="#FFF" transform="translate(2 2.456)"/>
  <path d="M4.5,1.79391167 L6.77113101,1.79391167 C7.24806509,1.79391167 7.7160324,1.92353112 8.125,2.16891167 C8.51274817,2.40156058 8.75,2.82059248 8.75,3.27278066 L8.75,4.54391167 L8.75,4.54391167 L8.20710678,4.00101846 C7.75435391,3.54826559 7.14028925,3.29391167 6.5,3.29391167 L6.5,3.29391167 L6.5,3.29391167" stroke="#000" stroke-width=".5" fill="#FFF" stroke-linecap="round" stroke-linejoin="round" transform="translate(2 2.456)"/>
  <path stroke="#000" stroke-width=".5" stroke-linecap="round" stroke-linejoin="round" d="M3.5 4.044 2.75 3.044M6.75 4.544 5.75 5.044" transform="translate(2 2.456)"/>
  <path d="M6,1.79391167 L6,2.54391167 C6,2.82005405 5.77614237,3.04391167 5.5,3.04391167 C5.22385763,3.04391167 5,2.82005405 5,2.54391167 L5,1.79391167 L5,1.79391167 L6,1.79391167 Z" fill="#000" fill-rule="nonzero" transform="translate(2 2.456)"/>
  <path d="M11.875,0 C12.5826064,0 12.890625,1 13.5,1 C13.5,1.33333333 13.5,1.66666667 13.5,2 C12.826903,2 12.484375,1 11.875,1 C11.265625,1 11.0625,2 10.25,2 C9.4375,2 9.234375,1 8.625,1 C8.015625,1 7.8125,2 7,2 C6.1875,2 6.1875,1 5.375,1 C4.5625,1 4.5625,2 3.75,2 C2.9375,2 2.734375,1 2.125,1 C1.515625,1 1.17309704,2 0.5,2 C0.5,1.66666667 0.5,1.33333333 0.5,1 C1.109375,1 1.41073139,0 2.125,0 C2.83926861,0 3.140625,1 3.75,1 C4.359375,1 4.5625,0 5.375,0 C6.1875,0 6.390625,1 7,1 C7.609375,1 7.8125,0 8.625,0 C9.4375,0 9.640625,1 10.25,1 C10.859375,1 11.1673936,0 11.875,0 Z" fill="#FFF" fill-rule="nonzero" transform="translate(1.5 11)"/>
  <g transform="translate(1.5 11)">
   <mask id="b" fill="#fff">
    <use xlink:href="#a"/>
   </mask>
   <path d="M11.875 1C12.5826064 1 12.890625 2 13.5 2 13.5 2.33333333 13.5 2.66666667 13.5 3 12.826903 3 12.484375 2 11.875 2 11.265625 2 11.0625 3 10.25 3 9.4375 3 9.234375 2 8.625 2 8.015625 2 7.8125 3 7 3 6.1875 3 6.1875 2 5.375 2 4.5625 2 4.5625 3 3.75 3 2.9375 3 2.734375 2 2.125 2 1.515625 2 1.17309704 3 .5 3 .5 2.66666667.5 2.33333333.5 2 1.109375 2 1.41073139 1 2.125 1 2.83926861 1 3.140625 2 3.75 2 4.359375 2 4.5625 1 5.375 1 6.1875 1 6.390625 2 7 2 7.609375 2 7.8125 1 8.625 1 9.4375 1 9.640625 2 10.25 2 10.859375 2 11.1673936 1 11.875 1ZM11.875 3C12.5826064 3 12.890625 4 13.5 4 13.5 4.33333333 13.5 4.66666667 13.5 5 12.826903 5 12.484375 4 11.875 4 11.265625 4 11.0625 5 10.25 5 9.4375 5 9.234375 4 8.625 4 8.015625 4 7.8125 5 7 5 6.1875 5 6.1875 4 5.375 4 4.5625 4 4.5625 5 3.75 5 2.9375 5 2.734375 4 2.125 4 1.515625 4 1.17309704 5 .5 5 .5 4.66666667.5 4.33333333.5 4 1.109375 4 1.41073139 3 2.125 3 2.83926861 3 3.140625 4 3.75 4 4.359375 4 4.5625 3 5.375 3 6.1875 3 6.390625 4 7 4 7.609375 4 7.8125 3 8.625 3 9.4375 3 9.640625 4 10.25 4 10.859375 4 11.1673936 3 11.875 3Z" fill="#003F87" fill-rule="nonzero" mask="url(#b)"/>
  </g>
 </g>
</svg>
