<svg width="20" height="20" version="1.0" viewBox="0 0 150 150" xmlns="http://www.w3.org/2000/svg">
 <path d="m 149.5,75 a 74.5,74.484 0 1 1 -149,0 74.5,74.484 0 1 1 149,0 z" fill="#fff" style="fill:#003f87"/>
 <path style="fill:#fff;stroke-width:.133333" d="M 10 1 C 5.0353645 1 1 5.0353645 1 10 C 1 14.964636 5.0353645 19 10 19 C 14.964636 19 19 14.964636 19 10 C 19 5.0353645 14.964636 1 10 1 z M 10 2 C 11.244626 2 12.407418 2.3072296 13.457031 2.8125 C 13.417345 2.8131298 13.377563 2.8137737 13.337891 2.8144531 C 12.946117 2.8400478 12.552163 2.7977949 12.162109 2.8476562 C 11.910469 2.8492323 11.656445 2.893372 11.392578 2.9628906 C 11.122565 3.0157213 10.823825 2.8994621 10.576172 3.0429688 C 10.374572 3.2487021 10.155688 3.4391079 9.9257812 3.6132812 C 9.6764879 3.8309346 9.3618515 4.0021275 9.2050781 4.3046875 C 9.1459688 4.4150755 9.1089466 4.4843776 9.1503906 4.5351562 C 9.2279773 4.6302096 9.4663068 4.6627147 9.5488281 4.7871094 C 9.8211748 5.2429094 9.517871 4.8487965 9.1464844 5.2207031 C 8.9559644 5.2377298 8.8028511 5.3407685 8.7832031 5.4824219 C 8.7682431 5.5901552 8.852875 5.7244635 8.921875 5.8300781 C 8.9265417 6.0995315 8.82489 6.3803988 8.53125 6.4609375 C 8.23969 6.4813402 7.9490492 6.5025809 7.6640625 6.5917969 C 7.4130225 6.7203835 7.1224719 6.7334435 6.8886719 6.9042969 C 6.6109252 7.0781529 6.2635285 7.1945987 5.9824219 7.1621094 C 5.6559285 7.0405854 5.3048175 6.975096 4.9609375 7 C 4.4756975 7.0039333 3.9061083 7.136066 3.609375 7.5683594 C 3.495655 7.8731194 3.2357565 8.0889196 3.0957031 8.3789062 C 3.1057298 8.7099863 2.8764967 8.9702004 2.71875 9.2460938 C 2.626183 9.5771572 2.3648119 9.8352057 2.0039062 10.044922 C 2.00382 10.029564 2 10.015378 2 10 C 2 5.5758041 5.5758041 2 10 2 z M 14.269531 3.2539062 C 16.506379 4.6710489 18 7.1513632 18 10 C 18 11.560552 17.535726 13.002679 16.765625 14.232422 C 16.734874 14.233136 16.705156 14.232294 16.673828 14.232422 C 16.555161 14.23163 16.441061 14.234476 16.392578 14.347656 C 16.318965 14.466376 16.220519 14.599895 16.068359 14.609375 C 15.877106 14.634646 15.740601 14.642977 15.548828 14.650391 C 15.414721 14.641636 15.22304 14.634678 15.089844 14.65625 C 14.849457 14.700433 14.675666 14.774069 14.447266 14.755859 C 14.312546 14.748213 14.17367 14.746423 14.042969 14.785156 C 13.933822 14.879812 13.78421 14.815545 13.65625 14.837891 C 13.520351 14.828397 13.522949 14.62799 13.589844 14.544922 C 13.651036 14.478082 13.724261 14.358107 13.619141 14.294922 C 13.512767 14.230247 13.374172 14.23385 13.283203 14.140625 C 12.903832 14.022625 12.896576 13.938375 12.835938 13.798828 C 12.697897 13.481121 12.633796 13.198193 12.658203 12.945312 C 12.68797 12.636952 12.754724 12.403219 12.699219 12.259766 C 12.596624 11.994579 12.609961 11.726794 12.652344 11.494141 C 12.689905 11.287954 12.650325 11.05573 12.619141 10.785156 C 12.584113 10.481316 12.678234 10.308513 12.689453 10.0625 C 12.690346 10.0429 12.665467 10.009592 12.611328 9.8769531 C 12.557193 9.7443131 12.528961 9.5215094 12.626953 9.2871094 C 12.678573 9.163616 12.615235 9.0332066 12.523438 8.9882812 C 12.229438 8.8443746 11.844346 8.8001975 11.443359 8.6484375 C 11.166519 8.5436508 10.953924 8.3842911 10.771484 8.3085938 C 10.636071 8.2523977 10.539952 8.1767467 10.462891 8.125 C 10.385833 8.073252 10.33426 8.0472612 10.285156 8.0390625 C 10.067956 8.0027612 9.842769 7.9935791 9.6035156 7.9960938 C 9.4599556 7.9975564 9.3103102 8.0033123 9.1542969 8.0097656 C 8.8253369 8.0235123 8.5374654 8.1639276 8.1367188 8.2539062 C 7.7191454 8.3476769 7.4507404 8.3533677 7.0585938 8.3652344 C 6.5819004 8.3798797 6.1096898 8.3888407 5.8457031 8.5058594 C 5.4591698 8.6771194 5.1325727 8.6008539 4.9433594 8.6699219 C 4.7270794 8.7488552 4.5077056 8.9389329 4.1972656 9.1289062 C 4.1270123 9.4245729 4.009584 9.6948673 3.8378906 9.9316406 C 3.4712734 10.437201 2.8706863 10.765316 2.0957031 10.953125 C 2.0761319 10.789772 2.0564826 10.627192 2.046875 10.460938 C 2.7032356 10.291082 3.1686169 10.018748 3.4414062 9.6425781 C 3.7700676 9.1893781 3.8715504 8.5700683 3.7148438 7.734375 L 4.1953125 7.6425781 C 4.2510152 7.9396181 4.275151 8.2198481 4.2714844 8.4863281 C 4.422471 8.3812081 4.5813373 8.279823 4.7753906 8.2089844 C 5.147244 8.0732764 5.4395777 8.148366 5.6464844 8.0566406 C 6.0724177 7.8679006 6.5811687 7.8891947 7.0429688 7.875 C 7.4374354 7.8630827 7.6495769 7.8606693 8.0292969 7.7753906 C 8.3614169 7.7008306 8.6888323 7.5381792 9.1347656 7.5195312 C 9.343939 7.5108073 9.5498929 7.5032447 9.7539062 7.5058594 C 9.9579196 7.50845 10.159528 7.5202782 10.365234 7.5546875 C 10.524448 7.5813008 10.644211 7.656902 10.736328 7.71875 C 10.828437 7.7805953 10.899052 7.8297821 10.960938 7.8554688 C 11.225404 7.9651888 11.431428 8.1210889 11.617188 8.1914062 C 11.937988 8.3128196 12.342154 8.3520217 12.740234 8.546875 C 12.930981 8.6402483 13.060772 8.815865 13.111328 9.015625 C 13.299861 8.9934157 13.474447 9.025896 13.623047 9.0625 C 13.827127 9.112792 14.000117 9.1649262 14.216797 9.1542969 C 14.371393 9.1467102 14.390435 9.1968013 14.423828 9.2128906 C 14.43538 9.218488 14.444338 9.221072 14.453125 9.2246094 C 14.485272 9.2210014 14.517143 9.2070677 14.546875 9.1777344 C 14.652408 9.056361 14.668688 8.8849354 14.675781 8.7304688 C 14.695813 8.5747621 14.629044 8.4335898 14.609375 8.2832031 C 14.612962 8.0336431 14.595191 7.7643308 14.675781 7.5234375 C 14.689755 7.3661042 14.651527 7.0945108 14.525391 6.9863281 C 14.41532 6.8537681 14.345487 6.7128604 14.320312 6.6210938 C 14.264422 6.4547871 14.285253 6.3162608 14.316406 6.1796875 C 14.366613 6.0291275 14.389517 5.860424 14.3125 5.7128906 C 14.260375 5.5626773 14.27977 5.3977875 14.285156 5.2421875 C 14.335255 5.0313342 14.418292 4.8087169 14.351562 4.5917969 C 14.295432 4.4963035 14.297199 4.322453 14.236328 4.265625 C 14.250889 4.1553183 14.282576 4.0548978 14.265625 3.9453125 C 14.268026 3.8389392 14.326627 3.7136925 14.34375 3.5078125 C 14.310257 3.4251045 14.290832 3.3392679 14.269531 3.2539062 z M 13.220703 9.4960938 C 13.17023 9.4979138 13.120528 9.5082584 13.066406 9.5273438 C 13.041033 9.6047984 13.04454 9.6378356 13.066406 9.6914062 C 13.093309 9.7573396 13.186953 9.8835908 13.177734 10.085938 C 13.162513 10.419404 13.086855 10.566889 13.105469 10.728516 C 13.134053 10.976262 13.19103 11.262445 13.132812 11.582031 C 13.09942 11.765338 13.099638 11.937638 13.15625 12.083984 C 13.295042 12.442718 13.16813 12.767787 13.146484 12.992188 C 13.125682 13.207721 13.137943 13.373069 13.210938 13.544922 C 13.216328 13.558622 13.221988 13.571504 13.228516 13.583984 L 13.25 13.617188 C 13.27088 13.643609 13.298448 13.662902 13.337891 13.667969 C 13.456597 13.70571 13.614977 13.749123 13.738281 13.699219 C 13.837415 13.668607 13.917415 13.580849 14.007812 13.541016 C 14.157572 13.480422 14.270955 13.518712 14.421875 13.462891 C 14.519368 13.434888 14.613122 13.392205 14.689453 13.324219 C 14.734541 13.215192 14.755435 13.096041 14.648438 13.029297 C 14.529388 12.82479 14.604101 12.633101 14.611328 12.425781 C 14.610117 12.346795 14.619951 12.267049 14.642578 12.191406 C 14.607562 12.101926 14.604764 12.012657 14.535156 11.955078 C 14.472832 11.880065 14.431407 11.780696 14.4375 11.673828 C 14.424056 11.533895 14.386985 11.431145 14.386719 11.269531 C 14.383669 11.065505 14.392488 10.933044 14.472656 10.771484 C 14.509922 10.671084 14.598236 10.511613 14.603516 10.400391 C 14.660756 10.252471 14.667067 10.194288 14.683594 10.046875 C 14.70018 9.956755 14.69076 9.8491679 14.726562 9.7636719 C 14.73692 9.7285932 14.723835 9.6991313 14.701172 9.6816406 C 14.648056 9.7052766 14.59371 9.7172869 14.541016 9.7226562 C 14.500801 9.7438109 14.459849 9.7310642 14.417969 9.7226562 C 14.324223 9.7089442 14.255195 9.6746755 14.212891 9.6542969 C 14.191739 9.644083 14.171482 9.6436246 14.169922 9.6445312 C 13.896749 9.6456033 13.675686 9.5808825 13.505859 9.5390625 C 13.391326 9.5108505 13.304812 9.4931591 13.220703 9.4960938 z M 10.164062 10.927734 C 10.325663 11.112401 10.262576 11.462272 10.537109 11.548828 C 10.631999 11.774268 10.311031 11.798899 10.460938 12.009766 C 10.477539 12.205832 10.229186 12.364849 10.341797 12.599609 C 10.390944 12.886516 10.652768 13.109937 10.865234 13.279297 C 11.090554 13.449564 11.348402 13.599933 11.605469 13.716797 C 11.918749 13.889064 12.198145 13.96659 12.511719 14.222656 C 12.729225 14.37487 12.944596 14.552638 13.095703 14.765625 C 12.987943 14.988212 12.727517 15.197487 12.587891 15.369141 C 12.330989 15.523581 12.523325 15.727423 12.263672 15.837891 C 12.036899 15.799691 11.808371 15.80652 11.744141 16.060547 C 11.938661 16.333052 12.230179 15.887154 12.445312 16.119141 C 12.703126 16.187814 12.972309 16.12053 13.162109 15.994141 C 13.467256 15.983741 13.775992 16.044239 14.078125 15.988281 C 14.303312 15.770771 14.603741 15.864023 14.869141 15.796875 C 14.963994 15.561554 15.164274 15.398271 15.429688 15.460938 C 15.610813 15.405519 15.775819 15.303424 15.962891 15.289062 C 14.49829 16.93962 12.384603 18 10 18 C 5.9828667 18 2.695641 15.041915 2.1191406 11.1875 L 10.164062 10.927734 z" transform="scale(7.5)"/>
</svg>
