<svg width="20" height="20" xmlns="http://www.w3.org/2000/svg">
 <path style="fill:#fff;fill-opacity:1;stroke:none;stroke-width:.5;stroke-linecap:round;stroke-linejoin:round" d="M 1.1679688,6 H 18.830078 l -0.430778,1.7503995 0.586706,2.6047335 0.513573,2.265654 -0.627935,2.489749 -1.713484,1.876937 -2.899786,0.874577 -2.331777,0.264168 L 9.9997149,19.500015 7.6967107,18.008514 3.6127029,17.411892 1.2724352,15.361175 0.49985144,12.620787 1.4558459,9.0711825 1.1679688,6"/>
 <path style="fill:#bf2033;fill-opacity:1;stroke:none;stroke-width:.5;stroke-linecap:round;stroke-linejoin:round" d="M 4.2675781,0.5 0.5,4.2675781 1.1679688,5.5 V 6 H 18.830078 V 5.5 L 19.5,4.2675781 15.732422,0.5 14.474609,1.2519531 12.865234,1.5546875 10.998047,1.1425781 10,0.5 8.8847656,1.1953125 7.1328125,1.5546875 5.265625,1.1425781 Z"/>
 <path d="M 9.9997048,0.50008871 C 10.771647,1.1577175 11.772514,1.5546812 12.866059,1.5546812 c 1.093546,0 2.094423,-0.3970141 2.866355,-1.05469344 L 19.499609,4.2672259 C 18.806353,5.2526295 18.3993,6.454039 18.3993,7.7503995 c 0,0.9324568 0.210533,1.8156313 0.586706,2.6047335 0.325025,0.682209 0.513573,1.459591 0.513573,2.265654 0,2.894753 -2.346585,5.241263 -5.241205,5.241263 h -0.822667 c -1.387197,0 -2.625094,0.638651 -3.4359921,1.637965 C 9.1889085,18.500721 7.9509199,17.86205 6.5637234,17.86205 H 5.7410559 c -2.8947204,0 -5.24120446,-2.346611 -5.24120446,-5.241263 0,-0.806023 0.18856666,-1.583455 0.51362206,-2.265654 0.3761441,-0.7891122 0.5867068,-1.6722866 0.5867068,-2.6047335 0,-1.2963605 -0.4070839,-2.4977296 -1.10030867,-3.4831736 L 4.2670662,0.49998776 C 5.0390084,1.1576166 6.0398754,1.5546812 7.1334208,1.5546812 c 1.0935453,0 2.0944224,-0.3969132 2.8663546,-1.05459249 z" fill="#fff" stroke="#000" stroke-linecap="round" stroke-linejoin="round" stroke-miterlimit="3.864" stroke-width="1.178" style="fill:none;stroke:#000;stroke-width:1;stroke-miterlimit:3.864;stroke-dasharray:none;stroke-opacity:1"/>
</svg>
