<svg width="25" height="20" version="1.0" xmlns:xlink="http://www.w3.org/1999/xlink" xmlns="http://www.w3.org/2000/svg">
 <rect width="25" height="20" rx="2" ry="2" style="fill:#003f87"/>
 <use transform="translate(19977 -4790.8) scale(.92938)" width="300" height="240" fill="#fff" stroke="#000" stroke-linejoin="round" stroke-width="309" xlink:href="#state_outline"/>
 <rect style="fill:#fff;fill-rule:evenodd;stroke:none" width="23" height="16" x="1" y="3" rx="1" ry="1"/>
 <path d="m 10.636218,1.0000356 -0.8105535,0.2851691 -0.351574,0.6074659 0.253918,0.1816521 0.2910445,0.1562605 0.488308,0.8535822 0.570337,0.5820639 0.30472,0.5137095 0.419954,0.552762 0.279319,0.5488617 0.189464,0.7187983 0.06446,-0.1504002 0.668024,-0.6211353 0.73834,-0.4570607 0.929762,-0.5859759 -0.0586,-0.1718865 L 15.540927,3.103669 14.10918,1.656297 12.667683,1.6309054 12.390313,1.2090021 12.251632,1.050789 11.70277,1.044926 10.636298,1 Z" style="fill:none;stroke:#fff;stroke-width:1;stroke-miterlimit:4;stroke-dasharray:none"/>
 <path d="m 10.636218,1.0000356 -0.8105535,0.2851691 -0.351574,0.6074659 0.253918,0.1816521 0.2910445,0.1562605 0.488308,0.8535822 0.570337,0.5820639 0.30472,0.5137095 0.419954,0.552762 0.279319,0.5488617 0.189464,0.7187983 0.06446,-0.1504002 0.668024,-0.6211353 0.73834,-0.4570607 0.929762,-0.5859759 -0.0586,-0.1718865 L 15.540927,3.103669 14.10918,1.656297 12.667683,1.6309054 12.390313,1.2090021 12.251632,1.050789 11.70277,1.044926 10.636298,1 Z" style="fill:#003f87;stroke:none;stroke-width:1;stroke-miterlimit:4;stroke-dasharray:none"/>
</svg>
