<svg width="25" height="20" xml:space="preserve" xmlns="http://www.w3.org/2000/svg">
 <path style="fill:#fff;fill-rule:evenodd;stroke:#000;stroke-width:2;stroke-linecap:round;stroke-linejoin:round;stroke-miterlimit:4;stroke-dasharray:none;paint-order:stroke fill markers" d="m 22.826014,16.494924 c 0.367099,0.249254 0.893767,0.429206 1.162614,0.721112 L 24,19 H 1 V 16.962352 C 1.2145302,16.556605 1.741777,16.461925 2.163013,16.300328 L 2.3575298,15.70211 C 1.9028337,15.312279 1.9246916,14.599874 2.474739,14.276776 1.7830075,13.302262 1.6381319,12.650772 2.6415855,12.051175 2.2793517,11.196261 2.1491479,10.14413 3.0382027,9.575997 2.8338657,8.7312084 3.186498,7.849561 4.0917973,7.4401889 3.9764888,6.4804918 4.655119,5.5449497 5.732,5.204598 5.9179606,4.6138691 6.4538391,4.2109952 7.2881281,3.8885082 7.7693209,2.9824863 8.5956444,2.6032153 10.026197,2.2791753 c 0.21953,-0.6292203 1.681692,-1.0803622 2.438082,-1.079173 0.939732,0.00148 2.484206,0.3746476 2.82694,1.1274634 1.182732,0.1619139 2.006028,0.599047 2.422427,1.5155442 1.021821,0.1634626 1.669688,1.0380007 1.786124,1.6061236 1.092543,0.2048583 1.797761,1.1973118 1.559011,2.0859218 0.830348,0.3937037 1.282665,1.3711076 1.070141,2.1727741 0.769474,0.7449526 0.381036,1.2583106 0.21839,2.3932636 0.790345,0.530888 0.79556,1.561901 0.17302,2.258075 0.494179,0.45665 0.634095,1.40621 -0.210382,1.646184 z"/>
 <path style="fill-rule:evenodd;stroke-width:.0418319" d="m 2.163013,16.300328 c 3.4626284,1.414132 7.3520268,2.057455 11.20706,1.980585 3.261422,-0.03424 6.477582,-0.709128 9.455941,-1.785989 0.400007,-0.318868 0.137495,-0.63607 -0.516064,-0.489603 -2.550626,1.037141 -5.718271,1.557407 -8.543939,1.72954 0.0144,-0.676533 -0.08481,-1.724522 -1.250834,-1.737083 -1.264395,0.0014 -1.2762,1.037746 -1.284022,1.687187 C 8.2803695,17.478739 4.9418109,16.921906 2.3575303,15.702079 2.0525185,15.746739 1.8292296,16.072472 2.163013,16.300328 Z"/>
</svg>
