<?xml version="1.0" encoding="UTF-8" standalone="no"?>
<svg
   width="20"
   height="20"
   version="1.1"
   id="svg134"
   sodipodi:docname="shield_hex_vert_green_yellow_2.svg"
   inkscape:version="1.2.1 (9c6d41e4, 2022-07-14)"
   xmlns:inkscape="http://www.inkscape.org/namespaces/inkscape"
   xmlns:sodipodi="http://sodipodi.sourceforge.net/DTD/sodipodi-0.dtd"
   xmlns="http://www.w3.org/2000/svg"
   xmlns:svg="http://www.w3.org/2000/svg">
  <defs
     id="defs138" />
  <sodipodi:namedview
     id="namedview136"
     pagecolor="#ffffff"
     bordercolor="#666666"
     borderopacity="1.0"
     inkscape:showpageshadow="2"
     inkscape:pageopacity="0.0"
     inkscape:pagecheckerboard="0"
     inkscape:deskcolor="#d1d1d1"
     showgrid="false"
     inkscape:zoom="11.8"
     inkscape:cx="9.9576271"
     inkscape:cy="10.042373"
     inkscape:window-width="1440"
     inkscape:window-height="855"
     inkscape:window-x="0"
     inkscape:window-y="23"
     inkscape:window-maximized="1"
     inkscape:current-layer="svg134" />
  <path
     d="M 1.5555556,15.77779 C 1.1010758,15.658189 0.5,15.156825 0.5,14.5 v -9 C 0.5,4.7246457 1.0515407,4.4540028 1.5555556,4.2222097 L 9.448,0.59252626 C 9.563323,0.56217785 9.881736,0.54700364 10,0.54700364 c 0.118264,0 0.443658,-0.004303 0.552,0.0455226 L 18.444444,4.2222097 C 18.94846,4.4540032 19.5,4.7246457 19.5,5.5 v 9 c 0,0.775354 -0.55154,1.045997 -1.055556,1.27779 L 10.552,19.407473 c -0.115324,0.03035 -0.433736,0.04553 -0.552,0.04553 -0.118264,0 -0.436676,-0.01518 -0.552,-0.04553 z"
     fill="#009140"
     style="fill:#006747;fill-rule:evenodd;stroke:#ffcd00;stroke-width:1;stroke-miterlimit:4;stroke-dasharray:none;stroke-opacity:1"
     id="path132" />
</svg>
