<svg width="20" height="20" xmlns="http://www.w3.org/2000/svg">
 <g fill="none" fill-rule="evenodd">
  <rect stroke="#FFF" fill="#693F23" x=".5" y=".5" width="19" height="19" rx="2"/>
  <path fill="#FFF" d="M2 9.75 10.5 7.5 12.25 4.75 18 4.5 18 15.9090909 7.27272727 16.0909091 2 15.1818182z"/>
  <g fill-rule="nonzero">
   <path d="M1.39886444,9.98695048 L1.50990693,10.0467848 L2.32532679,10.488534 L3.088,10.8129505 L4.00048186,10.9864154 L4.63924217,11.0873439 L5.38,11.0989505 L5.48976979,11.063801 C5.85201942,10.9464628 6.11822984,10.8646063 6.29315266,10.8170495 L6.37302877,10.796124 C6.5406353,10.7542223 6.78155715,10.6853875 7.15734423,10.5750705 L7.488,10.5199505 L7.73824275,10.2888396 L7.88201199,10.1557199 L8.07794677,10.1557199 L10.0749796,10.1586518 C10.5701549,10.2125129 11.0371034,10.2471017 11.475708,10.2624913 C11.9158963,10.2779365 12.4383073,10.2779365 13.0422332,10.2623502 L13.2299838,10.2575047 L13.3744942,10.3774651 L13.862,10.7819505 L14,10.782405 L14,11.782405 L13.5013308,11.782405 L13.3624571,11.6671237 L12.879,11.2659505 L12.7039464,11.2697333 C12.3495346,11.2755176 12.02413,11.2755041 11.7275797,11.2696622 L11.4406418,11.2618763 C10.9768396,11.2456025 10.4856132,11.2092154 10.0209125,11.1557199 L8.274,11.1549505 L8.05833519,11.3552999 L7.94849234,11.4570062 L7.80083067,11.4816165 L7.38565299,11.5464432 C7.05874703,11.6463312 6.80283745,11.7194482 6.61556439,11.7662665 C6.45351895,11.8067778 6.11521905,11.9108701 5.61192783,12.0757414 L5.4482103,12.1005218 L4.55655236,12.0816784 L3.83290968,11.9721001 L2.8481188,11.7857883 L2.74501542,11.7544648 L1.89209791,11.3886613 L1.147,10.9869505 L0,10.9869505 L0,9.98695048 L1.39886444,9.98695048 Z M6.07124586,9.45607389 L6.12146067,10.2036773 L5.07064836,10.2786165 L5.02043356,9.53101308 L6.07124586,9.45607389 Z M3.17236757,9.12890702 L4.09874157,9.41384688 L3.89071574,10.1319284 L2.96434173,9.84698853 L3.17236757,9.12890702 Z M7.8934672,8.95224841 L8.06004126,9.6817193 L7.11984078,9.90967119 L6.95326672,9.1802003 L7.8934672,8.95224841 Z M13.1042433,8.85014105 L13.8785261,9.13508092 L13.6339178,9.84081463 L12.859635,9.55587476 L13.1042433,8.85014105 Z M1.32548858,8.78102969 L2.09977133,8.9662406 L1.93531336,9.6962211 L1.16103061,9.51101018 L1.32548858,8.78102969 Z M11.1976958,8.61369778 L12.0549374,8.85589667 L11.8626222,9.57861313 L11.0053806,9.33641425 L11.1976958,8.61369778 Z M9.91232897,8.60722019 L10.050858,9.34289184 L9.12448403,9.52810276 L8.98595496,8.7924311 L9.91232897,8.60722019 Z M0.482803318,8.73755864 L0.482803318,9.48695048 L-1.40998324e-14,9.48695048 L-1.40998324e-14,8.73755864 L0.482803318,8.73755864 Z M8.80981453,-0.513049517 L8.92594462,-0.491934955 L9.28689852,-0.420025892 L10.4713092,-0.393409923 L10.5916347,-0.375918032 L10.9345513,-0.282 L11.8595601,-0.402680143 L11.9993534,-0.401126406 L12.7325513,-0.289 L13.6818182,-0.340909091 L14,-0.340909091 L14,0.659090909 L13.70945,0.658326807 L12.7367573,0.712163654 L12.6337265,0.707210056 L11.9165513,0.597 L10.9636338,0.722071778 L10.7676808,0.708617652 L10.3875513,0.604 L9.18622268,0.571782864 L8.93255133,0.525 L8.85573409,1.46491215 L8.83010094,1.58694971 L8.69702109,1.97288127 L8.60062295,2.13913824 L8.422,2.33395048 L9.08193033,2.48626735 L9.22955825,2.54638424 L9.82434221,2.90812167 L10.7455154,2.8953475 L10.9608193,2.94059653 L11.9203422,3.37912167 L12.046722,3.39774908 L13.2843646,3.27276775 L13.5109116,3.24989026 L13.6768904,3.40576844 L13.7363422,3.46212167 L13.8409091,3.46414675 L14,3.46414675 L14,4.46414675 L13.8304169,4.46403665 L13.5237284,4.45759957 L13.331838,4.45357199 L13.1919309,4.3221789 L13.1553422,4.28812167 L12.0482767,4.39284348 L11.7288851,4.36159815 L11.569599,4.31867081 L10.6483422,3.89712167 L9.69554921,3.91086251 L9.55138986,3.91297793 L9.42823642,3.83801377 L8.77834221,3.44212167 L8.11198602,3.28884666 L7.98742447,3.24194313 L7.39606837,2.92063899 L6.88634221,2.71212167 L5.38690509,2.53601185 L4.94634221,2.54412167 L4.90020377,2.97966949 L4.79277306,3.71933976 L4.54234717,4.57730471 L4.46969799,5.1946076 L4.38985008,5.60079693 L4.33230822,5.75425669 L4.02155274,6.28626704 L3.75539304,6.64558837 L3.63215454,6.76320549 L3.44584275,6.88818683 L3.34376751,6.95666076 L3.22157917,6.97000408 L2.70134221,7.02612167 L2.49334221,7.09412167 L2.23591081,7.28348647 L2.013,7.48195048 L3.09362171,7.81460014 L4.014,8.054 L4.55191585,8.08072619 L5.58976007,7.97996006 L6.85215814,7.5946004 L7.34156083,7.44896373 L8.11342395,7.07634015 L8.21749178,7.02610051 L8.33305071,7.02662104 L11.3799142,7.04898227 L12.1932691,7.20919868 L13.004,7.464 L13.4277567,7.45247148 L14,7.45247148 L14,8.45247148 L13.4412652,8.45228897 L12.9488698,8.46559695 L12.7858183,8.44289257 L11.9489831,8.17725347 L11.2829189,8.03991888 L8.442,8.027 L7.70677723,8.37688249 L7.14598137,8.55045819 L5.78838833,8.95539549 L4.58457872,9.07754725 L3.91917948,9.05093128 L3.8132224,9.03520975 L2.82097028,8.7764708 L1.46546026,8.36027321 L0.385,8 L0,8 L0,7 L0.465779468,7 L0.623893351,7.02565835 L1.739,7.39695048 L1.23747322,6.83413153 L1.60584322,6.50830787 L1.96515881,6.24272254 L2.10622526,6.1698107 L2.43892488,6.06045204 L2.54077824,6.03840459 L2.99034221,5.98812167 L3.00534221,5.97812167 L3.18670318,5.73875332 L3.42534221,5.32412167 L3.48236766,5.04098529 L3.546,4.52995048 L2.91033656,4.76410048 L2.29816926,5.0036442 L2.16608041,5.05533114 L2.02652686,5.02995777 L1.63845783,4.95670215 L1.371,4.93539163 L1.13884502,4.99093185 L0.49885193,5.23894429 L0.318181818,5.27272727 L1.59872116e-14,5.27272727 L1.59872116e-14,4.27272727 L0.226,4.27239163 L0.836907092,4.03964358 L1.20953067,3.94648769 L1.36914673,3.93303169 L1.7662488,3.96623995 L2.067,4.02039163 L2.55502545,3.82940294 L3.73979278,3.39734338 L3.835,3.37595048 L3.90775357,2.85805039 L3.98760148,2.10816239 L4.01070899,1.89114933 L4.18554832,1.76053604 L4.33193615,1.65117738 L4.46039207,1.5552147 L4.62069948,1.55185417 L5.4333189,1.53936904 L7.07020103,1.72684104 L7.20279095,1.76088836 L7.45,1.86295048 L7.66173447,1.69356138 L7.78355133,1.553 L7.86355133,1.32 L7.94916883,0.344006254 L8.09317693,-0.304030217 L8.37711027,-0.386844106 L8.6965019,-0.48 L8.80981453,-0.513049517 Z" fill="#0D603C" transform="translate(3 4.513)"/>
   <path d="M8.98869997,-1.49691943 L9.1213247,-1.47266255 L9.396,-1.41704952 L10.4937754,-1.39315752 L10.6151684,-1.38300809 L10.735494,-1.3655162 L10.8557869,-1.34039905 L11.004,-1.29904952 L11.7301926,-1.39427687 L11.8706739,-1.40261838 L12.0104672,-1.40106465 L12.1505238,-1.38963413 L12.781,-1.29304952 L13.6818182,-1.34090909 L14,-1.34090909 C14.5522847,-1.34090909 15,-0.893193841 15,-0.340909091 L15,0.659090909 C15,1.21240296 14.5506803,1.66054257 13.9973702,1.65908745 L13.7647137,1.6567986 L12.792021,1.71063545 L12.688734,1.71100987 L12.5857032,1.70605627 L12.481837,1.69560754 L11.905,1.60695048 L11.0937691,1.71356802 L10.8951351,1.71972298 L10.6991821,1.70626886 L10.5023309,1.67276983 L10.238,1.59995048 L9.846,1.58895048 L9.8343791,1.67046977 L9.82,1.73495048 L10.098,1.90395048 L10.7316495,1.89544363 L10.951186,1.91672622 L11.1664899,1.96197525 L11.3764897,2.03108123 L12.145,2.38195048 L13.1838922,2.2778279 L13.4104392,2.25495041 C13.6571607,2.23003565 13.9027671,2.29775347 14.100708,2.44233105 L14.138,2.47395048 L14.2292908,2.49055746 C14.6342517,2.58556263 14.9443941,2.92670058 14.9932723,3.34752562 L15,3.46414675 L15,4.46414675 C15,5.01668505 14.551889,5.46450526 13.9993508,5.46414654 L13.8094326,5.46381645 L13.502744,5.45737938 L13.3108536,5.4533518 C13.1461436,5.4498947 12.9861758,5.40586107 12.8444585,5.32676415 L12.1424504,5.38839927 L11.9509139,5.38809243 L11.6315222,5.3568471 L11.4686708,5.32714904 L11.3093847,5.28422171 L11.1535101,5.22799475 L10.437,4.89995048 L9.71022178,4.91075487 L9.56606243,4.91287028 C9.37768742,4.91563452 9.19236314,4.86512949 9.03143685,4.76717279 L8.90799772,4.69203467 L8.395,4.37895048 L7.88782015,4.26339767 L7.75959194,4.22469837 L7.63503038,4.17779483 L7.5100087,4.12062065 L6.967,3.82495048 L6.634,3.68895048 L5.821,3.59395048 L5.78238953,3.86307299 L5.75271707,3.99953165 L5.524,4.77995048 L5.45091906,5.38749413 L5.37107115,5.79368346 L5.32619039,5.95189067 L5.26864854,6.10535043 L5.19579303,6.25863154 L4.88503754,6.79064189 L4.82511448,6.88148845 L4.69,7.06195048 L5.393,6.99395048 L6.56693852,6.63613821 L6.978,6.51295048 L7.67867488,6.17578852 L7.78274272,6.12554887 C7.91969475,6.0594341 8.06992207,6.02542563 8.22199624,6.02611065 L8.34038961,6.02664797 L11.3872531,6.0490092 L11.5731825,6.06783631 L12.3865374,6.22805273 L12.493096,6.25520503 L13.143,6.45995048 L13.4277567,6.45247148 L14,6.45247148 C14.5522847,6.45247148 15,6.90018673 15,7.45247148 L15,8.45247148 C15,8.61030357 14.9634356,8.75959328 14.8983164,8.8923335 L14.861,8.95695048 L14.8720188,9.01936188 C14.8847705,9.12817715 14.8797146,9.24033152 14.8548808,9.35166428 L14.8233813,9.46256908 L14.633,10.0089505 L14.7082704,10.0764637 C14.862815,10.2315182 14.9667579,10.437008 14.993302,10.6660474 L15,10.782405 L15,11.782405 C15,12.3346898 14.5522847,12.782405 14,12.782405 L13.5013308,12.782405 C13.2680477,12.782405 13.0421054,12.7008455 12.8626086,12.5518425 L12.7238783,12.4366802 L12.524,12.2709505 L12.3634374,12.273568 C12.2475072,12.2742182 12.1344907,12.2741931 12.0240923,12.2734838 L11.7004554,12.2692942 L11.4055757,12.2612613 C10.9121761,12.243949 10.3945795,12.2053401 9.9065497,12.149159 L9.965,12.1549505 L8.666,12.1539505 L8.62790037,12.1907669 C8.51324883,12.2969257 8.37573475,12.3743656 8.22667456,12.4175353 L8.11289133,12.4434002 L7.95510353,12.4696448 L7.607,12.5229505 L7.48061906,12.5624112 C7.29196253,12.618741 7.12889026,12.6652582 6.98957034,12.7023899 L6.85810002,12.736409 C6.72563316,12.7695257 6.3993572,12.8700796 5.92323596,13.0260504 L5.76158429,13.0644794 L5.59786676,13.0892599 L5.427082,13.1002986 L4.53542407,13.0814552 L4.40683317,13.070407 L3.64701801,12.9546704 L2.66222714,12.7683586 L2.55743117,12.7426063 L2.45432778,12.7112828 L2.35085262,12.6735055 L1.41753639,12.2688836 L0.893,11.9859505 L-1.42108547e-14,11.9869504 C-0.512835839,11.9869504 -0.935507161,11.6009103 -0.993272269,11.1035716 L-1,10.9869504 L-1,9.98695043 C-1,9.90805266 -0.990862954,9.83128891 -0.973589287,9.75765966 L-0.967,9.73695048 L-0.973589287,9.71624131 C-0.982226121,9.67942668 -0.988828799,9.64182843 -0.993272269,9.60357161 L-1,9.48695043 L-1,8.73755864 C-1,8.61921191 -0.979441647,8.50566683 -0.941701374,8.40029986 L-0.928,8.36795048 L-0.941701374,8.33725878 C-0.966861556,8.26701413 -0.984385329,8.19313477 -0.993272269,8.11662113 L-1,8 L-1,7 C-1,6.6449598 -0.81497482,6.33313455 -0.536088182,6.15568797 L-0.502,6.13595048 L-0.536088182,6.1170393 C-0.783987416,5.95930901 -0.95772451,5.69540297 -0.993272269,5.3893484 L-1,5.27272727 L-1,4.27272727 C-1,3.72102241 -0.553189376,3.27354772 -0.00148512113,3.27272838 L0.041,3.27195048 L0.480882986,3.10516681 L0.594371467,3.06950108 L0.966995042,2.97634519 L1.12552639,2.95002229 L1.28514246,2.9365663 L1.45248234,2.93651015 L1.943454,2.98206602 L1.965,2.98595048 L2.21241753,2.88992446 L2.926,2.62895048 L2.9932227,2.00228116 L3.0163302,1.7852681 C3.04579785,1.50852402 3.18926148,1.2565789 3.41222387,1.0900154 L3.58706321,0.959402112 L3.73345104,0.850043446 L3.86190696,0.754080772 C4.02899093,0.629261106 4.23092007,0.559805437 4.43943361,0.555434354 L4.60533723,0.551972172 L5.41795666,0.539487043 L5.54710499,0.545863765 L6.913,0.701950483 L6.95299446,0.256618445 L6.97298177,0.127075796 L7.11698987,-0.520960675 C7.19613205,-0.877100494 7.4629426,-1.16187854 7.81317693,-1.26403022 L8.09711027,-1.34684411 L8.4165019,-1.44 L8.52981453,-1.47304952 C8.67884982,-1.51651814 8.83595899,-1.52469051 8.98869997,-1.49691943 Z M1.39886444,9.98695048 L0,9.98695048 L0,10.9869505 L1.147,10.9869505 L1.89209791,11.3886613 L2.74501542,11.7544648 L2.8481188,11.7857883 L3.83290968,11.9721001 L4.55655236,12.0816784 L5.4482103,12.1005218 L5.61192783,12.0757414 C6.11521905,11.9108701 6.45351895,11.8067778 6.61556439,11.7662665 C6.80283745,11.7194482 7.05874703,11.6463312 7.38565299,11.5464432 L7.80083067,11.4816165 L7.94849234,11.4570062 L8.05833519,11.3552999 L8.274,11.1549505 L10.0209125,11.1557199 C10.4856132,11.2092154 10.9768396,11.2456025 11.4406418,11.2618763 L11.7275797,11.2696622 C12.02413,11.2755041 12.3495346,11.2755176 12.7039464,11.2697333 L12.879,11.2659505 L13.3624571,11.6671237 L13.5013308,11.782405 L14,11.782405 L14,10.782405 L13.862,10.7819505 L13.3744942,10.3774651 L13.2299838,10.2575047 L13.0422332,10.2623502 C12.4383073,10.2779365 11.9158963,10.2779365 11.475708,10.2624913 C11.0371034,10.2471017 10.5701549,10.2125129 10.0749796,10.1586518 L8.07794677,10.1557199 L7.88201199,10.1557199 L7.73824275,10.2888396 L7.488,10.5199505 L7.15734423,10.5750705 C6.78155715,10.6853875 6.5406353,10.7542223 6.37302877,10.796124 L6.29315266,10.8170495 C6.11822984,10.8646063 5.85201942,10.9464628 5.48976979,11.063801 L5.38,11.0989505 L4.63924217,11.0873439 L4.00048186,10.9864154 L3.088,10.8129505 L2.32532679,10.488534 L1.50990693,10.0467848 L1.39886444,9.98695048 Z M6.07124586,9.45607389 L5.02043356,9.53101308 L5.07064836,10.2786165 L6.12146067,10.2036773 L6.07124586,9.45607389 Z M3.17236757,9.12890702 L2.96434173,9.84698853 L3.89071574,10.1319284 L4.09874157,9.41384688 L3.17236757,9.12890702 Z M7.8934672,8.95224841 L6.95326672,9.1802003 L7.11984078,9.90967119 L8.06004126,9.6817193 L7.8934672,8.95224841 Z M13.1042433,8.85014105 L12.859635,9.55587476 L13.6339178,9.84081463 L13.8785261,9.13508092 L13.1042433,8.85014105 Z M1.32548858,8.78102969 L1.16103061,9.51101018 L1.93531336,9.6962211 L2.09977133,8.9662406 L1.32548858,8.78102969 Z M11.1976958,8.61369778 L11.0053806,9.33641425 L11.8626222,9.57861313 L12.0549374,8.85589667 L11.1976958,8.61369778 Z M9.91232897,8.60722019 L8.98595496,8.7924311 L9.12448403,9.52810276 L10.050858,9.34289184 L9.91232897,8.60722019 Z M0.482803318,8.73755864 L-1.42108547e-14,8.73755864 L-1.42108547e-14,9.48695048 L0.482803318,9.48695048 L0.482803318,8.73755864 Z M8.80981453,-0.513049517 L8.6965019,-0.48 L8.37711027,-0.386844106 L8.09317693,-0.304030217 L7.94916883,0.344006254 L7.86355133,1.32 L7.78355133,1.553 L7.66173447,1.69356138 L7.45,1.86295048 L7.20279095,1.76088836 L7.07020103,1.72684104 L5.4333189,1.53936904 L4.62069948,1.55185417 L4.46039207,1.5552147 L4.33193615,1.65117738 L4.18554832,1.76053604 L4.01070899,1.89114933 L3.98760148,2.10816239 L3.90775357,2.85805039 L3.835,3.37595048 L3.73979278,3.39734338 L2.55502545,3.82940294 L2.067,4.02039163 L1.7662488,3.96623995 L1.36914673,3.93303169 L1.20953067,3.94648769 L0.836907092,4.03964358 L0.226,4.27239163 L0,4.27272727 L0,5.27272727 L0.318181818,5.27272727 L0.49885193,5.23894429 L1.13884502,4.99093185 L1.371,4.93539163 L1.63845783,4.95670215 L2.02652686,5.02995777 L2.16608041,5.05533114 L2.29816926,5.0036442 L2.91033656,4.76410048 L3.546,4.52995048 L3.48236766,5.04098529 L3.42534221,5.32412167 L3.18670318,5.73875332 L3.00534221,5.97812167 L2.99034221,5.98812167 L2.54077824,6.03840459 L2.43892488,6.06045204 L2.10622526,6.1698107 L1.96515881,6.24272254 L1.60584322,6.50830787 L1.23747322,6.83413153 L1.739,7.39695048 L0.623893351,7.02565835 L0.465779468,7 L0,7 L0,8 L0.385,8 L1.46546026,8.36027321 L2.82097028,8.7764708 L3.8132224,9.03520975 L3.91917948,9.05093128 L4.58457872,9.07754725 L5.78838833,8.95539549 L7.14598137,8.55045819 L7.70677723,8.37688249 L8.442,8.027 L11.2829189,8.03991888 L11.9489831,8.17725347 L12.7858183,8.44289257 L12.9488698,8.46559695 L13.4412652,8.45228897 L14,8.45247148 L14,7.45247148 L13.4277567,7.45247148 L13.004,7.464 L12.1932691,7.20919868 L11.3799142,7.04898227 L8.33305071,7.02662104 L8.21749178,7.02610051 L8.11342395,7.07634015 L7.34156083,7.44896373 L6.85215814,7.5946004 L5.58976007,7.97996006 L4.55191585,8.08072619 L4.014,8.054 L3.09362171,7.81460014 L2.013,7.48195048 L2.23591081,7.28348647 L2.49334221,7.09412167 L2.70134221,7.02612167 L3.22157917,6.97000408 L3.34376751,6.95666076 L3.44584275,6.88818683 L3.63215454,6.76320549 L3.75539304,6.64558837 L4.02155274,6.28626704 L4.33230822,5.75425669 L4.38985008,5.60079693 L4.46969799,5.1946076 L4.54234717,4.57730471 L4.79277306,3.71933976 L4.90020377,2.97966949 L4.94634221,2.54412167 L5.38690509,2.53601185 L6.88634221,2.71212167 L7.39606837,2.92063899 L7.98742447,3.24194313 L8.11198602,3.28884666 L8.77834221,3.44212167 L9.42823642,3.83801377 L9.55138986,3.91297793 L9.69554921,3.91086251 L10.6483422,3.89712167 L11.569599,4.31867081 L11.7288851,4.36159815 L12.0482767,4.39284348 L13.1553422,4.28812167 L13.1919309,4.3221789 L13.331838,4.45357199 L13.5237284,4.45759957 L13.8304169,4.46403665 L14,4.46414675 L14,3.46414675 L13.8409091,3.46414675 L13.7363422,3.46212167 L13.6768904,3.40576844 L13.5109116,3.24989026 L13.2843646,3.27276775 L12.046722,3.39774908 L11.9203422,3.37912167 L10.9608193,2.94059653 L10.7455154,2.8953475 L9.82434221,2.90812167 L9.22955825,2.54638424 L9.08193033,2.48626735 L8.422,2.33395048 L8.60062295,2.13913824 L8.69702109,1.97288127 L8.83010094,1.58694971 L8.85573409,1.46491215 L8.93255133,0.525 L9.18622268,0.571782864 L10.3875513,0.604 L10.7676808,0.708617652 L10.9636338,0.722071778 L11.9165513,0.597 L12.6337265,0.707210056 L12.7367573,0.712163654 L13.70945,0.658326807 L14,0.659090909 L14,-0.340909091 L13.6818182,-0.340909091 L12.7325513,-0.289 L11.9993534,-0.401126406 L11.8595601,-0.402680143 L10.9345513,-0.282 L10.5916347,-0.375918032 L10.4713092,-0.393409923 L9.28689852,-0.420025892 L8.92594462,-0.491934955 L8.80981453,-0.513049517 Z" fill="#FFF" transform="translate(3 4.513)"/>
  </g>
 </g>
</svg>
