<svg width="25" height="20" viewBox="0 0 6.615 5.292" xmlns="http://www.w3.org/2000/svg">
 <path d="m 6.4066373,2.4070146 c 0.100872,0.1464051 0.100872,0.3312308 0,0.477637 L 5.0856053,4.9316662 C 4.9918314,5.0773049 4.815983,5.1647685 4.6283247,5.159112 H 1.9862594 C 1.7986,5.164812 1.6227551,5.0773009 1.5289789,4.9316662 L 0.20794568,2.8846516 c -0.10087151,-0.1464062 -0.10087151,-0.3312319 0,-0.477637 L 1.5035739,0.36000008 C 1.5973478,0.21436137 1.7731961,0.12689774 1.9608545,0.13255427 h 2.6674702 c 0.1876583,-0.005696 0.3635043,0.0818114 0.4572806,0.22744581 z" style="fill:#fff;fill-opacity:1;stroke:none;stroke-width:.2646;stroke-miterlimit:4;stroke-dasharray:none;stroke-opacity:1"/>
 <path style="fill:#bf2033;fill-opacity:1;stroke:none;stroke-width:.2646;stroke-miterlimit:4;stroke-dasharray:none;stroke-opacity:1" d="M 1.9607273 0.1323 C 1.7730691 0.12664348 1.5971359 0.21456886 1.5033621 0.36020742 L 0.89405859 1.323 L 5.7069879 1.323 L 5.085798 0.36020742 C 4.9920218 0.21457316 4.8160909 0.12660401 4.6284328 0.1323 L 1.9607273 0.1323 z"/>
 <path d="m 6.4066373,2.4070146 c 0.100872,0.1464051 0.100872,0.3312308 0,0.477637 L 5.0856053,4.9316662 C 4.9918314,5.0773049 4.815983,5.1647685 4.6283247,5.159112 H 1.9862594 C 1.7986,5.164812 1.6227551,5.0773009 1.5289789,4.9316662 L 0.20794568,2.8846516 c -0.10087151,-0.1464062 -0.10087151,-0.3312319 0,-0.477637 L 1.5035739,0.36000008 C 1.5973478,0.21436137 1.7731961,0.12689774 1.9608545,0.13255427 h 2.6674702 c 0.1876583,-0.005696 0.3635043,0.0818114 0.4572806,0.22744581 z" style="fill:none;fill-opacity:1;stroke:#000;stroke-width:.26458333;stroke-miterlimit:4;stroke-dasharray:none;stroke-opacity:1"/>
</svg>
