<svg width="25" height="20" viewBox="0 0 6.615 5.292" xmlns="http://www.w3.org/2000/svg">
 <path d="m 3.3072864,5.1593744 c 0.3674879,0 0.7062199,-0.1164765 0.9685344,-0.3098695 C 5.2845007,4.0140331 6.030901,2.9752244 6.4159235,1.8321451 6.456001,1.7317238 6.4822911,1.605447 6.4822911,1.4741245 6.4822911,0.93134447 6.0331737,0.47456062 5.399273,0.33892521 4.7256714,0.20191397 4.0493675,0.13229224 3.3072917,0.13229224 c -0.7420766,0 -1.4183794,0.0696188 -2.0919812,0.20663297 -0.63390111,0.13563541 -1.08301828,0.59241926 -1.08301828,1.13519929 0,0.1313225 0.0262888,0.2575993 0.0663669,0.3580206 0.38502355,1.1430793 1.13142278,2.181888 2.14010408,3.0173598 0.2623134,0.193393 0.6010451,0.3098695 0.9685345,0.3098695 z" style="display:inline;fill:#fff;fill-opacity:1;stroke:#000;stroke-width:.26458333;stroke-linecap:butt;stroke-linejoin:round;stroke-miterlimit:4;stroke-dasharray:none;stroke-opacity:1"/>
</svg>
