<svg height="20" width="24" xmlns="http://www.w3.org/2000/svg">
 <path style="fill:#fff;fill-opacity:1;fill-rule:nonzero;stroke:#000;stroke-width:2;stroke-linecap:round;stroke-linejoin:round;stroke-miterlimit:4;stroke-dasharray:none;paint-order:stroke fill markers" d="m 11.216797,1.0018866 c -0.0089,-2.222e-4 -0.02216,0.00111 -0.03516,0.00195 -0.02622,0.00222 -0.05552,0.00642 -0.06641,0.019531 0,0 -0.0456,0.04794 0.03516,0.1425781 0,0 0.357531,0.508906 0.43164,0.9101562 0,0 -0.187082,-0.015074 -0.767578,-0.3457031 0,0 -0.115158,-0.090412 -0.175781,-0.056641 0,0 -0.06055,0.013689 -0.06055,0.1015625 v 1.4472656 c 0,0 -0.0053,0.074345 0.04883,0.1015626 0,0 0.05215,0.03044 0.123047,-0.023438 0,0 0.43157,-0.3422269 0.863281,-0.4804687 0,0 -0.179505,0.5343918 -0.560547,0.8984375 0,0 -0.08039,0.090374 0.05469,0.1445312 L 11.5,3.8651678 c 0.0013,0.2243832 -0.134322,0.5327494 -0.183594,0.6347656 -0.0958,0.1983388 -0.581884,0.7890625 -1.8222654,0.7890625 0,0 -2.8512828,-0.5647272 -3.6210937,-0.5507813 0,1e-7 -2.7681793,-0.2890724 -3.6665547,0.4550782 0,0 -0.824048,0.5844755 -0.9550781,1.8457031 -0.206008,1.9829265 -0.51192047,4.2445781 0.6074218,5.0800781 l 0.5937501,3.535492 c 0,0 -0.6424575,0.497821 -0.6796876,1.435547 -0.057375,1.445103 0.018618,1.910223 0.5859376,1.910223 h 19.22007 c 0.494197,0 0.595824,-0.266149 0.648438,-1.910223 0.02909,-0.908996 -0.679688,-1.435547 -0.679688,-1.435547 l 0.59375,-3.535492 C 23.125091,11.456203 23.027425,8.9117018 22.748828,7.0389959 22.562242,5.7847829 21.79375,5.1932928 21.79375,5.1932928 20.895708,4.4491422 18.126953,4.7382146 18.126953,4.7382146 c -0.770133,-0.01398 -3.621094,0.5507813 -3.621094,0.5507813 -1.240705,0 -1.699489,-0.6061935 -1.822265,-0.7890625 C 12.626938,4.4155467 12.508557,4.1111668 12.5,3.8651678 l 0.392578,-0.00195 c 0.134998,-0.054215 0.05273,-0.1445344 0.05273,-0.1445344 C 12.564008,3.3546347 12.384766,2.8202459 12.384766,2.8202459 12.816777,2.9584877 13.25,3.3007146 13.25,3.3007146 c 0.07088,0.053879 0.121094,0.023438 0.121094,0.023438 0.05388,-0.027217 0.05078,-0.1015626 0.05078,-0.1015626 V 1.775324 c 0,-0.087873 -0.06055,-0.1015625 -0.06055,-0.1015625 -0.06066,-0.033661 -0.175781,0.056641 -0.175781,0.056641 -0.580196,0.3306738 -0.769531,0.3457031 -0.769531,0.3457031 0.07443,-0.4012501 0.43164,-0.9101562 0.43164,-0.9101562 0.0811,-0.09465 0.03711,-0.1425782 0.03711,-0.1425782 -0.022,-0.0266619 -0.115235,-0.019531 -0.115235,-0.019531 h -1.537109 c 0,0 -0.0061,-0.00176 -0.01563,-0.00195 z"/>
</svg>
