<svg width="20" height="20" xmlns="http://www.w3.org/2000/svg">
 <g fill="none">
  <g fill-rule="evenodd" transform="translate(1 1)">
   <path fill="#F38F00" d="M0 0H18V18H0z"/>
   <circle fill="#FFCD00" cx="10.211" cy="8.771" r="5.629"/>
   <path d="M18.1309091,4.37625553 L18.1309091,5.95565602 L15.6763636,6.08727273 L15.794744,5.92291148 C15.9441805,5.7154312 16.1218957,5.52986627 16.3227273,5.37160688 C16.524032,5.21297463 16.7408258,5.07505417 16.9698161,4.95994014 L18.1309091,4.37625553 Z M18.1309091,1.06938575 L18.1309091,3.93204914 L16.8375169,4.67880401 C16.5989983,4.81651549 16.3433872,4.9222254 16.0772727,4.99320885 L15.7576682,5.07846021 C15.7034674,5.09291775 15.649083,5.10667793 15.5945284,5.11973733 L15.5045455,5.14127764 C15.391463,5.16834758 15.273725,5.16951195 15.1601293,5.14468374 L14.9563636,5.10014742 L14.9876084,4.80957073 C15.0101851,4.59960755 15.0746806,4.39631283 15.1772727,4.21173464 C15.280447,4.02610906 15.4079493,3.85509368 15.5563987,3.70322344 L18.1309091,1.06938575 Z M18.1309091,0 L18.1309091,0.707439803 L15.796125,2.95403553 C15.5749184,3.16688689 15.3349313,3.35931507 15.0790909,3.52897297 L14.941049,3.62051405 C14.7778545,3.7287348 14.5977652,3.80900123 14.4081818,3.85801474 C14.2174354,3.90732894 14.0239724,3.94546387 13.8287804,3.97222484 L13.7618182,3.98140541 L13.7618182,3.67960111 C13.7618182,3.41078056 13.8032123,3.14356292 13.8845455,2.88734152 C13.9661157,2.63037333 14.0757312,2.38316753 14.2114109,2.15019245 L15.4636364,0 L18.1309091,0 Z M15.0872727,0 L13.8362609,2.12066557 C13.7324348,2.29666749 13.6086174,2.46008158 13.4672727,2.60765602 C13.3260915,2.75505977 13.1657901,2.88287538 12.9906498,2.98768902 L12.5672727,3.24106143 L12.5232985,3.15853244 C12.3905591,2.90941291 12.3134438,2.63446203 12.2972727,2.35264865 C12.2810162,2.06934583 12.3107074,1.78527899 12.3851951,1.51146092 L12.7963636,0 L15.0872727,0 Z M12.4363636,0 L12.0643575,1.3624906 C12.0070141,1.57251345 11.9316454,1.77719345 11.8390909,1.97425061 C11.7470512,2.17021171 11.6219516,2.34885853 11.4692765,2.5023589 L11.0454545,2.92847174 L11.0114421,2.8708779 C10.8277206,2.55977967 10.6877417,2.22484996 10.5954545,1.87553808 C10.503115,1.52602777 10.4563636,1.16604311 10.4563636,0.804540625 L10.4563636,0 L12.4363636,0 Z M1.73454545,0 L4.76909901,3.2066176 C4.88418575,3.32822993 4.99368981,3.45500645 5.09727273,3.58655528 C5.197973,3.71444319 5.25272727,3.8724871 5.25272727,4.0352626 L5.25272727,4.22818673 L3.53358531,3.81528291 C2.72349396,3.62071502 1.95799548,3.2732815 1.27819721,2.79163955 L-0.130909091,1.79327764 L-0.130909091,0 L1.73454545,0 Z M5.15454545,0 L6.48721562,2.20936636 C6.62270849,2.43399312 6.70945278,2.68460099 6.74181818,2.94492383 C6.77436382,3.20669629 6.76772563,3.47185703 6.72212225,3.73167306 L6.69272727,3.89914496 L6.56994783,3.87514214 C6.26179927,3.81490048 5.96765655,3.69748728 5.70272727,3.52897297 C5.43635351,3.35953987 5.19053119,3.15978191 4.97018807,2.93370346 L2.11090909,0 L5.15454545,0 Z M7.78909091,0 L8.13748283,1.15461059 C8.19965933,1.36067059 8.2445926,1.5715442 8.27181818,1.7850516 C8.29906347,1.99871357 8.31272727,2.21388873 8.31272727,2.42928081 C8.31272727,2.65081604 8.25855363,2.86327208 8.15516843,3.05281709 L8.03454545,3.2739656 L7.78525362,3.16003862 C7.59353823,3.07242422 7.42210695,2.94595075 7.28181818,2.78862899 C7.14011519,2.62972131 7.00758504,2.46286581 6.88487257,2.28887432 L6.58865739,1.86887691 C6.48353779,1.71982999 6.38469384,1.56645451 6.29238435,1.40915203 L5.46545455,0 L7.78909091,0 Z M-0.130909091,2.12231941 L0.850909091,2.92847174 L-0.130909091,2.92847174 L-0.130909091,2.12231941 Z M10.1127273,0 L10.1127273,1.26745345 C10.1127273,1.50768703 10.0880523,1.74728535 10.0390909,1.98247666 C9.99048068,2.21598092 9.89614343,2.43755768 9.76151502,2.63443933 L9.60545455,2.86266339 L9.3238212,2.68777311 C9.14407541,2.57615355 8.99817324,2.41762778 8.90181818,2.22925799 C8.80375422,2.03754735 8.71909208,1.83927207 8.64844005,1.63585673 L8.52419902,1.27815246 C8.43784193,1.02952041 8.36656022,0.775905893 8.3107422,0.518690431 L8.19818182,0 L10.1127273,0 Z" fill="#9BCBEB"/>
   <path d="M-0.130909091,2.61818182 C1.64727273,2.67272727 3.40363636,3.17454545 5.13818182,4.12363636 C6.87272727,5.07272727 8.51454545,6.46909091 10.0636364,8.31272727 C11.6127273,7.32 12.9763636,6.67636364 14.1545455,6.38181818 C15.3327273,6.08727273 16.6581818,5.94545455 18.1309091,5.95636364 L18.1309091,18.2454545 L-0.130909091,18.3927273 L-0.130909091,2.61818182 Z" fill="#006747"/>
   <path d="M18.1309091,6.93818182 L18.1309091,7.31451655 C16.7096376,7.4672321 15.4250267,7.95264936 14.2770766,8.77076835 C13.2478172,9.50429911 12.3591811,10.5052898 11.6111683,11.7737405 C11.5536628,11.871256 11.4200767,11.9174576 11.21041,11.9123453 L10.6036364,11.814171 C11.4345336,10.221566 12.5606179,9.03802055 13.9818895,8.26353458 C15.403161,7.4890486 16.7861676,7.04726435 18.1309091,6.93818182 Z M18.1309091,7.65818182 L18.1309091,7.9868472 C16.7040268,8.37029014 15.6887451,8.86876596 15.0850641,9.48227466 C14.4813832,10.0957834 14.0203904,10.7038143 13.7020859,11.3063675 L12.7636364,11.52 C13.3234133,10.238205 14.0972225,9.32889749 15.0850641,8.79207737 C16.0729057,8.25525725 17.0881874,7.87729207 18.1309091,7.65818182 Z M18.1309091,8.31272727 L18.1309091,8.62738226 C17.5169906,8.91443593 17.0510703,9.24013143 16.7331482,9.60446878 C16.4152262,9.96880613 16.1192297,10.4104272 15.845159,10.9293319 L14.7927273,11.0618182 C15.2970175,10.344184 15.7355307,9.79767798 16.1082669,9.42230011 C16.4810031,9.04692223 17.1552172,8.67706462 18.1309091,8.31272727 Z M18.1309091,6.15272727 L18.1309091,6.59604314 C16.4886804,6.67266564 14.9066667,7.09408937 13.384868,7.86031433 C11.8630694,8.62653929 10.7080352,9.67188906 9.9197654,10.9963636 L8.96727273,10.4709522 C10.3738192,8.95563968 11.6876022,7.91028991 12.9086217,7.33490293 C14.1296412,6.75951594 15.8704037,6.36545739 18.1309091,6.15272727 Z M18.1309091,8.90181818 L18.1309091,9.63444976 C17.9872957,9.63444976 17.8602532,9.73435407 17.7497814,9.93416268 C17.6393096,10.1339713 17.5454085,10.4225837 17.4680783,10.8 L16.8218182,10.8 C16.9764787,10.3004785 17.1421864,9.91196172 17.3189413,9.63444976 C17.4956962,9.3569378 17.7663521,9.11272727 18.1309091,8.90181818 Z" fill="#6CC24A"/>
   <path d="M-0.130909091,6.74181818 C1.46066355,6.91477597 2.95739721,7.25295779 4.35929189,7.75636364 C5.76118657,8.25976948 7.10496935,8.94158766 8.39064022,9.80181818 L8.25953946,9.98181818 C8.93689338,10.3527273 9.45583389,10.6527273 9.81636097,10.8818182 C10.1768881,11.1109091 10.5920405,11.4054545 11.0618182,11.7654545 C8.51627845,11.9509091 6.28210302,12.5727273 4.35929189,13.6309091 C2.43648077,14.6890909 0.939747105,16.32 -0.130909091,18.5236364 L-0.130909091,6.74181818 Z" fill="#DDCBA4"/>
   <path d="M5.63762424,13.0501391 C4.40307071,13.5418069 3.32693333,14.202827 2.40921212,15.0331994 C1.49149091,15.8635717 0.71579798,16.939778 0.0821333333,18.2618182 L-0.130909091,18.2618182 L-0.130909091,16.5901475 C0.601082828,15.8253309 1.34946263,15.1424589 2.1142303,14.5415315 C2.87899798,13.9406042 4.05346263,13.4434734 5.63762424,13.0501391 Z M7.44029091,12.4601377 L6.80116364,12.6568048 C5.44643232,12.7660644 4.28289293,12.9681945 3.31054545,13.2631952 C2.33819798,13.5581959 1.19104646,14.219216 -0.130909091,15.2462554 L-0.130909091,13.984308 C0.830513131,13.5035661 1.93942626,13.071991 3.1958303,12.6895827 C4.45223434,12.3071744 5.86705455,12.2306927 7.44029091,12.4601377 Z M8.65299394,12.1323591 L8.21052121,12.2470816 C6.89949091,12.0504145 5.5447596,11.9520809 4.14632727,11.9520809 C2.74789495,11.9520809 1.32214949,12.3181003 -0.130909091,13.0501391 L-0.130909091,11.8209695 C0.983466667,11.493191 2.18524444,11.2910608 3.47442424,11.2145792 C4.76360404,11.1380975 6.48979394,11.4440242 8.65299394,12.1323591 Z M4.03161212,9.73957566 C5.63762424,9.9362428 7.58231919,10.6300407 9.86569697,11.8209695 L9.34128485,11.9520809 C7.71342222,11.1107826 5.94353131,10.6300407 4.03161212,10.5098553 C2.11969293,10.3896698 0.732185859,10.4934663 -0.130909091,10.8212449 L-0.130909091,9.73957566 C1.03809293,9.54290853 2.4256,9.54290853 4.03161212,9.73957566 Z M-0.130909091,7.65818182 C1.36585051,7.65818182 3.11389091,7.9804974 5.11321212,8.62512857 C7.11253333,9.26975973 9.05176566,10.2858733 10.9309091,11.6734692 L10.6359273,11.8209695 C8.74585859,10.5317072 6.81755152,9.65216805 4.85100606,9.18235211 C2.88446061,8.71253618 1.22382222,8.526795 -0.130909091,8.62512857 L-0.130909091,7.65818182 Z" fill="#693F23"/>
   <path d="M-0.130909091,18.3927273 C1.05818182,15.9759522 2.81454545,14.2481221 5.13818182,13.2092369 C7.46181818,12.1703517 9.82909091,11.6509091 12.24,11.6509091 C9.93818182,12.4820173 8.56363636,13.6411944 8.11636364,15.1284406 C7.66909091,16.6156868 7.60909091,17.7037823 7.93636364,18.3927273 L-0.130909091,18.3927273 Z" fill="#DDCBA4"/>
   <path d="M3.375,18.225 L4.04181818,18.3602972 C4.2218332,17.69736 4.37456047,17.2022609 4.5,16.875 C4.85631657,15.9454009 5.39485061,14.8682994 6.48,13.9853013 C7.22625013,13.3780692 8.43219853,12.7044377 9.27818182,12.4183943 C9.92181818,12.2007684 10.7781818,11.9885763 11.8472727,11.7818182 C10.8653755,11.9278992 10.1399209,12.0693628 9.67090909,12.206209 C8.4737431,12.5555128 7.33894974,13.0884326 6.33272727,13.8710476 C5.19591434,14.7552327 4.27460683,15.7516547 3.83318182,16.8376345 C3.71391692,17.1310462 3.56118965,17.5935014 3.375,18.225 Z" fill="#FFF"/>
  </g>
  <rect stroke="#FFF" x=".5" y=".5" width="19" height="19" rx="2"/>
 </g>
</svg>
