<svg width="20" height="20" xmlns="http://www.w3.org/2000/svg">
 <g fill="none">
  <rect fill="#FFF" fill-rule="evenodd" width="20" height="20" rx="10"/>
  <path d="M4,4 L5,4 L5,6 L7,6 L7,4 L8,4 L8,9 L7,9 L7,7 L5,7 L5,9 L4,9 L4,4 Z M10,4 L10,8 L12,8 L12,9 L9,9 L9,4 L10,4 Z M13.9999933,4 C14.9999933,4 15.9999933,4.5 15.9999933,5.75 L14.9999933,5.75 C14.9999933,5.25 14.66666,5 13.9999933,5 C12.9999933,5 12.9999933,5.75 12.9999933,6.5 C12.9999933,7.25 12.9999933,8 13.9999933,8 C14.66666,8 14.9999933,7.75 14.9999933,7.25 L15.9999933,7.25 C15.9999933,8.5 14.9999933,9 13.9999933,9 C12.9999933,9 11.9999933,8.5 11.9999933,6.5 C11.9999933,4.5 12.9999933,4 13.9999933,4 Z" fill="#000" fill-rule="evenodd"/>
  <g stroke-linejoin="square">
   <rect stroke="#FFF" stroke-width="2.25" x="1.125" y="1.125" width="17.75" height="17.75" rx="8.875"/>
   <rect stroke="#000" stroke-width="2" x="1" y="1" width="18" height="18" rx="9"/>
   <rect stroke="#FFF" x=".5" y=".5" width="19" height="19" rx="9.5"/>
  </g>
  <path d="M1,10 L19,10 C19,14.9705627 14.9705627,19 10,19 C5.02943725,19 1,14.9705627 1,10 L1,10 L1,10 Z" fill="#000" fill-rule="evenodd"/>
  <path d="M5.5,11 L5.5,13 C5.5,13.2761424 5.72385763,13.5 6,13.5 C6.27614237,13.5 6.5,13.2761424 6.5,13 L6.5,11 L7.25,11 L7.25,13 C7.25,13.6903559 6.69035594,14.25 6,14.25 C5.30964406,14.25 4.75,13.6903559 4.75,13 L4.75,11.75 L4,11.75 L4,14.25 L3.25,14.25 L3.25,11.75 L2.5,11.75 L2.5,11 L5.5,11 Z M7.5,11 L8.25,11 L9.25,12.75 L9.25,11 L10,11 L10,14.25 L9.25,14.25 L8.25,12.5 L8.25,14.25 L7.5,14.25 L7.5,11 Z M10.25,11 L11,11 L12,12.75 L12,11 L12.75,11 L12.75,14.25 L12,14.25 L11,12.5 L11,14.25 L10.25,14.25 L10.25,11 Z M13,14.25 L13,11 L15,11 L15,11.75 L13.75,11.75 L13.75,12.25 L14.5,12.25 L14.5,13 L13.75,13 L13.75,13.5 L15,13.5 L15,14.25 L13,14.25 Z M15.25,14.25 L15.25,11 L16,11 L16,13.5 L17.25,13.5 L17.25,14.25 L15.25,14.25 Z" fill="#FFF"/>
 </g>
</svg>
