<svg width="25" height="20" version="1.0" xmlns="http://www.w3.org/2000/svg">
 <path d="M 0.94619926,1.0440726 0.94566156,1.043728 H 7.6255358 c 0.5192441,0.2555616 1.1289531,0.4554984 1.7950841,0.61022 0.6661951,0.1547113 1.4404461,-0.2011735 2.1856981,-0.1264531 0.372626,0.037363 0.673429,0.2531899 1.053097,0.2592916 0.379705,0.0061 0.838328,-0.1975245 1.216588,-0.1897302 0.756583,0.015601 0.98524,0.5936481 2.150234,0.510282 0.697755,-0.049923 1.203722,-0.3527732 1.89597,-0.5541189 0.69225,-0.2013559 1.573084,-0.2739579 2.304381,-0.2672481 1.400118,0.012865 2.800235,-0.54839223 4.200352,-0.7859731 L 24.5,8.253304 c -0.737891,0.3876704 -0.18477,1.0393149 -0.234112,1.6441124 -0.02697,0.3305256 -0.08414,0.6724536 -0.406708,0.8485606 -0.321325,0.17549 -0.290585,0.591317 -0.139243,1.068303 0.200364,0.631455 -0.13114,1.265139 -0.289908,1.884228 -0.158768,0.619038 -0.481552,1.201891 -1.119158,1.707764 -0.623715,0.494916 -1.555161,1.329703 -2.656074,1.460049 -1.421114,0.168263 -1.895587,0.679092 -2.658892,1.33031 -0.352026,0.300321 -0.516056,0.38534 -1.338406,0.442566 -0.458393,0.0319 -0.339865,0.30921 -1.361966,0.356675 -1.008734,0.04685 -1.94462,0.50492 -2.545073,0.504129 C 10.06715,19.497822 8.6859809,17.743687 6.4671233,17.500735 5.3595509,17.379491 4.3345567,16.995034 3.3305591,16.575902 2.8263965,16.365302 2.342821,15.948198 1.7857701,15.872535 1.1149021,15.78179 0.96952596,15.354448 0.50087856,15.174337 V 10" fill="#fff" stroke="#000" stroke-linecap="round" stroke-linejoin="round" stroke-width="1.254" style="stroke:#000;stroke-width:1;stroke-miterlimit:4;stroke-dasharray:none;stroke-opacity:1"/>
 <path d="M 0.94566156,1.043728 H 7.6255358 c 0.5192441,0.2555616 1.1289531,0.4554984 1.7950841,0.61022 0.6661951,0.1547113 1.4404461,-0.2011735 2.1856981,-0.1264531 0.372626,0.037363 0.673429,0.2531899 1.053097,0.2592916 0.379705,0.0061 0.838328,-0.1975245 1.216588,-0.1897302 0.756583,0.015601 0.98524,0.5936481 2.150234,0.510282 0.697755,-0.049923 1.203722,-0.3527732 1.89597,-0.5541189 0.69225,-0.2013559 1.573084,-0.2739579 2.304381,-0.2672481 1.400118,0.012865 2.800235,-0.54839223 4.200352,-0.7859731 L 24.5,8.253304 c -0.737891,0.3876704 -0.18477,1.0393149 -0.234112,1.6441124 -0.02697,0.3305256 -0.08414,0.6724536 -0.406708,0.8485606 -0.321325,0.17549 -0.290585,0.591317 -0.139243,1.068303 0.200364,0.631455 -0.13114,1.265139 -0.289908,1.884228 -0.158768,0.619038 -0.481552,1.201891 -1.119158,1.707764 -0.623715,0.494916 -1.555161,1.329703 -2.656074,1.460049 -1.421114,0.168263 -1.895587,0.679092 -2.658892,1.33031 -0.352026,0.300321 -0.516056,0.38534 -1.338406,0.442566 -0.458393,0.0319 -0.339865,0.30921 -1.361966,0.356675 -1.008734,0.04685 -1.94462,0.50492 -2.545073,0.504129 C 10.06715,19.497822 8.6859809,17.743687 6.4671233,17.500735 5.3595509,17.379491 4.3345567,16.995034 3.3305591,16.575902 2.8263965,16.365302 2.342821,15.948198 1.7857701,15.872535 1.1149021,15.78179 0.96952596,15.354448 0.50087856,15.174337 V 1.4171475 c -0.015951,-0.2531391 0.1872798,-0.3774941 0.4453207,-0.3730749 z" fill="#fff" style="stroke:none;stroke-width:1;stroke-miterlimit:4;stroke-dasharray:none;stroke-opacity:1;fill:none"/>
 <path d="M5.075008 6.9555979V6.6882542h.021761q.1025853 0 .1834102-.012435.083933-.015543.1398891-.055956.059064-.043521.093259-.1212373.034195-.080825.040412-.211388V2.8863784L4.0957841 6.9555979H3.7507242L2.2741167 2.898813v3.33247q0 .1492151.031086.2393659.031087.090151.090151.1398891.062173.04663.1461064.062173.087042.015543.1927361.015543h.018652V6.9555979H1.2824582V6.6882542h.080825q.105694 0 .1989535-.012435.096368-.015543.1678669-.059064.071499-.043521.1119113-.1274545.043521-.087042.043521-.2269313V3.110201q0-.1398891-.043521-.2238226Q1.8016023 2.7993363 1.7301034 2.7527066 1.6586045 2.7060769 1.5622365 2.6936423 1.468977 2.678099 1.363283 2.678099H1.2824582V2.4107554H2.7341965L4.052263 6.0509815 5.3578949 2.4107554h1.411326V2.678099H6.688396q-.1088026 0-.2051707.015543-.093259.015543-.1647583.065282-.071499.04663-.1119113.1367804-.040412.090151-.040412.2393659V6.231283q0 .1492151.040412.2393659.040412.090151.1119113.1398891.071499.04663.1647583.062173.096368.015543.2051707.015543h.080825v.2673437zM11.373128 4.6769593q0 .5253614-.130564.9574634-.130563.432102-.385472.7398581-.254909.3077561-.627947.4756231-.3730373.1678669-.8548776.1678669-.5067096 0-.8828559-.1678669Q8.1152652 6.6820369 7.8665734 6.3742808 7.6178816 6.0665247 7.4935357 5.6344227 7.3691898 5.1992121 7.3691898 4.670742q0-.52847.1243459-.9574634.1243459-.432102.3730377-.7367494.2486918-.3046475.6279467-.4694058.379255-.1678669.8859646-.1678669.4818403 0 .8517693.1678669.369929.1647583.624838.4725144.254909.3046475.385472.7367495.130564.4289933.130564.960572zm-3.2982753 0q0 .4725144.06839.8455521.071499.3699291.2269312.6279468.1554324.2549091.4010156.3916896.2486918.1336718.6030776.1336718.3543858 0 .5999689-.1336718.2486917-.1367805.4010157-.3916896.155432-.2580177.223822-.6279468.06839-.3730377.06839-.8455521 0-.4725144-.06839-.8424434Q10.530684 3.4614782 10.375252 3.2065691 10.222928 2.95166 9.977345 2.8179882 9.7348705 2.6843163 9.3804847 2.6843163q-.3543859 0-.6030776.1336719Q8.5287153 2.95166 8.3701742 3.2065691 8.2147419 3.4614782 8.143243 3.8345159q-.06839.369929-.06839.8424434zM15.265154 6.178436q.16165.2549091.313973.3823637.152324.1274545.354386.1274545h.01865v.2673437h-.09015q-.29843 0-.491166-.021761-.189627-.021761-.323299-.083933-.133672-.062173-.23004-.1740843-.09326-.1119113-.202062-.2922128L13.754351 4.9505203h-.52847v1.3118492q0 .1398891.04041.2269313.04352.083933.11502.1274545.0715.043521.164758.059064.09637.012435.202062.012435h.08393V6.9555979H11.979314V6.6882542h.08082q.105694 0 .198953-.012435.09637-.015543.167867-.059064.0715-.043521.111911-.1274545.04352-.087042.04352-.2269313V3.110201q0-.1398891-.04352-.2238226-.04041-.087042-.111911-.1336718-.0715-.04663-.167867-.059064-.09326-.015543-.198953-.015543h-.08082V2.4107554h1.712864q.826901 0 1.231025.307756.404124.3046475.404124.9201597 0 .2549091-.08393.4476452-.08083.1896275-.214497.3295166-.133672.1398892-.301539.2331486-.167867.093259-.335734.1492151zM13.225881 4.6520901h.447646q.279778 0 .466297-.062173.186519-.062173.29843-.1865189.111911-.1243459.158541-.3108647.04974-.1865188.04974-.4352106 0-.2549091-.05285-.432102Q14.540839 3.0449194 14.422711 2.9330081 14.304582 2.8179882 14.114955 2.7682498 13.928436 2.7154028 13.657983 2.7154028h-.432102zM18.336497 7.0177708q-.553339 0-.966789-.1678669Q16.959367 6.6820369 16.685806 6.3742808 16.415353 6.0665247 16.281681 5.6344227 16.14801 5.2023207 16.14801 4.6769593q0-.5160355.139889-.9450288.142998-.4289933.422776-.7367494.282887-.3077561.699445-.4787317.416559-.1709756.96679-.1709756.354386 0 .615512.055956.264235.052847.438319.1492151.177193.096368.264235.2269312.08704.1305632.08704.282887 0 .1025853-.04663.1865188-.04663.080825-.127455.1398891-.07772.055956-.186519.087042-.105694.031086-.23004.031086 0-.149215-.04352-.2953215-.04352-.1461064-.142997-.2611263-.09948-.1181286-.261127-.1896275-.161649-.074608-.394798-.074608-.404124 0-.69012.1336719-.282887.1305632-.463188.3854722-.180302.2518005-.261127.6248382-.08082.369929-.08082.8486607 0 .4756231.08393.8455521.08393.3699291.273561.6217295.189628.2518004.491166.3823636.301539.1305632.73675.1305632.18341 0 .354386-.018652.174084-.018652.307756-.059064V5.5535979q0-.1398891-.04352-.2238226-.04041-.087042-.111912-.1305632-.0715-.04663-.167867-.062173-.09326-.015543-.198953-.015543h-.02487V4.8541522h1.6538v.2673437h-.02487q-.09015 0-.170976.015543-.08082.015543-.139889.065282-.05906.04663-.09326.1398892-.0342.090151-.0342.2393658V6.725558q-.320191.149215-.659034.2207139-.338842.071499-.749184.071499zM21.616122 5.4354693l-.242475.6683592q-.02798.074607-.04352.1492151-.01554.071499-.01554.1243459 0 .1616496.102585.2362572.105694.074607.320191.074607h.146106V6.9555979H20.329142V6.6882542h.121237q.09326 0 .158541-.018652.06528-.021761.118128-.077716.05285-.055956.09948-.1523237.04974-.096368.108803-.2486918l1.411326-3.7801152h.497383l1.439304 3.9386562q.0373.099477.07461.1647583.04041.065282.09326.1056941.05285.037304.121237.052847.06839.015543.16165.015543h.08393V6.9555979H23.06786V6.6882542h.146106q.382364 0 .382364-.3046474 0-.052847-.01554-.1088027-.01243-.055956-.0373-.1274546L23.288574 5.4354693Zm1.162634-1.4330865q-.09948-.2828869-.18341-.52847-.08083-.2486918-.133672-.4787317-.02176.1150199-.05285.2238226-.02798.105694-.06217.2176053-.0342.1119113-.07772.2362572-.04352.1212373-.09948.2704523l-.432102 1.1719601h1.436195zM28.439602 6.9555979 26.05216 3.2873939V6.231283q0 .1492151.04041.2393659.04352.090151.111911.1398891.0715.04663.167867.062173.09637.015543.202062.015543h.08393V6.9555979H25.060502V6.6882542h.08083q.108802 0 .202062-.015543.09637-.015543.167867-.062173.0715-.049738.111911-.1398891.04041-.090151.04041-.2393659V3.110201q0-.1398891-.04352-.2238226-.04041-.087042-.111911-.1336718-.0715-.04663-.167867-.059064-.09326-.015543-.198953-.015543h-.08083V2.4107554h1.165743l2.278638 3.5189888V3.110201q0-.1398891-.04352-.2238226-.04041-.087042-.111911-.1336718-.0715-.04663-.167867-.059064-.09326-.015543-.198953-.015543h-.08393V2.4107554h1.597845V2.678099h-.08083q-.108803 0-.205171.015543-.09326.015543-.164758.065282-.0715.04663-.111911.1367804-.04041.090151-.04041.2393659v3.8205277z" transform="scale(.77975 1.28246)" aria-label="MORGAN" style="font-size:6.36651px;line-height:1.25;font-family:'Noto Serif';-inkscape-font-specification:'Noto Serif';text-align:center;text-anchor:middle;fill:#bf2033;stroke-width:.795815"/>
 <path d="m 24.265888,9.8974164 c 0,0 -0.08414,0.6724536 -0.406708,0.8485606 -0.321325,0.17549 -0.290585,0.591317 -0.139243,1.068303 0.200364,0.631455 -0.13114,1.265139 -0.289908,1.884228 -0.158768,0.619038 -0.481552,1.201891 -1.119158,1.707764 -0.623715,0.494916 -1.555161,1.329703 -2.656074,1.460049 -1.421114,0.168263 -1.895587,0.679092 -2.658892,1.33031 -0.352026,0.300321 -0.516056,0.38534 -1.338406,0.442566 -0.458393,0.0319 -0.339865,0.30921 -1.361966,0.356675 -1.008734,0.04685 -1.94462,0.50492 -2.545073,0.504129 C 10.06715,19.497822 8.6859809,17.743687 6.4671233,17.500735 5.3595509,17.379491 4.3345567,16.995034 3.3305591,16.575902 2.8263965,16.365302 2.342821,15.948198 1.7857701,15.872535 1.1149021,15.78179 0.96952596,15.354448 0.50087856,15.174337 L 0.5,10 Z" fill="#fff" stroke="#000" stroke-linecap="round" stroke-linejoin="round" stroke-width="1.254" style="fill:#000;stroke:#000;stroke-width:1;stroke-miterlimit:4;stroke-dasharray:none;stroke-opacity:1"/>
 <path style="fill:none;stroke:#ffcd00;stroke-width:1px;stroke-linecap:round;stroke-linejoin:miter;stroke-opacity:1" d="M 0.88983051,14.067797 C 2.6271186,12.838983 3.8559322,13.898305 3.8559322,13.898305 c 0,0 0.9745763,1.228814 2.4576271,1.822034 1.4830509,0.59322 1.3135593,0.59322 1.4830509,0.59322 0.1694915,0 0.3813559,0.127119 1.2288135,0.127119 0.8474577,0 1.1440683,-0.381356 1.9491523,-0.211864 0.805085,0.169491 2.161017,0.466101 3.050848,0.381356 0.88983,-0.08475 1.059322,-1.525424 2.627118,-1.355933 1.567797,0.169492 1.144068,0.423729 2.923729,0.381356 1.779661,-0.04237 1.90678,-0.169491 2.20339,-0.338983 0.29661,-0.169491 0.847458,-0.508474 0.423729,-0.635593 -0.423729,-0.127119 0.254237,-0.08475 -1.101695,-0.466102 -1.355932,-0.381356 -2.542373,-0.677966 -2.415254,-1.525423 0.127118,-0.847458 1.271186,-0.720339 2.669491,-1.271187 1.398305,-0.550847 1.61017,-1.144068 1.61017,-1.144068"/>
</svg>
