<svg width="16" height="20" xmlns="http://www.w3.org/2000/svg">
 <path d="M 11.132656,1.8319984 C 12.1461,1.8319984 13.1107,1.3971528 13.985544,1 L 15,2.3043976 v 2.7864185 c -0.19621,0.5594764 -0.438768,1.2929434 -0.438768,1.9239927 0,0.780274 0.145468,1.5197952 0.438768,2.1840052 -2.8e-4,4.771716 -2.892303,8.323583 -6.956036,9.786459 -0.01641,0.0082 -0.01322,0.0041 -0.044256,0.01473 -0.057011,-0.02684 -0.0609,-0.02504 -0.1043389,-0.045 C 3.874025,17.472489 1,13.93876 1,9.198814 1.2932611,8.534981 1.4382933,7.7948947 1.4382933,7.0146942 1.4382933,6.3836776 1.1961244,5.6502761 1,5.0908161 V 2.3041522 L 2.0254557,1 C 2.9001446,1.3969073 3.864589,1.8256903 4.8777223,1.8256903 5.9961668,1.8256903 7.0550334,1.4782082 7.9998223,1 8.947333,1.4816772 10.009933,1.8319984 11.132656,1.8319984 Z" style="fill:#fff;stroke-width:2;stroke-miterlimit:4;stroke-dasharray:none;stroke:#000;stroke-linejoin:round;stroke-linecap:round;paint-order:markers stroke fill"/>
 <path style="fill:none;stroke:#000;stroke-width:1px;stroke-linecap:butt;stroke-linejoin:miter;stroke-opacity:1" d="m 0.5,4.5 h 15"/>
</svg>
