<svg width="20" height="20" viewBox="0 0 5.292 5.292" xmlns="http://www.w3.org/2000/svg">
 <path style="color:#000;fill:#003f87;stroke:#fff;stroke-width:.5292;stroke-linecap:round;stroke-linejoin:round;stroke-miterlimit:4;stroke-dasharray:none;stroke-opacity:1;paint-order:markers stroke fill" d="m 0.4542645,1.323 c 0.1486607,0.2406151 0.2288639,0.4847625 0.2403105,0.8361773 0,0.3372235 -0.068914,0.5682676 -0.2459954,0.8186062 -0.099694,0.1394403 -0.1813955,0.5003287 -0.1813955,0.7173142 0,0.2927699 0.1102816,0.6009625 0.3064605,0.7767458 C 0.7698233,4.6476268 1.0568547,4.7628 1.4062043,4.7628 h 0.7834642 c 0.1337455,0 0.2575306,-0.0071 0.3400522,0.1038761 6.615e-4,6.88e-4 0.00143,0.00135 0.00206,0.00206 L 2.6454832,5.0274 2.7607289,4.8687435 c -4.8e-6,-7.145e-4 -4.8e-6,-0.00135 0,-0.00206 C 2.8432545,4.7556942 2.9685856,4.7628 3.1023316,4.7628 H 3.8878629 C 4.2357842,4.7628 4.523843,4.6477167 4.7204227,4.4718435 4.9169985,4.2959673 5.0274,3.9876551 5.0274,3.6950977 5.0274,3.4764445 4.9480931,3.121986 4.8491051,2.9793341 4.6653625,2.7308337 4.594841,2.4963715 4.594841,2.1591773 4.5971103,1.8815596 4.6784004,1.5809019 4.8294668,1.323 Z"/>
 <path style="fill:#bf2033;fill-rule:evenodd;stroke:#fff;stroke-width:.5292;stroke-linecap:round;stroke-linejoin:round;stroke-miterlimit:4;stroke-dasharray:none;stroke-opacity:1;paint-order:markers stroke fill" d="M 1.2857906,0.2661504 0.2646,1.0584 0.27442,1.069253 c 6.501e-4,7e-4 0.00142,0.00135 0.00207,0.00207 C 0.344083,1.157551 0.4030292,1.2400571 0.4542685,1.323 h 4.3757191 c 0.05328,-0.090939 0.114765,-0.1768213 0.1850133,-0.2542641 l 0.00982,-0.00827 0.00258,-5.168e-4 -1.0180898,-0.79069923 -0.00982,0.007752 c 4.8e-6,5.1401e-4 4.8e-6,0.001037 0,0.00155 -0.1828427,0.15610487 -0.4282495,0.2465121 -0.6821719,0.2465121 -0.3209938,0 -0.5489548,-0.14262162 -0.658916,-0.22687383 l -0.011886,-0.007752 -0.00775,0.004651 -0.00207,0.00155 C 2.5272761,0.38259494 2.297743,0.52196483 1.9757185,0.52196483 c -0.255221,0 -0.4964272,-0.0902669 -0.6785543,-0.2449617 z"/>
</svg>
