<svg width="20" height="20" version="1.0" xmlns="http://www.w3.org/2000/svg">
 <path d="M 0.85261962,1.0437181 H 6.1409216 c 0.411074,0.2555616 0.893767,0.4554984 1.421127,0.61022 0.527412,0.1547113 1.140368,-0.2011735 1.730367,-0.1264531 0.295,0.037363 0.533138,0.2531899 0.8337134,0.2592916 0.300604,0.0061 0.663685,-0.1975245 0.963145,-0.1897302 0.598969,0.015601 0.779992,0.5936481 1.702291,0.510282 0.552396,-0.049923 0.952959,-0.3527732 1.500996,-0.5541189 C 14.840599,1.3518536 15.537935,1.2792516 16.116886,1.2859614 17.225327,1.2988264 18.39156,0.73756915 19.5,0.49998825 l 4.8e-5,7.75330585 c -0.584171,0.3876704 -0.146278,1.0393149 -0.185341,1.6441124 -0.02135,0.3305255 -0.06661,0.6724535 -0.321981,0.8485605 -0.254386,0.17549 -0.23005,0.591317 -0.110236,1.068303 0.158624,0.631455 -0.10382,1.265139 -0.229513,1.884228 -0.125693,0.619038 -0.381234,1.201891 -0.886012,1.707764 -0.493781,0.494916 -1.231185,1.329703 -2.102753,1.460049 -1.125063,0.168263 -1.500692,0.679092 -2.104983,1.33031 -0.278691,0.300321 -0.40855,0.38534 -1.059586,0.442566 -0.362899,0.0319 -0.269063,0.30921 -1.078237,0.356675 -0.798591,0.04685 -1.5395114,0.50492 -2.0148764,0.504129 -1.332638,-0.0022 -2.426078,-1.756314 -4.182696,-1.999266 -0.87684,-0.121244 -1.688304,-0.505701 -2.483146,-0.924833 -0.399134,-0.2106 -0.781969,-0.627704 -1.222974,-0.703367 C 0.98660262,15.781775 0.87151162,15.354438 0.50049462,15.174327 V 1.4171376 c -0.01263,-0.2531391 0.148265,-0.3774941 0.35255,-0.3730749 z" fill="#fff" style="stroke:#000;stroke-linejoin:round;stroke-opacity:1"/>
 <path d="m 18.882421,12 c 0,0 -0.10382,1.079279 -0.229513,1.698368 -0.125693,0.619038 -0.381234,1.201891 -0.886012,1.707764 -0.493781,0.494916 -1.231185,1.329703 -2.102753,1.460049 -1.125063,0.168263 -1.500692,0.679092 -2.104983,1.33031 -0.278691,0.300321 -0.40855,0.38534 -1.059586,0.442566 -0.362899,0.0319 -0.269063,0.30921 -1.078237,0.356675 -0.798591,0.04685 -1.5395112,0.50492 -2.0148756,0.504129 C 8.0738232,19.497682 6.9803835,17.743547 5.2237649,17.500595 4.3469253,17.379351 3.5354609,16.994894 2.7406191,16.575762 2.3414852,16.365162 1.9586496,15.948058 1.5176452,15.872395 0.98653438,15.78165 0.87144347,15.354308 0.50042607,15.174197 V 12 Z" fill="#fff" stroke="#000" stroke-linecap="round" stroke-linejoin="round" stroke-width="1.254" style="fill:#000;stroke-width:1;stroke-dasharray:none"/>
 <path style="fill:none;stroke:#ffcd00" d="m 0.84745767,14.067796 c 0,0 0.50847453,-0.762712 2.79661013,0.08475 2.2881356,0.847458 4.0677966,3.474576 5.9322034,2.627119 1.8644058,-0.847458 1.1864398,-0.423729 2.3728808,-0.762712 1.186441,-0.338983 2.711864,0.169491 3.559322,0.169491 0.847458,0 1.186441,-0.169491 1.355932,-0.508474 0.169492,-0.338983 0.932204,-0.847458 0,-0.847458 -0.932203,0 -1.440678,-0.508475 -2.372882,-0.847457 -1.693245,-0.615724 -0.290675,-1.986611 10e-7,-2.161017 0.423728,-0.254238 1.991526,-0.762713 2.923729,-1.355933"/>
 <path d="M1.1333847 10.621062H1.21136q.2708617 0 .4801639-.07798.2134061-.07387.3570449-.254446.1436388-.17647.2175101-.4760598.077975-.2954855.077975-.7387137V3.9233919q0-.1846784-.057456-.2954855Q2.2332472 3.5129954 2.138856 3.451436 2.0444648 3.3898765 1.9172419 3.3734606 1.794123 3.3529408 1.6545882 3.3529408H1.5478851V2.9999999H3.993848V3.3529408H3.883041q-.1395348 0-.2667577.02052-.1272229.02052-.2216141.086183-.090287.061559-.1477427.1805744-.053352.119015-.053352.3160053v5.109436q0 .5663471-.1477427.9398084-.1477427.377564-.4062925.599178-.2585498.225718-.6114907.32011-.348837.09439-.7510256.09439H1.1333847ZM8.1265404 8.9999962v-.352941h.110807q.1436388 0 .2667577-.02052.1272229-.02052.2175102-.082079.094391-.065663.1477427-.1846784.057455-.119015.057455-.3160053V6.0738694H6.193573v1.969903q0 .1969903.053352.3160053.057456.119015.1477427.1846784.094391.061559.2216141.082079.1272229.02052.2667577.02052h.110807v.352941H4.5478832v-.352941h.1067031q.1436387 0 .2667577-.02052.1272229-.02052.2216141-.082079.094391-.065663.1477427-.1846784.053352-.119015.053352-.3160053V3.9233919q0-.1846784-.057456-.2954855Q5.2332453 3.5129954 5.1388541 3.451436 5.0444629 3.3898765 4.91724 3.3734606 4.7941211 3.3529408 4.6545863 3.3529408H4.5478832V2.9999999h2.4459629v.3529409h-.110807q-.1395348 0-.2667577.02052-.1272229.02052-.2216141.086183-.090287.061559-.1477427.1805744-.053352.119015-.053352.3160053V5.655265H8.9268135V3.9562236q0-.1969903-.057455-.3160053Q8.8160064 3.5212034 8.7216153 3.4596439 8.631328 3.3939805 8.5041051 3.3734606 8.3809862 3.3529408 8.2373474 3.3529408H8.1265404V2.9999999H10.572503V3.3529408H10.4658q-.143639 0-.270861.02052-.123119.02052-.2175106.086183-.094391.061559-.1477427.1805744-.053351.119015-.053351.3160053v4.1285885q0 .1846784.053351.2995894.057455.110807.1518467.1682625.094392.057455.2175106.077975.127222.016416.266757.016416h.106703v.352941zM16.219559 8.9999962v-.352941h.02873q.13543 0 .242134-.016416.110807-.02052.184678-.073871.07798-.057455.123119-.1600546.04514-.1067031.05335-.2790696V3.6279064L14.92681 8.9999962H14.47127L12.521887 3.6443223v4.3994501q0 .1969903.04104.3160053.04104.119015.119015.1846784.08208.061559.192887.082079.114911.02052.254445.02052h.02462v.352941h-1.941175v-.352941h.106703q.139535 0 .262654-.016416.127223-.02052.221614-.077975.09439-.057455.147743-.1682625.05746-.114911.05746-.2995894V3.9233919q0-.1846784-.05746-.2954855-.05335-.114911-.147743-.1764704-.09439-.061559-.221614-.077975-.123119-.02052-.262654-.02052H11.212722V2.9999999h1.916551l1.740082 4.8057426 1.723665-4.8057426h1.8632v.3529409h-.106703q-.143639 0-.270862.02052-.123119.02052-.21751.086183-.09439.061559-.147743.1805744-.05335.119015-.05335.3160053v4.0875488q0 .1969903.05335.3160053.05335.119015.147743.1846784.09439.061559.21751.082079.127223.02052.270862.02052h.106703v.352941z" aria-label="JHM" style="font-size:8.40492px;line-height:1.25;font-family:'Noto Serif';-inkscape-font-specification:'Noto Serif';text-align:center;text-anchor:middle;fill:#bf2033;stroke-width:.600352"/>
</svg>
