<svg width="27" height="22" viewBox="0 0 7.144 5.821" xmlns="http://www.w3.org/2000/svg">
 <path style="fill:#fff;stroke:#006747;stroke-width:.5292;stroke-miterlimit:4;stroke-dasharray:none;stroke-opacity:1;paint-order:stroke fill markers;stroke-linejoin:round" d="m 3.4626374,4.9926845 v 0.00437 c -0.01289,0.07866 0,0.2185046 0,0.2185046 v 0 c 0,0 -0.0086,0.062942 -0.0086,0.2037918 v 0 l 1.93e-5,6.96e-5 -0.025771,0.0437 -0.0043,0.00437 -0.0086,0.013114 c -0.0043,0.00437 0,0.013104 0.0043,0.013104 l 0.098794,0.02622 v 0 l 0.094493,0.034961 c 0.0043,0.00437 0.01289,0 0.01289,-0.00876 l 0.0086,-0.1179899 v 0 l 0.0043,-0.074295 v -0.00437 C 3.625869,5.2358513 3.5700354,5.1587987 3.5700354,5.1587987 v 0 c 0,0 -0.012884,-0.1660642 0.047285,-0.2665834 0.028622,-0.043701 0.1944473,-0.1005146 0.2802089,-0.02622 0.091486,0.07866 0.2515954,0.1966562 0.2515954,0.1966562 v 0 c 0,0 0.1829863,0.048379 0.2744653,0.070223 h 0.00572 c 0.09721,0.03496 0.154385,0.07866 0.2287257,0.1354724 0.00572,0.00437 0.017159,0.00437 0.022872,0 l 0.045743,-0.03496 c 0.085775,-0.065556 0.1543847,-0.083036 0.2687477,-0.096151 h 0.00572 c 0.1772685,0 0.3545232,-0.013104 0.5146398,-0.07866 h 0.00572 c 0.1315393,-0.074293 0.2230222,-0.1704361 0.3659862,-0.23162 0,0 0.00572,0 0.00572,-0.00437 0.131518,-0.021854 0.257313,-0.03496 0.3829643,-0.074295 0.00845,-0.00437 0.00845,-0.017481 -1.462e-4,-0.017481 -0.021481,-0.00437 -0.064433,-0.03496 -0.064433,-0.03496 v 0 c 0,0 -0.085899,-0.1092624 -0.1417417,-0.1573313 v -0.00437 c -0.077335,-0.04371 -0.2405657,-0.06993 -0.2405657,-0.06993 v 0 c 0,0 -0.094494,-0.09614 -0.042953,-0.1616925 v -0.00436 C 5.8979865,4.2063846 6.0483284,4.1932757 6.1771961,4.1320964 h 0.0043 C 6.2588052,4.0752812 6.4048563,3.9441733 6.4048563,3.9441733 v 0 l 0.064433,-0.030596 C 6.5766831,3.8654921 6.645401,3.6362329 6.7184246,3.548829 v 0 c 0.081614,-0.113624 0.1116776,-0.2097715 0.1245622,-0.3452439 0,-0.00876 -0.01289,-0.013114 -0.017181,-0.00876 -0.073023,0.065556 -0.1589317,0.074294 -0.2362502,0.00437 v -0.00437 C 6.5294221,3.0986895 6.5508931,2.9981734 6.6067375,2.9063977 v 0 c 0.055842,-0.083035 0.098795,-0.452445 0.098795,-0.452445 v 0 c 0,0 -0.030071,-0.6007299 0.1675215,-0.6968774 0.0086,-0.00438 0.0086,-0.017481 -3.45e-5,-0.021854 L 6.79779,1.7046323 H 6.79241 l -0.1074339,-0.02622 v 0 c 0,0 -0.2793407,-0.00876 -0.4351179,0.043701 v 0.00437 c -0.1396558,0.061181 -0.408254,0.2714505 -0.585516,0.1884183 v -0.00438 c -0.1020661,-0.083036 -0.04297,-0.1791796 0.075204,-0.2185045 0.010755,0 0.010755,-0.013114 0,-0.017481 -0.2256156,-0.083039 -0.3706504,0.017477 -0.5747815,0.1136198 h -0.00538 c -0.08058,0.017481 -0.1181728,0.013115 -0.1826463,-0.030594 h -0.00538 c -0.08594,-0.087398 -0.032224,-0.1485861 0.021493,-0.2403618 v -0.00437 C 5.0304483,1.3817238 5.0197057,1.3738946 4.9498685,1.2558987 4.8263156,1.0679756 4.8316932,0.89935759 4.8316932,0.89935759 v 0 c 0,0 0.042973,-0.0436998 0.075202,-0.0611796 0.010755,-0.004374 0.010755,-0.0174797 0,-0.0174797 l -0.026864,-0.004374 h -0.00538 c -0.1181753,0 -0.2793405,0.0655555 -0.2793405,0.0655555 v 0 c 0,0 -0.2202445,0.33871771 -0.3706504,0.28190581 l -0.00538,-0.00438 C 4.1172307,1.0851182 4.0688926,1.0642756 4.0312811,0.95939404 v -0.004374 C 3.982917,0.79769836 3.7680409,0.38915833 3.7680409,0.38915833 v 0 c 0,0 -0.1289241,-0.0655555 -0.1880175,-0.11799582 -0.00538,-0.00875 -0.01612,-0.00875 -0.01612,0 -0.059093,0.0524403 -0.1880177,0.11799582 -0.1880177,0.11799582 v 0 L 3.0858028,1.0293182 v 0 c 0,0 -0.085944,0.073286 -0.1611484,0.1301023 0,0 -0.00538,0 -0.00538,0.00438 -0.091322,0.03496 -0.1396636,0.021855 -0.2363578,-0.00874 v -0.00438 C 2.5915891,1.0982303 2.3928291,0.82505768 2.3928291,0.82505768 v 0 c 0,0 -0.1020688,-0.00875 -0.1557904,-0.004374 -0.010755,0 -0.01612,0.0131153 -0.00538,0.0174797 l 0.032229,0.0174797 v 0 c 0,0 0.1020689,0.0995072 0.085945,0.19128602 v 0.00438 c -0.037614,0.09614 -0.096695,0.1128146 -0.1557836,0.2045902 -0.096689,0.1573313 -0.08058,0.1870088 0.00538,0.3487118 0.026864,0.048075 0.021486,0.07866 -0.00538,0.1267394 v 0.00437 C 2.0597597,1.8711965 1.7696768,1.6876493 1.7696768,1.6876493 v 0 c 0,0 -0.2363583,-0.061179 -0.3652795,-0.013114 -0.010755,0.00438 -0.010755,0.017481 0,0.017481 0.085945,0.030595 0.1342921,0.083037 0.1181741,0.1616926 v 0.00437 c -0.06446,0.1267394 -0.2417287,0.074295 -0.3599076,0.030595 h -0.00538 L 0.89407255,1.7264677 v -0.00438 c -0.0913232,-0.026225 -0.25784273,-0.05682 -0.25784273,-0.05682 v 0 c 0,0 -0.24172923,0.021855 -0.36522962,0.074295 -0.00855,0 -0.00855,0.013114 4.98e-5,0.017481 0.1975857,0.09614 0.16322663,0.6968774 0.16322663,0.6968774 v 0 c 0,0 0.042952,0.3694147 0.098795,0.4524469 h 0.0043 c 0.055843,0.091776 0.0773142,0.1879231 0.0171806,0.2884318 0,0 0,0.00437 -0.0043,0.00437 -0.0773142,0.06992 -0.15893175,0.06118 -0.2319553,-0.00437 -0.0086,-0.00437 -0.0171805,0 -0.0171805,0.00876 0.0043,0.074294 0.0171805,0.1354724 0.042952,0.2053997 v 0.00437 c 0.0644338,0.1354669 0.25772456,0.4652519 0.25772456,0.4652519 v 0 l 0.19758572,0.1092524 v 0 L 1.0313339,4.1626417 v 0 l 0.3436327,0.1616961 v 0 l -0.2104703,0.170436 v 0 c 0,0 -0.1245621,0.065556 -0.18040613,0.1311007 -0.042952,0.056816 -0.0601326,0.091776 -0.11597239,0.1048857 -0.0086,0 -0.012891,0.013114 1.741e-5,0.017484 0.12758843,0.039339 0.25516801,0.052442 0.38854141,0.074297 0,0.00437 0,0.00437 0.00581,0.00437 0.098583,0.039336 0.1681629,0.091776 0.2493523,0.1573313 0.1159732,0.083036 0.1971683,0.1136241 0.3595329,0.1354724 l 0.1043764,0.013115 h 0.00581 c 0.1623647,0.00876 0.359533,-0.00437 0.4639156,0.1092523 0.00581,0.00437 0.017388,0.00437 0.023196,0 C 2.578835,5.1284628 2.938366,5.0538695 2.938366,5.0538695 v 0 c 0,0 0.214563,-0.1092524 0.2957525,-0.2010281 0.052195,-0.05244 0.1855689,-0.061182 0.1855689,-0.061182 0,0 0.06443,0.1136211 0.04295,0.201025 z"/>
</svg>
