<svg width="17" height="21" xmlns="http://www.w3.org/2000/svg" xmlns:xlink="http://www.w3.org/1999/xlink">
 <defs>
  <path id="a" d="M0 0H15V6H0z"/>
 </defs>
 <g fill="none" fill-rule="evenodd">
  <path d="M15,0.5 C15.4142136,0.5 15.7892136,0.667893219 16.0606602,0.939339828 C16.3321068,1.21078644 16.5,1.58578644 16.5,2 L16.5,19 C16.5,19.4142136 16.3321068,19.7892136 16.0606602,20.0606602 C15.7892136,20.3321068 15.4142136,20.5 15,20.5 L2,20.5 C1.58578644,20.5 1.21078644,20.3321068 0.939339828,20.0606602 C0.667893219,19.7892136 0.5,19.4142136 0.5,19 L0.5,2 C0.5,1.58578644 0.667893219,1.21078644 0.939339828,0.939339828 C1.21078644,0.667893219 1.58578644,0.5 2,0.5 Z" stroke="#000" fill="#FFF" fill-rule="nonzero"/>
  <path d="M9,11 L9,12.75 L2,12.5 L2,11 C3.33333333,10.1666667 4,9.41666667 4,8.75 C4,7.75 3,8 3,6.5 C3,5.25 4.06209816,4.34575646 4.1850272,4.03827918 C4.23797545,3.90584193 4.34296638,3.6430822 4.5,3.25 L5,3.5 L5,2.61803399 C5,2.23926193 5.21400238,1.89299881 5.5527864,1.7236068 L6,1.5 L6,1.5 L6,3 L6.75,2.5 L7,3 L7.06147099,2.90779351 C7.32038196,2.51942706 7.80719412,2.35239804 8.25,2.5 L8.25,2.5 L8.25,2.5 L8.75,3 L7.5,4 L7.75,5 C8.03689785,5.14344893 8.17465701,5.47602896 8.0732233,5.78033009 L8,6 L8,6 L9,7.5 L8,8 C8.25972761,8.48460332 8.34306095,8.81793665 8.25,9 C8.02703242,9.43621115 6.75,9.25 6.75,9.75 C6.75,10.0091062 7.49647986,10.1401898 8,10.5 C8.09616356,10.5687175 8.42949689,10.7353841 9,11 Z" fill="#000"/>
  <path stroke="#000" stroke-width=".5" stroke-linejoin="round" d="M2.5 7.5 3.5 6.5"/>
  <path d="M11.875,0 C12.5826064,0 12.890625,1 13.5,1 C13.5,1.33333333 13.5,1.66666667 13.5,2 C12.826903,2 12.484375,1 11.875,1 C11.265625,1 11.0625,2 10.25,2 C9.4375,2 9.234375,1 8.625,1 C8.015625,1 7.8125,2 7,2 C6.1875,2 6.1875,1 5.375,1 C4.5625,1 4.5625,2 3.75,2 C2.9375,2 2.734375,1 2.125,1 C1.515625,1 1.17309704,2 0.5,2 C0.5,1.66666667 0.5,1.33333333 0.5,1 C1.109375,1 1.41073139,0 2.125,0 C2.83926861,0 3.140625,1 3.75,1 C4.359375,1 4.5625,0 5.375,0 C6.1875,0 6.390625,1 7,1 C7.609375,1 7.8125,0 8.625,0 C9.4375,0 9.640625,1 10.25,1 C10.859375,1 11.1673936,0 11.875,0 Z" fill="#FFF" fill-rule="nonzero" transform="translate(1.5 11)"/>
  <g transform="translate(1.5 11)">
   <mask id="b" fill="#fff">
    <use xlink:href="#a"/>
   </mask>
   <path d="M11.875 1C12.5826064 1 12.890625 2 13.5 2 13.5 2.33333333 13.5 2.66666667 13.5 3 12.826903 3 12.484375 2 11.875 2 11.265625 2 11.0625 3 10.25 3 9.4375 3 9.234375 2 8.625 2 8.015625 2 7.8125 3 7 3 6.1875 3 6.1875 2 5.375 2 4.5625 2 4.5625 3 3.75 3 2.9375 3 2.734375 2 2.125 2 1.515625 2 1.17309704 3 .5 3 .5 2.66666667.5 2.33333333.5 2 1.109375 2 1.41073139 1 2.125 1 2.83926861 1 3.140625 2 3.75 2 4.359375 2 4.5625 1 5.375 1 6.1875 1 6.390625 2 7 2 7.609375 2 7.8125 1 8.625 1 9.4375 1 9.640625 2 10.25 2 10.859375 2 11.1673936 1 11.875 1ZM11.875 3C12.5826064 3 12.890625 4 13.5 4 13.5 4.33333333 13.5 4.66666667 13.5 5 12.826903 5 12.484375 4 11.875 4 11.265625 4 11.0625 5 10.25 5 9.4375 5 9.234375 4 8.625 4 8.015625 4 7.8125 5 7 5 6.1875 5 6.1875 4 5.375 4 4.5625 4 4.5625 5 3.75 5 2.9375 5 2.734375 4 2.125 4 1.515625 4 1.17309704 5 .5 5 .5 4.66666667.5 4.33333333.5 4 1.109375 4 1.41073139 3 2.125 3 2.83926861 3 3.140625 4 3.75 4 4.359375 4 4.5625 3 5.375 3 6.1875 3 6.390625 4 7 4 7.609375 4 7.8125 3 8.625 3 9.4375 3 9.640625 4 10.25 4 10.859375 4 11.1673936 3 11.875 3Z" fill="#003F87" fill-rule="nonzero" mask="url(#b)"/>
  </g>
 </g>
</svg>
