<svg width="25" height="20" version="1.0" xmlns="http://www.w3.org/2000/svg">
 <g transform="translate(-253.215 -405.577)">
  <rect style="fill:#fff;fill-rule:evenodd;stroke:#000;stroke-linecap:round;stroke-linejoin:round" width="24" height="19" x="253.715" y="406.077" rx="1.5" ry="1.5"/>
  <path transform="matrix(.06503 0 0 .06034 90.615 133.624)" clip-rule="evenodd" stroke-miterlimit="3.864" style="fill:none;fill-rule:evenodd;stroke:#000;stroke-width:8;stroke-miterlimit:3.86369" d="M2646.0991 4577.2998 2527.6997 4577.2998 2527.6997 4550.0996 2838.0981 4550.0996 2838.0981 4570.8994 2855.6982 4633.2993 2855.6982 4719.6987 2828.498 4710.0986 2810.8984 4714.8989 2801.2983 4721.2988 2778.8984 4710.0986 2764.4985 4718.0986 2748.4985 4708.499 2738.8984 4711.6987 2730.8984 4706.8989 2721.2988 4711.6987 2692.499 4698.8989 2687.6987 4689.2988 2682.8994 4692.499 2671.6992 4689.2988 2668.499 4686.0991 2663.6992 4690.8989 2647.6992 4681.2988 2646.0991 4674.8989z"/>
 </g>
</svg>
