<svg width="21" height="20" version="1.0" viewBox="0 0 20.972 19.967" xmlns="http://www.w3.org/2000/svg">
 <path d="m 10.236333,18.9715 c 0,-1.17655 -1.3131664,-2.496667 -2.4966664,-2.496667 l -4.7436666,0 c -0.94681,0 -1.99733333,-1.056093 -1.99733333,-1.997333 V 0.9955 H 19.973333 v 13.482 c 0,0.94123 -1.05053,1.997293 -1.99733,1.997333 h -4.74367 c -1.1835,7e-5 -2.496666,1.320117 -2.496666,2.496667 z" style="stroke:#fff;stroke-width:2;stroke-miterlimit:4;stroke-dasharray:none;stroke-opacity:1;fill:none"/>
 <path d="m 10.236333,18.9715 c 0,-1.17655 -1.3131664,-2.496667 -2.4966664,-2.496667 l -4.7436666,0 c -0.94681,0 -1.99733333,-1.056093 -1.99733333,-1.997333 V 0.9955 H 19.973333 v 13.482 c 0,0.94123 -1.05053,1.997293 -1.99733,1.997333 h -4.74367 c -1.1835,7e-5 -2.496666,1.320117 -2.496666,2.496667 z" style="fill:#006747"/>
 <path style="fill:none;stroke:#fff;stroke-width:1;stroke-linecap:butt;stroke-linejoin:miter;stroke-opacity:1" d="M 0.49932609,3.4922609 20.472667,3.4921667"/>
</svg>
