<svg width="20" height="20" xmlns="http://www.w3.org/2000/svg">
 <circle fill="#FFF" cx="10" cy="10" r="10"/>
 <path d="M1.5,13 L14.1269346,17.0210263 C14.1269346,17.0210263 12.9041122,17.5594914 11.3385543,17.9725281 C9.7451543,18.3930821 7.90841491,18.4594853 5.89460013,17.6406509 C4.80968863,17.1995402 3.34482192,15.6526566 1.5,13 Z" fill="#693F23"/>
 <path d="M6 17H15V18H6zM14.75 17 15 15.5 14.75 15 14 14 13.8836009 15.124606C13.6405547 15.679248 13.6566126 16.3132251 13.9274259 16.8548517L14 17 14 17 12.5 17 12.918766 14.9061698C12.9707793 14.6461037 12.9173513 14.3760269 12.7702357 14.1553535L12.4049047 13.6073571C12.1636827 13.2455241 11.7162704 13.0810656 11.2981333 13.2005333L11.125 13.25C10.6791537 13.3773847 10.4209895 13.8420802 10.5483741 14.2879266 10.5545619 14.3095836 10.5616186 14.3309829 10.5695272 14.3520724L11 15.5 11 15.5 11.5 17 10 17 10 16 9 14 9 13.5C9 13.2238576 8.77614237 13 8.5 13L8.23606798 13C8.08082288 13 7.92770982 13.0361451 7.78885438 13.1055728L7.5 13.25C7.19356697 13.4032165 7 13.7164144 7 14.059017L7 14.5 7 14.5 8 15 8 16 7 16 6.29289322 15.2928932C6.10535684 15.1053568 6 14.8510029 6 14.5857864L6 13.236068C6 13.0808229 6.03614509 12.9277098 6.10557281 12.7888544L6.89442719 11.2111456C6.96385491 11.0722902 7 10.9191771 7 10.763932L7 10.5C7 10.193567 6.82686844 9.91343422 6.5527864 9.7763932L6.5 9.75C6.19356697 9.59678348 5.82686844 9.62984867 5.5527864 9.8354102L4.56568542 10.5757359C4.24109756 10.8191768 3.78689785 10.7868979 3.5 10.5 3.21534924 10.2153492 3.19025076 9.76218654 3.4417261 9.44784237L5 7.5 5 7.5 5 7C5 6.44771525 5.44771525 6 6 6L6 6 6 6 6 5 7 6C7.60409333 6 8.15460403 6.34660351 8.41572792 6.8913448 8.67987136 7.44239135 8.87462872 7.81194309 9 8 9.18395344 8.27593017 9.51728678 8.6092635 10 9L10 7C10 6.44771525 10.4477153 6 11 6L11 6 11 6 11 5.5C10.4477153 5.5 10 5.05228475 10 4.5L10 4 10 4 9.25 4C9.11192881 4 9 3.88807119 9 3.75 9 3.61192881 9.11192881 3.5 9.25 3.5L10 3.5 10 3.5C10 2.94771525 10.4477153 2.5 11 2.5 11.5522847 2.5 12 2.94771525 12 3.5L12 3.5 12 3.5 12.75 3.5C12.8880712 3.5 13 3.61192881 13 3.75 13 3.88807119 12.8880712 4 12.75 4L12 4 12 4 12 6C12.5522847 6 13 6.44771525 13 7L13 9 13 9C13.6402892 9 14.2543539 9.25435391 14.7071068 9.70710678L15 10 15 10C15.1460825 9.34262856 15.7974107 8.92814702 16.4547821 9.07422956 16.8827628 9.16933637 17.2267354 9.4868902 17.3556688 9.90592353L18 12 18 12 16.9138488 14.7087727 16.3062355 12.5752766C16.1111206 11.8901747 15.6371402 11.3185701 15 11L15 11 15 11 15 13 16.6973946 16.2092068 14.75 17Z"/>
 <circle fill="none" stroke="#000" cx="10" cy="10" r="8.5"/>
 <circle fill="none" stroke="#FFCD00" cx="10" cy="10" r="9.5"/>
 <path d="M7 2 8 2 8 4.5C8 4.77614237 7.77614237 5 7.5 5 7.22385763 5 7 4.77614237 7 4.5L7 2 7 2ZM15 3 16 4 16 6.5C16 6.77614237 15.7761424 7 15.5 7 15.2238576 7 15 6.77614237 15 6.5L15 3 15 3ZM6 2 7 2 7 4C6.44771525 4 6 3.55228475 6 3L6 2 6 2ZM14 3 15 3 15 5C14.4477153 5 14 4.55228475 14 4L14 3 14 3Z"/>
 <path d="M16,5 L17,4 L17,6 C16.4477153,6 16,5.55228475 16,5 L16,5 L16,5 Z" transform="matrix(-1 0 0 1 33 0)"/>
</svg>
