<svg width="21" height="21" xmlns="http://www.w3.org/2000/svg">
 <g fill="none">
  <g fill-rule="evenodd" transform="translate(2 2)">
   <circle cx="8.5" cy="8.5" r="8.5"/>
   <path d="M8.5,17 C13.1944204,17 17,13.1944204 17,8.5 C17,7.3261442 16.7620496,6.20786468 16.3317522,5.1907647 C15.4714023,3.15714403 12.8608183,2.67688913 8.5,3.75 C3.7323744,2.98239457 1.00871745,3.78239099 0.329029155,6.14998927 C0.11476826,6.89633687 0,7.68476565 0,8.5 C0,13.1944204 3.80557963,17 8.5,17 Z" fill="#006747"/>
   <path d="M8.91576087,3.88043478 C9.43101483,3.88043478 10.1043625,4.09359211 10.5788043,4.06521739 C11.9312842,3.98433027 12.9290542,3.62532296 13.8586957,3.88043478 C15.5741168,4.35117997 16.6081049,5.61424792 16.2916667,4.95833333 C14.9117728,2.09808299 12.2633441,-0.472222222 8.5,-0.472222222 C4.7366559,-0.472222222 1.1181885,2.94945276 -4.50160742e-15,6.375 C-0.120741478,6.74488901 1.03748834,5.02478688 2.26358696,4.52717391 C3.84676987,3.88463804 6.2701997,3.88043478 8.91576087,3.88043478 Z" fill="#9BCBEB"/>
   <path d="M1.52445652,13.4059091 L2.85463648,13.2780796 C3.22743833,13.2422535 3.59064953,13.1390988 3.92663043,12.973625 L4.05871604,12.9085716 C4.30381039,12.7878604 4.50718086,12.5965755 4.64266304,12.3593267 C4.77889169,12.1207706 4.85054348,11.850808 4.85054348,11.576095 L4.85054348,11.3037521 C4.85054348,10.9772087 4.8117758,10.6518199 4.73505435,10.3344172 C4.6583329,10.0170146 4.61956522,9.69162579 4.61956522,9.36508232 L4.61956522,9.28783484 C4.61956522,8.92193027 4.75642053,8.56925668 5.00323374,8.2991282 L5.13700035,8.15272529 C5.3454834,7.92454783 5.58310982,7.72482165 5.84375,7.55869871 C6.1001858,7.39525548 6.39795777,7.308429 6.70205152,7.308429 L7.29243673,7.308429 C7.50981263,7.308429 7.72466847,7.26188193 7.92255435,7.17191825 L7.94984683,7.15951044 C8.13163098,7.07686699 8.30770614,6.98220213 8.47690217,6.87614497 C8.63388537,6.77774317 8.72569599,6.60241341 8.71715542,6.41733587 L8.70356461,6.12281727 C8.69145722,5.8604452 8.77507434,5.60260847 8.9388587,5.39727854 L8.96955525,5.35879549 C9.11458902,5.17697242 9.31445107,5.04683458 9.53940217,4.9877463 C9.59488725,4.97317194 9.65168164,5.00633663 9.666256,5.0618217 C9.67529979,5.09625171 9.66608248,5.13291483 9.64183131,5.15897431 L9.58630394,5.21864213 C9.44792867,5.36733548 9.33106833,5.53468253 9.23913043,5.71580362 C9.14989282,5.89160505 9.12868445,6.09415878 9.17957132,6.28463194 L9.23680955,6.49887871 C9.29935537,6.73299215 9.31583266,6.97702544 9.28532609,7.21742184 L9.26741132,7.3585929 C9.24866217,7.50633903 9.20799106,7.65046445 9.14673913,7.78621662 C9.08877337,7.91468567 8.97222232,8.00716177 8.83393932,8.03440404 L8.43497728,8.11300106 C8.07974154,8.18298383 7.7361612,8.30275486 7.41440217,8.46877035 L7.31957232,8.51769897 C7.06539099,8.64884693 6.8568749,8.85388253 6.72146739,9.10582051 C6.58653907,9.35686691 6.53678555,9.64494127 6.57969241,9.92670171 L6.58288043,9.94763679 C6.62878179,10.2490614 6.72250454,10.5412266 6.86051126,10.813105 L7.24824825,11.5769614 C7.34361201,11.7648316 7.43575566,11.954319 7.52463879,12.1453405 L8.11169058,13.4069922 C8.30846078,13.8298773 8.46178148,14.2716501 8.56929348,14.7255129 L8.63598108,15.0070352 C8.69925524,15.2741477 8.74640467,15.5448244 8.77717391,15.8175989 C8.80775501,16.0887055 8.79271288,16.3630195 8.73267177,16.6291568 L8.63858696,17.0461957 L8.63858696,17.0461957 L5.1,17 L2.07880435,14.8165201 L1.52445652,13.4059091 Z" fill="#003F87"/>
   <path d="M10.4125,17 L10.6703569,16.022677 C10.7627817,15.6723709 10.8019963,15.3101564 10.7866848,14.9481864 C10.7715561,14.5905375 10.6620311,14.2432652 10.4692368,13.9416497 L10.1035669,13.3695806 C10.0200329,13.2388965 9.93814751,13.1071658 9.85793034,12.9744199 L9.11789987,11.7497942 C8.92235085,11.4261935 8.76903299,11.0788903 8.66168478,10.7163532 L8.64124363,10.6473192 C8.54902079,10.3358636 8.54809875,10.0044866 8.63858696,9.69252259 C8.72959294,9.37877352 8.89603546,9.09207885 9.12337654,8.85748004 L9.48612315,8.48315298 C9.66010555,8.3036163 9.82438495,8.11492474 9.97826087,7.91788288 L10.0138089,7.8723627 C10.143405,7.70641185 10.2481437,7.52247305 10.3247283,7.32633631 C10.3993242,7.13529253 10.4041783,6.92406555 10.3384372,6.72979673 L10.1630435,6.21149853 C10.0398551,5.66545554 10.0398551,5.28625902 10.1630435,5.07390897 C10.2862319,4.86155892 10.4248188,4.69471245 10.5788043,4.57336957 C10.4932568,4.69390504 10.4008655,4.90625509 10.3016304,5.21041972 C10.2023953,5.51458435 10.3101852,5.90277778 10.625,6.375 L10.625,6.375 L10.7404891,6.65727793 C10.8161017,6.84208988 10.8408636,7.04377342 10.8122037,7.24138751 L10.8097826,7.25808093 C10.7791576,7.46924471 10.7171398,7.67464454 10.6257851,7.86747182 L10.6019022,7.91788288 C10.4946389,8.14428927 10.3562532,8.35459007 10.1907623,8.54268048 L10.1399457,8.60043661 C9.94030695,8.82733799 9.76483378,9.07440756 9.61636379,9.33764985 L9.49176775,9.55856285 C9.41620228,9.69254296 9.36212924,9.83755109 9.33152174,9.98829588 C9.3017267,10.1350392 9.32581682,10.2876052 9.39937644,10.4180289 L9.51630435,10.625346 C9.66979377,10.897488 9.85368005,11.1513266 10.0644314,11.3819867 L10.7567541,12.1397097 C10.9152804,12.3132113 11.0704823,12.4897214 11.2222749,12.6691438 L11.5946212,13.1092654 C11.8101317,13.3640037 12.0034795,13.6366925 12.1725543,13.9243558 L12.2696171,14.0894979 C12.37395,14.2670096 12.4576291,14.4558763 12.5190217,14.6524131 C12.5800242,14.8477009 12.6021556,15.0530524 12.5841642,15.2568537 L12.5190217,15.9947688 L12.5190217,15.9947688 L11.5951087,16.5408118 L10.4125,17 Z" fill="#FFF"/>
   <path d="M11.3333333,17.7083333 L11.4538059,16.7952784 C11.5305586,16.2135738 11.5297458,15.6242539 11.4513889,15.0427632 C11.3737081,14.4662899 11.1656301,13.9151118 10.8429701,13.4311219 L9.91666667,12.0416667 L9.91666667,12.0416667 L10.7193356,13.0048694 C10.9712187,13.3071291 11.2153165,13.6157924 11.4513889,13.9305556 C11.6840908,14.2408248 11.8388367,14.6024645 11.9025966,14.9850242 L11.9236111,15.1111111 C12.0021805,15.5825275 12.0416667,16.0596294 12.0416667,16.5375484 L12.0416667,16.7638889 L12.0416667,16.7638889 L11.3333333,17.7083333 Z" fill="#003F87"/>
   <path d="M1.5982417,4.34221381 L2.03016059,3.86561365 C2.2136882,3.66310042 2.44472449,3.50943867 2.70244565,3.41847826 L2.85158941,3.36583929 C3.00721411,3.31091292 3.17847679,3.32157535 3.32608696,3.39538043 C3.47539181,3.47003286 3.64604043,3.49033682 3.80869351,3.4528015 L3.93254551,3.42422027 C4.07789033,3.39067915 4.2066968,3.3068318 4.29619565,3.1875 C4.38771726,3.06547119 4.50204628,2.96235919 4.63284483,2.88388006 L4.78125,2.79483696 C5.00526831,2.66042597 5.2689746,2.60788352 5.52740202,2.64616906 L5.89463886,2.70057452 C6.21312795,2.74775809 6.52288656,2.84179066 6.8138587,2.97961957 L6.92798826,3.03368094 C7.14287445,3.13546913 7.33866122,3.27344383 7.50679348,3.44157609 L7.56217455,3.49695716 C7.69140114,3.62618375 7.85777605,3.71180325 8.03804348,3.74184783 C8.21649924,3.77159045 8.39965091,3.73431306 8.55228389,3.63718298 L8.56929348,3.6263587 C8.72901875,3.52471534 8.92760023,3.50520806 9.10405098,3.5738278 L9.23913043,3.6263587 C9.5160808,3.73406161 9.79892503,3.82594709 10.0862966,3.90157119 L10.1425042,3.91636266 C10.3986575,3.98377143 10.6674384,3.98729711 10.9252717,3.92663043 C11.1811827,3.86641609 11.4132241,3.73100908 11.5915436,3.53782957 L11.6496156,3.47491824 C11.7980272,3.314139 11.941607,3.1489659 12.080163,2.97961957 L12.1119181,2.94080783 C12.2244863,2.80322446 12.3880653,2.71720832 12.5652174,2.70244565 C12.746727,2.68731985 12.9289925,2.72076579 13.0933061,2.79935055 L13.3736413,2.93342391 C13.727638,3.1027267 14.074048,3.28745622 14.4118749,3.48708119 L14.8678123,3.75649876 C14.9034011,3.77752851 14.9389192,3.79867763 14.9743661,3.81994576 L16.076087,4.48097826 L16.076087,4.48097826 L16.7638889,5.90277778 L15.7965697,5.10659966 C15.5522602,4.90551413 15.2901891,4.7270374 15.013587,4.57336957 C14.7377786,4.42014269 14.4418262,4.30639132 14.1343926,4.23544512 L13.89392,4.17995143 C13.5645626,4.10394589 13.2252123,4.08081074 12.888587,4.11141304 L12.8033392,4.11916284 C12.5229942,4.14464875 12.2480696,4.21211201 11.9877717,4.31929348 L11.7171485,4.43072658 C11.6357897,4.46422727 11.5546712,4.49830864 11.4737992,4.53296806 L10.9706035,4.74862336 C10.7408966,4.84706915 10.5010679,4.9199764 10.2554348,4.96603261 C10.0112195,5.01182298 9.76058773,5.01146288 9.51650499,4.96497093 L9.29339582,4.92247395 C9.0439629,4.87496291 8.80598121,4.77997084 8.5923913,4.64266304 C8.37715227,4.50429509 8.15125294,4.38325876 7.91682847,4.28069805 L7.89945652,4.27309783 C7.65508425,4.16618496 7.39343012,4.10423088 7.12706266,4.09021154 L6.94393705,4.08057335 C6.75114177,4.07042623 6.55815481,4.09655709 6.375,4.1576087 C6.19467429,4.21771727 6.03745556,4.33232344 5.92504916,4.48560489 L5.80864779,4.64433404 C5.66989045,4.83354859 5.45429136,4.95139619 5.2201087,4.96603261 C4.97415414,4.98140477 4.72734906,4.97638618 4.48222271,4.95102829 L3.97094795,4.89813779 C3.66467845,4.86645474 3.3564328,4.85826532 3.04891304,4.8736413 L2.98983942,4.87659499 C2.72346826,4.88991354 2.46173406,4.95152396 2.2173913,5.05842391 C1.97155745,5.16597622 1.73636445,5.29637192 1.51490853,5.44789439 L1.40896739,5.52038043 C1.11737091,5.71989382 0.849796658,5.9524225 0.611564687,6.21334323 L0,6.88315217 L0,6.88315217 L0.461956522,5.82065217 C0.800168691,5.29796064 1.18017358,4.80353036 1.5982417,4.34221381 Z" fill="#6CC24A"/>
  </g>
  <path d="M10.5,0 C16.2989899,-1.77635684e-15 21,4.70101013 21,10.5 L21,19 C21,20.1045695 20.1045695,21 19,21 L2,21 C0.8954305,21 0,20.1045695 0,19 L0,10.5 C0,4.70101013 4.70101013,0 10.5,0 Z M10.5,2 C5.80557963,2 2,5.80557963 2,10.5 C2,15.1944204 5.80557963,19 10.5,19 C15.1944204,19 19,15.1944204 19,10.5 C19,5.80557963 15.1944204,2 10.5,2 Z" fill="#FFF" fill-rule="evenodd"/>
  <path d="M10.5,0.5 C13.2614237,0.5 15.7614237,1.61928813 17.5710678,3.42893219 C19.3807119,5.23857625 20.5,7.73857625 20.5,10.5 L20.5,19 C20.5,19.4142136 20.3321068,19.7892136 20.0606602,20.0606602 C19.7892136,20.3321068 19.4142136,20.5 19,20.5 L2,20.5 C1.58578644,20.5 1.21078644,20.3321068 0.939339828,20.0606602 C0.667893219,19.7892136 0.5,19.4142136 0.5,19 L0.5,10.5 C0.5,7.73857625 1.61928813,5.23857625 3.42893219,3.42893219 C5.23857625,1.61928813 7.73857625,0.5 10.5,0.5 Z" stroke="#003F87"/>
 </g>
</svg>
