<svg width="17" height="21" xmlns="http://www.w3.org/2000/svg" xmlns:xlink="http://www.w3.org/1999/xlink">
 <defs>
  <path id="a" d="M0 0H15V6H0z"/>
 </defs>
 <g fill="none" fill-rule="evenodd">
  <path d="M15,0.5 C15.4142136,0.5 15.7892136,0.667893219 16.0606602,0.939339828 C16.3321068,1.21078644 16.5,1.58578644 16.5,2 L16.5,19 C16.5,19.4142136 16.3321068,19.7892136 16.0606602,20.0606602 C15.7892136,20.3321068 15.4142136,20.5 15,20.5 L2,20.5 C1.58578644,20.5 1.21078644,20.3321068 0.939339828,20.0606602 C0.667893219,19.7892136 0.5,19.4142136 0.5,19 L0.5,2 C0.5,1.58578644 0.667893219,1.21078644 0.939339828,0.939339828 C1.21078644,0.667893219 1.58578644,0.5 2,0.5 Z" stroke="#000" fill="#FFF" fill-rule="nonzero"/>
  <path d="M12.25,5.5 C13.75,7.5 14.5,9 14.5,10 C14.5,11 14.1666667,11.75 13.5,12.25 L3.5,12 C2.83333333,11.2222222 2.5,10.5555556 2.5,10 C2.5,9.44444444 2.83333333,8.61111111 3.5,7.5 C5.27777778,8.5 6.77777778,9 8,9 C10.3333333,9 11.75,7.83333333 12.25,5.5 Z" fill="#000"/>
  <path d="M11.875,0 C12.5826064,0 12.890625,1 13.5,1 C13.5,1.33333333 13.5,1.66666667 13.5,2 C12.826903,2 12.484375,1 11.875,1 C11.265625,1 11.0625,2 10.25,2 C9.4375,2 9.234375,1 8.625,1 C8.015625,1 7.8125,2 7,2 C6.1875,2 6.1875,1 5.375,1 C4.5625,1 4.5625,2 3.75,2 C2.9375,2 2.734375,1 2.125,1 C1.515625,1 1.17309704,2 0.5,2 C0.5,1.66666667 0.5,1.33333333 0.5,1 C1.109375,1 1.41073139,0 2.125,0 C2.83926861,0 3.140625,1 3.75,1 C4.359375,1 4.5625,0 5.375,0 C6.1875,0 6.390625,1 7,1 C7.609375,1 7.8125,0 8.625,0 C9.4375,0 9.640625,1 10.25,1 C10.859375,1 11.1673936,0 11.875,0 Z" fill="#FFF" fill-rule="nonzero" transform="translate(1.5 11)"/>
  <g transform="translate(1.5 11)">
   <mask id="b" fill="#fff">
    <use xlink:href="#a"/>
   </mask>
   <path d="M11.875 1C12.5826064 1 12.890625 2 13.5 2 13.5 2.33333333 13.5 2.66666667 13.5 3 12.826903 3 12.484375 2 11.875 2 11.265625 2 11.0625 3 10.25 3 9.4375 3 9.234375 2 8.625 2 8.015625 2 7.8125 3 7 3 6.1875 3 6.1875 2 5.375 2 4.5625 2 4.5625 3 3.75 3 2.9375 3 2.734375 2 2.125 2 1.515625 2 1.17309704 3 .5 3 .5 2.66666667.5 2.33333333.5 2 1.109375 2 1.41073139 1 2.125 1 2.83926861 1 3.140625 2 3.75 2 4.359375 2 4.5625 1 5.375 1 6.1875 1 6.390625 2 7 2 7.609375 2 7.8125 1 8.625 1 9.4375 1 9.640625 2 10.25 2 10.859375 2 11.1673936 1 11.875 1ZM11.875 3C12.5826064 3 12.890625 4 13.5 4 13.5 4.33333333 13.5 4.66666667 13.5 5 12.826903 5 12.484375 4 11.875 4 11.265625 4 11.0625 5 10.25 5 9.4375 5 9.234375 4 8.625 4 8.015625 4 7.8125 5 7 5 6.1875 5 6.1875 4 5.375 4 4.5625 4 4.5625 5 3.75 5 2.9375 5 2.734375 4 2.125 4 1.515625 4 1.17309704 5 .5 5 .5 4.66666667.5 4.33333333.5 4 1.109375 4 1.41073139 3 2.125 3 2.83926861 3 3.140625 4 3.75 4 4.359375 4 4.5625 3 5.375 3 6.1875 3 6.390625 4 7 4 7.609375 4 7.8125 3 8.625 3 9.4375 3 9.640625 4 10.25 4 10.859375 4 11.1673936 3 11.875 3Z" fill="#003F87" fill-rule="nonzero" mask="url(#b)"/>
  </g>
  <path d="M6.304622,11.7261821 C6.81359055,12.107442 7.14054814,12.5351226 7.31062048,12.9724515 C7.48469337,13.4200675 7.49692895,13.8802624 7.36445657,14.321837 C7.28276751,14.5941338 7.09844184,14.8075413 6.86646421,14.9324524 C6.63448659,15.0573634 6.35485701,15.093778 6.08256015,15.0120889 C5.47003257,14.5094151 5.1661831,14.0443125 5.02970414,13.5956759 C4.86025747,13.0386671 4.94289943,12.5004876 5.2126622,12.0220836 Z" stroke="#FFF" stroke-width=".5" fill="#000"/>
  <path d="M5.5,6 L6,6 L6,6 L6.25,12 L5.5,12 L5.5,11 L5.5,7.85355339 C5.5,7.62717696 5.41007231,7.41007231 5.25,7.25 C5.08992769,7.08992769 5,6.87282304 5,6.64644661 L5,6.5 C5,6.22385763 5.22385763,6 5.5,6 Z" fill="#000"/>
  <path d="M8.5,5 L8.64392393,5.09594929 C9.48144987,5.65429991 9.95220123,6.62138399 9.875,7.625 C9.80003865,8.59949757 9.12056478,9.42166415 8.17762734,9.67882891 L7,10 L7,10 C6.33333333,9.5 6,9 6,8.5 C6,8.22853737 6.80348811,8.06623047 7,7.5 C7.0175162,7.44952873 7.0175162,7.28286206 7,7 L6,7 L6,6 L7,6.25 C7.04183683,5.62585083 7.04183683,5.20918417 7,5 C6.98470617,4.92353085 6.95273091,4.80819901 6.90407422,4.65400446 C6.75662027,4.18680656 7.01585094,3.68854683 7.48305683,3.54111819 C7.56941744,3.51386676 7.65944176,3.5 7.75,3.5 C8.24758041,3.5 8.65094903,3.90336862 8.65094903,4.40094903 C8.65094903,4.49778491 8.63533749,4.59398753 8.60471529,4.68585412 L8.5,5 L8.5,5 Z" fill="#000"/>
 </g>
</svg>
