<svg width="20" height="26" version="1.0" xmlns="http://www.w3.org/2000/svg">
 <path style="fill:#000" d="M 2,0 C 0.90065,0 0,0.9006497 0,2 v 22 c 0,1.09935 0.90065,2 2,2 h 16 c 1.09935,0 2,-0.90065 2,-2 V 2 C 20,0.9006497 19.09935,0 18,0 Z"/>
 <path style="fill:#fff" d="m 15.45,20.002 c 0.681333,0 1.183,0.123667 1.505,0.371 0.326667,0.247333 0.49,0.623 0.49,1.127 0,0.228667 -0.04433,0.429333 -0.133,0.602 -0.084,0.168 -0.198333,0.312667 -0.343,0.434 -0.14,0.116667 -0.291667,0.212333 -0.455,0.287 L 17.984,25 h -1.176 l -1.19,-1.918 H 15.051 V 25 h -1.057 v -4.998 z m -0.077,0.868 h -0.322 v 1.351 h 0.343 c 0.35,0 0.599667,-0.05833 0.749,-0.175 0.154,-0.116667 0.231,-0.289333 0.231,-0.518 0,-0.238 -0.08167,-0.406 -0.245,-0.504 -0.158667,-0.102667 -0.410667,-0.154 -0.756,-0.154 z m -3.303496,2.366 c 0,0.345333 -0.077,0.658 -0.231,0.938 -0.149333,0.275333 -0.378,0.494667 -0.686,0.658 -0.303333,0.158667 -0.688333,0.238 -1.1549993,0.238 -0.6626667,0 -1.1666667,-0.168 -1.512,-0.504 -0.3453333,-0.340667 -0.518,-0.788667 -0.518,-1.344 v -3.22 h 1.057 v 3.059 c 0,0.410667 0.084,0.7 0.252,0.868 0.168,0.168 0.4176667,0.252 0.7490003,0.252 0.345333,0 0.595,-0.091 0.748999,-0.273 0.158667,-0.182 0.238001,-0.466667 0.238,-0.854 v -3.052 h 1.057 z M 5.9925,23.614 c 0,0.443333 -0.161,0.798 -0.483,1.064 -0.3173333,0.261333 -0.77,0.392 -1.358,0.392 -0.5273333,0 -0.9986667,-0.100333 -1.414,-0.301 v -0.987 c 0.238,0.102667 0.483,0.198333 0.735,0.287 0.2566667,0.084 0.511,0.126 0.763,0.126 0.2613333,0 0.4456667,-0.049 0.553,-0.147 0.112,-0.102667 0.168,-0.231 0.168,-0.385 0,-0.126 -0.044333,-0.233333 -0.133,-0.322 C 4.7395,23.25233 4.6251667,23.170667 4.4805,23.096 4.3358333,23.01667 4.1701667,22.932667 3.9835,22.844 3.8668333,22.788 3.7408333,22.722667 3.6055,22.648 3.4701667,22.56867 3.3395,22.473 3.2135,22.361 3.0921667,22.244333 2.9918333,22.104333 2.9125,21.941 2.833167,21.777667 2.7935,21.581667 2.7935,21.353 c 0,-0.448 0.1516667,-0.795667 0.455,-1.043 0.3033333,-0.252 0.7163333,-0.378 1.239,-0.378 0.2613333,0 0.5086667,0.03033 0.742,0.091 0.238,0.06067 0.4853333,0.147 0.742,0.259 l -0.343,0.826 c -0.2286667,-0.09333 -0.434,-0.165667 -0.616,-0.217 -0.182,-0.05133 -0.3686667,-0.077 -0.56,-0.077 -0.2006667,0 -0.3546667,0.04667 -0.462,0.14 -0.1073333,0.09333 -0.161,0.214667 -0.161,0.364 0,0.177333 0.079333,0.317333 0.238,0.42 0.1586667,0.102667 0.3943333,0.228667 0.707,0.378 0.2566667,0.121333 0.4736667,0.247333 0.651,0.378 0.182,0.130667 0.322,0.284667 0.42,0.462 0.098,0.177333 0.147,0.396667 0.147,0.658 z M 1,19 V 2 C 1,1.437352 1.437352,1 2,1 h 16 c 0.562648,0 1,0.437352 1,1 v 17 z"/>
</svg>
