<svg width="20" height="20" xmlns="http://www.w3.org/2000/svg">
 <g fill="none">
  <rect fill="#FFCD00" fill-rule="evenodd" width="20" height="20" rx="10"/>
  <path d="M6.74999233 3.75C7.87498473 3.75 9 4.3 9 6.5 9 7.12129373 8.91027634 7.61099454 8.75616805 7.99387754L9.40165043 8.64016504 8.69454365 9.34727182 8.16464546 8.81690112C7.7611686 9.13891555 7.25557815 9.25 6.74999233 9.25 5.62499992 9.25 4.5 8.7 4.5 6.5 4.5 4.3 5.62499992 3.75 6.74999233 3.75ZM6.75000924 4.75C6.12501346 4.75 5.5000135 5.1 5.5000135 6.5 5.5000135 7.9 6.12501346 8.25 6.75000924 8.25 6.98237947 8.25 7.21475145 8.201619 7.41500301 8.06888139L6.75 7.40272818 7.45710678 6.69562139 7.93889465 7.17806025C7.97829059 6.98551036 8.0000135 6.76100218 8.0000135 6.5 8.0000135 5.1 7.37500502 4.75 6.75000924 4.75ZM10 4 11 4 12.5 7 14 4 15 4 15 9 14 9 14 6 12.5 9 11 6 11 9 10 9z" fill="#000" fill-rule="evenodd"/>
  <g stroke-linejoin="square">
   <rect stroke="#FFCD00" stroke-width="2.25" x="1.125" y="1.125" width="17.75" height="17.75" rx="8.875"/>
   <rect stroke="#000" stroke-width="2" x="1" y="1" width="18" height="18" rx="9"/>
   <rect stroke="#FFCD00" x=".5" y=".5" width="19" height="19" rx="9.5"/>
  </g>
  <path d="M1,10 L19,10 C19,14.9705627 14.9705627,19 10,19 C5.02943725,19 1,14.9705627 1,10 L1,10 L1,10 Z" fill="#000" fill-rule="evenodd"/>
  <path d="M5.5,11 L5.5,13 C5.5,13.2761424 5.72385763,13.5 6,13.5 C6.27614237,13.5 6.5,13.2761424 6.5,13 L6.5,11 L7.25,11 L7.25,13 C7.25,13.6903559 6.69035594,14.25 6,14.25 C5.30964406,14.25 4.75,13.6903559 4.75,13 L4.75,11.75 L4,11.75 L4,14.25 L3.25,14.25 L3.25,11.75 L2.5,11.75 L2.5,11 L5.5,11 Z M7.5,11 L8.25,11 L9.25,12.75 L9.25,11 L10,11 L10,14.25 L9.25,14.25 L8.25,12.5 L8.25,14.25 L7.5,14.25 L7.5,11 Z M10.25,11 L11,11 L12,12.75 L12,11 L12.75,11 L12.75,14.25 L12,14.25 L11,12.5 L11,14.25 L10.25,14.25 L10.25,11 Z M13,14.25 L13,11 L15,11 L15,11.75 L13.75,11.75 L13.75,12.25 L14.5,12.25 L14.5,13 L13.75,13 L13.75,13.5 L15,13.5 L15,14.25 L13,14.25 Z M15.25,14.25 L15.25,11 L16,11 L16,13.5 L17.25,13.5 L17.25,14.25 L15.25,14.25 Z" fill="#FFCD00"/>
 </g>
</svg>
