<svg width="20" height="20" version="1.0" xmlns="http://www.w3.org/2000/svg">
 <circle cx="10" cy="10" r="10" style="fill:#006747"/>
 <circle cx="10" cy="10" style="fill:#fff" r="9"/>
 <circle cx="10" cy="10" style="fill:#006747" r="6"/>
 <path style="fill:#fff;stroke-width:.0206789" d="M14.486076 10.186886v1.269109H14.025373V10.186886L13.004 8.5439992h.551975l.695402 1.1256821.704094-1.1256821h.543283l-1.012677 1.6428868M12.149132 11.455995H11.740583L11.279879 9.5871023 10.832213 11.455995H10.423664L9.9933845 8.5439992h.4693975l.226006 1.5342318.369431-1.5342318h.447666l.378124 1.5342318.226006-1.5342318h.469396l-.43028 2.9119958M9.0154716 11.455999 8.276607 10.078235 7.9723685 10.456359v.99964H7.511665V8.5439992H7.9723688V9.7001051L8.8894304 8.5439992H9.4848685L8.5851919 9.6783739 9.5457155 11.455995H9.0154719M6.9827432 9.3610966c-.0000023.078235-.011592.1550185-.034769.2303519-.023182.072439-.055055.1419797-.095618.2086206-.040567.063747-.088376.1202488-.1434269.1695038-.052157.04926-.1101074.08837-.1738504.1173491-.066645.03187-.1448772.0565-.2346982.07389-.086926.01739-.1868908.02609-.2998921.02608H5.4615513v1.269109H5.0008475V8.5439992h.9996404c.1187964.0000029.2187604.00725.2998921.021731.084026.011593.1622588.034773.2346983.06954.063743.031875.1216932.073889.1738503.1260417.055051.049261.1028592.1072108.1434269.1738505.040563.063747.072436.1332876.095618.2086205.023177.07244.034767.1448775.034769.2173131m-.4693962 0C6.513345 9.3002508 6.4959601 9.2423009 6.461192 9.1872461 6.4293174 9.1321955 6.3887523 9.0887328 6.3394967 9.0568582 6.2989296 9.0336802 6.2598133 9.0191926 6.2221476 9.0133956 6.1873755 9.0076066 6.1337716 9.0047071 6.0613358 9.0047071H5.4615513v.712787h.5997842c.072437.0000019.1260401-.00289.1608118-.00869.037667-.0058.076782-.018833.1173491-.039116.049256-.026076.089821-.06809.1216953-.1260416.034768-.060846.052154-.1216931.052155-.182543"/>
</svg>
