<svg width="22" height="21" xmlns="http://www.w3.org/2000/svg">
 <g fill="none">
  <path stroke="#FFF" d="M10.9888705,1.53541164 C12.4932905,2.17213039 15.6549806,3.87611026 18.0538816,8.07193788 C19.311349,10.2705988 20.4865793,13.351667 20.4635207,15.9366539 L20.4952729,16.5917888 C20.5014614,16.8224065 20.5007132,17.0099295 20.4978836,17.1483271 L19.6146601,17.587847 C17.9917962,18.3189203 14.7868092,19.5 11.0005286,19.5 C6.74015838,19.5 3.21513315,18.0067865 1.85323088,17.3403669 L1.52154499,16.1815027 C1.53204122,15.9896301 1.54713988,15.7788513 1.56842789,15.5510978 L1.69152238,14.7185312 C2.07673476,12.2857243 2.64277057,10.3462577 3.94316334,8.07092597 C6.60805142,3.40953244 10.1920991,1.83760152 10.9888705,1.53541164 Z" stroke-linejoin="square" fill="#DDCBA4" fill-rule="evenodd"/>
  <path stroke="#000" d="M10.8553487,0.522191046 C12.7064083,1.1499044 16.2583722,2.91672937 18.9219393,7.57547464 C20.2554561,9.90710666 21.4793665,13.1747632 21.4636972,15.9160756 L21.4946142,16.5539789 C21.5112777,17.1582891 21.4840083,17.5025726 21.4840083,17.5025726 L20.0431555,18.491591 C18.348598,19.2568847 14.9806692,20.5 11.0005286,20.5 C6.52368045,20.5 2.82089975,18.9284912 1.4020398,18.2328833 L0.513021913,17.7692982 L0.521689379,16.1518789 C0.533269482,15.9341385 0.55043236,15.6929746 0.575318901,15.430959 L0.703827367,14.5621389 C1.10885219,12.0042067 1.70795868,9.9665959 3.07501927,7.5746137 C6.32347976,1.8924416 10.8553487,0.522191046 10.8553487,0.522191046 Z"/>
  <path d="M11.7490452,16.7304847 L11.7506453,16.7116959 L11.7730293,16.7137576 C11.7800201,16.7143626 11.7877353,16.7149901 11.7954505,16.7155391 L11.7918501,16.762511 L11.8098521,16.764219 L11.8094019,16.7724904 C11.8089296,16.7797485 11.8081948,16.788376 11.8070518,16.8017965 L11.7982508,16.8009425 L11.7886497,16.8099098 L11.7828765,16.8885656 C11.7825347,16.8936226 11.7821918,16.8988514 11.7818489,16.9042806 L11.7718478,16.9128209 L11.7714478,16.9222153 C11.7622467,16.9217883 11.7534457,16.9209342 11.7446447,16.9200802 L11.7346435,16.9290476 L11.7342435,16.9380149 L11.7158414,16.9367339 L11.7066404,16.9452742 L11.6974393,16.9448472 L11.6878382,16.9533875 C11.6870381,16.9627819 11.686238,16.9721763 11.685838,16.9815706 L11.6762369,16.990538 L11.6726364,17.0375099 L11.6634354,17.0366558 L11.6542343,17.0451962 L11.6461518,17.1573086 C11.6456538,17.1640376 11.6451476,17.1708001 11.6446332,17.1775714 L11.658741,17.178647 C11.6600146,17.1787217 11.6613209,17.1787914 11.6626353,17.1788524 L11.6618352,17.1882468 L11.6702362,17.1984952 L11.6970392,17.2006303 L11.7066404,17.19209 L11.7074404,17.1826956 L11.7522455,17.1865387 C11.7518455,17.1959331 11.7510454,17.2053275 11.7502453,17.2147219 L11.7586463,17.2249703 L11.7542458,17.2813365 L11.7722478,17.2826175 L11.7714614,17.2964895 C11.771338,17.298239 11.7712001,17.3000439 11.7710477,17.3018333 L11.7622467,17.3009793 L11.7522455,17.3099466 L11.7334434,17.5738431 L11.7414443,17.5840915 L11.7506453,17.5845185 L11.7306431,17.8582364 L11.739044,17.8680578 L11.7482451,17.8689118 L11.739044,17.9918927 L11.7482451,17.9927467 L11.7406442,18.0960848 L11.7490452,18.1063332 L11.7578462,18.1067602 L11.7519446,18.1912797 C11.7510372,18.2034577 11.7500739,18.2161985 11.7490452,18.2297411 L11.7632789,18.2308167 C11.7645245,18.2308914 11.7657899,18.2309612 11.7670472,18.2310222 L11.7602465,18.3258199 L11.7690475,18.3262469 C11.7678473,18.3450356 11.7882497,18.6204616 11.7870495,18.6392503 L11.7954505,18.6494987 L11.8042515,18.6503527 L11.800251,18.707146 L11.8082519,18.7169674 L11.817453,18.7178214 L11.8142526,18.7626582 L11.5538229,18.7413074 L11.5562232,18.705865 L11.5474221,18.7054379 L11.5390212,18.6947625 L11.5298201,18.6939085 L11.5358208,18.6187535 L11.5274199,18.6085051 L11.5186188,18.6076511 L11.5168529,18.5788415 C11.5118415,18.5077992 11.4979665,18.3304637 11.4986166,18.3228308 L11.4894155,18.3224038 L11.4902156,18.3130094 L11.4822147,18.302334 L11.4730136,18.3019069 L11.475197,18.2716996 C11.4753812,18.2694014 11.4755853,18.2669526 11.4758139,18.2643295 L11.467413,18.2540811 L11.458612,18.253227 C11.4598121,18.2344383 11.4610123,18.2156495 11.4626124,18.1964338 L11.4534114,18.1960068 L11.459012,18.1204247 L11.4506111,18.1101764 L11.44141,18.1097493 C11.4426102,18.100355 11.4438103,18.0811392 11.4450104,18.0623504 L11.4370095,18.0525291 L11.4278085,18.051675 C11.4306088,18.0136705 11.4330091,17.9760931 11.4362094,17.9380885 L11.4270084,17.9372345 L11.4318089,17.8714739 L11.4234079,17.8612255 L11.414607,17.8603715 L11.4206077,17.7758221 L11.4122067,17.7655737 L11.4034057,17.7647196 L11.4066061,17.7177478 L11.4158071,17.7181748 L11.4254082,17.7096345 L11.4290086,17.6626626 L11.4206077,17.6524142 L11.4114066,17.6515602 L11.4206077,17.5290063 L11.4294087,17.5298603 L11.4390097,17.52132 C11.44101,17.4927099 11.4430102,17.4645268 11.4454105,17.4363436 L11.4542115,17.4371977 L11.4638126,17.4282303 C11.4658128,17.4000472 11.467813,17.3718641 11.4702133,17.3432539 L11.4790143,17.344108 L11.4796138,17.3339642 C11.4802961,17.3239423 11.4813574,17.3104346 11.4822147,17.2967091 L11.4914157,17.2975631 L11.5010169,17.2890228 L11.5050173,17.2322295 L11.5142184,17.2330836 L11.5238194,17.2245432 L11.5314203,17.1207781 L11.5402213,17.1212052 L11.5422216,17.093022 L11.5514226,17.0938761 L11.5610237,17.0853357 L11.5650242,17.0285425 L11.5830262,17.0302505 C11.5834263,17.0208562 11.5842264,17.0114618 11.5850264,17.0016404 L11.5942275,17.0024945 L11.5958277,16.9743113 L11.6050287,16.9751654 L11.6146298,16.966198 L11.61663,16.9380149 L11.6346321,16.939723 L11.6354322,16.9299016 L11.6442332,16.9307556 L11.6465425,16.9006827 C11.6466988,16.8983546 11.6468621,16.8958622 11.6470335,16.8931781 L11.6650356,16.8944592 L11.669036,16.8380929 L11.6782371,16.83852 L11.6878382,16.8299796 C11.6882382,16.8205853 11.6890383,16.8111909 11.6898384,16.8017965 L11.6986394,16.8026505 C11.6994395,16.7928291 11.7002396,16.7834348 11.7006396,16.7740404 L11.7098407,16.7748945 L11.7194418,16.7663541 L11.721042,16.7471383 L11.729843,16.7479924 L11.7394441,16.739452 L11.7402442,16.7300576 L11.7490452,16.7304847 Z M13.593656,17.4517162 L13.5952562,17.4329275 L13.6576633,17.4380517 L13.6572632,17.4478731 L13.6652642,17.4576945 L13.6744652,17.4585485 L13.6611133,17.6431319 C13.6603575,17.653887 13.6596064,17.6646757 13.6588634,17.6754731 L13.6676645,17.6759001 C13.6628639,17.7420878 13.6580633,17.8082754 13.6536629,17.874036 L13.6620638,17.8842844 L13.6704648,17.8851384 C13.6696647,17.9039272 13.6680645,17.9227159 13.6668644,17.9419317 L13.6748653,17.9521801 L13.6840663,17.9526071 L13.6832662,17.9620015 L13.6740652,17.9611475 L13.6644641,17.9701148 L13.672865,17.9803632 L13.681666,17.9807902 L13.6790418,18.0216307 C13.6776656,18.0414702 13.6760654,18.0630825 13.6744652,18.0845554 L13.6828662,18.0948037 L13.6784657,18.151597 L13.68905,18.1522817 C13.6914059,18.1523813 13.6939532,18.152451 13.6964677,18.152451 L13.6949049,18.1765781 C13.6943696,18.1839544 13.6937817,18.1919806 13.6932674,18.1998499 L13.7112694,18.201558 C13.7096692,18.2203467 13.7080691,18.2391355 13.7068689,18.2583512 L13.7152699,18.2685996 L13.7112694,18.3249658 L13.7196704,18.3347873 L13.7284714,18.3356413 L13.7236708,18.4018289 L13.7320718,18.4120773 L13.7408728,18.4125043 C13.7404728,18.4223257 13.7396727,18.4317201 13.7388726,18.4406874 L13.7476736,18.4415415 L13.7368723,18.5927055 L13.7452733,18.6029539 L13.7540743,18.6033809 L13.7496738,18.6674334 L13.2108122,18.6230237 C13.2116123,18.6110672 13.2124124,18.5991107 13.2136126,18.5875812 L13.2316146,18.5888623 L13.2340149,18.5512848 L13.2256139,18.5410364 L13.2168129,18.5406094 L13.2184131,18.5213937 L13.2100121,18.5111452 L13.2012112,18.5102912 L13.2124124,18.3501599 L13.2231425,18.3510002 C13.2255568,18.351162 13.2281857,18.3513189 13.2308145,18.3514409 L13.2338236,18.3081728 C13.2343414,18.3014451 13.2349293,18.2941596 13.2356151,18.2861073 L13.2272141,18.2754319 L13.2180131,18.2745778 L13.2332148,18.0670476 L13.2512169,18.0687557 L13.2536171,18.0311782 L13.2456162,18.0205028 L13.2364152,18.0200758 L13.2394802,17.9811288 C13.2396645,17.9784721 13.2398441,17.975788 13.2400156,17.9731039 L13.2580177,17.974812 L13.2592177,17.9555962 L13.2508168,17.9453478 L13.2420158,17.9449208 L13.2464874,17.8813911 C13.2467429,17.8773911 13.2469878,17.873365 13.2472164,17.8693388 L13.2384154,17.8684848 L13.2428871,17.8053809 C13.2431425,17.8013821 13.2433874,17.7973559 13.243616,17.7933298 L13.2356151,17.7826544 L13.226414,17.7818003 L13.2180131,17.7719789 L13.209212,17.7711249 L13.2149853,17.6924692 C13.2153271,17.6874122 13.2156699,17.6821834 13.2160128,17.6767542 L13.2252139,17.6776082 L13.234815,17.6690679 L13.2356151,17.6596735 L13.2444161,17.6601005 L13.2540172,17.6515602 L13.2548173,17.6421658 L13.2816203,17.6443009 L13.2824204,17.6349065 L13.2912214,17.6357606 L13.3012226,17.6267932 L13.3016226,17.6178258 L13.3196247,17.6191069 L13.3292258,17.6105665 L13.3300258,17.6007452 L13.357229,17.6033073 L13.357629,17.5934859 L13.36643,17.5943399 L13.3764312,17.5857996 L13.3772313,17.5759782 C13.3860323,17.5772592 13.3948333,17.5776863 13.4036343,17.5785403 L13.4052345,17.5597515 L13.4095487,17.5599868 C13.4130476,17.560196 13.4182074,17.5605446 13.4232365,17.5610326 L13.4240366,17.5516382 L13.4328376,17.5524922 L13.4424387,17.5439519 L13.4432388,17.5341305 L13.4524398,17.5349846 L13.45364,17.5161958 L13.4823173,17.5186608 C13.4845823,17.5188276 13.4870152,17.5190019 13.4896441,17.5191849 L13.4900442,17.5097905 L13.4988452,17.5106446 L13.5004453,17.4918558 L13.5276485,17.4935639 L13.5368495,17.4850236 L13.5376496,17.4756292 C13.5468506,17.4764832 13.5556517,17.4773373 13.5648527,17.4777643 L13.5664529,17.4495812 C13.5756539,17.4504352 13.584455,17.4512892 13.593656,17.4517162 Z M10.776214,4.01366452 L10.7770141,4.00427015 C10.8398213,4.00939438 10.9026285,4.01451856 10.9654356,4.02006979 L10.9646355,4.02946417 L11.0274427,4.03458835 L11.026435,4.04937834 C11.0350436,4.05423115 11.0442446,4.05508519 11.0530457,4.05551218 L11.0518455,4.07430094 L11.1326547,4.0811332 L11.1318547,4.09052758 L11.2306659,4.09864092 L11.2290658,4.11742963 L11.319076,4.12511593 L11.3178759,4.14390469 L11.3986851,4.15030995 L11.397885,4.16013133 C11.4158871,4.16141241 11.4338892,4.16269344 11.4514912,4.16440152 L11.450291,4.18319023 L11.5583034,4.19215761 L11.5567032,4.21094637 L11.6195104,4.21607055 L11.6191103,4.22546493 L11.7087206,4.23315123 L11.7075204,4.25193999 L11.7611266,4.25621014 L11.7599264,4.27499889 L11.7831944,4.27711033 C11.8029926,4.27881591 11.8242195,4.28042811 11.8499367,4.2822582 L11.8491366,4.29207957 L11.8667386,4.2933606 L11.8675387,4.28396623 L11.8947418,4.28610135 L11.8939417,4.29592272 L11.9299458,4.29848484 L11.9283457,4.31727355 L11.9663535,4.3205403 C11.9771757,4.32142172 11.9886383,4.32233676 11.9999539,4.32325182 L11.9991538,4.34204053 L12.0287432,4.34471096 C12.033672,4.34511682 12.0388154,4.3455177 12.0439589,4.34588372 L12.0431588,4.35527805 L12.1507711,4.36424544 L12.1498167,4.37805498 C12.1497266,4.37967906 12.1496424,4.38135662 12.149571,4.38303419 L12.1943761,4.38687734 L12.1927759,4.40566605 L12.219979,4.40780117 L12.2179788,4.4364113 L12.2359808,4.43769234 L12.2343807,4.45648109 L12.2435817,4.45733513 L12.2427816,4.46672951 L12.2568893,4.46780512 L12.2571832,4.51540943 L12.2751853,4.51669046 L12.274573,4.52780162 C12.2744097,4.53032886 12.2742138,4.53310011 12.2739852,4.53590622 L12.2827862,4.53633326 L12.2817785,4.55112324 L12.2991881,4.55683004 L12.298788,4.56622442 L12.3167901,4.5675055 L12.3155899,4.58672126 C12.333592,4.58800229 12.351194,4.58928333 12.3691961,4.5909914 L12.3679959,4.60978016 L12.404,4.61276927 L12.4031999,4.62216365 L12.4480051,4.6260068 L12.4475385,4.63345657 C12.4472866,4.63674323 12.4469192,4.64076939 12.4464049,4.64479556 L12.49161,4.64863871 L12.4904099,4.66742746 L12.517213,4.66956253 C12.5256139,4.67981095 12.5344149,4.68066499 12.5432159,4.68109199 L12.5423342,4.69588197 C12.5422362,4.69719663 12.5421301,4.69853869 12.5420158,4.69988074 L12.5600179,4.70158882 L12.5584177,4.72037753 L12.5858774,4.72259604 C12.5996632,4.72377625 12.6151099,4.72513573 12.6304259,4.7263558 L12.6300259,4.73575013 L12.6438817,4.73682579 L12.6452276,4.77503572 L12.6628296,4.77631675 L12.6620295,4.78571113 C12.6712306,4.78656517 12.6804316,4.78741921 12.6892326,4.7878462 L12.6880325,4.80706196 C12.6968335,4.807489 12.7056345,4.80834304 12.7148355,4.80919708 L12.7132354,4.82798579 L12.7312374,4.82969386 L12.7280371,4.87666575 L12.7460391,4.87794679 L12.7424387,4.92534567 L12.7516398,4.92619971 L12.7496395,4.9543828 L12.7634954,4.95532401 L12.7663598,4.97058828 L12.7840434,4.97616067 L12.7804431,5.02313256 L12.7896441,5.02398655 C12.788844,5.03338093 12.788444,5.04277531 12.7872438,5.05216968 L12.8056459,5.05387776 L12.8032457,5.0820609 C12.8136305,5.08289747 12.8174759,5.08315891 12.8212477,5.08334193 L12.8200476,5.10255768 L12.8292486,5.10298472 L12.8276484,5.12220048 L12.8448213,5.12343047 C12.8499122,5.12388239 12.8559374,5.12445756 12.8636526,5.12518959 L12.8628525,5.13458397 L12.8855303,5.13625218 C12.8924967,5.13682361 12.9001139,5.13745106 12.9076576,5.13800007 L12.9064574,5.15678883 L12.9512626,5.16063198 L12.9500624,5.17942074 C12.9588635,5.18027478 12.9676645,5.18112881 12.9768655,5.18155581 L12.9760654,5.19137718 L13.0028685,5.1935123 L13.0036686,5.18411793 L13.0400727,5.18668004 L13.0392726,5.19650142 C13.0568746,5.19778245 13.0748767,5.19906353 13.0928788,5.20077156 L13.0919244,5.21458111 C13.0918343,5.21620518 13.0917501,5.21788275 13.0916786,5.21956032 L13.120104,5.22202531 C13.122327,5.22219213 13.124711,5.22236642 13.1272827,5.22254943 L13.1260825,5.24133819 L13.2160929,5.24902449 L13.2152928,5.25841886 L13.2688989,5.26268901 L13.2676987,5.28147777 L13.375311,5.29044515 L13.3743033,5.30523509 L13.418916,5.31307701 L13.418516,5.32247139 L13.445319,5.32460651 L13.4437189,5.34339522 L13.479723,5.34638433 L13.4785228,5.36560013 L13.4873239,5.36602712 L13.4853236,5.39421026 L13.5033257,5.39591833 L13.4985251,5.46210593 L13.4805231,5.46039785 L13.4785228,5.48858099 L13.4697218,5.48772695 C13.4689217,5.49754832 13.4681216,5.5069427 13.4677216,5.51633708 L13.4493195,5.51505604 L13.4485194,5.5338448 L13.4305174,5.53213672 L13.4289172,5.55092543 L13.4197161,5.55049843 L13.4177159,5.57868157 L13.3997138,5.57697349 L13.3985137,5.59618924 L13.3809117,5.59448117 L13.3797116,5.60387554 L13.3709105,5.60344855 L13.3686012,5.63352147 C13.3684449,5.63584952 13.3682816,5.63834191 13.3681102,5.64102601 L13.3501082,5.63931794 L13.331706,5.64743128 L13.3301059,5.66622004 L13.3213049,5.665366 L13.3193046,5.69397613 L13.3013026,5.69226805 L13.3002949,5.70705803 C13.3002249,5.7083727 13.3001596,5.70971475 13.3001024,5.71105681 L13.2821004,5.70977572 L13.2797001,5.73795886 L13.2708991,5.73710482 L13.269699,5.75632057 L13.2516969,5.75461254 L13.2492966,5.78279563 L13.2316946,5.78151459 L13.2293853,5.81158753 L13.2196932,5.81866506 L13.2180931,5.8468482 L13.200091,5.84514012 L13.1984908,5.86435587 L13.1804888,5.8626478 L13.1800887,5.87204217 L13.1708877,5.87118813 L13.1680873,5.90919264 L13.1504853,5.90748457 L13.1496853,5.91687894 L13.1316832,5.91559791 L13.130083,5.93438667 L13.121282,5.93395962 L13.1202743,5.94861516 C13.1202043,5.9499597 13.120139,5.95134533 13.1200819,5.95274838 L13.1020798,5.9510403 L13.1012797,5.96043468 L13.087046,5.95949352 C13.0858004,5.95938894 13.0845349,5.95927565 13.0832776,5.95915365 L13.0820775,5.97794235 L13.0708762,6.00569849 L13.0528742,6.00399042 L13.0518665,6.0187804 C13.0517965,6.02009506 13.0517312,6.02143712 13.0516741,6.02277917 L13.033672,6.02149809 L13.0326643,6.03628807 C13.0325943,6.03760274 13.032529,6.03894479 13.0324718,6.04028685 L13.0232708,6.03943281 L13.0044686,6.04754615 L13.0032685,6.06633486 C12.9944675,6.06548082 12.9852665,6.06462683 12.9764654,6.06419979 L12.9748653,6.08298854 L12.952507,6.08100285 C12.9485929,6.08069659 12.9441189,6.08036544 12.9388612,6.07999943 L12.9384611,6.08939381 L12.911658,6.08725869 L12.9100579,6.10604745 C12.9012569,6.10519341 12.8920558,6.10433937 12.8832548,6.10391237 L12.8822471,6.11870236 C12.8821771,6.12001702 12.8821118,6.12135907 12.8820547,6.12270113 L12.8207007,6.11765908 C12.8117038,6.11686231 12.802217,6.11599086 12.7920444,6.11501483 L12.7912443,6.1248362 L12.7541275,6.12156448 L12.7454848,6.1348026 C12.7453946,6.13642667 12.7453105,6.13810424 12.745239,6.13978181 L12.7328738,6.13896385 C12.7268043,6.13846587 12.7195218,6.13776869 12.7092349,6.13679265 L12.7076347,6.1555814 L12.6988337,6.15515441 L12.6960672,6.19489312 C12.695217,6.20629185 12.6942618,6.2184749 12.6932331,6.23073638 L12.6756311,6.2290283 L12.6736437,6.25341435 C12.6720225,6.27411783 12.6704305,6.296253 12.6684303,6.32339908 L12.6543225,6.32232343 L12.6482635,6.35455636 C12.6463624,6.3819701 12.6441989,6.41081552 12.6416272,6.44467186 L12.6600293,6.44595294 L12.6569642,6.48489985 C12.65678,6.48755657 12.6566003,6.49024068 12.6564289,6.49292479 L12.6744309,6.49463287 L12.6721217,6.52470579 C12.6719654,6.52703384 12.6718021,6.52952622 12.6716306,6.53221033 L12.6804316,6.53306437 L12.6772312,6.58046326 L12.6952333,6.58174429 L12.692833,6.60992742 L12.7108351,6.6116355 L12.709635,6.63042421 L12.718836,6.63127825 L12.7180359,6.64024563 L12.7356379,6.64195371 L12.7344378,6.66074242 L12.7524399,6.66245049 L12.7508397,6.68123925 L12.7600407,6.68209329 L12.7580405,6.71027638 L12.7760426,6.71155746 C12.7752425,6.72095184 12.7744424,6.73034621 12.7740423,6.74016759 L12.7920444,6.74144862 L12.7856436,6.82642502 L12.7570923,6.82396 C12.7548973,6.82379317 12.7525542,6.82361887 12.7500396,6.82343586 L12.7492395,6.83283024 L12.7404385,6.8319762 L12.7388383,6.851192 L12.7208362,6.84948392 L12.7196361,6.86827268 L12.7054024,6.86719702 L12.700834,6.87638598 L12.6920329,6.87553194 L12.6908328,6.89432069 L12.6616306,6.89199016 L12.653421,6.90639046 C12.653351,6.90774994 12.6532857,6.90914428 12.6532285,6.91054733 L12.6264255,6.90798522 L12.6256254,6.9173796 L12.6076233,6.91609856 L12.606857,6.92891654 C12.6063905,6.93527075 12.6057374,6.94293962 12.604823,6.95367603 L12.6336473,6.95614102 L12.640027,6.96605952 L12.7300373,6.97374582 L12.7284371,6.99253457 L12.7665196,6.9954876 C12.7773978,6.99639517 12.7889583,6.99741477 12.8004453,6.9985128 L12.7992452,7.01730155 L12.8172473,7.01858263 L12.8164472,7.02797696 L12.8148446,7.17374289 C12.8133448,7.19397329 12.8117609,7.2147664 12.8100464,7.23636127 L12.8242801,7.23743688 C12.8244481,7.29443556 12.8200476,7.35122878 12.8160471,7.40759505 L12.8264565,7.40824863 L12.8292486,7.47506368 L12.8380496,7.47591772 C12.8376496,7.4853121 12.8368495,7.49470647 12.8360494,7.50410085 L12.8502831,7.50517648 L12.8528513,7.52459769 L12.8796544,7.52673276 L12.8786467,7.54152274 L12.9070056,7.54785204 C12.9136583,7.557905 12.9128582,7.56729934 12.9120581,7.57669371 C12.9212591,7.57754775 12.9300602,7.57840179 12.9392612,7.57882883 L12.937661,7.59804459 L13.0096693,7.60359581 L13.0088692,7.61341719 L13.041372,7.6158523 C13.0503188,7.6165806 13.0601893,7.61744334 13.0716763,7.61854137 L13.0700761,7.63733013 C13.1064803,7.64031924 13.1420844,7.64330835 13.1780885,7.64587047 L13.1770808,7.66106379 L13.2036914,7.66722134 L13.2032914,7.67661567 L13.2300945,7.67875079 L13.2284943,7.69796654 L13.2464963,7.69924758 L13.2452962,7.71803633 L13.2720993,7.72017141 L13.2712992,7.72956578 L13.3001234,7.73203078 C13.3023476,7.7321976 13.3047315,7.73237189 13.3073033,7.7325549 L13.3061031,7.75134365 L13.328613,7.75340529 C13.3355514,7.75401034 13.3431931,7.75463779 13.3509083,7.7551868 L13.3499006,7.76997679 L13.4485194,7.78208886 L13.4477193,7.79148323 L13.4761447,7.79394823 C13.4783677,7.79411505 13.4807517,7.79428934 13.4833234,7.79447234 L13.4821232,7.81368814 L13.4913243,7.81411514 L13.4897241,7.83333089 L13.5257282,7.83589301 L13.5249281,7.84528739 L13.5697333,7.84913054 L13.5685331,7.86791929 C13.5773341,7.86877328 13.5865352,7.86962732 13.5953362,7.87005437 L13.5941361,7.88927012 L13.6071318,7.89010961 L13.611338,7.89994553 L13.6833462,7.90592375 L13.681746,7.92471251 C13.6909471,7.92556655 13.6997481,7.92642059 13.7089491,7.92684758 L13.707349,7.94563634 L13.7433531,7.94905249 L13.742553,7.95801983 L13.7501539,7.97766262 L13.786158,7.98107878 C13.7853579,7.99004611 13.7845578,7.99986749 13.7841578,8.00926186 C13.7929588,8.00968891 13.8021598,8.0105429 13.8109608,8.01139694 L13.8100791,8.02618692 C13.8099811,8.02750159 13.809875,8.02884364 13.8097607,8.03018569 L13.8545658,8.03402884 L13.8535581,8.04881883 C13.8534881,8.05013349 13.8534228,8.05147555 13.8533657,8.0528176 C13.8621667,8.0532446 13.8713677,8.05409863 13.8801687,8.05495267 L13.8797687,8.06434705 L13.8934985,8.06542268 L13.8961706,8.08484389 L13.9102783,8.08591951 L13.9125725,8.10534067 C13.9217735,8.10576771 13.9305745,8.10662175 13.9393755,8.10747574 L13.9389755,8.11687012 C13.9477765,8.11729717 13.9569775,8.1181512 13.9657785,8.11900524 L13.9645784,8.13779395 L13.9931297,8.1401245 L13.9989823,8.15957182 L14.0081833,8.16042586 L14.0073833,8.16982024 L14.0253853,8.17110127 L14.0237851,8.19031707 C14.0329862,8.19074407 14.0417872,8.1915981 14.0509882,8.19245214 L14.0493881,8.2112409 L14.0673901,8.21294893 L14.06659,8.22191631 L14.0845921,8.22362439 L14.0835844,8.23841433 C14.0835144,8.23972899 14.0834491,8.24107104 14.083392,8.2424131 L14.0911433,8.25978262 C14.0904948,8.26876616 14.0896784,8.27950259 14.0889926,8.29023903 L14.1069946,8.29194706 L14.1053945,8.31073581 L14.1196282,8.31181144 C14.1229965,8.32183827 14.1221964,8.33123265 14.1213963,8.34062702 L14.1305974,8.34148102 C14.1297973,8.35087539 14.1289972,8.36026977 14.1285971,8.36923715 L14.1465992,8.37094518 L14.144999,8.38973394 L14.1630011,8.39144202 C14.162201,8.4008364 14.1614009,8.41023077 14.1610008,8.41962515 L14.1878039,8.42176023 L14.1862037,8.44054898 L14.2042058,8.44225701 L14.1994052,8.50844465 L14.2086063,8.50887165 L14.206606,8.53705478 L14.2246081,8.53876286 L14.2222078,8.56694595 L14.2402099,8.56865403 L14.2390576,8.58651156 C14.2386342,8.59185239 14.2380954,8.59817921 14.2374096,8.60623154 L14.2466106,8.60665853 L14.2446104,8.63526866 L14.2626125,8.63654975 L14.2616048,8.65160862 L14.2794144,8.65704653 L14.2763493,8.69626238 C14.276165,8.69896392 14.2759854,8.70170031 14.275814,8.70444542 L14.285015,8.70487246 L14.2826147,8.73305555 L14.3006168,8.73476363 L14.2986166,8.76294676 L14.3166186,8.76465479 L14.3118181,8.83041539 L14.3210191,8.83126943 L14.3179541,8.87048528 L14.3315264,8.87960952 L14.3330205,8.90813248 L14.3510225,8.90984056 L14.3498224,8.92862932 L14.3590235,8.92948335 L14.3559584,8.96843026 C14.3557741,8.97108698 14.3555945,8.97377109 14.3554231,8.9764552 L14.3686246,8.97747393 L14.3686246,9.04392387 L14.3506225,9.04264284 C14.3498224,9.05203722 14.3490223,9.06143155 14.3486223,9.07082593 L14.3398213,9.06997189 L14.3382211,9.08876064 L14.320219,9.08747961 L14.319419,9.09687399 L14.3018169,9.09516591 L14.3002167,9.11438166 L14.2914157,9.11352762 L14.2898156,9.13231638 L14.2722135,9.1306083 C14.2714134,9.14042968 14.2706133,9.14982405 14.2702133,9.15921843 L14.2518112,9.15751036 L14.250211,9.18612049 C14.24101,9.18526649 14.232209,9.18441246 14.2230079,9.18398541 L14.2218078,9.20234717 L14.2075741,9.20140596 L14.202798,9.21585607 C14.202728,9.21717074 14.2026627,9.21851279 14.2026056,9.21985485 L14.1934045,9.2194278 C14.1926044,9.22882218 14.1918044,9.23821656 14.1914043,9.24761094 L14.1465992,9.24376779 L14.1477993,9.22497903 L14.1297973,9.223271 L14.1305974,9.21430362 L14.1125953,9.21259554 L14.1161957,9.1656237 L14.109304,9.1344278 C14.1094602,9.13205493 14.1096235,9.12951026 14.109795,9.12676515 L14.0955613,9.12582399 L14.092593,9.11608974 L14.0741909,9.11438166 L14.0754505,9.10156368 C14.0759544,9.09520947 14.0764769,9.0875406 14.0773913,9.0768042 L14.0681902,9.07595016 C14.0689903,9.06655578 14.0697904,9.0571614 14.0701905,9.04776702 L14.0521884,9.04648599 L14.0537886,9.02769723 C14.0459754,9.02675606 14.0408157,9.02623318 14.0357865,9.02598916 L14.037424,9.00243475 C14.0380153,8.99512193 14.0387011,8.98706962 14.0393869,8.97901731 L14.0301859,8.97816327 L14.030986,8.9687689 L14.0129839,8.96706082 L14.0138656,8.95227084 C14.0139636,8.95095617 14.0140697,8.94961412 14.014184,8.94827206 L13.996582,8.94699103 L13.9977822,8.92820227 L13.9885811,8.92734823 L13.9893812,8.9179539 L13.9608088,8.91548888 L13.9545772,8.89617604 L13.9457762,8.895322 L13.9473764,8.87653324 L13.9293743,8.87482516 L13.9301744,8.86543079 C13.9209734,8.86500379 13.9121724,8.86414975 13.9029713,8.86329571 L13.9045715,8.84450696 L13.8757472,8.84204198 L13.8669672,8.8603066 L13.8401642,8.85817153 L13.8417644,8.83938277 L13.8145613,8.83682066 L13.8157614,8.8180319 L13.8019056,8.81709074 L13.7985594,8.80735649 L13.7809574,8.80564841 L13.7909585,8.66430584 L13.8050663,8.66538146 L13.8205619,8.50545554 L13.8292415,8.50617403 C13.8320428,8.50637711 13.8352779,8.50658408 13.838564,8.50673658 L13.8422799,8.45250668 C13.8425073,8.44883658 13.8427359,8.44500214 13.8429645,8.44097598 L13.8253625,8.4392679 L13.8285629,8.39229606 L13.8465649,8.39400413 L13.8501653,8.34660525 L13.8589663,8.34745929 L13.8625667,8.3000604 L13.8533657,8.29963336 L13.8569661,8.25223452 L13.8427324,8.25115886 L13.8397641,8.24113206 C13.831951,8.24068761 13.8267912,8.24033902 13.8217621,8.23985103 L13.8229622,8.22106227 L13.7781571,8.21721912 L13.7791648,8.20242914 C13.7792347,8.20111447 13.7793001,8.19977242 13.7793572,8.19843037 L13.5729336,8.18134969 L13.5737337,8.17195531 L13.5465306,8.16982024 L13.5481308,8.15103148 L13.4581205,8.14334518 L13.4597207,8.12498347 L13.422331,8.12171174 L13.4133154,8.13992907 L13.384869,8.13746405 L13.375311,8.16512305 L13.3569089,8.29621725 L13.3389069,8.29493617 L13.3289057,8.43627879 L13.3183214,8.43562521 C13.3159655,8.43545092 13.3134183,8.43524177 13.3109037,8.43499775 L13.305303,8.51015273 C13.2921015,8.56609196 13.2881011,8.62288517 13.2841006,8.67967844 L13.2660986,8.67797036 L13.2637892,8.70804333 C13.263633,8.71037138 13.2634697,8.71286377 13.2632982,8.71554787 L13.2452962,8.71426679 L13.2448962,8.72366117 L13.2356951,8.72280713 L13.2344949,8.74202293 L13.1984908,8.73860678 L13.1968906,8.75782253 L13.1221742,8.75166006 C13.1173795,8.75129529 13.1124239,8.75092928 13.1072804,8.75056327 L13.1068804,8.7595306 L13.0796773,8.75782253 L13.0804774,8.74800115 L13.0530176,8.74578265 C13.0392318,8.74460244 13.0237852,8.74324297 13.0084691,8.74202293 L13.0080691,8.7518443 L12.990067,8.75013623 L12.9884668,8.76892498 L12.9708648,8.7676439 L12.9692646,8.78643266 L12.9600636,8.78557862 L12.9596635,8.794973 L12.9416615,8.79369196 L12.9400613,8.81248072 L12.9220592,8.81119964 L12.9208591,8.82998839 L12.9120581,8.82913435 C12.911258,8.83852873 12.9104579,8.84792311 12.9100579,8.85731749 L12.8958242,8.85624183 L12.8904556,8.87482516 L12.8763479,8.87374954 L12.8720535,8.88251146 L12.8618028,8.89859993 C12.8611543,8.90758346 12.8603379,8.91831988 12.8596521,8.92905631 L12.8455444,8.92798069 L12.8393407,8.95784821 C12.8391844,8.96017626 12.8390212,8.96266864 12.8388497,8.96535274 L12.824742,8.96441158 L12.8204476,8.97346609 L12.8112466,8.97261205 L12.8096464,8.9914008 L12.7920444,8.98969273 L12.788444,9.03709161 L12.7797644,9.03637311 C12.7769631,9.03617002 12.773728,9.03596305 12.7704419,9.03581053 L12.7692418,9.05459929 L12.7604408,9.05374525 L12.7596407,9.06313963 L12.7490564,9.06229929 C12.7467004,9.06213745 12.7441532,9.06198059 12.7416386,9.06185859 L12.7404385,9.08064735 C12.7300536,9.07981073 12.7262083,9.07954928 12.7224364,9.07936627 L12.7208362,9.09815502 L12.7120352,9.09730098 L12.7084348,9.14427283 L12.694453,9.14333166 L12.6900327,9.15238617 L12.675925,9.15131055 L12.6697214,9.18115565 L12.6604293,9.18782856 L12.6575007,9.22497158 C12.6562411,9.24218173 12.6550002,9.26072645 12.6536286,9.28219929 L12.6356265,9.28049126 L12.6348264,9.29031264 L12.6528285,9.29159367 L12.6402323,9.46730307 C12.6395045,9.47772951 12.6387697,9.4883265 12.6380268,9.49912393 L12.6468278,9.49997792 L12.6352264,9.6601093 L12.643906,9.66082779 C12.6467074,9.66103087 12.6499424,9.66123784 12.6532285,9.66139033 L12.6476279,9.73697235 L12.6656299,9.73868038 L12.6472278,9.99318249 L12.6292258,9.99190146 L12.6252253,10.0482677 L12.6393331,10.0493433 L12.6368266,10.1345251 L12.6440275,10.1635622 L12.6616295,10.1652703 L12.6604293,10.1840591 L12.6784314,10.1857671 L12.675231,10.232739 L12.684032,10.233593 L12.6800316,10.2903862 L12.6708305,10.2891052 L12.6648298,10.3740816 L12.6468278,10.3728005 C12.6464277,10.3821949 12.6456277,10.3915893 12.6448276,10.4009837 L12.6268255,10.3992756 L12.6252253,10.4184913 L12.6132239,10.4646092 L12.5952219,10.4633281 L12.5920215,10.5103 L12.5736194,10.5090189 C12.5728193,10.5184133 12.5724193,10.5278077 12.5720192,10.537202 C12.5620181,10.5461694 12.561218,10.5555638 12.560818,10.5649581 L12.5428159,10.5632501 L12.5405066,10.5935919 C12.5403503,10.5959648 12.540187,10.5985095 12.5400156,10.6012546 L12.5220135,10.5995465 L12.5152127,10.6939173 L12.5056117,10.7028846 L12.4876096,10.7011765 L12.4864094,10.7199653 L12.4721758,10.7188897 L12.4664072,10.7468673 L12.4572061,10.7460133 L12.4524056,10.8122009 L12.4344035,10.8104929 L12.4306876,10.8651486 C12.4304602,10.8688199 12.4302316,10.8726543 12.430003,10.8766805 L12.4116009,10.8753995 L12.4112009,10.8843668 L12.4019998,10.8839398 L12.3987995,10.9309117 L12.3846917,10.929836 L12.3785161,10.9635928 C12.3778338,10.9729597 12.3770255,10.9833127 12.3759968,10.9953912 L12.3579948,10.9941101 L12.3559946,11.0222933 L12.3435931,11.0688381 L12.3255911,11.06713 L12.3207905,11.1333177 L12.3387926,11.1350258 C12.3383925,11.1444201 12.3375924,11.1538145 12.3367923,11.1632088 C12.3459934,11.1636359 12.3547944,11.1644899 12.3635954,11.1653439 L12.3623953,11.1841327 L12.3803973,11.1858408 L12.3787971,11.2046295 L12.3879982,11.2054835 L12.3871981,11.2148779 L12.4052002,11.216159 L12.3984392,11.3099891 L12.4015197,11.3291476 L12.4103208,11.3300017 L12.40352,11.4239454 L12.3943189,11.4235184 L12.3927187,11.4517015 L12.3747167,11.4499934 L12.3663157,11.5635799 C12.3741289,11.5640244 12.3792886,11.564373 12.3843178,11.564861 L12.3831177,11.5836497 C12.3915186,11.5938981 12.3907185,11.6032925 12.3899184,11.6126869 L12.4079205,11.6143949 L12.3995195,11.7275544 L12.3819175,11.7258463 L12.3788571,11.7658988 C12.3780313,11.7772714 12.3771741,11.7893499 12.3763169,11.8014284 L12.3675159,11.8005743 L12.3627153,11.8667619 L12.3447133,11.8650538 L12.3411128,11.9124527 L12.3553465,11.9133939 L12.3571147,11.9419169 L12.3663157,11.9427709 L12.3639154,11.9713811 L12.3819175,11.9726622 L12.3693213,12.1483491 C12.3685935,12.1587892 12.3678588,12.1693949 12.3671158,12.1801924 L12.3491137,12.1784843 L12.3435131,12.2540663 L12.3615152,12.2557743 L12.3603151,12.2745631 L12.3871181,12.2766982 L12.385918,12.2954869 L12.430323,12.2993301 L12.447925,12.3100055 L12.4451247,12.34801 L12.4631268,12.3492911 L12.4591263,12.4060843 C12.4679274,12.4065113 12.4771284,12.4073654 12.4859294,12.4082194 L12.4847292,12.4270081 L12.5295344,12.4304243 L12.5279342,12.44964 L12.5459363,12.4509211 L12.5455362,12.4603154 L12.5543372,12.4611695 C12.1322318,14.8860156 11.9208744,16.1020174 11.9202648,16.1091751 L11.906157,16.1080994 L11.8986728,16.1621015 C11.8984173,16.1657853 11.8981479,16.1696284 11.8978622,16.1736546 L11.8798601,16.1719466 L11.8750596,16.2381342 L11.8658585,16.2372801 L11.8642583,16.2658902 L11.8458562,16.2641822 L11.8446561,16.2829709 L11.799851,16.2795548 L11.8010511,16.2607661 L11.7830491,16.259058 L11.6313979,15.7363918 C11.6316685,15.7327204 11.6319461,15.728886 11.6322318,15.7248598 L11.6179981,15.7237842 L11.6147896,15.7158701 C11.6150135,15.7124938 11.6152585,15.7083892 11.6154299,15.704363 L11.5997686,15.7032426 C11.5911986,15.7025504 11.5809117,15.7016789 11.5706248,15.7009469 L11.5694247,15.7197356 L10.9057488,15.779091 L10.9049487,15.7884854 L10.8869467,15.7867773 L10.8859923,15.8005868 C10.8779334,15.8051216 10.8727736,15.804773 10.8677445,15.804285 L10.8667368,15.8190749 C10.8666668,15.8203896 10.8666015,15.8217317 10.8665443,15.8230737 L10.8573433,15.8222197 L10.855343,15.8508298 L10.65332,16.8965943 L10.671322,16.8978753 C10.6697218,16.9170911 10.6685217,16.9358798 10.6673216,16.9546686 L10.6600997,16.954071 C10.6569367,16.953832 10.6530914,16.9535705 10.6493195,16.9533875 C10.6473193,16.9815706 10.645319,17.0097538 10.6429188,17.0383639 L10.6341177,17.0370828 L10.6305174,17.0844817 L10.6202538,17.0838281 L10.6085148,17.1395669 L10.5998353,17.1388484 C10.5970339,17.1386453 10.5937989,17.1384383 10.5905128,17.1382859 L10.5881125,17.1758633 L10.5789114,17.1754363 L10.5757111,17.2224082 L10.557709,17.2207001 L10.5521084,17.2962821 L10.5380007,17.2952065 C10.5337063,17.3039684 10.5329062,17.3137898 10.5321061,17.3231842 C10.5209048,17.3505133 10.5189046,17.3791234 10.5173044,17.4073065 L10.522505,17.4551324 L10.5405071,17.4568405 L10.540107,17.4658078 L10.557709,17.4675159 L10.5553087,17.5050934 L10.5641097,17.5059474 L10.5621095,17.5341305 L10.5801116,17.5358386 C10.5793115,17.545233 10.5785114,17.5546273 10.5781113,17.5640217 L10.5961134,17.5657298 C10.5869124,17.6882836 10.5781113,17.8104105 10.5693104,17.9333914 L10.5781113,17.9342454 L10.5758748,17.9718947 C10.5745589,17.9973587 10.5732241,18.0285298 10.5718737,18.0631963 L10.558814,18.4242287 C10.5567194,18.4757989 10.5546139,18.5198306 10.5525084,18.5491497 L10.5705105,18.5504308 C10.5677102,18.5875812 10.5649098,18.6247318 10.5625096,18.6618822 L9.00913206,18.5337771 L9.01033221,18.5171235 L8.99609849,18.5160478 L8.93432349,18.4441036 L8.93512359,18.4351362 L8.92592255,18.4342822 L8.92912288,18.3868833 L8.9152671,18.3859421 L9.10185169,17.1180343 L9.10956452,17.1111273 C9.11272755,17.1113663 9.11657288,17.1116278 9.12034474,17.1118108 L9.12114483,17.1024164 C9.20481154,17.0281561 9.2469497,16.9874472 9.24755929,16.9802896 L9.26141511,16.9812308 L9.12634544,15.1577813 L9.11185982,15.1568402 L9.10954351,15.1377115 L9.10034248,15.1368575 L9.10194266,15.1180688 L8.86591567,15.2598384 L8.86431549,15.2786271 L8.48184961,14.7008272 C8.48344747,14.6801237 8.48495785,14.6579885 8.48667234,14.6308425 L8.50507446,14.6325505 L8.50761467,14.5933347 C8.50782577,14.5906332 8.5080462,14.5878968 8.50827479,14.5851516 L8.51707582,14.5860057 L8.51867601,14.5672169 C8.52886491,14.5679838 8.53273474,14.568376 8.53667804,14.568925 C8.53694474,14.5623774 8.94552477,13.6155386 9.76241812,11.7284085 L9.7804202,11.7296895 C9.59342577,9.91101488 9.49995238,9.00111838 9.5,9 L6.12448235,8.51698499 L6.12528245,8.50759062 L6.05327425,8.50161239 L6.05428195,8.48682241 L6.02767133,8.48026152 L6.02927147,8.46147281 C5.86696722,8.39770493 5.77895717,8.36525163 5.76524133,8.36411292 L5.76404118,8.38290168 L5.74603911,8.3811936 L5.74523902,8.39058798 L5.72723699,8.38930695 C5.72631443,8.4048364 5.72557965,8.41346387 5.72443666,8.42688441 L5.16758818,8.66574748 C5.15894346,8.66505528 5.14865658,8.66418382 5.13836968,8.6634518 L5.13756959,8.67284618 L5.11076653,8.6707111 L5.10956638,8.68949981 L5.08074211,8.68703483 L5.07236214,8.70529946 L4.95554877,8.69590508 L4.95655647,8.68098065 C4.95662645,8.67969586 4.95669176,8.67839738 4.95674891,8.67711632 L4.92994585,8.67455425 L4.70592027,8.39998236 L4.70672036,8.39058798 L4.68871829,8.3888799 L4.75512588,7.96741421 L4.74127006,7.96647304 L4.73872399,7.94734442 L4.13505503,7.92599359 L4.13345484,7.9447823 C4.12465381,7.9443553 4.11545277,7.94350127 4.10705183,7.94264723 L4.10785192,7.92385847 L4.06304679,7.92001532 L4.06544707,7.89183223 L4.05121336,7.89089103 L4.09145004,7.78038083 C4.09731737,7.78066549 4.68285095,7.71803633 5.84805079,7.59249336 L5.84885089,7.58352602 L5.86685291,7.58480706 L5.86805306,7.5660183 L5.87685409,7.56644534 L5.87845428,7.54765659 L5.89645631,7.54936467 L5.8972564,7.53997029 L9.51265502,7.34423592 C9.52129508,7.34492811 9.53161463,7.34579957 9.54167293,7.34653159 L9.54327307,7.32774288 L9.55207411,7.32859692 L9.5528742,7.31920254 L9.56345849,7.32004288 C9.56581444,7.32020472 9.56836166,7.32036158 9.57087623,7.32048358 L9.57207637,7.30169482 L9.64368457,7.30767309 L9.64288447,7.3264618 C9.68768961,7.33030495 9.7324947,7.3341481 9.77729983,7.33756426 L9.77890002,7.3187755 L10.0389297,7.34012637 L10.0405299,7.32133762 L10.1569432,7.33073199 L10.1557431,7.34994775 L10.2905585,7.36062316 L10.2911708,7.34985437 C10.2913341,7.34737692 10.29153,7.34464052 10.2917586,7.3418344 L10.3185617,7.34439652 L10.3193618,7.33500214 L10.4273741,7.34354248 L10.4265741,7.35293686 C10.4713792,7.35678001 10.5161843,7.36062316 10.5609894,7.36403931 L10.5617895,7.35464494 L10.5797915,7.35635301 L10.5807992,7.34156303 C10.5808692,7.34024837 10.5809345,7.33890631 10.5809917,7.33756426 L10.5901928,7.33799125 L10.5912004,7.32320131 C10.5912704,7.32188665 10.5913357,7.3205446 10.5913929,7.31920254 L10.6019772,7.32004288 C10.6043331,7.32020472 10.6068804,7.32036158 10.6093949,7.32048358 L10.6113952,7.29230044 L10.6293972,7.29400852 L10.6309974,7.27521976 L10.6397984,7.2760738 L10.6405985,7.26625243 L10.6586005,7.26796051 L10.6596082,7.25290163 C10.6596782,7.25154215 10.6597435,7.25014781 10.6598007,7.24874476 L10.6778027,7.25045279 L10.6790029,7.23166408 L10.6882039,7.23251807 L10.689004,7.22312374 L10.706606,7.22440477 L10.7089154,7.19433181 C10.7090716,7.19200375 10.7092349,7.18951137 10.7094064,7.18682726 L10.72364,7.18776847 C10.7248857,7.18787304 10.7261511,7.18798634 10.7274084,7.18810834 L10.7282085,7.17871396 L10.7370095,7.179568 L10.7386097,7.16077925 L10.7566117,7.16206028 L10.7578119,7.14327157 L10.7673943,7.14409822 C10.7768998,7.14485763 10.7897584,7.14577265 10.802617,7.14668768 L10.8034171,7.1372933 L10.8662243,7.14284453 L10.8674244,7.12362878 L10.9214306,7.12832596 L10.9230308,7.10953721 L10.9400776,7.11076724 C10.9452211,7.11121915 10.9513197,7.11179431 10.9590349,7.11252632 C10.9594349,7.10270495 10.959835,7.09373761 10.9610351,7.08391619 L10.9698361,7.08477023 L10.9797241,6.94850078 C10.9802945,6.94042979 10.980866,6.93232518 10.9814375,6.92421186 L10.9722364,6.92378486 L10.9730365,6.91439048 L10.9282314,6.91054733 L10.9294315,6.89175858 L10.7946161,6.88065617 L10.7954185,6.87312672 C10.7957264,6.86978029 10.7960448,6.86564955 10.7962163,6.86144037 C10.7602122,6.8588783 10.7242081,6.85588919 10.688604,6.85290003 L10.689004,6.84350565 L10.6173959,6.83752743 L10.618596,6.81873867 L10.5897927,6.8162737 C10.5875557,6.81610687 10.5851636,6.81593257 10.5825919,6.81574956 L10.5841921,6.79653381 L10.574991,6.79610681 L10.5757911,6.78671244 L10.557789,6.78500436 C10.5605894,6.74742685 10.5633897,6.70984938 10.5657899,6.67184487 L10.583792,6.67355295 L10.5865352,6.63937665 C10.587221,6.63000592 10.5879068,6.61962679 10.5885926,6.60736531 L10.5977936,6.60821935 L10.6017941,6.55142608 L10.592993,6.55099909 L10.5938958,6.5381811 C10.594283,6.53182689 10.5947075,6.52415801 10.5953933,6.51342157 L10.5777913,6.51171354 L10.5797915,6.48353041 L10.5617895,6.48182233 C10.5621896,6.47242795 10.5629897,6.46303358 10.5637897,6.45363925 L10.5545887,6.45278521 L10.5571639,6.41882303 C10.5578217,6.40945605 10.558532,6.39910307 10.5593892,6.38702461 L10.5417872,6.38531653 C10.5441875,6.34773902 10.5469878,6.30973451 10.5497881,6.27215704 L10.5317861,6.27087596 L10.5357865,6.21408275 L10.5537886,6.21579082 L10.5563638,6.1815697 C10.5570216,6.17211308 10.5577319,6.16168167 10.5585891,6.14960318 L10.5409871,6.1478951 L10.5418688,6.13310512 C10.5419668,6.13179046 10.542073,6.1304484 10.5421873,6.12910635 L10.5329862,6.12867935 L10.5337863,6.11885798 C10.4889812,6.11544182 10.443776,6.11159867 10.399371,6.10775552 L10.400571,6.08896677 L10.382569,6.08768573 C10.3829691,6.07829135 10.3837692,6.06889698 10.3845693,6.0590756 L10.3665672,6.05779452 L10.3725678,5.97281817 L10.3905699,5.97452625 L10.3929702,5.94591612 L10.4105722,5.94762419 C10.4111056,5.94136128 10.4800468,5.82051547 10.6173959,5.58508679 C10.62433,5.57313034 10.6280637,5.56402066 10.6285971,5.55775774 L10.6391814,5.55841132 C10.6407521,5.55852752 10.6408244,5.46692802 10.6393984,5.28361284 L10.6397984,5.27379147 L10.6259426,5.2728503 L10.6230781,5.25772045 L10.5605894,5.24817045 L10.1345407,4.14134257 L10.1437417,4.14219661 L10.1453419,4.1234079 L10.180946,4.12596997 L10.1821461,4.10718126 L10.1913472,4.10803525 L10.1921473,4.09864092 L10.776214,4.01366452 Z M15.1411128,5.4834568 L15.1499139,5.4838838 L15.1491138,5.49327817 L15.1575147,5.50352659 L15.1963215,5.50685431 C15.2151784,5.50836319 15.2357522,5.50993182 15.256326,5.51163989 L15.2555259,5.52103427 C15.2643269,5.5218883 15.273528,5.52274234 15.282729,5.52316934 L15.2831291,5.51377496 L15.3191332,5.51719112 L15.3183331,5.52615845 L15.3451361,5.52872057 L15.3459362,5.51932619 C15.3999424,5.52359638 15.4539486,5.52786653 15.5075547,5.53256372 L15.5067546,5.5419581 L15.5355789,5.54428863 C15.5378031,5.54448533 15.540187,5.5447032 15.5427588,5.54494721 L15.5423587,5.55434158 L15.5503596,5.56459 L15.5660524,5.56571044 C15.5746644,5.56640263 15.5850493,5.56727409 15.5955648,5.56800611 L15.5947647,5.57740049 L15.6031656,5.5876489 C15.6207677,5.58935698 15.6387697,5.59106506 15.6567718,5.59234609 L15.6559717,5.60174047 L15.6631935,5.60233804 C15.6663565,5.60257707 15.6702019,5.60283851 15.6739737,5.60302151 L15.6731736,5.61241588 L15.6815746,5.6226643 L15.7811358,5.63105524 C15.8073604,5.63321772 15.8342778,5.63541381 15.8611951,5.63760991 L15.860395,5.64700424 L15.868796,5.65725265 L15.877997,5.6576797 L15.877197,5.66707407 L15.904,5.66963614 L15.9031999,5.67903052 L15.9116009,5.68927894 C15.9208019,5.68970593 15.9296029,5.69055997 15.938404,5.69141401 L15.9380039,5.70080839 L15.9460048,5.71105681 L15.9619915,5.71217724 C15.9706362,5.71286943 15.9809231,5.71374089 15.99121,5.71447291 L15.9904099,5.72429433 L16.0142482,5.72604222 C16.0254588,5.7269087 16.037901,5.72795445 16.0532171,5.72941852 L16.060818,5.74906131 L16.070019,5.74948831 L16.0692189,5.75888269 L16.0776199,5.7691311 L16.0768198,5.77852548 L16.0948218,5.78023356 L16.0944218,5.78962789 L16.1024227,5.79987631 L16.1204247,5.80115739 L16.1196247,5.81055172 L16.1280256,5.82080014 L16.2088349,5.8272054 L16.2080348,5.83702678 L16.2708419,5.84215101 L16.2704419,5.85154539 L16.2784428,5.86179376 L16.2876439,5.8622208 L16.2856436,5.89083093 L16.2944447,5.89168497 L16.2936446,5.9006523 L16.3020455,5.91090072 C16.3112466,5.91175476 16.3200476,5.9126088 16.3292486,5.91303579 L16.3284485,5.92285721 L16.3364495,5.93267859 L16.3652737,5.93514358 C16.3674979,5.9353104 16.3698818,5.93548469 16.3724536,5.9356677 L16.3712534,5.95488345 L16.3792543,5.96470487 L16.3788543,5.9740992 L16.3872553,5.98434762 L16.3960563,5.98520166 L16.3956562,5.99459604 L16.4136583,5.99587707 L16.4128582,6.00569849 L16.4212591,6.01551987 L16.420459,6.02534124 L16.42846,6.03516266 L16.437661,6.0360167 L16.4348607,6.07402116 L16.4432617,6.08384258 L16.4520627,6.08469662 L16.4512626,6.094091 L16.4604636,6.09494499 L16.4596635,6.10433937 L16.4680645,6.11458778 C16.4768655,6.11501483 16.4860666,6.11586882 16.4948676,6.11672286 L16.4944675,6.12611724 L16.5024684,6.13636565 L16.5020684,6.14576003 L16.5159242,6.14683566 C16.5171558,6.14691035 16.5184131,6.14698007 16.5196704,6.14704106 L16.5188703,6.15686249 L16.5272712,6.16668386 L16.5452733,6.16839194 L16.5448733,6.17778632 L16.5532743,6.18803468 C16.5620752,6.18846173 16.5708762,6.18931577 16.5800773,6.19016981 L16.5792772,6.19956414 L16.5880782,6.20041817 L16.5876782,6.20981255 L16.5960791,6.22006097 L16.6048801,6.22048796 L16.60408,6.22988234 L16.612481,6.24013076 L16.6216821,6.2409848 L16.620882,6.25037918 L16.629683,6.25123322 L16.6292829,6.26062759 L16.6372838,6.27087596 L16.6460848,6.27130301 L16.6456848,6.28069738 L16.6540857,6.2909458 L16.6628868,6.29179979 L16.6620867,6.30119417 L16.6712877,6.30204821 L16.6704876,6.31144259 L16.6788886,6.321691 L16.6880897,6.322118 L16.6872896,6.33151238 L16.6956905,6.34176079 L16.7044915,6.34261483 L16.7034838,6.35740482 C16.7034139,6.35871948 16.7033485,6.36006154 16.7032914,6.36140359 L16.7112923,6.37165196 C16.7108922,6.38104634 16.7100922,6.39044071 16.7092921,6.39983509 L16.7272941,6.40111613 L16.7252939,6.42972626 L16.7332948,6.43997467 L16.7424959,6.44040172 L16.7416958,6.45022309 L16.7508968,6.45065009 L16.7500967,6.46004446 L16.7584977,6.47029288 L16.7676987,6.47114692 L16.7668987,6.4805413 L16.7748995,6.49078971 L16.7841006,6.49164375 L16.7825004,6.51043246 L16.7909014,6.52068088 L16.7889011,6.54886401 L16.8069032,6.55057204 L16.8007567,6.63451887 C16.7998983,6.64662474 16.7990166,6.65927838 16.7981022,6.67269891 L16.8065032,6.68294733 L16.8153042,6.68380137 L16.8129949,6.71387428 C16.8128386,6.71620234 16.8126753,6.71869472 16.8125039,6.72137883 L16.8209048,6.73162725 C16.8193046,6.750416 16.8181045,6.76920471 16.8169044,6.78842051 L16.8273137,6.78907409 L16.8325061,6.81788468 L16.8409071,6.82813305 L16.8497081,6.82898709 L16.8581091,6.83923551 C16.8549087,6.88620735 16.8517084,6.93360624 16.8481079,6.98057813 L16.8385068,6.98911847 C16.8377068,6.9985128 16.8369067,7.00833422 16.8365066,7.0177286 L16.8273055,7.01687456 L16.8177044,7.0254149 L16.8161043,7.0442036 L16.8073033,7.04377661 L16.7977022,7.05231695 L16.7896196,7.16440701 C16.7891216,7.17114965 16.7886154,7.17792092 16.7881011,7.18469219 L16.7785,7.19323253 L16.7776999,7.2026269 L16.7688989,7.20177286 L16.7592978,7.2103132 L16.7560974,7.24831771 L16.7376953,7.25600401 L16.7308946,7.35037474 L16.7212934,7.35891508 L16.7204933,7.3687365 L16.7116923,7.36788246 L16.7020913,7.3764228 L16.7012912,7.38581718 L16.6920901,7.38539014 L16.682489,7.39393048 L16.6792886,7.44132936 L16.6932704,7.44227053 C16.6964906,7.45200478 16.6960905,7.46139915 16.6952905,7.47079353 L16.7032914,7.48104195 L16.7124924,7.48189599 L16.7112923,7.5006847 L16.7192932,7.51093311 L16.7184931,7.52032749 L16.7268941,7.53014887 L16.7540972,7.53271098 L16.752497,7.55149974 L16.7608979,7.56174815 L16.7600979,7.57114253 L16.7684988,7.5813909 L16.7768998,7.59121232 L16.7945018,7.59292035 L16.7941018,7.60231473 L16.8021027,7.61256315 L16.8163364,7.61363877 C16.817582,7.61371347 16.8188474,7.61378318 16.8201047,7.61384418 L16.8197047,7.62323856 L16.8281056,7.63348698 L16.8457076,7.63519506 L16.8449076,7.64458943 L16.8521294,7.64518701 C16.8552924,7.64542603 16.8591378,7.64568747 16.8629096,7.64587047 C16.8625096,7.65526485 16.8617095,7.66465922 16.8609094,7.6740536 L16.8693103,7.68430197 L16.8781114,7.68515601 L16.8777113,7.69455039 L16.8861123,7.7047988 L16.8945133,7.71504722 L16.9033142,7.71547422 L16.9025141,7.7248686 L16.9109151,7.73511701 L16.9197161,7.73597105 L16.9193161,7.74536543 L16.9281171,7.74621947 L16.9261168,7.77440255 L16.9341178,7.78465097 L16.9433188,7.78550501 L16.9423111,7.80029499 L16.9501196,7.81454214 L16.9593206,7.81539617 L16.9585206,7.82436356 L16.9669215,7.83503897 L16.9653213,7.85382773 L16.9737223,7.8636491 L16.9829233,7.86450314 L16.9821232,7.87389752 L16.9905242,7.88414593 L16.9993252,7.88499992 L16.9989252,7.8943943 L17.0077262,7.89524834 L17.0057259,7.92343147 L17.0141269,7.93367989 L17.0229279,7.93410689 L17.0225279,7.94392826 L17.0326165,7.94458188 C17.0349375,7.94475618 17.037501,7.94496533 17.0401299,7.94520934 L17.0393298,7.95460372 L17.0477307,7.96485209 L17.0473307,7.97424647 L17.0553316,7.98449489 L17.0645327,7.98492193 L17.0637326,7.99431626 L17.0817346,7.99602434 L17.0809345,8.00541871 L17.0893355,8.01566713 L17.0885354,8.02506151 L17.0969364,8.03530993 L17.1057374,8.03573692 L17.1047297,8.05093025 L17.1129382,8.06520109 L17.1309402,8.06648212 L17.1301401,8.0758765 L17.1385411,8.08612492 L17.1473421,8.08655192 L17.146542,8.09637334 L17.1571263,8.09702692 C17.1594823,8.09720121 17.1620295,8.09741036 17.1645441,8.09765437 L17.1641441,8.10704875 L17.172145,8.11729717 L17.1717449,8.12669154 L17.1797458,8.13693991 L17.1889469,8.13736696 C17.1873467,8.15658271 17.1861466,8.17537146 17.1849464,8.19416022 L17.2025484,8.19586825 L17.2021484,8.20526263 L17.2105493,8.21551105 L17.2097492,8.22490542 L17.2177502,8.23515384 L17.225351,8.25479659 L17.233752,8.26461801 L17.2429531,8.26547205 L17.242153,8.27486638 L17.2505539,8.28511479 L17.268556,8.28682287 L17.2669558,8.30518459 L17.2753568,8.315433 L17.2841578,8.31628704 C17.2829576,8.3350758 17.2817575,8.35386451 17.2801573,8.37265326 L17.2885583,8.38290168 L17.2877582,8.39229606 L17.3057602,8.39400413 L17.3053602,8.40339851 L17.3133611,8.41364688 L17.3225621,8.41450092 L17.3217621,8.4238953 L17.330163,8.43414372 L17.3282316,8.45904017 C17.3273872,8.47076259 17.3265055,8.48379967 17.3253625,8.49990431 L17.3337634,8.51015273 L17.3425645,8.51100677 L17.3369638,8.58616175 L17.3549659,8.58786978 L17.3529656,8.61605291 L17.3613666,8.62630133 L17.358249,8.66714182 C17.3568355,8.6869813 17.3553659,8.70859357 17.3537657,8.73006644 L17.3441646,8.73860678 L17.3405642,8.78600566 L17.3489652,8.79625408 L17.3401642,8.91880789 L17.3305631,8.92734823 C17.329763,8.93674261 17.3289629,8.94613699 17.3285629,8.95553137 L17.3193618,8.95467733 L17.3097607,8.96321767 L17.3085605,8.98243342 L17.2993595,8.98157938 L17.2897584,8.99011972 C17.2893584,8.99994114 17.2885583,9.00933552 17.2877582,9.01872985 L17.2961591,9.02897827 L17.3049601,9.02940531 L17.298809,9.11709192 C17.2984533,9.12243399 17.2981022,9.1278022 17.2977593,9.13317042 L17.3057602,9.14341884 L17.3145613,9.14427283 L17.3141612,9.1536672 L17.3409643,9.15580233 L17.3405642,9.16519666 L17.3485651,9.17544507 L17.3773894,9.17791007 L17.3837692,9.18782856 L17.3921701,9.19807698 L17.4013711,9.19893102 L17.4097721,9.20917943 L17.417373,9.22882218 L17.4253739,9.2386436 L17.4337749,9.24889197 L17.4517769,9.25017305 L17.4509768,9.25999443 L17.4652105,9.26093561 C17.4664561,9.26104018 17.4677216,9.26115346 17.4689789,9.26127546 L17.4681788,9.27066984 L17.4765798,9.28091826 L17.4853808,9.2813453 L17.4845807,9.29116667 L17.4929816,9.30141509 L17.4921816,9.31080947 L17.5101836,9.3120905 L17.5097835,9.32148488 L17.5181845,9.3317333 L17.5361865,9.33301433 L17.5353865,9.34283571 L17.5433874,9.35265713 L17.5525884,9.35351112 L17.5517883,9.3629055 L17.5697904,9.36461357 L17.5693904,9.37400795 L17.5773913,9.38425637 L17.5765912,9.39365075 L17.5849922,9.40389912 L17.6121953,9.40603424 L17.6113952,9.41542862 C17.6201962,9.41585561 17.6293972,9.41670965 17.6381982,9.41756369 C17.6377982,9.42695807 17.6369981,9.43635244 17.636198,9.44574678 L17.6445989,9.45599519 L17.6534,9.45684923 L17.6529999,9.46624361 L17.6618009,9.46709765 L17.6614009,9.47649203 L17.6694018,9.48674044 L17.6782028,9.48716744 L17.6778027,9.49656182 L17.6858036,9.50681023 L17.7002893,9.50788586 L17.7034057,9.51791264 L17.7165647,9.5189314 C17.7181344,9.51902759 17.7197647,9.51911747 17.7214077,9.51919372 L17.7190075,9.54737681 L17.7274084,9.55762523 L17.7366095,9.55847927 L17.7446104,9.56872768 L17.7522113,9.58837043 C17.7614123,9.58879747 17.7702133,9.58965151 17.7794144,9.59050555 C17.7786143,9.59989993 17.7778142,9.60929426 17.7774141,9.61868864 L17.785415,9.62893705 L17.793816,9.63918547 L17.8030171,9.64003951 C17.802217,9.64943389 17.8014169,9.65882822 17.8010168,9.6682226 L17.8186189,9.66950368 L17.8182188,9.67889806 L17.8262197,9.68914643 L17.8258197,9.6985408 L17.8338206,9.70878922 L17.8430216,9.70964326 L17.8422215,9.71903764 L17.8563293,9.7199788 C17.8576029,9.72008338 17.8589092,9.72019667 17.8602236,9.72031867 L17.8582234,9.7489288 L17.8666243,9.75917722 L17.8838263,9.76985263 C17.8830262,9.77924701 17.8822261,9.78864139 17.8818261,9.79846276 L17.890227,9.80828418 L17.899028,9.80913822 L17.898628,9.81853255 L17.907429,9.81938659 L17.9050287,9.84756972 L17.9134297,9.85781814 L17.9226307,9.85824514 L17.9218306,9.86806651 L17.93224,9.86872013 C17.9346076,9.86889443 17.9372038,9.86910358 17.9398327,9.86934759 C17.9382325,9.88813635 17.9370324,9.90692506 17.9358322,9.92571381 L17.9442332,9.93596223 L17.9418329,9.96457236 L17.959835,9.96585339 L17.9546344,10.0410084 L17.9626353,10.0512568 L17.9718363,10.0521108 L17.9702362,10.0708996 L17.9786371,10.081148 L17.9766369,10.1093311 L17.994639,10.1110392 L17.9884925,10.1953283 C17.9876341,10.207484 17.9867523,10.2201725 17.9858379,10.233593 L17.9942389,10.2438414 L18.0030399,10.2442684 C18.0010397,10.2728786 17.9990394,10.3010617 17.9966392,10.3292448 L18.0050401,10.3394932 L18.0010397,10.3962865 L18.011624,10.3971268 C18.01398,10.3972886 18.0165272,10.3974455 18.0190418,10.3975675 L18.0054402,10.586309 L18.0195479,10.5873846 C18.0222421,10.6068058 18.0206419,10.6255946 18.0190418,10.6443833 L18.0274427,10.6546317 L18.0166415,10.8053687 L18.0250425,10.8156171 L18.0338434,10.8164711 L18.02877,10.8879747 C18.0280468,10.8985542 18.0273284,10.9093778 18.0266426,10.9202362 L18.0404984,10.9213119 L18.0342435,11.0632869 L18.0430445,11.0637139 L18.0294429,11.2524554 L18.047445,11.2537364 L18.0464373,11.2685264 L18.0370438,11.2720982 L18.0274427,11.2806385 L18.0262426,11.2994272 L18.0438446,11.3011353 C18.0418443,11.3293184 18.0402442,11.3575015 18.0378439,11.3856847 L18.0290429,11.3852577 L18.0094407,11.4027653 L18.0090406,11.4121597 L17.9818375,11.4095976 L17.9726364,11.418565 L17.9618352,11.4364997 L17.9530342,11.4360727 L17.9434331,11.444613 C17.942633,11.4540074 17.9418329,11.4634018 17.9414329,11.4727961 L17.9322318,11.4719421 L17.7646778,11.4761707 L17.7629325,11.5046516 L17.7537314,11.5042246 L17.7441303,11.5127649 L17.7349293,11.5119109 L17.7253282,11.5208782 L17.7249282,11.5302726 L17.679723,11.5264294 L17.6813232,11.5076407 L17.6670894,11.5065651 L17.65332,11.5149 C17.6529199,11.5242944 17.6525199,11.5336887 17.6517198,11.5430831 L17.6425187,11.5426561 L17.6329176,11.5511964 C17.6309174,11.5793795 17.6289172,11.6079897 17.6265169,11.6361728 L17.6169158,11.6447131 L17.6125153,11.7109007 L17.6033142,11.7100467 L17.5937131,11.718587 L17.5761111,11.9636948 L17.5669101,11.9632678 L17.557309,11.9718081 L17.5525084,12.0379957 L17.5429073,12.046536 L17.531306,12.2070944 L17.522505,12.2062404 L17.5125039,12.2147807 L17.510857,12.2411039 C17.5092708,12.2646459 17.507189,12.2917048 17.504903,12.3185458 L17.496502,12.3181188 L17.4865009,12.3266592 L17.4817003,12.3924198 L17.4720992,12.4013871 L17.4805002,12.4116355 L17.4789,12.4304243 L17.4692989,12.4389646 L17.4660986,12.4863635 L17.4568975,12.4855095 L17.4472964,12.4940498 L17.4449871,12.5243917 C17.4448308,12.5267645 17.4446675,12.5293092 17.4444961,12.5320543 L17.4356951,12.5312003 L17.426094,12.5397406 C17.4240938,12.5679237 17.4220935,12.5965339 17.4196933,12.624717 L17.4100922,12.6332573 L17.4080919,12.6618674 L17.3992909,12.6610134 L17.3892898,12.6695537 C17.3883672,12.6852924 17.3876324,12.6941377 17.3864894,12.7075582 L17.3680874,12.7152445 L17.3600864,12.828404 L17.3500853,12.8369444 L17.347685,12.8749489 L17.338484,12.8740948 L17.3288829,12.8830622 L17.3280828,12.8924566 L17.3192818,12.8916026 L17.3096807,12.9001429 L17.308673,12.9149329 C17.308603,12.9162475 17.3085377,12.9175896 17.3084805,12.9189317 L17.2984794,12.927899 L17.2976793,12.9372934 L17.2888783,12.9364393 L17.2792772,12.9454067 L17.2704762,12.9445526 L17.2604751,12.953093 L17.259675,12.9624873 L17.2504739,12.9714547 L17.2488738,12.9902434 L17.2396727,12.9893894 L17.2300716,12.9979298 L17.2296715,13.0073241 L17.2208705,13.0068971 L17.2108694,13.0154375 L17.2100693,13.0248318 L17.2004682,13.0333722 C17.1916672,13.0329451 17.1828662,13.0320911 17.1736651,13.0312371 L17.163664,13.0402044 L17.1620638,13.0683876 L17.1440617,13.0666795 L17.1340606,13.0756468 L17.1252596,13.0747928 L17.1156585,13.0833331 L17.1148584,13.0931546 L17.0968564,13.0914465 L17.0876553,13.0999868 L17.0868552,13.1098082 L17.0688532,13.1081001 L17.058852,13.1166404 L17.0576519,13.1354292 L17.0488509,13.1350022 L17.0388497,13.1435425 C17.0372495,13.1721527 17.0352493,13.2003358 17.032849,13.2285189 L17.024048,13.2276649 L17.0140469,13.2366322 L17.0124467,13.2648153 L17.0204476,13.2750637 L17.0296487,13.2754907 L17.0276485,13.3041009 L17.0184474,13.3032469 L17.0088463,13.3117872 L17.0172473,13.3220356 L17.0260483,13.3228896 L17.0251665,13.3376796 C17.0250686,13.3389943 17.0249624,13.3403363 17.0248481,13.3416784 L17.0156471,13.3408243 L17.006046,13.3497917 L16.9872438,13.6136882 L16.9952447,13.6239366 L17.0044458,13.6247906 L17.0028456,13.6435793 L17.0112466,13.6538277 L17.0204476,13.6542548 L17.0196475,13.6640762 L17.0280485,13.6738975 L17.0272484,13.683719 L17.0452504,13.685 C17.0444504,13.6943944 17.0436503,13.7037887 17.0432502,13.7131831 L17.0512511,13.7234315 L17.0600521,13.7238585 L17.0596521,13.7336799 L17.0684531,13.734534 L17.0680531,13.7439283 L17.076454,13.7537497 L17.0852551,13.7546037 L17.0832548,13.7827869 L17.1012568,13.784495 C17.1004567,13.7938893 17.0996567,13.8032837 17.0992566,13.812678 L17.1076576,13.8229265 L17.1068575,13.8323208 L17.1209652,13.833262 C17.1240595,13.8434233 17.1232594,13.8523906 17.1228593,13.862212 L17.1308602,13.8720334 L17.1400613,13.8728874 L17.1384611,13.8916762 L17.1468621,13.9019246 L17.1448618,13.9301077 L17.1628639,13.9318157 L17.1620638,13.9412101 L17.1704648,13.9514585 L17.1792658,13.9523126 L17.1784657,13.9612799 L17.1868666,13.9715283 C17.1856665,13.9907441 17.1844664,14.0095328 17.1828662,14.0283216 L17.1969739,14.0293972 C17.1982475,14.0294719 17.1995538,14.0295416 17.2008682,14.0296026 L17.198868,14.0582128 L17.207269,14.0684612 L17.21607,14.0688882 L17.2112694,14.1350758 L17.2196704,14.1453242 L17.2188703,14.1547186 L17.2272713,14.164967 L17.2364723,14.165394 L17.2348721,14.1841828 L17.2432731,14.1944312 L17.2520741,14.1952852 L17.2480737,14.2520785 L17.2560746,14.2618998 C17.2548744,14.2806886 17.2536743,14.2999043 17.2520741,14.3186931 L17.2663078,14.3197687 C17.2675534,14.3198434 17.2688189,14.3199132 17.2700762,14.3199742 L17.2648755,14.3955561 L17.2732765,14.4058046 L17.2820775,14.4066586 L17.2810698,14.4214486 L17.2888783,14.4356957 L17.2848778,14.4920619 L17.2932788,14.5023104 L17.3020798,14.5031644 L17.3016798,14.5125588 L17.2924787,14.5117047 L17.2828776,14.5202451 L17.2908785,14.5304935 L17.3000796,14.5313475 L17.2990719,14.5461375 C17.2990019,14.5474522 17.2989366,14.5487942 17.2988795,14.5501363 L17.2896784,14.5497093 L17.2800773,14.5582496 L17.2780771,14.5864327 L17.286478,14.5966811 L17.295279,14.5975351 C17.2924787,14.6351126 17.2896784,14.6731172 17.2872781,14.7106946 L17.2956791,14.720516 L17.30408,14.7213701 L17.3014558,14.7622106 C17.3000796,14.78205 17.2984794,14.8036623 17.2968792,14.8251352 L17.3052802,14.8353836 C17.2996795,14.9109656 17.2940789,14.9861206 17.2888783,15.0617025 L17.2972793,15.0719509 L17.3060803,15.072378 L17.3030805,15.1150772 C17.300398,15.1521953 17.2973364,15.1926747 17.2944789,15.2329363 L17.3028799,15.2431847 L17.3116809,15.2440388 L17.2972793,15.4421746 L17.3056802,15.451996 L17.3047985,15.466786 C17.3047005,15.4681006 17.3045944,15.4694427 17.3044801,15.4707847 L17.312481,15.4810331 L17.321682,15.4818872 L17.3072804,15.680023 L17.3156814,15.6902714 L17.3248824,15.6906985 L17.3204819,15.7474917 L17.329683,15.7483457 L17.3265654,15.7890518 C17.3251518,15.8088166 17.3236823,15.830394 17.3220821,15.8521108 L17.3304831,15.8619323 L17.3392841,15.8627863 L17.338484,15.8721807 L17.3468849,15.8824291 L17.355686,15.8832831 L17.3464849,16.0152313 L17.3548859,16.0254798 L17.3504853,16.081846 L17.3684874,16.0835541 L17.3623363,16.1710838 C17.3619805,16.1764694 17.3616295,16.1818899 17.3612866,16.1873192 L17.3696876,16.1971405 L17.3780885,16.1979946 C17.3776884,16.2073889 17.3768884,16.2167833 17.3760883,16.2266047 L17.3852893,16.2270317 L17.3832891,16.2552148 L17.39169,16.2654632 L17.400491,16.2663173 C17.3976908,16.3038948 17.3948904,16.3418993 17.3924901,16.3794768 L17.400491,16.3897252 L17.4096921,16.3901522 L17.4073828,16.4206509 C17.4072265,16.4229802 17.4070632,16.4254726 17.4068918,16.4281567 L17.4152927,16.4384051 L17.4144926,16.4477995 L17.4224936,16.4580479 L17.4316946,16.4584749 L17.4276941,16.5152682 L17.4452962,16.5165492 L17.442672,16.5573897 C17.4412957,16.5772292 17.4396955,16.5988415 17.4380954,16.6203143 L17.4464963,16.6305627 L17.4456962,16.6399571 L17.4540972,16.6502055 L17.4628982,16.6510595 L17.4600979,16.688637 L17.4684988,16.6988854 L17.4776999,16.6993124 L17.4732994,16.7561057 L17.4825004,16.7569597 L17.4756997,16.8513305 L17.4937017,16.8526115 L17.4897013,16.9094048 L17.4977022,16.9192261 C17.5061031,16.9294746 17.505303,16.9392959 17.504503,16.9486903 L17.513704,16.9491173 C17.5129039,16.9585117 17.5121038,16.9679061 17.5117038,16.9773004 L17.5197047,16.9875489 L17.5289057,16.9884029 L17.5269055,17.017013 L17.5081033,17.0246993 L17.5069032,17.0434881 L17.4973021,17.0524554 L17.496502,17.0614228 C17.487701,17.0609958 17.4785,17.0601418 17.469699,17.0592877 L17.4600979,17.0682551 L17.4592978,17.0776494 L17.4500967,17.0767954 L17.4508968,17.067401 L17.4424958,17.0571526 L17.4156928,17.0550175 C17.4164929,17.0456232 17.417293,17.0362288 17.417693,17.0268344 L17.408892,17.0259804 C17.4092921,17.016586 17.4100922,17.0071916 17.4108923,16.9977973 L17.4024913,16.9875489 L17.3756882,16.9854138 L17.3760883,16.9760194 L17.3466447,16.973349 C17.3417741,16.9729431 17.3367123,16.9725423 17.3316832,16.9721763 L17.321682,16.9807166 L17.3200819,16.9995053 L17.3112809,16.9990783 L17.3016798,17.0076186 L17.2956791,17.092595 L17.2868781,17.091741 L17.2768769,17.1002813 L17.2760769,17.1101027 L17.2664757,17.1186431 L17.2287618,17.11569 C17.2179151,17.1147825 17.2063546,17.1137629 17.1948675,17.1126648 L17.1852665,17.1212052 L17.1844664,17.1310265 L17.1748653,17.1395669 L17.1740652,17.1489613 L17.1652642,17.1481072 L17.1556631,17.1570746 L17.146462,17.1562206 L17.1368609,17.1647609 L17.1340606,17.2027654 L17.1244595,17.2113057 L17.1236594,17.2207001 L17.1148584,17.219846 L17.1052573,17.2283864 L17.1044572,17.2382078 L17.0864551,17.2369267 L17.0768541,17.2454671 L17.050051,17.242905 L17.0404499,17.2518723 L17.0396498,17.2612667 L17.0300487,17.270234 L17.0292486,17.2792014 L17.0204476,17.2787744 L17.0108465,17.2873147 C17.0084462,17.3154979 17.006446,17.344108 17.0044458,17.3722911 L16.9956448,17.3714371 L16.9796414,17.3856179 C16.9784491,17.3867096 16.9772427,17.3878238 16.9760426,17.3889448 L16.8676302,17.3893718 L16.8684302,17.3799774 L16.8600293,17.369729 L16.8508282,17.368875 L16.8516283,17.3599076 L16.8428273,17.3590536 C16.8432274,17.3492322 16.8440275,17.3398378 16.8448275,17.3304435 L16.8364266,17.320622 L16.8356265,17.2066086 L16.8276256,17.1963601 L16.8184245,17.1955061 L16.8208248,17.167323 L16.8116238,17.1664689 L16.8124239,17.1570746 L16.8040229,17.1472532 L16.7742585,17.1445828 C16.7693414,17.1441769 16.7642469,17.143776 16.7592177,17.14341 L16.7492166,17.1519504 L16.7480165,17.1707391 L16.7392155,17.1698851 L16.7292144,17.1788524 L16.7192132,17.1967871 L16.7292144,18.1037711 L14.9974164,18.4500818 L14.9158071,17.9871955 L14.4933588,16.6245845 C13.4948447,17.2762123 12.9954543,17.6051577 12.9951876,17.6114206 L12.9855865,17.6199609 L12.9839863,17.6387497 L12.9751853,17.6378956 L12.9655842,17.646863 L12.9619838,17.6938349 L12.9703848,17.7045103 L12.9791858,17.7049373 C12.9779856,17.723726 12.9767855,17.7425148 12.9751853,17.7617305 L12.9843864,17.7625846 L12.9819861,17.7903407 L12.990387,17.8005891 L12.9995881,17.8014431 L12.9979879,17.8202319 L13.0063889,17.8304802 L13.0204966,17.8314215 L13.0223907,17.8599444 L13.0399927,17.8616525 L13.0303683,17.9984573 C13.0278036,18.0341325 13.0251339,18.0705248 13.0223907,18.1067602 L13.0307917,18.1170086 L13.0395927,18.1178627 L13.0343921,18.1930177 L13.025191,18.1925906 L13.0155899,18.2011309 L13.0239909,18.2113794 L13.0327919,18.2122334 C13.0323918,18.2216278 13.0315917,18.2305951 13.0307917,18.2404165 L13.0219907,18.2395625 L13.0123896,18.2481028 L13.0039886,18.3616893 L13.0123896,18.3719377 L13.0215906,18.3723647 L13.010093,18.527451 C13.0081669,18.5534674 13.0062555,18.5796103 13.0043886,18.605943 L12.5327348,18.6473636 C12.5331348,18.6383963 12.5119323,18.5478687 12.5127324,18.5393284 L12.5043315,18.52908 L12.4951305,18.5282259 L12.4987308,18.480827 L12.4903299,18.4710057 L12.4815289,18.4701516 L12.4822952,18.4573336 C12.4827617,18.4509794 12.4834148,18.4433105 12.4843292,18.4325741 L12.4751282,18.4321471 L12.4767283,18.4129314 L12.4683274,18.40311 L12.4591263,18.4022559 L12.4607265,18.3830401 L12.4523256,18.3727918 L12.4435245,18.3719377 L12.4465336,18.3283272 C12.4470515,18.3215497 12.4476393,18.3142294 12.4483251,18.3061771 L12.4391241,18.3053231 L12.4419244,18.2677456 L12.4335234,18.2574972 L12.4247224,18.2566432 L12.4271227,18.2194927 L12.4191218,18.2088172 L12.4099207,18.2079632 L12.412321,18.1797801 L12.4031199,18.1789261 L12.4059202,18.1417756 L12.3975193,18.1311002 L12.3887183,18.1306732 L12.3911185,18.0926687 L12.3831177,18.0828473 L12.3739166,18.0819932 L12.3762259,18.051629 C12.3763822,18.0492698 12.3765455,18.0467338 12.3767169,18.0439887 L12.3688396,18.0270126 C12.3694181,18.0179843 12.3702019,18.0071433 12.3711163,17.9961628 L12.3627153,17.9859144 L12.3539143,17.9854874 L12.3563146,17.9479099 L12.3483136,17.9372345 L12.3395127,17.9368075 L12.342713,17.8898356 L12.333512,17.8889816 L12.334312,17.8795872 L12.3259111,17.8693388 L12.3171101,17.8684848 L12.3194194,17.8384118 L12.3115095,17.8206589 L12.3023084,17.8198048 L12.307909,17.7446499 L12.3238957,17.7457703 C12.3325404,17.7464625 12.3428273,17.747334 12.3531142,17.748066 L12.3523141,17.7574604 L12.3703162,17.7587414 L12.3695161,17.7685628 L12.377917,17.7783842 L12.4075064,17.7810546 C12.4124353,17.7814605 12.4175787,17.7818613 12.4227222,17.7822274 L12.4323233,17.773687 L12.4331234,17.7638656 L12.4419244,17.7647196 L12.4463249,17.7083534 L12.4371238,17.7074994 L12.438724,17.6887106 L12.447525,17.6895647 L12.4487251,17.670776 L12.4399242,17.6699219 L12.4435245,17.62295 L12.4351236,17.6127016 L12.4259226,17.6118476 L12.4282318,17.5817747 C12.4283881,17.5794466 12.4285514,17.5769542 12.4287228,17.5742701 L12.4207219,17.5640217 L12.4115209,17.5631677 L12.4151738,17.5102487 C12.4170072,17.485041 12.4190646,17.4580605 12.421122,17.4312195 L12.438724,17.4325005 L12.4411243,17.4043174 L12.4503253,17.4051714 L12.4595264,17.3966311 L12.4603265,17.3868097 L12.4691275,17.3876637 L12.4715277,17.3594806 L12.4803288,17.3599076 L12.4899299,17.3513673 L12.4907299,17.3419729 L12.508732,17.343681 L12.5095321,17.3338596 L12.5183331,17.3347136 L12.5193408,17.3199236 C12.5194108,17.318609 12.5194761,17.3172669 12.5195332,17.3159249 L12.5287343,17.3167789 L12.5383354,17.3078116 L12.5399356,17.2894498 L12.5487366,17.2898768 L12.5583377,17.2813365 L12.561138,17.243332 L12.569939,17.244186 L12.5747396,17.1784254 L12.5839406,17.1788524 L12.5935417,17.1703121 L12.599252,17.0875629 C12.6007915,17.0660241 12.602457,17.0434881 12.6043429,17.0191481 L12.595942,17.0093267 L12.5867409,17.0084727 L12.5903157,16.9645572 C12.5908312,16.9577971 12.59137,16.9504594 12.5919415,16.9422851 L12.5827405,16.941858 L12.587541,16.8756704 L12.57914,16.865422 L12.570339,16.864568 C12.5707391,16.8551736 12.5715392,16.8457792 12.5723393,16.8363849 L12.5639383,16.8261364 L12.5551373,16.8257094 L12.5555373,16.8158881 L12.5467364,16.815034 L12.5475364,16.8060667 L12.5391355,16.7958183 C12.5303345,16.7949642 12.5211334,16.7941102 12.5123324,16.7936832 L12.5135325,16.7748945 L12.4239223,16.7672082 L12.4243224,16.7578138 L12.3527142,16.7518355 L12.3535143,16.7424411 L12.3451133,16.7326198 L12.3363123,16.7313387 L12.3407128,16.6655781 L12.3587149,16.6672861 L12.3507139,16.6570378 L12.3415129,16.6561837 L12.3438222,16.6258419 C12.3439785,16.623469 12.3441418,16.6209243 12.3443132,16.6181792 L12.3623153,16.6198873 L12.3647155,16.5823098 L12.3567146,16.5720614 L12.3531142,16.4956254 L12.3619152,16.4964794 L12.3719164,16.4879391 L12.3731165,16.4691503 L12.3823176,16.4695774 L12.3915186,16.461037 L12.4024913,16.3137896 C12.4052345,16.2760864 12.4079776,16.2373411 12.4107208,16.1967135 L12.4199218,16.1975676 L12.4275227,16.0938025 L12.4459248,16.0856891 L12.4512992,16.0124451 C12.4536318,15.979205 12.4559831,15.9445905 12.4587263,15.906769 L12.4679274,15.9076231 L12.4775284,15.8986557 C12.4791286,15.879867 12.4803288,15.8610782 12.4815289,15.8422895 L12.4907299,15.8431435 L12.4939303,15.7957446 L12.4851293,15.7953176 L12.4883297,15.7479187 L12.4975307,15.7487728 L12.5023313,15.6825851 L12.5199333,15.6842932 L12.5214763,15.6674304 C12.5221621,15.6583672 12.5228479,15.6476308 12.5235337,15.6368943 L12.5415357,15.6386024 L12.552737,15.6108463 L13.9220935,13.40872 L13.9136925,13.3984716 L13.9048916,13.3976176 L13.9068918,13.3694345 L13.9156928,13.3702885 L13.9252939,13.3617482 L13.9308945,13.2861662 L13.9224936,13.2759178 L13.9136925,13.2750637 L13.9144926,13.2656694 L13.9060917,13.255421 L13.8880896,13.2541399 L13.8888897,13.2447455 L13.8804888,13.2344971 L13.8264826,13.2297999 L13.8184817,13.2199786 L13.8092806,13.2191245 L13.8131435,13.1646257 C13.8134281,13.1609108 13.8137383,13.1570241 13.8140812,13.1529369 L13.8048801,13.1525099 L13.8056802,13.1431155 L13.7972793,13.1328671 L13.7704762,13.130732 L13.7712763,13.1209106 C13.7440732,13.1192026 13.7172701,13.1166404 13.6904671,13.1145054 L13.680866,13.1230457 L13.6716649,13.1226187 L13.663264,13.1123703 L13.6536629,13.1209106 L13.6248596,13.1184456 L13.6080576,13.1264619 L13.6076576,13.1362832 L13.5984566,13.1354292 L13.5888554,13.1439695 L13.5878477,13.1591629 L13.5780542,13.1717256 L13.5724535,13.2473077 L13.5632525,13.2464536 L13.5536514,13.254994 L13.5448504,13.2545669 L13.5352493,13.2631073 L13.5344492,13.2725016 L13.4896441,13.2686585 L13.480043,13.2776259 L13.4792429,13.2870202 L13.4504186,13.2845552 C13.4481945,13.2843884 13.4458105,13.2842141 13.4432388,13.2840311 L13.444839,13.2652424 L13.4176359,13.2626803 L13.418436,13.2532859 L13.410035,13.2434645 L13.401234,13.2421834 L13.4020341,13.2332161 L13.3928331,13.232362 L13.3988337,13.1473857 L13.3904328,13.1371373 L13.3816318,13.1367102 L13.3824318,13.1268889 L13.3740309,13.1170675 L13.3560288,13.1153594 L13.3568289,13.105965 L13.348428,13.0957166 L13.3128239,13.0931546 L13.3044229,13.0824791 L13.2324147,13.0769279 L13.2340149,13.0577121 L13.2210192,13.0568726 C13.2193801,13.0567409 13.2176892,13.0565938 13.2160128,13.0564311 L13.2060117,13.0649714 L13.2056116,13.0743658 C13.1964106,13.0739388 13.1876096,13.0730848 13.1788086,13.0722307 L13.1792086,13.0628363 L13.1712077,13.0525879 L13.0003882,13.0384964 L13.0011883,13.029529 L12.9927873,13.0192806 L12.9839863,13.0184266 L12.9755853,13.0081782 L12.9663843,13.0073241 L13.4257168,10.3420553 L12.9120581,10.2049829 L12.9028571,10.2041289 L12.9036572,10.1947345 L12.8952562,10.1844861 L12.8864552,10.183632 L12.8874629,10.168842 C12.8875329,10.1675274 12.8875982,10.1661853 12.8876553,10.1648433 L12.8792543,10.1545949 L12.8704533,10.1537409 L12.8715345,10.1372254 C12.872225,10.1282418 12.8731394,10.1175054 12.8740538,10.106769 L12.8648527,10.105915 L12.8656528,10.0965206 L12.8572518,10.0862722 L12.8748539,9.71775655 L12.8664529,9.70750819 L12.8572518,9.70708114 C12.8604522,9.66907663 12.8628525,9.63149917 12.8656528,9.59392166 L12.8568518,9.59306762 L12.8576181,9.58024965 C12.8580846,9.57389545 12.8587377,9.56622659 12.8596521,9.55549015 L12.8512511,9.54524174 L12.8420501,9.5443877 L12.8476507,9.46923272 L12.8664529,9.46111942 L12.867253,9.45172505 L12.858852,9.44147663 L12.849651,9.44062259 C12.8516512,9.41243946 12.8540515,9.38425637 12.8556516,9.35564624 L12.8476507,9.34582482 L12.8388497,9.34497078 L12.8397221,9.3285624 C12.8405969,9.31446961 12.8418215,9.29891399 12.8432502,9.27878318 L12.8524513,9.27963722 L12.8620524,9.27109688 L12.8632525,9.25188113 L12.8724536,9.25273517 L12.8820547,9.24419483 L12.8828548,9.23480045 L12.8916557,9.23565449 L12.8928559,9.21643869 L12.910858,9.21814677 L12.9132582,9.18996368 L12.9220592,9.19039068 L12.9316604,9.18185034 L12.9332605,9.16306158 L12.9420615,9.16348863 L12.9432617,9.14469987 L12.9524627,9.14555391 L12.9620638,9.13701357 L12.9628639,9.1271922 L12.980866,9.12890023 L12.9824661,9.10071714 L12.9916672,9.10114413 L12.9952676,9.05417229 L13.0040686,9.05502633 L13.0136697,9.04605895 L13.0144698,9.03666457 L13.0324718,9.03837265 L13.0416729,9.02940531 L13.0448733,8.9918278 L13.0587291,8.99290345 L13.0632754,8.9841415 C13.0724764,8.98456854 13.0812775,8.98542253 13.0904785,8.98627657 L13.0916786,8.96706082 L13.1184817,8.96962294 L13.1284828,8.96065555 L13.1288829,8.95126122 C13.1376839,8.95211521 13.1468849,8.95296925 13.1556859,8.9533963 L13.156486,8.94400192 L13.2016912,8.94784507 L13.2008911,8.95723945 L13.2724993,8.96321767 L13.2732994,8.95382329 L13.3629096,8.9610826 L13.6061374,8.97175801 L13.6145384,8.98200643 L13.6286461,8.98308205 L13.6317403,8.99268184 L13.6457221,8.99375746 C13.6469258,8.99383216 13.6481422,8.99390187 13.6493424,8.99396287 L13.6493424,9.00378429 L13.6573433,9.01403271 L13.6657442,9.02385408 L13.6737451,9.0341025 L13.7365523,9.03922669 L13.7361523,9.04862106 L13.8257625,9.05630736 L13.8253625,9.0652747 L13.8333634,9.07595016 L13.8425645,9.07637715 L13.8417644,9.08577153 L13.8501653,9.09601995 L13.8493652,9.10541433 L13.8673673,9.10712236 L13.864967,9.13530549 L13.8733679,9.14555391 L13.882569,9.1459809 L13.8820092,9.15368963 C13.8817853,9.15706593 13.8815403,9.16117051 13.8813689,9.16519666 L13.8893698,9.17544507 L13.8873695,9.20362821 L13.9053716,9.20490924 L13.9033714,9.23351937 L13.9117724,9.24334079 L13.9205734,9.24419483 L13.917773,9.2817723 L13.926174,9.29202071 L13.9216709,9.35353356 C13.9196835,9.38148511 13.9176587,9.41073141 13.9153727,9.44318471 L13.9057717,9.45172505 L13.8958837,9.58772557 C13.8953133,9.59575174 13.8947418,9.60380406 13.8941703,9.61185637 L13.9021712,9.62210479 L13.899771,9.6601093 L13.9077719,9.66993067 L13.9161728,9.68017909 L13.9341749,9.68188717 L13.9333748,9.69128155 L13.9417758,9.70152991 L13.9597778,9.702811 L13.9589777,9.71220537 L13.9673787,9.72245374 L13.9757797,9.73270216 C13.9845807,9.7331292 13.9933817,9.7339832 14.0025827,9.73483723 L14.0017826,9.74423161 L14.0101836,9.75448003 L14.0281857,9.75618811 L14.0293858,9.73697235 L14.0477879,9.73868038 L14.0465878,9.74807476 L14.0549887,9.75789618 L14.0645898,9.74935584 L14.0657899,9.73996147 L14.1193961,9.74465866 L14.1225964,9.69725977 L14.1405985,9.69896785 L14.1413986,9.68914643 L14.1501996,9.69000046 L14.1598007,9.68146012 L14.1606008,9.67206575 L14.1694018,9.67291978 L14.171002,9.65370403 L14.189004,9.65541211 L14.1898041,9.64601773 L14.1986051,9.64687177 L14.2082062,9.63790439 L14.2103896,9.60783147 L14.2202076,9.60075392 L14.2226079,9.56317645 L14.2406099,9.56488453 L14.2438103,9.51748565 L14.258044,9.51856127 C14.2634125,9.50040497 14.2650127,9.48118921 14.2662129,9.46240046 L14.2750139,9.4632545 L14.2766141,9.44446574 L14.285415,9.44489278 L14.2950161,9.43635244 L14.2958162,9.42695807 L14.3138183,9.4282391 L14.3234194,9.41969876 L14.3257287,9.38962583 C14.325885,9.38729778 14.3260483,9.3848054 14.3262197,9.3821213 L14.3442218,9.38340233 L14.3446218,9.37400795 L14.3538229,9.37486199 L14.3634239,9.36589461 C14.363824,9.35650028 14.3646241,9.3471059 14.3654242,9.33771152 L14.3746253,9.33856556 L14.3750253,9.32917118 L14.3842263,9.33002522 L14.3938274,9.32105784 L14.3946275,9.31166346 L14.4034285,9.3125175 L14.4130296,9.30355016 L14.4138297,9.29415579 L14.4226307,9.29500982 L14.4234308,9.28561545 L14.4322318,9.28646949 L14.442233,9.27792915 L14.4430331,9.26810777 L14.4518341,9.26896181 L14.4614352,9.26042147 L14.4624429,9.24536256 L14.4718363,9.24205971 L14.4742366,9.20448225 L14.4884703,9.20555787 L14.4930388,9.1963689 L14.5022398,9.19722294 L14.5118409,9.18825561 L14.521442,9.17971527 C14.5218421,9.17032089 14.5226422,9.16092651 14.5234423,9.15153213 C14.5322433,9.15238617 14.5414443,9.15324021 14.5502453,9.1536672 L14.5598464,9.14512687 L14.5606465,9.13573253 L14.5698475,9.13658653 L14.570634,9.12271464 C14.5707574,9.12096508 14.5708953,9.11916018 14.5710477,9.11737077 L14.5890498,9.11907885 L14.5894498,9.10968447 L14.6122279,9.11148341 C14.6160814,9.11180212 14.6204248,9.11218556 14.6254539,9.11267359 L14.635455,9.10413325 L14.6358551,9.09431187 L14.6450562,9.09516591 L14.6546572,9.08662557 L14.6558574,9.06740982 L14.6650584,9.06826386 L14.6662586,9.0494751 L14.6634582,8.96364471 L14.6550573,8.95382329 L14.6462563,8.95296925 L14.6484909,8.92045622 C14.6504853,8.89294289 14.6527713,8.86396674 14.6550573,8.83041539 L14.6638583,8.83126943 L14.6738595,8.82230209 L14.6746596,8.81290771 L14.6834605,8.81376175 C14.6838606,8.80436737 14.6846607,8.794973 14.6854608,8.78557862 L14.6942618,8.78600566 L14.7042629,8.77746532 L14.7046629,8.76807094 L14.713464,8.76849794 L14.7234651,8.7599576 L14.7244728,8.74516766 L14.738899,8.74224452 L14.7522684,8.73390959 L14.7530685,8.72451521 L14.7622695,8.72536925 L14.7714706,8.71640191 L14.7722707,8.70700753 L14.7810717,8.70786157 L14.783472,8.67967844 L14.792273,8.68053248 L14.8018741,8.67156509 L14.8026742,8.66217076 L14.8206762,8.66387879 L14.8214763,8.65405742 L14.8302773,8.65491146 L14.8314775,8.6361227 C14.8406785,8.63697674 14.8494795,8.63783078 14.8586806,8.63825778 L14.8682816,8.62971744 L14.8686817,8.62032311 L14.8778828,8.6207501 L14.879883,8.59256697 L14.889084,8.59342101 L14.8986851,8.58488067 L14.8994514,8.57171536 C14.8999179,8.56528147 14.9005711,8.55761259 14.9014855,8.54687616 L14.9102865,8.5477302 L14.9202876,8.53918986 L14.9118866,8.52894149 L14.9026856,8.52808745 L14.9036933,8.51329747 L14.8958848,8.49905028 L14.8866838,8.49819624 L14.889084,8.47001315 L14.879883,8.46958611 L14.8806831,8.45976473 L14.8722821,8.44994331 L14.8630811,8.44908932 L14.8646813,8.43030057 L14.8562803,8.42005215 L14.8486794,8.40040935 L14.7858722,8.39528517 L14.7762711,8.40382551 L14.775471,8.41321989 L14.7667915,8.4125014 L14.7478679,8.42047914 L14.5054402,8.40040935 L14.4970393,8.39058798 L14.4610351,8.38717182 L14.4618352,8.37820449 L14.4534343,8.36752908 L14.4358322,8.366248 L14.4362323,8.35685367 L14.4282314,8.34660525 L14.4190303,8.34617821 L14.4208871,8.32223041 C14.4213979,8.31488398 14.4218878,8.30683167 14.4222307,8.29877937 L14.4142298,8.28853095 L14.4050287,8.28810391 L14.407338,8.25773965 L14.4258311,8.25180748 L14.4288915,8.21175504 C14.4297173,8.20038244 14.4305745,8.18830397 14.4314317,8.1762255 L14.4402328,8.17707954 L14.4498338,8.1685392 L14.4534343,8.12114032 L14.4450333,8.1108919 L14.4362323,8.11003786 L14.4371867,8.09622831 C14.4372768,8.09460424 14.437361,8.09292667 14.4374324,8.0912491 L14.4294315,8.08142773 L14.4202304,8.08057369 L14.4222307,8.05196356 L14.4134297,8.05153657 L14.4150299,8.02335343 L14.4070289,8.01267802 L14.401237,7.96822343 C14.4017549,7.96143598 14.4023427,7.95411569 14.4030285,7.94606338 L14.3946275,7.93581496 L14.3854265,7.93538792 C14.3862266,7.92599359 14.3870267,7.91617217 14.3874267,7.90720483 L14.3786257,7.9063508 L14.3790257,7.89695642 L14.3710248,7.886708 L14.3622238,7.88585396 L14.3750253,7.70693388 L14.3666243,7.69668551 L14.3590235,7.67704271 L14.3211836,7.67377597 C14.3103893,7.67289455 14.2989023,7.67197952 14.2874153,7.67106449 L14.2790143,7.66081607 L14.2250082,7.65654588 L14.2266083,7.63733013 L14.1814032,7.63391402 L14.1870038,7.558332 L14.1808678,7.51855346 C14.1810521,7.51588305 14.1812317,7.51319023 14.1814032,7.51050612 L14.1906042,7.51136016 L14.1930045,7.47335565 L14.2110066,7.47506368 C14.2118067,7.46566935 14.2126067,7.45627497 14.2130068,7.44688059 L14.2222078,7.44730759 L14.2318089,7.43876725 L14.2378096,7.3537909 L14.250211,7.30767309 L14.259012,7.30810009 L14.2690132,7.29955975 L14.2718135,7.26198224 L14.2806145,7.26240928 L14.2902156,7.25386894 L14.2930159,7.21629143 L14.302217,7.21671847 L14.3034171,7.19792971 L14.3214191,7.19963779 L14.3218192,7.19024341 L14.3310203,7.19067041 L14.3406214,7.18213012 L14.3426216,7.15351994 L14.3518226,7.15437398 L14.3522227,7.1449796 L14.3614238,7.14583364 L14.3710248,7.1372933 L14.3738252,7.09928879 L14.3826262,7.10014283 L14.3922272,7.09160249 L14.3978279,7.01602052 L14.3894269,7.0057721 L14.3802259,7.00491806 L14.3834263,6.9673406 L14.3963636,6.96835933 C14.3978851,6.96845552 14.3994567,6.96854538 14.4010283,6.96862163 L14.4094292,6.85588919 L14.4010283,6.84564077 L14.3922272,6.84478673 L14.3926273,6.83539236 L14.3846264,6.82514394 L14.3754254,6.8242899 L14.3762254,6.81489552 L14.3490223,6.81276045 L14.3498224,6.80336607 L14.3414214,6.7931177 L14.2878153,6.78884751 L14.288823,6.77405753 L14.2714134,6.76835067 L14.2614123,6.77731806 L14.2606122,6.78628539 L14.2250082,6.78372332 L14.215407,6.79226366 L14.2146069,6.80165799 L14.1878039,6.79952292 L14.1882039,6.79012854 L14.179803,6.77988017 L14.171002,6.77902613 L14.171802,6.76963176 L14.1634011,6.75981034 L14.1546001,6.75895634 L14.1550002,6.74913492 L14.1461991,6.74870793 L14.1469992,6.73931355 L14.1385983,6.72906513 L14.1297973,6.72821109 L14.1217963,6.70856835 L14.1037943,6.70728726 L14.0953933,6.69703885 L14.0869924,6.69618486 L14.0873924,6.68679048 L14.0789914,6.67696906 L14.0701905,6.67611502 L14.0721907,6.64750489 L14.0629896,6.64707789 C14.0644837,6.63133927 14.0649327,6.62249393 14.0657899,6.60907338 L14.057789,6.59882497 L14.048588,6.59797093 L14.0409871,6.57875518 L14.0321861,6.57790114 L14.0331938,6.56311116 L14.0245852,6.55825839 L14.025467,6.54346841 L14.0173844,6.52922122 L14.0085834,6.52836718 L14.013384,6.46260658 L14.004983,6.45235816 L13.996182,6.45150413 L13.9993824,6.40453228 L13.9905814,6.40367824 L13.9913815,6.39428387 L13.9829805,6.38403545 L13.9737794,6.38360845 L13.9821804,6.27002197 L14.0001824,6.27173 L14.0011062,6.25521454 C14.0016847,6.24623101 14.0024684,6.23549459 14.0033828,6.22475816 L14.0125839,6.2256122 L14.0145841,6.19700207 L14.0233851,6.19742906 L14.0329862,6.18888872 L14.0413872,6.07572924 L14.0501881,6.07658328 L14.0597893,6.06804294 L14.0785914,6.05992964 L14.0881925,6.0513893 L14.0889926,6.04199492 L14.0976722,6.04271341 L14.1080443,6.0267605 C14.1086928,6.01777696 14.1095092,6.00704055 14.110195,5.99630411 L14.118996,5.99715815 L14.1197961,5.98733673 L14.1105951,5.98648269 C14.1114768,5.97863954 14.1119667,5.9733062 14.1121953,5.96769398 L14.1213963,5.96854802 L14.122446,5.95203254 C14.1230945,5.943049 14.1239109,5.93231256 14.1245967,5.92157613 L14.1333977,5.92200318 L14.1433988,5.91346284 L14.1437989,5.90406846 L14.171002,5.90620353 L14.171402,5.89680915 C14.1806031,5.89766319 14.1894041,5.89851723 14.1986051,5.89894423 L14.2082062,5.89040389 L14.2090063,5.88100956 L14.2178073,5.88143655 L14.2194075,5.8626478 L14.2370095,5.86435587 L14.2406099,5.81695699 L14.258612,5.81866506 L14.259012,5.80927069 L14.2682131,5.80969773 L14.2694132,5.79133597 L14.2962163,5.79304405 L14.3062174,5.78450371 L14.3070175,5.77510933 C14.3158185,5.77596337 14.3250196,5.77681741 14.3338206,5.7772444 L14.3342206,5.76785007 L14.3434217,5.76870406 L14.3530228,5.75973673 L14.3538229,5.75076939 L14.389827,5.75333146 L14.3994281,5.74479112 L14.4002282,5.73539674 L14.4090292,5.73625078 L14.4110294,5.70806769 L14.4198304,5.70849469 L14.4298316,5.69995435 L14.4302316,5.69055997 L14.4374534,5.69115756 C14.4406165,5.69139659 14.4444618,5.69165804 14.4482336,5.69184105 L14.4490337,5.68244668 L14.4670358,5.68415475 L14.4766369,5.67518737 L14.477437,5.66579299 C14.4954391,5.66750107 14.513041,5.6687821 14.5310431,5.67006319 L14.5410442,5.66152285 L14.5414443,5.65212847 L14.5502453,5.65298251 L14.5510454,5.64358813 L14.5602465,5.64401513 L14.5698475,5.63547479 L14.5706476,5.62608041 L14.5794487,5.62693445 L14.5890498,5.61796711 L14.5990509,5.60942677 L14.5994509,5.60003239 L14.6082519,5.60088643 L14.6182531,5.5919191 L14.6186531,5.58252472 L14.6906613,5.58850294 L14.691669,5.57371296 L14.7098636,5.57099527 L14.7094635,5.5803896 L14.7178645,5.59106506 L14.7442675,5.59277309 L14.7542686,5.5842328 L14.7550687,5.57483842 L14.7726707,5.57654645 L14.7734708,5.56672507 L14.7914729,5.56843315 L14.801074,5.55946577 L14.8018741,5.55049843 L14.8286771,5.55220651 L14.8302773,5.53341776 L14.8587027,5.53588275 L14.8666815,5.52701249 L14.8754825,5.52786653 L14.8770827,5.50907777 L14.9218878,5.51249393 L14.923488,5.49370517 L15.1031085,5.50865078 L15.1035085,5.4992564 C15.1127096,5.49968344 15.1215106,5.50053748 15.1303116,5.50139147 L15.1403127,5.49285113 L15.1411128,5.4834568 Z" fill="#693F23"/>
 </g>
</svg>
