<svg width="20" height="20" xmlns="http://www.w3.org/2000/svg">
 <g fill="none" fill-rule="evenodd">
  <rect stroke="#FFF" fill="#9BCBEB" x=".5" y=".5" width="19" height="19" rx="2"/>
  <path d="M0,7.3294347 L0.848484848,7.64132554 L1.72727273,7.64132554 L2.60606061,7.48538012 L1.3030303,7.48538012 L2.45454545,7.04873294 L3.24242424,6.58089669 L4.03030303,6.1754386 L4.75757576,6.26900585 L5.48484848,6.58089669 L6.57575758,5.11500975 L6.27272727,3.83625731 L6.27272727,2.86939571 L6.57575758,2.1208577 L6.93939394,1.74658869 L6.84848485,2.86939571 L7.27272727,1.30994152 L7.45454545,0.623781676 L7.36363636,0 L7.75757576,0.218323587 L8.12121212,0.810916179 L8.27272727,1.52826511 L9,2.33918129 L9.3030303,3.11890838 L9.42424242,4.14814815 L9.42424242,5.11500975 L10.5151515,5.98830409 L11.5454545,5.45808967 L12.3636364,5.36452242 L13.1515152,5.70760234 L13.969697,5.83235867 L12.7575758,6.26900585 L14.0909091,6.08187135 L16,5.36452242 L16,5.61403509 L14.8787879,6.92397661 L14.3333333,7.95321637 L13.4848485,8.6705653 L12.5454545,9.01364522 L11.5454545,9.01364522 L11.3636364,9.51267057 C12.030303,9.76218324 12.4949495,10.1676413 12.7575758,10.7290448 C13.1515152,11.5711501 12.8787879,12.8499025 13.0606061,13.3489279 C13.1818182,13.6816114 13.3232323,14.0870695 13.4848485,14.5653021 L13.7575758,14.9083821 L13.7575758,15.1578947 L13.4848485,15.1578947 L13.2727273,14.6900585 C12.989899,14.4613385 12.6868687,14.2534113 12.3636364,14.0662768 C11.8787879,13.785575 11.5454545,13.9727096 11.0909091,13.8791423 C10.6363636,13.785575 9.72727273,13.1617934 9.63636364,12.9746589 C9.57575758,12.8499025 9.78787879,13.4217024 10.2727273,14.6900585 L10.3939394,15.0019493 L9.96969697,15.0019493 L9.96969697,14.5653021 L9.18181818,12.662768 L9.78787879,14.7836257 L9.96969697,15.5945419 L10.1212121,15.7504873 L10.1212121,16 L9.78787879,15.8752437 L9.54545455,14.9083821 L9,12.9746589 L9.18181818,14.5653021 L8.93939394,14.5964912 L8.72727273,12.7251462 L8.36363636,14.2846004 L8.27272727,15.8440546 L8.09090909,15.9688109 L7.90909091,15.7192982 L8.06060606,14.4405458 L8.3030303,12.9122807 L7.81818182,14.502924 L7.87878788,14.8460039 L7.54545455,14.8148148 L7.51515152,14.5341131 L7.72727273,13.8791423 L7.84848485,13.1929825 C7.28282828,13.9831059 6.85858586,14.4509422 6.57575758,14.5964912 C6.15151515,14.8148148 5.36363636,14.8460039 5.21212121,15.0019493 C5.11111111,15.1059129 4.88888889,15.4282001 4.54545455,15.9688109 L4.54545455,15.4697856 C4.76767677,15.2202729 4.87878788,14.9603639 4.87878788,14.6900585 C4.87878788,14.2846004 4.63636364,12.8499025 4.63636364,12.2261209 C4.63636364,11.6023392 5.12121212,10.6354776 5.48484848,10.2300195 C5.72727273,9.9597141 5.91919192,9.75178687 6.06060606,9.60623782 L5.48484848,9.20077973 C5.04040404,9.61663418 4.55555556,9.8245614 4.03030303,9.8245614 C3.24242424,9.8245614 2,9.57504873 1.72727273,9.01364522 C1.45454545,8.45224172 0.818181818,8.54580897 0.484848485,8.01559454 C0.262626263,7.66211826 0.101010101,7.43339831 0,7.3294347 Z" fill="#003F87" transform="translate(2 2)"/>
  <path d="M8.45454545,7.06937054 L8.45454545,4.8269463 C8.71717172,4.34209782 9.04040404,4.15017862 9.42424242,4.25118872 C10,4.40270388 10.9393939,4.97846145 11.0909091,5.31179479 C11.2424242,5.64512812 11.2424242,6.37240085 10.3333333,6.85724933 C9.72727273,7.18048165 9.26262626,7.39260287 8.93939394,7.49361297 L8.93939394,7.70573418 C9.84848485,7.36229984 10.5151515,7.19058266 10.9393939,7.19058266 C11.3482584,7.19058266 11.5651466,6.98698503 12.030303,7.49361297 C12.0419665,7.50631628 12.1328756,7.67803345 12.3030303,8.00876448 C12.2828283,8.43300691 12.1919192,8.77644125 12.030303,9.03906751 C11.7878788,9.43300691 11.3939394,9.88755236 10.9393939,9.88755236 C10.6363636,9.88755236 10.2727273,9.60472408 9.84848485,9.03906751 C9.70707071,8.79664327 9.4040404,8.53401701 8.93939394,8.25118872 L8.78787879,8.49361297 C9.11111111,8.71583519 9.32323232,8.89765337 9.42424242,9.03906751 C9.57575758,9.25118872 9.84848485,10.0996736 9.84848485,10.4027039 C9.84848485,10.7057342 9.27272727,11.4330069 8.45454545,11.3117948 C7.63636364,11.1905827 7.12121212,11.0087645 7.12121212,10.7057342 C7.12121212,10.4027039 7.24242424,9.76634024 7.51515152,9.40270388 C7.6969697,9.16027963 7.85858586,8.85724933 8,8.49361297 L7.75757576,8.49361297 C7.21212121,9.36229984 6.7979798,9.8269463 6.51515152,9.88755236 C6.09090909,9.97846145 5.42424242,10.1299766 5.15151515,9.76634024 C4.87878788,9.40270388 4.63636364,8.73603721 4.90909091,8.25118872 C5.09090909,7.9279564 5.48484848,7.76634024 6.09090909,7.76634024 L7.12121212,7.88755236 L7.75757576,7.70573418 C7.31313131,7.60472408 6.83838384,7.47341095 6.33333333,7.31179479 C5.57575758,7.06937054 4.90909091,6.523916 4.90909091,6.19058266 C4.90909091,5.85724933 4.63636364,5.40270388 5.36363636,4.8269463 C5.84848485,4.44310792 6.37373737,4.44310792 6.93939394,4.8269463 C7.32323232,5.39260287 7.5959596,5.9279564 7.75757576,6.43300691 C7.91919192,6.93805741 8.15151515,7.15017862 8.45454545,7.06937054 Z" fill="#FFF" transform="translate(2 2)"/>
  <path d="M1.176.941 1.882 0M1.176.941 2.588 1.412M1.176.941 1.176 2.353M1.176.941 0 1.647M1.176.941 0 .235" transform="translate(9.294 8.823)" stroke="#FFCD00" stroke-linecap="round" stroke-linejoin="round" stroke-width=".706"/>
 </g>
</svg>
