<?xml version="1.0" encoding="UTF-8" standalone="no"?><!-- Created with Inkscape (http://www.inkscape.org/) -->
<svg
   width="25"
   height="25"
   viewBox="0 0 4.0784635 4.0206079"
   version="1.1"
   id="svg1"
   inkscape:version="1.3.2 (091e20e, 2023-11-25, custom)"
   sodipodi:docname="CC 215 simplified.svg"
   xmlns:inkscape="http://www.inkscape.org/namespaces/inkscape"
   xmlns:sodipodi="http://sodipodi.sourceforge.net/DTD/sodipodi-0.dtd"
   xmlns="http://www.w3.org/2000/svg"
   xmlns:svg="http://www.w3.org/2000/svg">
  <sodipodi:namedview
     id="namedview1"
     pagecolor="#ffffff"
     bordercolor="#666666"
     borderopacity="1.0"
     inkscape:showpageshadow="2"
     inkscape:pageopacity="0.0"
     inkscape:pagecheckerboard="0"
     inkscape:deskcolor="#d1d1d1"
     inkscape:document-units="mm"
     inkscape:zoom="17.903944"
     inkscape:cx="10.304992"
     inkscape:cy="12.315722"
     inkscape:window-width="1600"
     inkscape:window-height="829"
     inkscape:window-x="-8"
     inkscape:window-y="-8"
     inkscape:window-maximized="1"
     inkscape:current-layer="svg1" />
  <defs
     id="defs1">
    <clipPath
       clipPathUnits="userSpaceOnUse"
       id="clipPath55412">
      <path
         d="M 0,2520 H 1593 V 0 H 0 Z"
         transform="translate(-1269.3843,-227.52983)"
         id="path55412" />
    </clipPath>
    <clipPath
       clipPathUnits="userSpaceOnUse"
       id="clipPath55414">
      <path
         d="M 0,2520 H 1593 V 0 H 0 Z"
         transform="translate(-1272.6753,-238.76941)"
         id="path55414" />
    </clipPath>
    <clipPath
       clipPathUnits="userSpaceOnUse"
       id="clipPath55416">
      <path
         d="M 0,2520 H 1593 V 0 H 0 Z"
         transform="translate(-1273.7563,-237.25418)"
         id="path55416" />
    </clipPath>
  </defs>
  <g
     inkscape:label="Shield"
     id="layer1"
     transform="translate(-5.3099975,-4.2175099)">
    <path
       id="path55411"
       d="m 0,0 -2.346,8.135 c -0.032,0.112 -0.049,0.229 -0.049,0.351 0,0.531 0.328,0.985 0.793,1.173 l 3.712,1.493 c 0.366,0.148 0.766,0.229 1.186,0.229 0.419,0 0.819,-0.081 1.186,-0.229 L 8.193,9.659 C 8.658,9.471 8.986,9.017 8.986,8.486 8.986,8.364 8.969,8.247 8.937,8.135 L 6.591,0 Z"
       style="display:inline;fill:#003882;fill-opacity:1;fill-rule:evenodd;stroke:none"
       transform="matrix(0.35277776,0,0,-0.35277776,6.188035,8.2376152)"
       clip-path="url(#clipPath55412)"
       inkscape:label="Blue background"
       inkscape:highlight-color="#003882" />
    <path
       id="path55413"
       d="M 0,0 C 0.396,0 0.773,-0.076 1.119,-0.213 L 4.992,-1.75 c 0.369,-0.147 0.629,-0.502 0.629,-0.917 0,-0.096 -0.013,-0.188 -0.038,-0.274 L 3.2,-11.085 h -6.4 l -2.382,8.144 c -0.026,0.086 -0.039,0.178 -0.039,0.274 0,0.415 0.26,0.77 0.629,0.917 l 3.874,1.537 C -0.773,-0.076 -0.396,0 0,0 m 0,0.156 c -0.417,0 -0.814,-0.08 -1.178,-0.224 l -3.873,-1.537 c -0.428,-0.17 -0.729,-0.582 -0.729,-1.062 0,-0.11 0.016,-0.217 0.045,-0.317 l 2.415,-8.257 h 6.64 l 2.415,8.257 c 0.03,0.1 0.046,0.207 0.046,0.317 0,0.48 -0.302,0.892 -0.73,1.062 L 1.178,-0.068 C 0.814,0.076 0.417,0.156 0,0.156"
       style="fill:#f7d117;fill-opacity:1;fill-rule:evenodd;stroke:none"
       transform="matrix(0.35277776,0,0,-0.35277776,7.349053,4.2725432)"
       clip-path="url(#clipPath55414)"
       inkscape:label="Gold outline"
       inkscape:highlight-color="#f7d117" />
    <path
       id="path55415"
       d="m 0,0 2.326,-2.326 c 0.603,-0.603 0.604,-1.582 0,-2.186 L 0,-6.838 c -0.604,-0.604 -1.583,-0.604 -2.187,0 l -2.325,2.326 c -0.604,0.603 -0.604,1.582 -0.001,2.186 L -2.186,0 C -1.583,0.604 -0.604,0.604 0,0"
       style="display:inline;fill:#f7d117;fill-opacity:1;fill-rule:nonzero;stroke:none"
       transform="matrix(0.35277776,0,0,-0.35277776,7.730397,4.8070802)"
       clip-path="url(#clipPath55416)"
       inkscape:label="Gold diamond"
       inkscape:highlight-color="#f7d117" />
  </g>
</svg>
