<svg width="26" height="20" xml:space="preserve" xmlns:xlink="http://www.w3.org/1999/xlink" xmlns="http://www.w3.org/2000/svg">
 <path d="m 16.678881,19.054862 c -1.027631,-0.436026 -1.987526,0.77248 -3.84773,0.261559 C 9.3156591,18.350862 8.6005732,19.727263 6.3404049,19.189369 4.6202258,18.779987 3.0552565,19.453764 1.5767766,19.459861 0.18476047,19.465561 0.81371927,16.596406 0.97793577,15.714988 1.6771046,11.962262 2.1046501,9.3837909 0.57380497,6.1345566 V 0.57380497 H 14.733717 C 15.587702,2.6428107 15.114165,4.248659 14.47923,6.0225475 l 10.755499,0.014679 c -1.055177,2.7298341 -0.682441,5.3920335 -0.221889,7.9459405 0.135711,0.752555 0.340462,1.679979 -0.399608,2.412764 -0.38204,0.378277 0.215835,1.398875 0.747771,2.060137 0.560648,0.696956 -0.667326,1.259854 -2.066778,0.562398 -1.802688,-0.898418 -4.776731,0.816523 -6.615344,0.0364 z" style="fill:#fff;stroke:#000;stroke-width:1;stroke-miterlimit:4;stroke-dasharray:none;stroke-opacity:1" id="a"/>
 <use xlink:href="#a" transform="translate(-.074 -.074)" width="100%" height="100%"/>
</svg>
