<svg width="25" height="20" xmlns="http://www.w3.org/2000/svg">
 <path d="M 7.89,1.46 C 6.3826841,1.46 5.4751912,1.2358858 4.2809499,0.49998624 L 0.5001393,4.2672462 c 0.6957551,0.9854115 1.1042952,2.1867101 1.1042952,3.483171 0,0.9355795 -0.2127538,1.8216892 -0.5926746,2.6127908 -0.32794619,0.683626 -0.51156948,1.449218 -0.51156948,2.2575 0,2.894812 2.35505968,5.241419 5.26032488,5.241419 h 3.2914208 c 1.3921229,0 2.6345059,0.638606 3.4482139,1.637885 0.813708,-0.999279 2.056091,-1.637885 3.448214,-1.637885 h 3.291421 c 2.905162,0 5.260324,-2.346607 5.260324,-5.241419 0,-0.808282 -0.183613,-1.573926 -0.511569,-2.2575 -0.379941,-0.7911016 -0.592674,-1.6772113 -0.592674,-2.6127908 0,-1.2964609 0.408488,-2.4978111 1.104295,-3.483171 L 20.71935,0.49998624 C 19.525006,1.2358754 18.617317,1.46 17.11,1.46 15.602582,1.46 15,0.5 12.499949,0.49966815 10.5,0.49940268 9.3973159,1.46 7.89,1.46 Z" fill="#fff" fill-rule="evenodd" stroke="#000" stroke-width="1.159" style="fill:#006747;stroke:#fff;stroke-width:1;stroke-linejoin:round;stroke-miterlimit:4;stroke-dasharray:none;stroke-opacity:1"/>
</svg>
