<svg width="22" height="21" xmlns="http://www.w3.org/2000/svg">
 <g fill="none" fill-rule="evenodd">
  <path d="M10.8553487,0.522191046 C12.7064083,1.1499044 16.2583722,2.91672937 18.9219393,7.57547464 C20.2554561,9.90710666 21.4793665,13.1747632 21.4636972,15.9160756 L21.4946142,16.5539789 C21.5112777,17.1582891 21.4840083,17.5025726 21.4840083,17.5025726 L20.0431555,18.491591 C18.348598,19.2568847 14.9806692,20.5 11.0005286,20.5 C6.52368045,20.5 2.82089975,18.9284912 1.4020398,18.2328833 L0.513021913,17.7692982 L0.521689379,16.1518789 C0.533269482,15.9341385 0.55043236,15.6929746 0.575318901,15.430959 L0.703827367,14.5621389 C1.10885219,12.0042067 1.70795868,9.9665959 3.07501927,7.5746137 C6.32347976,1.8924416 10.8553487,0.522191046 10.8553487,0.522191046 Z" stroke="#FFF" fill="#693F23"/>
  <path d="M11.2395039,3.43004767 C12.4552281,3.43004767 12.7706181,4.50344079 12.9415178,4.85463839 C12.9662932,4.86452084 13.2812657,4.87175104 13.6149167,4.87289553 L13.8991449,4.87230606 C14.1292589,4.87043938 14.3293229,4.86496725 14.4003869,4.85463839 C14.4301292,4.87440328 14.4598716,4.89422751 14.489614,4.91399239 C14.255482,5.19889159 13.9580582,5.37695358 13.5973427,5.44817838 C13.5875277,5.6667198 13.1795163,5.82495756 13.2091992,6.04171837 C13.3302507,6.22340096 13.6531664,6.54012154 13.6709523,6.7540927 L13.1846627,6.7540927 C13.1537306,7.05288073 13.098974,7.70567995 13.0307449,8.00043191 C12.8489001,8.05687756 12.16387,7.95810818 11.9689385,7.94125164 C11.9654289,8.09254499 12.2609091,8.76816442 12.3049873,8.94990636 C12.4526285,9.03881865 12.6013404,9.12784965 12.751123,9.21699936 C12.8637276,9.35369162 12.9826971,9.48231173 13.1080315,9.60280035 C13.1439689,9.71436987 13.1672662,9.7866977 13.1779235,9.81978383 L13.1377739,9.84021634 C13.0566962,10.0931237 13.0368877,10.350364 13.0782891,10.6118183 C13.5194876,10.3372467 13.9656232,10.0701537 14.4166961,9.81053934 L14.365,9.84004767 L14.4003869,9.84070595 C14.4003869,9.84070595 14.4772194,9.79697903 14.6308846,9.70952518 L14.7141199,9.66215435 C14.8595601,9.55662294 15.0181464,9.47750406 15.1899979,9.42473835 C15.3465618,9.48053111 15.5051481,9.49044323 15.6658759,9.45441535 C15.899889,9.28323842 16.1477619,9.13485342 16.4094354,9.00926036 C16.623402,9.10119971 16.8315987,9.20014282 17.0340253,9.30603035 C17.1692936,9.27813398 17.2882631,9.21877998 17.3909338,9.12796836 L18.4021746,9.57312335 C18.4471847,9.60276078 19.0631265,9.82838633 20.25,10.25 L20.1806944,10.2242757 C20.1589529,10.294254 20.1188478,10.3642323 20.0603792,10.4342105 C18.6179984,9.94341237 17.7488051,9.62656934 17.4504186,9.48409235 C17.3182434,9.55994676 17.179406,9.61930076 17.0340253,9.66215435 C16.7938853,9.5591158 16.5559463,9.46017269 16.3202082,9.36538435 C16.1366383,9.52700529 15.9383161,9.67539029 15.7253607,9.81053934 C15.5078249,9.80412911 15.2897538,9.80412911 15.0710284,9.81053934 C14.3968877,10.2062525 13.7226875,10.6019062 13.0485468,10.9976193 C13.0112498,11.1007766 12.9914414,11.2095724 12.989062,11.3240663 L13.1675163,12.3924383 C13.8354111,12.3458454 14.4996773,12.2667265 15.1602555,12.1550223 C15.2680419,12.1546068 15.357269,12.1941959 15.4279369,12.2737303 C15.626497,12.1944333 15.8248192,12.1152551 16.0227845,12.0363143 C16.3235394,12.1916437 16.6407716,12.2411449 16.9745405,12.1846993 C17.799713,11.962656 18.6324996,11.7746819 19.4729002,11.6208363 L19.4461212,11.625356 C19.4604366,11.6652445 19.478342,11.7066841 19.5,11.75 C19.5491584,11.8483169 19.5965119,11.9512318 19.6420604,12.0587447 L19.5918697,12.0363143 C18.7176223,12.2346754 17.8452189,12.4325022 16.9745405,12.6298543 C16.9840581,12.7306967 16.9741836,12.8296398 16.9447981,12.9266243 C16.759979,13.141367 16.5517824,13.319429 16.3202082,13.4608103 C15.9984552,13.5355963 15.6811635,13.5158314 15.3684522,13.4014563 C14.3953411,13.6754937 13.4237766,13.9821758 12.4536992,14.3214432 C12.1806642,14.3672052 11.9229168,14.3474403 11.6803974,14.2620892 C11.7757515,14.4714308 11.7261412,14.6395807 11.5316855,14.7665982 L11.5019432,14.9743372 C11.883062,15.6941825 12.1408689,16.4558724 12.275245,17.2594662 C12.2411602,17.4128963 12.1420586,17.4722503 11.9778212,17.4375282 C12.1139818,17.8875502 12.2329513,18.3425579 12.3347297,18.8026701 C12.3938576,19.3657022 12.413666,19.9394179 12.3942145,20.5239361 L12.3951341,20.4608059 C12.0886528,20.4869353 11.7902748,20.5 11.5,20.5 C11.06077,20.5 10.448332,20.4776291 9.7521881,20.4249667 L9.77688529,20.4052281 C9.74434713,20.0101679 9.71460476,19.6144548 9.68765816,19.2181481 C9.46387652,18.7509728 9.36278151,17.6044612 9.05120037,17.2010914 C8.66704783,18.0004117 8.06425974,19.4832824 7.5759494,20.2271661 L7.60230021,20.1836458 C6.58674281,20.0290467 5.57451625,19.8093151 4.76749061,19.5065862 C4.94031656,19.3931087 5.09277817,19.2572565 5.22630162,19.0994401 C5.38250858,18.6144586 5.49160362,18.1198617 5.55346776,17.6155902 C5.40909827,17.614225 5.27032033,17.584548 5.13707449,17.5265592 C5.10382251,17.4835275 5.08401408,17.4340856 5.07758973,17.3781742 C5.22594471,17.0133845 5.2747674,16.8560786 5.40402777,16.488796 C5.38421934,16.4788839 5.36435143,16.4690311 5.34454301,16.459119 C4.70335685,16.970157 3.66926298,17.4251489 3.08113722,18.0023072 C3.02474567,18.0309752 2.96526092,18.0408279 2.90268296,18.0319842 C2.95217427,17.6768099 2.96210823,17.3206859 2.93242534,16.9636122 C2.86776541,16.672006 2.71905352,16.43459 2.48628968,16.2513642 C3.37528933,15.9061614 4.78682825,15.4700025 5.70217965,15.1820762 C5.87825452,15.0174876 5.98729007,14.8196013 6.02934579,14.5885362 C5.94142733,14.604087 5.86213415,14.5843221 5.79140678,14.5291822 C5.37941537,13.647716 4.95308814,12.7771709 4.51248457,11.9176063 C4.45056094,11.6243975 4.49023727,11.3474518 4.63145408,11.0866503 C5.17942763,10.5261705 5.68504804,9.93263052 6.1483153,9.30603035 C5.92643717,9.15996016 5.68849815,9.06101705 5.43449825,9.00926036 C5.2486084,9.11164601 5.05034571,9.20067701 4.83965072,9.27635336 C4.3114261,9.29220087 2.71314829,9.73884241 2.25,10 L2.3159077,9.96626438 C2.30782297,9.86463856 2.29644981,9.7669586 2.28178821,9.6732245 C2.92195334,9.48493253 4.47868979,9.01003938 4.83965072,9.03893736 C5.0687265,8.93210016 5.30666552,8.84306917 5.55346776,8.77184437 C5.75851171,8.84443431 5.95677439,8.93346531 6.1483153,9.03893736 C6.22760848,9.07852648 6.30696114,9.07852648 6.38625432,9.03893736 C6.78956095,8.57680713 7.24563056,8.18109402 7.75440366,7.85185739 C8.49195512,7.833517 8.58642442,7.1312759 9.27650706,6.99131917 L9.45496132,6.81325717 C9.30815294,6.65205171 9.30815294,6.48390184 9.45496132,6.30874819 C9.19941481,6.25960308 8.27393829,6.23006822 8.01393043,6.21985933 C7.94088315,6.17362257 7.8813984,6.11426857 7.83547617,6.04179734 C8.13206715,5.77690044 9.13689634,5.5690193 9.51444607,5.41843821 C9.52432054,4.270888 10.0237797,3.43004767 11.2395039,3.43004767 Z M7.59233133,10.5530013 C7.41456773,10.7757802 6.86190789,10.9868909 6.64688736,11.1861527 C6.50556484,11.3414558 6.22310111,11.7391653 6.1483153,11.8193042 C6.31447577,12.0303245 6.4535915,12.7162989 6.61975197,12.9273192 C6.94754043,12.3065594 7.52733566,11.1985444 7.59233133,10.5530013 Z M19.1004528,9.02273866 L19.75,9.5 C20.0921578,9.72810523 20.2391957,9.95621046 20.1911136,10.1843157 C19.8160772,9.78102778 19.4531516,9.39384634 19.1004528,9.02273866 Z" fill="#FFF"/>
  <path d="M13,15.25 L13,15.0625 L14,14.25 L14,17.5 L13.5,17.5 L13.5,15.25 L13,15.25 Z M19.375,14.5 C20.125,14.5 20.5,15.25 20.5,16 C20.5,16.75 20.125,17.5 19.375,17.5 C18.625,17.5 18.25,16.75 18.25,16 C18.25,15.25 18.625,14.5 19.375,14.5 Z M19.375,14.6875 C19,14.6875 18.8125,15.625 18.8125,16 C18.8125,16.375 19,17.3125 19.375,17.3125 C19.75,17.3125 19.9375,16.375 19.9375,16 C19.9375,15.625 19.75,14.6875 19.375,14.6875 Z M17.25,14.5 C18.3611111,14.5 18.5462963,15 17.8055556,16 C18.5462963,17 18.3611111,17.5 17.25,17.5 C16.1388889,17.5 15.9537037,17 16.6944444,16 C15.9537037,15 16.1388889,14.5 17.25,14.5 Z M17.25,16.1875 C16.9722222,16.441896 16.8333333,16.6561817 16.8333333,16.8303571 C16.8333333,17.0916204 16.9722222,17.3125 17.25,17.3125 C17.5277778,17.3125 17.6666667,17.1315939 17.6666667,16.8303571 C17.6666667,16.6295326 17.5277778,16.4152469 17.25,16.1875 Z M17.25,14.6875 C16.9722222,14.6875 16.8333333,14.9083796 16.8333333,15.1696429 C16.8333333,15.3438183 16.9722222,15.558104 17.25,15.8125 C17.5277778,15.5847531 17.6666667,15.3704674 17.6666667,15.1696429 C17.6666667,14.8684061 17.5277778,14.6875 17.25,14.6875 Z M14.25,15.25 L14.25,14.5 L16.25,14.5 L15.25,17.5 L14.75,17.5 L15.5,14.875 L14.75,14.875 L14.25,15.25 Z" fill="#FFF"/>
 </g>
</svg>
