<svg xmlns="http://www.w3.org/2000/svg" width="20" height="20">
 <path fill="#693f23" stroke="#fff" stroke-width="2" d="M0 0H20V20H0z"/>
 <path fill="#fff" d="M 3.501 17.307 L 6.962 12 h 1 L 4.608 17.307 Z M 12.343 12 h 1 L 16.564 17.438 h -1 Z M 9.75 12 h 0.5 v 1.5 h -0.5 Z M 9.75 14 h 0.5 v 1.5 h -0.5 Z M 9.75 16 h 0.5 v 1.5 h -0.5 Z M 12.745 11.601 L 13.102 8.887 L 10.566 7.422 L 13.495 7.172 L 13.853 4.377 L 15.352 7.136 L 18.364 6.835 L 15.852 8.779 L 17.233 11.445 L 14.778 9.79 Z M 8.187 10.961 L 8.421 9.524 L 6.914 9.03 L 8.473 8.693 L 8.603 7.16 L 9.278 8.537 L 10.759 8.277 L 9.642 9.238 L 10.473 10.459 L 9.07 9.602 Z M 3.6 9.172 L 4.16 7.004 L 2.004 5.939 L 4.316 5.679 L 4.672 3.636 L 5.537 5.471 L 7.601 5.243 L 6.135 6.536 L 7.315 8.351 L 5.225 7.42 Z M 9.824 7.056 L 10.214 5.523 L 8.785 4.977 L 10.369 4.588 L 10.421 3.029 L 11.253 4.484 L 12.915 4.12 L 11.798 5.185 L 12.578 6.848 L 10.967 5.835 Z M 7.564 2.587 L 7.849 1.444 L 8.291 2.613 L 9.642 2.535 L 8.629 3.185 L 9.148 4.354 L 7.979 3.601 L 7.018 4.484 L 7.382 3.263 L 6.394 2.613 Z"/>
</svg>
