<svg width="20" height="20" xmlns="http://www.w3.org/2000/svg">
 <g fill="none" fill-rule="evenodd">
  <rect stroke="#FFF" fill="#693F23" x=".5" y=".5" width="19" height="19" rx="2"/>
  <path d="M15,14 L14.25,14 L12.25,13 L10.5,12 L9.0003873,12 L9.7087529,12.5992876 L9.7087529,13.8210151 L9.48567002,14.1950134 L8.81642138,13.5966162 L8.82881487,14.1950134 L9.11386522,15.030276 L9.03950426,15.2297418 L8.55615802,15.1175423 L8.22153369,15.317008 L8.19674671,15.9154052 L7.71340046,15.9278718 L7.0813323,16.9875334 L6.75910147,17 L6.72192099,16.5138023 L6.58559256,16.4390027 L6.59798606,16.0774711 L5.82958947,16.1772039 L5.89155693,15.0926091 L6.04027885,14.7684773 L6.04027885,14.332146 C4.97443842,14.90561 4.42912471,15.1964975 4.40433772,15.2048085 C4.37955074,15.2131196 4.22669765,15.2255862 3.94577847,15.2422084 L3.98295895,14.7061443 L3.58636716,14.7809439 L3.43764524,14.967943 L3.14020139,14.9804096 L3.02865995,14.7934105 C2.68990447,15.0094984 2.50813323,15.1175423 2.48334624,15.1175423 C2.45855926,15.1175423 2.29744384,15.1216978 2,15.1300089 L2.09914795,14.8058771 L2.48334624,14.3820125 L2.50813323,13.8210151 L3.01626646,13.3597507 L3.01626646,13.0106857 L2.73121611,12.8112199 L2.7436096,12.4372217 L3.72269558,12.0881567 L4.72656855,11.4648264 L4.71417506,11.1780944 L4.2680093,10.779163 L3.99535244,10.6295637 L4.04492641,10.2306322 L3.67312161,10.0062333 L3.45003873,9.89403384 L3.58636716,9.56990205 L3.57397366,9.19590383 L3.35089078,8.99643811 L3.43764524,8.6349065 L3.6979086,8.54764025 L4.28040279,8.69723954 L4.32997676,8.42297418 L4.8257165,8.49777382 L5.32145624,8.78450579 L5.37103021,8.58504007 L5.80480248,8.59750668 L6.8954299,9.40783615 L7.19287374,9.39536955 L7.19287374,9.07123776 L7.51510457,9.07123776 L8.5,10 L8.5,11 L9,11 L10.2393493,11 L10.883811,11.1620659 L12.25,12 L11.9024012,10.9162956 L11.9395817,9.98130009 L11.5677769,9.6571683 L11.0968242,9.54496883 L10.3656081,9.55743544 L10.3780015,9.08370436 L9.46088304,8.17364203 L9.37412858,7.7747106 L9.85747483,7.32591273 L9.42370256,6.70258237 L9.43609605,6.35351736 L9.75832688,6.2413179 L9.69635941,5.81745325 L9.41130906,5.38112199 L9.41130906,4.99465717 L9.95662277,4.99465717 L10.1053447,5.25645592 L10.7498064,5.26892253 L11.0100697,5.08192342 L11.3570875,5.11932324 L11.9147947,5.97951915 L12.1378776,5.94211932 L12.32378,5.46838825 L12.3361735,4.45859305 L13.0673896,4.43365984 L13.0797831,3.74799644 L13.8977537,3.66073019 L14.4678544,3 L14.5917893,3.13713268 L14.5422153,3.73552983 L14.7652982,3.91006233 L14.9512006,3.93499555 L14.9264136,4.34639359 L14.7033308,4.43365984 L14.7157242,4.89492431 L15.6824167,4.91985752 L15.7319907,5.40605521 L15.5708753,5.70525378 L14.8644462,6.7524488 L15.0999225,6.77738201 L15.4469404,6.51558326 L16.2525174,6.45325022 L16.5747483,7.20124666 L17.0580945,7.18878005 L17.2439969,7.56277827 L18,7.79964381 L17.8388846,8.14870882 L17.4051123,8.38557435 L17.2935709,8.85930543 L16.5003873,8.85930543 L16.5127808,9.61976848 L14.7776917,9.66963491 L15.1742835,10.0685663 L15.112316,10.4051647 L14.8024787,10.554764 L13.9473277,10.6170971 C13.5604183,10.6092312 13.3628324,10.5969872 13.3545701,10.5803651 C13.3463078,10.563743 13.2281177,10.5 13,10.3891362 L13,11 L13.2182417,11.5278272 L13.75,12.5 L14.75,13 L15,14 Z" fill="#FFF"/>
 </g>
</svg>
