<svg viewBox="0 0 600 600" width="20" height="20" xmlns="http://www.w3.org/2000/svg">
 <path d="m600 300a300 300 0 1 1-600 0 300 300 0 1 1 600 0z" style="fill:#006747"/>
 <path d="m300 62.5c-131.17 0-237.5 106.33-237.5 237.5s106.33 237.5 237.5 237.5 237.5-106.33 237.5-237.5-106.33-237.5-237.5-237.5zm0 18.269c121.08 0 219.23 98.153 219.23 219.23s-98.153 219.23-219.23 219.23-219.23-98.153-219.23-219.23 98.153-219.23 219.23-219.23z" fill="#fff"/>
 <g fill="#fff">
  <path d="m224.43-131.94-1.6763 140.52c-1.9479 1.6416-4.3752 4.0149-4.4934 6.2624-0.11825 2.2476 3.665 5.626 2.9397 10.092-3.0984-0.73418-4.9873 2.8459-6.3595 5.1549 0.96647 5.1909-2.0355 11.259 3.2232 15.501-5.153 1.0933-10.231 2.2869-10.315 10.184 3.6899 3.8246 2.8525 7.8865 1.8321 11.958-15.188 16.116-11.606 30.158-11.32 35.601 4.4366-2.0235 8.3401-3.8186 11.416-3.4593 4.9237-0.94992 8.2002 0.7555 15.38 4.4141 9.1635-5.9509 11.441-4.643 16.624-4.7731 7.9846-0.20052 10.531 0.80608 15.469 1.8858 4.9378 1.0797 8.0588-5.7063 12.947-7.5449 6.1497-2.3132 11.507-0.48988 17.835-3.1087 6.3284-2.6189 7.5274-11.879 11.076-18.661 8.8194-2.492 13.746-8.1797 17.939-14.2l28.913-0.3099c12.934-3.5534 18.983-7.6174 18.541-14.231-0.44234-6.6136-4.2501-7.4917-6.609-11.105 2.8514-0.87274 1.9398-5.0476-0.25835-5.3348 0.20744-9.4265 6.6261-11.162 6.0849-21.489l0.91777-143.49c-8.1771-0.15493-16.176-5.3157-18.551-8.9723-22.742 4.9859-45.796 4.0067-68.867 2.7051-12.034 8.1392-28.131 19.182-52.689 12.404z" transform="rotate(-1 19478.344 5563.99) scale(1.37791)"/>
  <path d="m272.92-154.25c-1.9476 0.14474-3.1077 0.34899-3.3501 0.63999-1.9392 2.328-24.722 20.389-40.78 10.563-4.6854-0.53668-3.0512 6.6933 0.99737 7.5539 21.858 4.1692 34.418-5.0612 45.642-12.652 23.071 1.3016 50.803 2.5968 73.545-2.3891 1.8799 2.8948 7.2431 6.0978 13.471 7.648 2.9102-0.14852 1.139-0.0336 3.8143-0.13349l-0.51666-9.8584c-28.067-0.14948-79.189-2.3849-92.823-1.3718z" transform="rotate(-1 19478.344 5563.99) scale(1.37791)"/>
 </g>
</svg>
