<svg width="23" height="20" xmlns="http://www.w3.org/2000/svg">
 <path d="m21.951 1.5149c0.24467-0.24996 0.52488-1.0149 0.04894-1.0149h-21.5v17h12.5c0.65848 0.05335 1.6054-0.0405 2.1612 0.36269 0.50926 0.29167 1.0309 0.6198 1.6048 0.74987 0.51813-0.10181 1.0485-0.54059 1.5858-0.24338 0.36096 0.04949 0.55866 0.48111 0.97051 0.34774 0.5727-0.01826 0.97528 0.56132 1.5507 0.45217 0.36439-0.08146 0.63527 0.11344 0.94422 0.26608 0.29888 0.21358 0.8219-0.16268 0.64864-0.52542-0.20586-0.4259-0.07617-0.77317-0.2241-1.2318-0.21518-0.52464 0.37435-0.92621 0.19389-1.4445-0.03373-0.3618-0.08458-0.66581-0.07009-1.0781 0.01195-0.34032-0.10816-0.61338-0.30828-0.93903-0.17528-0.28523-0.18477-0.62856-0.17207-0.96435 0.01262-0.33362 0.63292-0.11912 0.61476-0.75202v-7.5c0-0.5-0.63407-0.42352-0.92695-0.5772-0.47887-0.18207-0.3084-0.72741-0.39508-1.127-0.049955-0.23032-0.26633-0.33352-0.25091-0.69053 0.03766-0.43539 0.69562-0.72323 1.0238-1.09z" fill="#fff" stroke="#006747"/>
</svg>
