<svg width="17" height="21" xmlns="http://www.w3.org/2000/svg" xmlns:xlink="http://www.w3.org/1999/xlink">
 <defs>
  <path id="a" d="M0 0H15V6H0z"/>
 </defs>
 <g fill="none" fill-rule="evenodd">
  <path d="M15,0.5 C15.4142136,0.5 15.7892136,0.667893219 16.0606602,0.939339828 C16.3321068,1.21078644 16.5,1.58578644 16.5,2 L16.5,19 C16.5,19.4142136 16.3321068,19.7892136 16.0606602,20.0606602 C15.7892136,20.3321068 15.4142136,20.5 15,20.5 L2,20.5 C1.58578644,20.5 1.21078644,20.3321068 0.939339828,20.0606602 C0.667893219,19.7892136 0.5,19.4142136 0.5,19 L0.5,2 C0.5,1.58578644 0.667893219,1.21078644 0.939339828,0.939339828 C1.21078644,0.667893219 1.58578644,0.5 2,0.5 Z" stroke="#000" fill="#FFF" fill-rule="nonzero"/>
  <path d="M2.36079459,2.60227388 L2.7,2.15 C2.88885438,1.89819416 3.1852427,1.75 3.5,1.75 L4,1.75 L4,1.75 L4.94098301,2.2204915 C5.28358555,2.39179278 5.5,2.74195871 5.5,3.125 C5.5,3.47017797 5.22017797,3.75 4.875,3.75 L4.75,3.75 C4.61192881,3.75 4.5,3.86192881 4.5,4 C4.5,4.07868933 4.53704854,4.1527864 4.6,4.2 L5.8,5.1 C5.92590292,5.19442719 6,5.34262135 6,5.5 L6,7.25 L6,7.25 L7,7.5 L7,7.75 L6,7.75 L5.25,7.75 L5,6.25 L3,6.75 L2.75,8.75 L2.25,8.75 L2,6.75 L1.25,6.25 L2.19927064,2.92755275 C2.23280673,2.81017645 2.28755067,2.69993244 2.36079459,2.60227388 Z" fill="#000" transform="translate(2 2.25)"/>
  <path stroke="#000" stroke-width=".5" stroke-linecap="round" stroke-linejoin="round" d="M3.5 3.25 1 0M1.25 4.25C1.41666667 3.30555556 1.5 2.55555556 1.5 2 1.5 1.44444444 1.41666667.861111111 1.25.25L1.17195445.289022777C.586781556.581609222.158677279 1.11529089 4.54747351e-13 1.75L4.54747351e-13 1.75 4.54747351e-13 1.75" transform="translate(2 2.25)"/>
  <path stroke="#000" stroke-width=".5" stroke-linecap="round" stroke-linejoin="round" d="M1 .75 1 2.75" transform="rotate(-53 8.363 -2.843)"/>
  <path fill="#000" d="M1 .75 1.5 3.25.5 3.25z" transform="rotate(-53 8.363 -2.843)"/>
  <path stroke="#000" stroke-width=".5" stroke-linecap="round" stroke-linejoin="round" d="M3.5 3.25.75 1.75M3.5 3.25.75 3.25" transform="translate(2 2.25)"/>
  <path d="M3.18773269.574906922 3.69388302.372446793C3.87959141.298163438 4.09170045.341700453 4.23313175.483131747L4.5.75 4.5.75C4.40218817.974580656 4.31885484 1.22458066 4.25 1.5 4.18114516 1.77541934 4.43114516 2.19208601 5 2.75L3 2.75 3 1.5 2.89908638 1.19725915C2.81536883.946106486 2.94192949.673228204 3.18773269.574906922ZM2.0547002 8.11980013 2.41165159 8.35776773C2.75375111 8.58583407 3.20927132 8.54072868 3.5 8.25 3.82014462 7.92985538 4.25435391 7.75 4.70710678 7.75L5 7.75C5.65762878 7.75 6.30622613 7.59688693 6.89442719 7.3027864L7 7.25C7.65762878 6.92118561 8.38278266 6.75 9.11803399 6.75L13 6.75 13 6.75 13 10.5 0 10.25 0 8.75.945299804 8.11980013C1.28119922 7.89586719 1.71880078 7.89586719 2.0547002 8.11980013Z" fill="#000" transform="translate(2 2.25)"/>
  <path d="M11.875,0 C12.5826064,0 12.890625,1 13.5,1 C13.5,1.33333333 13.5,1.66666667 13.5,2 C12.826903,2 12.484375,1 11.875,1 C11.265625,1 11.0625,2 10.25,2 C9.4375,2 9.234375,1 8.625,1 C8.015625,1 7.8125,2 7,2 C6.1875,2 6.1875,1 5.375,1 C4.5625,1 4.5625,2 3.75,2 C2.9375,2 2.734375,1 2.125,1 C1.515625,1 1.17309704,2 0.5,2 C0.5,1.66666667 0.5,1.33333333 0.5,1 C1.109375,1 1.41073139,0 2.125,0 C2.83926861,0 3.140625,1 3.75,1 C4.359375,1 4.5625,0 5.375,0 C6.1875,0 6.390625,1 7,1 C7.609375,1 7.8125,0 8.625,0 C9.4375,0 9.640625,1 10.25,1 C10.859375,1 11.1673936,0 11.875,0 Z" fill="#FFF" fill-rule="nonzero" transform="translate(1.5 11)"/>
  <g transform="translate(1.5 11)">
   <mask id="b" fill="#fff">
    <use xlink:href="#a"/>
   </mask>
   <path d="M11.875 1C12.5826064 1 12.890625 2 13.5 2 13.5 2.33333333 13.5 2.66666667 13.5 3 12.826903 3 12.484375 2 11.875 2 11.265625 2 11.0625 3 10.25 3 9.4375 3 9.234375 2 8.625 2 8.015625 2 7.8125 3 7 3 6.1875 3 6.1875 2 5.375 2 4.5625 2 4.5625 3 3.75 3 2.9375 3 2.734375 2 2.125 2 1.515625 2 1.17309704 3 .5 3 .5 2.66666667.5 2.33333333.5 2 1.109375 2 1.41073139 1 2.125 1 2.83926861 1 3.140625 2 3.75 2 4.359375 2 4.5625 1 5.375 1 6.1875 1 6.390625 2 7 2 7.609375 2 7.8125 1 8.625 1 9.4375 1 9.640625 2 10.25 2 10.859375 2 11.1673936 1 11.875 1ZM11.875 3C12.5826064 3 12.890625 4 13.5 4 13.5 4.33333333 13.5 4.66666667 13.5 5 12.826903 5 12.484375 4 11.875 4 11.265625 4 11.0625 5 10.25 5 9.4375 5 9.234375 4 8.625 4 8.015625 4 7.8125 5 7 5 6.1875 5 6.1875 4 5.375 4 4.5625 4 4.5625 5 3.75 5 2.9375 5 2.734375 4 2.125 4 1.515625 4 1.17309704 5 .5 5 .5 4.66666667.5 4.33333333.5 4 1.109375 4 1.41073139 3 2.125 3 2.83926861 3 3.140625 4 3.75 4 4.359375 4 4.5625 3 5.375 3 6.1875 3 6.390625 4 7 4 7.609375 4 7.8125 3 8.625 3 9.4375 3 9.640625 4 10.25 4 10.859375 4 11.1673936 3 11.875 3Z" fill="#003F87" fill-rule="nonzero" mask="url(#b)"/>
  </g>
 </g>
</svg>
