<svg width="17" height="21" xmlns="http://www.w3.org/2000/svg">
 <g fill="none" fill-rule="evenodd">
  <path d="M15,0.5 C15.4142136,0.5 15.7892136,0.667893219 16.0606602,0.939339828 C16.3321068,1.21078644 16.5,1.58578644 16.5,2 L16.5,19 C16.5,19.4142136 16.3321068,19.7892136 16.0606602,20.0606602 C15.7892136,20.3321068 15.4142136,20.5 15,20.5 L2,20.5 C1.58578644,20.5 1.21078644,20.3321068 0.939339828,20.0606602 C0.667893219,19.7892136 0.5,19.4142136 0.5,19 L0.5,2 C0.5,1.58578644 0.667893219,1.21078644 0.939339828,0.939339828 C1.21078644,0.667893219 1.58578644,0.5 2,0.5 Z" stroke="#000" fill="#FFF" fill-rule="nonzero"/>
  <path d="M5.88554478,8.19764996 C5.79518159,8.66288853 5.75,9.26367188 5.75,10 C5.75,11 6.16666667,11.9166667 7,12.75 L2,13 L4.51806641,8.38354492 C4.77154902,7.91741106 4.61650592,7.33454203 4.16416483,7.05718892 C3.98506149,6.94624589 3.84700654,6.84384959 3.75,6.75 C3.20917416,6.22677465 2.93039627,5 3,5 C3.04654202,5 3.37987535,5.25 4,5.75 L4,5.75 L4.5,5.875 C4.82717408,5.95679352 5.12596746,6.12596746 5.36443449,6.36443449 L5.5,6.5 L5.5,6.5 L5.64644661,6.35355339 C5.87282304,6.12717696 6.17985538,6 6.5,6 C6.82455532,6 7.14035574,5.89473319 7.4,5.7 L8,5.25 L8,5.25 C7.73435999,6.29948667 7.48435999,6.88282 7.25,7 C7.06187118,7.09406441 6.75626713,7.27371571 6.33318785,7.53895388 L6.33417369,7.54051959 C6.10000969,7.68795953 5.93740749,7.92583785 5.88505538,8.19755566 Z" fill="#000"/>
  <path fill="#000" d="M7 10.25 10 10 10 8.5 9.5 8.5 9.5 8 10.5 8 10.5 7 11.5 8 13 8 12 9 13 9 14 10 15 10 14 13 7 13z"/>
  <g fill-rule="nonzero">
   <path d="M11.375,0 C12.0826064,0 12.390625,1 13,1 C13,1.33333333 13,1.66666667 13,2 C12.326903,2 11.984375,1 11.375,1 C10.765625,1 10.5625,2 9.75,2 C8.9375,2 8.734375,1 8.125,1 C7.515625,1 7.3125,2 6.5,2 C5.6875,2 5.6875,1 4.875,1 C4.0625,1 4.0625,2 3.25,2 C2.4375,2 2.234375,1 1.625,1 C1.015625,1 0.673097039,2 0,2 C0,1.66666667 0,1.33333333 0,1 C0.609375,1 0.910731394,0 1.625,0 C2.33926861,0 2.640625,1 3.25,1 C3.859375,1 4.0625,0 4.875,0 C5.6875,0 5.890625,1 6.5,1 C7.109375,1 7.3125,0 8.125,0 C8.9375,0 9.140625,1 9.75,1 C10.359375,1 10.6673936,0 11.375,0 Z" fill="#FFF" transform="translate(2 11)"/>
   <path d="M11.375,0 C12.0826064,0 12.390625,1 13,1 C13,1.33333333 13,1.66666667 13,2 C12.326903,2 11.984375,1 11.375,1 C10.765625,1 10.5625,2 9.75,2 C8.9375,2 8.734375,1 8.125,1 C7.515625,1 7.3125,2 6.5,2 C5.6875,2 5.6875,1 4.875,1 C4.0625,1 4.0625,2 3.25,2 C2.4375,2 2.234375,1 1.625,1 C1.015625,1 0.673097039,2 0,2 C0,1.66666667 0,1.33333333 0,1 C0.609375,1 0.910731394,0 1.625,0 C2.33926861,0 2.640625,1 3.25,1 C3.859375,1 4.0625,0 4.875,0 C5.6875,0 5.890625,1 6.5,1 C7.109375,1 7.3125,0 8.125,0 C8.9375,0 9.140625,1 9.75,1 C10.359375,1 10.6673936,0 11.375,0 Z" fill="#000" transform="translate(2 12)"/>
   <path d="M11.375,2 C12.0826064,2 12.390625,3 13,3 C13,4.16666667 13,5.33333333 13,6.5 C13,6.77614237 12.7761424,7 12.5,7 L0.5,7 C0.223857625,7 -2.9924922e-16,6.77614237 0,6.5 C0,5.33333333 0,4.16666667 0,3 C0.609375,3 0.910731394,2 1.625,2 C2.33926861,2 2.640625,3 3.25,3 C3.859375,3 4.0625,2 4.875,2 C5.6875,2 5.890625,3 6.5,3 C7.109375,3 7.3125,2 8.125,2 C8.9375,2 9.140625,3 9.75,3 C10.359375,3 10.6673936,2 11.375,2 Z" fill="#693F23" transform="translate(2 12)"/>
  </g>
 </g>
</svg>
