<svg width="17" height="21" xmlns="http://www.w3.org/2000/svg" xmlns:xlink="http://www.w3.org/1999/xlink">
 <defs>
  <path id="a" d="M0 0H15V6H0z"/>
 </defs>
 <g fill="none" fill-rule="evenodd">
  <path d="M15,0.5 C15.4142136,0.5 15.7892136,0.667893219 16.0606602,0.939339828 C16.3321068,1.21078644 16.5,1.58578644 16.5,2 L16.5,19 C16.5,19.4142136 16.3321068,19.7892136 16.0606602,20.0606602 C15.7892136,20.3321068 15.4142136,20.5 15,20.5 L2,20.5 C1.58578644,20.5 1.21078644,20.3321068 0.939339828,20.0606602 C0.667893219,19.7892136 0.5,19.4142136 0.5,19 L0.5,2 C0.5,1.58578644 0.667893219,1.21078644 0.939339828,0.939339828 C1.21078644,0.667893219 1.58578644,0.5 2,0.5 Z" stroke="#000" fill="#FFF" fill-rule="nonzero"/>
  <path fill="#000" d="M4 5 6 5 6.5 10 3.5 10zM3.48284272 4 4 4 4 4 4 3.20710678C4 3.07449854 4.05267842 2.94732158 4.14644661 2.85355339L4.64644661 2.35355339C4.84170876 2.15829124 5.15829124 2.15829124 5.35355339 2.35355339L5.85355339 2.85355339C5.94732158 2.94732158 6 3.07449854 6 3.20710678L6 4 6 4 6.51715728 4C6.62761423 4 6.71715728 4.08954305 6.71715728 4.2 6.71715728 4.2530433 6.69608591 4.30391409 6.65857864 4.34142136L6 5 6 5 4 5 3.34142136 4.34142136C3.2633165 4.2633165 3.2633165 4.1366835 3.34142136 4.05857864 3.37892864 4.02107137 3.42979942 4 3.48284272 4ZM3.55901699 10 6.44098301 10C6.78358555 10 7.09678348 10.193567 7.25 10.5L7.2763932 10.5527864C7.41343422 10.8268684 7.69356697 11 8 11L8 11 8 11 8 12.75 2 12.5 2 11C2.30643303 11 2.58656578 10.8268684 2.7236068 10.5527864L2.75 10.5C2.90321652 10.193567 3.21641445 10 3.55901699 10Z"/>
  <path d="M11.875,0 C12.5826064,0 12.890625,1 13.5,1 C13.5,1.33333333 13.5,1.66666667 13.5,2 C12.826903,2 12.484375,1 11.875,1 C11.265625,1 11.0625,2 10.25,2 C9.4375,2 9.234375,1 8.625,1 C8.015625,1 7.8125,2 7,2 C6.1875,2 6.1875,1 5.375,1 C4.5625,1 4.5625,2 3.75,2 C2.9375,2 2.734375,1 2.125,1 C1.515625,1 1.17309704,2 0.5,2 C0.5,1.66666667 0.5,1.33333333 0.5,1 C1.109375,1 1.41073139,0 2.125,0 C2.83926861,0 3.140625,1 3.75,1 C4.359375,1 4.5625,0 5.375,0 C6.1875,0 6.390625,1 7,1 C7.609375,1 7.8125,0 8.625,0 C9.4375,0 9.640625,1 10.25,1 C10.859375,1 11.1673936,0 11.875,0 Z" fill="#FFF" fill-rule="nonzero" transform="translate(1.5 11)"/>
  <g transform="translate(1.5 11)">
   <mask id="b" fill="#fff">
    <use xlink:href="#a"/>
   </mask>
   <path d="M11.875 1C12.5826064 1 12.890625 2 13.5 2 13.5 2.33333333 13.5 2.66666667 13.5 3 12.826903 3 12.484375 2 11.875 2 11.265625 2 11.0625 3 10.25 3 9.4375 3 9.234375 2 8.625 2 8.015625 2 7.8125 3 7 3 6.1875 3 6.1875 2 5.375 2 4.5625 2 4.5625 3 3.75 3 2.9375 3 2.734375 2 2.125 2 1.515625 2 1.17309704 3 .5 3 .5 2.66666667.5 2.33333333.5 2 1.109375 2 1.41073139 1 2.125 1 2.83926861 1 3.140625 2 3.75 2 4.359375 2 4.5625 1 5.375 1 6.1875 1 6.390625 2 7 2 7.609375 2 7.8125 1 8.625 1 9.4375 1 9.640625 2 10.25 2 10.859375 2 11.1673936 1 11.875 1ZM11.875 3C12.5826064 3 12.890625 4 13.5 4 13.5 4.33333333 13.5 4.66666667 13.5 5 12.826903 5 12.484375 4 11.875 4 11.265625 4 11.0625 5 10.25 5 9.4375 5 9.234375 4 8.625 4 8.015625 4 7.8125 5 7 5 6.1875 5 6.1875 4 5.375 4 4.5625 4 4.5625 5 3.75 5 2.9375 5 2.734375 4 2.125 4 1.515625 4 1.17309704 5 .5 5 .5 4.66666667.5 4.33333333.5 4 1.109375 4 1.41073139 3 2.125 3 2.83926861 3 3.140625 4 3.75 4 4.359375 4 4.5625 3 5.375 3 6.1875 3 6.390625 4 7 4 7.609375 4 7.8125 3 8.625 3 9.4375 3 9.640625 4 10.25 4 10.859375 4 11.1673936 3 11.875 3Z" fill="#003F87" fill-rule="nonzero" mask="url(#b)"/>
  </g>
 </g>
</svg>
