<svg width="20" height="20" xmlns="http://www.w3.org/2000/svg">
 <g fill="none" fill-rule="evenodd">
  <rect stroke="#FFCD00" fill="#693F23" x=".5" y=".5" width="19" height="19" rx="2"/>
  <path d="M2,8.77272727 L3,9 L6.2341318,5.9867867 C6.38624147,5.84506741 6.53602326,5.70086996 6.68341709,5.5542522 L6.72578989,5.5121025 C6.84315612,5.39535423 6.98733883,5.30913913 7.14572864,5.26099707 L7.17249755,5.25286075 C7.3135535,5.20998725 7.4625978,5.20022741 7.6080402,5.22434018 C7.75278815,5.24833781 7.88844348,5.31074154 8.00085183,5.40504011 L8.49176579,5.81686437 C8.71978577,6.00814873 8.93489356,6.21431718 9.13567839,6.4340176 C9.33668226,6.65395768 9.53873981,6.87293248 9.74184407,7.09093445 L9.86371087,7.22174018 C10.1210464,7.49795128 10.3932183,7.75995781 10.6790201,8.00659824 C10.9648469,8.25326024 11.2630893,8.48515781 11.5725812,8.70138414 L12,9 L12,9 L13.5,9 C13.1515953,8.7311859 12.801368,8.4647424 12.4493423,8.20068796 L12,7.86363636 L12,7.86363636 L11.3479899,7.26246334 L12.1385513,6.96300828 C12.4283035,6.85325365 12.7525653,6.88401134 13.0165142,7.04628701 L13.548995,7.37365591 C14.1821816,7.76293872 14.7866069,8.19717241 15.357611,8.67300919 L15.75,9 L15.75,9 L18,9 L17.3294728,8.62748489 C16.7768585,8.32047696 16.2404427,7.98517774 15.7223618,7.62292278 L15.3909828,7.39121436 C15.0934789,7.18319225 14.7948444,6.97679168 14.4950928,6.77202181 L13.3928393,6.0190376 C13.254868,5.92478501 13.1033375,5.85211107 12.9434673,5.80351906 L12.8648615,5.77962706 C12.7564694,5.74668164 12.648652,5.71187412 12.5414573,5.67521994 C12.4369112,5.63947143 12.323767,5.637525 12.2180531,5.66965639 L12.1997487,5.67521994 C12.0803669,5.71150567 11.9695075,5.77144358 11.8737718,5.85146459 L11.7776382,5.93181818 C11.6168528,6.06621118 11.4589821,6.2040532 11.3041358,6.34524825 L11.061037,6.56691545 C10.9026731,6.71131808 10.6572323,6.70000017 10.5128296,6.54163621 C10.5123203,6.54107763 10.5118126,6.54051756 10.5113065,6.53995601 C10.3371315,6.34668458 10.1579679,6.15796791 9.97399675,5.97399675 L9.75,5.75 C9.41672024,5.41672024 9.07504395,5.09194414 8.7253005,4.77598478 L8.37419619,4.45879602 C8.25260669,4.34895167 8.1165634,4.25625529 7.96984925,4.18328446 L7.91401172,4.15551269 C7.80430571,4.1009485 7.68792484,4.06098998 7.5678392,4.03665689 C7.44844937,4.01246479 7.32541998,4.01246479 7.20603015,4.03665689 L7.20014919,4.03784856 C7.08504752,4.06117174 6.97695371,4.11096386 6.88442211,4.18328446 C6.79070333,4.25653293 6.70144059,4.33531053 6.61711017,4.41919693 L6.30150754,4.73313783 C6.00673494,5.02635837 5.70562807,5.31314156 5.39839996,5.59328449 L4.89447236,6.05278592 L4.47236181,6.43768328 C4.19098533,6.69425366 3.91498691,6.95666067 3.64454635,7.22473338 L3.52512563,7.3431085 C3.17508269,7.69008662 2.81758795,8.0294655 2.4528914,8.36100782 L2,8.77272727 L2,8.77272727 Z" fill="#FFCD00"/>
  <path d="M0 1.25C.603965556 1.25 1.1470835.88229125 1.37139068.321523309L1.5 0 1.5 0 1.62860932.321523309C1.8529165.88229125 2.39603444 1.25 3 1.25L3 1.25 3 1.25 3 2 2.70710678 2C2.25435391 2 1.82014462 1.82014462 1.5 1.5L1.5 1.5 1.5 1.5C1.17985538 1.82014462.745646087 2 .292893219 2L0 2 0 2 0 1.25ZM3 1.25C3.60396556 1.25 4.1470835.88229125 4.37139068.321523309L4.5 0 4.5 0 4.62860932.321523309C4.8529165.88229125 5.39603444 1.25 6 1.25L6 1.25 6 1.25 6 2 5.70710678 2C5.25435391 2 4.82014462 1.82014462 4.5 1.5L4.5 1.5 4.5 1.5C4.17985538 1.82014462 3.74564609 2 3.29289322 2L3 2 3 2 3 1.25ZM6 1.25C6.60396556 1.25 7.1470835.88229125 7.37139068.321523309L7.5 0 7.5 0 7.62860932.321523309C7.8529165.88229125 8.39603444 1.25 9 1.25L9 1.25 9 1.25 9 2 8.70710678 2C8.25435391 2 7.82014462 1.82014462 7.5 1.5L7.5 1.5 7.5 1.5C7.17985538 1.82014462 6.74564609 2 6.29289322 2L6 2 6 2 6 1.25ZM9 1.25C9.60396556 1.25 10.1470835.88229125 10.3713907.321523309L10.5 0 10.5 0 10.6286093.321523309C10.8529165.88229125 11.3960344 1.25 12 1.25L12 1.25 12 1.25 12 2 11.7071068 2C11.2543539 2 10.8201446 1.82014462 10.5 1.5L10.5 1.5 10.5 1.5C10.1798554 1.82014462 9.74564609 2 9.29289322 2L9 2 9 2 9 1.25ZM12 1.25C12.6039656 1.25 13.1470835.88229125 13.3713907.321523309L13.5 0 13.5 0 13.6286093.321523309C13.8529165.88229125 14.3960344 1.25 15 1.25L15 1.25 15 1.25 15 2 14.7071068 2C14.2543539 2 13.8201446 1.82014462 13.5 1.5L13.5 1.5 13.5 1.5C13.1798554 1.82014462 12.7456461 2 12.2928932 2L12 2 12 2 12 1.25Z" transform="translate(3 10)" fill="#FFCD00"/>
  <path d="M0 1.25C.603965556 1.25 1.1470835.88229125 1.37139068.321523309L1.5 0 1.5 0 1.62860932.321523309C1.8529165.88229125 2.39603444 1.25 3 1.25L3 1.25 3 1.25 3 2 2.70710678 2C2.25435391 2 1.82014462 1.82014462 1.5 1.5L1.5 1.5 1.5 1.5C1.17985538 1.82014462.745646087 2 .292893219 2L0 2 0 2 0 1.25ZM3 1.25C3.60396556 1.25 4.1470835.88229125 4.37139068.321523309L4.5 0 4.5 0 4.62860932.321523309C4.8529165.88229125 5.39603444 1.25 6 1.25L6 1.25 6 1.25 6 2 5.70710678 2C5.25435391 2 4.82014462 1.82014462 4.5 1.5L4.5 1.5 4.5 1.5C4.17985538 1.82014462 3.74564609 2 3.29289322 2L3 2 3 2 3 1.25ZM6 1.25C6.60396556 1.25 7.1470835.88229125 7.37139068.321523309L7.5 0 7.5 0 7.62860932.321523309C7.8529165.88229125 8.39603444 1.25 9 1.25L9 1.25 9 1.25 9 2 8.70710678 2C8.25435391 2 7.82014462 1.82014462 7.5 1.5L7.5 1.5 7.5 1.5C7.17985538 1.82014462 6.74564609 2 6.29289322 2L6 2 6 2 6 1.25ZM9 1.25C9.60396556 1.25 10.1470835.88229125 10.3713907.321523309L10.5 0 10.5 0 10.6286093.321523309C10.8529165.88229125 11.3960344 1.25 12 1.25L12 1.25 12 1.25 12 2 11.7071068 2C11.2543539 2 10.8201446 1.82014462 10.5 1.5L10.5 1.5 10.5 1.5C10.1798554 1.82014462 9.74564609 2 9.29289322 2L9 2 9 2 9 1.25ZM12 1.25C12.6039656 1.25 13.1470835.88229125 13.3713907.321523309L13.5 0 13.5 0 13.6286093.321523309C13.8529165.88229125 14.3960344 1.25 15 1.25L15 1.25 15 1.25 15 2 14.7071068 2C14.2543539 2 13.8201446 1.82014462 13.5 1.5L13.5 1.5 13.5 1.5C13.1798554 1.82014462 12.7456461 2 12.2928932 2L12 2 12 2 12 1.25Z" transform="translate(2 12)" fill="#FFCD00"/>
  <path d="M0 1.25C.603965556 1.25 1.1470835.88229125 1.37139068.321523309L1.5 0 1.5 0 1.62860932.321523309C1.8529165.88229125 2.39603444 1.25 3 1.25L3 1.25 3 1.25 3 2 2.70710678 2C2.25435391 2 1.82014462 1.82014462 1.5 1.5L1.5 1.5 1.5 1.5C1.17985538 1.82014462.745646087 2 .292893219 2L0 2 0 2 0 1.25ZM3 1.25C3.60396556 1.25 4.1470835.88229125 4.37139068.321523309L4.5 0 4.5 0 4.62860932.321523309C4.8529165.88229125 5.39603444 1.25 6 1.25L6 1.25 6 1.25 6 2 5.70710678 2C5.25435391 2 4.82014462 1.82014462 4.5 1.5L4.5 1.5 4.5 1.5C4.17985538 1.82014462 3.74564609 2 3.29289322 2L3 2 3 2 3 1.25ZM6 1.25C6.60396556 1.25 7.1470835.88229125 7.37139068.321523309L7.5 0 7.5 0 7.62860932.321523309C7.8529165.88229125 8.39603444 1.25 9 1.25L9 1.25 9 1.25 9 2 8.70710678 2C8.25435391 2 7.82014462 1.82014462 7.5 1.5L7.5 1.5 7.5 1.5C7.17985538 1.82014462 6.74564609 2 6.29289322 2L6 2 6 2 6 1.25ZM9 1.25C9.60396556 1.25 10.1470835.88229125 10.3713907.321523309L10.5 0 10.5 0 10.6286093.321523309C10.8529165.88229125 11.3960344 1.25 12 1.25L12 1.25 12 1.25 12 2 11.7071068 2C11.2543539 2 10.8201446 1.82014462 10.5 1.5L10.5 1.5 10.5 1.5C10.1798554 1.82014462 9.74564609 2 9.29289322 2L9 2 9 2 9 1.25ZM12 1.25C12.6039656 1.25 13.1470835.88229125 13.3713907.321523309L13.5 0 13.5 0 13.6286093.321523309C13.8529165.88229125 14.3960344 1.25 15 1.25L15 1.25 15 1.25 15 2 14.7071068 2C14.2543539 2 13.8201446 1.82014462 13.5 1.5L13.5 1.5 13.5 1.5C13.1798554 1.82014462 12.7456461 2 12.2928932 2L12 2 12 2 12 1.25Z" transform="translate(3 14)" fill="#FFCD00"/>
 </g>
</svg>
