<svg width="16" height="20" viewBox="0 0 4.234 5.292" xmlns="http://www.w3.org/2000/svg">
 <path style="color:#000;fill:#ffcd00;stroke:#000;stroke-width:.52925;stroke-linecap:round;stroke-linejoin:round;stroke-miterlimit:4;stroke-dasharray:none;paint-order:stroke fill markers" d="M 2.117,0.264375 C 2.170253,0.2969582 2.2298635,0.3579848 2.3036878,0.40429688 2.4011338,0.46542718 2.5072523,0.53041924 2.6415784,0.529 H 3.969375 v 2.7307656 c -6.2e-5,0.1080849 -0.020449,0.2217541 -0.058266,0.3222657 -0.2443204,0.509878 -0.6276867,0.9335192 -1.109375,1.2285156 -0.00265,0.00122 -0.00525,0.00252 -0.00781,0.00391 C 2.5945933,4.952679 2.3587674,5.0273438 2.117,5.0273437 c -0.2417907,0 -0.4776606,-0.072954 -0.6765938,-0.2109375 -0.00189,-0.00201 -0.00385,-0.00397 -0.00586,-0.00586 C 0.9531892,4.5156717 0.57353646,4.0907618 0.32907812,3.5800781 0.29028583,3.4771531 0.26467178,3.366043 0.264625,3.2617188 V 0.529 H 1.5966562 C 1.7297465,0.52952627 1.83458,0.4649199 1.9325937,0.40429688 2.0075027,0.35796458 2.0630145,0.29709738 2.117,0.264375 Z"/>
</svg>
