<svg width="17" height="21" xmlns="http://www.w3.org/2000/svg" xmlns:xlink="http://www.w3.org/1999/xlink">
 <defs>
  <path id="a" d="M0 0H15V6H0z"/>
 </defs>
 <g fill="none" fill-rule="evenodd">
  <path d="M15,0.5 C15.4142136,0.5 15.7892136,0.667893219 16.0606602,0.939339828 C16.3321068,1.21078644 16.5,1.58578644 16.5,2 L16.5,19 C16.5,19.4142136 16.3321068,19.7892136 16.0606602,20.0606602 C15.7892136,20.3321068 15.4142136,20.5 15,20.5 L2,20.5 C1.58578644,20.5 1.21078644,20.3321068 0.939339828,20.0606602 C0.667893219,19.7892136 0.5,19.4142136 0.5,19 L0.5,2 C0.5,1.58578644 0.667893219,1.21078644 0.939339828,0.939339828 C1.21078644,0.667893219 1.58578644,0.5 2,0.5 Z" stroke="#000" fill="#FFF" fill-rule="nonzero"/>
  <g transform="translate(1.5 11)">
   <mask id="b" fill="#fff">
    <use xlink:href="#a"/>
   </mask>
   <path d="M11.875 1C12.5826064 1 12.890625 2 13.5 2 13.5 2.33333333 13.5 2.66666667 13.5 3 12.826903 3 12.484375 2 11.875 2 11.265625 2 11.0625 3 10.25 3 9.4375 3 9.234375 2 8.625 2 8.015625 2 7.8125 3 7 3 6.1875 3 6.1875 2 5.375 2 4.5625 2 4.5625 3 3.75 3 2.9375 3 2.734375 2 2.125 2 1.515625 2 1.17309704 3 .5 3 .5 2.66666667.5 2.33333333.5 2 1.109375 2 1.41073139 1 2.125 1 2.83926861 1 3.140625 2 3.75 2 4.359375 2 4.5625 1 5.375 1 6.1875 1 6.390625 2 7 2 7.609375 2 7.8125 1 8.625 1 9.4375 1 9.640625 2 10.25 2 10.859375 2 11.1673936 1 11.875 1ZM11.875 3C12.5826064 3 12.890625 4 13.5 4 13.5 4.33333333 13.5 4.66666667 13.5 5 12.826903 5 12.484375 4 11.875 4 11.265625 4 11.0625 5 10.25 5 9.4375 5 9.234375 4 8.625 4 8.015625 4 7.8125 5 7 5 6.1875 5 6.1875 4 5.375 4 4.5625 4 4.5625 5 3.75 5 2.9375 5 2.734375 4 2.125 4 1.515625 4 1.17309704 5 .5 5 .5 4.66666667.5 4.33333333.5 4 1.109375 4 1.41073139 3 2.125 3 2.83926861 3 3.140625 4 3.75 4 4.359375 4 4.5625 3 5.375 3 6.1875 3 6.390625 4 7 4 7.609375 4 7.8125 3 8.625 3 9.4375 3 9.640625 4 10.25 4 10.859375 4 11.1673936 3 11.875 3Z" fill="#003F87" fill-rule="nonzero" mask="url(#b)"/>
  </g>
  <g fill="#000">
   <g transform="translate(4.5 2)">
    <rect y="6.5" width="4" height="1" rx=".5"/>
    <path d="M2,0 C2.76190476,0.761904762 3.14285714,1.52380952 3.14285714,2.28571429 C3.14285714,3.04761905 2.76190476,4.95238095 2,8 C1.23809524,4.95238095 0.857142857,3.04761905 0.857142857,2.28571429 C0.857142857,1.52380952 1.23809524,0.761904762 2,0 Z"/>
    <path d="M2,7 C2.5,7.33333333 2.75,7.83333333 2.75,8.5 C2.75,9 2.5,9.41666667 2,9.75 C1.5,9.41666667 1.25,9 1.25,8.5 C1.25,7.83333333 1.5,7.33333333 2,7 Z"/>
    <path d="M2,6.25 C2,7.08333333 2,7.66666667 2,8 C2,8 2,8 2,8 C2,8.40791845 1.66931676,8.73860168 1.26139832,8.73860168 C0.922477902,8.73860168 0.627049705,8.50793832 0.544788136,8.17915254 L0.5,8 L0.5,8 C1.0919124,8 1.61211029,7.607614 1.77472113,7.03847605 L2,6.25 L2,6.25 Z"/>
    <path d="M3.5,6.25 C3.5,7.08333333 3.5,7.66666667 3.5,8 C3.5,8 3.5,8 3.5,8 C3.5,8.40791845 3.16931676,8.73860168 2.76139832,8.73860168 C2.4224779,8.73860168 2.1270497,8.50793832 2.04478814,8.17915254 L2,8 L2,8 C2.5919124,8 3.11211029,7.607614 3.27472113,7.03847605 L3.5,6.25 L3.5,6.25 Z" transform="matrix(-1 0 0 1 5.5 0)"/>
   </g>
   <path d="M3.75,4.20209957 C3.75,5.20209957 3.23215573,7.39406064 2,7.70209957 C1,7.95209957 0,7.20209957 0,5.95209957 C0,5.45209957 0.333333333,5.11876624 1,4.95209957 C1,5.78543291 1.33333333,6.20209957 2,6.20209957 C2.40834401,6.20209957 2.96683186,4.95245133 3,4.20209957 C3.01398834,3.88564605 2.84732167,3.55231271 2.5,3.20209957 C3.16666667,3.20209957 3.58333333,3.53543291 3.75,4.20209957 Z" transform="matrix(1 0 0 -1 2 12.952)"/>
   <path d="M9,4.20209957 C9,5.20209957 8.48215573,7.39406064 7.25,7.70209957 C6.25,7.95209957 5.25,7.20209957 5.25,5.95209957 C5.25,5.45209957 5.58333333,5.11876624 6.25,4.95209957 C6.25,5.78543291 6.58333333,6.20209957 7.25,6.20209957 C7.65834401,6.20209957 8.21683186,4.95245133 8.25,4.20209957 C8.26398834,3.88564605 8.09732167,3.55231271 7.75,3.20209957 C8.41666667,3.20209957 8.83333333,3.53543291 9,4.20209957 Z" transform="rotate(180 8.125 6.476)"/>
  </g>
 </g>
</svg>
