<svg width="20" height="20" xmlns="http://www.w3.org/2000/svg" xmlns:xlink="http://www.w3.org/1999/xlink">
 <defs>
  <path id="a" d="M0 0H12V4H0z"/>
  <path id="c" d="M0 0H12V4H0z"/>
 </defs>
 <g fill="none" fill-rule="evenodd">
  <path d="M16,0.5 C16.4142136,0.5 16.7892136,0.667893219 17.0606602,0.939339828 C17.3321068,1.21078644 17.5,1.58578644 17.5,2 L17.5,18 C17.5,18.4142136 17.3321068,18.7892136 17.0606602,19.0606602 C16.7892136,19.3321068 16.4142136,19.5 16,19.5 L4,19.5 C3.58578644,19.5 3.21078644,19.3321068 2.93933983,19.0606602 C2.66789322,18.7892136 2.5,18.4142136 2.5,18 L2.5,2 C2.5,1.58578644 2.66789322,1.21078644 2.93933983,0.939339828 C3.21078644,0.667893219 3.58578644,0.5 4,0.5 Z" stroke="#000" fill="#FFF" fill-rule="nonzero"/>
  <g transform="translate(4 13)">
   <mask id="b" fill="#fff">
    <use xlink:href="#a"/>
   </mask>
   <path d="M-1.5,1 L-0.75,2 C-0.439339828,2.41421356 0.148286438,2.49816017 0.5625,2.1875 C0.633567812,2.13419914 0.696699141,2.07106781 0.75,2 C1.06066017,1.58578644 1.64828644,1.50183983 2.0625,1.8125 C2.13356781,1.86580086 2.19669914,1.92893219 2.25,2 C2.56066017,2.41421356 3.14828644,2.49816017 3.5625,2.1875 C3.63356781,2.13419914 3.69669914,2.07106781 3.75,2 C4.06066017,1.58578644 4.64828644,1.50183983 5.0625,1.8125 C5.13356781,1.86580086 5.19669914,1.92893219 5.25,2 C5.56066017,2.41421356 6.14828644,2.49816017 6.5625,2.1875 C6.63356781,2.13419914 6.69669914,2.07106781 6.75,2 C7.06066017,1.58578644 7.64828644,1.50183983 8.0625,1.8125 C8.13356781,1.86580086 8.19669914,1.92893219 8.25,2 C8.56066017,2.41421356 9.14828644,2.49816017 9.5625,2.1875 C9.63356781,2.13419914 9.69669914,2.07106781 9.75,2 C10.0606602,1.58578644 10.6482864,1.50183983 11.0625,1.8125 C11.1335678,1.86580086 11.1966991,1.92893219 11.25,2 C11.5606602,2.41421356 12.1482864,2.49816017 12.5625,2.1875 C12.6335678,2.13419914 12.6966991,2.07106781 12.75,2 L13.5,1 L13.5,1" stroke="#003F87" stroke-linejoin="round" mask="url(#b)"/>
  </g>
  <path d="M11,11 L11,12.75 L4,12.5 L4,11 C5.33333333,10.1666667 6,9.41666667 6,8.75 C6,7.75 5,8 5,6.5 C5,5.25 6.06209816,4.34575646 6.1850272,4.03827918 C6.23797545,3.90584193 6.34296638,3.6430822 6.5,3.25 L7,3.5 L7,2.61803399 C7,2.23926193 7.21400238,1.89299881 7.5527864,1.7236068 L8,1.5 L8,1.5 L8,3 L8.75,2.5 L9,3 L9.06147099,2.90779351 C9.32038196,2.51942706 9.80719412,2.35239804 10.25,2.5 L10.25,2.5 L10.25,2.5 L10.75,3 L9.5,4 L9.75,5 C10.0368979,5.14344893 10.174657,5.47602896 10.0732233,5.78033009 L10,6 L10,6 L11,7.5 L10,8 C10.2597276,8.48460332 10.3430609,8.81793665 10.25,9 C10.0270324,9.43621115 8.75,9.25 8.75,9.75 C8.75,10.0091062 9.49647986,10.1401898 10,10.5 C10.0961636,10.5687175 10.4294969,10.7353841 11,11 Z" fill="#000"/>
  <path d="M14.15,11.3 C14.2949747,11.1067003 14.5692003,11.0675253 14.7625,11.2125 C14.795665,11.2373737 14.8251263,11.266835 14.85,11.3 C15.132183,11.676244 15.5633983,11.874775 16.0000837,11.8750842 L15.9999384,12.8750256 C15.8670639,12.8749051 15.735863,12.814484 15.65,12.7 C15.568272,12.5910294 15.4714706,12.494228 15.3625,12.4125 C14.7273725,11.9361544 13.8263456,12.0648725 13.35,12.7 C13.3251263,12.733165 13.295665,12.7626263 13.2625,12.7875 C13.0692003,12.9324747 12.7949747,12.8932997 12.65,12.7 C12.568272,12.5910294 12.4714706,12.494228 12.3625,12.4125 C11.7273725,11.9361544 10.8263456,12.0648725 10.35,12.7 C10.3251263,12.733165 10.295665,12.7626263 10.2625,12.7875 C10.0692003,12.9324747 9.79497475,12.8932997 9.65,12.7 C9.56827202,12.5910294 9.47147064,12.494228 9.3625,12.4125 C8.72737254,11.9361544 7.8263456,12.0648725 7.35,12.7 C7.32512627,12.733165 7.29566498,12.7626263 7.2625,12.7875 C7.06920034,12.9324747 6.79497475,12.8932997 6.65,12.7 C6.56827202,12.5910294 6.47147064,12.494228 6.3625,12.4125 C5.72737254,11.9361544 4.8263456,12.0648725 4.35,12.7 C4.32512627,12.733165 4.29566498,12.7626263 4.2625,12.7875 C4.18360812,12.8466689 4.09123623,12.8751636 3.99967289,12.8750252 L3.99955729,11.8750838 C4.30020126,11.8754063 4.60346535,11.781776 4.8625,11.5875 C4.97147064,11.505772 5.06827202,11.4089706 5.15,11.3 C5.29497475,11.1067003 5.56920034,11.0675253 5.7625,11.2125 C5.79566498,11.2373737 5.82512627,11.266835 5.85,11.3 C6.3263456,11.9351275 7.22737254,12.0638456 7.8625,11.5875 C7.97147064,11.505772 8.06827202,11.4089706 8.15,11.3 C8.29497475,11.1067003 8.56920034,11.0675253 8.7625,11.2125 C8.79566498,11.2373737 8.82512627,11.266835 8.85,11.3 C9.3263456,11.9351275 10.2273725,12.0638456 10.8625,11.5875 C10.9714706,11.505772 11.068272,11.4089706 11.15,11.3 C11.2949747,11.1067003 11.5692003,11.0675253 11.7625,11.2125 C11.795665,11.2373737 11.8251263,11.266835 11.85,11.3 C12.3263456,11.9351275 13.2273725,12.0638456 13.8625,11.5875 C13.9714706,11.505772 14.068272,11.4089706 14.15,11.3 Z" fill="#FFF"/>
  <g transform="translate(4 11)">
   <mask id="d" fill="#fff">
    <use xlink:href="#c"/>
   </mask>
   <path d="M-1.5,1 L-0.75,2 C-0.439339828,2.41421356 0.148286438,2.49816017 0.5625,2.1875 C0.633567812,2.13419914 0.696699141,2.07106781 0.75,2 C1.06066017,1.58578644 1.64828644,1.50183983 2.0625,1.8125 C2.13356781,1.86580086 2.19669914,1.92893219 2.25,2 C2.56066017,2.41421356 3.14828644,2.49816017 3.5625,2.1875 C3.63356781,2.13419914 3.69669914,2.07106781 3.75,2 C4.06066017,1.58578644 4.64828644,1.50183983 5.0625,1.8125 C5.13356781,1.86580086 5.19669914,1.92893219 5.25,2 C5.56066017,2.41421356 6.14828644,2.49816017 6.5625,2.1875 C6.63356781,2.13419914 6.69669914,2.07106781 6.75,2 C7.06066017,1.58578644 7.64828644,1.50183983 8.0625,1.8125 C8.13356781,1.86580086 8.19669914,1.92893219 8.25,2 C8.56066017,2.41421356 9.14828644,2.49816017 9.5625,2.1875 C9.63356781,2.13419914 9.69669914,2.07106781 9.75,2 C10.0606602,1.58578644 10.6482864,1.50183983 11.0625,1.8125 C11.1335678,1.86580086 11.1966991,1.92893219 11.25,2 C11.5606602,2.41421356 12.1482864,2.49816017 12.5625,2.1875 C12.6335678,2.13419914 12.6966991,2.07106781 12.75,2 L13.5,1 L13.5,1" stroke="#003F87" stroke-linejoin="round" mask="url(#d)"/>
  </g>
  <path stroke="#000" stroke-width=".5" stroke-linejoin="round" d="M4.5 7.5 5.5 6.5"/>
 </g>
</svg>
