<svg width="20" height="20" viewBox="0 0 5.292 5.292" xmlns="http://www.w3.org/2000/svg">
 <rect style="fill:#fff;fill-rule:evenodd;stroke:#693f23;stroke-width:.26458299;stroke-linecap:round;stroke-linejoin:round;stroke-miterlimit:4;stroke-dasharray:none" width="5.027" height="5.027" x=".132" y=".132" rx=".397" ry=".397"/>
 <path style="fill:#693f23;stroke-width:.0105279" d="m 3.7167633,4.3146185 c -0.00544,0.00523 -0.01234,0.07563 -0.015478,0.1566572 l -0.00565,0.1473288 H 3.5714926 3.4473507 l -0.00272,-0.5218274 -0.00272,-0.5218275 0.022445,-0.021668 c 0.048152,-0.046474 0.2810886,-0.1189256 0.3802497,-0.1182773 0.089817,5.836e-4 0.2084795,0.026312 0.2698521,0.058543 0.072957,0.038296 0.1696374,0.1393391 0.2018284,0.2109538 0.032672,0.072702 0.034847,0.1744982 0.00523,0.2422226 -0.022695,0.051787 -0.1335267,0.1563104 -0.1681733,0.191105 -0.09462,0.095025 -0.2178511,0.127878 -0.3639775,0.1611034 -0.032637,0.011833 -0.067206,0.010666 -0.072602,0.015686 z m 0.149477,-0.3015812 c 0.1112161,-0.058877 0.1654124,-0.1250329 0.1654752,-0.202002 3.16e-5,-0.039865 -0.00544,-0.052331 -0.036458,-0.082616 -0.044908,-0.04386 -0.085551,-0.052561 -0.177146,-0.037878 -0.1026178,0.016523 -0.1070309,0.02445 -0.1070309,0.1948698 0,0.1196158 0.0023,0.1390254 0.018196,0.1487721 0.022884,0.014223 0.089943,0.00376 0.1370699,-0.021146 z M 2.9017524,4.6031457 C 2.8073122,4.5466529 2.6540473,4.4254894 2.5849669,4.3527325 l -0.056183,-0.059191 -0.062772,0.00627 c -0.034534,0.00356 -0.067206,0.010667 -0.072602,0.015687 -0.00544,0.00523 -0.01234,0.07563 -0.015477,0.1566572 l -0.00565,0.1473289 H 2.2481393 2.1239973 l -0.00272,-0.5218275 -0.00272,-0.5218274 0.022444,-0.021669 c 0.048152,-0.046474 0.2810886,-0.1189256 0.3802497,-0.1182772 0.089818,5.835e-4 0.2084796,0.026312 0.2698522,0.058542 0.072957,0.038296 0.1696373,0.1393391 0.2018284,0.2109538 0.032672,0.072702 0.034847,0.1744982 0.00523,0.2422226 -0.022695,0.051787 -0.1248949,0.1679098 -0.1681733,0.1911051 -0.015896,0.00858 -0.028447,0.024241 -0.028447,0.035556 0,0.025496 0.076139,0.092593 0.2189693,0.1929247 l 0.1103587,0.077534 -0.028636,0.049883 C 3.0221013,4.63418 3.0133795,4.6462691 2.9929848,4.6457253 2.9814813,4.645422 2.9405245,4.6262739 2.9017869,4.6030368 Z M 2.5428859,4.0139221 c 0.1112162,-0.058877 0.1654124,-0.1250329 0.1654752,-0.202002 3.16e-5,-0.039865 -0.00544,-0.052331 -0.036458,-0.082616 -0.044908,-0.04386 -0.085551,-0.052561 -0.1771461,-0.037878 -0.1026178,0.016523 -0.1070309,0.02445 -0.1070309,0.1948699 0,0.1196158 0.0023,0.1390254 0.018197,0.148772 0.022884,0.014223 0.089943,0.00376 0.1370698,-0.021146 z M 1.0200415,4.6147903 C 0.97452936,4.6074698 0.90820627,4.592829 0.87264986,4.5824549 L 0.808,4.5636309 V 4.041335 c 0,-0.4324804 0.00251,-0.5244167 0.0144317,-0.5346381 0.007948,-0.00669 0.0672434,-0.025371 0.13187234,-0.041287 0.0917564,-0.02261 0.14360596,-0.028989 0.23647706,-0.029135 0.1076103,-1.736e-4 0.1245937,0.00251 0.1780956,0.028508 0.077617,0.037669 0.1575566,0.115872 0.1796224,0.1756903 0.020497,0.055614 0.014641,0.1279821 -0.016732,0.2035915 -0.011085,0.027023 -0.020288,0.053627 -0.020288,0.059107 0,0.00544 0.024429,0.026249 0.054297,0.04614 0.1221047,0.081361 0.176255,0.1949953 0.1496505,0.3140506 -0.035766,0.1601083 -0.2455105,0.3278298 -0.4452035,0.3559716 -0.098073,0.013804 -0.142351,0.012968 -0.2500868,-0.0046 z m 0.3154833,-0.268733 c 0.03129,-0.00962 0.072012,-0.02924 0.090502,-0.043693 0.027504,-0.021522 0.033611,-0.033653 0.033611,-0.066741 0,-0.046495 -0.024931,-0.07653 -0.085147,-0.1025906 -0.047729,-0.020706 -0.2086949,-0.021982 -0.2820561,-0.0023 l -0.051724,0.013804 -0.00293,0.094141 c -0.00185,0.058103 0.00141,0.099662 0.00857,0.1085516 0.023781,0.0297 0.1904776,0.02901 0.2892532,-0.0012 z M 1.2525112,3.8833685 c 0.050908,-0.026521 0.07082,-0.082679 0.047415,-0.1337338 -0.026228,-0.057246 -0.080755,-0.083223 -0.1746654,-0.083223 -0.050114,0 -0.080922,0.0046 -0.0859,0.012968 -0.00418,0.00711 -0.00669,0.054171 -0.00523,0.104473 0.00192,0.069983 0.00648,0.094601 0.019451,0.1048494 0.026082,0.020497 0.1558206,0.017151 0.1989275,-0.00544 z M 4.0682676,2.3757712 C 3.586631,2.3985058 3.3047962,2.3882517 2.8232144,2.4145559 2.3388405,2.489952 1.8399645,2.5628632 1.3987591,2.7887036 1.2823627,2.8422445 1.231645,2.9228979 1.231645,2.9228979 H 2.524586 C 2.8811947,2.6160616 3.2648068,2.5008651 3.6603859,2.4303012 c 0.1542849,0.00351 0.3036266,0.00331 0.4140936,-0.013219 0.014002,0.042602 0.018622,0.049885 0.027484,0.093844 0.012257,0.060799 -0.027623,0.3561487 0.090203,0.2751133 0.041231,-0.056509 0.021198,-0.212204 0.00898,-0.2971598 L 4.1753833,2.3097455 C 4.1675115,2.2550121 4.1812545,2.1797605 4.1417515,2.1591969 4.2953411,2.0991667 4.1577885,1.8341287 3.9900651,1.9283363 3.8340127,1.9389391 3.5665977,1.7443422 3.8554535,1.7185239 c 0.1177658,0.00468 0.1544124,-0.1220584 0.2840687,-0.040546 0.090928,-0.052411 0.046802,-0.256138 -0.1086187,-0.1869123 -0.1743418,0.00817 -0.3482201,0.076809 -0.518147,0.070201 -0.193445,0.00702 -0.4228465,-0.040836 -0.584267,-0.14263 -0.036423,-0.052521 0.055572,-0.092678 0.07017,-0.07261 0.1018997,0.085549 0.117018,-0.1676933 0.2376675,-0.081219 0.078392,-0.053651 0.1538306,-0.00523 0.1959625,-0.093381 0.082713,0.026831 0.061902,-0.1720927 0.1576938,-0.050131 0.080296,-0.00672 0.08632,-0.010019 0.1432037,-0.00955 0.081756,-0.060914 0.1206734,-0.027841 0.2256013,0.030693 0.079458,-0.04337 0.3254554,0.017911 0.2143709,-0.1158852 C 3.9950969,1.0672614 3.9757667,0.810322 3.8705975,0.8620569 c 0.093784,0.081677 -0.1989074,0.049161 -0.02152,0.010274 -0.057553,-0.047649 -0.335311,-0.00809 -0.2812275,-0.16327323 0.1067496,0.11475453 0.1135827,-0.1145997 0.2180375,-0.053044 0.1811522,0.017096 0.1575251,-0.181092 0.30293,-0.08134 0.1308934,0.0592151 0.1437241,-0.0780482 0.1153193,-0.18066322 -0.018399,-0.0664684 0.023646,-0.1483057 -0.013417,-0.20646818 0.1495942,-0.004874 0.2252905,-0.003132 0.2034332,0.2635387 -0.054457,0.1531517 0.056558,0.1826837 0.1353215,0.2442581 -0.00652,0.12631363 0.083429,0.15168813 0.1723025,0.19190383 0.0021,0.1504032 -0.2517849,0.094865 -0.2094694,0.1444751 -0.215501,0.054365 0.014601,0.091591 0.084037,0.1057611 0.087555,0.073524 0.2076311,0.085386 0.3323671,0.12487 0.1571044,0.014546 -0.1214595,0.2374954 -0.2058371,0.1832913 -0.018761,0.080694 -0.3960461,0.018787 -0.255674,0.1076087 0.1645132,-0.068865 0.3300109,1.18e-4 0.4636809,0.033157 0.1945378,0.094076 -0.2901316,0.1201644 -0.1794851,0.1954335 -0.00863,0.1099393 -0.4719439,0.1463701 -0.2446821,0.2201753 0.1469897,-0.1081195 0.062232,0.1165326 -0.00106,0.1490237 -0.056358,-0.00162 -0.064681,0.058028 -0.074664,0.1078756 -0.016567,0.082727 -0.011995,0.1748227 -0.00193,0.2741127 0.00594,0.058603 0.011796,0.2328323 0.076262,0.1678522 0.02536,-0.067682 0.021049,-0.155589 0.014681,-0.2149535 -0.00655,-0.061073 0.00832,-0.1091047 0.012481,-0.163657 0.07624,-0.024423 0.090896,0.012002 0.142122,-0.018548 0.1689267,-0.015699 0.383982,-0.064155 0.515897,-0.1118708 L 5.159375,3.1753586 C 3.4788802,3.1688586 1.8127903,3.1671327 0.13229167,3.1750067 L 0.1253878,1.9284626 C 0.3206053,1.8827903 0.47381883,1.7049779 0.62939394,1.5868827 0.73170917,1.5268289 0.90863082,1.7263168 0.9953705,1.5222192 1.1418202,1.2831143 1.3251111,1.5474557 1.486283,1.6281529 c 0.1602463,0.1648701 0.366241,0.2438027 0.568361,0.33188 0.1886627,0.09636 0.3754296,0.1691024 0.567052,0.250419 0.2072654,0.050913 0.3169558,0.052954 0.5275835,0.084751 0.2997278,0.041609 0.6070598,0.055601 0.907754,0.042686 z"/>
</svg>
