<svg width="22" height="20" xmlns="http://www.w3.org/2000/svg">
 <path d="m 3.125,0.5 0.375,3 h -3 l 2,16 h 17 l 2,-16 h -3 l 0.375,-3 z" fill="#fff" stroke="#000"/>
 <path d="M4.0405522 12h1.8076691c.234945.000006.4472604.04284.6400518.126426.1987988.07764.3674248.18932.505988.338566.1445846.143285.2542189.320314.3265052.529256.078352.208955.1167677.439245.1167677.689984-.000004.549236-.1380453.966965-.4151737 1.253513-.2711011.286557-.6620715.428564-1.1741548.428564H4.9075897v2.633503H4.0405001Zm4.2359722 0h.8497853v5.99972H8.2765244Zm2.1883036 0h.867105v2.399864L12.713604 12h1.003336l-1.256272 2.104186 1.401231 3.895534h-.912497l-1.066038-2.929182-.551395 1.013539v1.915667h-.867093zm4.411173 0h2.847819v.842106h-1.978546v1.512829h1.256272v.824972h-1.256272v1.977827H17.9595v.842106h-3.083499zm-9.9679756.842106v1.701349H5.80322c.253031.000003.4448126-.07584.5773405-.224986.1385452-.149245.2075759-.359638.2075879-.634256-.0000041-.25074-.071632-.45547-.2162271-.610689C6.2273369 12.918299 6.0381671 12.842106 5.8032201 12.842106ZM2.927 5H5.9543917V5.7831494H4.8709048V10.894751H4.0083628V5.7831494H2.927Zm3.8431288 0h.8519223v4.2399759c-.0000019.2815424.075565.5078.2294405.6778924.1539008.1701097.3568777.2547307.6054787.2547307.2308453 0 .4192573-.08464.5672325-.2547307.1538811-.1701102.2315643-.39635.2315643-.6778924V5h.8519209v4.1346935c-.000002.1173168-.0051.2240531-.0169.3178888-.0059.093838-.01847.1810342-.03607.2631619-.01768.076272-.04267.1532131-.072147.2294757-.02959.076273-.064837.1511111-.1062348.2273681C9.728368 10.413076 9.5249155 10.612112 9.2644906 10.770473 9.0099716 10.922979 8.7412927 10.999951 8.4571942 10.999951 8.161246 10.999949 7.88013 10.922971 7.6137733 10.770473 7.3533368 10.617968 7.1477683 10.418923 6.9997952 10.172588 6.9583581 10.096315 6.923169 10.021457 6.8935598 9.9452199 6.8639506 9.8689475 6.841179 9.7919873 6.8234566 9.7157442c-.017683-.082167-.032733-.1693243-.0446-.2631619-.00589-.093857-.00845-.20058-.00845-.3178888zm4.6292772 0h1.776016c.230834.0000059.439432.037488.628846.1136424.195318.076272.360994.1829992.497129.3178908.142053.1349014.249757.3016302.320803.5010549.07698.1935696.11472.4074922.11472.6420981-.000005.3519383-.07038.6505036-.212441.8968391-.142053.2463493-.355369.4228432-.639469.5284202l.85191 2.8947605H13.857366L13.06918 8.1242118h-.817893v2.7704942h-.851909zm4.333936 0h.854033l1.633716 3.5368321V5H19.073v5.894681H18.425031L16.587351 6.9452036V10.894681H15.73332Zm-3.481651.8273627v1.4863422h.87952c.248589.000004.437024-.062126.567233-.1852585.136119-.1290465.203938-.3132088.20395-.5536854-.000003-.2287469-.07038-.4103569-.21244-.5452564C13.5479 5.8946228 13.362044 5.8274157 13.131211 5.827404Z"/>
</svg>
