<svg width="22" height="22" viewBox="0 0 5.821 5.821" xmlns="http://www.w3.org/2000/svg">
 <path d="m 2.7924731,5.4194205 -0.025771,0.0437 -0.0043,0.00437 -0.0086,0.013114 c -0.0043,0.00437 0,0.013104 0.0043,0.013104 l 0.098794,0.02622 v 0 l 0.094493,0.034961 c 0.0043,0.00437 0.01289,0 0.01289,-0.00876 l 0.0086,-0.1179899 v 0 l 0.0043,-0.074295 v -0.00437 C 2.9642854,5.2358513 2.9084518,5.1587987 2.9084518,5.1587987 v 0 c 0,0 -0.012884,-0.1660642 0.047259,-0.2665834 0.021481,-0.043701 0.1460472,-0.1005146 0.2104705,-0.02622 0.068723,0.07866 0.1889959,0.1966562 0.1889959,0.1966562 v 0 c 0,0 0.1374574,0.048379 0.2061755,0.070223 h 0.0043 c 0.073023,0.03496 0.1159724,0.07866 0.1718164,0.1354724 0.0043,0.00437 0.01289,0.00437 0.017181,0 l 0.034362,-0.03496 c 0.064433,-0.065556 0.1159722,-0.083036 0.2018805,-0.096151 h 0.0043 c 0.1331623,0 0.2663142,-0.013104 0.3865922,-0.07866 h 0.0043 c 0.098811,-0.074293 0.167532,-0.1704361 0.2749251,-0.23162 0,0 0.0043,0 0.0043,-0.00437 0.098795,-0.021854 0.1932909,-0.03496 0.2877887,-0.074295 0.0086,-0.00437 0.0086,-0.017481 0,-0.017481 -0.021481,-0.00437 -0.064433,-0.03496 -0.064433,-0.03496 v 0 c 0,0 -0.085899,-0.1092624 -0.1417417,-0.1573313 v -0.00437 c -0.077335,-0.04371 -0.2405657,-0.06993 -0.2405657,-0.06993 v 0 c 0,0 -0.094494,-0.09614 -0.042953,-0.1616925 v -0.00436 C 4.5750825,4.2063846 4.7254244,4.1932757 4.8542921,4.1320964 h 0.0043 C 4.9359012,4.0752812 5.0819523,3.9441733 5.0819523,3.9441733 v 0 l 0.064433,-0.030596 C 5.2537791,3.8654921 5.322497,3.6362329 5.3955206,3.548829 v 0 c 0.081614,-0.113624 0.1116776,-0.2097715 0.1245622,-0.3452439 0,-0.00876 -0.01289,-0.013114 -0.017181,-0.00876 -0.073023,0.065556 -0.1589317,0.074294 -0.2362502,0.00437 v -0.00437 C 5.2065181,3.0986895 5.2279891,2.9981734 5.2838335,2.9063977 v 0 c 0.055842,-0.083035 0.098795,-0.452445 0.098795,-0.452445 v 0 c 0,0 -0.030071,-0.6007299 0.1675215,-0.6968774 0.0086,-0.00438 0.0086,-0.017481 0,-0.021854 L 5.490023,1.7046319 h -0.0043 l -0.085906,-0.02622 v 0 c 0,0 -0.2233656,-0.00876 -0.3479277,0.043701 v 0.00437 C 4.9402181,1.7876642 4.7254424,1.9979338 4.5837007,1.9149016 v -0.00438 c -0.081616,-0.083036 -0.034362,-0.1791796 0.060132,-0.2185045 0.0086,0 0.0086,-0.013114 0,-0.017481 -0.1804059,-0.083039 -0.2963782,0.017477 -0.4596049,0.1136198 h -0.0043 c -0.064433,0.017481 -0.094493,0.013115 -0.1460471,-0.030594 h -0.0043 C 3.9608576,1.6701635 4.0038099,1.6089758 4.0467631,1.5172001 v -0.00437 C 4.0768261,1.3817238 4.0682361,1.3738946 4.0123931,1.2558987 3.9135981,1.0679756 3.9178981,0.89935759 3.9178981,0.89935759 v 0 c 0,0 0.034362,-0.0436998 0.060133,-0.0611796 0.0086,-0.004374 0.0086,-0.0174797 0,-0.0174797 l -0.021481,-0.004374 h -0.0043 c -0.094495,0 -0.2233654,0.0655555 -0.2233654,0.0655555 v 0 c 0,0 -0.1761113,0.33871771 -0.2963784,0.28190581 l -0.0043,-0.00438 C 3.3466016,1.0851182 3.3079497,1.0642756 3.2778749,0.95939404 v -0.004374 C 3.2392021,0.79769836 3.0673835,0.38915833 3.0673835,0.38915833 v 0 c 0,0 -0.1030899,-0.0655555 -0.150342,-0.11799582 -0.0043,-0.00875 -0.01289,-0.00875 -0.01289,0 -0.047252,0.0524403 -0.150342,0.11799582 -0.150342,0.11799582 v 0 L 2.5218542,1.0293182 v 0 c 0,0 -0.068722,0.073286 -0.128857,0.1301023 0,0 -0.0043,0 -0.0043,0.00438 -0.073023,0.03496 -0.1116774,0.021855 -0.1889958,-0.00874 v -0.00438 C 2.1266725,1.0982303 1.9677406,0.82505768 1.9677406,0.82505768 v 0 c 0,0 -0.081616,-0.00875 -0.1245727,-0.004374 -0.0086,0 -0.01289,0.0131153 -0.0043,0.0174797 l 0.025771,0.0174797 v 0 c 0,0 0.081616,0.0995072 0.068723,0.19128602 v 0.00438 c -0.030077,0.09614 -0.077319,0.1128146 -0.1245672,0.2045902 -0.077314,0.1573313 -0.064433,0.1870088 0.0043,0.3487118 0.021481,0.048075 0.017181,0.07866 -0.0043,0.1267394 v 0.00437 C 1.7014126,1.8711965 1.4694573,1.6876493 1.4694573,1.6876493 v 0 c 0,0 -0.1889961,-0.061179 -0.2920837,-0.013114 -0.0086,0.00438 -0.0086,0.017481 0,0.017481 0.068723,0.030595 0.1073822,0.083037 0.094494,0.1616926 v 0.00437 c -0.051543,0.1267394 -0.1932904,0.074295 -0.28778831,0.030595 h -0.0043 L 0.76930915,1.7264677 v -0.00438 c -0.0730236,-0.026225 -0.20617547,-0.05682 -0.20617547,-0.05682 v 0 c 0,0 -0.19329083,0.021855 -0.29208368,0.074295 -0.0086,0 -0.0086,0.013114 0,0.017481 0.1975857,0.09614 0.16322663,0.6968774 0.16322663,0.6968774 v 0 c 0,0 0.042952,0.3694147 0.098795,0.4524469 h 0.0043 c 0.055843,0.091776 0.0773142,0.1879231 0.0171806,0.2884318 0,0 0,0.00437 -0.0043,0.00437 -0.0773142,0.06992 -0.15893175,0.06118 -0.2319553,-0.00437 -0.0086,-0.00437 -0.0171805,0 -0.0171805,0.00876 0.0043,0.074294 0.0171805,0.1354724 0.042952,0.2053997 v 0.00437 c 0.0644338,0.1354669 0.25772456,0.4652519 0.25772456,0.4652519 v 0 l 0.19758572,0.1092524 v 0 L 1.0313339,4.1626417 v 0 l 0.3436327,0.1616961 v 0 l -0.2104703,0.170436 v 0 c 0,0 -0.1245621,0.065556 -0.18040613,0.1311007 -0.042952,0.056816 -0.0601326,0.091776 -0.11597239,0.1048857 -0.0086,0 -0.012891,0.013114 0,0.017481 0.0944948,0.039336 0.18899592,0.052439 0.28778872,0.074294 0,0.00437 0,0.00437 0.0043,0.00437 0.073023,0.039336 0.1245621,0.091776 0.184701,0.1573313 0.085904,0.083036 0.1460471,0.1136241 0.2663143,0.1354724 l 0.077314,0.013115 h 0.0043 c 0.1202673,0.00876 0.2663144,-0.00437 0.343633,0.1092523 0.0043,0.00437 0.01288,0.00437 0.017182,0 C 2.1352598,5.128457 2.4015727,5.0538637 2.4015727,5.0538637 v 0 c 0,0 0.1589318,-0.1092524 0.2190707,-0.2010281 0.038662,-0.05244 0.1374574,-0.061179 0.1374574,-0.061179 v 0 c 0,0 0.064433,0.113624 0.042953,0.2010279 v 0.00437 c -0.01289,0.07866 0,0.2185046 0,0.2185046 v 0 c 0,0 -0.0086,0.062942 -0.0086,0.2037918 v 0 z" fill="#fff" fill-rule="evenodd" stroke="#006747" stroke-linecap="round" stroke-linejoin="round" stroke-width=".265" style="stroke:#006747;stroke-width:.5292;stroke-miterlimit:4;stroke-dasharray:none;stroke-opacity:1;paint-order:stroke fill markers"/>
</svg>
