<svg width="20" height="20" xmlns="http://www.w3.org/2000/svg">
 <path d="M18,0.5 C18.4142136,0.5 18.7892136,0.667893219 19.0606602,0.939339828 C19.3321068,1.21078644 19.5,1.58578644 19.5,2 L19.5,18 C19.5,18.4142136 19.3321068,18.7892136 19.0606602,19.0606602 C18.7892136,19.3321068 18.4142136,19.5 18,19.5 L2,19.5 C1.58578644,19.5 1.21078644,19.3321068 0.939339828,19.0606602 C0.667893219,18.7892136 0.5,18.4142136 0.5,18 L0.5,2 C0.5,1.58578644 0.667893219,1.21078644 0.939339828,0.939339828 C1.21078644,0.667893219 1.58578644,0.5 2,0.5 Z" stroke="#FFF" fill="#006747"/>
 <path d="M2,12 C4,10 6.66666667,9 10,9 C13.3333333,9 16,10 18,12 L18,14 C15.6666667,11.6666667 13,10.5 10,10.5 C7,10.5 4.33333333,11.6666667 2,14 L2,12 Z" fill="#FFF"/>
 <path d="M18.375,12.2328412 L18.375,15.1864633 C15.5834025,17.3187526 12.7898047,18.375 10,18.375 C7.21019534,18.375 4.41659749,17.3187526 1.625,15.1864633 L1.625,12.2328412 C4.41699423,14.486469 7.20637464,15.625 10,15.625 C12.7936254,15.625 15.5830058,14.486469 18.375,12.2328412 Z" stroke="#006747" stroke-width=".75" fill="#FFF"/>
 <path d="M3.59948249,2.1248016 C4.25492782,1.65980024 4.70321751,1.58377813 5.07941518,1.65373388 C5.33864431,1.70192895 5.60278377,1.71058331 5.86633769,1.7205535 C6.23080075,1.73434105 6.59408322,1.75090722 6.94673451,1.84043649 C7.27765204,1.9126151 7.42681596,1.87291765 7.54232829,1.83772061 C8.81435743,1.97097128 9.42805449,2.02530568 9.76404151,2.03202985 L9.87776238,2.03238083 C10.0310474,2.02974314 10.1115172,2.01327945 10.1869141,1.98856156 C11.7698662,2.21688332 11.9121845,2.10784598 12.2277065,2.17051697 C12.5477357,2.26953853 12.6714258,2.35777491 12.8149819,2.30236432 C13.8435435,2.36817381 14.0160837,2.58700663 14.1611012,2.74282879 C14.4234368,2.999663 14.538197,3.16513967 14.6515624,3.32907783 C14.7822182,3.51801971 14.902421,3.71517173 15.1500931,3.83401441 C15.8061176,4.00530202 16.0247525,4.08438716 16.2092873,4.26658409 C16.52161,4.74284697 16.5832341,4.89163559 16.7040325,4.98506974 C17.2039436,5.2783245 17.3593333,5.47250735 17.3741459,5.76102745 C17.005796,6.46752379 16.9802136,6.59761007 16.9852099,6.71510867 C15.9538632,7.9270034 15.6194614,7.75416157 15.1939292,7.47562508 C15.0069636,7.34524515 14.8831095,7.16413391 14.6955004,7.24784801 C13.9387628,6.90493021 13.5185666,6.61269384 13.2091252,6.36064952 L13.125,6.291 L13.1486047,6.31401169 C13.3140774,7.61151024 13.1644761,8.20606359 13.0199095,8.67298207 L12.9911582,8.76483443 C12.7457688,9.70991425 12.7508933,10.1691844 12.936022,10.7557142 C13.0741774,11.1898719 13.1572282,11.4514082 13.2257866,11.7170178 C13.2654492,11.8705847 13.302522,13.053906 12.9343807,13.8743543 C12.8123057,14.1464135 12.6475503,14.3784062 12.4400214,14.5393005 C12.2351752,14.698115 11.9889223,14.7932159 11.6927312,14.7932159 C10.7679174,14.4419443 10.6490966,14.2237763 10.5324168,13.9946192 C10.2417377,13.4237302 10.1511701,12.6013605 10.1019458,12.0830161 C9.96076515,11.4826092 9.81637423,11.0724623 9.57067778,10.8190375 C8.6019628,11.0848401 8.47252791,11.2403293 8.45748291,11.4629894 C8.44304829,11.6764386 8.39251019,11.9049174 8.30505273,12.1017909 C7.39962829,12.6797766 6.99759215,12.612526 6.59956305,12.5373341 C6.22766017,11.2744031 6.33466228,10.9937379 6.38650184,10.9158603 C7.11568254,10.0101388 7.25516427,9.78492428 7.35102424,9.62836805 C7.48188404,9.4198327 7.46559871,9.23295141 7.46253499,9.0484242 C7.50263782,8.30189454 7.54476501,8.02770459 7.44194429,7.76034643 C7.0803288,6.59970006 7.12434034,6.42334618 7.00159035,6.30059618 C6.7284969,5.75756315 6.45181651,5.72156255 6.0174684,5.64553253 C5.56915862,5.56702311 5.24036755,5.36224847 4.89968493,5.13907989 C4.47056053,4.87512784 4.2724836,4.88831398 4.07827147,4.9126218 C3.7963064,4.94791287 3.526376,4.96242794 3.28263736,4.85710149 C3.08238489,4.77056667 2.88729358,4.61064355 2.72730118,4.28893908 C3.70068233,3.46871387 4.11182747,3.36343496 4.34920765,3.31059976 C3.73097553,2.67948097 3.61408922,2.54310897 3.59948249,2.1248016 Z" stroke="#006747" stroke-width=".75" fill="#FFF"/>
 <path d="M2,13 C4.66666667,15 7.33333333,16 10,16 C12.6666667,16 15.3333333,15 18,13 L18,15 C16,17 13.3333333,18 10,18 C6.66666667,18 4,17 2,15 L2,13 Z" fill="#FFF"/>
</svg>
