<svg width="25" height="20" viewBox="0 0 6.615 5.292" xmlns="http://www.w3.org/2000/svg">
 <path style="color:#000;fill:#003f87;stroke:#fff;stroke-width:.5292;stroke-linecap:round;stroke-linejoin:round;stroke-miterlimit:4;stroke-dasharray:none;stroke-opacity:1;paint-order:markers stroke fill" d="m 0.45426449,1.323 c 0.14862687,0.2405876 0.22886524,0.4848041 0.24031051,0.8361773 0,0.3372235 -0.0689138,0.5682676 -0.24599544,0.8186062 -0.0996944,0.1394403 -0.18139548,0.5003287 -0.18139548,0.7173142 0,0.2927699 0.11028158,0.6009625 0.30646052,0.7767458 C 0.76982327,4.6476268 1.0568547,4.7628 1.4062043,4.7628 h 1.4454809 c 0.1337457,0 0.2575313,-0.0071 0.3400523,0.1038761 6.589e-4,6.88e-4 9.049e-4,0.00135 0.00155,0.00206 L 3.3069832,5.0274 3.4222289,4.8687435 c -4.8e-6,-7.145e-4 -4.8e-6,-0.00135 0,-0.00206 C 3.5047545,4.7556942 3.6300856,4.7627934 3.7638316,4.7628 H 5.2108629 C 5.5587842,4.7628175 5.846843,4.6477167 6.0434227,4.4718435 6.2399986,4.2959673 6.3504,3.9876551 6.3504,3.6950977 6.3504,3.4764445 6.2710931,3.1225028 6.1721051,2.9798508 5.9883626,2.7313507 5.917841,2.4963715 5.917841,2.1591773 5.9201117,1.8813879 6.0017374,1.5810086 6.1529836,1.323 Z"/>
 <path style="fill:#bf2033;fill-rule:evenodd;stroke:#fff;stroke-width:.5292;stroke-linejoin:round;paint-order:stroke fill markers;stroke-miterlimit:4;stroke-dasharray:none" d="M 1.5689954,0.2661504 0.2646,1.0584 0.27442,1.069253 c 7.002e-4,7e-4 0.00142,0.00135 0.00207,0.00207 0.067593,0.086231 0.1265388,0.1687372 0.1777781,0.2516801 H 6.1529835 C 6.2062208,1.232182 6.2678321,1.1466036 6.3379969,1.0692527 l 0.00982,-0.00879 0.00258,-5.168e-4 -1.3012946,-0.79069923 -0.012403,0.007752 c 6.3e-6,5.1401e-4 6.3e-6,0.001037 0,0.00155 -0.2336323,0.15610487 -0.5473799,0.2465121 -0.8718364,0.2465121 -0.4101586,0 -0.7013559,-0.14262162 -0.8418619,-0.22687383 l -0.014987,-0.007752 -0.00982,0.004651 -0.00258,0.00155 c -0.1398217,0.0859536 -0.4329702,0.22532341 -0.844446,0.22532341 -0.3261158,0 -0.6344671,-0.0902669 -0.8671852,-0.2449617 z"/>
</svg>
