<svg width="20" height="20" xmlns="http://www.w3.org/2000/svg">
 <path d="m 14.159828,18.999598 c -0.23704,0 -0.02994,-0.374013 0.245906,-0.869615 0.395447,-0.663209 0.606526,-2.111584 0.142195,-2.129718 H 8.8068581 l -5.6016548,-2.36e-4 c -0.3042458,-1.2e-5 -0.3042457,0 -0.3071323,-0.284294 -0.00295,-0.284294 0.1033129,0.340381 0.1033129,-4.128961 V 7.2940894 C 2.9289665,6.9949156 2.6393924,6.728116 2.519435,6.4499722 2.4511005,6.3455755 2.4386314,6.2111843 2.4386314,5.5774994 V 4.8284312 L 2.058069,4.0674634 C 1.6454796,3.2424614 1.4717764,2.8151939 1.4177273,2.4924704 1.3986801,2.3787071 1.2905034,2.100941 1.177339,1.8752211 0.93430962,1.3904485 1.1396372,0.99999912 1.3693728,0.99999912 H 14.650335 c 0.108333,0 0.356998,0.11259488 0.390233,0.26658318 0.0974,0.4513908 -0.07805,0.5067555 0.0916,0.8736118 0.212466,0.459373 0.07501,0.5731951 0.228587,0.8120616 0.09239,0.143797 0.27485,0.4598148 0.405373,0.7022747 0.130523,0.2424599 0.311423,0.5635046 0.401996,0.713438 0.182088,0.3014083 0.32778,0.7020587 0.401986,1.1054288 0.04467,0.2426661 0.193045,0.5414431 0.445117,0.8961347 0.137071,0.1928781 0.52163,0.9680724 0.63286,1.2757054 0.08385,0.2317876 0.09327,0.3915687 0.103503,1.7401447 0.0069,0.877136 0.03377,1.617859 0.06627,1.809736 0.0702,0.413875 0.342301,1.200714 0.488935,1.413808 0.09278,0.134794 0.111191,0.213948 0.103719,0.4455 -0.0069,0.205072 0.01865,0.343773 0.09317,0.510447 0.300466,0.672683 0.388515,0.921573 0.41472,1.172281 0.04104,0.392167 -3.44e-4,0.545174 -0.25703,0.951676 -0.124583,0.197296 -0.248871,0.447503 -0.276186,0.556013 -0.118122,0.469064 -0.305777,0.774802 -0.618584,1.007797 -0.176943,0.131799 -0.323205,0.634176 -0.409222,0.856832 -0.04693,0.121343 -0.148981,0.271021 -0.150817,0.49143 -0.0039,0.427356 0.02936,0.398696 -0.399001,0.398696 h -2.647727 z" style="stroke:#000;stroke-width:2;stroke-miterlimit:4"/>
 <path d="m 14.159828,18.999598 c -0.23704,0 -0.02994,-0.374013 0.245906,-0.869615 0.395447,-0.663209 0.606526,-2.111584 0.142195,-2.129718 H 8.8068581 l -5.6016548,-2.36e-4 c -0.3042458,-1.2e-5 -0.3042457,0 -0.3071323,-0.284294 -0.00295,-0.284294 0.1033129,0.340381 0.1033129,-4.128961 V 7.2940894 C 2.9289665,6.9949156 2.6393924,6.728116 2.519435,6.4499722 2.4511005,6.3455755 2.4386314,6.2111843 2.4386314,5.5774994 V 4.8284312 L 2.058069,4.0674634 C 1.6454796,3.2424614 1.4717764,2.8151939 1.4177273,2.4924704 1.3986801,2.3787071 1.2905034,2.100941 1.177339,1.8752211 0.93430962,1.3904485 1.1396372,0.99999912 1.3693728,0.99999912 H 14.650335 c 0.108333,0 0.356998,0.11259488 0.390233,0.26658318 0.0974,0.4513908 -0.07805,0.5067555 0.0916,0.8736118 0.212466,0.459373 0.07501,0.5731951 0.228587,0.8120616 0.09239,0.143797 0.27485,0.4598148 0.405373,0.7022747 0.130523,0.2424599 0.311423,0.5635046 0.401996,0.713438 0.182088,0.3014083 0.32778,0.7020587 0.401986,1.1054288 0.04467,0.2426661 0.193045,0.5414431 0.445117,0.8961347 0.137071,0.1928781 0.52163,0.9680724 0.63286,1.2757054 0.08385,0.2317876 0.09327,0.3915687 0.103503,1.7401447 0.0069,0.877136 0.03377,1.617859 0.06627,1.809736 0.0702,0.413875 0.342301,1.200714 0.488935,1.413808 0.09278,0.134794 0.111191,0.213948 0.103719,0.4455 -0.0069,0.205072 0.01865,0.343773 0.09317,0.510447 0.300466,0.672683 0.388515,0.921573 0.41472,1.172281 0.04104,0.392167 -3.44e-4,0.545174 -0.25703,0.951676 -0.124583,0.197296 -0.248871,0.447503 -0.276186,0.556013 -0.118122,0.469064 -0.305777,0.774802 -0.618584,1.007797 -0.176943,0.131799 -0.323205,0.634176 -0.409222,0.856832 -0.04693,0.121343 -0.148981,0.271021 -0.150817,0.49143 -0.0039,0.427356 0.02936,0.398696 -0.399001,0.398696 h -2.647727 z" style="fill:#fff"/>
</svg>
