<svg width="22" height="20" xmlns="http://www.w3.org/2000/svg">
 <path style="fill:#fff;stroke-width:2;stroke:#000;stroke-miterlimit:4;stroke-dasharray:none;stroke-linejoin:round;stroke-linecap:round;paint-order:markers stroke fill" d="M 1.4382933,7.0146942 C 1.4382933,6.3836776 1.1961244,5.6502761 1,5.0908161 V 2.3041522 L 2.01275,1 c 1.3262364,0.3969073 2.7745051,0.8256903 4.295888,0.8256903 1.6795247,0 3.2695829,-0.3474821 4.688336,-0.8256903 1.42284,0.4816772 3.018505,0.8319984 4.704455,0.8319984 C 17.223278,1.8319984 18.679031,1.3971528 20,1 l 1.000456,1.3043976 v 2.7864185 c -0.19621,0.5594764 -0.438768,1.2929434 -0.438768,1.9239927 0,0.780274 0.145468,1.5197952 0.43854,2.1840052 -6.28e-4,4.771716 -4.132089,8.323583 -9.937422,9.786459 -0.02344,0.0082 -0.01889,0.0041 -0.06323,0.01473 -0.08144,-0.02684 -0.087,-0.02504 -0.149056,-0.045 C 5.10575,17.472489 1,13.93876 1,9.198814 1.2932611,8.534981 1.4382933,7.7948947 1.4382933,7.0146942 Z"/>
 <path style="fill:none;stroke:#000;stroke-width:1px;stroke-linecap:butt;stroke-linejoin:miter;stroke-opacity:1" d="m 0.5,4.5 h 21"/>
</svg>
