<svg width="22" height="21" xmlns="http://www.w3.org/2000/svg">
 <g fill="none" fill-rule="evenodd">
  <path stroke="#FFF" d="M10.9888705,1.53541164 C12.4932905,2.17213039 15.6549806,3.87611026 18.0538816,8.07193788 C19.311349,10.2705988 20.4865793,13.351667 20.4635207,15.9366539 L20.4952729,16.5917888 C20.5014614,16.8224065 20.5007132,17.0099295 20.4978836,17.1483271 L19.6146601,17.587847 C17.9917962,18.3189203 14.7868092,19.5 11.0005286,19.5 C6.74015838,19.5 3.21513315,18.0067865 1.85323088,17.3403669 L1.52154499,16.1815027 C1.53204122,15.9896301 1.54713988,15.7788513 1.56842789,15.5510978 L1.69152238,14.7185312 C2.07673476,12.2857243 2.64277057,10.3462577 3.94316334,8.07092597 C6.60805142,3.40953244 10.1920991,1.83760152 10.9888705,1.53541164 Z" stroke-linejoin="square" fill="#F38F00"/>
  <path stroke="#000" d="M10.8553487,0.522191046 C12.7064083,1.1499044 16.2583722,2.91672937 18.9219393,7.57547464 C20.2554561,9.90710666 21.4793665,13.1747632 21.4636972,15.9160756 L21.4946142,16.5539789 C21.5112777,17.1582891 21.4840083,17.5025726 21.4840083,17.5025726 L20.0431555,18.491591 C18.348598,19.2568847 14.9806692,20.5 11.0005286,20.5 C6.52368045,20.5 2.82089975,18.9284912 1.4020398,18.2328833 L0.513021913,17.7692982 L0.521689379,16.1518789 C0.533269482,15.9341385 0.55043236,15.6929746 0.575318901,15.430959 L0.703827367,14.5621389 C1.10885219,12.0042067 1.70795868,9.9665959 3.07501927,7.5746137 C6.32347976,1.8924416 10.8553487,0.522191046 10.8553487,0.522191046 Z"/>
  <path d="M9.5,4.5 C9.65429043,4.74920128 9.73143564,4.87380192 9.73143564,4.87380192 C9.95761139,4.94129393 10.0989712,4.98347644 10.1555152,5.00034944 L10.1837871,5.00878594 C10.1346947,5.3272098 10.1101485,5.48642173 10.1101485,5.48642173 C10.4855611,5.73668797 10.6732673,5.86182109 10.6732673,5.86182109 C10.6673267,6.26886465 10.6637624,6.51309078 10.6625743,6.5944995 L10.6621287,6.62502776 C10.6481023,6.7011726 10.6375825,6.74270614 10.6305693,6.7496284 C11.4230611,6.83269549 11.8193069,6.87422904 11.8193069,6.87422904 C11.9525578,7.0126742 12.0191832,7.08189677 12.0191832,7.08189677 C12.2015264,6.99190742 12.292698,6.94691275 12.292698,6.94691275 C12.3983086,7.5940513 12.4511139,7.91762058 12.4511139,7.91762058 C12.6615099,7.95223187 12.7667079,7.97299864 12.7667079,7.9799209 L12.9737584,8.1875701 C13.5989096,7.73857031 14.0243235,7.51880406 14.25,7.52827134 C14.824506,7.55237227 16.074506,7.87628182 18,8.5 C15.8984622,8.29681084 14.6344358,8.19267372 14.2079208,8.18758863 C13.6419403,8.18084077 13.0919145,8.29231804 13.0928218,8.29142249 C12.7603135,8.50608652 12.5870462,8.6099574 12.5730198,8.60303514 L12.1627475,8.60303514 C11.6367574,8.22923323 11.3737624,8.04233227 11.3737624,8.04233227 C11.2405116,8.11155485 11.1738861,8.14616613 11.1738861,8.14616613 C11.2860974,8.39536741 11.342203,8.51996805 11.342203,8.51996805 C11.307137,8.69994675 11.2931106,8.7899361 11.3001238,8.7899361 C11.6879125,8.98748669 11.8783003,9.08972311 11.8712871,9.09664537 C11.8993399,9.22816826 11.9098597,9.29392971 11.9028465,9.29392971 C12.022071,9.36315229 12.0851898,9.39776358 12.092203,9.39776358 C12.3413779,9.55644302 12.4659653,9.63578275 12.4659653,9.63578275 C12.5501238,9.52502662 12.592203,9.46964856 12.592203,9.46964856 C12.7254538,9.47657082 12.7920792,9.48003195 12.7920792,9.48003195 C12.7640264,9.65308839 12.75,9.74307774 12.75,9.75 C12.9463696,9.68077742 13.0410479,9.64270501 13.0340347,9.63578275 C13.2757838,9.89936102 13.3966584,10.0311502 13.3966584,10.0311502 C13.557962,10.079606 13.6386139,10.1038339 13.6386139,10.1038339 C14.5391914,10.0346113 14.9929868,10 15,10 L15.1597222,10.0798611 L15.6597222,10.3298611 C15.6921296,10.3460648 15.7222222,10.3611111 15.75,10.375 L15.8888889,10.4444444 C15.962963,10.4814815 16,10.5 16,10.5 C16.1596535,10.9172803 16.2429868,11.1259205 16.25,11.1259205 C16.554868,11.3406955 16.707302,11.4480831 16.707302,11.4480831 C16.939739,11.3774914 17.0973944,11.3296111 17.1802682,11.3044421 C17.4119871,11.2340686 17.5278465,11.1988818 17.5278465,11.1988818 C17.8644802,11.1919595 18.032797,11.1884984 18.032797,11.1884984 C18.3437156,11.3123299 18.5337214,11.3859109 18.6028144,11.4092415 L18.625,11.416 L18.5116124,11.4144993 C18.2485078,11.4091994 18.1169554,11.4065495 18.1169554,11.4065495 C18.5377475,11.607295 18.7481436,11.7076677 18.7481436,11.7076677 C19.0043317,12.0051027 19.1324257,12.1538202 19.1324257,12.1538202 C19.3811881,11.8909965 19.5055693,11.7561235 19.5055693,11.7492013 C19.3690182,12.0950921 19.3042492,12.2714986 19.3112624,12.2784208 L19.595297,12.2784208 C19.9108911,12.1953537 20.0686881,12.1572813 20.0686881,12.1642036 C19.9003713,12.3164933 19.8162129,12.3995603 19.8162129,12.4134049 C19.5497112,12.4826274 19.4164604,12.5206999 19.4164604,12.5276221 C19.0517739,12.5068553 18.8694307,12.4930108 18.8694307,12.4860886 C19.0517739,12.631456 19.1429455,12.7110619 19.1429455,12.7249065 C18.9606023,12.7041397 18.8659241,12.6937563 18.8589109,12.6937563 C18.8518977,12.8114347 18.8483911,12.8668127 18.8483911,12.8598905 C18.5468234,12.6729895 18.3960396,12.579539 18.3960396,12.579539 C18.190653,12.5844835 18.0586187,12.5876621 17.9999369,12.5890748 L17.9647277,12.5899224 C17.6140677,12.4376328 17.4387376,12.3614879 17.4387376,12.3614879 C17.5048621,12.4504884 17.556817,12.5204173 17.5946024,12.5712747 L17.6512806,12.6475608 C17.6638757,12.6645133 17.6701733,12.6729895 17.6701733,12.6729895 C17.9857673,12.7491344 18.1435644,12.7872068 18.1435644,12.7872068 C17.8279703,12.8356626 17.6666667,12.8564294 17.6596535,12.8495071 C17.4422442,12.7041397 17.3335396,12.631456 17.3335396,12.631456 C17.2283416,12.5414666 17.1792492,12.496472 17.1862624,12.496472 C17.0530116,12.5726168 16.9863861,12.6106892 16.9863861,12.6106892 C16.7970297,12.5206999 16.7023515,12.4791663 16.7023515,12.4860886 C16.5691007,12.4030215 16.4989686,12.3614879 16.4919554,12.3614879 C16.2885726,12.6176115 16.1903878,12.7456732 16.197401,12.7456732 C16.0323845,12.8497292 15.9498762,12.9017572 15.9498762,12.9017572 C15.7394802,13.1025027 15.6342822,13.2028754 15.6342822,13.2028754 C15.4358498,13.4792332 15.3366337,13.613951 15.3366337,13.6070288 C15.1192244,14.2023429 15.0070132,14.5 15,14.5 C14.9179043,14.8328009 14.8768564,14.9992013 14.8768564,14.9992013 C14.5761139,15.2862087 14.4257426,15.4297125 14.4257426,15.4297125 L13.6262376,15.4297125 C13.5420792,15.9765708 13.5,16.25 13.5,16.25 C12.9929868,16.4166667 12.7429868,16.5 12.75,16.5 C12.4764851,16.7838126 12.3397277,16.9257188 12.3397277,16.9257188 C11.9820545,17.4448882 11.8032178,17.6975506 11.8032178,17.6837061 C11.6278878,17.600639 11.5402228,17.5591054 11.5402228,17.5591054 C11.4841172,17.7094173 11.4440417,17.8167829 11.4199965,17.8812023 L11.3929455,17.9536741 C10.7419554,17.984558 10.4164604,18 10.4164604,18 C10.1429455,17.9930777 10.0061881,17.9896166 10.0061881,17.9896166 C10.1604785,17.7404153 10.2411304,17.6192758 10.2481436,17.6261981 C10.5216584,17.4254526 10.6584158,17.3250799 10.6584158,17.3250799 C10.7706271,17.3181576 10.8267327,17.3216187 10.8267327,17.3354633 C10.8898515,17.1900958 10.9214109,17.1174121 10.9214109,17.1174121 C11.3842822,16.7782215 11.6157178,16.6051651 11.6157178,16.5982428 C11.8822195,16.3905751 12.0154703,16.2832801 12.0154703,16.2763578 C11.9032591,16.2209798 11.8471535,16.1932907 11.8471535,16.1932907 C11.7068894,16.3455804 11.6367574,16.4217252 11.6367574,16.4217252 L11.0686881,16.4217252 C10.542698,16.4355698 10.279703,16.442492 10.279703,16.442492 C10.1674917,16.5255591 10.1113861,16.5670927 10.1113861,16.5670927 C9.53712871,16.3728993 9.25,16.2723414 9.25,16.2654192 C9.28506601,15.6078047 9.30259901,15.2789975 9.30259901,15.2789975 C9.2394802,15.0609463 9.20003094,14.9246644 9.18425124,14.8701516 L9.17636139,14.8428952 C9.11324257,14.5106268 9.08168317,14.3410315 9.08168317,14.3341093 C8.69513201,14.4103879 8.50185644,14.4450661 8.50185644,14.4381439 C8.39665842,14.6458116 8.34405941,14.7496455 8.34405941,14.7496455 C7.37953795,14.3960779 6.89727723,14.219294 6.89727723,14.219294 C6.63242574,14.2397647 6.5,14.25 6.5,14.25 C6.85231023,14.7924077 7.02846535,15.0636116 7.02846535,15.0636116 C7.2879538,15.1466787 7.41769802,15.1847511 7.41769802,15.1778288 C7.66316007,15.6485424 7.78589109,15.8838991 7.78589109,15.8838991 C7.20379538,15.6485424 6.91274752,15.530864 6.91274752,15.530864 C6.70936469,15.558553 6.60767327,15.5723975 6.60767327,15.5723975 C6.36922442,15.1778288 6.25,14.9805445 6.25,14.9805445 C5.72619048,14.466926 5.40816327,14.1550861 5.29591837,14.045025 L5.25510204,14.0050028 C5.34117162,13.7715655 5.38675743,13.6573482 5.38675743,13.6573482 C5.54806106,13.5742812 5.62871287,13.5327476 5.62871287,13.5327476 C6.45605061,13.5461306 6.92487532,13.5537144 7.03518702,13.5554988 L7.06064356,13.5559105 C7.49546205,13.542066 7.71287129,13.5351438 7.71287129,13.5351438 C7.38325083,12.9259851 7.21493399,12.6214058 7.20792079,12.6214058 C7.20090759,12.6214058 7.2464934,12.4068158 7.34467822,11.9776358 L6.90284653,11.634984 L6.70712549,11.3617007 L6.47153465,11.0327476 C6.15717822,10.7522296 6,10.6119706 6,10.6119706 C4.83333333,11.4685537 4.25,11.8968453 4.25,11.8968453 C3.75,11.554212 3.5,11.3828954 3.5,11.3828954 C4.30280528,9.57118877 4.70420792,8.66187433 4.70420792,8.65495208 C4.92863036,8.57188498 5.04434818,8.52689031 5.05136139,8.51996805 C5.107467,8.38844515 5.1355198,8.32268371 5.1355198,8.32268371 C5.3785066,8.2742279 5.5,8.25 5.5,8.25 C5.83333333,7.76384452 6,7.51384452 6,7.5 L6,8.25 C6.18770627,8.27595847 6.31675433,8.29380491 6.38714418,8.30353934 L6.45049505,8.31230032 C6.29620462,8.44382322 6.27516502,8.50958466 6.38737624,8.50958466 C7.36922442,8.4542066 7.86014851,8.42651757 7.86014851,8.42651757 C7.81526403,8.47082002 7.77935644,8.50626198 7.75242574,8.53284345 L7.69856436,8.58600639 C8.07054455,8.67571885 8.25990099,8.7172524 8.25990099,8.7172524 C8.13366337,8.80031949 8.06703795,8.84185304 8.06002475,8.84185304 C8.39665842,8.814164 8.56497525,8.80031949 8.56497525,8.80031949 C8.42471122,8.93876464 8.3282797,9.03394569 8.27568069,9.08586262 L8.22834158,9.13258786 C8.38864333,9.08314316 8.49169445,9.05135728 8.53749495,9.03723023 L8.56497525,9.02875399 C8.72627888,8.86954207 8.80693069,8.7899361 8.80693069,8.7899361 C9.22772277,8.73455804 9.43811881,8.70340788 9.43811881,8.69648562 C9.62046205,8.7172524 9.71163366,8.72763578 9.71163366,8.72763578 C9.48019802,8.51304579 9.3679868,8.4057508 9.375,8.4057508 C9.29867987,7.80191693 9.2570132,7.5 9.25,7.5 C8.9009901,7.22126452 8.72648515,7.08189677 8.72648515,7.08189677 L8.57401296,7.06470856 L8.32288229,7.03639857 C8.28700648,7.03235428 8.25412032,7.02864702 8.22422381,7.02527678 L8.00896895,7.00101107 L8.10493827,6.89506173 L8.49382716,6.50617284 L8,6 L8,5 C9,4.66666667 9.5,4.5 9.5,4.5 Z M12.7518564,13.4209265 L11.605198,14.0646965 C10.8337459,14.5146432 10.4480198,14.7396166 10.4480198,14.7396166 C10.4826733,15.4141851 10.5,15.7514693 10.5,15.7514693 C10.9444444,15.8278486 11.2407407,15.8772298 11.3888889,15.899613 L11.4722222,15.9113383 C11.4907407,15.9135593 11.5,15.914093 11.5,15.9129393 C11.7075139,15.8421047 11.7951789,15.7590376 11.762995,15.663738 C11.7147192,15.5207887 12.25,15.2396166 12.25,15.25 C12.3333333,15.2083333 12.40625,15.171875 12.46875,15.140625 L12.625,15.0625 C12.7083333,15.0208333 12.75,15 12.75,15 L12.7502393,14.796475 L12.7508581,14.2701171 C12.7509186,14.218651 12.7509763,14.1695243 12.7510314,14.122737 L12.7518564,13.4209265 Z M13.7512376,14.1166134 L13.5829208,14.3554313 L13.4987624,14.6253994 L13.7512376,14.6253994 L13.9511139,14.4488818 L13.7512376,14.1166134 Z M10.174505,9.28833866 L8.75433168,9.40255591 C8.75433168,9.40255591 8.90862211,9.52369542 9.21720297,9.76597444 L9.9009901,9.76597444 L9.9009901,9.61022364 L10.174505,9.61022364 L10.5847772,9.98402556 L10.174505,9.28833866 Z" fill="#003F87"/>
  <path fill="#FFF" d="M8.75 6 8.5 5.5 9.75 5.75zM11.0163934 13.1640625 11.2418033 13.3789062 11.5081967 13.7597656 11.8565574 13.4765625 11.8565574 13.3203125 11.9385246 13.4765625 12.1536885 13.4765625 12.0614754 13.59375 11.8565574 13.59375 11.5081967 13.8769531 10.7602459 14.3652344 10.6885246 14.2773438 10.9139344 14.0917969 11.0163934 13.7988281 11.0778689 13.59375 10.852459 13.3789062 10.852459 13.2324219 11.0163934 13.1640625ZM11.7540984 9.67773438 11.8463115 9.79492187 11.5389344 10 11.375 10.3320312 10.7602459 11.7871094 10.7602459 11.9921875 11.2418033 10.9179687 11.7233607 10.1171875 11.9385246 10.1757812 11.7233607 10.9667969 11.375 11.4355469 11.375 11.6210937 11.1905738 11.7285156 11.272541 12.0800781 11.1905738 12.34375 11.375 13.125 11.375 12.34375 11.5389344 13.2324219 11.375 13.3203125 11.0471311 13.125 10.545082 11.6210937 10.9856557 10.4492187 10.9856557 10.2636719 11.272541 9.79492187 11.477459 9.67773438 11.7540984 9.67773438ZM13.045082 10.0683594 13.045082 10.6640625 12.0512295 10.6640625 11.6516393 11.6503906 11.6516393 11.9921875 11.7233607 12.2363281 13.1270492 12.2363281 13.1270492 10.0683594 13.25 10.0683594 13.25 12.34375 11.7233607 12.34375 11.8668033 13.0175781 11.7540984 13.0175781 11.4672131 11.8945313 11.9385246 10.6152344 12.5737705 10.0683594 13.045082 10.0683594ZM9.63319672 10 9.63319672 12.2460938 10.6270492 12.2460938 10.6270492 12.34375 9.5 12.34375 9.5 10 9.63319672 10ZM10.7602459 10.6152344 10.3504098 11.4648438 10.545082 12.1582031 9.74590164 12.1582031 9.74590164 10.6152344 10.7602459 10.6152344ZM13.0348361 10.7714844 13.0348361 12.1582031 12.0614754 12.1582031 12.0614754 10.9472656 12.1229508 10.7714844 13.0348361 10.7714844ZM10.3811475 10 10.7602459 10.4101562 10.7602459 10.5273438 9.74590164 10.5273438 9.74590164 10 10.3811475 10Z"/>
 </g>
</svg>
