<svg xmlns="http://www.w3.org/2000/svg" width="20" height="20">
 <path fill="#693f23" stroke="#fff" stroke-width="2" d="M0 0H20V20H0z"/>
 <path fill="none" stroke-width=".8" stroke="#fff" d="M11.66 11c-.1-.96-.4-1.86-1.13-1.78-1.14.7-3.2.6-3.6-.48-.07-.16.16-.56-.44-.36-.37.17-.86-.14-.88-.39-.07-.55.02-.74-.57-.45-1.27.52-3.39-.17-2.97-1.26.51-1.46 2.65-.91 4 0 .42.36.71.19.88-.1 1.03-1.14 4.01-.76 3.52 1.45-.12.37.09.6.56.44 1.7.06 1.07 1.94.68 2.9Z"/>
 <path fill="none" stroke-width=".8" stroke="#fff" d="M.03 16c2.62-.97 5.83-2.4 8.85-5.02.88-.63 1.96.83 2.6.54 1.47-.65 1.74 0 1.97.16 4.3 4.37 3.25 1 6.53 4.03"/>
</svg>
