<svg width="20" height="20" xmlns="http://www.w3.org/2000/svg">
 <circle style="fill:#006747;fill-rule:evenodd;stroke:none;stroke-linejoin:round" cx="10" cy="10" r="9.9"/>
 <path style="color:#000;fill:#ffcd00;fill-rule:evenodd;stroke-linejoin:round;-inkscape-stroke:none" d="M 10,0 C 4.4830803,0 0,4.4830803 0,10 0,15.51692 4.4830803,20 10,20 15.51692,20 20,15.51692 20,10 20,4.4830803 15.51692,0 10,0 Z m 0,1 c 4.97648,0 9,4.0235199 9,9 0,4.97648 -4.02352,9 -9,9 C 5.0235199,19 1,14.97648 1,10 1,5.0235199 5.0235199,1 10,1 Z M 9.8535,1.7299 C 9.767235,1.73239 9.68257,1.7729845 9.62714,1.83924 L 9.588725,1.885142 h -2.04e-4 c 0.03883,-0.046422 -0.050555,0.044426 -0.10067,0.08156 -0.162535,0.12043 -0.277615,0.26482 -0.39204,0.490345 -0.117305,0.231205 -0.210785,0.41081 -0.287235,0.55025 -2.51645,0.425685 -4.5821,2.177 -5.454,4.51045 h 13.291 c -0.51595,-1.38065 -1.44985,-2.55745 -2.64775,-3.3765 -0.13934,-0.10828 -0.307195,-0.207775 -0.4474,-0.29472 l -1.76715,-1.03725 -1.76735,-1.03745 C 9.972036,1.746037 9.921616,1.731465 9.870731,1.729865 c -0.00575,-1.839e-4 -0.011585,-1.583e-4 -0.017335,0 z m 0.00788,0.30536 1.76735,1.03745 1.8142,1.0726 -0.04631,0.066075 c -0.03091,0.05575 -0.09122,0.15238 -0.13416,0.214735 l -0.07821,0.11328 -0.23207,0.11111 c -0.262075,0.125395 -0.64115,0.345195 -0.73485,0.426125 -0.11489,0.09926 -0.20572,0.258445 -0.33826,0.5932 -0.06844,0.172855 -0.18986,0.34176 -0.200485,0.37549 -0.01063,0.033735 -0.02271,0.202805 -0.0964,0.37569 -0.123845,0.290545 -0.16665,0.42484 -0.215525,0.6785 l -0.01694,0.08826 H 7.18686 L 7.17248,7.13025 C 7.12606,6.945835 7.13313,6.896495 7.205975,6.896405 7.321895,6.896252 7.384855,6.80966 7.385055,6.65015 7.385106,6.59756 7.398265,6.55822 7.43864,6.491165 7.502665,6.384845 7.50568,6.334115 7.452825,6.243925 7.417595,6.18381 7.41499,6.170345 7.43056,6.12316 7.440195,6.093975 7.45118,6.038595 7.454795,6.00003 7.463265,5.90967 7.509755,5.81922 7.569845,5.77643 7.61359,5.74528 7.62829,5.74354 7.754045,5.75338 7.914695,5.76595 7.88639,5.800355 7.99065,5.46536 8.056875,5.25257 8.06059,5.23106 8.05054,5.128085 8.03821,5.001735 7.98782,4.880565 7.85452,4.657635 7.806615,4.57752 7.763525,4.496885 7.758775,4.47836 7.74421,4.42155 7.78046,4.34536 7.875795,4.232105 7.973555,4.115965 8.087555,4.036625 8.24577,3.97462 8.369135,3.926274 8.48939,3.858215 8.611805,3.76737 8.83053,3.60506 8.950235,3.4194 9.368305,2.59537 9.47659,2.381945 9.526905,2.318015 9.669725,2.212195 9.732975,2.165331 9.801915,2.10639 9.822995,2.081185 Z m 3.74435,2.20845 c -1.53e-4,6.8e-4 0.07538,0.043496 0.07538,0.043496 l 0.07053,0.034279 -0.01084,0.302205 c -0.01167,0.327015 -0.0497,0.54665 -0.121355,0.70075 -0.0406,0.08731 -0.23343,0.36626 -0.348305,0.50375 -0.04227,0.050585 -0.09505,0.126985 -0.11722,0.16982 -0.03597,0.06951 -0.04048,0.096105 -0.04176,0.24665 -0.0017,0.199635 -0.01939,0.243345 -0.183215,0.45055 -0.0559,0.070695 -0.10924,0.1431 -0.1184,0.160955 -0.03019,0.05884 -0.09469,0.116825 -0.130025,0.116825 -0.05924,0 -0.11082,-0.03255 -0.12037,-0.076045 -0.01238,-0.05635 0.0098,-0.10592 0.07545,-0.168835 0.03184,-0.030505 0.06231,-0.07896 0.07171,-0.11387 0.01408,-0.05229 0.01154,-0.07105 -0.01793,-0.133965 -0.06545,-0.139725 -0.09179,-0.126895 -0.3158,0.152285 -0.224185,0.2794 -0.235225,0.30008 -0.235225,0.44326 v 0.1119 h -0.26064 c -0.26018,0 -0.317485,-5.1e-5 -0.31722,-0.034475 1.54e-4,-0.018975 0.0068,-0.096675 0.01478,-0.172575 0.02482,-0.235115 0.08167,-0.42279 0.21316,-0.7053 0.06673,-0.14337 0.171185,-0.37464 0.23227,-0.5138 0.22447,-0.51135 0.25506,-0.55155 0.51085,-0.6708 0.39301,-0.183275 0.6419,-0.31345 0.70075,-0.36663 0.07257,-0.06556 0.140805,-0.166435 0.247045,-0.365445 0.03798,-0.071155 0.07152,-0.143385 0.07545,-0.142395 z m -8.157,8.2365 c -1.248,2.55e-4 -2.08395,8.5e-4 -2.09435,0.0022 0.5237,1.40145 1.478,2.59275 2.70195,3.4131 0.021365,0.0226 0.043205,0.04661 0.06245,0.06935 0.041355,0.04887 0.08184,0.09359 0.11781,0.13081 0.017985,0.01861 0.03439,0.03507 0.05319,0.05201 0.0094,0.0085 0.01889,0.01709 0.033885,0.02836 0.011885,0.0089 0.020235,0.0206 0.060875,0.03744 -0.0049,-0.0025 -0.01092,-0.0052 -0.00945,-0.0053 0.00115,2.55e-4 0.00748,0.0038 0.00945,0.0053 2.555e-4,1.02e-4 3.575e-4,3.06e-4 6e-4,4.08e-4 0.0027,0.0021 0.0055,0.0041 0.0069,0.0053 0.11835,0.10391 0.19652,0.11748 0.31166,0.15386 0.06442,0.02036 0.192855,0.07081 0.23759,0.0922 0.115075,0.05502 0.10314,0.04093 0.206265,0.25788 0.02542,0.05347 0.050585,0.102775 0.07309,0.14401 0.011255,0.02062 0.02137,0.03881 0.033495,0.05812 0.00606,0.0097 0.01225,0.01935 0.02285,0.03349 0.0106,0.01413 0.0032,0.0285 0.08727,0.08137 0.0965,0.06069 0.141325,0.05371 0.18499,0.05713 0.043665,0.0034 0.081695,0.0021 0.12037,-0.0014 0.077345,-0.0069 0.14525,-0.01268 0.24744,-0.06501 0.07649,-0.03917 0.098835,-0.06481 0.13928,-0.10008 0.02946,-0.02568 0.059255,-0.05389 0.088455,-0.08353 0.014695,0.004 0.029585,0.0077 0.044325,0.01163 0.062045,0.07972 0.13711,0.16997 0.19464,0.231285 0.0029,0.003 0.00275,0.004 0.0049,0.0067 0.0018,0.01313 0.0037,0.02604 0.0069,0.03782 -0.02735,0.03828 -0.05254,0.07686 -0.07427,0.114855 -0.023915,0.04181 -0.043255,0.06026 -0.0658,0.15248 -0.037985,0.15542 -0.05958,0.23259 -0.0658,0.250985 -0.00265,0.0023 -0.00345,0.0024 -0.00827,0.0071 -0.055585,0.05462 -0.112865,0.09867 -0.159575,0.2104 -0.046715,0.11173 -0.028925,0.226885 -0.01635,0.28743 0.00544,0.0262 0.00345,0.0151 0.00275,0.01813 -0.010595,0.04595 -0.01795,0.08348 -0.02167,0.129435 -0.141185,0.11743 -0.19865,0.259805 -0.220645,0.426715 -0.0045,0.0341 -0.016755,0.116005 -0.025415,0.16765 -0.01901,0.113345 -0.09805,0.29938 -0.04449,0.435135 0.05356,0.13576 0.15588,0.22025 0.247045,0.28349 0.039005,0.02706 0.115715,0.07572 0.221435,0.07919 0.10572,0.0035 0.173025,-0.03309 0.21493,-0.05477 0.152535,-0.07888 0.302595,-0.279901 0.40403,-0.475125 0.08043,-0.154795 0.10972,-0.18941 0.329195,-0.38357 l 4.085e-4,-2.04e-4 0.12234,-0.108155 c 0.06092,-0.05373 0.09894,-0.13262 0.103035,-0.21375 l 0.00966,-0.190505 v -4.09e-4 c 0.01048,-0.20525 -0.02617,-0.104305 0.1119,-0.287825 5.1e-5,-5.1e-5 -5.1e-5,-1.53e-4 0,-2.04e-4 l 0.085695,-0.11365 c 0.039425,-0.05236 0.06134,-0.117675 0.061465,-0.183215 l 2.04e-4,-0.11584 v -2.05e-4 c 3.065e-4,-0.110685 0.029815,-0.2152 0.052205,-0.257485 -0.0029,0.01017 0.09424,-0.11753 0.196415,-0.218875 0.0011,-0.0011 0.0019,-0.0019 0.00295,-0.003 0.046945,9e-4 0.093895,0.0014 0.141055,0.0014 3.0436005,0 5.6395005,-1.9173 6.6455005,-4.60995 0,0 -7.4530005,-0.0029 -11.1970005,-0.0022 z m 3.32505,0.27364 c 1.22635,0 2.28655,0.0035 2.28655,0.0079 0,0.0044 -0.03505,0.07808 -0.07802,0.16371 -0.12935,0.25776 -0.295365,0.487365 -0.52995,0.73305 -0.116755,0.122285 -0.23497,0.25121 -0.26261,0.286445 -0.08104,0.10333 -0.19608,0.36518 -0.25473,0.5798 -0.086355,0.316005 -0.121655,0.40605 -0.275415,0.7025 -0.212335,0.409415 -0.27279,0.59855 -0.300435,0.93835 -0.03162,0.38858 -0.0584,0.47911 -0.191885,0.6515 -0.092725,0.11975 -0.260815,0.4153 -0.31836,0.5597 -0.04412,0.110705 -0.04897,0.13915 -0.05004,0.29137 -0.00115,0.16327 -0.0031,0.172205 -0.05792,0.278765 -0.03113,0.06055 -0.06102,0.137825 -0.06645,0.17179 -0.00878,0.05491 -0.0046,0.06705 0.0369,0.10855 0.054475,0.05448 -0.037685,0.05688 0.03935,0.01753 0.04778,-0.02441 0.066115,-0.04961 0.114265,-0.15721 0.04808,-0.10745 0.06451,-0.173885 0.101655,-0.41233 0.051455,-0.33032 0.06387,-0.361285 0.254925,-0.62805 0.225665,-0.315095 0.260365,-0.41884 0.28369,-0.85105 0.02418,-0.44808 0.06176,-0.5664 0.28881,-0.9084 0.17455,-0.26292 0.19787,-0.31501 0.27285,-0.60955 0.10804,-0.424365 0.196115,-0.56775 0.66195,-1.07705 l 0.199765,-0.21828 0.15839,-0.31462 0.15859,-0.31442 0.6386,0.0038 0.58175,0.0039 0.02048,0.08136 c 0.02771,0.109355 0.01606,0.143545 -0.12313,0.360715 -0.10975,0.17125 -0.12889,0.21139 -0.18085,0.37687 -0.02763,0.08798 -0.0729,0.118865 -0.21139,0.1448 -0.11984,0.02245 -0.15874,0.05152 -0.1777,0.132585 -0.03624,0.15494 -0.09031,0.18412 -0.34082,0.183805 -0.11444,-1.53e-4 -0.194805,-0.0075 -0.21907,-0.0197 -0.02108,-0.01062 -0.05598,-0.05166 -0.07742,-0.09122 -0.04883,-0.09007 -0.09703,-0.141945 -0.15386,-0.165485 -0.05812,-0.02408 -0.08541,-0.01163 -0.116035,0.0526 -0.02448,0.05133 -0.02408,0.05482 0.0138,0.11919 0.02984,0.05072 0.06738,0.08261 0.15938,0.135345 0.10584,0.06067 0.126025,0.07953 0.16647,0.155635 0.0253,0.04762 0.05724,0.09942 0.07092,0.11505 0.05646,0.06456 0.06161,0.09244 0.03487,0.18538 -0.01398,0.04857 -0.03896,0.1153 -0.05556,0.14815 -0.02418,0.04788 -0.02684,0.06701 -0.01339,0.09653 0.03726,0.08177 0.0061,0.18219 -0.05319,0.1712 -0.01755,-0.0032 -0.04383,-0.0353 -0.06442,-0.07841 -0.01914,-0.04006 -0.04398,-0.07269 -0.05516,-0.07269 -0.05584,0 -0.09968,0.129325 -0.12451,0.36781 -0.01854,0.17818 -0.03237,0.2109 -0.10441,0.247635 -0.03552,0.01811 -0.09454,0.05594 -0.131205,0.08393 -0.07595,0.05796 -0.278255,0.14052 -0.37451,0.152875 -0.04778,0.0061 -0.08067,1.02e-4 -0.12549,-0.02325 -0.03341,-0.01741 -0.07071,-0.03172 -0.08294,-0.03172 -0.04285,0 -0.15537,0.07829 -0.17947,0.1249 -0.036625,0.07082 -0.017445,0.11368 0.078015,0.174745 0.08334,0.05332 0.11616,0.09712 0.136525,0.181835 0.01648,0.06856 -0.01534,0.1218 -0.11643,0.195035 -0.106485,0.07714 -0.149865,0.14412 -0.19661,0.30319 -0.032795,0.1116 -0.036375,0.11654 -0.228135,0.30674 -0.118155,0.117195 -0.214495,0.227615 -0.24468,0.280535 -0.0597,0.10467 -0.094005,0.254215 -0.094365,0.412135 l -2.04e-4,0.116035 -0.0857,0.11387 c -0.14503,0.192805 -0.161705,0.236855 -0.17297,0.456265 l -0.00965,0.1909 -0.122735,0.10835 c -0.228525,0.20215 -0.305445,0.293405 -0.39815,0.47183 -0.09573,0.184245 -0.208085,0.31083 -0.273215,0.34451 -0.05588,0.0289 -0.075645,0.02818 -0.121945,-0.0039 -0.146615,-0.1017 -0.107285,-0.227575 -0.075485,-0.417205 0.00934,-0.05573 0.02163,-0.135925 0.027185,-0.178095 0.012985,-0.09855 0.066355,-0.199295 0.13081,-0.24685 0.063805,-0.04707 0.088465,-0.09113 0.089635,-0.159575 5e-4,-0.02951 0.00799,-0.08403 0.01655,-0.12116 0.010815,-0.04691 0.010345,-0.09226 -0.0014,-0.14874 -0.02021,-0.09736 -0.012105,-0.116555 0.091015,-0.21789 0.07632,-0.07499 0.07638,-0.0752 0.15662,-0.403465 0.00749,-0.03066 0.05159,-0.10777 0.09791,-0.1712 0.08882,-0.121625 0.09645,-0.14832 0.06107,-0.210205 -0.01205,-0.02108 -0.02216,-0.05774 -0.022455,-0.08156 -4.085e-4,-0.03078 -0.02413,-0.06858 -0.08215,-0.13042 -0.04491,-0.04787 -0.12799,-0.146955 -0.184595,-0.22025 -0.102705,-0.13299 -0.16358,-0.183605 -0.24389,-0.20252 -0.059865,-0.0141 -0.095245,0.0091 -0.223995,0.146965 -0.06223,0.06664 -0.141565,0.135865 -0.17632,0.153665 -0.06447,0.03302 -0.21295,0.04626 -0.25079,0.02246 -0.01045,-0.0066 -0.05699,-0.09182 -0.10343,-0.18952 -0.11338,-0.23853 -0.188775,-0.32498 -0.35047,-0.402285 -0.068815,-0.0329 -0.19365,-0.0815 -0.277385,-0.10796 -0.095835,-0.03028 -0.170705,-0.06442 -0.20213,-0.092 -0.02745,-0.02411 -0.062505,-0.04787 -0.077815,-0.0528 -0.015315,-0.0049 -0.08894,-0.08108 -0.16371,-0.169425 -0.074775,-0.08834 -0.16927,-0.182025 -0.20981,-0.20804 -0.04054,-0.02602 -0.09221,-0.07171 -0.11505,-0.101655 -0.02284,-0.02995 -0.063365,-0.06361 -0.089835,-0.07466 -0.060155,-0.02515 -0.087415,-0.05589 -0.135735,-0.152895 -0.054645,-0.10969 -0.064265,-0.16196 -0.06639,-0.36032 -0.001,-0.09699 -0.00701,-0.2047 -0.0132,-0.23936 -0.00901,-0.05048 -0.0043,-0.07651 0.023645,-0.13042 0.06835,-0.1318 0.03218,-0.292905 -0.10737,-0.47774 -0.037355,-0.04947 -0.06265,-0.09965 -0.06265,-0.12431 0,-0.05271 0.047845,-0.14697 0.12352,-0.24271 0.06228,-0.07879 0.090875,-0.154045 0.091015,-0.24015 1.53e-4,-0.09317 0.051935,-0.15904 0.16726,-0.212765 0.08686,-0.04046 0.122075,-0.06976 0.21592,-0.17908 0.12069,-0.14059 0.180715,-0.188635 0.29669,-0.237985 0.073645,-0.03134 0.08792,-0.03152 2.3038,-0.03152 z m 3.9874,0.12254 c 0.03238,0 0.03645,0.0071 0.03645,0.06225 0,0.03416 -0.01133,0.08366 -0.02502,0.110125 -0.01843,0.03564 -0.0225,0.07073 -0.01577,0.135145 0.005,0.04784 0.0028,0.10898 -0.005,0.135935 -0.01809,0.06308 -0.161605,0.29395 -0.288415,0.46395 -0.08316,0.111485 -0.111505,0.137925 -0.175925,0.164695 -0.08431,0.03504 -0.11493,0.0388 -0.14854,0.01754 -0.01892,-0.01197 -0.01673,-0.0261 0.01497,-0.09378 0.02052,-0.0438 0.05269,-0.08971 0.07151,-0.10205 0.01882,-0.01234 0.05812,-0.05815 0.08727,-0.101655 0.02915,-0.0435 0.09213,-0.116935 0.139875,-0.16332 0.112945,-0.10973 0.14885,-0.18339 0.1974,-0.40465 0.022,-0.100255 0.04779,-0.19182 0.05733,-0.20331 0.0095,-0.01149 0.03374,-0.02088 0.05378,-0.02088 z m -1.07055,1.5644 c 0.02665,-3.07e-4 0.10927,0.09085 0.11978,0.13219 0.01256,0.04941 -0.09733,0.29219 -0.15662,0.34614 -0.02728,0.02482 -0.05368,0.06152 -0.05871,0.08156 -0.0062,0.0246 -0.03217,0.04662 -0.07998,0.06777 -0.03895,0.01723 -0.07166,0.0307 -0.0727,0.02994 -10e-4,-7.5e-4 -0.0249,-0.008 -0.05319,-0.01615 -0.04678,-0.01347 -0.04951,-0.01715 -0.02876,-0.04078 0.01255,-0.01429 0.03708,-0.05445 0.05457,-0.08925 0.01773,-0.03529 0.05544,-0.07706 0.08511,-0.09457 0.08337,-0.04919 0.10429,-0.09461 0.11525,-0.249605 0.0097,-0.137405 0.02294,-0.166645 0.07526,-0.16726 z m -0.56245,0.8617 c 0.03179,-7.5e-4 0.09003,0.03269 0.09003,0.05851 0,0.0434 -0.05295,0.155885 -0.09949,0.21119 -0.03483,0.04139 -0.16812,0.12569 -0.19878,0.12569 -0.0044,0 -0.01837,-0.02501 -0.03113,-0.05556 -0.01276,-0.03055 -0.02324,-0.06403 -0.02324,-0.07427 0,-0.01024 0.04011,-0.03582 0.08905,-0.05693 0.08132,-0.03509 0.0914,-0.04487 0.11702,-0.11367 0.01542,-0.0414 0.03353,-0.0815 0.04038,-0.08904 0.0024,-0.0027 0.006,-0.0045 0.01025,-0.0053 0.0018,-3.57e-4 0.0038,-5.5e-4 0.0059,-6e-4 z m -0.5461,0.51005 c 0.04114,-6e-4 0.06874,0.01215 0.06856,0.03645 -1.53e-4,0.0233 -0.02106,0.06309 -0.14539,0.276005 -0.04415,0.07562 -0.07094,0.09183 -0.110325,0.06679 -0.02216,-0.01409 -0.09673,-0.12225 -0.09673,-0.14027 0,-0.0071 0.02781,-0.05461 0.06186,-0.105595 0.05265,-0.07884 0.07318,-0.09638 0.136525,-0.117415 0.03139,-0.01042 0.06081,-0.01559 0.0855,-0.01595 z"/>
</svg>
