<svg width="22" height="21" xmlns="http://www.w3.org/2000/svg">
 <g fill="none">
  <path d="M20.9854853,17.4641695 L20.7080082,17.6146471 L20.372574,17.784192 L19.828855,18.0397453 C18.1701087,18.7879341 14.8836869,20 11.0005286,20 C6.63197547,20 3.01810879,18.4676785 1.62767684,17.7866468 L1.01464917,17.4669788 L1.00156842,17.1239637 L1.00189323,16.7153542 L1.02161769,16.166596 C1.03266103,15.9618117 1.0487905,15.7359093 1.07185898,15.4911286 L1.19767487,14.640335 C1.59279348,12.1449655 2.17536463,10.1564268 3.5090913,7.82276984 C6.64086683,2.34470182 11.0026532,1 11.0026532,1 L11.3634101,1.13622157 C12.4717499,1.5943384 15.9083145,3.31183189 18.4879104,7.82370626 C19.7834357,10.0889108 20.9829962,13.263381 20.9636187,15.9265648 L20.9949457,16.57293 C21.0103992,17.1407528 20.9854853,17.4641695 20.9854853,17.4641695 Z" fill="#FFCD00" fill-rule="evenodd"/>
  <path d="M10.2958479,26.4824169 L10.2853259,26.2048957 L10.174495,25.4294891 L10.2593718,25.0534926 L10.1885242,24.3800044 L10.2242987,24.2553609 L10.1555555,23.5460635 L10.0264865,22.840898 L10.0706786,22.6652952 L9.9605491,22.1095642 L10.1801066,21.4946103 L9.9605491,19.6518143 L10.1583613,19.2420746 L9.89531311,18.1306125 L10.136616,17.3696673 L9.89531311,16.2582052 L10.0047412,15.8780769 L9.91705846,15.7610084 L10.0264865,15.2638116 L9.52213544,13.098733 L9.73537984,12.4885995 L9.7031126,12.3501832 L9.83498745,11.9989777 L9.80552605,11.7848112 L10.2902361,9.90964936 L10.2916391,9.54191653 L10.2769084,8.95726267 L10.2769084,8.74860528 C10.2769084,8.74860528 15.2916591,16.9316934 10.2958479,26.4831056 L10.2958479,26.4824169 Z" fill="#BF2033" transform="rotate(90 11.017 17.616)"/>
  <path stroke="#FFF" d="M10.9888705,1.53541164 C12.4932905,2.17213039 15.6549806,3.87611026 18.0538816,8.07193788 C19.311349,10.2705988 20.4865793,13.351667 20.4635207,15.9366539 L20.4952729,16.5917888 C20.5014614,16.8224065 20.5007132,17.0099295 20.4978836,17.1483271 L19.6146601,17.587847 C17.9917962,18.3189203 14.7868092,19.5 11.0005286,19.5 C6.74015838,19.5 3.21513315,18.0067865 1.85323088,17.3403669 L1.52154499,16.1815027 C1.53204122,15.9896301 1.54713988,15.7788513 1.56842789,15.5510978 L1.69152238,14.7185312 C2.07673476,12.2857243 2.64277057,10.3462577 3.94316334,8.07092597 C6.60805142,3.40953244 10.1920991,1.83760152 10.9888705,1.53541164 Z" stroke-linejoin="square"/>
  <path stroke="#000" d="M10.8553487,0.522191046 C12.7064083,1.1499044 16.2583722,2.91672937 18.9219393,7.57547464 C20.2554561,9.90710666 21.4793665,13.1747632 21.4636972,15.9160756 L21.4946142,16.5539789 C21.5112777,17.1582891 21.4840083,17.5025726 21.4840083,17.5025726 L20.0431555,18.491591 C18.348598,19.2568847 14.9806692,20.5 11.0005286,20.5 C6.52368045,20.5 2.82089975,18.9284912 1.4020398,18.2328833 L0.513021913,17.7692982 L0.521689379,16.1518789 C0.533269482,15.9341385 0.55043236,15.6929746 0.575318901,15.430959 L0.703827367,14.5621389 C1.10885219,12.0042067 1.70795868,9.9665959 3.07501927,7.5746137 C6.32347976,1.8924416 10.8553487,0.522191046 10.8553487,0.522191046 Z"/>
  <path d="M6.01946767,14.2312718 L5.9963194,14.2312718 C5.97317119,14.2767219 5.68206453,14.2684582 5.67434843,14.2691469 C5.42112068,14.3386994 5.40077831,14.2154331 5.19875731,14.2312718 C5.2387406,14.2216309 4.80032699,14.3435198 4.72877787,14.2298945 L4.73719538,14.2216309 C4.75894073,14.1865103 4.75823927,14.1520784 4.75753781,14.1086942 C4.97428951,13.9571938 5.07249414,13.9633915 5.16859445,13.9826734 C5.36780961,14.0143508 5.42743387,13.9200073 5.63366362,13.9744097 C5.63787243,14.0122848 5.94300833,14.0969873 5.95072438,14.1637853 L6.01175156,14.1520784 L6.08259923,14.1748035 C6.17308781,14.1782466 6.29935092,14.0694418 6.24954715,13.9909371 C6.27409833,13.9909371 6.08330069,13.9516847 5.79079111,13.8821322 L5.75080777,13.8697367 L5.60770957,13.8304843 C5.54808531,13.8070706 5.53756337,13.7802138 5.49828153,13.7643751 C5.47092451,13.7643751 5.37833155,13.74165 5.33694529,13.74165 C5.21348801,13.74165 5.13281986,13.8105138 4.82768396,13.791232 C4.72246468,13.791232 4.25458967,13.5309267 4.19566687,13.5935928 C4.02240576,13.6114974 3.69833041,13.6252701 3.55733659,13.7189249 C3.32024247,13.7189249 3.30761614,13.6514384 3.05579137,13.6204497 C3.05579137,13.6252701 3.10910244,13.5612268 3.20379978,13.5329926 L3.20379978,13.3911331 C3.21291881,13.3332875 3.05508991,13.2547828 3.05508991,13.2547828 C2.8818288,13.3174489 2.80887676,13.3870013 2.54021691,13.3560126 C2.45814584,13.3560126 2.26454241,13.4765243 2.27366138,13.4496674 C2.28278041,13.4228105 2.28698917,13.3553239 2.28698917,13.3553239 C2.17335237,13.5749996 2.21894739,13.4049059 2.04568628,13.4049059 C2.03656731,13.4138582 2.20070934,13.557095 2.17335237,13.5302381 C2.11372811,13.5302381 2.15721875,13.7547341 2.16633772,13.7905433 C2.10110179,13.7802138 2.02885121,13.8091366 1.9881664,13.8339275 C2.09338568,13.8229093 2.18527718,13.9220732 2.19369475,13.8580299 C2.25612485,13.8600958 2.24279706,13.8979709 2.28488479,13.9213846 C2.39080553,13.9854279 2.33889737,13.9620143 2.39431282,14.0102189 C2.39431282,14.0102189 2.4258786,14.0053984 2.4258786,14.0233031 C2.4258786,14.0274349 2.45253417,14.0494713 2.45744438,14.0494713 C2.47989119,14.0494713 2.4883087,14.0666872 2.49321897,14.0666872 C2.49742773,14.0666872 2.50374086,14.0529145 2.40273039,14.0797714 C2.14178659,14.1493238 2.11583249,14.3235493 2.11583249,14.3235493 C2.11583249,14.3235493 1.83033751,14.3311243 1.81700972,14.3758858 C1.81700972,14.3758858 1.76720595,14.4006768 1.74826649,14.4206473 C1.72581968,14.4654088 1.71170611,14.5053498 1.71170611,14.541159 C1.70758169,14.7291572 2.01622488,14.7932006 2.18036697,14.7932006 C2.25752776,14.7932006 2.15160702,15.0459308 2.58581193,15.0438649 C2.66788294,15.0707218 2.74083499,15.0844946 2.81869725,15.0975787 L3.21993345,15.0975787 L3.25149923,15.0486854 C3.2788562,15.0576377 3.31533225,15.0576377 3.35180824,15.0576377 C3.34759949,15.0707218 3.34759949,15.0844946 3.34268927,15.0975787 C3.34268927,15.0975787 3.35391262,15.074165 3.35391262,15.1278788 C3.36303165,15.293152 3.45702753,15.2855769 3.46123628,15.2855769 C3.47947433,15.3303384 3.44790855,15.2814451 3.51595033,15.3840522 C3.58469361,15.4873479 3.71235965,15.527289 3.71235965,15.527289 C3.7165684,15.639537 4.22793411,15.694628 4.34648117,15.6856757 C4.26020135,15.7531623 4.16339963,15.7152872 4.05888181,15.7152872 C4.04485257,15.7152872 3.96628885,15.6842984 3.96208004,15.6842984 C3.85686076,15.6842984 3.79863947,15.8185829 3.6576456,15.8185829 C3.44510266,15.5148935 3.19678519,15.607171 3.14698141,15.5803141 C3.17854719,15.6657052 3.63449739,15.8543921 3.64361636,15.8722967 C3.63940761,15.8722967 3.51174157,15.8406193 3.51174157,15.8406193 C3.51174157,15.9032854 3.57978334,15.8902013 3.57978334,15.8943331 C3.57978334,15.8991536 3.56645556,15.9032854 3.54821757,15.9122377 C3.5068313,15.9260105 3.46123628,15.9390946 3.61625939,15.9390946 C3.68921138,15.9390946 3.38407548,15.9797242 3.63028863,15.9797242 C3.63449739,15.9797242 3.21502318,15.9749038 3.16030919,16.0465222 C3.32936149,16.1449975 3.64361636,16.0244858 3.64361636,16.0375699 C3.64361636,16.0423903 3.54821757,16.1181406 3.67588365,16.1181406 C3.67588365,16.1181406 3.91297773,16.122961 3.68009241,16.122961 C3.50262255,16.122961 3.40792521,16.0761336 3.25781237,16.1353565 L3.19468081,16.2255681 L3.09717758,16.2889228 C3.09717758,16.2889228 3.10699807,16.2317659 3.06140305,16.2414068 C3.01580803,16.2510477 2.99125684,16.4307823 2.98003349,16.4073686 C2.95407939,16.349523 2.84394989,16.3591639 2.84394989,16.3591639 C2.84394989,16.3336843 2.83412941,16.2255681 2.83412941,16.2255681 L2.8081753,16.1236496 L2.79484757,16.0637381 L2.78222125,16.1236496 L2.77240077,16.2221249 L2.76608763,16.3378161 C2.76187882,16.3378161 2.75696861,16.3474571 2.75696861,16.3474571 C2.65245078,16.3474571 2.59913971,16.3295525 2.58721485,16.509287 C2.58721485,16.509287 2.61176598,16.6594102 2.76889347,16.6180919 L2.76889347,16.6628534 L2.77941541,16.9011222 C2.83693524,16.8845949 2.84044259,16.6249783 2.84044259,16.6112055 C2.86359081,16.606385 2.95057209,16.606385 2.95548231,16.5753963 C2.96881009,16.5974327 2.98704808,16.7386036 3.00107733,16.7613287 C3.11962439,16.9045654 3.31533225,16.9327996 3.51595033,16.9327996 C3.62046815,16.9741178 3.83090671,16.8164197 3.94945377,16.8074674 C4.00837652,17.0581317 4.52815979,17.027143 4.72877787,17.0092384 C4.77577581,17.0064838 4.85013077,16.9961543 4.91747108,17.0147475 C5.03742106,17.0471135 5.10476143,17.1221751 5.26679908,17.0939409 C5.25206838,17.0836114 5.19174266,17.0925636 5.19174266,17.0698386 C5.25627719,17.0836114 5.2092792,17.0815454 5.39586809,17.0457362 L5.30117075,17.0388498 C5.43094117,17.0588203 5.29836486,17.0360953 5.26960492,17.0250771 C5.11458186,16.9837588 4.98270707,16.9713633 4.93711205,16.9713633 C4.93711205,16.9713633 4.57375481,16.9823815 4.53727876,16.9734292 C4.57866503,16.9686088 5.03952544,16.817797 5.18613099,16.8777085 C5.25908303,16.8715108 5.42603095,16.7902515 5.59508325,16.7992037 L5.63787243,16.7627059 L5.73537561,16.7833651 L5.8125364,16.768215 L5.82796856,16.7007285 C5.88268261,16.7096808 5.95984341,16.6910875 5.98720043,16.673183 L6.03349691,16.5919236 C6.02858664,16.5788395 6.02367643,16.5030893 6.01455746,16.4900052 C5.89671185,16.476921 5.83568467,16.5196166 5.77535895,16.5278803 L5.72836101,16.5141075 C5.73537561,16.5361439 5.60420222,16.5285689 5.48074494,16.5258144 C5.42883679,16.5251257 5.38745052,16.4796756 5.34255696,16.4776097 C5.28152978,16.4748551 5.18051931,16.5099757 5.17069883,16.5099757 C5.03391377,16.5127302 5.01848161,16.5168621 5.01427285,16.5127302 C4.96166318,16.5134189 5.04162982,16.5044666 5.00585529,16.4844961 L4.98200561,16.4652142 C4.98200561,16.4610824 5.01567577,16.4507528 5.01146696,16.446621 C5.04654009,16.4418005 5.05425614,16.3805117 5.16508715,16.4211413 C5.21839823,16.4245845 5.35518329,16.3901526 5.36430231,16.3901526 C5.40358414,16.389464 5.74800193,16.364673 5.76203117,16.3977277 L5.79359695,16.3935958 C5.81183495,16.389464 5.86444461,16.3777572 5.86444461,16.3777572 C5.86444461,16.3777572 5.86865337,16.3688049 5.8777724,16.3598525 C5.89180158,16.3240433 5.9191586,16.2613773 5.87356358,16.2214363 C5.86444461,16.2214363 5.80552181,16.2186817 5.79920862,16.2014658 L5.72064491,16.2290113 L5.61402271,16.2517364 L5.56211455,16.2696409 C5.26539616,16.3061388 5.41410609,16.2152385 5.21278655,16.2310772 C4.98551291,16.299941 4.90274038,16.1071223 4.69160036,16.0974814 C4.58918697,16.0520313 4.56884454,16.1043678 4.56814308,16.0871518 C4.49869839,16.1443088 4.45310337,16.0589177 4.39207619,16.0726904 L4.53307001,16.0286176 C4.55060655,16.0155334 4.53377147,15.9101718 4.54639779,15.8922672 C4.52745833,15.7751987 4.54218903,15.7731328 4.40540397,15.7056463 C4.40540397,15.7056463 4.40750835,15.726994 4.50010131,15.7256168 C4.72877787,15.7214849 4.72807641,15.8991536 5.02269036,15.9149922 C4.9511413,15.8778058 4.92869449,15.8392421 4.89783017,15.8268465 C4.9813041,15.8509489 5.05636052,15.9191241 5.15316229,15.9177468 C5.15316229,15.8722967 5.21418947,15.9074173 5.29064881,15.9549333 C5.25557573,15.9425378 5.20016023,15.848883 5.16087834,15.8495716 C5.24856109,15.8481944 5.32151313,15.8722967 5.49828153,15.9549333 C5.44426895,15.8344216 5.01357139,15.7648692 5.08371754,15.75936 C4.9960348,15.7607373 5.37973447,15.8199602 5.40568852,15.8199602 C5.44567187,15.8275352 5.06197225,15.6815439 5.06197225,15.6815439 C5.23172601,15.629896 5.47443181,15.5851346 5.67715426,15.6119915 L5.75080777,15.6388483 L5.81113349,15.5892664 C5.96545508,15.6250756 5.98439459,15.4839047 6.01175156,15.4171068 C6.00754281,15.3138111 5.93879957,15.3565066 5.8160437,15.3833635 L5.68907913,15.4439637 C5.60981395,15.4666888 5.38464469,15.4632456 5.31379702,15.4735751 C5.23032309,15.4749524 5.19875731,15.412975 4.96096173,15.3833635 C4.68809306,15.2277313 4.82838542,15.2545882 4.54639779,15.2201563 C4.56253141,15.2022517 4.56393433,15.211204 4.62496151,15.1760835 C4.62496151,15.1760835 4.62917026,15.171263 4.63828929,15.1671312 C4.68107847,15.1189264 4.90344184,15.0424876 4.95535005,14.9756897 C5.02619766,14.9336828 5.08091171,14.8572439 5.12019359,14.8565553 C5.19525001,14.855178 5.47793911,14.782871 5.6497973,14.7711642 L5.70521275,14.7773619 L5.77395603,14.7243368 C5.79710424,14.6396343 5.94581417,14.7849369 5.97317119,14.5928068 C5.97317119,14.5790341 5.97808141,14.5115475 5.97808141,14.493643 C6.09452409,14.5225658 6.09031534,14.4468155 6.14222349,14.4543906 C6.17729656,14.4385519 6.29724655,14.4812475 6.31127579,14.476427 C6.47962663,14.4227132 6.46629884,14.2663923 6.46629884,14.2663923 C6.46629884,14.2663923 6.47331349,14.2168104 6.44665793,14.1816898 C6.41930091,14.1465693 6.28041147,14.1782466 6.28041147,14.1782466 C6.28041147,14.1782466 6.28041147,14.2009717 6.13450738,14.2126785 L6.06155539,14.2312718 L6.01946767,14.2312718 Z" fill="#000" transform="rotate(90 4.09 15.178)"/>
  <path d="M10.8800866,5.78210539 C10.6261574,5.95288765 10.8218653,6.02175148 10.8744749,5.9487558 C10.9853059,5.95288765 11.2371307,5.8365078 11.1999532,5.72081659 C11.1831181,5.66572554 11.0582579,5.70842106 11.0610638,5.70704382 C11.2139825,5.62509586 11.3192017,5.46257723 11.3199032,5.44742721 C11.3213061,5.40679753 11.5233271,5.3338019 11.4223166,5.13547409 C11.4223166,5.13547409 11.2567716,5.24290166 11.2399366,5.09553306 C11.2399366,5.09553306 11.1845211,5.01358509 11.1262997,5.12101266 C11.1150764,5.14098318 11.0807047,5.11274903 11.0491389,5.11206038 C11.0238863,5.11068308 11.0470345,5.00601011 11.0316024,5.00256692 L10.991619,4.9812191 C10.991619,4.9812191 10.8253726,5.05283748 10.7860907,5.08864667 C10.7468089,5.12445586 10.7243621,5.13134225 10.7208548,5.13478544 C10.7012138,5.15544461 10.687886,5.15819915 10.6500071,5.15682185 C10.6408881,5.15682185 10.5412806,5.14924687 10.5216396,5.16715143 C10.478149,5.34688603 10.4998943,5.43709763 10.5181323,5.62853905 C10.5272513,5.71875065 10.7068256,5.61545492 10.7096314,5.62853905 C10.7110343,5.63542544 10.7945083,5.69258239 10.7938068,5.70497787 C10.7369884,5.70291197 10.8920115,5.8316873 10.8800866,5.78210539" fill="#FFF" transform="rotate(90 10.973 5.48)"/>
  <path d="M4.48784829,9.52183809 C4.48784829,9.52183809 4.91784444,9.89576865 4.99360232,9.89852325 C5.05322653,9.96118929 5.1977277,10.0176576 5.22578618,10.0155917 C5.17668386,10.1622716 5.63263406,10.7524346 5.53723521,10.9617806 C5.46779052,11.2131336 5.49234165,11.1387607 5.48252122,11.1387607 C5.4734022,11.138072 5.40816626,11.252386 5.38852534,11.3976886 L5.29593233,11.5602073 L5.21877153,11.6648803 C5.21877153,11.6648803 5.21877153,11.638712 5.25945634,11.5794891 C5.30294698,11.5154458 5.348542,11.1690607 5.32118498,11.1731926 C5.29382795,11.1766358 5.0398988,11.1910972 5.0398988,11.1910972 L4.94520141,11.2337927 C4.94520141,11.2337927 4.76983598,11.212445 4.79929738,11.2516973 C4.8189383,11.2785543 4.80631197,11.3446635 4.80631197,11.3446635 C4.80631197,11.3446635 4.84278802,11.3880477 4.87575672,11.3949341 C4.90100931,11.4004432 4.92345612,11.4527797 4.89048742,11.4920321 C4.87575672,11.5278413 4.80140176,11.631137 4.82454997,11.5884414 C4.84629532,11.549189 4.71862923,11.3811613 4.71862923,11.3811613 C4.71862923,11.3811613 4.68986934,11.3129861 4.71161464,11.2269064 C4.72073366,11.1897199 4.61902168,11.1972949 4.61902168,11.1972949 L4.5986793,11.2158882 L4.5727252,11.3267589 L4.61902168,11.4073296 L4.51660824,11.3832272 C4.51660824,11.3832272 4.62884216,11.4348751 4.65830351,11.4982298 C4.67654156,11.5374822 4.73125555,11.6077233 4.73125555,11.6077233 L4.72634534,11.6793417 C4.71442048,11.7351214 4.63796114,11.8432376 4.55097985,11.8301535 C4.59657487,11.8790468 4.61060411,11.9196764 4.71652485,11.8742263 C4.71652485,11.8742263 4.7235395,11.9017718 4.62743919,11.9761448 C4.5467711,12.0291699 4.50678775,12.0718655 4.50678775,12.0718655 C4.50678775,12.0718655 4.45698397,12.1076746 4.35106323,12.1000997 C4.3040653,12.0966565 4.47802786,11.947222 4.47802786,11.947222 L4.29915508,11.7750624 C4.29915508,11.7750624 4.12168522,11.8418603 4.1055516,11.8108716 C4.0431215,11.5670937 4.0838063,11.3295135 4.0838063,11.3295135 L4.15886272,11.3054111 L4.23181471,11.3178066 C4.28232,11.3129861 4.30336384,11.2737338 4.34545156,11.244811 C4.33703399,11.0024103 4.32721356,10.9149533 4.28302146,10.6567139 C4.25566444,10.2972448 3.97367675,9.92813465 3.79901278,10.871569 C3.76183527,11.0368422 3.75973089,11.1711267 3.75201484,11.2861292 C3.48826515,11.3274476 3.436357,11.2682247 3.22241114,11.3116088 C2.99092874,11.7254804 3.16559271,12.4492392 3.2855427,12.5215462 C3.33745085,12.5525349 3.59769324,12.5614873 3.83619023,12.5849009 C3.87196482,12.7281377 3.8411005,12.6909512 3.9954221,13.1075773 C4.16237002,13.5393536 4.36088372,13.4911488 4.41910506,13.068325 L4.43874598,12.8121515 L4.43383576,12.6021169 C4.43383576,12.6021169 4.68004886,12.6103806 4.75370236,12.6331056 C4.80631197,12.6496329 4.80210322,12.6310397 4.80210322,12.6310397 L4.66251232,12.6578966 L4.78807398,12.8038879 L4.83928067,12.6964603 C4.83928067,12.6964603 4.81963976,12.9223337 4.88206985,12.9987725 C4.94449995,13.0752113 4.99079643,12.9526338 5.12126836,13.1571593 C5.17317651,13.0345817 4.89750201,12.6964603 4.89750201,12.6964603 L5.03498853,12.7646355 L4.94449995,12.592476 L4.84910116,12.6200215 L4.83577338,12.5890328 L4.75159798,12.4492392 L4.97536427,12.5401395 L5.11074641,12.7921811 L5.16546046,12.9333519 L5.17878824,13.0800318 L5.19351894,13.3093483 L5.25174028,13.5531263 C5.25174028,13.5531263 5.38291362,13.7101358 5.49444603,13.7438791 C5.52741478,13.7548973 5.84728138,13.9669979 5.89708516,13.980082 C5.94899331,13.9566683 6.3305886,14.3023647 6.3305886,14.3023647 L6.87001274,14.6122519 L7.09307762,14.6893793 L7.27054743,14.7348295 L7.47186702,14.5172198 C7.47186702,14.5172198 7.6395164,14.1653257 7.71527428,13.9883456 L7.76998827,13.7280404 L7.79664384,13.5730968 C8.12913676,13.9353205 8.3823645,13.9931661 8.3823645,13.9931661 L8.92810183,14.3560785 L8.92810183,14.1839189 C8.92810183,14.1839189 8.88671556,14.0985278 8.8895214,14.0702936 L8.91407258,14.0820004 L8.95756317,14.0868209 C8.92459447,14.0744254 9.07681169,14.1515529 9.07470732,14.1453552 L9.12801844,14.1536188 L9.18062806,14.197003 C9.18062806,14.197003 9.34336722,14.5309926 9.47874936,14.8284843 C9.64078701,15.1845103 9.98660772,15.4565223 10.06447,15.4813134 C10.1781068,15.5563749 10.3275182,15.5453567 10.4264243,15.6204183 C10.3871425,15.9206645 10.6417731,16.0666558 11.5312267,16.070099 C11.5312267,16.070099 12.0208471,16.1809698 12.1772731,16.368968 C12.2263754,16.4281909 12.0622333,16.1603106 11.8251392,16.0418648 C11.8090056,16.0342898 11.9773564,16.0639013 11.9773564,16.0639013 C12.3322962,16.1720175 12.3849058,16.5011866 12.7124885,16.5128934 L12.9867601,16.5246002 C12.977641,16.523223 12.7889478,16.4605569 12.7763215,16.458491 C12.6654905,16.3951362 12.5876282,16.3593271 12.5111689,16.2773792 C12.4227847,16.1933652 12.4985426,16.273936 12.3294903,16.0762967 L12.500647,16.2154017 C12.500647,16.2154017 12.7643966,16.4309454 13.0400711,16.5025638 C13.2119293,16.5073843 13.7310111,16.6499324 13.7527564,16.6506211 C13.0007893,16.4281909 12.7749186,16.0391103 12.7973653,16.0404875 C12.8127975,16.0404875 12.977641,16.2987269 13.4665599,16.4922342 C13.7997543,16.4819047 14.137859,16.5721163 14.4394875,16.764935 C14.2872703,16.6148119 13.4055328,16.2684268 13.34661,16.1582447 C13.4027269,16.1851016 13.6896248,16.353818 13.8769151,16.3951362 C14.0740259,16.4591796 14.5355878,16.4633114 14.5383937,16.4633114 L14.0740259,16.3372906 C14.0866522,16.3379793 14.5622433,16.4226818 14.578377,16.4233705 L14.6176588,16.4385205 C14.6176588,16.4385205 14.6211661,16.4385205 14.623972,16.4385205 L14.6302852,16.4385205 C14.6302852,16.4385205 14.6337925,16.4385205 14.6365983,16.4392091 L14.6429115,16.4392091 C14.6429115,16.4392091 14.6464188,16.4392091 14.6492246,16.4392091 C14.6492246,16.4392091 14.7207737,16.4302568 14.7502351,16.4040885 L14.8154711,16.3710339 L14.8891246,16.336602 L15.0890412,16.2801337 C15.0890412,16.2801337 14.2935835,16.3014815 13.4244723,15.7595232 C13.9126897,15.9130895 14.3511034,16.1031536 14.9129743,16.1451606 C14.9312123,16.1706402 14.5832872,16.0563263 14.5825858,16.022583 C14.9270035,15.9915942 15.0778178,15.9516533 15.1725152,15.8793462 C14.2486899,16.0639013 13.4062342,15.5735908 13.4062342,15.5735908 C13.4062342,15.5735908 14.1806481,15.2237626 14.6029281,15.4737383 L14.7432205,15.4978407 C15.1879473,15.5198771 15.524649,15.3979881 15.524649,15.3979881 L15.6340771,15.3718198 C15.6340771,15.3718198 16.6988961,15.3098424 16.7774599,15.4627201 C16.9549297,15.5061043 16.9437063,15.4689178 17.0671636,15.377329 C17.3442411,15.4675406 17.4557735,15.4820019 17.4557735,15.4820019 L17.740567,15.173492 C17.9082164,14.5495858 17.6598989,14.6473724 17.6598989,14.6473724 C17.6598989,14.6473724 17.2418276,14.7217453 17.1183703,14.8346821 L16.9275727,14.7912978 L16.8518148,14.8133342 L16.8511134,14.8222866 C16.5235307,14.9304027 15.6754633,14.9551937 15.6340771,14.9345346 L15.5022022,14.9407323 L15.258795,14.9235163 C15.0595798,14.8477662 14.8126652,14.8064478 14.8126652,14.8064478 L14.7130576,14.8050706 C13.8229026,14.9758529 13.5521383,14.59297 13.0106097,14.3677853 L12.8015741,14.2638009 C12.8015741,14.2638009 13.2189439,13.7514541 13.7464432,13.3857872 C14.0642055,13.2253345 14.8042477,13.5427967 14.8673793,13.5607013 C15.000657,13.6309424 15.4362648,13.3114143 15.4362648,13.3114143 L15.6340771,13.1585366 C15.7392963,13.1303024 16.4035807,12.6620284 16.985794,12.6964603 L17.1029382,12.6758012 C17.2277984,12.5800805 17.1499361,12.5745714 17.2691846,12.4437301 L17.2902285,12.4568142 C17.3288089,12.535319 17.537143,12.4974439 17.5301284,12.5249894 C17.5609928,12.5050189 17.6598989,12.5566668 17.6697193,12.4747188 L17.722329,12.341123 L17.7433728,12.2281863 L17.7889679,11.9107241 L17.7370597,11.7881465 C17.7033895,11.7213486 17.6220199,11.7426964 17.6220199,11.7364987 L17.1190718,11.9816539 C17.0068379,12.0298585 16.6610172,12.2805228 16.6168251,12.2791456 C16.554395,12.3569617 15.7519227,12.5194803 15.6340771,12.5463372 L15.2566906,12.6117578 L15.1332333,12.6544534 C14.8708866,12.6468784 14.8428281,12.5780146 14.6408071,12.4650779 C14.0578923,12.1310884 13.7990529,12.2639955 13.6005392,12.2095931 C13.5114535,12.2226772 13.2441966,12.2130363 13.2491068,12.0911473 C13.4511278,12.0456972 13.9225101,12.1331542 14.6302852,11.7399419 C14.825993,11.7068872 14.807755,11.7867692 15.0518637,11.7612896 C15.1760225,11.7261691 15.1998722,11.7227259 15.3450748,11.6490416 L15.4257429,11.6201188 L15.6340771,11.5932619 C16.7900862,11.5037389 17.0250759,11.5546982 17.3898361,11.5670937 L17.4620866,11.5560754 C17.537143,11.55883 17.5652015,11.4823912 17.5862454,11.4273001 L17.6051849,11.4211024 L17.6402579,11.4080182 L17.8289512,11.4204137 C17.8289512,11.4204137 17.8065044,11.4403842 17.8373687,11.4520911 C17.9117237,11.4803252 18.1565339,11.5030503 18.1565339,11.5030503 C18.1565339,11.5030503 18.4055528,11.3942455 18.4792063,11.2861292 C18.5528598,11.1780131 18.5535613,10.9734875 18.5535613,10.9734875 L18.5044589,10.5568614 C18.4658785,10.5706342 17.9594231,10.6959663 17.915231,10.6911458 C17.8885754,10.7365959 17.6641077,10.848844 17.6634062,10.8646827 L17.5799322,10.9053123 C17.5799322,10.9053123 17.5153977,10.9101328 17.4992641,10.9218396 L17.4375355,10.9307919 C17.3049592,10.9383669 17.1338025,10.9789966 17.0194642,10.993458 C16.3923573,11.0533695 15.6340771,11.0292672 15.6340771,11.0292672 L15.3555967,10.961092 C15.3555967,10.961092 15.1872459,10.8791441 15.1262187,10.8750122 C15.1262187,10.8750122 14.9340181,10.8467781 14.7397132,10.8936055 C14.6415086,10.9679784 13.9288233,11.0623218 13.6826102,11.0203149 L13.2273615,10.9121987 C13.2350775,10.9004918 13.1915869,10.8089029 13.2420922,10.7662074 C13.4602468,10.5830296 14.0670113,10.2290696 14.1708277,10.0782578 C14.4605314,9.79178428 14.540498,10.0190349 15.0118804,9.88888226 C15.1991707,9.93984153 15.3156134,9.91091873 15.3156134,9.91091873 L15.6572253,9.92262556 C15.4615175,9.91091873 15.957451,10.0279872 16.1251003,10.1457443 L16.1980524,10.2166741 C16.2696015,10.2469742 16.2808249,10.2752084 16.3621945,10.2807174 L16.5761403,10.300688 C16.7501029,10.2635015 16.6778523,10.4342838 16.8153388,10.5596159 L17.0426125,10.6202161 C17.1015353,10.6443184 17.2193808,10.6174615 17.2993475,10.5857842 C17.3786127,10.5541068 17.500667,10.4439247 17.5518737,10.388145 C17.6037819,10.3316767 17.7188217,10.1071806 17.7188217,10.1071806 C17.5280241,10.0727487 17.4326252,9.94466197 17.2221867,9.93433239 C17.0243745,9.92400286 17.0180613,9.92055966 16.8342783,9.86477996 C16.6862698,9.7793888 16.7073137,9.73049548 16.4947708,9.67333853 L16.2639898,9.62237932 C16.1833217,9.65199072 15.7603402,9.56591096 15.7245656,9.53629951 L15.4488911,9.44746516 L15.1367406,9.38204458 C15.018895,9.32764212 15.0637886,9.35243313 14.900348,9.282192 C14.900348,9.282192 14.5608404,9.07215735 14.1897671,9.21539411 C13.8186938,9.35863087 14.007387,9.30147386 13.9112868,9.33521716 C13.5023345,9.50324487 13.3445056,9.51908354 13.1894825,9.54456315 C12.6619832,9.50117897 12.7005636,9.56453366 12.5609727,9.59965426 C12.4466344,9.56040187 12.3982336,9.5128858 12.3982336,9.5128858 C12.23339,9.34692398 11.5101829,9.14515298 11.361473,9.11209839 C11.2401201,9.08455283 11.010742,9.14515298 11.010742,9.14515298 C10.6165205,9.20919637 10.6179234,9.29871932 10.524629,9.32075573 C10.3710088,9.48327435 10.091827,9.46536979 9.93540102,9.43231514 L9.88138843,9.4281833 L9.27672837,9.29527612 L9.34617306,9.02257539 L9.40158856,8.79807932 C9.54538822,8.82769077 10.018875,9.04323455 10.0251881,8.6913404 L10.0118604,8.47786256 L9.9704741,8.47786256 C9.83228612,8.55981053 9.56713356,8.38420777 9.45139234,8.44825111 L9.43104996,8.40417829 C9.43104996,8.40417829 9.5075093,8.30363711 9.59869934,8.29261888 C9.68988938,8.2822893 9.95784777,8.370435 10.0286954,8.33600311 L10.1535556,8.17968222 L10.1458396,8.14525028 C10.100946,7.99237259 10.0216808,7.74859465 10.0216808,7.74859465 L9.94592297,7.66871264 L9.86525481,7.63496935 L9.09364677,7.55921918 C9.03472402,7.55921918 9.16659881,7.47313937 8.88881994,7.45936665 L8.84673222,7.51239176 L7.7903307,7.37259819 L7.59462284,7.30442301 C7.59462284,7.30442301 8.14386746,6.92016292 7.88713242,7.06408827 C7.62969592,7.20801367 7.57638484,7.17427038 7.42066027,7.1618749 C7.6135623,7.06822011 7.98814294,6.63850984 7.76227222,6.84647859 C7.53710296,7.05444733 6.71569114,7.10058611 6.3853026,7.48415761 C6.35584119,7.37741869 6.09419594,7.36226861 6.09419594,7.36226861 L5.92023342,7.38086188 L5.85008722,7.3973892 L5.73715183,7.39325736 L5.6094858,7.42906655 C5.6094858,7.42906655 6.23378684,7.63014891 6.16925236,7.79473343 C6.10471788,7.959318 6.15943187,7.80368571 6.15943187,7.80368571 C6.15943187,7.80368571 5.83956527,8.03575682 5.50356506,8.00270217 C5.16756484,7.97033618 5.68875097,8.44067608 6.0436907,8.3394463 C5.72522702,8.6348721 5.7273314,9.31937848 5.7273314,9.31937848 C5.7273314,9.31937848 5.79817901,9.1609917 6.01913952,8.88966821 C6.24010002,8.61834478 5.93636704,9.07560055 5.92303926,9.09075057 C5.89357786,9.29940797 5.90129391,9.45090836 5.8009849,9.76630467 L5.87744424,9.66094305 L6.0177366,9.44608792 C5.96863428,9.66989534 6.1026135,10.2125423 6.20502689,10.3523358 C6.07104767,10.1402352 6.19520646,10.0149031 6.24641316,9.81864118 C6.24010002,9.90196639 6.19099765,10.2097877 6.4372108,10.4590747 C6.41967421,10.3378744 6.42388302,10.2951788 6.43510637,10.1719126 C6.43931518,10.6574026 7.14428432,10.9796853 7.19198371,11.267536 L7.06431768,10.9156419 L7.7791073,11.4307433 L7.03205044,11.3067884 L6.41195816,10.9741761 C6.1867889,10.2373332 5.54986154,9.18165082 4.78456668,9.02188674 L4.48784829,9.52183809 Z" fill="#000" transform="rotate(90 10.831 11.778)"/>
  <path d="M14.4291867,5.10759444 C14.5021387,4.96160314 14.570882,4.70611837 14.570882,4.70611837 C14.4586481,4.69647744 13.8595997,4.54842024 13.8497792,4.54842024 C13.8336456,4.54773159 13.7620964,4.36179926 13.513779,4.23302393 C13.5144804,4.21098752 13.062739,4.21787385 13.0753653,4.2185625 C13.0851858,4.2185625 12.9939958,4.22958073 12.9925928,4.26745582 C12.9925928,4.26745582 12.7505885,4.32530142 12.7056949,4.32392417 C12.6608014,4.32185823 12.7526929,4.38865616 12.6755321,4.3982971 C12.5703128,4.45132226 12.9252525,4.58216348 12.9252525,4.58216348 C13.0115323,4.58491803 13.1328852,4.66411144 13.1490188,4.67719557 C13.1798831,4.70060928 13.2507308,4.76327538 13.2507308,4.76327538 C13.2121504,4.80183911 13.1048267,4.82043233 13.1048267,4.82043233 C12.9785636,5.11930132 13.2549396,4.84591194 13.3734866,4.8989371 C13.3734866,4.8989371 13.6126851,4.94989631 13.6161924,4.94989631 C13.9907731,5.23154933 14.156318,5.35619287 14.2138379,5.4284999 C14.2138379,5.4284999 14.3562347,5.25358579 14.4291867,5.10759444" fill="#000" transform="rotate(90 13.614 4.823)"/>
  <path d="M10.2070195,9.63593151 C10.2028107,9.48374247 10.2014078,9.33568527 10.1691405,9.12978242 C10.2231531,9.07469137 10.1635288,8.91768183 10.1852742,8.81369746 C10.18808,8.81094291 10.3304767,8.64016066 10.3304767,8.64016066 C10.3788776,8.49761255 10.4272784,8.60848331 10.4272784,8.30823702 L10.3304767,8.00730213 C10.3164475,7.99490666 10.1530069,7.92879737 10.1530069,7.92879737 C10.1256499,7.95840882 9.95519463,8.15122749 9.92783766,8.18152759 C9.83103589,8.38674179 9.80718622,8.5850696 9.81490227,8.59264464 C9.78684379,8.83229073 9.62480614,8.9672638 9.61288128,8.97965928 C9.60516517,8.98723432 9.54203361,9.12427333 9.44453044,9.22481451 L9.81490227,9.46170606 L10.2070195,9.63593151 Z" fill="#000" transform="rotate(90 9.936 8.782)"/>
  <path fill="#FFBF00" transform="rotate(90 13.565 10.1)" d="M13.5639133 10.3295875 13.6691325 9.87095446 13.4600969 9.96323195 13.5190197 10.2930897z"/>
  <path fill="#FFBF00" transform="rotate(90 13.522 9.708)" d="M13.7517792 9.84457431 13.6935579 9.57187358 13.5427436 9.63729422 13.2930232 9.72406262z"/>
  <path d="M20.0771931,14.0973067 C20.537352,13.9430517 20.6439742,13.9437403 20.7674315,13.9705972 C20.9434985,14.009161 20.9434985,14.0546111 20.9820788,14.0559884 C21.00663,14.056677 21.1209683,14.0043405 21.1434151,13.9926336 C21.1658619,13.9809268 21.2072481,13.9258358 21.2079496,13.9134402 C21.2100539,13.8514628 21.2184715,13.8184082 21.2219788,13.7013397 C21.2226803,13.6772373 21.2619621,13.5271142 21.2689767,13.5271142 C21.2689767,13.5271142 21.3706887,13.4300162 21.374196,13.3129477 C21.3777034,13.1855497 21.3440332,13.1531837 21.3440332,13.1394109 C21.3447346,13.1359677 21.3349142,13.1049789 21.3349142,13.1015358 C21.3356156,13.0808766 21.2837074,13.0278515 21.2844089,12.9934196 C21.2851104,12.9727604 21.1897116,12.9479695 21.1862043,12.9479695 C21.1862043,12.9479695 21.1462209,12.9913536 21.1427136,12.9913536 C21.1427136,12.9913536 21.1300873,13.0691698 21.1300873,13.0794993 C21.1300873,13.0794993 21.12658,13.1469859 21.1258785,13.167645 C21.1258785,13.167645 20.9708555,13.386632 20.8845757,13.5023232 C20.7982958,13.6187031 20.6334523,13.6014872 20.4763249,13.6138826 C20.4103875,13.6193917 19.9109466,13.64556 19.9109466,13.64556 L19.5118148,13.635919 C19.452892,13.6269668 19.3750298,13.6428054 19.2971675,13.6173258 C19.2312301,13.5952894 19.1723073,13.5581029 19.1161904,13.556037 C19.0565661,13.5546597 18.9359147,13.4816641 18.8727831,13.4864845 C18.6651504,13.5043891 18.5416931,13.4362139 18.5346785,13.4389685 C18.5346785,13.4389685 17.9784192,13.3053727 17.9223023,13.3129477 C17.891438,13.3170795 17.3043144,13.2378861 17.2138258,13.2020769 C17.1338592,13.1703996 16.8539759,13.1869269 16.843454,13.1862383 L16.521483,13.249593 C16.5004391,13.2489044 16.0907854,13.2681862 16.00661,13.3287864 C15.9385682,13.3776797 15.8915702,13.3811229 15.8214241,13.379057 C15.6986682,13.3749251 15.7162048,13.379057 15.6495659,13.3769911 C15.6074782,13.3763024 15.1466177,13.3039954 15.1185593,13.3026182 C15.0273692,13.2998636 14.92215,13.200011 14.9011061,13.1993224 L15.4545595,12.9527899 C15.4545595,12.9527899 15.4749019,12.9465922 15.5043633,12.9390171 L15.5324218,12.9259331 C15.5836285,12.8846147 15.6706098,12.8164395 15.7084887,12.8054214 C15.7084887,12.8054214 15.8038875,12.6697596 15.8270357,12.5974526 C15.8670191,12.4170294 15.8663176,12.3887952 15.8789439,12.3516087 C15.8789439,12.3516087 15.9645223,12.0396556 15.9988939,11.941869 C16.0536079,11.8798916 16.0571152,11.9060598 16.0970986,11.8571665 C16.0970986,11.8571665 16.1686477,11.7697095 16.161633,11.7201275 C16.1728564,11.6905161 16.1707521,11.6808751 16.161633,11.6609046 L16.1567228,11.6409341 C16.1567228,11.6409341 16.1946017,11.6230295 16.2093324,11.5934181 C16.2093324,11.5934181 20.3430471,11.8578551 20.4012684,11.8612983 C20.4594898,11.8647415 20.4454605,11.7304571 20.4145962,11.7270139 C20.3844334,11.7235707 16.21775,11.4729064 16.2065266,11.4474268 C16.2065266,11.4474268 16.2338836,11.4123062 16.0683386,11.3544606 C16.0465933,11.3372447 16.0164305,11.3716765 15.9764471,11.3372447 C15.9511945,11.3165855 15.8936746,11.3758084 15.8810483,11.3854493 C15.877541,11.3888925 15.8529898,11.4109289 15.8284387,11.4391631 L13.7093224,11.3165855 L13.6398777,11.279399 L13.6132221,11.2979923 L13.59779,11.2752672 L13.6314602,11.2305057 C13.6314602,11.2305057 13.5998944,11.2215534 13.5767461,11.2697581 C13.5641198,11.2690695 13.5058985,11.2835308 13.4904663,11.2828422 C13.4701239,11.2821536 13.4967795,11.2608058 13.4708254,11.2601171 C13.4553932,11.2601171 13.4385582,11.279399 13.4210216,11.279399 C13.3971719,11.2787104 13.3789339,11.2539194 13.3522783,11.2525421 C13.2547752,11.2497876 13.3943661,11.3276037 13.2891468,11.2587399 C13.2540737,11.2360148 13.2428503,11.2022715 13.2428503,11.2022715 C13.1348252,11.2002056 13.1516603,11.1981397 13.0695892,11.2036488 C12.944729,11.2119125 13.0415308,11.2119125 12.8998354,11.2139784 C12.8556433,11.214667 12.7441109,11.207092 12.6571296,11.2139784 C12.5820732,11.2201762 12.467735,11.2153557 12.4179312,11.2181102 C12.3120104,11.2229307 12.0566783,11.2435899 12.0566783,11.2435899 L12.3183236,11.2917945 L12.5168373,11.3282923 L12.6634428,11.3682333 L12.798825,11.3916471 L12.9805036,11.4191926 L13.0766038,11.4391631 L13.219702,11.4859905 L13.2807292,11.3923357 C13.2807292,11.3923357 13.2716102,11.4343426 13.3522783,11.441229 C13.3712178,11.426079 13.3789339,11.4295221 13.3943661,11.4219472 C13.441364,11.426079 13.4041865,11.4357199 13.4210216,11.4370972 C13.4666166,11.441229 13.441364,11.4219472 13.4981824,11.426079 C13.561314,11.4308994 13.4995853,11.4398517 13.5514935,11.441229 C13.6104163,11.4426063 13.561314,11.4364085 13.5711345,11.4295221 C13.5669257,11.4315881 13.59779,11.4370972 13.6090134,11.448804 C13.6468923,11.4515586 13.6146251,11.4343426 13.663026,11.4370972 C13.7261575,11.4419176 13.634266,11.4205699 13.7142327,11.426079 C14.177899,11.4563791 15.7702173,11.5527884 15.7702173,11.5527884 C15.76671,11.5617407 15.7519793,11.5493452 15.7547852,11.5803339 C15.7554866,11.6560841 15.7926641,11.7421639 15.7919627,11.8351301 C15.7260252,11.8977961 15.7456662,11.8792029 15.664998,12.0100442 C15.5878372,12.1167831 15.408263,12.2359175 15.3528475,12.3874179 C15.3332066,12.4060112 15.244121,12.5402956 15.244121,12.5402956 C15.1908098,12.564398 15.1943171,12.5891889 15.0975154,12.5864344 C14.8961959,12.5809253 14.6591018,12.6959278 14.6085965,12.716587 L14.4297237,12.7840735 C14.3490556,12.80611 14.130901,12.716587 13.827168,12.8467396 C13.827168,12.8467396 13.6377733,12.9548559 13.6237441,13.1717769 C13.6083119,13.4644481 13.3740237,13.4851072 13.3677105,13.5119642 C13.2982658,13.4961255 13.2063743,13.5147187 13.2063743,13.5147187 C13.2246123,13.4768436 13.2161947,13.4217526 13.2175977,13.3666615 C13.219702,13.3012409 13.2007626,13.242018 13.1586749,13.2406407 C13.1060652,13.2392634 13.0843199,13.2626771 13.0773053,13.2626771 C13.028203,13.2612998 13.0324117,13.2337543 13.0324117,13.2337543 C13.0324117,13.2337543 13.0225913,13.2089633 13.0015474,13.2082747 C12.9875182,13.2082747 12.9692802,13.2282452 12.9692802,13.2282452 C12.9699816,13.2041429 12.9278939,13.1958792 12.9278939,13.1958792 C12.9208793,13.1993224 12.9103574,13.2020769 12.9103574,13.2020769 L12.8605536,13.2144725 L12.8563448,13.1800405 C12.8577478,13.1215063 12.8142571,13.120129 12.8037352,13.120129 C12.8002279,13.120129 12.6578311,13.184861 12.6438019,13.1876156 C12.6438019,13.1876156 12.586282,13.2309998 12.586282,13.2378861 C12.586282,13.2413293 12.5336724,13.2392634 12.5336724,13.2392634 C12.5063153,13.2075861 12.4354677,13.2365089 12.4284531,13.2365089 C12.4179312,13.2358202 12.2895636,13.2909113 12.2650125,13.2902226 C12.2194175,13.2888454 12.1647034,13.3597751 12.1647034,13.3597751 L12.107885,13.3714819 C12.0938558,13.3749251 12.0433505,13.4183094 12.0426491,13.4424117 C12.0419476,13.466514 11.9816219,13.4885504 11.9795175,13.5608575 C11.9795175,13.5711871 11.951459,13.6841237 11.951459,13.6841237 C11.9184903,13.7247534 11.933221,13.8177195 11.9304152,13.896913 C11.9297137,13.9182607 11.9458474,13.9802382 11.951459,14.0077837 L11.9549663,14.0119155 C11.961981,14.0222451 11.9753087,14.0401497 11.9753087,14.047036 C11.9753087,14.047036 11.9570707,14.0738929 11.9844277,14.081468 C11.9844277,14.081468 11.989338,14.1434454 12.0103818,14.144134 C12.0384403,14.1448227 12.0328286,14.2171297 12.0643944,14.218507 C12.0889456,14.2191956 12.0910499,14.2708435 12.0882441,14.2536275 C12.1120938,14.2715321 12.1520771,14.3521028 12.1864487,14.3596778 C12.2285365,14.3679415 12.4691379,14.4264758 12.5035095,14.5586943 C12.5035095,14.5586943 12.4887788,14.4684827 12.4200356,14.4285416 C12.4200356,14.4285416 12.5245534,14.4423144 12.6171463,14.5139328 C12.706232,14.582108 12.8191673,14.6750741 12.8184659,14.816245 C12.8177644,14.9643022 12.7854972,14.9808295 12.8079439,15.0469387 C12.8374053,15.130264 12.8844033,15.1936187 12.8844033,15.1936187 C12.8844033,15.1936187 12.8086454,15.0262796 12.8093469,15.0125069 C12.8135557,14.9918477 12.8437185,14.806604 12.8177644,14.7301652 C12.7890045,14.6392649 12.7377978,14.5862398 12.7377978,14.5862398 C12.7377978,14.5862398 12.9412217,14.709506 12.9622655,14.8341496 C12.9833094,14.9484635 12.9299983,15.0848139 12.9699816,15.1516118 C12.999443,15.2039483 13.0141737,15.314819 13.0022489,15.3561373 C12.990324,15.3864374 12.9931299,15.5344946 12.9931299,15.5344946 L13.0148752,15.3905693 C13.0148752,15.3905693 13.0331132,15.2741894 13.0268001,15.2356256 C13.0141737,15.187421 12.981205,15.1343958 12.981205,15.1171799 C12.9819065,15.0896343 12.9875182,15.0242137 12.9875182,15.0242137 C12.9875182,15.0242137 12.9896226,15.073107 12.999443,15.090323 C13.009965,15.1082276 13.0471424,15.1536777 13.0450381,15.212212 C13.0429337,15.2810757 13.0618731,15.3575146 13.0618731,15.3575146 C13.0618731,15.3575146 13.0471424,15.2741894 13.0478439,15.2466439 C13.0492468,15.1984392 13.0443366,15.1158026 13.0310088,15.097898 C13.0071591,15.0765502 13.0015474,15.0317887 13.0029503,14.9973568 C13.0036518,14.9698113 13.0415308,14.8747792 13.0394264,14.8258859 C13.0338147,14.7880108 13.110274,14.911277 13.1095725,14.9353794 C13.1088711,14.9594817 13.1278105,15.0359206 13.1278105,15.0359206 C13.1278105,15.0359206 13.129915,15.080682 13.1292135,15.1151139 C13.128512,15.1254435 13.1621822,15.1674504 13.1621822,15.1674504 C13.1621822,15.1674504 13.129915,15.0841252 13.1306164,15.0565797 C13.1313179,15.025591 13.1306164,14.9463976 13.1306164,14.936068 C13.1320193,14.9078338 13.0597688,14.726722 13.0534556,14.7163924 C13.0534556,14.7129492 13.17551,14.8506769 13.184629,14.9064566 C13.2000611,14.9794522 13.2400445,15.0386751 13.2365372,15.1488572 C13.2337313,15.2555961 13.230224,15.3520055 13.2428503,15.404342 C13.2617898,15.4738945 13.3228169,15.5448242 13.3228169,15.5448242 C13.3228169,15.5448242 13.2421488,15.4250011 13.2456561,15.3079326 C13.2491634,15.1977505 13.2638941,15.0737956 13.2414474,14.9904704 C13.219702,14.9140316 13.184629,14.7859449 13.0927375,14.686781 C13.0927375,14.686781 13.2477605,14.7873221 13.3221155,15.0069978 C13.3831427,15.1846664 13.4434684,15.2755667 13.5227336,15.3230827 C13.5227336,15.3230827 13.4090968,15.2507757 13.3613974,15.0841252 C13.3073848,14.9098998 13.2982658,14.8616951 13.248462,14.766663 C13.2218065,14.7143265 13.1278105,14.5738443 13.1278105,14.5738443 C13.1278105,14.5738443 13.2926541,14.7026196 13.3312345,14.8072926 C13.3606959,14.8871747 13.5108087,15.1467913 13.561314,15.1998164 C13.6019988,15.2528416 13.6714435,15.2927826 13.6770552,15.4553012 C13.6770552,15.4553012 13.6931888,15.3692214 13.6167295,15.2466439 C13.5830593,15.1901755 13.5486877,15.1688277 13.4925707,15.0600229 C13.4925707,15.0600229 13.4133055,14.896127 13.4013807,14.8093586 C13.3873514,14.7053742 13.3515769,14.6041444 13.3515769,14.6041444 C13.3515769,14.6041444 13.468721,14.6909128 13.5122117,14.7508243 C13.5564038,14.8107358 13.6019988,15.0393638 13.7577233,15.1027184 C13.9204625,15.1660732 13.937999,15.2976031 13.937999,15.2976031 C13.937999,15.2976031 13.9204625,15.1695164 13.8033183,15.0972094 C13.6896815,15.0249023 13.6461909,14.9581044 13.6209382,14.8775338 C13.588671,14.7735494 13.4238275,14.3947984 13.4876605,14.467794 C13.5683286,14.5580056 13.5402701,14.5614488 13.5956856,14.6599241 C13.5956856,14.6599241 13.6125207,14.8052268 13.6111178,14.8431018 C13.6111178,14.846545 13.7247546,15.042807 13.7738569,15.0441842 C13.8299739,15.0462501 13.901523,15.1846664 14.1259908,15.2204756 C14.1603624,15.2252961 14.2901328,15.259728 14.2971474,15.2631712 C14.369398,15.299669 14.7138158,15.6274608 14.9642377,15.7169838 C15.0820833,15.7624339 15.225883,15.9841754 15.2434195,16.0013914 C15.3619665,16.1198371 15.6495659,16.268583 15.8635117,16.3746333 C16.0052071,16.4579585 15.9771486,16.4503835 16.0711445,16.4772404 C16.1574243,16.6349385 16.2626436,16.7726662 16.2801801,16.7726662 C16.3187605,16.7740435 16.5004391,16.8938665 16.5320049,16.9083279 C16.8097838,17.0336601 16.8090823,16.9379393 16.6070613,16.8394641 C16.5341093,16.809164 16.5249903,16.7974572 16.5249903,16.7974572 C16.741742,16.8139844 16.8231116,16.7650911 16.7157879,16.7175751 C16.6701929,16.7127547 16.5775999,16.6920955 16.5775999,16.6920955 C16.6729987,16.6535318 16.7319215,16.5729611 16.5867189,16.6094589 C16.5263932,16.5949975 16.4948274,16.5619429 16.4948274,16.5619429 C16.4436207,16.5226905 16.4029359,16.535086 16.4029359,16.535086 C16.6877294,16.5199359 16.6512534,16.4531381 16.4302929,16.4359221 C16.3889067,16.4214607 16.3475204,16.3994242 16.3475204,16.3994242 C16.2850903,16.373256 16.3433117,16.2720262 16.0872781,16.2782239 C16.0052071,16.2031623 15.9490901,16.0860939 15.9490901,16.0860939 C15.9182258,16.057171 15.7435618,15.6901268 15.546451,15.6336585 C15.4727975,15.6143767 15.2855072,15.5372492 15.2869101,15.4959309 C15.2876116,15.4821581 15.2237785,15.3699101 15.1529309,15.274878 C15.086292,15.179846 14.7103085,14.9691226 14.7124129,14.8823542 C14.7131143,14.8513655 14.7138158,14.8444791 14.7699327,14.846545 C14.8190351,14.8479223 15.2735824,14.6819605 15.280597,14.6819605 C15.3051481,14.6764514 15.4875282,14.5745329 15.5120794,14.5752216 C15.564689,14.5772875 15.8789439,14.6241149 15.8817498,14.5277055 C15.8831527,14.4898304 16.4127564,14.7260333 16.6337169,14.7329197 C16.861692,14.7398061 17.0244311,14.7026196 17.0384604,14.7033083 C17.0595042,14.7039969 17.2068112,14.6537264 17.2944939,14.6564809 C17.3786693,14.6592355 17.5848991,14.4953395 17.697133,14.4987827 C17.7742938,14.5008487 18.3249414,14.2612025 18.7598477,14.1978478 C18.7598477,14.1978478 18.9857184,14.3341982 19.2193052,14.2956345 L19.3848502,14.3624324 C19.5440821,14.3892893 19.8555311,14.5091123 19.8555311,14.5091123 C19.9165583,14.612408 20.0021367,14.5669579 20.0498361,14.5986353 C20.0926252,14.6316899 20.1627714,14.7122606 20.2111723,14.7232788 C20.2315147,14.7294765 20.2357234,14.7577107 20.2630805,14.7639085 C20.3044667,14.7728608 20.3865377,14.7714835 20.3886421,14.7632198 C20.390045,14.7570221 20.4075816,14.7673517 20.4622956,14.726722 C20.4945629,14.7026196 20.6657196,14.6847151 20.6769429,14.5965694 C20.6769429,14.5965694 20.6818532,14.5772875 20.6916736,14.580042 C20.7014941,14.582108 20.7435818,14.4636622 20.749895,14.4381826 C20.7541037,14.4195894 20.7884754,14.363121 20.7940871,14.3410846 C20.7975944,14.3252459 20.7947885,14.2350343 20.7947885,14.2350343 C20.7947885,14.2350343 20.7449848,14.2226388 20.7484921,14.2095547 C20.7512979,14.1971592 20.6622122,14.1248522 20.6509889,14.1620386 C20.6509889,14.1620386 20.5990807,14.1634159 20.5927675,14.1620386 C20.5829471,14.1599728 20.5780368,14.1585955 20.5633061,14.2191956 C20.5583959,14.2384775 20.4587883,14.2887481 20.446162,14.2956345 C20.446162,14.2956345 20.3065711,14.3589892 20.280617,14.3534801 C20.2616775,14.3486596 20.1753977,14.3397073 20.1641744,14.3438391 C20.1494437,14.3472823 20.2567673,14.3369528 20.0666711,14.2956345 C19.8758735,14.2543162 19.8232639,14.1523977 19.8232639,14.1523977 C19.8232639,14.1523977 20.0715814,14.0993726 20.0771931,14.0973067" fill="#000" transform="rotate(90 16.652 14.084)"/>
  <path d="M2.35154978,16.4317951 L2.52340797,16.4919721 L2.81521609,16.3963969 L2.65037254,16.3919721 C2.65037254,16.3919721 2.57110737,16.43445 2.52551235,16.4096711 C2.47991733,16.3840075 2.35154978,16.4317951 2.35154978,16.4317951" fill="#FFCD00" transform="rotate(90 2.583 16.442)"/>
  <path d="M11.0764498,5.03993878 C11.1024039,5.04889106 11.1276566,5.05784335 11.1276566,5.05784335 C11.1472975,5.06472974 11.1430888,5.12808448 11.1381785,5.16940276 C11.1234478,5.17835504 11.1206419,5.24446433 11.1283581,5.28440537 C11.1290595,5.28715991 11.0953894,5.23413475 11.065928,5.18593008 C11.0413768,5.21072104 11.1101201,5.38219195 11.1038069,5.37323966 C11.1101201,5.40147387 11.0357651,5.24102114 11.0343622,5.24033249 C10.9922745,5.15425274 11.0308548,5.08125706 11.0336607,5.07505932 C11.046287,5.04682517 11.0224373,5.04131603 10.9971847,5.0282319 C10.9971847,5.0282319 11.055406,5.03305239 11.0764498,5.03993878" fill="#000" transform="rotate(90 11.07 5.202)"/>
  <path d="M10.6516513,5.24676994 C10.4924195,5.16964247 10.4636595,4.0388985 10.5625657,3.9493755 L10.7708998,3.94386641 C10.7463487,4.61322277 10.7821232,4.88110307 10.8494636,5.25572223 C10.6951419,5.25159044 10.7056639,5.24676994 10.6516513,5.24676994" fill="#BF2033" transform="rotate(90 10.677 4.6)"/>
  <path d="M10.6240713,11.0282109 C10.6654576,11.0998293 10.6100421,11.1976159 10.6058333,11.3105526 C10.4830775,11.3022889 10.4031109,11.277498 10.2670273,11.2582161 C10.1141086,11.1941727 9.848956,11.2506411 9.71637975,11.1810886 C9.61116047,11.2058796 9.42807893,11.1074043 9.31794937,11.0130609 L9.15731464,10.9531494 C9.04648363,10.8285058 8.72521411,10.8278172 8.53441652,10.5985007 L8.36396131,10.4056819 C8.36396131,10.4056819 8.77501795,10.8402127 9.63360722,11.0020427 C9.72479726,11.0302768 10.2873697,11.098452 10.6240713,11.0282109" fill="#BF2033" transform="rotate(90 9.502 10.858)"/>
  <path d="M6.91271864,10.5895086 C6.91903183,10.5936405 6.94147858,10.5901973 6.94849317,10.5943291 C7.32798403,10.822957 7.49002174,10.9496664 7.85408044,10.8319093 C7.85408044,10.8319093 8.53449844,11.0047575 8.87400596,10.8711617 C8.85927526,11.340813 8.90557174,11.3346152 9.00658226,11.5956091 C8.65374696,11.5632431 7.49142466,11.5336317 7.1673493,11.064669" fill="#BF2033" transform="rotate(90 7.96 11.093)"/>
  <path d="M11.564469,7.85308922 C11.508352,7.86341875 11.2810784,7.72982298 11.2530199,7.69883423 L11.1716503,7.66509099 L11.0874749,7.61550903 C10.9261387,7.59416121 10.9899717,7.58038849 10.7563849,7.61275448 C10.6455539,7.59347261 10.5038587,7.57281345 10.4547563,7.53011787 L10.1994242,7.40271979 L9.93146577,7.50050642 L9.46008341,7.37999472 C9.48533605,7.37241974 9.30576181,7.50532691 9.34364072,7.35451512 C9.11777,7.5094587 9.12127735,7.41304937 8.92065922,7.35589242 C8.93188262,7.33041281 8.79299318,7.20094878 8.85472182,7.1899306 C8.8750642,7.15067822 8.75511427,7.15412141 8.77826248,7.11486903 C8.80141075,7.07561664 9.0406092,7.0707962 9.06305601,7.03567561 C9.08269692,7.00606416 9.37941531,6.58806077 9.36959483,6.55225158 C9.63615035,6.54811974 11.3007193,6.42209895 11.4929198,6.46961503 L11.8492624,6.43862628 C11.9636007,6.52677198 11.932035,6.80360456 11.868202,6.90139119 L11.8422478,7.16513959 L11.6956423,7.43715173 C11.6654794,7.72706838 11.702657,7.65338411 11.564469,7.85308922" fill="#FFF" transform="rotate(90 10.35 7.146)"/>
  <path d="M11.2020446,7.09901086 C11.1361072,7.06044712 11.0905122,7.01293111 11.0238733,7.01086516 C10.9172511,6.87589209 10.671038,7.08868128 10.6247415,6.96541503 C10.3132925,6.95439686 9.97027759,6.82975332 9.86575977,6.80565096 C9.56132533,6.78843504 9.28494938,6.84146015 9.28494938,6.84146015 C9.28354646,6.85661022 8.89914538,6.99502648 8.82058161,7.06802216 C8.77007637,7.08523808 8.68519952,7.1355087 8.68028925,7.13757459 L8.79182172,7.31386599 L9.24145873,7.40752078 L9.09345027,7.12931096 L9.51993907,7.20850432 L9.79280773,7.14377233 L10.0432296,7.23880442 C10.0930334,7.28081135 10.2347287,7.30147052 10.3455597,7.32144103 C10.5791465,7.28907504 10.514612,7.30215916 10.6759482,7.32350693 L10.7601236,7.37308889 L10.8414932,7.40752078 C10.8555224,7.43437769 11.1424203,7.60102816 11.1438232,7.60102816 C11.2616689,7.45916865 11.3023537,7.41716172 11.3191887,7.18509066 L11.2020446,7.09901086 Z" fill="#BF2033" transform="rotate(90 10 7.202)"/>
  <path d="M12.018735,7.70062078 C11.9464844,7.68271616 11.6988684,7.62142736 11.6350354,7.61936147 C11.523503,7.72472308 11.3775989,7.54498854 11.200129,7.61040913 C10.7953856,7.80804834 10.4039699,7.66687748 10.4039699,7.66687748 L10.0735813,7.66687748 C10.0735813,7.66687748 9.91224512,7.68409345 9.84700913,7.63313419 C9.84560621,7.62831375 9.74249131,7.46304058 9.71864163,7.44444736 C9.70250801,7.43205183 9.71513434,7.31842652 9.69338899,7.3335766 C9.7011051,7.32531291 9.51100891,7.3611221 9.53626155,7.3335766 C9.59027409,7.2743537 9.81404043,7.20824441 9.92557284,7.20273532 C9.95433279,7.19653758 9.87156031,7.32118107 9.90523047,7.31567198 C10.4032684,7.23096947 11.4814153,7.21099896 11.6322296,7.24818545 L11.9976912,7.21719675 C12.1120294,7.3053424 12.1520128,7.39279945 12.0881798,7.49058608 L12.0685388,7.63864333 L12.018735,7.70062078 Z" fill="#BF2033" transform="rotate(90 10.826 7.46)"/>
  <path d="M4.47892007,13.0805762 C4.50276979,13.1391104 4.49856104,13.099858 4.58203497,13.1935129 C4.6648075,13.286479 4.85490363,13.1700992 4.89067816,13.099858 C4.92645275,13.0303056 4.73635657,12.9483576 4.73635657,12.9483576 L4.47892007,13.0805762 Z" fill="#FFF" transform="rotate(90 4.687 13.088)"/>
  <path d="M4.59280509,13.4812186 C4.58579049,13.433014 4.58929779,13.4268162 4.51915159,13.4192412 C4.44830392,13.4109775 4.40972355,13.5390642 4.42234987,13.5810712 C4.43427473,13.6237667 4.54510569,13.5865803 4.54510569,13.5865803 L4.59280509,13.4812186 Z" fill="#FFF" transform="rotate(90 4.506 13.51)"/>
  <path d="M15.761486,13.7591705 C15.8183045,13.746775 15.9459705,13.7722546 15.9705217,13.7591705 C15.9957743,13.7426432 16.2497035,13.7178522 16.2931941,13.7116545 C16.4825888,13.6847976 17.1545893,13.7612364 16.6474323,13.7116545 C16.7084595,13.7178522 17.2029901,13.8094411 17.6217629,13.7522841 C17.6687608,13.7453977 17.7276836,14.0415122 17.5340801,14.2487923 C17.5172451,14.2673855 17.1609024,14.2880447 17.1110986,14.3073265 C16.6846098,14.4767315 16.103098,14.4939475 15.8421541,14.4863725 C15.5805089,14.4787974 15.6268054,14.9167713 15.7425466,14.9305441 C15.7495612,14.9305441 16.0392649,15.0365944 16.1711398,15.0517445 C16.3738622,15.0758468 16.5169605,15.0799786 16.5793906,15.069649 C17.1545893,14.9753056 17.5053202,14.708114 17.6708652,14.812787 C17.6708652,14.812787 17.8265897,15.1474652 17.7676669,15.1667471 C17.6610447,15.2018676 17.8581555,14.9518919 16.5506306,15.1095901 C16.3429979,15.134381 15.84496,15.0159353 15.8274234,15.0083602 C15.8105884,15.0014738 15.772008,14.9863238 15.7509641,14.9856352 C15.726413,14.9849466 15.5250934,14.9064418 15.5250934,14.9064418 C15.5250934,14.9064418 15.5868221,14.8568598 15.6057615,14.6984731 C15.6275068,14.5442181 15.7257115,14.2060967 15.6759077,13.9939962 C15.6232981,13.779141 15.5328095,13.7178522 15.5187802,13.7137204 C15.5012437,13.7095885 15.6254024,13.6751567 15.6254024,13.6751567 L15.761486,13.7591705 Z" fill="#FFF" transform="rotate(90 16.649 14.423)"/>
  <path d="M16.5024809,10.08719 C16.8251534,10.2035699 17.0201597,10.1718925 17.1899135,10.1016514 C16.730456,9.73667315 16.2892365,9.9108986 16.1840172,9.88541899 C16.1580631,9.87922125 16.1363178,9.85925074 16.1482426,9.89712582 C16.1538543,9.90332361 16.095633,9.85649619 16.1201842,9.87577806 C16.0156663,9.83790297 16.2478503,9.98871472 16.1236915,9.91916229 C16.2232991,10.3027338 16.6497879,10.4893547 16.8209445,10.5354935 C16.7045019,10.3826158 16.6946814,10.2676132 16.5838505,10.1422811 L16.5024809,10.08719 Z" fill="#FFF" transform="rotate(90 16.641 10.2)"/>
  <path d="M18.5178515,13.2602629 C18.5178515,13.2602629 18.536791,13.2113696 18.5543275,13.2175673 C18.5851919,13.1900218 18.629384,13.1259784 18.6349956,13.0881034 C18.6392044,13.0791511 18.6840979,13.0495396 18.6637556,13.0949897 C18.6897097,13.2568197 18.8868205,13.2313401 18.9015512,13.17074 C18.9099687,13.1721172 18.9211921,13.1672968 18.9218935,13.1920877 C18.8875219,13.2375378 18.8805073,13.3201745 18.8678809,13.3670018 C18.8636722,13.3849064 18.8840146,13.3787087 18.8650751,13.4145179 C18.8222859,13.5253886 18.5150456,13.4572134 18.5178515,13.2602629" fill="#FFCD00" transform="rotate(90 18.72 13.269)"/>
  <path d="M14.4293963,13.1819141 C14.4293963,13.1819141 14.4799016,13.19913 14.4742899,13.2170346 C14.5023484,13.2466461 14.5689873,13.2879644 14.6075676,13.2920962 C14.6166867,13.296228 14.6482525,13.3403009 14.6005531,13.321019 C14.4371124,13.3506305 14.4672753,13.5434491 14.5297054,13.5558446 C14.5290039,13.564797 14.5339141,13.5751265 14.5086616,13.5771924 C14.4616636,13.5441378 14.3774882,13.5393173 14.3290873,13.5282991 C14.3108493,13.5241673 14.3178639,13.5441378 14.2806865,13.5262332 C14.1670496,13.4869808 14.2287782,13.18398 14.4293963,13.1819141" fill="#FFCD00" transform="rotate(90 14.425 13.38)"/>
  <path d="M16.630864,11.6611552 C16.6210591,11.6667619 16.597884,11.6674628 16.5871878,11.6744712 C16.5791657,11.6793772 16.5586646,11.6982999 16.5515338,11.702505 C16.5452943,11.70671 16.5452943,11.7235303 16.5399462,11.7270345 C16.5283586,11.7340429 16.5497511,11.751564 16.5452943,11.7501623 C16.5426203,11.7494615 16.5987754,11.7683843 16.6210591,11.7838028 C16.6353207,11.7929137 16.6593872,11.7943155 16.6879104,11.8034264 C16.7271299,11.8076315 16.6977153,11.7999222 16.7583271,11.8160416 C16.7199991,11.7410514 16.7298039,11.7732901 16.7155423,11.7340429 C16.7030634,11.7319404 16.6477997,11.6674628 16.6754316,11.6856848 C16.6888018,11.6990008 16.6433429,11.6541468 16.630864,11.6611552 M16.6736488,11.0710452 C16.6781056,11.0794553 16.6745402,11.0976772 16.6807797,11.1074891 C16.6852364,11.1144974 16.7030634,11.1341211 16.7075202,11.1411295 C16.7110855,11.1467363 16.7315866,11.1502405 16.7342607,11.1551464 C16.7405001,11.1663599 16.768132,11.1530439 16.7645666,11.1565481 C16.7636752,11.1586506 16.8002206,11.1201042 16.8233957,11.1060873 C16.8385487,11.0969764 16.8456795,11.0787544 16.8626152,11.0591308 C16.8777681,11.0296954 16.8608325,11.0507207 16.8947038,11.0086701 C16.7930898,11.0205845 16.8349833,11.0198836 16.783285,11.022687 C16.7779369,11.0317979 16.6852364,11.0591308 16.714651,11.0423106 C16.7342607,11.0346013 16.6683007,11.0598317 16.6736488,11.0710452 M16.8510276,11.4151592 C16.8973778,11.4011424 16.9579897,11.3639977 16.974034,11.371707 C17.0417767,11.3415707 16.9882956,11.3682027 17.1282377,11.317742 C17.0417767,11.2862041 17.0845615,11.3016226 17.0355372,11.2742897 C16.9936437,11.2609737 16.9651205,11.2427518 16.9374887,11.2413501 C16.8929211,11.2385467 16.8073514,11.2133164 16.8109168,11.214718 C16.8180476,11.2182223 16.7708061,11.2189231 16.7743714,11.2357434 C16.7761542,11.2441535 16.7538704,11.2630763 16.7556531,11.2721872 C16.7574358,11.2826999 16.7547617,11.3198445 16.7565445,11.331058 C16.7592185,11.3478783 16.7823936,11.3675019 16.785959,11.3815188 C16.7913071,11.3990398 16.8403314,11.4109542 16.8510276,11.4151592 M16.6362121,11.0016617 C16.6522564,10.9785339 16.6629526,10.9385858 16.6754316,10.937885 C16.6932585,10.8993386 16.6807797,10.9308765 16.7244558,10.8579888 C16.6629526,10.8713048 16.6932585,10.8642964 16.6531478,10.8670998 C16.6246245,10.8748091 16.6005581,10.8748091 16.5854051,10.8832192 C16.5613386,10.897236 16.5034008,10.9133554 16.5069662,10.9126546 C16.5123143,10.9119538 16.4882479,10.9280732 16.4998354,10.9357824 C16.5042922,10.9392866 16.5034008,10.9561069 16.5096403,10.9603119 C16.5167711,10.9652179 16.5354895,10.9848415 16.5426203,10.9904482 C16.5524252,10.9981575 16.5756002,11.00026 16.5854051,11.0058667 C16.5969927,11.013576 16.6290813,11.0023625 16.6362121,11.0016617 M16.7164336,11.5875667 C16.7155423,11.5777549 16.7039547,11.5623363 16.7048461,11.5511228 C16.7057374,11.5434136 16.7137596,11.5195849 16.714651,11.5125764 C16.714651,11.5062689 16.732478,11.4964571 16.732478,11.4908503 C16.7333693,11.4796368 16.7645666,11.4838419 16.7601098,11.4810385 C16.7583271,11.4796368 16.8100255,11.5048672 16.8385487,11.5111747 C16.8563757,11.5153798 16.8715287,11.5300975 16.8973778,11.5427127 C16.9241184,11.5658405 16.8991606,11.5511228 16.9508589,11.5805582 C16.8510276,11.599481 16.8902471,11.5875667 16.8403314,11.6001819 C16.8314179,11.5931734 16.785959,11.6120962 16.752979,11.6163013 C16.7467396,11.6120962 16.7164336,11.599481 16.7164336,11.5875667" fill="#FFCD00" transform="rotate(90 16.812 11.337)"/>
  <path d="M2.78264431,14.3948339 C2.78264431,14.3948339 2.83174663,14.4092953 2.82543344,14.3624679 C2.82052323,14.3314792 2.79527058,14.3307905 2.77633113,14.3438747 C2.80719544,14.3321678 2.79667356,14.2302494 2.72442297,14.2509085 C2.64305336,14.2729449 2.69145427,14.3521383 2.70408054,14.3548929 C2.68584254,14.345252 2.65427677,14.3493838 2.65778406,14.3803725 C2.66269433,14.4306431 2.70828935,14.400343 2.70828935,14.400343 L2.7160054,14.5105251 L2.53362532,14.5490889 C2.53362532,14.5490889 2.54975894,14.4981296 2.49925371,14.5077705 C2.46838939,14.5139683 2.4732996,14.544957 2.4880303,14.5587298 C2.48171717,14.5477116 2.39052713,14.5256752 2.39263151,14.6083118 C2.39403443,14.6819961 2.49644787,14.6627142 2.49855225,14.6296595 C2.4915376,14.651696 2.49925371,14.6751097 2.53011803,14.6702892 C2.57851889,14.6634028 2.54975894,14.6213959 2.54975894,14.6213959 L2.71881124,14.5842094 L2.72722881,14.6833733 C2.72722881,14.6833733 2.67742503,14.6689119 2.68443963,14.7157393 C2.68864838,14.7460394 2.71460249,14.746728 2.73354194,14.7343326 C2.70197616,14.7460394 2.71249811,14.8479579 2.78545015,14.8272987 C2.86611825,14.8052623 2.81841885,14.7260689 2.80579253,14.7233143 C2.82332906,14.7329553 2.85489484,14.7288234 2.85208901,14.6978347 C2.84647733,14.6475641 2.80158377,14.6778642 2.80158377,14.6778642 L2.7931662,14.569748 L3.22316235,14.4698955 L3.18317901,14.4134272 L2.79246474,14.4981296 L2.78264431,14.3948339 Z" fill="#FFF" transform="rotate(90 2.808 14.54)"/>
  <path fill="#FFBF00" transform="rotate(90 8.992 7.847)" d="M8.7623906 7.76074499 8.99457445 8.03620027 9.22254955 7.65744927z"/>
  <path d="M4.77680544,16.24289 C4.65264665,16.220165 4.68140659,16.1939967 4.56706834,16.1960626 C4.52708499,16.1967513 4.17705554,16.2401355 4.1791411,16.3441199 C4.28858795,16.3331016 4.55865077,16.3165743 4.64352768,16.3585812 C4.70946507,16.357204 5.10438809,16.349629 5.23415856,16.2304946 L5.14226706,16.2194763 C5.1121042,16.2167218 4.9907513,16.2236082 4.9353358,16.2236082 C4.89675537,16.2270514 4.95357379,16.220165 4.84414576,16.2387582 L4.77680544,16.24289 Z" fill="#FFCD00" transform="rotate(90 4.707 16.277)"/>
 </g>
</svg>
