<svg width="20" height="20" viewBox="0 0 5.292 5.292" xmlns="http://www.w3.org/2000/svg">
 <path d="m2.6458 5.1594c0.29093 0 0.55909-0.11648 0.76676-0.30987 0.79854-0.83547 1.3894-1.8743 1.6942-3.0174 0.031728-0.10042 0.052541-0.2267 0.052541-0.35802 0-0.54278-0.35555-0.99956-0.85739-1.1352-0.53327-0.13701-1.0687-0.20663-1.6562-0.20663-0.58748 0-1.1229 0.069619-1.6562 0.20663-0.50184 0.13564-0.85739 0.59242-0.85739 1.1352 0 0.13132 0.020812 0.2576 0.05254 0.35802 0.30481 1.1431 0.89571 2.1819 1.6942 3.0174 0.20766 0.19339 0.47583 0.30987 0.76676 0.30987z" fill="#003f87" stroke="#fff" stroke-linejoin="round" stroke-width=".265" style="fill:#fff;stroke:#000"/>
</svg>
