<svg width="28" height="20" xmlns="http://www.w3.org/2000/svg">
 <path style="fill:#fff;stroke-width:2;stroke-miterlimit:4;stroke-dasharray:none;paint-order:markers stroke fill;stroke:#000;stroke-linejoin:round;stroke-linecap:round" d="M 1.4382933,7.0146942 C 1.4382933,6.3836776 1.1961244,5.6502761 1,5.0908161 V 2.3041522 L 2.01275,1 C 3.7777903,1.3969073 5.7098904,1.8256903 7.7395298,1.8256903 9.9801439,1.8256903 12.101401,1.4782082 13.994125,1 15.892302,1.4816772 18.02104,1.8319984 20.270225,1.8319984 22.300487,1.8319984 24.240149,1.3971528 26,1 l 1.000456,1.3043976 v 2.7864185 c -0.19621,0.5594764 -0.438768,1.2929434 -0.438768,1.9239927 0,0.780274 0.145468,1.5197952 0.43854,2.1840052 -7.48e-4,4.771716 -5.371648,8.323583 -12.918581,9.786459 -0.03048,0.0082 -0.02455,0.0041 -0.0822,0.01473 -0.105875,-0.02684 -0.1131,-0.02504 -0.193772,-0.045 C 6.337475,17.472489 1,13.93876 1,9.198814 1.2932611,8.534981 1.4382933,7.7948947 1.4382933,7.0146942 Z"/>
 <path style="fill:none;stroke:#000;stroke-width:1px;stroke-linecap:butt;stroke-linejoin:miter;stroke-opacity:1" d="m 0.5,4.5 h 27"/>
</svg>
