<svg width="22" height="21" xmlns="http://www.w3.org/2000/svg">
 <g fill="none" fill-rule="evenodd">
  <path d="M10.8553487,0.522191046 C12.7064083,1.1499044 16.2583722,2.91672937 18.9219393,7.57547464 C20.2554561,9.90710666 21.4793665,13.1747632 21.4636972,15.9160756 L21.4946142,16.5539789 C21.5112777,17.1582891 21.4840083,17.5025726 21.4840083,17.5025726 L20.0431555,18.491591 C18.348598,19.2568847 14.9806692,20.5 11.0005286,20.5 C6.52368045,20.5 2.82089975,18.9284912 1.4020398,18.2328833 L0.513021913,17.7692982 L0.521689379,16.1518789 C0.533269482,15.9341385 0.55043236,15.6929746 0.575318901,15.430959 L0.703827367,14.5621389 C1.10885219,12.0042067 1.70795868,9.9665959 3.07501927,7.5746137 C6.32347976,1.8924416 10.8553487,0.522191046 10.8553487,0.522191046 Z" stroke="#FFF" fill="#9BCBEB"/>
  <path fill="#D8D8D8" transform="rotate(-180 11 4)" d="M11 4.76474144 9.8244295 5.61803399 10.2726877 4.2363181 9.09788697 3.38196601 10.5504963 3.38131118 11 2 11.4495037 3.38131118 12.902113 3.38196601 11.7273123 4.2363181 12.1755705 5.61803399z"/>
  <path fill="#BF2033" fill-rule="nonzero" transform="rotate(-180 11 4.191)" d="M11 2.38196601 11.4495037 3.76327719 12.902113 3.76393202 11.7273123 4.61828411 12.1755705 6 11 5.14670745 9.8244295 6 10.2726877 4.61828411 9.09788697 3.76393202 10.5504963 3.76327719z"/>
  <path fill="#D8D8D8" transform="rotate(-180 8 7)" d="M8 7.76474144 6.8244295 8.61803399 7.27268767 7.2363181 6.09788697 6.38196601 7.55049626 6.38131118 8 5 8.44950374 6.38131118 9.90211303 6.38196601 8.72731233 7.2363181 9.1755705 8.61803399z"/>
  <path fill="#BF2033" fill-rule="nonzero" transform="rotate(-180 8 7.191)" d="M8 5.38196601 8.44950374 6.76327719 9.90211303 6.76393202 8.72731233 7.61828411 9.1755705 9 8 8.14670745 6.8244295 9 7.27268767 7.61828411 6.09788697 6.76393202 7.55049626 6.76327719z"/>
  <path fill="#D8D8D8" transform="rotate(-180 14 7)" d="M14 7.76474144 12.8244295 8.61803399 13.2726877 7.2363181 12.097887 6.38196601 13.5504963 6.38131118 14 5 14.4495037 6.38131118 15.902113 6.38196601 14.7273123 7.2363181 15.1755705 8.61803399z"/>
  <path fill="#BF2033" fill-rule="nonzero" transform="rotate(-180 14 7.191)" d="M14 5.38196601 14.4495037 6.76327719 15.902113 6.76393202 14.7273123 7.61828411 15.1755705 9 14 8.14670745 12.8244295 9 13.2726877 7.61828411 12.097887 6.76393202 13.5504963 6.76327719z"/>
  <path d="M0.974290541,14.2941176 L2.65336021,13.254902 L3.60483303,11.5490196 L3.82870898,11.3137255 L3.82870898,10.5686275 L4.01527228,10.2156863 L4.38839887,10.1176471 L4.64958749,10.372549 L4.64958749,10.8235294 L4.53764951,10.9607843 L4.53764951,11.2156863 C4.73665036,11.2810458 4.83615078,11.3137255 4.83615078,11.3137255 C4.82371323,11.496732 4.81749445,11.5882353 4.81749445,11.5882353 C4.71799403,11.6666667 4.66824382,11.7058824 4.66824382,11.7058824 C4.63093116,11.9542484 4.61227483,12.0784314 4.61227483,12.0784314 C4.26402334,12.4575163 4.0898976,12.6470588 4.0898976,12.6470588 C3.84114654,12.8431373 3.716771,12.9411765 3.716771,12.9411765 C3.716771,13.1372549 3.716771,13.2352941 3.716771,13.2352941 C4.10233515,13.0130719 4.29511722,12.9019608 4.29511722,12.9019608 C4.66824382,12.9019608 4.85480711,12.9019608 4.85480711,12.9019608 C4.82993201,12.5751634 4.81749445,12.4117647 4.81749445,12.4117647 C5.11599573,12.4117647 5.26524637,12.4117647 5.26524637,12.4117647 C5.35230924,12.5947712 5.39584067,12.6862745 5.39584067,12.6862745 C5.64459174,12.7124183 5.76896727,12.7254902 5.76896727,12.7254902 C5.79384237,12.5424837 5.80627993,12.4509804 5.80627993,12.4509804 C6.31621961,12.0065359 6.57118944,11.7843137 6.57118944,11.7843137 C6.50900168,12.0457516 6.4779078,12.1764706 6.4779078,12.1764706 C6.12965631,12.5947712 5.95553057,12.8039216 5.95553057,12.8039216 C5.88090525,12.9607843 5.84359259,13.0392157 5.84359259,13.0392157 C5.83115503,13.2222222 5.82493626,13.3137255 5.82493626,13.3137255 C6.16075019,13.3267974 6.32865716,13.3333333 6.32865716,13.3333333 C6.39084492,12.9803922 6.42193881,12.8039216 6.42193881,12.8039216 C6.48412657,12.5163399 6.51522046,12.372549 6.51522046,12.372549 C6.6893462,11.9934641 6.77640907,11.8039216 6.77640907,11.8039216 C6.8759095,11.6078431 6.92565971,11.5098039 6.92565971,11.5098039 C7.13709811,11.6535948 7.23659854,11.7254902 7.22416098,11.7254902 C7.18684832,11.4771242 7.16819199,11.3529412 7.16819199,11.3529412 C6.91944093,11.2875817 6.7950654,11.254902 6.7950654,11.254902 C6.53387679,11.4117647 6.40328248,11.4901961 6.40328248,11.4901961 C6.2913445,11.5555556 6.23537551,11.5882353 6.23537551,11.5882353 C6.24781306,11.2745098 6.25403184,11.1176471 6.25403184,11.1176471 C6.17940652,10.9869281 6.14209386,10.9215686 6.14209386,10.9215686 C6.12965631,10.7908497 6.12343753,10.7254902 6.12343753,10.7254902 C5.999062,10.8431373 5.93687424,10.9019608 5.93687424,10.9019608 C5.80006115,11.0849673 5.73165461,11.1764706 5.73165461,11.1764706 C5.71921706,11.3333333 5.71299828,11.4117647 5.71299828,11.4117647 C5.89956158,11.4901961 5.99284322,11.5294118 5.99284322,11.5294118 C5.99284322,11.7647059 5.99284322,11.8823529 5.99284322,11.8823529 C5.80627993,11.9738562 5.71299828,12.0196078 5.71299828,12.0196078 C5.65081051,12.1633987 5.61971663,12.2352941 5.61971663,12.2352941 C5.50777865,12.3006536 5.45180966,12.3333333 5.45180966,12.3333333 C5.33987169,12.2026144 5.2839027,12.1372549 5.2839027,12.1372549 C5.42071578,11.9411765 5.48912232,11.8431373 5.48912232,11.8431373 C5.51399743,11.620915 5.52643498,11.5098039 5.52643498,11.5098039 C5.55131009,11.3921569 5.56374764,11.3333333 5.56374764,11.3333333 C5.3896219,11.3986928 5.29634025,11.4313725 5.2839027,11.4313725 C5.15952717,11.4575163 5.0973394,11.4705882 5.0973394,11.4705882 C5.04758919,11.3267974 5.02271408,11.254902 5.02271408,11.254902 C5.0973394,11.0718954 5.13465206,10.9803922 5.13465206,10.9803922 C5.03515163,10.875817 4.98540142,10.8235294 4.98540142,10.8235294 C4.97296387,10.5359477 4.96674509,10.3921569 4.96674509,10.3921569 C5.11599573,10.1045752 5.19062105,9.96078431 5.19062105,9.96078431 C5.66324807,9.93464052 5.89956158,9.92156863 5.89956158,9.92156863 C6.01149955,10.0784314 6.06746854,10.1568627 6.06746854,10.1568627 C6.44059514,10.0261438 6.62715843,9.96078431 6.62715843,9.96078431 C6.9007846,10.0130719 7.03759769,10.0392157 7.03759769,10.0392157 C7.18684832,10.3398693 7.26147364,10.4901961 7.26147364,10.4901961 C7.38584917,10.7908497 7.44803694,10.9477124 7.44803694,10.9607843 C7.4853496,11.3529412 7.50400593,11.5490196 7.50400593,11.5490196 C7.44181816,11.8496732 7.41072428,12 7.41072428,12 C7.51022471,12.1176471 7.55997492,12.1764706 7.55997492,12.1764706 C7.78385087,12.0849673 7.89578885,12.0392157 7.89578885,12.0392157 C8.39329098,11.4640523 8.64204204,11.1764706 8.64204204,11.1764706 C8.78133572,10.4379085 8.85098257,10.0686275 8.85098257,10.0686275 C8.92560789,9.91176471 8.96292054,9.83333333 8.96292054,9.83333333 C9.17435895,10.0163399 9.28007815,10.1078431 9.28007815,10.1078431 C9.57857942,9.80718954 9.72783006,9.65686275 9.72783006,9.65686275 C9.74026761,9.55228758 9.74648639,9.5 9.74648639,9.5 C9.43554756,9.72222222 9.28007815,9.83333333 9.28007815,9.83333333 C9.16814017,9.70261438 9.11217118,9.6372549 9.11217118,9.6372549 C8.92560789,9.58496732 8.83232624,9.55882353 8.83232624,9.55882353 C8.83232624,9.21895425 8.83232624,9.04901961 8.83232624,9.04901961 C8.98157687,8.91830065 9.05620219,8.85294118 9.05620219,8.85294118 C8.84476379,8.7745098 8.73904459,8.73529412 8.73904459,8.73529412 C8.76391969,8.55228758 8.77635725,8.46078431 8.77635725,8.46078431 C9.08977668,8.32026144 9.24648639,8.25 9.24648639,8.25 C9.41549546,8.08333333 9.5,8 9.5,8 C9.97278249,8 10.2216113,8 10.2464864,8 C10.6545832,8.40196078 10.8586317,8.60294118 10.8586317,8.60294118 C10.8710692,8.87745098 10.877288,9.01470588 10.877288,9.01470588 C10.9567536,9.17156863 10.9964864,9.25 10.9964864,9.25 C10.9964864,9.41666667 10.9964864,9.5 10.9964864,9.5 C10.6631531,9.5 10.4964864,9.5 10.4964864,9.5 C10.5140406,9.59477124 10.5228177,9.64215686 10.5228177,9.64215686 C10.9456945,9.89052288 11.1571329,10.0147059 11.1571329,10.0147059 C11.08485,10.8153595 11.0487086,11.2156863 11.0487086,11.2156863 C10.9118955,11.5816993 10.8434889,11.7647059 10.8434889,11.7647059 C10.7439885,11.9346405 10.6942383,12.0196078 10.6942383,12.0196078 C10.7066759,12.2026144 10.7128946,12.2941176 10.7128946,12.2941176 C10.9118955,12.0718954 11.0113959,11.9607843 11.0113959,11.9607843 C11.0860212,11.6862745 11.1233339,11.5490196 11.1233339,11.5490196 C11.3969601,11.379085 11.5337731,11.2941176 11.5337731,11.2941176 C11.4840229,11.124183 11.4591478,11.0392157 11.4591478,11.0392157 C11.3098972,11.0261438 11.2352719,11.0196078 11.2352719,11.0196078 C11.2974596,10.6535948 11.3285535,10.4705882 11.3285535,10.4705882 C11.4404915,10.2875817 11.4964605,10.1960784 11.4964605,10.1960784 C11.8198369,10.1830065 11.9815251,10.1764706 11.9815251,10.1764706 C12.0312753,10.2941176 12.0561504,10.3529412 12.0561504,10.3529412 C11.9939626,10.6535948 11.9628687,10.8039216 11.9628687,10.8039216 C12.0001814,10.9084967 12.0188377,10.9673203 12.0188377,10.9803922 C12.2302761,10.8496732 12.3359953,10.7843137 12.3359953,10.7843137 C12.4728084,10.5882353 12.5412149,10.4901961 12.5412149,10.4901961 C12.4417145,10.2679739 12.3919643,10.1568627 12.3919643,10.1568627 C12.3422141,9.93464052 12.317339,9.82352941 12.317339,9.82352941 C12.3919643,9.48366013 12.429277,9.31372549 12.429277,9.31372549 C12.6655905,9.23529412 12.7837472,9.19607843 12.7837472,9.19607843 C13.0200607,9.22222222 13.1382175,9.23529412 13.1382175,9.23529412 C13.2377179,9.37908497 13.2874681,9.45098039 13.2874681,9.45098039 C13.2004053,9.79084967 13.1568738,9.96078431 13.1568738,9.96078431 C13.1568738,10.248366 13.1568738,10.3921569 13.1568738,10.3921569 C13.4553751,10.5751634 13.6046257,10.6666667 13.6046257,10.6666667 C13.6916886,10.7581699 13.73522,10.8039216 13.73522,10.8039216 C13.7227825,11.3529412 13.7165637,11.627451 13.7165637,11.627451 C14.0648152,11.5490196 14.2389409,11.5098039 14.2389409,11.5098039 C14.2016283,11.2614379 14.182972,11.1372549 14.182972,11.1372549 C14.1954095,10.627451 14.2016283,10.372549 14.2016283,10.372549 C14.4503793,10.3071895 14.5747549,10.2745098 14.5747549,10.2745098 C14.848381,10.3398693 14.9851941,10.372549 14.9851941,10.372549 L15.5,9.25 L15.5,9.5 C15.131921,10.4869281 14.9478815,10.9803922 14.9478815,10.9803922 C15.3210081,10.9150327 15.5075714,10.8823529 15.5075714,10.8823529 C15.7563224,11.0261438 15.880698,11.0980392 15.880698,11.0980392 C15.7065722,11.3464052 15.6195093,11.4705882 15.6195093,11.4705882 C15.6692596,11.5882353 15.6941347,11.6470588 15.6941347,11.6470588 C15.9926359,11.8169935 16.1418866,11.9019608 16.1418866,11.9019608 C16.1916368,12.4509804 16.2165119,12.7254902 16.2165119,12.7254902 C16.4279503,12.2679739 16.5336695,12.0392157 16.5336695,12.0392157 C16.6704826,11.8300654 16.7388891,11.7254902 16.7388891,11.7254902 C16.5772009,11.5947712 16.4963568,11.5294118 16.4963568,11.5294118 C16.4963568,11.0980392 16.4963568,10.8823529 16.4963568,10.8823529 C16.8694834,10.8431373 17.0560467,10.8235294 17.0560467,10.8235294 C17.2052974,11.0718954 17.2799227,11.1960784 17.2799227,11.1960784 C17.5659864,11.1045752 17.7090183,11.0588235 17.7090183,11.0588235 C17.6095178,10.6797386 17.5597676,10.4901961 17.5597676,10.4901961 C17.6468305,10.3071895 17.6903619,10.2156863 17.6903619,10.2156863 C17.9764257,10.0718954 18.1194575,10 18.1194575,10 C18.3060208,10.2222222 18.3993025,10.3333333 18.3993025,10.3333333 C18.4490527,10.5816993 18.4739278,10.7058824 18.4739278,10.7058824 C18.41174,10.8496732 18.3806461,10.9215686 18.3806461,10.9215686 C18.1940828,11 18.1008012,11.0392157 18.1008012,11.0392157 C18.2003016,11.130719 18.2562706,11.1764706 18.2687082,11.1764706 C18.467709,11.2026144 18.5672094,11.2156863 18.5672094,11.2156863 C18.5920845,11.5947712 18.6045221,11.7843137 18.6045221,11.7843137 C18.5423343,11.9934641 18.5112404,12.0980392 18.5112404,12.0980392 C18.8097417,12.0196078 18.9589924,11.9803922 18.9589924,11.9803922 C18.9216797,11.6405229 18.9030234,11.4705882 18.9030234,11.4705882 C19.1268993,11.4052288 19.2388373,11.372549 19.2388373,11.372549 C19.1766495,11.2156863 19.1455556,11.1372549 19.1455556,11.1372549 C19.0211801,10.8235294 18.9589924,10.6666667 18.9589924,10.6666667 C18.9341172,10.4575163 18.9216797,10.3529412 18.9216797,10.3529412 C19.0709303,10.1699346 19.1455556,10.0784314 19.1455556,10.0784314 C19.3694316,10.0130719 19.4813696,9.98039216 19.4813696,9.98039216 C19.6306202,10.0326797 19.7052455,10.0588235 19.7052455,10.0588235 C19.7798709,10.4509804 19.8171835,10.6470588 19.8171835,10.6470588 C19.692808,10.8300654 19.6306202,10.9215686 19.6306202,10.9215686 C19.6181827,11.0784314 19.6119639,11.1568627 19.6119639,11.1568627 C19.9850905,11.1830065 20.1716538,11.1960784 20.1716538,11.1960784 C20.2711542,11.4052288 20.3209044,11.5098039 20.3209044,11.5098039 C20.6069681,11.6797386 20.75,11.7712418 20.75,11.7843137 C20.7126873,12.1895425 20.694031,12.3921569 20.694031,12.3921569 C20.5696555,12.5359477 20.5074677,12.6078431 20.5074677,12.6078431 C20.2462791,13.3137255 20.1156848,13.6666667 20.1156848,13.6666667 C20.1529975,15.8627451 20.1716538,16.9607843 20.1716538,16.9607843 C19.3259002,16.869281 18.9030234,16.8235294 18.9030234,16.8235294 C18.1567702,16.7189542 17.7836436,16.6732026 17.7836436,16.6862745 C17.1617659,16.751634 16.8508271,16.7843137 16.8508271,16.7843137 C15.9677608,16.7973856 15.5262277,16.8039216 15.5262277,16.8039216 C15.5013526,17.0784314 15.488915,17.2156863 15.488915,17.2156863 C15.2899142,17.2810458 15.1904138,17.3137255 15.1904138,17.3137255 C14.7924121,17.3137255 14.5934112,17.3137255 14.5934112,17.3137255 C14.5063483,17.1699346 14.4628169,17.0980392 14.4628169,17.0980392 C14.487692,16.4705882 14.5001296,16.1568627 14.5001296,16.1568627 C14.3384414,16.0392157 14.2575973,15.9803922 14.2575973,15.9803922 C14.1332217,16.0196078 14.071034,16.0392157 14.071034,16.0392157 C14.1207842,16.6013072 14.1456593,16.8823529 14.1456593,16.8823529 C13.8844707,17.1176471 13.7538764,17.2352941 13.7538764,17.2352941 C13.0449358,17.3137255 12.6904656,17.3529412 12.6904656,17.3529412 C12.5287774,17.2614379 12.4479333,17.2156863 12.4479333,17.2156863 C12.1743071,17.3986928 12.037494,17.4901961 12.037494,17.4901961 C11.6021797,17.503268 11.3845225,17.5098039 11.3845225,17.5098039 C11.3596474,17.4052288 11.3472098,17.3529412 11.3472098,17.3529412 C11.148209,17.496732 11.0487086,17.5686275 11.0487086,17.5686275 C10.3024554,17.5294118 9.92932879,17.5098039 9.92932879,17.5098039 C10.0537043,17.2352941 10.1158921,17.0980392 10.1158921,17.0980392 C9.65570262,16.9803922 9.42560789,16.9215686 9.42560789,16.9215686 C9.11466906,16.6732026 8.95919964,16.5490196 8.95919964,16.5490196 C8.89701188,17.0326797 8.865918,17.2745098 8.865918,17.2745098 C8.69179225,17.5490196 8.60472938,17.6862745 8.60472938,17.6862745 C8.41816608,17.8431373 8.32488443,17.9215686 8.32488443,17.9215686 C7.57863125,17.9215686 7.20550465,17.9215686 7.20550465,17.9215686 C6.81994051,17.7254902 6.62715843,17.627451 6.62715843,17.627451 C6.65203354,17.0784314 6.66447109,16.8039216 6.66447109,16.8039216 C6.19184407,16.0588235 5.95553057,15.6862745 5.95553057,15.6862745 C5.84359259,15.6732026 5.7876236,15.6666667 5.7876236,15.6666667 C5.7876236,15.9542484 5.7876236,16.0980392 5.7876236,16.0980392 C6.14831264,16.5294118 6.32865716,16.745098 6.32865716,16.745098 C6.35353227,17.2418301 6.36596982,17.4901961 6.36596982,17.4901961 C6.24159429,17.6470588 6.17940652,17.7254902 6.17940652,17.7254902 C5.54509131,17.7385621 5.22793371,17.745098 5.22793371,17.745098 C5.21549615,17.6013072 5.22171493,17.5294118 5.24659004,17.5294118 C5.38340312,17.372549 5.45180966,17.2941176 5.45180966,17.2941176 C5.19062105,16.9281046 5.06002674,16.745098 5.06002674,16.745098 C4.94808876,16.7712418 4.89211977,16.7843137 4.89211977,16.7843137 C4.95430754,17.0457516 4.98540142,17.1764706 4.98540142,17.1764706 C5.06002674,17.3333333 5.0973394,17.4117647 5.0973394,17.4117647 C4.87346344,17.5686275 4.76152547,17.6470588 4.76152547,17.6470588 C4.40083643,17.6862745 4.22049191,17.7058824 4.22049191,17.7058824 C4.0090535,17.5751634 3.9033343,17.5098039 3.9033343,17.5098039 C3.86602164,17.1045752 3.84736531,16.9019608 3.84736531,16.9019608 C3.72298978,16.8888889 3.66080201,16.8823529 3.66080201,16.8823529 C3.5861767,17.1437908 3.54886404,17.2745098 3.54886404,17.2745098 C3.37473829,17.4836601 3.28767542,17.5947712 3.28767542,17.6078431 C2.70311042,17.5816993 2.40460915,17.5686275 2.3921716,17.5686275 C2.29267117,17.4640523 2.24292096,17.4117647 2.24292096,17.4117647 C2.35485894,17.2679739 2.41082793,17.1960784 2.41082793,17.1960784 C2.60982878,17.0261438 2.7093292,16.9411765 2.7093292,16.9411765 C3.02026803,16.3660131 3.17573744,16.0784314 3.17573744,16.0784314 C3.188175,15.8300654 3.19439377,15.7058824 3.19439377,15.7058824 C3.08245579,15.7581699 3.02648681,15.7843137 3.02648681,15.7843137 C2.23048341,16.9738562 1.83248171,17.5686275 1.83248171,17.5686275 C1.83248171,17.751634 1.83248171,17.8431373 1.83248171,17.8431373 C1.64591841,17.9477124 1.55263676,18 1.55263676,18 C1.00538442,18 0.737977032,18 0.750414585,18 C0.775289691,17.869281 0.787727244,17.8039216 0.787727244,17.8039216 C0.874790116,17.7254902 0.918321552,17.6862745 0.918321552,17.6862745 C0.968071765,17.4901961 0.992946871,17.3921569 0.992946871,17.3921569 C1.35363591,17.0392157 1.53398043,16.8627451 1.53398043,16.8627451 C1.73298128,16.4444444 1.83248171,16.2352941 1.83248171,16.2352941 C2.06879522,15.6732026 2.18695197,15.3921569 2.18695197,15.3921569 C2.59739122,14.6470588 2.80261085,14.2745098 2.80261085,14.2745098 C2.7901733,14.0784314 2.78395452,13.9803922 2.78395452,13.9803922 L2.33620261,14.0588235 L1.55263676,14.6078431 L0.992946871,14.6078431 L0.974290541,14.2941176 Z" fill="#003F87"/>
  <path d="M15.5,9.25 L16.1169202,8.22179971 C16.145335,8.17444169 16.206761,8.15908518 16.254119,8.1875 C16.2782785,8.20199565 16.2952021,8.22601031 16.3007275,8.25363768 L16.6961618,10.2308089 C16.706993,10.2849648 16.6718713,10.3376473 16.6177153,10.3484785 C16.5887482,10.354272 16.5587017,10.3469614 16.5356342,10.3285074 L15.5,9.5 L15.5,9.5 L15.5,9.25 Z" fill="#BF2033"/>
 </g>
</svg>
