<svg width="20" height="20" viewBox="0 0 3.333 3.333" xmlns="http://www.w3.org/2000/svg">
 <path d="M 3.178843,0.08352056 A 0.06646093,0.06585131 0 0 0 3.147546,0.09367638 0.89123434,0.88306829 0 0 1 2.7002274,0.23041426 l -0.1833965,0.006165 A 0.72368289,0.71705121 0 0 0 2.2194109,0.31093258 0.2505146,0.24821824 0 0 1 1.945606,0.27756464 0.15990315,0.15844084 0 0 0 1.75965,0.26215016 0.10050344,0.0995818 0 0 1 1.6459921,0.25507755 0.27748168,0.27493818 0 0 0 1.3463781,0.22769442 0.21430456,0.21233775 0 0 1 1.1197936,0.21010354 0.21384749,0.21189088 0 0 0 0.99661844,0.16857439 L 0.13310282,0.15207119 A 0.04880179,0.04835487 0 0 0 0.08331984,0.20049107 V 2.5932007 a 0.04880179,0.04835487 0 0 0 0.05381026,0.048057 0.12763406,0.12646019 0 0 1 0.12335793,0.06202 0.41596353,0.41215338 0 0 0 0.13910142,0.1419985 0.8462892,0.83852489 0 0 0 0.31077665,0.1156952 2.2291777,2.2086863 0 0 0 0.25568457,0.026659 0.30209234,0.29932228 0 0 1 0.21158243,0.1001037 0.48601701,0.4815582 0 0 0 0.4773328,0.1481632 0.30885696,0.30602513 0 0 1 0.1559418,0.00272 0.14660751,0.14526876 0 0 0 0.1134751,-0.014327 l 0.05564,-0.03228 a 0.15748576,0.15604407 0 0 0 0.025989,-0.018679 0.07075128,0.07010152 0 0 1 0.076872,-0.011425 0.09981581,0.09890036 0 0 0 0.1323265,-0.048056 0.45734353,0.4531524 0 0 1 0.3005282,-0.2479034 0.80603662,0.79864301 0 0 0 0.5970341,-0.882987 0.25426257,0.2519251 0 0 1 0.047221,-0.184064 0.2073571,0.20546226 0 0 0 0.00824,-0.2315829 0.06334168,0.0627609 0 0 1 0.024891,-0.089586 0.10305389,0.10210654 0 0 0 0.056555,-0.091036 V 0.1493078 A 0.06646093,0.06585131 0 0 0 3.1788503,0.08347883 Z" fill="#fff" stroke-width=".216" style="stroke:#006747;stroke-width:.16664;stroke-miterlimit:4;stroke-dasharray:none;stroke-opacity:1"/>
 <path d="m0.6813 0.69093c0.05502 8.6e-7 0.10187 0.01241 0.14055 0.037142 0.038686 0.024734 0.071776 0.063549 0.099288 0.11642 0.018053 0.03838 0.032209 0.083111 0.042527 0.13428 0.010316 0.051171 0.015496 0.10359 0.015496 0.15732-8e-7 0.068228-0.00817 0.13345-0.024506 0.19571-0.016335 0.062259-0.039467 0.11269-0.069555 0.15107-0.048144 0.063964-0.11772 0.09589-0.20885 0.09589-0.061039 0-0.11146-0.012409-0.151-0.037141-0.039546-0.024733-0.072236-0.063548-0.098026-0.11643-0.018054-0.036673-0.032612-0.081008-0.043788-0.13303-0.011176-0.052876-0.016758-0.1049-0.016758-0.15607-9e-8 -0.070787 0.008172-0.13641 0.024507-0.19696 0.017194-0.060552 0.040326-0.11138 0.069556-0.15232 0.025791-0.032408 0.056472-0.056253 0.09172-0.071605 0.036107-0.016203 0.078977-0.024284 0.12884-0.024286zm1.9243 0c0.05502 8.6e-7 0.10187 0.01241 0.14055 0.037142 0.038685 0.024734 0.071776 0.063549 0.099288 0.11642 0.018053 0.03838 0.032209 0.083111 0.042526 0.13428 0.010316 0.051171 0.015496 0.10359 0.015496 0.15732-7e-7 0.068228-0.00817 0.13345-0.024506 0.19571-0.016334 0.062258-0.039466 0.11269-0.069555 0.15107-0.048144 0.063964-0.1179 0.09589-0.20903 0.09589-0.061039 0-0.11128-0.012409-0.15082-0.037141-0.039547-0.024733-0.072236-0.063549-0.098027-0.11643-0.018054-0.036672-0.032612-0.081007-0.043788-0.13303-0.011176-0.052877-0.016758-0.1049-0.016758-0.15607-1e-7 -0.070787 0.00817-0.13641 0.024507-0.19696 0.017194-0.060552 0.040326-0.11138 0.069555-0.15232 0.025791-0.032408 0.056291-0.056253 0.09154-0.071605 0.036107-0.016203 0.079158-0.024284 0.12902-0.024285zm-1.4351 0.015357h0.13677v0.34535h0.31462v-0.34535h0.13659v0.85712h-0.13659v-0.37356h-0.31462v0.37356h-0.13677zm0.7934 0h0.13929v0.85712h-0.13929zm-1.2974 0.12267c-0.028115 5.5994e-4 -0.05198 0.008289-0.071538 0.023214-0.022352 0.017058-0.040886 0.044656-0.0555 0.083033-0.011176 0.025586-0.01975 0.056718-0.025768 0.09339-0.005159 0.035821-0.007749 0.071677-0.007749 0.1075-2.5e-7 0.046054 0.004198 0.090389 0.012794 0.13303 0.008596 0.042643 0.021548 0.077706 0.038742 0.105 0.013755 0.022174 0.030099 0.038732 0.049013 0.04982 0.018913 0.011087 0.042225 0.016607 0.069736 0.016607 0.031809 1e-7 0.057932-0.00848 0.078565-0.025535 0.021492-0.017057 0.039624-0.044834 0.054239-0.083211 0.004306-0.011087 0.008499-0.02429 0.012794-0.039641 0.004306-0.016204 0.007687-0.032763 0.010267-0.04982 0.00344-0.01791 0.00603-0.035838 0.00775-0.053749 0.00172-0.01791 0.0027-0.035441 0.0027-0.052498-6e-7 -0.048613-0.00438-0.093344-0.012974-0.13428-0.008602-0.041789-0.021549-0.077249-0.038743-0.10625-0.013755-0.022174-0.029519-0.038335-0.047572-0.04857-0.017194-0.010234-0.038719-0.01615-0.06451-0.017856-0.004193-2.1258e-4 -0.008237-2.5883e-4 -0.012253-1.7843e-4zm1.9241 0c-0.028115 5.5994e-4 -0.05198 0.008289-0.071538 0.023214-0.022352 0.017058-0.040706 0.044656-0.05532 0.083033-0.011176 0.025586-0.01975 0.056718-0.025769 0.09339-0.00516 0.035821-0.00775 0.071677-0.00775 0.1075-2e-7 0.046054 0.0042 0.090389 0.012793 0.13303 0.00859 0.042643 0.021547 0.077706 0.038743 0.105 0.013754 0.022174 0.0301 0.038732 0.049013 0.04982 0.018913 0.011087 0.042045 0.016607 0.069555 0.016607 0.031809 1e-7 0.058112-0.00848 0.078746-0.025535 0.021491-0.017057 0.039444-0.044834 0.054059-0.083211 0.00431-0.011087 0.00867-0.02429 0.012974-0.039641 0.00431-0.016204 0.00769-0.032763 0.010266-0.04982 0.00344-0.01791 0.00603-0.035838 0.00775-0.053749 0.00172-0.01791 0.00252-0.035441 0.00252-0.052498-1e-7 -0.048613-0.0042-0.093344-0.012793-0.13428-0.0086-0.04179-0.021548-0.077249-0.038742-0.10625-0.013755-0.022174-0.029699-0.038335-0.047752-0.04857-0.017194-0.010234-0.038539-0.01615-0.06433-0.017857-0.00419-2.1258e-4 -0.00842-2.5883e-4 -0.012434-1.7858e-4zm-2.3281 0.98443h0.25678v0.066426h-0.0919v0.43356h-0.07316v-0.43356h-0.09172zm0.32597 0h0.072259v0.35963c-1.6e-7 0.02388 0.006409 0.043071 0.019461 0.057498 0.013053 0.014428 0.03027 0.021606 0.051356 0.021606 0.01958 1e-7 0.035561-0.00718 0.048112-0.021606 0.013052-0.014428 0.019641-0.033618 0.019641-0.057498v-0.35963h0.072259v0.3507c-2e-7 0.00995-4.3871e-4 0.019004-0.00144 0.026963-5.0221e-4 0.00796-0.00156 0.015356-0.00306 0.022321-0.0015 0.00647-0.00362 0.012996-0.00612 0.019464-0.00251 0.00647-0.0055 0.012817-0.00901 0.019285-0.012551 0.020398-0.029807 0.03728-0.051896 0.050712-0.021588 0.012935-0.044377 0.019464-0.068474 0.019464-0.025102-1e-7 -0.048946-0.00653-0.071538-0.019464-0.02209-0.012935-0.039526-0.029818-0.052077-0.050712-0.003514-0.00647-0.006499-0.012818-0.00901-0.019285-0.002512-0.00647-0.004443-0.012997-0.005946-0.019464-0.001505-0.00697-0.002777-0.014361-0.003783-0.022321-5.022e-4 -0.00796-7.2136e-4 -0.017013-7.2136e-4 -0.026963zm0.39265 0h0.15064c0.019579 6e-7 0.037272 0.00318 0.053338 0.00964 0.016567 0.00647 0.030619 0.015522 0.042166 0.026963 0.012048 0.011443 0.021184 0.025584 0.02721 0.042499 0.00653 0.016418 0.00973 0.034563 0.00973 0.054462-4e-7 0.029851-0.00597 0.055175-0.018019 0.076069-0.012049 0.020895-0.030142 0.035865-0.054239 0.04482l0.072258 0.24553h-0.074603l-0.066853-0.23499h-0.069373v0.23499h-0.072258zm0.3676 0h0.072438l0.13857 0.29999v-0.29999h0.072258v0.49998h-0.05496l-0.15587-0.33499v0.33499h-0.072438zm0.39283 0h0.15064c0.019579 6e-7 0.037272 0.00357 0.053338 0.010535 0.016567 0.00647 0.030619 0.015776 0.042166 0.028214 0.012048 0.01194 0.021185 0.026693 0.027209 0.044105 0.00653 0.017413 0.00973 0.036604 0.00973 0.057499-3e-7 0.04577-0.011504 0.080581-0.034598 0.10446-0.022592 0.02388-0.055173 0.035714-0.097847 0.035714h-0.078385v0.21946h-0.072258zm0.353 0h0.070816v0.49998h-0.070816zm0.18236 0h0.072259v0.19999l0.11514-0.19999h0.083612l-0.10469 0.17535 0.11677 0.32463h-0.076042l-0.088837-0.2441-0.04595 0.084462v0.15964h-0.072258zm0.3676 0h0.23732v0.070176h-0.16488v0.12607h0.10469v0.068748h-0.10469v0.16482h0.18452v0.070176h-0.25696zm-1.5911 0.070176v0.12607h0.0746c0.021085 3e-7 0.037068-0.00527 0.048112-0.015714 0.011546-0.010945 0.017298-0.026566 0.017299-0.046963-3e-7 -0.019402-0.00597-0.034806-0.018019-0.046248-0.012049-0.011441-0.027813-0.017141-0.047392-0.017142zm0.76043 0v0.14178h0.0746c0.021086 3e-7 0.037068-0.00632 0.048112-0.018749 0.011546-0.012437 0.017298-0.02997 0.017299-0.052855-3e-7 -0.020895-0.00597-0.037956-0.018019-0.050891s-0.027813-0.019285-0.047392-0.019285z" style="fill:#006747"/>
</svg>
