<svg width="20" height="20" xmlns="http://www.w3.org/2000/svg">
 <path d="M18,0.5 C18.4142136,0.5 18.7892136,0.667893219 19.0606602,0.939339828 C19.3321068,1.21078644 19.5,1.58578644 19.5,2 L19.5,18 C19.5,18.4142136 19.3321068,18.7892136 19.0606602,19.0606602 C18.7892136,19.3321068 18.4142136,19.5 18,19.5 L2,19.5 C1.58578644,19.5 1.21078644,19.3321068 0.939339828,19.0606602 C0.667893219,18.7892136 0.5,18.4142136 0.5,18 L0.5,2 C0.5,1.58578644 0.667893219,1.21078644 0.939339828,0.939339828 C1.21078644,0.667893219 1.58578644,0.5 2,0.5 Z" stroke="#FFF" fill="#006747"/>
 <path d="M2,8 C4,6 6.66666667,5 10,5 C13.3333333,5 16,6 18,8 L18,10 C15.6666667,7.66666667 13,6.5 10,6.5 C7,6.5 4.33333333,7.66666667 2,10 L2,8 Z" fill="#FFF"/>
 <path d="M10.3570119,4.25626471 C10.6267719,4.0702074 11.1195798,4.14375211 11.4667662,4.24677332 C11.7571594,4.33007974 11.9595612,4.41033329 12.1619082,4.49092807 C12.9493501,4.74927308 13.1776805,4.82042768 13.3677073,4.95821103 C13.6101078,5.13401857 13.7031518,5.35541094 13.7867218,5.61266933 C13.9515788,6.03387036 14.0685955,6.28501679 14.2086664,6.51629036 C14.2944623,6.69027318 14.367334,6.84638048 14.430522,6.9829312 L14.5449465,7.22945909 C14.6483794,7.44891533 14.7217182,7.58566234 14.7908856,7.62625151 C15.8959746,7.65047789 16.1739643,7.90802942 16.4087131,8.19243757 C16.933513,9.07521891 16.9761324,9.34410217 17.0012861,9.56587993 C17.3069388,10.7260221 17.2382193,11.0875103 17.1272867,11.3310526 C15.6956627,11.4180961 15.6649275,11.1788027 15.6563457,10.9591396 C14.8407344,10.3973596 14.7597064,10.6110331 14.6534525,10.7718984 C14.4700587,11.0495511 14.2713418,11.3125287 13.9885287,11.4445043 L13.4364589,11.7021527 L12.7881337,11.7447017 C12.4482186,11.7670482 11.9687583,11.5146685 11.7255614,11.2793762 C11.5940262,11.1520924 11.4619725,11.0265814 11.3268186,10.9031934 C11.0809962,10.678327 10.8758042,10.4818894 10.6279853,10.3692968 C10.0899248,10.2719051 9.82053642,10.1984855 9.65364354,10.0296895 C9.70725503,9.48681724 9.81762286,9.20983113 9.9365097,9.05090289 L9.947,9.036 L9.90918287,9.06986439 C8.27465153,10.4373426 7.1227919,10.9385514 5.96226243,11.203741 L5.77887725,11.2437436 C4.94907052,10.8837597 4.88172679,10.6317718 4.8381707,10.3647127 C4.63479041,10.1212426 4.50168478,10.2606809 4.36179392,10.3704837 C4.14961058,10.53703 3.93294842,10.6947005 3.71231676,10.7643336 C3.48717884,10.8353889 3.25571082,10.8323845 3.01295723,10.7067759 C2.6291637,9.90970998 2.72217382,9.68369787 2.90816804,9.45310668 C3.34466528,8.91194786 4.3130926,8.28921921 4.51123165,8.16570955 C4.88799042,7.93083563 5.30620808,7.69476628 5.73675286,7.59387311 C6.51875804,7.52318119 6.94202638,7.52764354 7.23483496,7.23483496 C7.39914905,7.07052087 7.625,6.875 7.625,6.5 C8.30747107,5.84637548 8.59606421,5.92151144 8.89339937,6.0248274 C9.53322486,4.6488009 9.76691802,4.67121345 10.0115772,4.79022553 C10.0978217,4.5516318 10.1956446,4.36755669 10.3570119,4.25626471 Z" stroke="#006747" stroke-width=".75" fill="#FFF"/>
 <path d="M18.375,9.23284118 L18.375,12.1537021 C16.2967525,14.2939247 13.5084083,15.375 10,15.375 C6.49159173,15.375 3.7032475,14.2939247 1.625,12.1537021 L1.625,9.23284118 C4.41699423,11.486469 7.20637464,12.625 10,12.625 C12.7936254,12.625 15.5830058,11.486469 18.375,9.23284118 Z" stroke="#006747" stroke-width=".75" fill="#FFF"/>
</svg>
