<svg width="17" height="24" xmlns="http://www.w3.org/2000/svg">
 <path d="M 8.5,0 C 6.6426164,0.69936 4.9877271,1.788 3.6426143,3.16188 1.384565,5.46816 0,8.57808 0,11.99988 0,15.4218 1.384565,18.53172 3.6426143,20.838 4.9877271,22.21188 6.6426164,23.30052 8.5,24 c 1.857226,-0.69936 3.512321,-1.78788 4.857386,-3.16152 V 20.838 C 15.615435,18.53172 17,15.42168 17,11.99988 17,8.57808 15.615435,5.46804 13.357386,3.16176 V 3.16128 C 12.012321,1.78776 10.357226,0.69924 8.5,0 Z" style="fill:#fff;fill-opacity:1;fill-rule:nonzero;stroke:none;stroke-width:.0476921"/>
 <path d="m 8.4999941,1 c 1.6349219,0.6852705 3.0860849,1.6951558 4.2659899,2.9460112 1.778333,1.8850782 2.940538,4.3169213 3.185709,7.0073248 0.315557,3.462639 -0.934109,6.71014 -3.185709,9.099054 C 11.590504,21.299555 10.141816,22.312515 8.4999941,23 6.8581842,22.312515 5.4094961,21.299555 4.2340159,20.05239 1.9824162,17.663476 0.73274977,14.415975 1.048307,10.953336 1.2934778,8.2629325 2.4556958,5.8310894 4.2340159,3.9460112 5.4139085,2.6951558 6.8650841,1.6852705 8.4999941,1 Z" style="fill:#003f87;fill-opacity:1;fill-rule:nonzero;stroke:none;stroke-width:.0489904"/>
</svg>
