<?xml version="1.0" encoding="UTF-8" standalone="no"?>
<!DOCTYPE svg PUBLIC "-//W3C//DTD SVG 1.1//EN" "http://www.w3.org/Graphics/SVG/1.1/DTD/svg11.dtd">
<svg xmlns="http://www.w3.org/2000/svg" xml:space="preserve" width="100%" height="100%" style="fill-rule:evenodd;clip-rule:evenodd;stroke-miterlimit:2" viewBox="0 0 1485 1440">
  <path id="black-outline" d="M742.5 45.062C682.694 93.69 606.303 123.75 523.125 123.75c-83.342 0-159.648-29.822-219.469-78.656L55.344 264.5c84.244 63.707 138.718 164.816 138.718 278.312 0 64.135-17.485 124.43-47.781 176.094-6.301 10.746-13.181 20.896-20.375 30.625-2.492 4.166-4.885 8.311-7.094 12.375v.032c-2.684 4.942-5.277 9.934-7.718 15-2.425 5.033-4.746 10.212-6.969 15.468-2.213 5.232-4.27 10.458-6.219 15.782-1.971 5.384-3.818 10.812-5.5 16.218-1.697 5.457-3.286 10.965-4.718 16.532-1.416 5.501-2.669 11.102-3.844 16.843-1.168 5.706-2.217 11.451-3.094 17.188a351 351 0 0 0-2.219 17.469c-.593 5.841-1.041 11.742-1.343 17.718-.303 5.958-.438 11.945-.438 17.969s.135 12.011.438 17.969c.302 5.976.75 11.877 1.343 17.718.595 5.852 1.336 11.687 2.219 17.469.877 5.737 1.926 11.451 3.094 17.157 1.175 5.74 2.428 11.372 3.844 16.874 1.432 5.567 3.021 11.075 4.718 16.532 1.682 5.407 3.529 10.835 5.5 16.218 1.949 5.323 4.006 10.55 6.219 15.782 2.223 5.256 4.543 10.434 6.969 15.468 2.445 5.075 5.03 10.05 7.718 15 2.682 4.936 5.461 9.829 8.376 14.626 2.944 4.845 5.962 9.566 9.062 14.156l.125.187c3.026 4.473 6.244 8.948 9.625 13.469 3.394 4.539 6.838 8.97 10.344 13.219 3.505 4.247 7.16 8.438 10.906 12.562l.125.094c3.766 4.143 7.594 8.156 11.531 12.094 3.937 3.936 7.982 7.796 12.125 11.562l.313.281c4.056 3.679 8.171 7.245 12.344 10.688 4.247 3.506 8.649 6.949 13.187 10.344 4.582 3.426 9.123 6.687 13.656 9.75 4.59 3.1 9.312 6.119 14.157 9.062 4.794 2.914 9.686 5.724 14.624 8.406 4.953 2.691 9.928 5.244 15 7.688 5.032 2.425 10.212 4.745 15.469 6.969 5.232 2.212 10.491 4.301 15.813 6.25 1.517.555 4 1.327 6.844 2.281 6.552 1.832 13.062 3.617 19.531 5.281 7.798 2.007 15.52 3.935 23.25 5.719 6.429 1.484 13.085 2.9 19.875 4.312h.031c1.857.387 3.079.67 3.625.782 7.919 1.62 15.795 3.152 23.688 4.562 7.906 1.413 15.928 2.709 23.968 3.938 8.036 1.227 16.049 2.383 24.094 3.406 8.07 1.025 16.177 1.955 24.312 2.781v-.031c8.122.824 16.286 1.564 24.469 2.188 7.468.567 15.046 1.004 22.719 1.406.174-.017-.498-.032 1.125-.032 8.612 0 16.844.473 24.719 1.126 76.502 6.337 144.781 41.617 194.656 93.968 49.875-52.351 118.154-87.631 194.656-93.968 7.875-.653 16.107-1.126 24.719-1.126 1.623 0 .952.015 1.125.032 7.673-.402 15.251-.839 22.719-1.406 8.183-.624 16.347-1.364 24.469-2.188v.031c8.135-.826 16.242-1.756 24.312-2.781 8.045-1.023 16.057-2.179 24.094-3.406 8.04-1.229 16.062-2.525 23.968-3.938 7.894-1.41 15.769-2.942 23.688-4.562.546-.112 1.768-.395 3.625-.782h.031c6.79-1.412 13.446-2.828 19.875-4.312 7.73-1.784 15.452-3.712 23.25-5.719 6.469-1.664 12.979-3.449 19.531-5.281 2.844-.954 5.327-1.726 6.844-2.281 5.322-1.949 10.581-4.038 15.813-6.25 5.257-2.224 10.437-4.544 15.469-6.969 5.071-2.444 10.047-4.997 15-7.688 4.938-2.682 9.83-5.492 14.624-8.406 4.845-2.943 9.567-5.962 14.157-9.062 4.533-3.063 9.074-6.324 13.656-9.75 4.538-3.395 8.94-6.838 13.187-10.344 4.173-3.443 8.288-7.009 12.344-10.688l.313-.281c4.143-3.766 8.188-7.626 12.125-11.562 3.937-3.938 7.765-7.951 11.531-12.094l.125-.094c3.746-4.125 7.401-8.315 10.906-12.562 3.506-4.249 6.95-8.68 10.344-13.219 3.381-4.521 6.599-8.996 9.625-13.469l.125-.187c3.1-4.59 6.118-9.311 9.062-14.156 2.915-4.797 5.694-9.69 8.376-14.626 2.688-4.95 5.273-9.925 7.718-15 2.426-5.034 4.746-10.212 6.969-15.468 2.213-5.232 4.27-10.459 6.219-15.782 1.971-5.383 3.818-10.811 5.5-16.218 1.697-5.457 3.286-10.965 4.718-16.532 1.416-5.502 2.669-11.134 3.844-16.874 1.168-5.706 2.217-11.42 3.094-17.157.883-5.782 1.624-11.617 2.219-17.469.593-5.841 1.04-11.742 1.343-17.718.302-5.958.438-11.945.438-17.969s-.136-12.011-.438-17.969c-.303-5.976-.75-11.877-1.343-17.718a351 351 0 0 0-2.219-17.469c-.877-5.737-1.926-11.482-3.094-17.188-1.175-5.741-2.428-11.342-3.844-16.843-1.432-5.567-3.021-11.075-4.718-16.532-1.682-5.406-3.529-10.834-5.5-16.218-1.949-5.324-4.006-10.55-6.219-15.782-2.223-5.256-4.543-10.435-6.969-15.468-2.441-5.066-5.034-10.058-7.718-15v-.032c-2.209-4.064-4.602-8.209-7.094-12.375-7.194-9.729-14.074-19.879-20.375-30.625-30.296-51.664-47.781-111.959-47.781-176.094 0-113.496 54.474-214.605 138.718-278.312L1181.344 45.094c-59.821 48.834-136.127 78.656-219.469 78.656-83.178 0-159.569-30.06-219.375-78.688Z" style="fill:none;stroke:#000;stroke-width:11px"/>
  <path id="white-outline" d="M742.5 45.062C682.694 93.69 606.303 123.75 523.125 123.75c-83.342 0-159.648-29.822-219.469-78.656L55.344 264.5c84.244 63.707 138.718 164.816 138.718 278.312 0 64.135-17.485 124.43-47.781 176.094-6.301 10.746-13.181 20.896-20.375 30.625-2.492 4.166-4.885 8.311-7.094 12.375v.032c-2.684 4.942-5.277 9.934-7.718 15-2.425 5.033-4.746 10.212-6.969 15.468-2.213 5.232-4.27 10.458-6.219 15.782-1.971 5.384-3.818 10.812-5.5 16.218-1.697 5.457-3.286 10.965-4.718 16.532-1.416 5.501-2.669 11.102-3.844 16.843-1.168 5.706-2.217 11.451-3.094 17.188a351 351 0 0 0-2.219 17.469c-.593 5.841-1.041 11.742-1.343 17.718-.303 5.958-.438 11.945-.438 17.969s.135 12.011.438 17.969c.302 5.976.75 11.877 1.343 17.718.595 5.852 1.336 11.687 2.219 17.469.877 5.737 1.926 11.451 3.094 17.157 1.175 5.74 2.428 11.372 3.844 16.874 1.432 5.567 3.021 11.075 4.718 16.532 1.682 5.407 3.529 10.835 5.5 16.218 1.949 5.323 4.006 10.55 6.219 15.782 2.223 5.256 4.543 10.434 6.969 15.468 2.445 5.075 5.03 10.05 7.718 15 2.682 4.936 5.461 9.829 8.376 14.626 2.944 4.845 5.962 9.566 9.062 14.156l.125.187c3.026 4.473 6.244 8.948 9.625 13.469 3.394 4.539 6.838 8.97 10.344 13.219 3.505 4.247 7.16 8.438 10.906 12.562l.125.094c3.766 4.143 7.594 8.156 11.531 12.094 3.937 3.936 7.982 7.796 12.125 11.562l.313.281c4.056 3.679 8.171 7.245 12.344 10.688 4.247 3.506 8.649 6.949 13.187 10.344 4.582 3.426 9.123 6.687 13.656 9.75 4.59 3.1 9.312 6.119 14.157 9.062 4.794 2.914 9.686 5.724 14.624 8.406 4.953 2.691 9.928 5.244 15 7.688 5.032 2.425 10.212 4.745 15.469 6.969 5.232 2.212 10.491 4.301 15.813 6.25 1.517.555 4 1.327 6.844 2.281 6.552 1.832 13.062 3.617 19.531 5.281 7.798 2.007 15.52 3.935 23.25 5.719 6.429 1.484 13.085 2.9 19.875 4.312h.031c1.857.387 3.079.67 3.625.782 7.919 1.62 15.795 3.152 23.688 4.562 7.906 1.413 15.928 2.709 23.968 3.938 8.036 1.227 16.049 2.383 24.094 3.406 8.07 1.025 16.177 1.955 24.312 2.781v-.031c8.122.824 16.286 1.564 24.469 2.188 7.468.567 15.046 1.004 22.719 1.406.174-.017-.498-.032 1.125-.032 8.612 0 16.844.473 24.719 1.126 76.502 6.337 144.781 41.617 194.656 93.968 49.875-52.351 118.154-87.631 194.656-93.968 7.875-.653 16.107-1.126 24.719-1.126 1.623 0 .952.015 1.125.032 7.673-.402 15.251-.839 22.719-1.406 8.183-.624 16.347-1.364 24.469-2.188v.031c8.135-.826 16.242-1.756 24.312-2.781 8.045-1.023 16.057-2.179 24.094-3.406 8.04-1.229 16.062-2.525 23.968-3.938 7.894-1.41 15.769-2.942 23.688-4.562.546-.112 1.768-.395 3.625-.782h.031c6.79-1.412 13.446-2.828 19.875-4.312 7.73-1.784 15.452-3.712 23.25-5.719 6.469-1.664 12.979-3.449 19.531-5.281 2.844-.954 5.327-1.726 6.844-2.281 5.322-1.949 10.581-4.038 15.813-6.25 5.257-2.224 10.437-4.544 15.469-6.969 5.071-2.444 10.047-4.997 15-7.688 4.938-2.682 9.83-5.492 14.624-8.406 4.845-2.943 9.567-5.962 14.157-9.062 4.533-3.063 9.074-6.324 13.656-9.75 4.538-3.395 8.94-6.838 13.187-10.344 4.173-3.443 8.288-7.009 12.344-10.688l.313-.281c4.143-3.766 8.188-7.626 12.125-11.562 3.937-3.938 7.765-7.951 11.531-12.094l.125-.094c3.746-4.125 7.401-8.315 10.906-12.562 3.506-4.249 6.95-8.68 10.344-13.219 3.381-4.521 6.599-8.996 9.625-13.469l.125-.187c3.1-4.59 6.118-9.311 9.062-14.156 2.915-4.797 5.694-9.69 8.376-14.626 2.688-4.95 5.273-9.925 7.718-15 2.426-5.034 4.746-10.212 6.969-15.468 2.213-5.232 4.27-10.459 6.219-15.782 1.971-5.383 3.818-10.811 5.5-16.218 1.697-5.457 3.286-10.965 4.718-16.532 1.416-5.502 2.669-11.134 3.844-16.874 1.168-5.706 2.217-11.42 3.094-17.157.883-5.782 1.624-11.617 2.219-17.469.593-5.841 1.04-11.742 1.343-17.718.302-5.958.438-11.945.438-17.969s-.136-12.011-.438-17.969c-.303-5.976-.75-11.877-1.343-17.718a351 351 0 0 0-2.219-17.469c-.877-5.737-1.926-11.482-3.094-17.188-1.175-5.741-2.428-11.342-3.844-16.843-1.432-5.567-3.021-11.075-4.718-16.532-1.682-5.406-3.529-10.834-5.5-16.218-1.949-5.324-4.006-10.55-6.219-15.782-2.223-5.256-4.543-10.435-6.969-15.468-2.441-5.066-5.034-10.058-7.718-15v-.032c-2.209-4.064-4.602-8.209-7.094-12.375-7.194-9.729-14.074-19.879-20.375-30.625-30.296-51.664-47.781-111.959-47.781-176.094 0-113.496 54.474-214.605 138.718-278.312L1181.344 45.094c-59.821 48.834-136.127 78.656-219.469 78.656-83.178 0-159.569-30.06-219.375-78.688m0 42.25h.002c61.92 43.679 137.646 70.188 219.342 70.188 80.992 0 156.115-25.801 217.75-68.875l198.5 175.344c-49.945 46.9-87.343 107.094-106.526 174.781H213.434c-19.183-67.687-56.581-127.881-106.526-174.781l198.5-175.344c61.635 43.074 136.758 68.875 217.75 68.875 81.696 0 157.422-26.509 219.342-70.188M221.354 472.5h1042.294c-4.262 22.809-6.492 46.314-6.492 70.312 0 70.269 19.213 136.497 52.438 193.157 6.612 11.277 13.705 21.759 20.968 31.687 1.921 3.225 3.728 6.347 5.376 9.344l.562 1.031c2.487 4.579 4.852 9.106 7 13.563 2.149 4.46 4.241 9.145 6.281 13.968 1.995 4.716 3.829 9.398 5.594 14.219 1.793 4.898 3.466 9.825 4.969 14.657 1.559 5.011 3.011 9.972 4.281 14.906 1.236 4.805 2.343 9.841 3.437 15.187 1.073 5.239 2.036 10.445 2.813 15.531.797 5.216 1.463 10.491 2 15.782.535 5.266.944 10.611 1.219 16.031.27 5.326.375 10.732.375 16.25s-.105 10.924-.375 16.25a318 318 0 0 1-1.219 16.031c-.537 5.291-1.203 10.566-2 15.782-.774 5.067-1.735 10.205-2.813 15.468-1.098 5.37-2.208 10.474-3.437 15.25-1.27 4.935-2.723 9.895-4.281 14.906-1.503 4.832-3.176 9.76-4.969 14.657-1.765 4.82-3.599 9.503-5.594 14.219-2.039 4.821-4.131 9.506-6.281 13.968-2.154 4.47-4.509 8.946-7 13.532-2.477 4.559-4.992 8.987-7.562 13.218h.031c-2.683 4.415-5.412 8.672-8.188 12.782l-.062.093-.063.094-.125.187c-2.628 3.877-5.475 7.841-8.562 11.969-3.149 4.211-6.298 8.24-9.375 11.969h.031c-2.818 3.415-5.843 6.848-8.937 10.281l-1.063 1.157c-3.405 3.745-6.842 7.341-10.406 10.906-3.523 3.522-7.15 6.983-10.844 10.344-.044.039-.082.085-.125.124l-.188.157-.062.062-.031.031a317 317 0 0 1-11.157 9.657c-3.788 3.126-7.755 6.239-11.906 9.343-4.242 3.172-8.356 6.119-12.344 8.813-4.109 2.776-8.368 5.506-12.781 8.187-4.318 2.624-8.751 5.167-13.219 7.594-4.493 2.441-8.965 4.738-13.531 6.938-4.457 2.147-9.144 4.24-13.969 6.281-4.775 2.02-9.53 3.917-14.281 5.656.151-.055-2.454.807-5.093 1.688-6.162 1.72-12.223 3.364-18.094 4.875-7.647 1.966-15.069 3.837-22.406 5.531-4.977 1.149-10.375 2.295-15.813 3.437l-2.187.469c-.412.086-.774.164-1.188.25h-.031c-2.186.455-4.256.905-3.5.75-7.705 1.577-15.291 3.057-22.844 4.407-7.535 1.346-15.304 2.58-23.156 3.781-7.853 1.199-15.578 2.337-23.25 3.312-6.945.883-13.919 1.646-20.907 2.375l-2.562.25c-7.869.799-15.743 1.527-23.594 2.125h-.031c-6.379.485-13.049.855-19.844 1.219-1.369-.079-.81.062-1.437.062-9.847 0-19.034.549-27.5 1.25-73.202 6.064-139.54 35.987-191.844 81.126-52.304-45.139-118.642-75.062-191.844-81.126-8.466-.701-17.653-1.25-27.5-1.25-.627 0-.068-.141-1.437-.062-6.795-.364-13.465-.734-19.844-1.219h-.031c-7.851-.598-15.725-1.326-23.594-2.125l-2.562-.25c-6.988-.729-13.962-1.492-20.907-2.375-7.672-.975-15.397-2.113-23.25-3.312-7.852-1.201-15.621-2.435-23.156-3.781-7.553-1.35-15.139-2.83-22.844-4.407.756.155-1.314-.295-3.5-.75h-.029c-.414-.086-.776-.164-1.188-.25l-2.187-.469c-5.438-1.142-10.836-2.288-15.813-3.437-7.337-1.694-14.759-3.565-22.406-5.531-5.871-1.511-11.932-3.156-18.094-4.875-2.639-.881-5.244-1.743-5.093-1.688-4.751-1.739-9.506-3.636-14.282-5.656-4.824-2.041-9.511-4.134-13.968-6.281-4.566-2.2-9.038-4.497-13.532-6.938-4.467-2.427-8.9-4.97-13.218-7.594-4.413-2.681-8.672-5.411-12.782-8.187-3.988-2.694-8.102-5.641-12.343-8.813-4.151-3.104-8.118-6.217-11.907-9.343-3.75-3.096-7.474-6.317-11.156-9.657l-.031-.031-.063-.062-.187-.157c-.043-.039-.081-.085-.125-.124a318 318 0 0 1-10.844-10.344c-3.564-3.565-7.001-7.161-10.406-10.906l-1.063-1.157c-3.094-3.433-6.119-6.866-8.937-10.281h.031c-3.077-3.729-6.226-7.758-9.375-11.969-3.087-4.128-5.934-8.092-8.562-11.969l-.125-.187-.063-.094-.062-.093c-2.776-4.11-5.506-8.367-8.188-12.782h.031c-2.57-4.231-5.085-8.659-7.562-13.218-2.491-4.586-4.846-9.062-7-13.532-2.15-4.462-4.242-9.147-6.281-13.968-1.995-4.716-3.829-9.399-5.594-14.219-1.793-4.897-3.466-9.825-4.969-14.657-1.558-5.011-3.011-9.971-4.281-14.906-1.229-4.776-2.339-9.88-3.438-15.25-1.077-5.263-2.038-10.401-2.812-15.468-.797-5.216-1.463-10.491-2-15.782a318 318 0 0 1-1.219-16.031c-.27-5.326-.375-10.732-.375-16.25s.105-10.924.375-16.25c.275-5.42.684-10.765 1.219-16.031.537-5.291 1.203-10.566 2-15.782.777-5.086 1.74-10.292 2.812-15.531 1.094-5.346 2.202-10.382 3.438-15.187 1.27-4.934 2.722-9.895 4.281-14.906 1.503-4.832 3.176-9.759 4.969-14.657 1.765-4.821 3.599-9.503 5.594-14.219 2.04-4.823 4.132-9.508 6.281-13.968 2.147-4.457 4.513-8.984 7-13.563l.562-1.031c1.648-2.997 3.455-6.119 5.375-9.344 7.264-9.928 14.357-20.41 20.969-31.687 33.225-56.66 52.438-122.888 52.438-193.157 0-23.998-2.229-47.503-6.492-70.312" style="fill:#fff;fill-rule:nonzero"/>
  <path id="blue-bottom" d="M221.354 472.5h1042.294c-4.262 22.809-6.492 46.314-6.492 70.312 0 70.269 19.213 136.497 52.438 193.157 6.612 11.277 13.705 21.759 20.968 31.687 1.921 3.225 3.728 6.347 5.376 9.344l.562 1.031c2.487 4.579 4.852 9.106 7 13.563 2.149 4.46 4.241 9.145 6.281 13.968 1.995 4.716 3.829 9.398 5.594 14.219 1.793 4.898 3.466 9.825 4.969 14.657 1.559 5.011 3.011 9.972 4.281 14.906 1.236 4.805 2.343 9.841 3.437 15.187 1.073 5.239 2.036 10.445 2.813 15.531.797 5.216 1.463 10.491 2 15.782.535 5.266.944 10.611 1.219 16.031.27 5.326.375 10.732.375 16.25s-.105 10.924-.375 16.25a318 318 0 0 1-1.219 16.031c-.537 5.291-1.203 10.566-2 15.782-.774 5.067-1.735 10.205-2.813 15.468-1.098 5.37-2.208 10.474-3.437 15.25-1.27 4.935-2.723 9.895-4.281 14.906-1.503 4.832-3.176 9.76-4.969 14.657-1.765 4.82-3.599 9.503-5.594 14.219-2.039 4.821-4.131 9.506-6.281 13.968-2.154 4.47-4.509 8.946-7 13.532-2.477 4.559-4.992 8.987-7.562 13.218h.031c-2.683 4.415-5.412 8.672-8.188 12.782l-.25.374c-2.628 3.877-5.475 7.841-8.562 11.969-3.149 4.211-6.298 8.24-9.375 11.969h.031c-2.818 3.415-5.843 6.848-8.937 10.281l-1.063 1.157c-3.405 3.745-6.842 7.341-10.406 10.906-3.523 3.522-7.15 6.983-10.844 10.344-.044.039-.082.085-.125.124l-.281.25a317 317 0 0 1-11.157 9.657c-3.788 3.126-7.755 6.239-11.906 9.343-4.242 3.172-8.356 6.119-12.344 8.813-4.109 2.776-8.368 5.506-12.781 8.187-4.318 2.624-8.751 5.167-13.219 7.594-4.493 2.441-8.965 4.738-13.531 6.938-4.457 2.147-9.144 4.24-13.969 6.281-4.775 2.02-9.53 3.917-14.281 5.656.151-.055-2.454.807-5.093 1.688-6.162 1.72-12.223 3.364-18.094 4.875-7.647 1.966-15.069 3.837-22.406 5.531-4.977 1.149-10.375 2.295-15.813 3.437l-2.187.469c-.412.086-.774.164-1.188.25h-.031c-2.186.455-4.256.905-3.5.75-7.705 1.577-15.291 3.057-22.844 4.407-7.535 1.346-15.304 2.58-23.156 3.781-7.853 1.199-15.578 2.337-23.25 3.312-6.945.883-13.919 1.646-20.907 2.375l-2.562.25c-7.869.799-15.743 1.527-23.594 2.125h-.031c-6.379.485-13.049.855-19.844 1.219-1.369-.079-.81.062-1.437.062-9.847 0-19.034.549-27.5 1.25-73.202 6.064-139.54 35.987-191.844 81.126-52.304-45.139-118.642-75.062-191.844-81.126-8.466-.701-17.653-1.25-27.5-1.25-.627 0-.068-.141-1.437-.062-6.795-.364-13.465-.734-19.844-1.219h-.031c-7.851-.598-15.725-1.326-23.594-2.125l-2.562-.25c-6.988-.729-13.962-1.492-20.907-2.375-7.672-.975-15.397-2.113-23.25-3.312-7.852-1.201-15.621-2.435-23.156-3.781-7.553-1.35-15.139-2.83-22.844-4.407.756.155-1.314-.295-3.5-.75h-.029c-.414-.086-.776-.164-1.188-.25l-2.187-.469c-5.438-1.142-10.836-2.288-15.813-3.437-7.337-1.694-14.759-3.565-22.406-5.531-5.871-1.511-11.932-3.156-18.094-4.875-2.639-.881-5.244-1.743-5.093-1.688-4.751-1.739-9.506-3.636-14.282-5.656-4.824-2.041-9.511-4.134-13.968-6.281-4.566-2.2-9.038-4.497-13.532-6.938-4.467-2.427-8.9-4.97-13.218-7.594-4.413-2.681-8.672-5.411-12.782-8.187-3.988-2.694-8.102-5.641-12.343-8.813-4.151-3.104-8.118-6.217-11.907-9.343-3.75-3.096-7.474-6.317-11.156-9.657l-.094-.093-.187-.157c-.043-.039-.081-.085-.125-.124a318 318 0 0 1-10.844-10.344c-3.564-3.565-7.001-7.161-10.406-10.906l-1.063-1.157c-3.094-3.433-6.119-6.866-8.937-10.281h.031c-3.077-3.729-6.226-7.758-9.375-11.969-3.087-4.128-5.934-8.092-8.562-11.969l-.25-.374c-2.776-4.11-5.506-8.367-8.188-12.782h.031c-2.57-4.231-5.085-8.659-7.562-13.218-2.491-4.586-4.846-9.062-7-13.532-2.15-4.462-4.242-9.147-6.281-13.968-1.995-4.716-3.829-9.399-5.594-14.219-1.793-4.897-3.466-9.825-4.969-14.657-1.558-5.011-3.011-9.971-4.281-14.906-1.229-4.776-2.339-9.88-3.438-15.25-1.077-5.263-2.038-10.401-2.812-15.468-.797-5.216-1.463-10.491-2-15.782a318 318 0 0 1-1.219-16.031c-.27-5.326-.375-10.732-.375-16.25s.105-10.924.375-16.25c.275-5.42.684-10.765 1.219-16.031.537-5.291 1.203-10.566 2-15.782.777-5.086 1.74-10.292 2.812-15.531 1.094-5.346 2.202-10.382 3.438-15.187 1.27-4.934 2.722-9.895 4.281-14.906 1.503-4.832 3.176-9.759 4.969-14.657 1.765-4.821 3.599-9.503 5.594-14.219 2.04-4.823 4.132-9.508 6.281-13.968 2.147-4.457 4.513-8.984 7-13.563l.562-1.031c1.648-2.997 3.455-6.119 5.375-9.344 7.264-9.928 14.357-20.41 20.969-31.687 33.225-56.66 52.438-122.888 52.438-193.157 0-23.998-2.229-47.503-6.492-70.312" style="fill:#003f87"/>
  <path id="red-top" d="M742.5 87.312h.002c61.92 43.679 137.646 70.188 219.342 70.188 80.992 0 156.115-25.801 217.75-68.875l198.5 175.344c-49.945 46.9-87.343 107.094-106.526 174.781H213.434c-19.183-67.687-56.581-127.881-106.526-174.781l198.5-175.344c61.635 43.074 136.758 68.875 217.75 68.875 81.696 0 157.422-26.509 219.342-70.188" style="fill:#af1e2d"/>
  <g transform="translate(-2732.2174 -3232.5422)scale(16.2176)">
    <path d="M.447 0H.35L.303-.183H.16L.115 0H.019l.167-.67H.28zM.28-.277.231-.47l-.047.193z" style="fill:#fff;fill-rule:nonzero" transform="matrix(12 0 0 12 189.9805 221.616)"/>
    <path d="M.499 0H.402v-.376L.278 0 .153-.376V0H.057v-.67h.096l.125.376.124-.376h.097z" style="fill:#fff;fill-rule:nonzero" transform="matrix(12 0 0 12 195.5605 221.616)"/>
    <path d="M.398 0H.057v-.67h.315v.094H.153v.169h.139v.092H.153v.221h.245z" style="fill:#fff;fill-rule:nonzero" transform="matrix(12 0 0 12 202.2205 221.616)"/>
    <path d="M.426 0H.327L.238-.315H.146V0H.05v-.67h.2c.053 0 .095.016.128.049.032.033.048.076.048.13 0 .035-.009.068-.026.099-.018.031-.042.052-.071.063zM.332-.494q0-.0375-.024-.06C.292-.569.271-.576.245-.576H.146v.165h.099c.024 0 .045-.008.061-.024a.075.075 0 0 0 .026-.059" style="fill:#fff;fill-rule:nonzero" transform="matrix(12 0 0 12 207.6805 221.616)"/>
    <path d="M.075-.67h.094V0H.075z" style="fill:#fff;fill-rule:nonzero" transform="matrix(12 0 0 12 213.3805 221.616)"/>
    <path d="M.04-.334c0-.13.019-.22.059-.271.038-.051.086-.076.141-.076a.17.17 0 0 1 .121.047c.033.032.05.073.053.122H.317C.316-.535.309-.553.294-.567a.084.084 0 0 0-.057-.02c-.027 0-.05.016-.07.049q-.03.048-.03.204c0 .109.01.178.031.209.02.031.043.045.069.044q.0345 0 .057-.021c.015-.013.022-.031.023-.054h.097c-.003.049-.02.09-.053.121A.167.167 0 0 1 .24.013C.185.013.137-.012.099-.063.059-.114.04-.204.04-.334" style="fill:#fff;fill-rule:nonzero" transform="matrix(12 0 0 12 216.3205 221.616)"/>
    <path d="M.447 0H.35L.303-.183H.16L.115 0H.019l.167-.67H.28zM.28-.277.231-.47l-.047.193z" style="fill:#fff;fill-rule:nonzero" transform="matrix(12 0 0 12 221.7805 221.616)"/>
    <path d="M.42 0H.327L.14-.426V0H.044v-.67H.14l.183.42v-.42H.42z" style="fill:#fff;fill-rule:nonzero" transform="matrix(12 0 0 12 227.3605 221.616)"/>
    <path d="M.447 0H.35L.303-.183H.16L.115 0H.019l.167-.67H.28zM.28-.277.231-.47l-.047.193z" style="fill:#fff;fill-rule:nonzero" transform="matrix(12 0 0 12 232.9405 221.616)"/>
  </g>
  <g transform="translate(-1321.5715 -994.4394)scale(6.754)">
    <path d="M.232.012C.163.012.113-.017.081-.074Q.033-.161.033-.335c0-.115.016-.201.048-.259s.082-.087.151-.087.119.029.151.087.048.144.048.259q0 .174-.048.261C.351-.017.301.012.232.012m0-.094c.037.001.063-.02.079-.061s.024-.106.024-.194c0-.087-.008-.15-.024-.19s-.042-.06-.079-.06-.063.02-.079.06-.024.103-.024.19c0 .088.008.153.024.194s.042.062.079.061" style="fill:#fff;fill-rule:nonzero" transform="translate(237.7466 305.9471)scale(93.4726)"/>
    <path d="M.413-.188a.21.21 0 0 1-.049.139C.331-.008.286.012.229.012.176.012.132-.009.096-.05.059-.091.041-.14.041-.197h.092q0 .0525.027.084c.017.021.04.031.067.031.025 0 .047-.01.066-.031.019-.02.028-.044.027-.071C.319-.206.311-.229.295-.254.28-.278.251-.303.209-.33.161-.361.126-.391.104-.421.082-.452.071-.48.071-.507A.171.171 0 0 1 .117-.63q.0465-.0495.12-.051c.051 0 .094.017.126.05.034.034.05.075.05.123H.315A.073.073 0 0 0 .29-.569a.07.07 0 0 0-.053-.02.066.066 0 0 0-.051.024.082.082 0 0 0-.017.055c.001.014.007.028.018.041s.036.033.074.06c.053.036.092.071.116.106a.214.214 0 0 1 .036.115" style="fill:#fff;fill-rule:nonzero" transform="translate(281.2114 305.9471)scale(93.4726)"/>
    <path d="M.499 0H.402v-.376L.278 0 .153-.376V0H.057v-.67h.096l.125.376.124-.376h.097z" style="fill:#fff;fill-rule:nonzero" transform="translate(323.7414 305.9471)scale(93.4726)"/>
  </g>
</svg>
