<svg xmlns="http://www.w3.org/2000/svg" width="32" height="32" viewBox="0 0 90.311112 90.311107">
    <rect style="fill:#00674c;fill-opacity:1;stroke:#fff;stroke-width:2.82222;stroke-linecap:round;stroke-miterlimit:4;stroke-dasharray:none;stroke-opacity:1" width="87.488892" height="87.488892" x="1.411111" y="1.4111111" ry="6.3499999" rx="6.3499999"/>
    <path style="fill:#fff;fill-opacity:1;fill-rule:evenodd;stroke:none;stroke-width:0;stroke-miterlimit:4;stroke-dasharray:none" d="m26.949063 35.929281 14.688073.958157 1.23294 11.946813H26.949063zM8.4180983 48.834276l1.3703062-11.806105 14.2810015-1.149118v12.955223zm4.3487997 8.050512c-.212749.378573-.497531.678415-.919679.8409-.74211.284767-1.57803.0268-2.0303311-.628162-.3953454-.571209-.3953454-1.335055.00499-1.909615.4472751-.641562 1.2915711-.899529 2.0253051-.619786.425499.159134.706931.465678.91968.850951.207724-.385273.490832-.691817.907954-.855977.733734-.274717 1.583055-.0083 2.025305.624812.403721.57456.408747 1.33003.01008 1.909615-.437224.641562-1.298273.917954-2.035356.636537-.417123-.162484-.696879-.470702-.907954-.849275m25.712529-.0502c-.209399.383597-.489156.700191-.914655.859325-.722007.271366-1.581379.0268-2.02028-.614761-.40372-.579585-.408746-1.326679-.0201-1.914639.438899-.65999 1.303298-.921305 2.040381-.633187.433875.169184.691854.452276.914655.842574.207723-.380248.492506-.68344.909628-.845925.733734-.289793 1.596457-.005 2.035357.636538.323312.484104.39702 1.072063.157468 1.606421-.338389.763845-1.107301 1.130692-1.918093 1.000035-.566215-.09046-.931407-.457303-1.18436-.936381M25.575404 27.227174c.527685 0 .961559.25294.961559.566184 0 .314919-.433874.569535-.961559.569535-.529361 0-.964909-.254616-.964909-.569535 0-.313244.435548-.566184.964909-.566184m13.580776 45.69505H11.915901l-1.207811 2.247984h29.655902zm-2.418975-4.490969H14.339904l-1.026893 1.758856h24.384078zm-26.8988613-8.25489H41.72728v1.140749H9.8383437zm6.0390643-29.788297h19.257996v4.392111H15.877408zm29.296034 30.145111-.643274-.904541.78734-6.547971-2.397198-18.369154c-.154099-1.206073-.452282-2.413817-1.192718-3.408829-.430523-.5712-.976636-1.082105-1.593106-1.452302-.480778-.289803-1.016841-.455638-1.583055-.455638H27.217089c.973287-.376895 1.626611-1.073734 1.626611-1.864385 0-.199332-.04356-.398666-.125639-.582928h7.84492v.638213c0 .34674.286456.636543.643274.636543h.299856c.353467 0 .643274-.289803.643274-.636543v-.638213h.01842V25.4H13.073456v1.547431h.0084v.638213c0 .34674.289806.636543.643272.636543h.298184c.355143 0 .646626-.289803.646626-.636543v-.638213h7.675724c-.08208.184262-.122288.383596-.122288.582928 0 .790651.656674 1.48749 1.628285 1.864385h-8.530072c-1.005114 0-2.035358.0034-3.008644.279744-.976638.276404-1.841035.822477-2.5546673 1.532715-.7689116.755481-1.340152 1.700238-1.4791931 2.777315l-2.3485933 18.28206.8325696 7.454183-.5511373.772222-.018428 4.408907h7.7578104l-.688504.983245h-2.405574l-1.2815211 2.445644h2.3536441l-1.031919 1.81413H8.5454087l-1.4205615 2.644977h2.3687196l-1.214513 2.234599H5.9136845l-1.7556 2.985019h2.5161361l-.8878516 1.582969 2.3385662.01844.9632353-1.601398H41.983896l.896227 1.601398 2.405574-.01844-.819167-1.582969h2.239729l-1.546198-2.985019H42.79469l-1.216189-2.234599h2.328515l-1.351879-2.644977h-2.514462l-.896225-1.81413h2.375419l-1.412185-2.445644h-2.293337l-.747135-.983245 8.196712.0092zM34.840888 64.92033l.621497.964817H15.609696l.673427-.964817zm18.781499-33.876199 31.045358-19.755242v62.087908H59.266998V62.088086H47.977777v-2.822177h11.289221v-7.055445c-.0505-.422853-.150151-.944711-.705577-1.058316 0-2.071682-.02368-4.245387 0-5.95101.02526-1.707213.742346-2.02436 2.11673-2.038571 1.374368-.01416 2.089895.331358 2.116728 2.038571.02523 1.705623 0 3.98187 0 5.95101-.462335-.01416-.757637.566047-.705576 1.058316v7.055445h8.466915v-25.3996H53.622387z"/>
    <circle style="fill:#fff;fill-opacity:1;stroke:none;stroke-width:0;stroke-linecap:round;stroke-miterlimit:4;stroke-dasharray:none" cx="60.676369" cy="40.922352" r="1.41111"/>
</svg>
