<svg xmlns="http://www.w3.org/2000/svg" width="32" height="32" viewBox="0 0 90.311111 90.311108">
    <rect style="fill:#00674c;fill-opacity:1;stroke:#fff;stroke-width:2.82222;stroke-linecap:round;stroke-miterlimit:4;stroke-dasharray:none;stroke-opacity:1" width="87.488892" height="87.488892" x="1.411111" y="1.4111111" ry="6.3499999" rx="6.3499999"/>
    <path style="fill:#fff;fill-opacity:1;fill-rule:evenodd;stroke:none;stroke-width:0;stroke-miterlimit:4;stroke-dasharray:none" d="M14.111111 67.733332h62.088888v2.822222H14.111111zM25.4 8.4666665h39.51111v8.4666665H25.4zM47.977777 19.755555l28.574718 2.281112 2.384348 23.110263-30.959066.0086zm-36.688888 25.4 2.822222-22.577778 28.222222-2.822222v25.4zm9.395499 15.5785c-.410721.741496-.960954 1.312129-1.776125 1.627232-1.435934.556511-3.055285.05486-3.934717-1.210231-.758728-1.106756-.758728-2.586622.0063-3.693377.866893-1.24785 2.505052-1.751063 3.928447-1.208654.821441.313522 1.365405.907671 1.776125 1.644461.404435-.739933.945271-1.337207 1.7573-1.650729 1.410855-.536141 3.067824-.01881 3.922177 1.20865.78068 1.113027.78695 2.574082.01881 3.691816-.85121 1.247848-2.520734 1.779281-3.940986 1.23687-.812029-.315098-1.349722-.904542-1.7573-1.646038m49.756599-.09403c-.401324.744638-.948415 1.357595-1.769855 1.661704-1.396737.522039-3.064682.05018-3.912765-1.188263-.777553-1.128708-.78695-2.564683-.03138-3.702785.848083-1.280781 2.520734-1.783991 3.944129-1.225899.841813.326061 1.338746.879446 1.769855 1.624068.407578-.735224.954668-1.321524 1.7573-1.635044 1.413982-.556529 3.089776-.01407 3.940986 1.236875.633319.929606.764998 2.07243.305699 3.105495-.65527 1.481444-2.146084 2.191577-3.71684 1.936062-1.086348-.180292-1.798061-.882592-2.287145-1.812213M6.2066196 68.28967v8.61347l5.0822694-.703141v8.466666H25.4v-8.466666h39.51111v8.466666h14.111111v-8.466666l5.360081.425704v-8.250042l-1.289419-1.82848 1.573782-13.198463-4.804684-37.022194c-.315415-2.436884-.908641-4.864045-2.399067-6.8709786-.862886-1.1567902-1.954557-2.1772968-3.193316-2.9284894-.962576-.5857007-2.039527-.9199201-3.178596-.9199201H24.477467c-2.008494 0-4.082349.0081-6.030354.5597455-1.966001.5564926-3.69013 1.6646075-5.124989 3.0907279-1.54273 1.5267057-2.691596 3.4314357-2.972685 5.6022437L5.6444444 51.705199l1.6669339 15.023685z"/>
</svg>
