<svg xmlns="http://www.w3.org/2000/svg" width="32" height="32" viewBox="0 0 90.311111 90.311108">
    <rect style="fill:#00674c;fill-opacity:1;stroke:#fff;stroke-width:2.82222;stroke-linecap:round;stroke-miterlimit:4;stroke-dasharray:none;stroke-opacity:1" width="87.488892" height="87.488892" x="1.411111" y="1.4111111" ry="6.3499999" rx="6.3499999"/>
    <path d="M53.622387 28.221756 84.667745 8.4665127V70.554422H59.266998V59.265711H47.977777v-2.822177h11.289221v-7.055445c-.0505-.422853-.150151-.944711-.705577-1.058316 0-2.071682-.02368-4.245387 0-5.95101.02526-1.707213.742346-2.02436 2.11673-2.038571 1.374368-.01416 2.089895.331358 2.116728 2.038571.02523 1.705623 0 3.98187 0 5.95101-.462335-.01416-.757637.566047-.705576 1.058316v7.055445h8.466915v-25.3996H53.622387z" style="fill:#fff;fill-opacity:1;fill-rule:evenodd;stroke:none;stroke-width:.157375"/>
    <path d="M28.431694 14.455607c.500507 0 .90955.407358.90955.909509 0 .502133-.409043.91115-.90955.91115s-.912883-.409017-.912883-.91115c0-.502151.412376-.909509.912883-.909509m2.392779 0c.50384 0 .909566.407358.909566.909509 0 .502133-.405726.91115-.909566.91115-.502166 0-.90955-.409017-.90955-.91115 0-.502151.407384-.909509.90955-.909509" style="fill:#fff;fill-opacity:1;fill-rule:evenodd;stroke:none;stroke-width:.165841"/>
    <path style="fill:#fff;fill-opacity:1;fill-rule:evenodd;stroke:none;stroke-width:0;stroke-miterlimit:4;stroke-dasharray:none" d="M17.343702 35.719943c.739956 0 1.341895-.603559 1.341895-1.341809 0-.739892-.601939-1.343467-1.341895-1.343467-.739939 0-1.345211.603575-1.345211 1.343467 0 .73825.605272 1.341809 1.345211 1.341809m24.523503 0c.736622 0 1.341878-.603559 1.341878-1.341809 0-.739892-.605256-1.343467-1.341878-1.343467-.739956 0-1.345228.603575-1.345228 1.343467 0 .73825.605272 1.341809 1.345228 1.341809m-23.607601-12.28739c.207839-.726592.419027-1.453201.626882-2.181468.256067-.671733.360832-1.333484 1.022624-1.5829 3.240816-1.057484 6.044329-1.46816 9.459748-1.719235.0066.892876.0099 1.78741.01995 2.681943.01663.236117-.10974.362467-.382441.380759-3.257451.360808-6.73939 1.351792-10.357672 2.733501-.314279.07814-.440637-.02494-.389092-.3126m3.075534 41.815463h16.83932l2.088484 3.696194H19.246638zm-5.439919 9.530622 2.003687-3.43016h23.711718l1.957134 3.43016zm13.088545-15.205466-.172928-5.435395h-3.335614l1.331911 5.435395h-1.227146l-1.82245-5.435395h-2.665495l2.808505 5.435395h-1.406741l-3.367207-5.435395h-2.773561v-1.50975h26.673184v1.50975h-2.770244l-3.367208 5.435395h-1.403406l2.805171-5.435395h-2.665496l-1.82245 5.435395h-1.227145l1.33191-5.435395h-3.33228l-.176261 5.435395zm-5.752009.773142h12.92172v2.776718h-12.92172zm17.960374-36.913761c-.211188-.726592-.419027-1.453201-.630215-2.181468-.254408-.671733-.357498-1.333484-1.024282-1.5829-3.237499-1.057484-6.039337-1.46816-9.456431-1.719235-.0066.892876-.01327 1.78741-.01995 2.681943-.01829.236117.111415.362467.384116.380759 3.254117.360808 6.732723 1.351792 10.355997 2.733501.312603.07814.442311-.02494.390766-.3126m-11.393629.03824c1.253763 0 2.276404 1.022575 2.276404 2.277918 0 1.253684-1.022641 2.276243-2.276404 2.276243-1.253764 0-2.279705-1.022559-2.279705-2.276243 0-1.255343 1.025941-2.277918 2.279705-2.277918m15.006918 53.905013c.462263.68835.919534 1.378376 1.381797 2.068401.508816-.01829 1.022624-.0366 1.53144-.05154-.330896-.658433-.668443-1.311875-1.00599-1.965317 1.185585-.01662 2.371169-.0366 3.55342-.05154-.581971-.866276-1.167292-1.734209-1.750938-2.597151-1.075843-.01831-2.238143.01493-3.318979 0-.685077-1.114018-1.290333-2.281235-1.98206-3.395252.851354-.01493 1.699392-.03491 2.550747-.0532-.588638-.794784-1.16895-1.591226-1.754271-2.385993-.776525.0366-1.468253-.03491-2.244794 0-.635191-1.217101-1.448318-2.475776-2.08185-3.696194.510491-.0366 1.107438.07315 1.624579.03992-.517141-.724934-1.02264-1.451542-1.539765-2.174818-.440653-.01662-.882965-.03655-1.32526-.0532-.01829-1.007617-.03159-2.013543-.05155-3.021143 1.962109-1.892168 3.922576-3.78266 5.884685-5.674828.626882-.382417.975365-.947734.878926-1.695951V28.543756c-.01995-.936109-.346825-1.76081-1.090098-2.332777-.60028-.384091-1.077502-.949408-1.431683-1.695967-.405726-1.414959-.814785-2.82826-1.22217-4.241561-.284343-.929458-.818102-1.494775-1.59131-1.697626-3.24415-1.160567-6.637959-1.677675-10.124874-1.749167-3.488573.07149-6.882382.5886-10.126532 1.749167-.773208.202851-1.305308.768168-1.59131 1.697626-.40906 1.413301-.81311 2.826602-1.22217 4.241561-.354181.746559-.834737 1.311876-1.431683 1.695967-.739956.571967-1.197655 1.396668-1.212614 2.332777v24.124237c-.101431.748217.371226 1.313534 1.001442 1.695951 1.965442 1.892168 3.922576 3.78266 5.888019 5.674828-.01995 1.0076-.03491 2.073393-.05155 3.084326-.445629.01493-.886282-.02658-1.328594-.0099-.513808.723276-1.025957 1.411643-1.536432 2.134918.510475.03491 1.110755-.0366 1.624563 0-.636849 1.220417-1.444984 2.479093-2.085167 3.696194-.776541-.03491-1.468269.0366-2.244794 0-.583646.794767-1.165633 1.591209-1.749279 2.385993.846363.01829 1.782531.0018 2.630569.01829-.686752 1.115676-1.33191 2.31616-2.023655 3.43016-1.075827.01493-2.286355-.01829-3.365532 0-.583646.862942-1.1656332 1.730876-1.7492789 2.597152 1.1839259.01493 2.4543239 0 3.6399079.01831-.337563.653442-.759907 1.340134-1.097453 1.998568.515466.01493 1.029274.03323 1.539765.05154.460588-.690025.917859-1.38005 1.380122-2.068401 10.060028.07149 20.161616.07149 30.221644 0"/>
    <circle style="opacity:1;fill:#fff;fill-opacity:1;stroke:none;stroke-width:0;stroke-linecap:round;stroke-miterlimit:4;stroke-dasharray:none" cx="60.676369" cy="38.099972" r="1.41111"/>
</svg>
