<svg xmlns="http://www.w3.org/2000/svg" viewBox="0 0 90.311111 90.311108" height="32" width="32">
    <rect style="fill:#00674c;fill-opacity:1;stroke:#fff;stroke-width:2.82222;stroke-linecap:round;stroke-miterlimit:4;stroke-dasharray:none;stroke-opacity:1" width="87.488892" height="87.488892" x="1.411111" y="1.4111111" ry="6.3499999" rx="6.3499999"/>
    <path d="M32.540653 70.555554h21.081568L39.831 59.602243l16.711158-21.866992c1.09589 1.567235 2.490374 2.543732 4.17537 2.934337l4.533671-5.689486c2.727636 6.428713 6.084703 12.366754 10.582879 17.421925L62.320218 69.46564c.900595 2.973053.721445 5.549062-.529384 7.732855-2.15144 2.659945-4.880686 3.573482-8.003743 3.29104l-2.612523 4.17713H14.111111V44.302779c.652048-7.921703 6.264965-12.90746 15.204813-15.412459-5.340674-1.032986-9.398211-5.75243-9.398211-11.388647 0-6.388371 5.214775-11.6000967 11.607747-11.6000967 6.383297 0 11.596446 5.2117257 11.596446 11.6000967 0 6.044578-4.664399 11.03518-10.581253 11.553282z" style="fill:#fff;fill-opacity:1;fill-rule:evenodd;stroke:none;stroke-width:.160979"/>
</svg>
