<svg xmlns="http://www.w3.org/2000/svg" width="32" height="32">
    <rect style="fill:#00674c;fill-opacity:1;stroke:#fff;stroke-width:.999999;stroke-linecap:round;stroke-miterlimit:4;stroke-dasharray:none;stroke-opacity:1" width="31.000002" height="31.000002" x=".49999997" y=".5" ry="2.25" rx="2.25"/>
    <path style="fill:#fff;fill-rule:nonzero;stroke:none;stroke-width:.0121059" d="m1.8478261 22.829769.854372.614384c.2398943.176903.6338713.179712.8762366.0069l.8543719-.614196c.2424029-.172785.6363611-.169976.8762742.0069l.8543719.614385c.239894.176901.633871.179896.876255.0071l.854372-.614384c.242366-.172785.636343-.169788.876237.0071l.854372.614196c.239894.17709.6338903.179898.8762563.0071l.85439-.614196c.242366-.172784.636343-.169977.876236.0069l.854372.614384c.239895.176903.63389.179898.876274.0071l.854373-.614384c.242364-.172784.636342-.169789.876236.0071l.854353.614197c.239914.176901.633871.179896.876257.0071l.854409-.614384c.242365-.172783.636267-.169788.876255.0071l.854371.614384c.239801.176903.633853.17971.876274.0069l.854372-.614196c.242235-.172785.636287-.169976.876275.0071l.854372.614196c.2398.176903.633853.179898.876086.0071l.85456-.614385c.242235-.172783.636286-.169788.876087.0071l.854558.614196c.239802.17709.633853.179898.876088.0071l.854559-.614196v-1.284366l-.854559.614384c-.242235.172784-.636286.169789-.876088-.0071l-.854558-.614383c-.239801-.176903-.633852-.17971-.876087-.0069l-.85456.614196c-.242233.172785-.636286.169976-.876086-.0071l-.854372-.613979c-.239988-.176903-.63404-.179898-.876275-.0071l-.854372.614384c-.242421.172784-.636473.169789-.876274-.0071l-.854371-.614197c-.239988-.177089-.63389-.179897-.876255-.0071l-.854409.614196c-.242386.172783-.636343.169975-.876257-.0069l-.854353-.614384c-.239894-.176902-.633872-.179897-.876236-.0071l-.854373.614384c-.242384.172783-.636379.169788-.876274-.0071l-.854372-.614197c-.239893-.177088-.63387-.179897-.876236-.0071l-.85439.614198c-.242366.172783-.6363623.169976-.8762563-.0069l-.854372-.614382c-.239894-.176903-.633871-.179898-.876237-.0069l-.854372.614197c-.242384.172784-.636361.169976-.876255-.0071l-.8543719-.614385c-.2399131-.176903-.6338713-.179898-.8762742-.007115l-.8543719.614384c-.2423653.172783-.6363423.169788-.8762366-.0071l-.854372-.614386z"/>
    <path style="fill:#fff;fill-rule:nonzero;stroke:none;stroke-width:.0121059" d="m3.5784347 21.492615.8543719-.614198c.2424029-.172784.6363611-.169977.8762742.0071l.8543719.614198c.239894.176902.633871.179897.876255.0071l.854372-.614384c.242366-.172784.636343-.169789.876237.0071l.854372.614383c.239894.176903.6338903.179712.8762563.0069l.85439-.614196c.242366-.172783.636343-.169976.876236.0069l.854372.614386c.239895.176902.63389.179897.876274.0071l.854373-.614386c.242364-.172783.636342-.169788.876236.0071l.854353.614196c.239914.177089.633871.179898.876257.0071l.854409-.614197c.242365-.172783.636267-.169976.876255.0069l.854371.614384c.239801.176901.633853.179898.876274.0069l.854392-.614198c.242234-.172783.636287-.169788.876275.0071l.854371.614198c.239801.176901.633853.179896.876087.0071l.854559-.614154c.242235-.172784.636286-.169788.876087.0071l.854559.614384c.03707.02733.07844.05017.121866.06926L30 16h-4l-1-4h-2l-1-3h-2l1 4h-2l-1 4H2.2598677l.5386625 4.543728c.2394637.11681.567753.100151.7799045-.0511z"/>
    <path style="fill:#fff;fill-rule:nonzero;stroke:none;stroke-width:.0121059" d="M16.834835 13.147031c-.05453-.130888-.194574-.192739-.359382-.236318 0 0-2.343496-.138788-2.786837-.144554l-1.275089-1.588568c-.31934-.147887-4.5335053-.337238-4.9047003.287816l-1.205256 1.382252-2.1092544.149141c-.2813025.03197-.5575979 2.004132-.5575979 2.004132L6 15c.005.569626.429177 1 1 1 .571085 0 .995395-.429983 1-1l5.085838.0016c.0035.570953.467284 1.032753 1.039061 1.032753.57206 0 1.036029-.462249 1.039081-1.033577L17 15s-.06275-1.648174-.165165-1.852969z"/>
</svg>
