<?xml version="1.0" encoding="UTF-8"?>
<!-- Created with Inkscape (http://www.inkscape.org/) -->
<svg width="40" height="32.495" version="1.1" viewBox="0 0 40 32.495" xmlns="http://www.w3.org/2000/svg">
 <g transform="matrix(1.3333 0 0 -1.3333 -.00019823 192)">
  <g transform="matrix(.016924 0 0 .016924 .00012351 119.63)" fill="#777">
   <path d="m886.3 500.83c229.39 0 422.64 164.27 459.68 390.45 9.49 57.996-29.88 112.76-87.85 122.22-59.04 9.12-112.55-29.887-122.22-87.855-20.02-122.75-125.09-211.88-249.61-211.88-124.72 0-229.75 88.957-249.61 211.7-9.493 58.144-65.848 97.521-122.05 88.031-57.961-9.46-97.508-64.055-88.047-122.02 36.699-226.38 230.12-390.64 459.71-390.64"/>
   <path d="m272.89 1094.7c49.738 69.09 123.48 114.72 207.59 128.33 16.988 2.84 34 4.11 50.98 4.11 105.57 0 206.49-52.98 266.26-142.98 19.687-29.72 52.98-47.6 88.582-47.6 35.801 0 69.066 17.88 88.758 47.78 69.065 104.49 193.78 159.78 317.08 138.69 84.1-13.61 157.82-59.24 207.56-128.33 49.74-69.23 69.63-153.51 55.82-237.44-25.57-157.28-106.64-301.33-227.78-405.46-164.07-140.68-345.52-238.89-441.43-238.89-95.906 0-277.52 98.207-441.62 238.89-121.14 103.95-202.01 248.01-227.61 405.46-13.774 83.938 6.086 168.22 55.828 237.44zm33.289-804.33c79.457-68.16 355.92-290.4 580.12-290.4 224.04 0 500.5 222.24 579.92 290.4 159.26 136.72 265.56 325.86 299.39 532.52 22.73 140.12-10.4 280.76-93.23 396-83.04 115.25-205.79 191.31-345.89 214.21-160.69 26.1-322.09-23.27-440.19-128.84-118.1 105.57-279.86 154.94-440.19 128.84-140.09-22.9-262.88-98.96-345.88-214.21-82.84-115.24-115.96-255.87-93.231-396 33.828-206.83 139.93-395.97 299.18-532.52"/>
  </g>
 </g>
</svg>
