<?xml version="1.0" encoding="UTF-8" standalone="no"?>
<!-- Created with Inkscape (http://www.inkscape.org/) -->

<svg
   version="1.1"
   id="svg2"
   width="40"
   height="32.494736"
   viewBox="0 0 39.999999 32.494736"
   sodipodi:docname="place_heart.svg"
   inkscape:version="1.1.2 (0a00cf5339, 2022-02-04)"
   xmlns:inkscape="http://www.inkscape.org/namespaces/inkscape"
   xmlns:sodipodi="http://sodipodi.sourceforge.net/DTD/sodipodi-0.dtd"
   xmlns="http://www.w3.org/2000/svg"
   xmlns:svg="http://www.w3.org/2000/svg">
  <defs
     id="defs6" />
  <sodipodi:namedview
     id="namedview4"
     pagecolor="#ffffff"
     bordercolor="#000000"
     borderopacity="0.25"
     inkscape:showpageshadow="2"
     inkscape:pageopacity="0.0"
     inkscape:pagecheckerboard="0"
     inkscape:deskcolor="#d1d1d1"
     inkscape:pageshadow="2"
     showgrid="false"
     inkscape:zoom="4.203125"
     inkscape:cx="130.14126"
     inkscape:cy="96"
     inkscape:window-width="1850"
     inkscape:window-height="1016"
     inkscape:window-x="0"
     inkscape:window-y="0"
     inkscape:window-maximized="1"
     inkscape:current-layer="g8" />
  <g
     id="g8"
     inkscape:groupmode="layer"
     inkscape:label="ink_ext_XXXXXX"
     transform="matrix(1.3333333,0,0,-1.3333333,-1.9823133e-4,192.00036)">
    <g
       id="g10"
       transform="matrix(0.01692431,0,0,0.01692431,1.2351154e-4,119.62922)"
       style="fill:#ffffff;fill-opacity:1">
      <path
         d="m 886.297,500.832 c 229.393,0 422.643,164.266 459.683,390.449 9.49,57.996 -29.88,112.759 -87.85,122.219 -59.04,9.12 -112.55,-29.887 -122.22,-87.855 C 1115.89,802.891 1010.82,713.77 886.297,713.77 c -124.723,0 -229.754,88.957 -249.613,211.699 -9.493,58.144 -65.848,97.521 -122.047,88.031 -57.961,-9.46 -97.508,-64.055 -88.047,-122.023 36.699,-226.379 230.125,-390.645 459.707,-390.645"
         style="fill:#ffffff;fill-opacity:1;fill-rule:nonzero;stroke:none"
         id="path12" />
      <path
         d="m 272.887,1094.73 c 49.738,69.09 123.48,114.72 207.586,128.33 16.988,2.84 34,4.11 50.98,4.11 105.57,0 206.488,-52.98 266.262,-142.98 19.687,-29.72 52.98,-47.6 88.582,-47.6 35.801,0 69.066,17.88 88.758,47.78 69.065,104.49 193.785,159.78 317.075,138.69 84.1,-13.61 157.82,-59.24 207.56,-128.33 49.74,-69.23 69.63,-153.507 55.82,-237.445 C 1529.94,700 1448.87,555.957 1327.73,451.828 1163.66,311.148 982.207,212.941 886.297,212.941 c -95.906,0 -277.524,98.207 -441.625,238.887 -121.145,103.953 -202.012,248.008 -227.613,405.457 -13.774,83.938 6.086,168.215 55.828,237.445 z M 306.176,290.398 C 385.633,222.238 662.094,0 886.297,0 1110.34,0 1386.8,222.238 1466.22,290.398 c 159.26,136.723 265.56,325.864 299.39,532.524 22.73,140.125 -10.4,280.758 -93.23,395.998 -83.04,115.25 -205.79,191.31 -345.89,214.21 -160.69,26.1 -322.09,-23.27 -440.193,-128.84 C 768.195,1409.86 606.434,1459.23 446.105,1433.13 306.012,1410.23 183.23,1334.17 100.223,1218.92 17.3828,1103.68 -15.7383,963.047 6.99219,822.922 40.8203,616.094 146.922,426.949 306.176,290.398"
         style="fill:#ffffff;fill-opacity:1;fill-rule:nonzero;stroke:none"
         id="path14" />
    </g>
  </g>
</svg>
