<svg width="23" height="20" xmlns="http://www.w3.org/2000/svg">
 <path d="m21.391 1.6369c0.24467-0.24996 0.63802-0.61944 0.31018-0.96446-0.22505-0.30111-0.72123-0.073069-1.064-0.14448-4.9608 0.23266-9.9316 0.55166-14.897 0.24999-1.4427-0.058993-2.8828-0.16717-4.3243-0.24997l-0.87591 16.207c2.4254 0.17895 4.8412 0.47231 7.2694 0.62154 1.8092 0.18029 3.6289 0.11094 5.4397 0.0085 0.65848 0.05335 1.3432 0.09498 1.899 0.49817 0.50926 0.29167 1.0309 0.6198 1.6048 0.74987 0.51813-0.10181 1.0485-0.54059 1.5858-0.24338 0.36096 0.04949 0.55866 0.48111 0.97051 0.34774 0.5727-0.01826 0.97528 0.56132 1.5507 0.45217 0.36439-0.08146 0.63527 0.11344 0.94422 0.26608 0.29888 0.21358 0.8219-0.16268 0.64864-0.52542-0.20586-0.4259-0.55126-0.82841-0.69919-1.287-0.21518-0.52464 0.37435-0.92621 0.19389-1.4445-0.03373-0.3618-0.08458-0.66581-0.07009-1.0781 0.01195-0.34032-0.10816-0.61338-0.30828-0.93903-0.17528-0.28523-0.18477-0.62856-0.17207-0.96435 0.01262-0.33362 0.5611 0.05766 0.54294-0.57524l-0.14043-7.4871c-0.17444-0.21137-0.49364-0.43642-0.78652-0.5901-0.47887-0.18207-0.3084-0.72741-0.39508-1.127-0.049955-0.23032-0.26633-0.33352-0.25091-0.69053 0.03766-0.43539 0.69562-0.72323 1.0238-1.09z" fill="#fff" stroke="#006747"/>
</svg>
