<svg width="32.5" height="20" version="1.1" viewBox="0 0 32.5 20" xmlns="http://www.w3.org/2000/svg">
 <g fill-rule="evenodd" stroke-width=".5">
  <path d="m3.3244 20a3.3388 3.3388 0 0 1-3.3244-3.3075v-13.385a3.3388 3.3388 0 0 1 3.3244-3.3075h25.851a3.3388 3.3388 0 0 1 3.3244 3.3075v13.385a3.3388 3.3388 0 0 1-3.3244 3.3075z" fill="#009140"/>
  <path d="m28.964 1.0375a2.5043 2.5043 0 0 1 2.5017 2.48v12.965a2.5043 2.5043 0 0 1-2.5017 2.48h-25.428a2.5043 2.5043 0 0 1-2.5017-2.48v-12.965a2.5043 2.5043 0 0 1 2.5017-2.48z" fill="#fff"/>
  <path d="m16.25 1.7412a3.1411 3.1411 0 0 0-0.5684 0.05625l-12.867 2.005a0.72205 0.72205 0 0 0-0.52475 0.69125c0 0.0253 0.00365 0.055 5e-3 0.03875v10.935c-0.0013-0.0163-5e-3 0.01345-5e-3 0.03875a0.72205 0.72205 0 0 0 0.525 0.69125l12.867 2.005a2.9 2.9 0 0 0 1.1368 0l12.867-2.005a0.72205 0.72205 0 0 0 0.525-0.69125c0-0.0253-0.0037-0.055-5e-3 -0.03875v-10.935c0.0013 0.0163 5e-3 -0.01345 5e-3 -0.03875a0.72205 0.72205 0 0 0-0.525-0.69125l-12.867-2.005a3.1411 3.1411 0 0 0-0.56865-0.05625z" fill="#009140"/>
 </g>
</svg>
