<svg width="25" height="20" xml:space="preserve" xmlns="http://www.w3.org/2000/svg">
 <path d="M 12.584185,0.5078004 C 11.713599,0.5151687 10.797659,0.95005613 10.459255,1.6374867 9.2910834,1.6061188 8.0316171,2.2905705 7.8732534,3.3030482 6.9030357,3.3903099 6.2460128,4.1307501 6.0165417,4.8705166 5.1521522,5.1872586 4.4959367,5.9231831 4.4824369,6.7223276 4.4109007,7.2167509 3.6869089,7.3115598 3.4789492,7.7520788 3.1482173,8.1954608 3.0465147,8.7395885 3.1261508,9.2534536 2.2065004,9.835728 1.888221,10.931468 2.2731414,11.8248 1.4412395,12.356643 1.384654,13.394489 1.8481885,14.124403 c -0.5428677,0.490023 -0.5054216,1.272705 -0.093489,1.814033 -0.3895632,0.363625 -0.99980376,0.593043 -1.30769965,0.985172 0.008832,1.207201 0.0177896,1.361691 0.0267475,2.568892 C 8.4941555,19.4872 16.514551,19.48197 24.534958,19.47734 c 0.0063,-1.147296 0.01262,-1.241871 0.01804,-2.389168 -0.443853,-0.310732 -0.916861,-0.596895 -1.308078,-0.956057 0.433456,-0.56938 0.374727,-1.342209 -0.09349,-1.884485 0.534692,-0.658925 0.398445,-1.63913 -0.305171,-2.173742 C 22.72943,11.767282 23.038728,11.434404 22.948582,11.10082 22.93483,10.474453 22.559119,9.8793463 21.997049,9.4722584 22.115898,8.5784629 21.673875,7.612258 20.716072,7.1474763 20.764142,6.1977469 20.02612,5.328309 19.04326,4.8956635 18.911682,4.1335605 18.161473,3.4762558 17.246869,3.3533316 17.119164,2.3592851 15.97625,1.6205501 14.805984,1.6374551 14.088395,0.97975108 13.373932,0.51218789 12.584185,0.5078004 Z" style="fill:#fff;stroke-width:.0419162"/>
 <path style="fill-rule:evenodd;stroke-width:.0373174" d="m 16.99392,3.9745467 c 1.023404,0.1055129 1.686543,0.8525613 1.800738,1.4254733 1.071511,0.206585 1.763154,1.207404 1.529,2.103505 0.814364,0.397022 1.399053,1.4140437 1.190621,2.2224677 0.742024,0.6575493 0.978496,1.0948373 0.759818,2.3820593 0.775131,0.535363 1.029209,1.575067 0.418653,2.27711 0.484666,0.460498 0.621889,1.418063 -0.206332,1.66006 -2.501526,1.045884 -6.123171,1.564575 -8.894446,1.738158 0.01413,-0.682235 0.18994,-1.742416 -1.055033,-1.745764 -1.338781,-0.0036 -1.182338,1.085312 -1.190009,1.740227 C 8.4529438,17.569879 4.7660999,16.969534 2.2315656,15.739424 1.7856225,15.346307 1.8070596,14.627896 2.3465187,14.302075 1.8425354,13.336879 2.1407556,12.76257 2.7591566,12.057713 2.4038958,11.195592 2.6680636,10.134593 3.5400046,9.561671 3.3396011,8.709761 3.8811976,7.820682 4.7690701,7.407859 4.6559811,6.440072 5.4200025,5.496644 6.4761537,5.153423 6.6585345,4.557714 7.3055599,3.9843035 8.068708,3.7821997 8.6538607,2.8320155 9.4224749,2.1541262 10.524178,2.133477 11.0216,1.3542281 11.72125,1.1106431 12.491301,1.1188939 c 0.684835,0.00734 1.874254,0.3310893 2.211762,1.0370319 1.245466,0.09989 1.784176,0.7026303 2.290857,1.8186209 z M 2.1629813,16.342503 c 3.462629,1.426005 7.3520269,2.074729 11.2070607,1.997214 3.261422,-0.03453 6.477581,-0.715082 9.45594,-1.800984 l 1.162614,0.727166 0.0114,1.747756 -23,-0.02011 V 17.010086 Z M 15.113189,1.261335 c 1.133102,0.01874 2.181692,0.718724 2.472552,1.640457 0.860593,0.325031 1.604074,0.937923 1.869347,1.713426 0.909165,0.510998 1.617596,1.339174 1.690171,2.277013 0.876404,0.559208 1.337225,1.483784 1.295988,2.400307 0.83443,0.675556 0.999328,1.727162 0.815231,2.64938 0.701506,0.572556 0.811955,1.501121 0.48077,2.246824 0.237822,0.59547 0.323022,1.255573 0.08962,1.861876 0.370785,0.320989 0.892042,0.585577 1.173127,0.940187 -0.01,1.348869 -0.01963,1.645176 -0.02938,2.994035 C 16.649164,19.99014 8.3277133,19.99537 0.00625035,20 c -0.0025,-1.463503 -0.00375,-1.874441 -0.00625,-3.337931 L 0.97050301,15.781451 C 0.71580525,15.231242 0.76264238,14.563339 1.1526638,14.06551 0.65423075,13.295302 0.98349038,12.340653 1.6035723,11.692887 1.3753493,10.773101 1.6536973,9.748873 2.4486647,9.07117 2.4791647,8.192416 2.8788483,7.253661 3.7745152,6.746358 3.9501262,5.826193 4.5492083,4.911564 5.5542743,4.469334 5.8103471,3.748 6.4668661,3.103097 7.3340334,2.876687 7.6516555,1.941385 8.7352459,1.231051 9.8961723,1.23623 10.699166,0.215854 11.323817,0 12.437323,0 c 1.260395,0 2.026502,0.39304649 2.675866,1.261335 z"/>
</svg>
