<svg width="20" height="20" xmlns="http://www.w3.org/2000/svg">
 <rect style="fill:#fff;stroke:#006747;stroke-width:1" width="19" height="19" x=".5" y=".5" rx=".906" ry=".922"/>
 <path style="fill:#006747;fill-opacity:1;fill-rule:evenodd;stroke:none;stroke-width:.0483693;stroke-linecap:butt;stroke-linejoin:miter;stroke-miterlimit:4;stroke-dasharray:none;stroke-opacity:1" d="M 10.052922,1.5 C 10.040015,1.8266057 9.6218578,1.6232235 9.5332031,1.6831778 9.3646959,1.7599661 9.4962481,2.0504246 9.2254463,1.9332087 9.0848782,2.0014546 8.9370677,2.0005261 8.7891457,2.0480847 8.8255436,2.2939094 8.6631461,2.4249881 8.4262908,2.4270308 8.3523809,2.6010626 7.7323269,2.6305152 8.092452,2.8255036 8.3537458,3.047874 7.902069,3.3194743 7.819691,3.5363294 7.7125031,3.6590421 7.5912946,3.978461 7.852282,3.9929087 7.9045574,4.2918446 7.7085383,4.6530375 7.8319475,4.9085744 7.9941686,4.8017115 7.9907609,4.9082588 8.0481618,5.0471091 8.230281,5.0870353 8.3214149,4.6386269 8.5630056,4.8445161 8.8744114,4.8759928 8.9901974,5.1678255 8.9524532,5.4376524 9.0960204,5.596568 9.2278419,5.7345455 9.0678214,5.9433317 8.9102985,6.3880725 8.8107802,6.8535563 8.6128297,7.2836172 c -0.043176,0.3958173 0.3771727,0.6695346 0.7351808,0.6638707 0.4364584,0.05274 0.9077925,0.1198529 1.3123375,-0.1008833 0.285129,-0.1679408 0.825813,0.023677 0.926214,-0.3711094 -0.01848,-0.3040334 -0.273894,-0.532922 -0.313895,-0.837819 -0.101579,-0.3761419 -0.221869,-0.751894 -0.270672,-1.1385189 -0.0454,-0.2314513 0.15068,-0.248276 0.304777,-0.1928343 0.15989,-0.097634 0.317552,-0.092573 0.350338,0.1099085 0.168415,0.052647 0.09694,-0.4541559 0.317878,-0.2222961 0.02303,-0.3709794 0.35499,-0.6420877 0.338639,-1.0209409 C 12.324398,3.83897 12.286514,3.491222 12.126884,3.1934561 12.030411,2.879664 11.870112,2.595018 11.69205,2.3228513 11.484035,2.0859775 11.151347,2.0225041 10.846311,1.9694301 10.607422,1.9470528 10.422889,1.8622886 10.398441,1.604096 10.314501,1.58014 10.27909,1.643558 10.233435,1.555163 9.9963935,1.7657505 10.185245,1.508273 10.052857,1.500102 Z"/>
</svg>
