<svg width="20" height="20" version="1.0" xmlns="http://www.w3.org/2000/svg">
 <g transform="translate(-44.644 -357.006)">
  <rect style="fill:#fff;fill-rule:evenodd;stroke:#000;stroke-linecap:round;stroke-linejoin:round" width="19" height="19" x="45.144" y="357.506" rx="1.5" ry="1.5"/>
  <path style="fill:none;fill-rule:evenodd;stroke:#000;stroke-width:8;stroke-miterlimit:3.86369" stroke-miterlimit="3.864" clip-rule="evenodd" transform="translate(-33.507 356.98) scale(.05208)" d="M1838.0981 50.099609 1838.0981 70.899902 1855.6982 133.29932 1855.6982 219.69873 1828.498 210.09912 1810.8982 214.89893 1801.2983 221.29883 1778.8984 210.09912 1764.4985 218.09912 1748.4985 208.49902 1738.8984 211.69873 1730.8987 206.89893 1721.2988 211.69873 1692.499 198.89893 1687.6987 189.29883 1682.8989 192.49902 1671.6992 189.29883 1668.499 186.09912 1663.6992 190.89893 1647.6992 181.29883 1646.0991 174.89893 1646.0991 77.299805 1527.6997 77.299805 1527.6997 50.099609z"/>
 </g>
</svg>
