<svg width="25" height="20" version="1.0" viewBox="0 0 24.966 19.967" xmlns="http://www.w3.org/2000/svg">
 <g transform="matrix(.032871 0 0 .032816 .17603 .10068)" fill="#003f87" stroke="#fff" stroke-width="34.609">
  <path d="m15 177.91c0-12.782 0.58496-25.427 1.729-37.91h716.54c1.1445 12.483 1.7295 25.128 1.7295 37.91 0 209.51-157.14 382.32-360 406.98-202.86-24.662-360-197.47-360-406.98z" fill="#003f87" stroke="#fff" stroke-width="34.609"/>
 </g>
 <g transform="matrix(.032886 0 0 .033366 .17071 .11854)" fill="#af1e2d" stroke="#fff" stroke-width="34.315">
  <path d="m47.378 17.943c50.892 13.635 104.39 20.906 159.58 20.906 58.261 0 114.63-8.1011 168.04-23.238 53.411 15.137 109.78 23.238 168.04 23.238 55.194 0 108.69-7.2705 159.58-20.906 14.262 33.625 24.164 69.546 28.996 107.06h-713.24c4.833-37.51 14.734-73.432 28.996-107.06z" fill="#af1e2d" stroke="#fff" stroke-width="34.315"/>
 </g>
</svg>
