<svg width="51.721" height="40" version="1.0" xmlns="http://www.w3.org/2000/svg">
 <path d="m5.9377 37.281s-1.9549-4.0122-0.9455-7.8584c-0.29881-1.0348-1.4208-4.5673-0.22232-7.9979 0.34713-0.50641-0.94116-2.2314-1.024-2.8701-0.30374-2.3427-1.8123-16.053-2.1765-17.306 11.892-0.084256 32.105-0.06662 32.105-0.06662s-0.23693 1.64-0.31359 1.938c-0.56459 2.1949 0.82595 2.1476 1.3003 2.167 1.222 0.04992 0.70719-0.0085 1.505 0.1569 0.81421 0.22573 0.65924 0.63152 2.5327 2.5581 1.7463 2.0466 2.8562 2.1263 4.6275 3.8358 3.0291 2.1042 7.8649 5.5182 7.1385 7.5897-2.0575 4.4362-3.3378 7.3876-3.9758 11.852-0.35373 2.8426-2.0471 5.9091-3.9312 5.877-1.4552-0.0269-0.87924 0.31605-1.4283 0.94462-0.32021 0.3666-0.80321 0.7149-1.549 0.71812-0.71417 0.0031-1.2615-0.079-1.7059-0.63731-0.67375-0.84645 0.2033-1.1343-1.756-1.0747-1.7794 0.0541-30.181 0.17395-30.181 0.17395" fill="#fff" fill-rule="evenodd" stroke="#000" stroke-linecap="round" stroke-width="2.3614"/>
</svg>
