<svg width="26" height="20" version="1.0" xmlns="http://www.w3.org/2000/svg">
 <path style="stroke:#000;stroke-width:2;stroke-miterlimit:4" d="m 4.5011064,16.3523 h -2.33289 V 6.54654 L 1.2305264,1.00013 H 22.514726 c 0.465212,0 0.721287,0.6143331 0.48256,1.11034 -0.222719,0.4627471 -0.471267,1.1957 -0.09699,1.1957 h 2.05243 v 1.03655 c 0,0.1415238 -0.03623,0.2955574 -0.0728,0.38848 l -1.30189,3.30781 c -0.09025,0.2293119 -0.189671,0.3990664 -0.39414,0.72437 l -2.68128,4.26582 c -0.373656,0.594474 -0.473966,1.127921 -0.47411,1.75959 -1.92e-4,0.84196 0.359747,1.252739 0.35706,1.811612 l -0.008,1.663778 C 20.375945,18.601355 20.143131,19.000003 19.794126,19 L 4.5009864,18.99987 Z"/>
 <path style="fill:#fff" d="M 4.40948,16.3523 H 2.07659 V 6.54654 L 1.1389,1.00013 h 21.2842 c 0.465212,0 0.721287,0.6143331 0.48256,1.11034 -0.222719,0.4627471 -0.471267,1.1957 -0.09699,1.1957 h 2.05243 v 1.03655 c 0,0.1415238 -0.03623,0.2955574 -0.0728,0.38848 l -1.30189,3.30781 c -0.09025,0.2293119 -0.189671,0.3990664 -0.39414,0.72437 l -2.68128,4.26582 c -0.373656,0.594474 -0.473966,1.127921 -0.47411,1.75959 -1.92e-4,0.84196 0.359747,1.252739 0.35706,1.811612 l -0.008,1.663778 C 20.284319,18.601355 20.051505,19.000003 19.7025,19 L 4.40936,18.99987 Z"/>
</svg>
