<svg width="20" height="20" version="1.0" xmlns="http://www.w3.org/2000/svg">
 <path d="m2.3975 18.643s-0.7457-2.0065-0.36066-3.9301c-0.11398-0.5175-0.54195-2.2842-0.084805-3.9999 0.13241-0.25326-0.359-1.1159-0.39059-1.4354-0.11586-1.1716-0.6913-8.0285-0.8302-8.655 4.536-0.042137 12.246-0.033317 12.246-0.033317s-0.09037 0.8202-0.11962 0.96925c-0.21536 1.0977 0.31506 1.074 0.49601 1.0837 0.46613 0.024964 0.26975-0.00425 0.5741 0.07847 0.31058 0.11289 0.25146 0.31583 0.9661 1.2793 0.66615 1.0235 1.0895 1.0634 1.7651 1.9183 1.1554 1.0523 3 2.7598 2.7229 3.7957-0.78485 2.2186-1.2732 3.6947-1.5165 5.9275-0.13493 1.4216-0.78085 2.9553-1.4995 2.9392-0.55505-0.01345-0.33538 0.15806-0.5448 0.47242-0.12214 0.18334-0.30638 0.35753-0.59085 0.35915-0.27242 0.0016-0.4812-0.03952-0.6507-0.31873-0.257-0.42332 0.07755-0.56725-0.66985-0.53745-0.67875 0.02705-11.512 0.08699-11.512 0.08699" fill="#fff" fill-rule="evenodd" stroke="#000" stroke-linecap="round" stroke-width="1.176"/>
</svg>
