<svg width="20" height="20" xmlns="http://www.w3.org/2000/svg">
 <path d="M9.476 19.228c-2.159-.64-3.992-1.74-5.473-3.286-1.57-1.637-2.649-3.7-3.141-6.006-.15-.698-.16-.858-.163-2.255C.698 6.47.72 6.073.805 5.637c.176-.88.427-1.469.897-2.105.637-.862 1.317-1.373 2.382-1.789C7.882.26 12.18.25 16.022 1.716c.771.294 1.217.571 1.727 1.074.736.724 1.193 1.644 1.416 2.847.171.921.159 3.17-.022 4.119a12.246 12.246 0 0 1-1.841 4.537c-1.321 2.008-3.188 3.54-5.488 4.504-.348.146-1.726.584-1.815.577a9.599 9.599 0 0 1-.523-.146z" fill="#fff" stroke="#000" stroke-width="1.247"/>
</svg>
