<svg width="23" height="20" version="1.0" viewBox="0 0 22.969 19.967" xmlns="http://www.w3.org/2000/svg">
 <path style="fill:none;stroke:#fff;stroke-width:58.86497714;stroke-linecap:round;stroke-linejoin:miter;stroke-miterlimit:4;stroke-dasharray:none;stroke-opacity:1" d="m 345.50281,564.68586 c 0,-34.58444 -39.00951,-73.36468 -73.79841,-73.36468 l -177.116161,10e-6 c -27.83112,0 -59.038723,-31.02419 -59.038723,-58.69174 l -4e-6,-396.169263" transform="matrix(.03383 0 0 .03403 -.204 -.245)"/>
 <path style="fill:none;stroke:#fff;stroke-width:58.86497714;stroke-linecap:round;stroke-linejoin:miter;stroke-miterlimit:4;stroke-dasharray:none;stroke-opacity:1" d="m 655.4561,36.460182 10e-6,396.169258 c 0,27.66755 -31.20761,58.69174 -59.03873,58.69174 l -177.11617,10e-6 c -34.7889,0 -73.7984,38.78024 -73.7984,73.36467" transform="matrix(.03383 0 0 .03403 -.204 -.245)"/>
 <path d="m 271.7044,491.32118 -177.116161,10e-6 c -27.83112,0 -59.038723,-31.02419 -59.038723,-58.69174 l -4e-6,-396.169263 619.906588,-5e-6 10e-6,396.169258 c 0,27.66755 -31.20761,58.69174 -59.03873,58.69174 l -177.11617,10e-6 c -34.7889,0 -73.7984,38.78024 -73.7984,73.36467 0,-34.58444 -39.00951,-73.36468 -73.79841,-73.36468 z" transform="matrix(.03383 0 0 .03403 -.204 -.245)" fill="#006b54" style="stroke:none;stroke-width:29.4325;stroke-miterlimit:4;stroke-dasharray:none"/>
 <path style="fill:#fff;fill-opacity:1;fill-rule:evenodd;stroke:none;stroke-width:1.99728;stroke-linecap:square;stroke-linejoin:round;stroke-miterlimit:4;stroke-dasharray:none;stroke-opacity:1" d="M0-.003H22.969V.996H0z"/>
</svg>
