<svg width="40" height="40" version="1.0" xmlns="http://www.w3.org/2000/svg">
 <g transform="translate(-384.78 -464.13)">
  <g transform="matrix(.02036 0 0 .020359 338.39 463.39)" stroke="#000" stroke-width="123.89">
   <path d="m3260.7 98.209c-204.06 0-310.75 41.622-438.1 135.4-137.18 101.02-295.2 165.45-482.16 165.78v1085.5c0 96.423 0.1369 96.44 49.605 145.21 86.435 85.21 870.65 308.99 870.65 308.99s784.22-223.78 870.65-308.99c49.468-48.767 49.605-48.784 49.605-145.21v-1085.5c-186.95-0.32627-346.35-62.703-482.16-165.78-121.18-91.976-234.04-135.4-438.1-135.4z" fill="#fff" stroke="#000" stroke-linecap="square" stroke-linejoin="round" stroke-width="123.89"/>
  </g>
 </g>
</svg>
