<svg xmlns="http://www.w3.org/2000/svg" width="75" height="40" viewBox="0 0 75 40">
  <path d="M7.1429,0H67.8572C71.802,0,75,2.7552,75,6.1538V33.8461C75,37.2448,71.802,40,67.8571,40H7.1429C3.198,40,0,37.2448,0,33.8462V6.1538C0,2.7552,3.198,0,7.1429,0Z" fill="#007f00"/>
  <path d="M7.1429.9231H67.8572c3.3532,0,6.0714,2.3419,6.0714,5.2308V33.8462c0,2.8889-2.7183,5.2308-6.0714,5.2308H7.1429c-3.3532,0-6.0714-2.3419-6.0714-5.2308V6.1538C1.0714,3.265,3.79.9231,7.1429.9231Z" fill="#fff"/>
  <path d="M7.1429,3.0769H67.8572a3.352,3.352,0,0,1,3.5714,3.0769V33.8461a3.352,3.352,0,0,1-3.5714,3.0769H7.1429a3.352,3.352,0,0,1-3.5714-3.0769V6.1538A3.3518,3.3518,0,0,1,7.1429,3.0769Z" fill="#007f00"/>
</svg>
