<svg width="25" height="20" xmlns="http://www.w3.org/2000/svg">
 <path d="M11.931 19.365a17.98 17.98 0 0 0-.42-.045c-2.957-.293-5.832-1.81-7.806-4.117C2.007 13.217.968 10.629.765 7.875.72 7.293.741 6.374.804 6.029c.223-1.193.726-2.137 1.584-2.97.716-.694 1.338-1.036 2.473-1.358C7.626.915 10.125.585 12.98.627a26.43 26.43 0 0 1 6.235.805c1.72.43 2.342.683 3.058 1.24.313.244.82.775 1.053 1.104a5.11 5.11 0 0 1 .908 2.573c.185 2.592-.434 5.068-1.822 7.298-1.216 1.951-2.775 3.41-4.726 4.42a11.733 11.733 0 0 1-4.009 1.242c-.346.044-1.55.083-1.746.056z" fill="#fff" stroke="#000" stroke-width="1.243"/>
</svg>
