<svg width="20" height="20" version="1.0" xmlns="http://www.w3.org/2000/svg">
 <path d="M.59.478C.933.528 1.774.372 2 .688c.392.745.766.947.774 1.602-.105.34.063.763.452.71C7.907 3.189 16 3 16 3v2h3.5v8H18v2s-1.452.043-2.05 0c-.228 1.224.283 2.358.728 3.375-.762.345-1.527.781-2.29 1.125-.544-.307-.616-.644-.743-1.278-.399-.875-.298-.942-.892-1.363-.171-.35-1.395-1.115-1.74-.926-.659.135-.627.249-1.137.687-.47.367-.923-.084-1.435-.023-.379.127-.904.54-1.021.937-.161.532-.943-.2-1.415-.006-.454.215-.67.225-.845.75-.28.496-.322.662-.88.956-.412.229-.93.16-1.385.266-.634.157-1.075-.622-1.692-.439-.22.037-.79.868-.703.439.03-6.426 0-19 0-19z" fill="#fff" stroke="#f38f00" stroke-linecap="round" stroke-linejoin="round" stroke-width=".957"/>
</svg>
