<svg width="25" height="20" version="1.1" xmlns="http://www.w3.org/2000/svg">
 <path d="m1.9186 19.41h21.163c0.1394 0 0.28665-0.0244 0.43303-0.08189 0.14551-0.05837 0.2823-0.14638 0.39818-0.26226s0.20388-0.25267 0.26226-0.39818c0.0575-0.14638 0.08189-0.29362 0.08189-0.43303v-16.46c0-0.13941-0.0244-0.28753-0.08189-0.43303-0.058378-0.14639-0.14638-0.28231-0.26226-0.39819-0.11588-0.11675-0.25267-0.20388-0.39818-0.26226-0.14638-0.057507-0.29362-0.082774-0.43303-0.082774h-21.163c-0.13854 0-0.28665 0.025261-0.43216 0.082774-0.14638 0.057505-0.28317 0.1455-0.39905 0.26226-0.11588 0.11588-0.20388 0.2518-0.26139 0.39818-0.057505 0.14551-0.082773 0.29362-0.082773 0.43303v16.46c0 0.13941 0.025267 0.28665 0.082773 0.43303 0.057505 0.14638 0.14551 0.2823 0.26139 0.39818s0.25267 0.20388 0.39905 0.26226c0.14551 0.05751 0.29362 0.08189 0.43216 0.08189" fill="#fff" stroke="#000" stroke-width="1.175"/>
 <path d="m1.9781 1.8417v6.3742c0 0.012399 8.262e-4 0.023952 0.00579 0.036343 0.00579 0.013212 0.014042 0.023132 0.022303 0.033865l0.00165 0.00249c0.00579 0.00662 0.010737 0.0124 0.01652 0.018986 0.00743 0.00743 0.014042 0.014877 0.02065 0.023952 0.010737 0.014877 0.02065 0.031387 0.029737 0.048735 0.00991 0.017357 0.017347 0.034692 0.02478 0.054517 0.00826 0.022313 0.013217 0.044606 0.01239 0.066904-8.261e-4 0.00908-0.00331 0.017357-0.00662 0.026429-0.00249 0.00743-0.00496 0.014877-0.00579 0.022312-0.00165 0.011553-0.00249 0.023952-0.00249 0.036343-8.261e-4 0.014031-0.00165 0.028916-0.00331 0.042952-0.00249 0.010733-0.00579 0.021466-0.00907 0.032213-0.00413 0.011553-0.00743 0.023132-0.00991 0.034692-0.00165 0.013213-0.00249 0.027256-0.00331 0.040473-8.259e-4 0.010732-8.259e-4 0.021473-0.00249 0.032212-8.263e-4 0.010732-0.00331 0.020654-0.00579 0.030559-0.00249 0.012399-0.00579 0.02479-0.00662 0.036343 0 0.00496 0.00165 0.00991 0.00331 0.014031 0.00165 0.00331 0.00249 0.00743 0.00331 0.010732 0 0.00331 0 0.00662-8.26e-4 0.010733 0 0.00413-8.264e-4 0.00908 8.26e-4 0.013213 0.00413 0.017357 0.010737 0.033038 0.018173 0.048735l0.00907 0.020654c0.00991 0.023953 0.02065 0.047909 0.033039 0.071037 0.014866 0.034691 0.029737 0.068557 0.044605 0.10325 0.037169 0.087554 0.075165 0.17511 0.11399 0.26184 0.026431 0.058642 0.10408 0.044606 0.18255 0.030559 0.073513-0.0124 0.14785-0.023953 0.18255 0.023952 0.029736 0.042126 0.059471 0.084252 0.085078 0.12803l0.032213 0.052866c0.013218 0.023132 0.027259 0.046258 0.041298 0.069383 0.00826 0.013211 0.016521 0.027256 0.025606 0.040475 0.014041 0.02313 0.028911 0.04626 0.041298 0.068555 0.014043 0.025603-0.00743 0.052039-0.029737 0.078467-0.013217 0.016505-0.025606 0.03304-0.031389 0.049564l-0.042111 0.13381c-0.01652 0.05121-0.033039 0.1016-0.048734 0.15281-0.011564 0.03469-0.047909 0.05452-0.085078 0.07435-0.040475 0.02146-0.080122 0.04295-0.085904 0.08343-0.01652 0.12638-0.014043 0.25276-0.01239 0.37831l8.261e-4 0.04213c0 0.03717 0.00331 0.07434 0.00662 0.11151 0.00413 0.05369 0.00907 0.1082 0.00496 0.1619-0.012389 0.19989-0.13381 0.38987-0.28001 0.53029-0.028912 0.02725-0.05782 0.05369-0.087556 0.08013-0.021477 0.01984-0.042951 0.03964-0.064427 0.05947-0.014043 0.0132-0.028084 0.02561-0.042127 0.03882-0.033866 0.02972-0.067731 0.06029-0.097469 0.09499-0.00907 0.01073-0.014042 0.02395-0.019823 0.03717-0.00249 0.0084-0.00579 0.01651-0.00991 0.02396-0.036343 0.04213-0.063601 0.10077-0.079295 0.15859-0.00579 0.01898-0.00908 0.03882-0.012391 0.05783-0.00497 0.0256-0.00991 0.05121-0.018172 0.07598-0.013217 0.03883-0.028084 0.07681-0.042951 0.11564-0.00331 0.0092-0.00744 0.01818-0.012391 0.02642-0.00744 0.01487-0.014867 0.02972-0.017347 0.04627-0.00331 0.02065-0.00414 0.04047-0.00496 0.06112-8.261e-4 0.0084-8.261e-4 0.01651-0.00165 0.02478l-0.00165 0.02231c-0.00165 0.02891-0.00331 0.05783-0.00414 0.08673-8.262e-4 0.02395 0.00165 0.04709 0.00414 0.07021 8.26e-4 5e-3 0.00165 0.0099 0.00165 0.01487 0.00414 0.03551 0.00908 0.06938 0.018173 0.10407 0.00826 0.02807 0.021476 0.05369 0.036344 0.0793 0.022302 0.03635 0.044604 0.07185 0.073513 0.10325 0.023128 0.0248 0.047081 0.04873 0.071863 0.07186 0.018997 0.01818 0.037169 0.03717 0.055343 0.05616 0.00991 0.01073 0.02065 0.02147 0.031388 0.03222 0.022303 0.0248 0.044606 0.04955 0.06608 0.07681 0.017347 0.02313 0.024781 0.05121 0.030561 0.0793 0.012389 0.06276 0.018172 0.12555 0.018172 0.18915v0.01736c0 0.04872 0 0.09829-0.018172 0.14703-0.010737 0.02725-0.022302 0.0537-0.033866 0.07929-0.00743 0.01569-0.014867 0.03138-0.021477 0.04791-0.022302 0.05535-0.044606 0.10986-0.066905 0.16438-0.00331 0.0092-0.00743 0.01816-0.011564 0.02724-0.00991 0.02313-0.02065 0.04543-0.024779 0.07021-0.00331 0.01736-0.00413 0.03551-0.00496 0.05287 0 0.0066-8.262e-4 0.0132-8.262e-4 0.02065v4.073h10.094v-6.228c-5e-3 -0.0058-0.01072-0.01073-0.01569-0.01651l-0.0033-0.0024c-0.0041-5e-3 -0.0084-0.0092-0.01321-0.01403-0.0099-0.01072-0.02066-0.02147-0.03057-0.03303-0.01984-0.02231-0.03965-0.04462-0.05865-0.06856-0.0091-0.0099-0.01736-0.02066-0.02477-0.03139-0.0084-0.01072-0.01653-0.02147-0.02479-0.03222l-0.01072-0.0157-0.01239-0.01651c-0.0084-0.01072-0.01653-0.02065-0.02478-0.03139-0.0024-0.0033-0.0041-0.0058-0.0066-0.0084-0.0066-0.0074-0.01405-0.01487-0.02148-0.02231-0.0041-5e-3 -0.0091-0.0092-0.01487-0.01403l-0.0058-0.0058-0.03222-0.02808-0.02313-0.01983c-0.01073-0.0099-0.02148-0.01984-0.03222-0.03139-0.0033-0.0033-0.0066-0.0066-0.0099-0.01073-0.0018-0.0018-0.0024-0.0033-0.0041-0.0041-8.26e-4 -0.0018-0.0024-0.0033-0.0033-5e-3 -0.0024-0.0033-0.0041-0.0066-0.0066-0.0099-4e-3 -0.0066-0.0074-0.01403-0.0099-0.02146-5e-3 -0.01403-0.0099-0.02807-0.01487-0.04213l-8.26e-4 -0.0033c-0.0018-0.0066-0.0041-0.0132-0.0066-0.01984-0.0024-0.0092-0.0058-0.01818-0.0084-0.02725-0.0033-0.0074-0.0066-0.01487-0.01072-0.02231-0.0024-0.0033-0.0041-0.0074-0.0066-0.01072-0.0024-0.0033-5e-3 -0.0074-0.0074-0.01072l-0.0099-0.0132c-0.0033-0.0041-0.0066-0.0084-0.0099-0.01238l-8.23e-4 -0.0018c-0.0074-0.0092-0.01486-0.01651-0.02312-0.0256-0.0018-7.59e-4 -0.0033-0.0024-5e-3 -4e-3 -0.0058-0.0066-0.01239-0.01239-0.02065-0.0132l-0.02807-0.0024-0.10325 0.02395-0.03138 0.0074c-0.03221 0.0074-0.06442 0.01487-0.09664 0.02313-0.04129 0.01072-0.06113 0.05947-0.07352 0.10407-0.0018 0.0084-0.0041 0.01651-0.0058 0.02396l-0.01239 0.05535c-0.0033 0.01898-0.0074 0.03882-0.01156 0.05783l-0.0066 0.03304c-0.0033 0.01818-0.0091 0.03635-0.01405 0.05452-0.0066 0.02065-0.01239 0.04047-0.01569 0.06113-0.0018 0.0084 0.0033 0.01736 0.0091 0.02394 0.0058 5e-3 0.01156 0.0092 0.01736 0.01403 0.0033 0.0024 0.0066 0.0058 0.0091 0.0084 0.0074 0.0066 0.01487 0.0132 0.0223 0.01899 0.0018 0.0018 0.0033 0.0041 0.0033 0.0066 0 0 0 7.57e-4 -8.25e-4 0.0018-8.27e-4 0.0024-0.0033 5e-3 -0.0058 0.0058-0.01653 0.0041-0.03304 0.0041-0.04955 0.0033-0.01405 0-0.02808 0-0.04212 0.0024l-0.01653 0.0033c-0.01653 0.0024-0.03222 5e-3 -0.04872 0.0084-0.0099 0.0024-0.01982 5e-3 -0.02973 0.0066-0.01239 0.0024-0.02394 5e-3 -0.03551 0.0074-0.01983 0.0041-0.03883 0.0084-0.05864 0.01154l-0.0066 0.0018c-0.0223 0.0041-0.04378 0.0074-0.06608 0.0099-0.01487 0.0018-0.03057 0.0018-0.04543-7.57e-4l-0.02478-5e-3 -0.02065-0.0033c-0.01569-0.0033-0.03057-0.0058-0.04626-0.0084-0.01486-0.0033-0.03056-0.0024-0.04543-7.58e-4 -0.01735 0.0024-0.03551 0.0058-0.05205 0.01154-0.01735 0.0066-0.03386 0.0124-0.05121 0.01818l-0.02313 0.0084c-0.0091 0.0033-0.01819 0.0066-0.02808 0.0099-0.01653 0.0066-0.03469 0.0099-0.05205 0.0132-0.03469 5e-3 -0.06938 0.0084-0.10408 0.01154-0.03387 0.0033-0.06855 0.0058-0.10325 0.0066-0.02065 0-0.04047 0-0.06112-0.0018l-0.0603-0.0074-0.06111-0.0074c-0.01983-0.0024-0.04047-0.0033-0.06113-0.0018-0.032206 0.0018-0.063593 0.01239-0.092511 0.02892-0.014859 0.0084-0.028909 0.01736-0.042953 0.02642-0.014039 0.0099-0.027253 0.01984-0.041301 0.02972-0.00243 0.0018-0.00418 0.0033-0.00651 0.0066-0.00583 0.0084-0.00912 0.01736-0.00912 0.02725v0.0256c0 0.0066 8.262e-4 0.01403 8.262e-4 0.02065 0 0.01403 0 0.02807-8.262e-4 0.04294 0 5e-3 -0.00243 0.0099-0.00651 0.01488-0.00418 0.0041-0.00825 0.0066-0.01404 0.0084-0.00738 0.0018-0.014039 0.0024-0.021486 0.0018h-0.00243c-0.00651 0-0.013214 0-0.019825-0.0018-0.011563-0.0033-0.022301-0.0066-0.033865-0.0099l-0.00991-0.0024c-0.00659-0.0018-0.012394-0.0041-0.018166-0.0058-0.00907-0.0033-0.01735-0.0058-0.026426-0.0084-0.014867-0.0041-0.029734-0.0058-0.04461-0.0041-0.02312 0.0024-0.047083 5e-3 -0.071038 0.0074l-0.030559 0.0041c-0.014043 0.0018-0.027252 0.0033-0.041294 5e-3 -0.02312 0.0033-0.047082 0.0058-0.071037 0.0084-0.023952 0.0024-0.047909 0.0041-0.071863 0.0058-0.028909 0.0018-0.056997 0.0024-0.085904 0.0033-0.028082 0-0.056171 7.57e-4 -0.084252 0.0024-0.022299 0.0018-0.045431 0.0024-0.06773 5e-3 -0.00743 7.58e-4 -0.014869 0.0018-0.023125 0.0024l-0.00991 7.56e-4c-0.011567 7.57e-4 -0.022298 0.0024-0.033038 0.0041-0.011566 0.0018-0.02148 0.01154-0.024776 0.02231-0.00413 0.0132-0.00579 0.02642-0.00826 0.03963v0.0041c-0.00165 0.0066-0.00249 0.0132-0.00331 0.02066-8.262e-4 0.0074-0.00165 0.01569-0.00331 0.02313-8.262e-4 0.0058-0.00249 0.01073-0.00579 0.01569-0.00249 0.0041-0.00579 0.0066-0.00991 0.0084-0.010739 0.0033-0.02148 0.0033-0.032213 0.0024-0.014042-0.0018-0.027256-0.0033-0.040473-0.0074-0.014045-0.0041-0.02643-0.0092-0.038821-0.01651-0.011567-0.0074-0.021481-0.01569-0.028082-0.02725-0.00991-0.01487-0.01817-0.03057-0.024784-0.04706l-0.021727-0.04771-0.021481-0.04791c-0.00662-0.01569-0.014869-0.03139-0.023952-0.04543-0.00743-0.0124-0.015697-0.02479-0.023952-0.03635-0.00413-0.0058-0.00826-0.01154-0.012392-0.01817-0.00413-0.0058-0.00908-0.01154-0.013219-0.01736-0.00743-0.01155-0.01569-0.02231-0.023125-0.03386l-0.00165-0.0024c-0.00826-0.0124-0.01569-0.02479-0.023125-0.03799-0.012393-0.02561-0.019827-0.05205-0.023952-0.0793-0.00165-0.0099-0.00249-0.02065-0.00249-0.03056 8.261e-4 -0.0099 8.261e-4 -0.01983 0.00165-0.03057 0-5e-3 0-0.0091 8.261e-4 -0.01403 0-0.0058 8.26e-4 -0.01073 8.26e-4 -0.01651 0-0.0092 0-0.01816-8.26e-4 -0.02724v-0.0033c-0.00249-0.03222-0.00826-0.06442-0.016522-0.09664-0.00908-0.03303-0.024784-0.06277-0.044606-0.09168-0.00743-0.01072-0.016523-0.01984-0.026429-0.02891-0.00908-0.0084-0.018169-0.0157-0.028909-0.0223-0.021481-0.01154-0.042953-0.02147-0.066079-0.02808-0.010739-0.0024-0.021481-0.0058-0.032213-0.0074-0.010739-0.0018-0.021481-0.0033-0.032213-5e-3l-0.014869-0.0024c-0.00579-7.58e-4 -0.011567-0.0018-0.01735-0.0024-0.00991-0.0018-0.01982-0.0041-0.028909-0.0066h-0.00249c-0.028081-0.0066-0.055345-0.01488-0.083426-0.02312-0.028082-0.0084-0.054519-0.01898-0.080947-0.03222-0.012392-0.0058-0.023125-0.0132-0.034692-0.02065-0.010739-0.0074-0.020654-0.01651-0.029734-0.02642-0.017351-0.02065-0.03056-0.04294-0.039649-0.06855-0.00331-0.0099-0.00496-0.01983-0.00662-0.03057l-8.262e-4 -5e-3c-0.00165-0.0084-0.00249-0.01651-0.00331-0.0248-8.261e-4 -0.02065-0.00165-0.04129-8.261e-4 -0.06111 0-0.01569 8.261e-4 -0.03057 0.00249-0.04543 0-0.0084 8.264e-4 -0.01651 0.00165-0.02479 8.263e-4 -0.0066 0.00165-0.01403 0.00249-0.02147 0.00165-0.01487 0.00249-0.03057 0.00413-0.04543 8.263e-4 -0.01403 8.263e-4 -0.02807 8.263e-4 -0.04213v-0.0033c8.261e-4 -0.02972-0.00331-0.05865-0.00909-0.08754-0.00579-0.02972-0.017351-0.05699-0.033038-0.08342-0.00908-0.0132-0.01817-0.02642-0.028909-0.038-0.00991-0.01155-0.020654-0.02313-0.031387-0.03469-0.00496-5e-3 -0.00991-0.0099-0.014868-0.01487-0.00579-0.0058-0.011567-0.01154-0.017351-0.01736-0.00991-0.01154-0.019819-0.02231-0.029734-0.03469-0.010739-0.01403-0.020654-0.02891-0.030559-0.04378l-0.059468-0.08924c-0.00991-0.01487-0.020654-0.02972-0.031386-0.04378-0.010739-0.01403-0.024784-0.02561-0.040474-0.03469-0.00826-0.0059-0.018175-0.01072-0.027256-0.01569-0.00662-0.0041-0.014044-0.0083-0.021481-0.0124-0.013218-0.0083-0.026429-0.01569-0.039649-0.02559-0.00165-7.57e-4 -0.00413-0.0025-0.00579-0.0041-0.014045-0.01085-0.023955-0.0257-0.029736-0.04141-0.028082-0.08343-0.053693-0.16603-0.079294-0.24945l-0.012313-0.04138c-0.014043-0.04708-0.028911-0.094167-0.042126-0.14125-0.00662-0.022311-0.00991-0.045438-0.01239-0.068564-0.00166-0.012389-0.00249-0.025602-0.00249-0.038821-8.194e-4 -0.00991-0.00166-0.020658-0.00249-0.030559-0.00166-0.02313-0.00496-0.04626-0.00826-0.06938-0.00331-0.023952-0.012391-0.045431-0.023128-0.066903-0.00249-0.00496-0.00579-0.00909-0.00991-0.0124-0.00413-0.00331-0.00826-0.00662-0.013217-0.00825-0.010736-0.00331-0.021477-0.00579-0.032213-0.00743-0.00579-7.57e-4 -0.011566-0.00174-0.017347-0.00174-0.00579-7.575e-4 -0.01239-0.00174-0.018172-0.00249-0.010736-0.00174-0.021477-0.00496-0.031389-0.010732-0.015693-0.00908-0.030561-0.019833-0.044606-0.032213-0.014043-0.0124-0.028084-0.02479-0.042952-0.036343l-0.021519-0.019008-0.021477-0.018175c-0.013039-0.011534-0.027907-0.021447-0.041949-0.031368l-0.00331-0.00249c-0.020651-0.014877-0.042952-0.025604-0.066906-0.035516-0.010736-0.00496-0.023128-0.00743-0.033866-0.00662-0.00991 7.572e-4 -0.018997 0.00413-0.027259 0.011553-0.00331 0.00331-0.00579 0.00662-0.00826 0.00991l-8.195e-4 7.577e-4 -0.00166 0.00249c-0.00166 0.00331-0.00413 0.00662-0.00579 0.00991-0.00413 0.00906-0.00826 0.018169-0.01239 0.027256-0.00166 0.00413-0.00413 0.00825-0.00579 0.013212-0.00166 0.00413-0.00413 0.00909-0.00579 0.014031-0.00413 0.00906-0.00907 0.017357-0.014042 0.025604-0.028912 0.047909-0.059471 0.094165-0.097468 0.13381-0.00907 0.00908-0.018171 0.017357-0.02726 0.025604-0.00413 0.00331-0.00826 0.00662-0.01239 0.010732-0.00496 0.00413-0.00991 0.00825-0.015693 0.013213-0.00413 0.00418-0.00907 0.00741-0.014042 0.011551-0.014042 0.012394-0.027259 0.023954-0.040473 0.036338l-0.11565 0.11564-0.072689 0.073516c-0.00413 0.00418-0.00907 0.00661-0.014043 0.00825-0.00579 0.00253-0.011566 0.00253-0.016522 0.00175-0.012391-0.0033-0.023954-0.00738-0.035516-0.015689-0.024781-0.018176-0.044605-0.037177-0.06195-0.061129-0.01239-0.016505-0.023953-0.03304-0.034692-0.051215l-0.00579-0.00912c-0.00743-0.014034-0.015694-0.028085-0.02313-0.042128-0.018172-0.033865-0.035516-0.06938-0.052038-0.1049-0.00662-0.014031-0.013216-0.02809-0.018173-0.042126-0.00413-0.010732-0.00743-0.021466-0.00826-0.033038-0.00166-0.011553-0.00249-0.023132-0.00331-0.033865 0-0.00662 0-0.012392-8.193e-4 -0.018987 0-0.00496-8.192e-4 -0.00991-8.192e-4 -0.01569-8.19e-4 -0.010733-0.00249-0.021466-0.00579-0.033038-0.00331-0.0124-0.00991-0.023132-0.019822-0.032213-0.00907-0.00825-0.018996-0.016509-0.02891-0.02561l-0.00249-0.00174c-0.00496-0.00413-0.00991-0.00825-0.014043-0.0124-0.00662-0.00413-0.012391-0.00906-0.018173-0.014031-0.00907-0.00825-0.014867-0.01817-0.019822-0.029734-0.00331-0.00825-0.00413-0.01651-0.00413-0.02561 0-0.00991 0-0.018986 0.00166-0.028916 0.00166-0.00991 0.00413-0.018986 0.00907-0.028082 0.00496-0.00825 0.00991-0.01569 0.018172-0.020654 0.023128-0.014877 0.046257-0.028089 0.069383-0.040473l0.00331-0.00249c0.018172-0.00906 0.035517-0.01817 0.05369-0.027257 0.020651-0.010733 0.041299-0.021466 0.06195-0.033038 0.017347-0.00991 0.036343-0.022312 0.04956-0.037996 0.00907-0.00991 0.015693-0.022313 0.017347-0.035516 8.191e-4 -0.00249 0-0.00496 0-0.00743v-0.00348c0-0.00249-8.195e-4 -0.00496-8.195e-4 -0.00743-8.192e-4 -0.00662-0.00166-0.013213-0.00331-0.018987-0.00331-0.013211-0.00662-0.026429-0.011565-0.038821-0.00413-0.00908-0.00826-0.018175-0.011566-0.027258l-0.00826-0.018175-0.013216-0.030559c-0.00249-0.00743-0.00579-0.014031-0.00907-0.020654-0.00579-0.011552-0.010736-0.022313-0.014867-0.033865-0.00249-0.00579-0.00331-0.0124-0.00413-0.018987-8.192e-4 -0.00331-8.192e-4 -0.00743-0.00249-0.011552-0.00166-0.00825-0.00331-0.01651-0.00579-0.024792-0.00166-0.00743-0.00413-0.01569-0.00579-0.023952l-0.012351-0.066985c-0.00331-0.016509-0.00413-0.033865-0.00166-0.05039 0.00249-0.016509 0.00496-0.033038 0.00826-0.050389 8.195e-4 -0.00743 0.00249-0.015696 0.00413-0.023132 0.00166-0.00908 0.00331-0.018169 0.00496-0.027256 0.00249-0.01651 0.00331-0.033038 0.00249-0.049561-0.00166-0.021466-0.00413-0.042126-0.00907-0.062772-0.00249-0.010733-0.00496-0.021473-0.00662-0.031387-0.00249-0.010733-0.00496-0.020654-0.00743-0.030559-0.00413-0.020654-0.00907-0.041299-0.013217-0.062779-0.00413-0.020654-0.00579-0.041299-0.00662-0.062772v-0.10325c8.192e-4 -0.021473 8.192e-4 -0.042953 0-0.064424 0-0.055345-8.194e-4 -0.11151 0.00662-0.16685 0.00331-0.026429 0.00662-0.05204 0.010736-0.078472 0.00249-0.01651 0.00496-0.033038 0.00743-0.049561l0.00662-0.048736c0.00662-0.042953 0.012391-0.085078 0.017347-0.12803 0.00413-0.026429 0.00579-0.052866 0.00826-0.079297l0.00166-0.014877c8.193e-4 -0.00906 0.00166-0.018986 0.00249-0.02809l8.192e-4 -0.018989c0.00166-0.015693 0.00331-0.031389 0.00579-0.047079 8.192e-4 -0.00825 0.00331-0.015693 0.00743-0.02313 0.00413-0.00743 0.00907-0.014032 0.014042-0.020651 0.00166-0.0033 0.00413-0.00662 0.00662-0.00906 0.00249-0.00414 0.00579-0.00743 0.00826-0.011553 0.00496-0.00662 0.00826-0.013213 0.011566-0.020651 0.00826-0.016512 0.014043-0.033867 0.019822-0.051213 0.00579-0.018172 0.00991-0.03717 0.013217-0.055342 0.00331-0.018173 0.00331-0.037167-0.00249-0.054515-0.00579-0.018172-0.015693-0.033041-0.03056-0.046258-0.00249-0.00249-0.00496-0.00412-0.00826-0.00578-0.00331-0.00175-0.00579-0.0033-0.00907-0.00496-0.00579-0.00249-0.011565-0.00414-0.018173-0.00496-0.012391-0.00175-0.024777-0.00249-0.037168-0.00249-0.040475-7.436e-4 -0.080947-0.00175-0.12142 0.00578-0.00662 0.00175-0.013217 0.00414-0.018172 0.00825-0.00579 0.00412-0.010736 0.00825-0.01652 0.012395-0.00249 0.00175-0.00496 0.00414-0.00743 0.00578-0.00249 0.00249-0.00579 0.00496-0.00826 0.00662-0.00496 0.00414-0.010736 0.00743-0.016522 0.00992-0.023128 0.010735-0.047081 0.016512-0.071037 0.019832-0.023128 0.00249-0.047081 7.436e-4 -0.069383-0.014032-0.019822-0.012396-0.032213-0.027262-0.044605-0.043779-0.00579-0.00906-0.012391-0.017355-0.017347-0.026432-0.00579-0.00906-0.011566-0.017355-0.017347-0.02726-0.00496-0.00906-0.00907-0.018989-0.011562-0.028911-0.00166-0.00578-0.00331-0.011554-0.00413-0.017355-8.192e-4 -0.00496-0.00166-0.00909-0.00331-0.014057-0.00249-0.00992-0.00496-0.019832-0.00991-0.029734-0.00413-0.00992-0.010736-0.018172-0.019822-0.025606-0.00331-0.00249-0.00743-0.00496-0.011566-0.00743-0.00413-0.00249-0.00826-0.00496-0.012391-0.00662-0.00907-0.0033-0.017347-0.00578-0.026431-0.00743-0.017347-0.00414-0.034691-0.00662-0.052863-0.00825-0.00662-7.436e-4 -0.013216-0.00175-0.019825-0.00175-0.00662 0-0.013216 0-0.019822 7.435e-4 -0.00743 7.435e-4 -0.014867 0.00175-0.022303 0.0033-0.00662 7.435e-4 -0.012391 0.00175-0.018173 0.00249-0.013216 0.00175-0.027259 0.00175-0.040473 7.435e-4 -0.013217 0-0.025607-0.00496-0.037996-0.012396-0.00579-0.0033-0.010736-0.00743-0.015693-0.011578-0.00579-0.00414-0.00991-0.00825-0.014867-0.013213-0.00826-0.00906-0.016521-0.018989-0.023128-0.029734-0.013217-0.022312-0.025607-0.044605-0.037168-0.066906l-0.00496-0.00992c-0.00579-0.010733-0.012391-0.022312-0.017347-0.033867-0.00413-0.00825-0.00743-0.016512-0.010736-0.02479l-0.0091-0.019851c-0.00743-0.014874-0.014043-0.029733-0.020651-0.044606-0.00662-0.014874-0.014867-0.029734-0.022301-0.043776-0.01735-0.028903-0.03552-0.05616-0.05617-0.082593-0.010736-0.013214-0.021477-0.026432-0.032213-0.038823-0.010736-0.012395-0.021477-0.02479-0.033866-0.037167-0.00991-0.00909-0.020651-0.018173-0.03304-0.02395-0.013215-0.00662-0.025606-0.012396-0.038821-0.017355-0.00662-0.0033-0.013217-0.00578-0.019825-0.00825-0.00662-0.00249-0.013217-0.00578-0.019822-0.00825-0.012392-0.00496-0.023954-0.012396-0.034692-0.020651-0.00991-0.00825-0.018172-0.018173-0.023954-0.029737-0.00579-0.012396-0.011566-0.02479-0.017347-0.036343-0.00249-0.00662-0.00496-0.012396-0.00743-0.018172-0.00331-0.00662-0.00579-0.013215-0.00907-0.018989-0.00496-0.011553-0.012391-0.021469-0.021477-0.031387-0.00413-0.00414-0.00907-0.00662-0.014867-0.00906-0.00579-0.00249-0.012391-0.00414-0.018998-0.00414-0.00826-7.436e-4 -0.016521-0.00175-0.024781-0.00175-0.00662 0-0.013218 0-0.019825-7.437e-4 -0.013216-7.433e-4 -0.027259-0.00175-0.041299-0.00414-0.011566-0.00249-0.020651-0.011553-0.025606-0.022312-0.00413-0.00825-0.00662-0.016511-0.00907-0.025604l-0.00166-0.00578c-0.00166-0.00662-0.00331-0.013213-0.00496-0.019832-0.00331-0.017355-0.00579-0.034693-0.00826-0.052038-0.00166-0.00825-0.00249-0.016512-0.00413-0.024766-8.194e-4 -0.00909-0.00249-0.018172-0.00413-0.02726-8.193e-4 -0.00906-0.00249-0.017355-0.00413-0.026432-0.00166-0.00496-0.00249-0.00906-0.00413-0.014032-8.193e-4 -0.00414-0.00166-0.00743-0.00249-0.011553l-7.473e-4 -0.00357c-8.192e-4 -0.0033-0.00166-0.00662-0.00249-0.00992 0-0.00249-8.194e-4 -0.00578-8.194e-4 -0.00909l-8.193e-4 -0.00414-0.00413-0.026432c-8.192e-4 -0.00906-0.00413-0.017355-0.00826-0.025605-0.00496-0.00992-0.011566-0.017355-0.018998-0.02479-0.00413-0.0033-0.00743-0.00662-0.010736-0.00908-0.00413-0.00249-0.00743-0.00496-0.010736-0.00743-0.00743-0.00496-0.014867-0.00825-0.022302-0.011553-0.014042-0.00578-0.028911-0.00909-0.043779-0.00992-0.014866-7.436e-4 -0.029738-7.436e-4 -0.044605 0-0.00331 0-0.00743 0-0.010736 7.436e-4h-0.023132c-0.00331 7.435e-4 -0.00743 7.435e-4 -0.010736 7.435e-4 -0.014042 0-0.028911 0.00249-0.042952 0.00578-0.00826 0.00249-0.015693 0.00496-0.023954 0.00743-0.00662 0.00249-0.012391 0.00414-0.018172 0.00578-0.014043 0.00414-0.028911 0.00825-0.042952 0.011554-0.014042 0.00249-0.028084 0.00175-0.042125 0-0.013216-0.00248-0.024781-0.00662-0.037168-0.01073-0.011843-5e-3 -0.023407-0.00996-0.034145-0.017399-0.022302-0.014057-0.042125-0.030562-0.056993-0.051213-0.012391-0.016512-0.023954-0.033865-0.033866-0.052037l-0.00413-0.00743c-0.00826-0.014873-0.016521-0.029736-0.024782-0.044606-0.00496-0.00825-0.00907-0.016512-0.013216-0.023949-0.00496-0.00992-0.00991-0.018989-0.014867-0.028086-0.00991-0.017355-0.020651-0.03469-0.031389-0.05121-0.019822-0.03056-0.040475-0.060297-0.061951-0.090034-0.015693-0.023131-0.032214-0.04543-0.047081-0.067731-0.014043-0.020651-0.025607-0.040473-0.037996-0.06195-0.011566-0.020651-0.018998-0.042954-0.023128-0.066081-8.193e-4 -0.00496-8.193e-4 -0.00909-8.193e-4 -0.014032 0-0.00414 0-0.00908 8.193e-4 -0.013214 0.00166-0.00906 0.00413-0.018172 0.00662-0.027259 8.192e-4 -0.00414 0.00249-0.00906 0.00331-0.013215 0.00166-0.00496 0.00331-0.00992 0.00413-0.014032 0.00249-0.00906 0.00331-0.018989 0.00413-0.028083 0.00496-0.050387 0.00331-0.1016 0-0.15198-0.0031098-0.047436-0.0080562-0.094517-0.023758-0.14077-0.021572-0.06021-0.04883-0.11473-0.079393-0.17007-0.0074382-0.013214-0.014867-0.026433-0.021477-0.039648-0.033033-0.059474-0.065247-0.11977-0.10655-0.17346-0.055342-0.072688-0.11234-0.1429-0.17016-0.21311l-0.15281-0.18337v-2.3368h-1.6067"/>
</svg>
