<svg width="21" height="20" version="1.0" xmlns="http://www.w3.org/2000/svg">
 <path style="stroke-width:2;stroke-miterlimit:4;stroke-dasharray:none;stroke:#000;stroke-opacity:1" d="M 3.686765,16.35231 H 1.836535 V 6.54654 L 1.092845,1.00012 h 16.8806 c 0.44463,0 0.538351,0.6154577 0.38277,1.11034 -0.178366,0.5673582 -0.393809,1.1957 -0.07685,1.1957 h 1.62779 v 1.03656 c 0,0.1424368 -0.03881,0.289679 -0.0577,0.38849 L 19.217,8.03881 c -0.06278,0.3283166 -0.05861,0.3213438 -0.212295,0.72438 l -1.626812,4.266415 c -0.236099,0.619183 -0.354435,1.272592 -0.37604,1.7596 -0.02611,0.588508 0.285033,1.204005 0.28312,1.753311 l -0.006,1.722079 c -0.0011,0.314649 -0.185929,0.735803 -0.462866,0.7358 L 3.686985,18.99988 Z"/>
 <path style="fill:#fff;stroke-width:2;stroke-miterlimit:4;stroke-dasharray:none" d="M 3.686765,16.35231 H 1.836535 V 6.54654 L 1.092845,1.00012 h 16.8806 c 0.44463,0 0.538351,0.6154577 0.38277,1.11034 -0.178366,0.5673582 -0.393809,1.1957 -0.07685,1.1957 h 1.62779 v 1.03656 c 0,0.1424368 -0.03881,0.289679 -0.0577,0.38849 L 19.217,8.03881 c -0.06278,0.3283166 -0.05861,0.3213438 -0.212295,0.72438 l -1.626812,4.266415 c -0.236099,0.619183 -0.354435,1.272592 -0.37604,1.7596 -0.02611,0.588508 0.285033,1.204005 0.28312,1.753311 l -0.006,1.722079 c -0.0011,0.314649 -0.185929,0.735803 -0.462866,0.7358 L 3.686985,18.99988 Z"/>
</svg>
