<svg width="20" height="20" version="1.1" xmlns="http://www.w3.org/2000/svg">
 <path d="m1.6537 10.063h-0.87676s-0.15649-0.14321-0.1253-0.3724c0-0.20046 1.2213-2.0332 1.3153-2.6633v-1.0883c0-0.40092 0.84547-1.1169 0.93934-1.7183 0.15659-0.42955 0.56988-1.26 1.3465-1.5178 0.34438-0.1145 0.43828-0.40093 0.50087-0.85908 0.188-0.40093 2.0093-0.83661 3.382-1.0597 1.7076-0.27731 3.5384-0.057242 4.4466 0.057247 0.56988 0.068714 4.3212 2.0621 4.7283 5.6707 0.09399 0.83046 1.3464 1.9761 1.7222 2.2338l-0.0314 0.42955 0.28179 0.22909c-0.09389 1.5465-1.5343 3.0643-2.4424 3.2075-0.51974 0.08018-0.82177 0.43769-0.97069 0.91636-0.18618 0.59856 0.05242 1.155 0.62628 1.4892l0.40709-0.14322c0.1879-0.22909 1.2391-0.78637 1.19-0.34368-0.03227 0.29094-0.37589 0.31506-0.56381 0.54415 0.31319 0.37231 0.06282 1.1169 0.06282 1.1169-0.65757 0.28634-0.2819 0.51554-0.2819 0.51554 0.31309 0.68724 1.0961 0.63005 1.6597 1.2314 0.30687 0.33221 0.37493 1.8483 0.37579 1.3174h-17.285v-0.25781c0.031403-0.71595 3.6511-2.6518 3.8203-3.9406 0.13151-1.0311-2.1921-1.346-3.6638-1.4434 0 0-0.54483-0.0744-0.56359-0.37221-0.043837-0.38956 0.14406-0.63005 0.15671-0.83046 0.018756-0.25771-0.031403-0.91646-0.031403-0.91646l0.12519-0.40102-0.15659-0.17184 0.15659-0.4868s-0.031297-0.37221-0.25049-0.37221z" fill="#fff" stroke="#000" stroke-width="1.2965"/>
</svg>
