<svg width="20" height="20" xmlns="http://www.w3.org/2000/svg">
 <path d="M 9.4709168,19.352529 C 7.2841335,18.703693 5.4274439,17.588449 3.9269802,16.022471 2.3374856,14.363472 1.2447016,12.273103 0.74586381,9.9370049 0.59469316,9.2291738 0.58304517,9.0676411 0.58110046,7.6519785 0.57941324,6.423435 0.60019912,6.022466 0.68850506,5.5802552 0.86637492,4.6894292 1.1208783,4.0919987 1.5969671,3.4475302 2.242357,2.5739813 2.931219,2.0564507 4.0093164,1.6351142 7.8560902,0.13175938 12.209298,0.1218289 16.100943,1.6074477 c 0.781317,0.2982693 1.23266,0.5789475 1.749426,1.088098 0.745036,0.7338836 1.208353,1.665688 1.434424,2.8847065 0.173131,0.9336384 0.160631,3.2125138 -0.02289,4.1739476 -0.320361,1.6781512 -0.923818,3.1660022 -1.864793,4.5976142 -1.337594,2.035042 -3.228316,3.587644 -5.557813,4.56377 -0.352488,0.147711 -1.748819,0.591727 -1.839065,0.584785 -0.023185,-0.0017 -0.2614116,-0.0683 -0.5294065,-0.147813 z" fill="#fff" stroke="#000" style="stroke:#000;stroke-width:1;stroke-miterlimit:4;stroke-dasharray:none;stroke-opacity:1"/>
</svg>
