<svg width="20" height="20" version="1.0" xmlns="http://www.w3.org/2000/svg">
 <g stroke-width=".003">
  <path d="M8.016.708C8.842.305 9.795.19 10.703.321a4.6 4.6 0 0 1 3.862 3.928c.13 0 .259-.041.393-.05 1.347-.145 2.732.38 3.695 1.324.691.671 1.123 1.577 1.286 2.517a4.61 4.61 0 0 1-.499 2.943 4.634 4.634 0 0 1-2.047 1.955c.873 1.548.684 3.602-.4 5.003a4.757 4.757 0 0 1-2.342 1.596 4.613 4.613 0 0 1-2.834-.07 4.476 4.476 0 0 1-1.68-1.043c-.045-.035-.08-.096-.137-.109-.282.282-.586.55-.934.752a4.723 4.723 0 0 1-3.92.416 4.825 4.825 0 0 1-1.999-1.398 4.566 4.566 0 0 1-1.014-2.214 4.581 4.581 0 0 1 .31-2.565c.058-.122.125-.243.173-.371C1.2 12.292.22 10.849.032 9.317c-.11-.893.083-1.808.476-2.614A4.62 4.62 0 0 1 2.482 4.71a4.6 4.6 0 0 1 2.726-.486c.08.013.156.022.236.029.17-1.523 1.21-2.876 2.572-3.545m1.568.611a3.58 3.58 0 0 0-2.972 2.428 3.528 3.528 0 0 0-.07 2.019c-.16-.07-.301-.176-.464-.237-1.146-.534-2.572-.377-3.583.377a3.585 3.585 0 0 0-1.18 1.507 3.574 3.574 0 0 0 .236 3.218 3.63 3.63 0 0 0 1.357 1.302c.463.24.975.4 1.497.426-.116.112-.24.211-.346.33a3.57 3.57 0 0 0-.64 3.912 3.573 3.573 0 0 0 5.887.947 3.74 3.74 0 0 0 .697-1.107c.057.08.086.173.128.262.256.522.64.979 1.113 1.321a3.59 3.59 0 0 0 1.923.672 3.582 3.582 0 0 0 2.796-1.145c.88-.934 1.19-2.364.758-3.573-.157-.51-.458-.963-.822-1.347-.087-.1-.192-.173-.279-.272.18-.023.359-.039.535-.08a3.569 3.569 0 0 0 2.546-2.13 3.587 3.587 0 0 0-.41-3.462 3.594 3.594 0 0 0-1.609-1.238 3.747 3.747 0 0 0-1.75-.214 4.014 4.014 0 0 0-1.468.53 3.538 3.538 0 0 0-.275-2.517A3.574 3.574 0 0 0 9.584 1.32z" fill="#006747" stroke="#007a36"/>
  <path d="M9.584 1.32a3.574 3.574 0 0 1 3.605 1.928c.4.768.496 1.683.275 2.518.448-.269.95-.455 1.469-.531.588-.064 1.196 0 1.75.214.64.246 1.205.681 1.609 1.238a3.59 3.59 0 0 1 .409 3.461 3.569 3.569 0 0 1-2.546 2.13c-.176.042-.356.058-.535.08.087.1.192.174.279.273.364.384.665.838.822 1.347.432 1.209.121 2.639-.758 3.573a3.582 3.582 0 0 1-2.796 1.145 3.587 3.587 0 0 1-1.923-.672 3.584 3.584 0 0 1-1.113-1.32c-.042-.09-.07-.183-.128-.263-.16.41-.406.78-.697 1.107A3.573 3.573 0 0 1 3.42 16.6a3.57 3.57 0 0 1 .64-3.912c.105-.119.23-.218.345-.33a3.68 3.68 0 0 1-1.497-.426 3.63 3.63 0 0 1-1.357-1.302 3.574 3.574 0 0 1-.237-3.218 3.592 3.592 0 0 1 1.18-1.507c1.012-.754 2.438-.911 3.584-.377.163.06.304.166.464.237a3.528 3.528 0 0 1 .07-2.019A3.58 3.58 0 0 1 9.584 1.32" fill="#fff" stroke="#fff"/>
 </g>
</svg>
