<svg width="25" height="20" version="1.1" viewBox="0 0 25 20" xmlns="http://www.w3.org/2000/svg">
 <path d="m12.5 0.73024c-1.1685 0.71105-2.5459 1.1214-4.0206 1.1214s-2.8522-0.41044-4.0206-1.1215l-3.699 3.6401c0.6807 0.95215 1.0804 2.1129 1.0804 3.3656 0 0.904-0.20815 1.7602-0.57985 2.5246-0.32085 0.66055-0.5005 1.4003-0.5005 2.1813 0 2.7971 2.3041 5.0645 5.1465 5.0645h3.2202c1.362 0 2.5775 0.61705 3.3736 1.5826 0.7961-0.96555 2.0116-1.5826 3.3736-1.5826h3.2202c2.8423 0 5.1465-2.2674 5.1465-5.0645 0-0.781-0.17964-1.5208-0.5005-2.1813-0.37172-0.7644-0.57985-1.6206-0.57985-2.5246 0-1.2527 0.39965-2.4135 1.0804-3.3656l-3.699-3.6401c-1.1685 0.71105-2.5459 1.1215-4.0206 1.1215-1.4748 0-2.8522-0.41038-4.0206-1.1214z" fill="#fff" fill-rule="evenodd" stroke="#000" stroke-width="1.1595"/>
</svg>
