<svg width="17" height="20" xmlns="http://www.w3.org/2000/svg">
 <path d="M 8.5,0 C 6.64262,0.5828 4.98773,1.49 3.64261,2.6349 1.38457,4.5568 0,7.1484 0,9.9999 0,12.8515 1.38457,15.4431 3.64261,17.365 4.98773,18.5099 6.64262,19.4171 8.5,20 c 1.85723,-0.5828 3.51232,-1.4899 4.85739,-2.6346 v -4e-4 C 15.61543,15.4431 17,12.8514 17,9.9999 17,7.1484 15.61543,4.5567 13.35739,2.6348 v -4e-4 C 12.01232,1.4898 10.35723,0.5827 8.5,0 Z" style="fill:#fff;fill-opacity:1;fill-rule:nonzero;stroke:none;stroke-width:.0435367"/>
 <path d="m 8.500005,1.0575 c 1.63491,0.5572 3.08607,1.3781 4.26598,2.3949 1.77833,1.5326 2.94054,3.5096 3.18571,5.6967 0.31556,2.815 -0.93411,5.4551 -3.18571,7.3971 -1.17547,1.0139 -2.62416,1.8375 -4.26598,2.3963 -1.64182,-0.5588 -3.09051,-1.3824 -4.26599,-2.3963 -2.2516,-1.942 -3.50127,-4.5821 -3.18571,-7.3971 0.24517,-2.1871 1.40739,-4.1641 3.18571,-5.6967 1.17989,-1.0168 2.63107,-1.8377 4.26599,-2.3949 z" style="fill:#003f87;fill-opacity:1;fill-rule:nonzero;stroke:none;stroke-width:.0441717"/>
</svg>
