<svg height="20" width="26" xmlns="http://www.w3.org/2000/svg">
 <path style="fill:#000" d="M 4.5,0 C 3.9477381,5.5217905e-5 3.5000552,0.44773812 3.5,1 v 0.6894531 c 0.036268,0.070803 0.080854,0.1370266 0.132813,0.1972656 l -0.466797,-0.1875 C 2.6308551,1.4856636 2.0264032,1.7673238 1.845703,2.3144531 L 0.408203,6.6875 C 0.3747909,6.7883097 0.35764916,6.8937978 0.357422,7 c 4.3e-5,6.112868 5.505377,11.092155 12.378906,12.964844 0.08631,0.02359 0.17499,0.03538 0.263672,0.03538 0.08868,0 0.177364,-0.01179 0.263672,-0.03538 C 20.137201,18.092155 25.642535,13.112868 25.642578,7 25.642351,6.8937979 25.62521,6.7883097 25.591798,6.6875 l -1.4375,-4.3730469 C 23.973598,1.7673233 23.369145,1.4856629 22.833984,1.6992187 l -0.466797,0.1875 C 22.419146,1.8264797 22.463732,1.7602565 22.5,1.6894531 V 1 C 22.499945,0.44773812 22.052262,5.5217905e-5 21.5,0 Z"/>
 <path style="fill:#fff" d="M 4.5 1 L 4.5 1.6894531 L 7.2792969 2.8027344 C 7.6648563 2.956504 7.8521902 3.3942001 7.6972656 3.7792969 C 7.543496 4.1648563 7.1057999 4.3521902 6.7207031 4.1972656 L 2.7949219 2.6269531 L 1.3574219 7 C 1.3574609 12.49778 6.4299713 17.21 13 19 C 19.570029 17.21 24.642539 12.49778 24.642578 7 L 23.205078 2.6269531 L 19.279297 4.1972656 C 18.8942 4.3521906 18.456504 4.1648566 18.302734 3.7792969 C 18.147809 3.3942 18.335143 2.9565039 18.720703 2.8027344 L 21.5 1.6894531 L 21.5 1 L 4.5 1 z"/>
</svg>
