<svg width="20" height="20" version="1.0" xmlns="http://www.w3.org/2000/svg">
 <path d="m0.97502 1.1635h5.2175c0.40557 0.25214 0.8818 0.4494 1.4021 0.60205 0.52035 0.15264 1.1251-0.19848 1.7072-0.12476 0.29105 0.036863 0.526 0.2498 0.82255 0.25582 0.29658 0.00602 0.6548-0.19488 0.95025-0.18719 0.59095 0.015392 0.76955 0.5857 1.6795 0.50345 0.545-0.049255 0.9402-0.34805 1.4809-0.5467 0.5407-0.19866 1.2287-0.27029 1.7999-0.26367 1.0936 0.012693 2.1872-0.54105 3.2808-0.77545l0.05707 7.6495c-0.57635 0.38248-0.14432 1.0254-0.18286 1.6221-0.02106 0.3261-0.06572 0.66345-0.31767 0.8372-0.25098 0.17314-0.22697 0.5834-0.10876 1.054 0.1565 0.623-0.10243 1.2482-0.22644 1.859-0.12401 0.61075-0.37613 1.1858-0.87415 1.6849-0.48717 0.48829-1.2147 1.3119-2.0746 1.4405-1.11 0.16601-1.4806 0.67-2.0768 1.3125-0.27496 0.2963-0.40308 0.38018-1.0454 0.43664-0.35804 0.03147-0.26546 0.30507-1.0638 0.3519-0.7879 0.04622-1.5189 0.49816-1.9879 0.49738-1.3148-0.00215-2.3936-1.7328-4.1267-1.9725-0.8651-0.11962-1.6657-0.49893-2.4499-0.91245-0.39379-0.20778-0.7715-0.6193-1.2066-0.69395-0.524-0.08953-0.63755-0.51115-1.0036-0.68885v-13.573c-0.012459-0.24975 0.14628-0.37244 0.34783-0.36808z" fill="#fff" stroke="#000" stroke-linecap="round" stroke-linejoin="round" stroke-width="1.254"/>
</svg>
