<svg width="25" height="20" xmlns="http://www.w3.org/2000/svg">
 <path d="m 11.922337,19.495078 c -0.05011,-0.0069 -0.241425,-0.02748 -0.425151,-0.04568 C 8.5011768,19.15268 5.5878415,17.615482 3.5880706,15.276214 1.8678299,13.263915 0.81546279,10.64065 0.60857596,7.8493381 0.5648734,7.2596558 0.585941,6.3280023 0.65088746,5.9782268 0.87538297,4.7691652 1.385194,3.8127811 2.254919,2.9687995 2.9801779,2.2650423 3.6106255,1.9184595 4.7599516,1.5917929 7.5607252,0.79561028 10.092606,0.46067315 12.985273,0.50364759 c 2.236952,0.0332666 4.207442,0.28768552 6.316533,0.81556171 1.743745,0.4364338 2.373119,0.6917264 3.098237,1.2566984 0.31731,0.2472247 0.830779,0.7855911 1.067665,1.1193626 0.528271,0.7444815 0.852035,1.6628271 0.91938,2.6076568 0.187191,2.6265088 -0.439396,5.1367639 -1.846176,7.3962669 -1.231696,1.978344 -2.810703,3.455792 -4.787678,4.479983 -1.286305,0.666328 -2.583147,1.068281 -4.061546,1.258929 -0.350472,0.04519 -1.570294,0.08444 -1.769278,0.05693 z" fill="#fff" stroke="#000" stroke-width="1.243" style="stroke:#000;stroke-width:1;stroke-miterlimit:4;stroke-dasharray:none;stroke-opacity:1"/>
</svg>
