<svg width="20" height="20" xmlns="http://www.w3.org/2000/svg">
 <path d="M10.737 1.144v-.001l-.03-.005-.03-.007-.029-.006-.03-.007-.029-.01-.027-.008-.03-.011-.027-.011-.027-.012-.027-.014-.026-.013-.026-.014-.025-.016-.025-.015-.025-.018L10.3.959l-.024-.02-.022-.018-.023-.019-.021-.021-.022-.02-.04-.045-.02-.023L10.11.77l-.018-.023-.017-.024-.017-.025-.03-.053-.014-.026-.013-.028-.028.055-.015.027-.016.026-.017.025-.017.024-.018.025-.018.022-.02.024-.02.023-.02.021-.022.021-.021.02-.023.02-.023.02-.048.034-.025.018-.025.015-.025.016-.027.014-.026.014-.027.012-.028.013-.027.011-.028.01-.029.01-.057.015-.03.008-.03.005-.03.005-.088.017-.043.013-.041.013-.041.015-.04.018-.04.019-.037.02-.037.022-.037.023-.034.025-.033.027-.033.028-.031.029-.03.031-.03.031-.025.033-.027.035-.024.035-.022.036-.021.038-.02.038-.018.038-.016.04-.015.042-.013.041-.01.043-.009.042-.007.044-.005.044-.004.045v.045-.001l-.014-.034-.032-.065-.019-.031-.019-.03-.02-.03-.022-.03-.022-.028-.023-.028-.025-.026-.026-.025-.026-.024-.026-.024-.029-.022-.029-.021-.028-.02-.03-.02-.032-.018-.031-.017-.031-.017-.034-.015-.033-.014-.034-.012-.033-.011-.035-.01-.036-.008-.035-.007-.036-.007-.036-.005-.037-.003-.036-.003h-.063l-.025.001-.026.002-.025.002-.026.004-.025.004-.027.003-.025.005-.026.007-.025.006-.025.006-.024.008-.025.008-.022.01-.024.008-.023.01-.019.006-.02.005-.02.004-.02.001-.02-.001-.02-.003-.019-.004-.035-.015-.016-.01-.015-.012-.014-.012-.012-.014-.011-.015-.01-.016-.008-.018-.007-.017-.004-.02-.004-.018-.001-.02v-.02l.005-.02.004-.019.007-.017.008-.018.01-.015.01-.015.013-.014.014-.014.015-.01.016-.01.018-.008.017-.007.02-.005.02-.002.018-.001h.015-.029L7 1.214l-.065-.003-.078.003-.076.005-.077.01-.075.014-.072.016-.073.021-.07.024-.07.028-.067.03-.065.034-.064.036-.061.04-.06.043-.058.045-.055.047-.052.05-.05.053-.048.055-.046.058-.042.06-.04.061-.036.064-.034.065-.031.068-.026.069-.024.07-.022.072-.016.074-.014.074-.01.077-.006.076-.001.079v.036l.002.038.003.036.007.075.007.038.006.037.007.037.008.037.009.037.01.036.01.035.011.036.011.035.025.068-.035-.033-.036-.03-.038-.031-.04-.028-.041-.025-.041-.023-.044-.022-.044-.02-.045-.017-.046-.015-.047-.013-.046-.011-.048-.009-.047-.006-.048-.004-.049-.001-.039.001-.038.003-.04.003-.037.007-.039.007-.037.009-.038.01-.037.011-.073.028-.07.032-.034.018-.034.02-.032.02-.032.021-.03.022-.033.02-.034.02-.034.017-.07.033-.037.013-.036.014-.037.012-.038.01-.038.008-.038.008-.038.005-.039.005-.039.002h-.08l-.042-.003-.042-.005-.042-.007-.083-.017-.04-.012-.04-.012.013.04.01.04.018.083.007.041.005.043.004.04v.082l-.003.04-.004.038-.006.037-.006.04-.01.037-.01.037-.01.038-.013.036-.015.037-.015.035-.017.035-.018.034-.02.033-.02.033-.023.031-.02.032-.022.032-.02.034-.018.034-.017.035-.015.035-.015.036-.013.037-.011.037-.01.038-.009.037-.006.04-.006.037-.004.039-.003.038v.04l.002.047.003.049.005.047.01.048.01.046.013.046.015.047.018.045.02.044.02.042.025.043.026.04.028.04.028.038.032.036.032.034-.044-.017-.045-.013-.046-.013-.048-.011-.047-.008-.05-.006-.047-.004-.047-.001H2.9l-.037.003-.038.003-.036.005-.037.007-.036.007-.036.01-.035.01-.035.011-.034.014-.034.014-.034.015-.032.018-.032.017-.031.019-.031.02-.03.021-.03.023-.054.047-.027.025-.025.027-.025.027-.024.029-.02.029-.023.03-.02.03-.02.032-.017.033-.016.033-.015.033-.015.035-.005.014-.008.014L2 6.126l-.009.01-.01.012-.01.01-.011.01-.011.009-.013.007-.012.007-.014.006-.014.005-.014.004-.015.002-.015.003h-.015l-.02-.002-.019-.002-.018-.005-.018-.006-.017-.01-.017-.01-.015-.01-.014-.013-.012-.014-.011-.015-.01-.016-.01-.017-.005-.018-.005-.02-.003-.018-.001-.02.001-.021.004-.022.006-.02.008-.02.01-.018.012-.018.014-.016.015-.015-.031.027-.03.028-.03.029-.03.028-.027.03-.026.032-.026.032-.027.032-.023.033-.024.034-.023.034-.021.035-.021.037-.02.036-.02.036-.017.036-.016.04-.016.037-.015.039-.014.039-.013.038-.012.04-.02.08-.009.04-.007.042-.007.04-.005.041-.003.042-.003.041-.002.041v.099l.003.058.007.056.006.057.01.055.011.055.014.054.015.053.017.054.02.052.022.052.022.05.025.05.027.05.027.047.03.046.032.047.033.043.036.044.036.042.037.04.04.04.04.037.042.037.044.035.045.032.046.032.048.03.049.028.05.027.05.023.052.023-.045.001-.044.003-.045.005-.042.007-.044.009-.043.011-.041.013-.04.014-.04.016-.04.017-.038.02-.037.022-.037.022-.035.024-.034.026-.033.027-.032.028-.031.03-.029.032-.027.032-.027.033-.025.035-.023.036-.023.037-.02.038-.019.04-.016.04-.016.04-.013.042-.012.042-.01.044-.007.044-.005.03-.006.03-.006.029-.008.03-.009.029-.01.027-.01.03-.01.027-.013.027-.013.027-.014.026-.013.026-.017.025-.015.025-.017.025-.018.024-.019.024-.018.023-.02.022-.02.021-.022.022-.021.02-.023.02-.022.018-.024.02-.024.018-.024.016-.025.017-.026.016-.026.015-.026.014-.028.014.028.013.027.014.026.015.025.016.027.017.024.016.025.019.022.019.024.018.022.02.022.022.021.021.02.021.019.023.02.024.017.022.018.025.016.025.017.025.015.025.015.027.013.026.013.028.012.027.01.028.012.027.009.029.008.029.008.029.006.03.006.03.005.03.008.044.009.043.012.043.013.041.016.042.016.04.019.039.02.037.023.038.023.036.025.034.027.034.027.032.029.031.031.03.032.03.033.026.034.026.035.024.037.022.037.021.038.02.039.018.04.016.041.015.041.013.043.01.042.009.044.007.044.005.045.004h.045l-.034.014-.032.016-.033.016-.062.038-.029.02-.03.023-.028.02-.027.025-.026.025-.026.025-.023.026-.024.026-.023.03-.021.028-.02.029-.02.03-.018.031-.017.031-.016.032-.015.033-.013.033-.013.034-.01.034-.01.035-.01.035-.007.035-.006.036-.005.036-.004.037-.001.036-.002.038v.025l.002.025.002.026.003.025.002.026.004.026.005.026.005.025.005.026.006.025.008.025.007.024.008.025.008.024.01.022.01.023.005.019.005.02.004.02.002.021-.002.019-.002.02-.005.019-.006.017-.01.018-.01.016-.01.015-.013.014-.014.013-.015.01-.016.01-.035.016-.019.004-.019.003-.02.002-.02-.002-.02-.003-.019-.004-.017-.008-.016-.007-.017-.01-.015-.011-.014-.013-.013-.014-.012-.015-.008-.016-.01-.018-.005-.017-.005-.019-.003-.02-.001-.019v-.009l.001-.006-.001.029-.003.031-.002.065.002.078.005.076.01.077.014.075.016.073.022.072.024.07.027.07.03.067.034.065.036.064.04.061.043.06.045.058.048.055.05.053.052.05.055.049.058.045.06.041.061.04.064.036.065.034.068.031.069.027.07.024.073.02.074.017.073.014.077.01.076.006.08.001h.035l.038-.002.036-.002.076-.008.037-.006.038-.006.036-.008.038-.007.036-.01.036-.01.035-.01.037-.01.035-.012.034-.012.033-.013-.032.035-.032.037-.03.038-.026.04-.026.04-.024.042-.021.044-.02.043-.018.046-.015.046-.012.046-.012.047-.008.047-.005.048-.004.049-.001.047v.039l.002.039.005.039.005.037.008.039.008.038.01.037.012.038.013.036.014.036.033.07.017.034.02.034.02.033.022.031.021.031.02.033.02.034.018.033.017.035.015.036.014.036.014.036.011.038.01.037.009.038.007.039.005.037.005.04.003.038v.081l-.004.042-.005.042-.006.042-.009.04-.01.042-.011.042-.013.038.039-.01.04-.012.041-.009.043-.009.043-.006.042-.005.043-.004h.08l.039.003.038.004.038.006.039.006.037.009.038.01.038.011.036.013.036.015.035.015.035.016.034.019.034.02.033.02.03.022.032.022.033.02.034.02.033.018.035.017.035.015.037.015.036.012.038.012.037.01.038.008.039.007.037.006.04.004.038.002.039.001h.049l.047-.005.048-.006.047-.009.047-.011.046-.013.046-.015.045-.017.044-.02.043-.021.042-.024.04-.025.04-.028.038-.03.036-.03.034-.034-.016.044-.014.046-.012.047-.012.047-.007.048-.006.049-.004.047-.001.048v.037l.002.038.004.038.005.036.006.036.008.037.01.036.01.035.01.035.015.034.013.034.017.034.016.032.018.031.018.032.02.031.022.03.022.029.024.027.024.028.025.026.026.025.028.025.028.024.03.023.03.021.03.02.032.019.032.017.033.017.034.016.035.014.014.006.013.006.013.008.011.008.012.01.01.01.01.012.008.011.008.013.006.012.006.014.005.014.004.013.003.015.002.015v.016l-.001.02-.003.018-.005.02-.006.017-.009.017-.01.016-.011.016-.013.013-.013.013-.015.011-.017.01-.016.009-.019.006-.019.005-.018.003h-.042l-.02-.004-.021-.006-.02-.008-.019-.01-.017-.013-.017-.013-.015-.015.028.03.027.031.03.03.028.029.03.027.031.027.033.026.031.026.034.024.034.024.034.022.035.022.036.021.036.02.037.019.037.017.038.017.038.016.038.015.04.014.038.012.04.013.08.02.04.009.042.007.04.006.041.005.041.004.042.002.042.003h.042l.057-.001.056-.003.113-.012.055-.01.055-.012.054-.013.054-.016.054-.017.053-.02.05-.021.05-.023.051-.025.049-.026.047-.028.047-.03.046-.032.044-.033.044-.035.041-.036.041-.038.04-.039.037-.041.036-.043.035-.042.033-.045.032-.047.029-.047.029-.05.026-.05.024-.05.022-.053.002.045.003.045.005.044.007.044.008.042.012.043.012.041.014.041.016.04.018.04.02.037.021.037.023.037.024.035.026.035.026.032.029.032.03.031.031.029.033.027.034.028.033.025.037.023.037.022.038.02.039.019.04.018.041.015.041.013.043.012.044.01.044.007.03.005.03.006.029.007.03.007.028.009.028.009.029.011.027.011.028.012.026.013.026.014.027.014.025.016.025.015.025.018.024.017.024.019.045.038.02.02.022.022.02.022.02.022.02.023.018.023.019.024.016.024.017.025.015.026.015.027.014.026.014.027.014-.027.014-.028.015-.026.016-.025.016-.026.018-.024.017-.025.02-.023.018-.023.02-.023.042-.043.022-.02.022-.02.024-.018.048-.036.025-.017.05-.03.026-.015.026-.014.028-.012.028-.013.027-.011.028-.01.028-.009.03-.009.03-.007.028-.007.03-.006.03-.005.044-.007.044-.01.042-.012.042-.013.041-.015.04-.018.039-.019.039-.02.036-.022.036-.023.035-.025.033-.028.033-.027.03-.029.03-.031.03-.031.026-.033.026-.035.024-.035.023-.036.021-.038.02-.038.018-.038.016-.04.014-.042.012-.041.011-.043.01-.042.007-.044.005-.044.002-.044.001-.045.014.034.016.033.017.032.019.031.018.03.022.03.02.03.023.028.023.028.025.026.025.025.053.048.028.022.03.021.028.02.03.02.031.018.032.017.032.017.033.015.032.012.034.013.034.011.035.01.035.009.035.007.037.007.036.005.036.004h.037l.037.002h.025l.025-.001.027-.003.025-.002.026-.003.026-.003.025-.005.027-.005.025-.005.025-.007.025-.007.023-.008.026-.007.023-.009.023-.01.022-.009.02-.007.02-.005.02-.004.02-.001.02.001.02.004.018.004.035.015.017.01.015.01.013.013.013.014.011.015.01.016.015.035.008.038.001.02-.001.02-.004.02-.004.019-.015.035-.01.016-.011.015-.013.014-.013.013-.015.011-.017.009-.017.009-.018.006-.019.005-.018.004h-.035l.028.001.032.002.065.003.077-.003.078-.005.075-.01.075-.013.073-.017.073-.02.07-.025.069-.027.067-.03.065-.034.064-.036.062-.04.06-.043.057-.045.055-.048.053-.05.05-.052.049-.055.045-.058.043-.06.038-.062.037-.063.034-.066.03-.067.027-.07.025-.07.02-.072.018-.073.012-.075.01-.076.007-.076v-.153l-.004-.037-.003-.037-.005-.038-.006-.037-.006-.038-.008-.036-.007-.038-.009-.036-.01-.036-.01-.037-.011-.035-.012-.035-.012-.034-.013-.033.035.032.037.031.039.03.038.027.042.025.041.024.044.02.044.02.045.018.046.015.047.013.046.011.047.01.048.005.049.004.047.001h.04l.038-.003.039-.004.037-.006.04-.008.037-.009.037-.01.038-.01.036-.013.037-.015.035-.016.035-.017.034-.018.033-.018.033-.02.063-.043.032-.021.034-.019.034-.018.035-.017.035-.015.036-.014.038-.014.036-.011.038-.01.037-.009.039-.007.039-.005.037-.005.04-.003h.08l.042.004.042.005.042.006.041.009.042.009.04.011.04.011-.012-.038-.01-.042-.01-.041-.008-.041-.007-.042-.005-.042-.003-.042v-.081l.002-.039.004-.039.006-.037.006-.04.009-.037.01-.037.011-.038.013-.036.015-.036.015-.036.017-.035.018-.033.02-.034.02-.033.023-.031.02-.031.022-.033.019-.034.019-.034.016-.035.016-.035.014-.036.013-.036.01-.038.01-.037.01-.038.007-.039.005-.037.004-.04.003-.038v-.086l-.004-.05-.006-.047-.01-.047-.01-.047-.013-.046-.015-.046-.018-.046-.02-.043-.021-.043-.024-.041-.025-.042-.027-.038-.03-.038-.03-.036-.034-.035.044.017.046.014.046.012.048.012.047.007.05.006.047.004.047.001h.038l.039-.002.036-.004.038-.005.036-.006.036-.008.037-.01.035-.01.035-.01.034-.015.033-.013.033-.017.033-.016.032-.018.031-.018.03-.02.03-.022.028-.022.029-.024.026-.024.026-.025.027-.026.023-.028.024-.028.023-.03.021-.03.02-.03.019-.032.017-.032.018-.034.015-.034.015-.035.005-.014.008-.012.007-.013.009-.013.01-.01.01-.01.011-.01.011-.008.013-.01.012-.005.014-.007.014-.005.014-.003.015-.003.015-.002h.035l.019.003.019.005.017.007.018.009.016.01.015.01.014.013.012.014.012.015.01.016.008.017.007.019.005.018.002.02.001.02-.001.02-.004.022-.006.02-.007.019-.01.018-.013.018-.014.016-.015.014.031-.026.03-.03.03-.028.03-.029.027-.031.026-.03.027-.033.026-.032.024-.033.023-.034.023-.033.021-.035.021-.036.02-.036.02-.036.017-.038.017-.036.015-.039.015-.037.014-.04.013-.038.012-.04.01-.039.01-.04.01-.041.007-.04.006-.042.005-.04.004-.041.002-.042.003-.042v-.041l-.002-.058-.002-.056-.005-.057-.008-.056-.01-.055-.01-.055-.015-.054-.015-.054-.017-.054-.02-.052-.022-.052-.022-.05-.025-.05-.026-.049-.028-.047-.03-.047-.031-.046-.034-.044-.035-.044-.037-.041-.037-.041-.039-.04-.041-.037-.043-.036-.042-.035-.045-.033-.047-.032-.047-.03-.05-.028-.05-.026-.05-.024-.053-.022.045-.002.045-.004.044-.005.043-.006.043-.009.043-.01.041-.013.041-.014.04-.016.04-.018.037-.02.037-.021.037-.023.035-.024.035-.026.032-.026.032-.029.031-.03.029-.031.029-.033.026-.034.025-.034.024-.036.021-.037.02-.038.019-.039.017-.04.015-.041.014-.042.013-.042.009-.044.008-.044.005-.03.005-.03.008-.029.007-.03.01-.029.008-.027.011-.029.011-.027.012-.028.014-.026.013-.027.014-.026.015-.025.016-.025.018-.025.035-.048.02-.022.019-.023.021-.021.02-.021.023-.02.022-.02.023-.02.024-.018.023-.019.024-.016.025-.018.026-.015.027-.015.026-.013.028-.014-.055-.028-.027-.015-.026-.016-.025-.016-.024-.018-.025-.017-.023-.02-.023-.018-.023-.02-.042-.043-.02-.02-.02-.023-.02-.024-.017-.024-.017-.024-.018-.025-.015-.025-.016-.025-.014-.026-.014-.027-.012-.027-.013-.028-.011-.027-.01-.028-.01-.029-.008-.028-.007-.03-.008-.03-.01-.06-.017-.087-.013-.043-.013-.04-.015-.042-.018-.04-.019-.039-.02-.039-.021-.036-.024-.036-.025-.036-.026-.032-.03-.033-.028-.031-.031-.03-.031-.029-.033-.027-.035-.025-.035-.024-.037-.024-.037-.02-.038-.02-.038-.018-.04-.016-.042-.015-.041-.012-.085-.02-.044-.007-.044-.005-.045-.004h-.045.001l.033-.016.065-.032.031-.02.03-.018.03-.021.029-.022.029-.02.026-.025.026-.025.025-.025.025-.026.024-.026.023-.028.021-.029.02-.028.02-.03.035-.063.016-.031.015-.033.014-.034.013-.034.011-.033.01-.034.009-.035.007-.037.007-.035.005-.036.003-.036.003-.037v-.062l-.001-.025-.002-.027-.002-.025-.004-.026-.004-.026-.003-.025-.005-.027-.007-.025-.006-.025-.007-.025-.008-.024-.007-.025-.01-.023-.008-.023-.01-.023-.008-.018-.005-.02-.003-.02-.002-.022.002-.02.002-.019.005-.018.008-.018.007-.017.01-.017.011-.015.013-.013.014-.013.015-.011.016-.01.018-.008.017-.007.019-.004.019-.004.02-.001.02.001.02.004.019.004.017.007.018.008.015.01.015.011.015.013.012.013.012.015.008.017.01.017.005.018.005.018.004.02v.034l.002-.03.002-.031.003-.065-.003-.078-.005-.076-.01-.077-.014-.075-.016-.072-.021-.073-.024-.07-.028-.069-.03-.068-.034-.065-.036-.064-.04-.061-.043-.06-.045-.058-.047-.055-.05-.052-.053-.05-.055-.048-.058-.046-.06-.042-.061-.04-.064-.036-.065-.034-.068-.031-.069-.026-.07-.024-.072-.022-.074-.016-.074-.014-.076-.01-.077-.006-.079-.001h-.036l-.038.002-.036.003-.038.004-.037.003-.038.007-.037.006-.037.007-.037.008-.036.009-.073.02-.035.01-.035.012-.034.013-.034.012.033-.035.031-.036.029-.038.027-.04.025-.041.024-.041.021-.044.02-.044.018-.045.015-.047.013-.046.01-.046.01-.048.006-.047.004-.05.001-.047-.001-.039-.003-.038-.004-.04-.006-.037-.007-.039-.01-.037-.01-.038-.01-.037-.013-.037-.015-.036-.015-.035-.018-.035-.017-.034-.019-.034-.02-.032-.043-.063-.02-.033-.02-.033-.017-.034-.018-.035-.015-.035-.014-.037-.013-.036-.012-.038-.01-.037-.008-.038-.008-.038-.005-.038-.005-.039-.002-.039v-.081l.003-.041.005-.043.007-.041.008-.042.01-.041.012-.04.012-.04-.039.012-.04.012-.042.008-.042.01-.042.005-.043.005-.042.004h-.082l-.039-.002-.037-.004-.039-.006-.039-.007-.037-.008-.038-.01-.036-.012-.038-.012-.036-.015-.035-.015-.035-.018-.034-.017-.034-.02-.032-.02-.063-.045-.033-.02-.033-.02-.034-.018-.035-.018-.035-.015-.037-.015-.036-.012-.037-.011-.038-.01-.038-.01-.038-.005-.038-.007-.039-.004-.039-.002-.038-.001-.048.001-.049.004-.047.006-.048.009-.046.011-.047.013-.046.015-.045.017-.044.02-.043.021-.04.024-.042.027-.04.026-.037.03-.036.031-.035.033.017-.044.014-.045.013-.046.011-.048.008-.048.006-.048.004-.048V2.9l-.002-.038-.003-.037-.005-.037-.007-.036-.007-.036-.01-.037-.01-.035-.011-.035-.014-.034-.014-.033-.016-.034-.017-.033-.017-.031-.019-.031-.02-.032-.021-.03-.023-.029-.024-.027-.023-.028-.025-.026-.027-.025-.027-.025-.029-.024-.029-.021-.03-.021-.031-.022-.031-.019-.033-.017-.034-.016-.034-.015-.035-.015-.014-.005-.012-.008-.013-.007-.012-.01-.011-.01-.01-.01-.018-.022-.009-.012-.006-.013-.006-.014-.005-.013-.004-.014-.003-.015v-.015l-.002-.015.001-.02.003-.019.005-.019.006-.017.009-.018.01-.016.011-.015.012-.014.014-.013.015-.01.017-.01.016-.01.019-.006.018-.005.02-.002.02-.002.02.002.022.003.02.007.02.007.019.01.017.013.017.014.016.015-.028-.032-.027-.03-.029-.03-.03-.029-.03-.027-.03-.026-.065-.053-.033-.024-.034-.024-.035-.022-.034-.021-.036-.022-.037-.02-.036-.018-.038-.018-.037-.018-.038-.015-.039-.015-.038-.013-.04-.013-.04-.012-.08-.02-.04-.01-.04-.007-.04-.006-.042-.005-.042-.004-.04-.002-.042-.003h-.043l-.056.002-.058.002-.056.005-.057.008-.055.01-.055.01-.054.015-.053.015-.054.017-.052.02-.052.021-.05.023-.05.025-.05.026-.047.028-.046.03-.046.031-.044.034-.044.035-.041.036-.04.038-.04.039-.038.041-.037.043-.035.042-.032.045-.031.047-.03.047-.03.05-.026.05-.023.05-.023.053-.001-.045-.003-.045-.005-.044-.007-.044-.009-.042-.011-.043-.013-.041-.014-.041-.016-.04-.017-.04-.02-.037-.022-.037-.022-.037-.024-.035-.026-.035-.027-.032-.028-.032-.03-.031-.032-.029-.032-.027-.033-.027-.035-.025-.036-.024-.037-.022-.038-.02-.04-.019-.04-.017-.04-.016-.042-.013-.043-.012-.043-.01-.044-.007z" fill="#fecd00" fill-rule="evenodd" stroke="#000" stroke-linecap="round" stroke-linejoin="round" stroke-width="1.181"/>
</svg>
