<svg width="20" height="20" viewBox="0 0 18.751 18.751" xmlns="http://www.w3.org/2000/svg">
 <circle cx="9.375" cy="9.375" r="8.83" fill="#fff" fill-rule="evenodd" stroke="#114da6" stroke-linejoin="round" stroke-width="1.09"/>
 <ellipse cx="9.375" cy="9.375" rx="6.648" ry="6.666" fill="none" stroke="#fff" stroke-linejoin="round" stroke-width="2.72"/>
 <path d="M9.375 4.476a4.84 4.84 0 0 0-2.056.459.275.312 0 0 1 .003.041.275.312 0 0 1-.16.283c-.206 2.649-.33 5.484-.662 8.066a4.877 4.877 0 0 0 2.875.942c2.641 0 4.896-2.157 4.896-4.895 0-2.738-2.254-4.896-4.896-4.896zm-2.53.712A4.89 4.89 0 0 0 4.48 9.372c0 1.184.423 2.26 1.115 3.1l1.45-7.183a.275.312 0 0 1-.198-.1zm.213.1-1.093 7.585c.14.136.287.264.442.382.323-2.548.448-5.345.651-7.967z" color="#000" fill="#114da6" style="isolation:auto;mix-blend-mode:normal;text-decoration-color:#000;text-decoration-line:none;text-decoration-style:solid;text-indent:0;text-transform:none;white-space:normal"/>
 <path d="M9.939 11.023c-.943-.354-1.396-.536-3.203.104.154-1.88.297-4.073.424-5.87 4.033-.996 4.302 2.749 6.77 2.121-.076.61-.393 1.714-1.941 1.992.197.612 1.071 2.319 2.037 2.516-2.588 1.563-2.772-.293-4.087-.863z" fill="#f90003"/>
</svg>
