<svg width="33" height="20" version="1.1" viewBox="0 0 33 20" xmlns="http://www.w3.org/2000/svg">
 <g stroke-width=".5">
  <path d="m3.1428 1.7114e-4h26.714a3.1104 3.1103 0 0 1 3.1428 3.0768v13.846a3.1104 3.1103 0 0 1-3.1428 3.0769h-26.714a3.1104 3.1103 0 0 1-3.1428-3.0768v-13.846a3.1104 3.1103 0 0 1 3.1428-3.0768z" fill="#007f00"/>
  <path d="m3.1428 0.46171h26.714a2.6438 2.6438 0 0 1 2.6714 2.6154v13.846a2.6438 2.6438 0 0 1-2.6714 2.6154h-26.714a2.6438 2.6438 0 0 1-2.6714-2.6154v-13.846a2.6439 2.6439 0 0 1 2.6714-2.6153z" fill="#fff"/>
  <path d="m3.1428 1.5386h26.714a1.555 1.555 0 0 1 1.5714 1.5384v13.846a1.555 1.555 0 0 1-1.5714 1.5384h-26.714a1.555 1.555 0 0 1-1.5714-1.5384v-13.846a1.5553 1.5553 0 0 1 1.5714-1.5384z" fill="#007f00"/>
 </g>
</svg>
