<svg width="20" height="20" version="1.0" xmlns="http://www.w3.org/2000/svg">
 <path d="m329.03 53.667c12.442-0.52249 24.779-0.1045 37.221-0.209 11.501 1.3594 23.106-0.209 34.607 1.5684 6.4826 1.0459 13.174 0 19.656 1.4639 5.2278 1.1504 10.769 0.3135 16.101 1.5684 37.535 4.2863 75.07 11.187 111.25 22.793 11.292 3.9728 23.106 7.1096 33.143 13.8 16.625 10.874 30.844 25.407 41.091 42.345 8.5726 13.488 15.16 28.23 19.028 43.809 1.8819 6.0638 2.0909 12.442 3.3458 18.715 0.94144 5.5412 0.5225 11.188 0.627 16.729 0 5.6458-1.8819 11.083-1.7774 16.728-7.4231 59.909-28.648 117.21-54.681 171.26-27.498 55.832-61.373 108.84-102.46 155.68-13.173 14.951-26.975 29.484-42.136 42.449-9.096 8.5735-18.924 16.101-28.648 23.733-14.637 10.874-32.203 17.461-50.186 19.97-8.2591 0.31349-16.415 2.0909-24.675 0.52345-17.46-0.73244-34.816-6.0646-49.872-15.056-6.9006-3.9728-12.964-9.2005-19.133-14.219-6.5871-4.9143-12.546-10.456-18.611-15.892-19.447-16.728-36.593-35.966-53.114-55.518-40.148-49.245-73.605-103.82-99.744-161.54-20.492-44.958-36.384-92.216-44.018-140.94-0.62698-5.1233-1.5675-10.247-1.672-15.474-1.7774-7.8411-1.5684-15.997-1.3594-23.942 1.4639-11.71 3.1368-23.42 7.2141-34.503 7.0051-20.388 18.192-39.208 32.934-54.786 12.128-12.965 26.766-24.152 43.913-29.38 37.848-13.801 77.579-21.434 117.31-26.557 4.9143 0 9.723-1.6729 14.637-1.5684 5.9601 0.209 11.71-1.7774 17.774-1.5684 6.5872 0.31444 13.174-1.463 19.865-1.463 7.4231-0.41894 14.952 0.41799 22.375-0.52344" fill="#003f87" stroke-linecap="round" stroke-width="31.254" transform="translate(-1.165 -1.208) scale(.03199)" stroke="#fff" stroke-linejoin="round" style="stroke-width:31.25976868;stroke-miterlimit:4;stroke-dasharray:none;fill:#003f87"/>
</svg>
