<svg width="25" height="20" xmlns="http://www.w3.org/2000/svg">
 <path d="M12.5.73c-1.169.711-2.546 1.122-4.02 1.122S5.626 1.442 4.458.73l-3.7 3.64A5.766 5.766 0 0 1 1.84 7.736c0 .904-.208 1.76-.58 2.524-.32.661-.5 1.4-.5 2.182 0 2.797 2.304 5.064 5.146 5.064h3.22A4.36 4.36 0 0 1 12.5 19.09a4.36 4.36 0 0 1 3.374-1.583h3.22c2.842 0 5.146-2.267 5.146-5.064 0-.781-.18-1.521-.5-2.182a5.756 5.756 0 0 1-.58-2.524c0-1.253.4-2.414 1.08-3.366L20.543.73a7.712 7.712 0 0 1-4.021 1.122A7.711 7.711 0 0 1 12.5.73z" fill="#fff" fill-rule="evenodd" stroke="#000" stroke-width="1.159"/>
</svg>
