<svg width="20" height="20" viewBox="0 0 5.292 5.292" xmlns="http://www.w3.org/2000/svg">
 <path style="fill:#003f87;stroke:#fff;stroke-width:.931716;stroke-miterlimit:4;stroke-dasharray:none" d="M 18.158203 6.5 L 1.8398438 6.5 C 2.2426278 7.2018468 2.4570312 7.9975385 2.4570312 8.8027344 C 2.4570312 9.8792249 2.2586994 10.471634 1.6425781 11.261719 C 1.1755241 11.854282 0.67773438 13.069918 0.67773438 13.978516 C 0.67773438 16.230256 2.6159969 17.810547 5.3984375 17.810547 L 8.3105469 17.810547 C 8.6583398 17.810547 8.9766931 17.967717 9.1953125 18.234375 L 10 19.251953 L 10.814453 18.234375 C 11.033058 17.967713 11.351416 17.810547 11.699219 17.810547 L 14.621094 17.810547 C 17.393595 17.810547 19.341797 16.230256 19.341797 13.978516 C 19.341797 13.060045 18.834068 11.854282 18.376953 11.261719 C 17.740969 10.481508 17.542969 9.8792249 17.542969 8.8027344 C 17.542969 7.9884445 17.755482 7.2006124 18.158203 6.5 z" transform="scale(.2646)"/>
 <path style="fill:#bf2033;stroke:#fff;stroke-width:.931716;stroke-miterlimit:4;stroke-dasharray:none" d="M 4.9511719 0.67578125 L 0.65820312 5.109375 L 1.046875 5.484375 C 1.3052556 5.7411588 1.5434418 6.0278272 1.7421875 6.3339844 C 1.7765253 6.3884408 1.8078812 6.4443056 1.8398438 6.5 L 18.158203 6.5 C 18.190192 6.4443499 18.223445 6.3884894 18.257812 6.3339844 C 18.456546 6.0278279 18.68482 5.7411528 18.953125 5.484375 L 19.341797 5.109375 L 15.048828 0.68554688 L 14.660156 1.109375 C 14.063919 1.7513177 13.289124 2.1074219 12.494141 2.1074219 C 11.490477 2.1074219 10.744459 1.5351123 10.386719 1.1894531 L 10 0.81445312 L 9.6230469 1.1796875 C 9.275254 1.5253394 8.529227 2.0976562 7.515625 2.0976562 C 6.7107066 2.0976562 5.9458467 1.7415518 5.3496094 1.0996094 L 4.9511719 0.67578125 z" transform="scale(.2646)"/>
</svg>
