<svg xmlns="http://www.w3.org/2000/svg" width="55" height="40" viewBox="0 0 55 40">
  <path d="M27.5,0H0V28.0462a7.8969,7.8969,0,0,0,5.2706,6.6482L27.5,40l22.23-5.3056A7.897,7.897,0,0,0,55,28.0462V0Z" fill="#00008b"/>
  <path d="M27.5,1.0518H1.0577V27.2165a6.8448,6.8448,0,0,0,5.2706,6.6487L27.5,38.9183l21.1718-5.0531a6.8448,6.8448,0,0,0,5.2705-6.6487V1.0518Z" fill="#fff"/>
  <path d="M27.5,3.6815H3.7019v23.535a4.2062,4.2062,0,0,0,2.6264,4.0916L27.5,36.214l20.5547-4.9059a4.212,4.212,0,0,0,3.2434-4.0916V3.6815Z" fill="#00008b"/>
</svg>
