<svg width="20" height="20" version="1.0" xmlns="http://www.w3.org/2000/svg">
 <path d="M.975 1.163h5.218c.405.253.881.45 1.402.603.52.152 1.125-.199 1.707-.125.29.037.526.25.822.256.297.006.655-.195.95-.188.592.016.77.586 1.68.504.545-.05.94-.348 1.481-.547.54-.198 1.229-.27 1.8-.264 1.094.013 2.187-.54 3.28-.775l.058 7.65c-.577.382-.145 1.025-.183 1.622-.021.326-.066.663-.318.837-.25.173-.227.583-.109 1.054.157.623-.102 1.248-.226 1.859-.124.61-.376 1.186-.874 1.685-.487.488-1.215 1.312-2.075 1.44-1.11.166-1.48.67-2.076 1.313-.275.296-.404.38-1.046.436-.358.032-.265.305-1.064.352-.788.047-1.519.498-1.988.498C8.1 19.37 7.021 17.64 5.288 17.4c-.865-.12-1.666-.499-2.45-.912-.394-.208-.772-.62-1.207-.694-.524-.09-.637-.511-1.003-.69V1.533c-.013-.25.146-.373.347-.368z" fill="#fff" stroke="#000" stroke-linecap="round" stroke-linejoin="round" stroke-width="1.254"/>
</svg>
