<svg width="25" height="20" viewBox="0 0 6.615 5.292" xmlns="http://www.w3.org/2000/svg">
 <path style="fill:#003f87;stroke:#fff;stroke-width:.931716;stroke-miterlimit:4;stroke-dasharray:none" d="M 18.158203,6.5 H 1.8398438 c 0.402784,0.7018468 0.6171874,1.4975385 0.6171874,2.3027344 0,1.0764905 -0.1983318,1.6688996 -0.8144531,2.4589846 -0.467054,0.592563 -0.96484372,1.808199 -0.96484372,2.716797 0,2.25174 1.93826252,3.832031 4.72070312,3.832031 h 2.9121094 c 0.3477929,0 0.6661462,0.15717 0.8847656,0.423828 L 10,19.251953 10.814453,18.234375 c 0.218605,-0.266662 0.536963,-0.423828 0.884766,-0.423828 h 2.921875 c 2.772501,0 4.720703,-1.580291 4.720703,-3.832031 0,-0.918471 -0.507729,-2.124234 -0.964844,-2.716797 -0.635984,-0.780211 -0.833984,-1.3824941 -0.833984,-2.4589846 0,-0.8142899 0.212513,-1.602122 0.615234,-2.3027344 z" transform="matrix(.33071 0 0 .26232 -.024 .022)"/>
 <path style="fill:#bf2033;stroke:#fff;stroke-width:.931716;stroke-miterlimit:4;stroke-dasharray:none" d="M 4.9511719,0.67578125 0.65820312,5.109375 1.046875,5.484375 C 1.3052556,5.7411588 1.5434418,6.0278272 1.7421875,6.3339844 1.7765253,6.3884408 1.8078812,6.4443056 1.8398438,6.5 H 18.158203 c 0.03199,-0.05565 0.06524,-0.1115106 0.09961,-0.1660156 0.198734,-0.3061565 0.427008,-0.5928316 0.695313,-0.8496094 l 0.388672,-0.375 -4.29297,-4.42382812 -0.388672,0.42382812 c -0.596237,0.6419427 -1.371032,0.9980469 -2.166015,0.9980469 -1.003664,0 -1.749682,-0.5723096 -2.107422,-0.9179688 L 10,0.81445312 9.6230469,1.1796875 C 9.275254,1.5253394 8.529227,2.0976562 7.515625,2.0976562 c -0.8049184,0 -1.5697783,-0.3561044 -2.1660156,-0.9980468 z" transform="matrix(.33071 0 0 .26232 -.024 .022)"/>
</svg>
