<svg width="25" height="20" xmlns="http://www.w3.org/2000/svg">
 <path d="M1.8.5h21.4a1.3 1.3 45 0 1 1.3 1.3v16.4a1.3 1.3 135 0 1-1.3 1.3H1.8a1.3 1.3 45 0 1-1.3-1.3V1.8A1.3 1.3 135 0 1 1.8.5z" fill="#fff" stroke="#000"/>
 <path d="M2 6.663v4.421c0 .009 0 .017.004.025.004.01.01.016.016.024v.001l.012.014.015.016a.28.28 0 0 1 .037.072.12.12 0 0 1 .009.046.071.071 0 0 1-.005.019.074.074 0 0 0-.004.015.175.175 0 0 0-.001.025l-.003.03a.355.355 0 0 1-.013.046l-.002.028c0 .008 0 .015-.002.023a.124.124 0 0 1-.004.021c-.002.009-.004.017-.004.025 0 .004 0 .007.002.01l.002.007v.017a.169.169 0 0 0 .013.034l.006.014a.546.546 0 0 0 .023.05l.03.071.08.182c.018.04.072.03.127.02.05-.008.102-.016.126.017.02.03.041.059.06.09l.021.036a2.1 2.1 0 0 0 .03.048.16.16 0 0 0 .017.028l.029.048c.01.017-.006.036-.021.054a.127.127 0 0 0-.022.034l-.03.093c-.01.036-.022.07-.033.106-.008.024-.033.038-.059.052-.028.015-.055.03-.06.058-.01.087-.01.175-.008.262v.03c0 .025.003.05.005.076.003.038.006.075.004.113a.588.588 0 0 1-.195.368 2.788 2.788 0 0 1-.105.096l-.03.027a.665.665 0 0 0-.067.066c-.006.008-.01.017-.014.026a.083.083 0 0 1-.006.017.288.288 0 0 0-.055.11l-.01.04c-.003.017-.006.035-.012.052-.009.027-.02.054-.03.08a.097.097 0 0 1-.008.019.112.112 0 0 0-.012.032l-.004.042v.017l-.002.016-.003.06a.34.34 0 0 0 .004.06.252.252 0 0 0 .038.127.451.451 0 0 0 .1.12 1.24 1.24 0 0 1 .061.062.795.795 0 0 1 .046.053.134.134 0 0 1 .021.055.673.673 0 0 1 .013.131v.012c0 .034 0 .069-.013.102a1.21 1.21 0 0 1-.023.055c-.006.011-.01.022-.015.034l-.047.114-.008.019c-.007.016-.014.031-.017.048a.23.23 0 0 0-.003.037L2 15.175V18h7v-4.32l-.01-.01-.003-.002a.123.123 0 0 0-.009-.01l-.021-.023c-.014-.016-.028-.031-.04-.048a.2.2 0 0 1-.018-.021l-.017-.023-.008-.01-.008-.012-.017-.022-.005-.006a.404.404 0 0 0-.025-.025l-.004-.004-.022-.02-.017-.013-.022-.022-.007-.007c-.001-.002-.001-.003-.003-.003l-.002-.004-.004-.007a.074.074 0 0 1-.007-.015l-.01-.029-.001-.002a.183.183 0 0 0-.005-.014l-.006-.019-.007-.015-.005-.008-.005-.007-.006-.01-.007-.008v-.001l-.017-.018-.003-.003a.029.029 0 0 0-.015-.009l-.02-.001-.07.016-.023.005a2.55 2.55 0 0 0-.067.016c-.028.008-.042.042-.05.072l-.005.017-.008.038a.935.935 0 0 1-.008.04l-.005.024a.254.254 0 0 1-.01.037.29.29 0 0 0-.01.043c-.002.006.002.012.006.016l.012.01a.045.045 0 0 1 .006.006c.005.005.01.01.016.013l.002.005v.001a.007.007 0 0 1-.004.004.114.114 0 0 1-.035.002c-.01 0-.02 0-.03.002l-.01.002a.496.496 0 0 0-.034.006l-.02.005-.026.005-.04.008-.005.001a.658.658 0 0 1-.046.007.106.106 0 0 1-.031 0l-.017-.004-.015-.002c-.01-.003-.02-.004-.032-.006a.099.099 0 0 0-.031 0 .185.185 0 0 0-.036.007 1.048 1.048 0 0 1-.036.013l-.016.006a1.8 1.8 0 0 1-.02.007c-.01.004-.023.006-.035.009a1.263 1.263 0 0 1-.144.012l-.043-.001-.041-.005-.043-.005a.23.23 0 0 0-.042-.002.147.147 0 0 0-.064.02.657.657 0 0 0-.03.019l-.029.02a.02.02 0 0 0-.004.005.033.033 0 0 0-.007.019v.018l.001.014v.03a.016.016 0 0 1-.005.01.024.024 0 0 1-.01.006.047.047 0 0 1-.015.001h-.001L7.4 13.82a2.063 2.063 0 0 1-.024-.007l-.007-.002c-.004 0-.008-.002-.012-.004l-.018-.005a.082.082 0 0 0-.031-.003l-.05.005-.02.003-.03.003-.049.006a1.672 1.672 0 0 1-.05.004l-.06.002c-.019 0-.038 0-.058.002l-.047.003-.016.002h-.007a.21.21 0 0 0-.022.003.023.023 0 0 0-.018.016l-.005.027v.003a.096.096 0 0 0-.003.015c0 .005 0 .01-.002.016a.025.025 0 0 1-.004.01.015.015 0 0 1-.007.006.056.056 0 0 1-.022.002c-.01-.001-.02-.002-.028-.005a.123.123 0 0 1-.027-.011.055.055 0 0 1-.02-.02.178.178 0 0 1-.017-.032l-.015-.033-.015-.033a.374.374 0 0 0-.033-.057l-.009-.013-.009-.012-.016-.023v-.002a.19.19 0 0 1-.034-.103v-.03l.001-.012v-.021a.395.395 0 0 0-.012-.067.211.211 0 0 0-.031-.064.121.121 0 0 0-.018-.02.123.123 0 0 0-.02-.015.231.231 0 0 0-.046-.02l-.023-.005-.022-.003-.01-.002-.012-.001a.338.338 0 0 1-.02-.005H6.4c-.02-.004-.038-.01-.058-.016a.35.35 0 0 1-.056-.022c-.009-.004-.016-.01-.024-.015a.122.122 0 0 1-.02-.018.152.152 0 0 1-.028-.047.125.125 0 0 1-.005-.022v-.003a.544.544 0 0 1 0-.108l.001-.015c.002-.01.002-.021.003-.032v-.031a.251.251 0 0 0-.005-.061.18.18 0 0 0-.043-.084.83.83 0 0 0-.022-.024l-.01-.01a2.009 2.009 0 0 1-.013-.013l-.02-.024a.593.593 0 0 1-.021-.03l-.042-.062a.584.584 0 0 0-.021-.03.094.094 0 0 0-.028-.024c-.006-.005-.013-.008-.02-.011a.26.26 0 0 0-.014-.009c-.01-.006-.019-.01-.028-.018a.064.064 0 0 1-.025-.032 6.697 6.697 0 0 1-.054-.172l-.009-.029-.03-.098a.269.269 0 0 1-.01-.074l-.001-.022-.006-.048a.148.148 0 0 0-.016-.046.024.024 0 0 0-.007-.009.032.032 0 0 0-.009-.005.139.139 0 0 0-.022-.006h-.012l-.013-.002a.065.065 0 0 1-.022-.008.193.193 0 0 1-.03-.022.614.614 0 0 0-.03-.025l-.016-.014-.015-.012-.029-.022-.002-.002a.224.224 0 0 0-.046-.024.05.05 0 0 0-.024-.005.03.03 0 0 0-.025.015l-.001.002-.004.007-.009.019-.004.01-.004.009-.01.018a.52.52 0 0 1-.067.093l-.02.017-.008.008-.01.009-.01.008-.029.025-.08.08-.05.051a.025.025 0 0 1-.01.006.021.021 0 0 1-.011.001.071.071 0 0 1-.025-.01.189.189 0 0 1-.043-.043.384.384 0 0 1-.024-.035l-.004-.007-.016-.029a1.437 1.437 0 0 1-.036-.073l-.013-.029a.081.081 0 0 1-.005-.023l-.003-.023v-.024a.114.114 0 0 0-.005-.023.046.046 0 0 0-.014-.023l-.02-.017-.001-.002a.17.17 0 0 1-.01-.008l-.013-.01a.056.056 0 0 1-.014-.02.047.047 0 0 1-.002-.018v-.02a.06.06 0 0 1 .007-.02.039.039 0 0 1 .013-.014.69.69 0 0 1 .048-.028l.002-.002.037-.019.043-.023a.129.129 0 0 0 .035-.026.046.046 0 0 0 .012-.025v-.012a.204.204 0 0 0-.01-.04l-.01-.02-.005-.012-.01-.021a.112.112 0 0 0-.005-.015.204.204 0 0 1-.01-.023l-.004-.013-.001-.008-.004-.017-.004-.017-.009-.047a.104.104 0 0 1-.001-.035l.006-.034.002-.017.004-.018c.002-.012.002-.023.002-.035a.276.276 0 0 0-.011-.065l-.005-.021-.01-.044a.274.274 0 0 1-.004-.043v-.117c0-.038 0-.077.004-.115a1.725 1.725 0 0 1 .013-.09l.005-.033.012-.089a.489.489 0 0 0 .005-.055l.002-.01.001-.02v-.013l.005-.032a.03.03 0 0 1 .005-.016.124.124 0 0 1 .014-.021l.006-.008a.07.07 0 0 0 .008-.014.31.31 0 0 0 .023-.074.077.077 0 0 0-.002-.038.07.07 0 0 0-.027-.036l-.006-.004a.048.048 0 0 0-.013-.003.172.172 0 0 0-.025-.002c-.028 0-.056-.001-.084.004a.035.035 0 0 0-.013.006l-.012.008-.005.005a.04.04 0 0 1-.005.004.05.05 0 0 1-.012.007.173.173 0 0 1-.05.014.07.07 0 0 1-.047-.01.112.112 0 0 1-.031-.03c-.004-.007-.009-.012-.012-.019l-.012-.019a.084.084 0 0 1-.008-.02.087.087 0 0 1-.003-.012.07.07 0 0 0-.002-.01.1.1 0 0 0-.007-.02.045.045 0 0 0-.014-.018l-.008-.005a.071.071 0 0 0-.009-.005.246.246 0 0 0-.055-.01l-.013-.002H4.62a.142.142 0 0 0-.016.003l-.012.002a.14.14 0 0 1-.028 0 .05.05 0 0 1-.027-.008l-.01-.008a.14.14 0 0 1-.026-.03.938.938 0 0 1-.027-.047l-.003-.007c-.004-.007-.009-.015-.012-.023l-.008-.017-.006-.014a.785.785 0 0 1-.014-.03.56.56 0 0 0-.1-.14.094.094 0 0 0-.023-.018.276.276 0 0 0-.041-.018l-.014-.005a.103.103 0 0 1-.024-.015.064.064 0 0 1-.016-.02L4.2 9.797l-.005-.013-.006-.013a.079.079 0 0 0-.015-.022.03.03 0 0 0-.01-.006.034.034 0 0 0-.013-.003l-.018-.001H4.12a.258.258 0 0 1-.029-.004.027.027 0 0 1-.018-.015.096.096 0 0 1-.006-.018l-.001-.004-.004-.014a.806.806 0 0 1-.005-.036l-.003-.017-.003-.019-.003-.018-.003-.01-.001-.008-.001-.002-.002-.007v-.01l-.004-.018a.049.049 0 0 0-.005-.018.066.066 0 0 0-.014-.017l-.007-.006-.008-.005c-.005-.004-.01-.006-.015-.008a.094.094 0 0 0-.03-.007h-.062c-.01 0-.02.003-.03.005l-.017.005-.012.004a.574.574 0 0 1-.03.008.097.097 0 0 1-.03 0l-.025-.007a.128.128 0 0 1-.024-.012.139.139 0 0 1-.04-.036.3.3 0 0 1-.023-.036l-.003-.005-.017-.031-.009-.017a.665.665 0 0 0-.075-.117c-.01-.016-.022-.032-.033-.047a.667.667 0 0 1-.026-.043.145.145 0 0 1-.016-.046v-.019a.238.238 0 0 1 .005-.019l.002-.009a.08.08 0 0 0 .003-.01l.003-.02a.645.645 0 0 0-.017-.202.8.8 0 0 0-.055-.118l-.015-.028c-.023-.04-.045-.083-.074-.12a4.94 4.94 0 0 0-.118-.148l-.106-.127v-1.62H2"/>
</svg>
