<svg width="20" height="20" xml:space="preserve" xmlns="http://www.w3.org/2000/svg">
 <path d="M 10.066725,0.50767349 C 9.3767006,0.51504189 8.6507271,0.94993514 8.3825095,1.6373749 7.4566178,1.6060066 6.4583668,2.2904674 6.332848,3.3029587 5.5638549,3.3902215 5.0430996,4.1306716 4.8612212,4.870448 4.1761074,5.1871943 3.655992,5.9231286 3.6452921,6.7222838 3.5885926,7.2167137 3.0147578,7.3115239 2.8499293,7.7520487 2.5877917,8.1954367 2.5071824,8.7395716 2.5703018,9.2534436 1.8413884,9.8357258 1.5891206,10.93148 1.8942079,11.824824 c -0.6593641,0.531851 -0.7042137,1.56971 -0.336817,2.299634 -0.4302761,0.49003 -0.4005964,1.272722 -0.074099,1.814057 -0.3087672,0.36363 -0.79244288,0.593051 -1.03648069,0.985186 0.007,1.207217 0.0140999,1.361709 0.0211998,2.568926 6.35696279,-0.0053 12.71391599,-0.01053 19.07087799,-0.01516 0.005,-1.147312 0.01,-1.241888 0.0143,-2.3892 -0.351797,-0.310736 -0.726703,-0.596903 -1.036781,-0.95607 0.343557,-0.569388 0.297008,-1.342227 -0.0741,-1.88451 0.423796,-0.658934 0.315807,-1.639152 -0.241878,-2.173771 -0.0926,-0.30661 0.152549,-0.639493 0.0811,-0.973081 -0.0109,-0.626376 -0.308688,-1.2214903 -0.754184,-1.6285837 0.0942,-0.8938074 -0.256147,-1.8600252 -1.0153,-2.3248131 C 16.550146,6.1976961 15.965191,5.3282465 15.186178,4.8955953 15.081889,4.1334821 14.487275,3.4761686 13.762361,3.3532427 13.661142,2.3591829 12.75527,1.6204381 11.827719,1.6373433 11.464222,0.96839823 10.815918,0.49470512 10.066705,0.50763139 Z" style="fill:#fff;stroke-width:.0373174"/>
 <path style="fill-rule:evenodd;stroke-width:.0373174" d="M 8.5089548,2.2036312 C 8.6822033,1.5691281 9.362812,1.1141985 9.9597399,1.1153976 c 0.7416171,0.00149 1.4868271,0.3777931 1.7573061,1.1369295 0.933388,0.1632733 1.382783,0.6040765 1.711396,1.5282685 0.8064,0.164835 1.238766,1.0467156 1.330655,1.6196084 0.862212,0.2065783 1.418756,1.2073643 1.230339,2.1034349 0.655294,0.3970092 1.1702,1.3826193 1.002481,2.1910165 0.607253,0.7512066 0.695332,1.2688746 0.566975,2.4133566 0.623724,0.535345 0.828173,1.575015 0.336877,2.277034 0.389996,0.460483 0.500415,1.418016 -0.166029,1.660005 -2.012901,1.045849 -4.238071,1.570563 -6.468031,1.744141 0.01137,-0.682213 0.132514,-1.723631 -1.2618005,-1.751747 C 8.5605003,16.008424 8.711744,17.083984 8.7055711,17.738877 6.3768721,17.53092 4.0231633,16.969332 1.9837016,15.739263 1.6248649,15.346159 1.6421147,14.627772 2.0762008,14.301962 1.5303005,13.319266 1.616333,12.662306 2.4082378,12.057675 2.1223704,11.195583 2.3349385,10.134619 3.0365622,9.5617161 2.8753036,8.7098348 3.3111097,7.8207852 4.0255533,7.4079761 3.9345541,6.4402215 4.5493386,5.4968247 5.3991909,5.1536154 5.5459471,4.5579268 5.890089,4.1516705 6.5484927,3.8264759 6.9282401,2.9128472 7.3799923,2.5303918 8.5089548,2.2036312 Z M 1.830193,16.342503 c 2.7326354,1.426005 5.8020678,2.074729 8.844381,1.997214 2.573847,-0.03453 5.111974,-0.715082 7.462433,-1.800984 0.289707,0.251347 0.705342,0.43281 0.917511,0.727166 l 0.009,1.747756 -18.15112571,-0.02011 v -1.983459 c 0,-0.391346 0.61163451,-0.445072 0.91744171,-0.667608 z M 12.090551,1.2613339 c 0.906482,0.018737 1.745354,0.7187239 1.978042,1.6404576 0.688474,0.3250305 1.283259,0.9379231 1.495477,1.7134257 0.727332,0.5109983 1.294077,1.3391744 1.352137,2.2770133 0.701123,0.5592086 1.06978,1.4837844 1.03679,2.4003076 0.667544,0.6755555 0.799463,1.7271619 0.652185,2.6493799 0.561205,0.572556 0.649564,1.501121 0.384616,2.246824 0.190258,0.595471 0.258418,1.255574 0.0717,1.861877 0.296628,0.320989 0.713634,0.585577 0.938502,0.940187 -0.008,1.348869 -0.0157,1.645176 -0.0235,2.994035 -6.657169,0.0053 -13.3143295,0.01053 -19.97149954,0.01516 C 0.00299947,18.536498 0.00199948,18.12556 -5e-7,16.66207 L 0.77640251,15.781452 C 0.57264435,15.231243 0.61011401,14.56334 0.9221312,14.06551 0.52338479,13.295302 0.78679242,12.340653 1.282858,11.692887 1.1002796,10.773101 1.3229576,9.7488733 1.9589319,9.0711704 1.9833317,8.1924155 2.3030788,7.2536608 3.0196123,6.7463573 3.1601011,5.826192 3.6393667,4.9115636 4.4434195,4.4693335 4.6482777,3.7479991 5.1734929,3.1030961 5.8672267,2.8766863 6.1213244,1.9413843 6.9881966,1.2310498 7.9169382,1.2362287 8.5593325,0.21585326 9.9171902,-0.36554476 10.990931,0.25594786 c 0.443366,0.22839921 0.815663,0.5819559 1.09947,1.00543864 z"/>
</svg>
