<svg xmlns="http://www.w3.org/2000/svg" width="41" height="20" viewBox="0 0 41 20">
  <path d="M0,16l4.975,1.735L10.0619,19.02l5.147.6907L20.472,20l5.3191-.2892,5.147-.6907,5.089-1.2851L41,16V4.0161l-4.9729-1.751-5.089-1.2209-5.147-.755L20.472,0,15.2089.2892l-5.147.755L4.975,2.2651,0,4.0161V16" transform="translate(0 0)" fill="#fff"/>
  <path d="M1.4469,13.5582l.1161.6908.23.5783.4042.4177.6364.3373L6.652,16.8675l4.22.8675,4.6267.5782,4.9729.1768,5.0309-.1768,4.6246-.5783,4.2226-.8674,3.8162-1.2852.5783-.3373.4623-.4177.2322-.5783.1139-.6908v-7.1l-.1139-.7068-.2322-.5141-.4623-.4658-.5783-.2892L34.35,3.1325l-4.2226-.8674-4.6246-.5784L20.472,1.51l-4.9729.1767-4.6267.5784-4.22.8674L2.8336,4.4819l-.6364.2892-.4042.4658-.23.5141-.1161.7068v7.1Z" transform="translate(0 0)" fill="#fff" stroke="#231f20" stroke-width="1.3009"/>
</svg>
