<svg width="49.519" height="40" version="1.0" xmlns="http://www.w3.org/2000/svg">
 <title>Ohio State Route 124</title>
 <path d="m2.0474 2.4578h13.128c1.0206 0.50362 2.2187 0.8976 3.528 1.2025 1.3092 0.30487 2.8311-0.39643 4.2958-0.24918 0.73235 0.073626 1.3235 0.49894 2.0698 0.51096 0.74625 0.012023 1.6476-0.38925 2.391-0.37387 1.487 0.030743 1.9363 1.1698 4.226 1.0056 1.3714-0.098377 2.3658-0.69517 3.7264-1.0919 1.3606-0.39679 3.0918-0.53986 4.529-0.52663 2.7518 0.025353 5.5035-1.0807 8.2554-1.5488l0.14359 15.279c-1.4502 0.76393-0.36313 2.0481-0.4601 3.2398-0.053 0.65133-0.16537 1.3251-0.79936 1.6722-0.63151 0.34582-0.57112 1.1652-0.27365 2.1052 0.39377 1.2443-0.25775 2.4931-0.56978 3.713-0.31204 1.2198-0.94646 2.3684-2.1996 3.3654-1.2258 0.97527-3.0566 2.6203-5.2203 2.8772-2.7931 0.33158-3.7256 1.3382-5.2258 2.6216-0.69186 0.59182-1.0142 0.75934-2.6305 0.8721-0.90091 0.06286-0.66796 0.60932-2.6769 0.70286-1.9825 0.09231-3.8218 0.99498-5.002 0.99342-3.3082-0.0043-6.0228-3.461-10.384-3.9397-2.1762-0.23888-4.1911-0.99666-6.1642-1.8226-0.99079-0.41499-1.9412-1.2369-3.0359-1.386-1.3185-0.17882-1.6042-1.021-2.5255-1.3759v-27.11c-0.03131-0.4988 0.3681-0.74389 0.8752-0.73518z" fill="#fff" stroke="#000" stroke-width="2.3447"/>
</svg>
