<svg width="40" height="40" enable-background="new 0 0 600 600" overflow="visible" version="1.1" viewBox="0 0 40 40" xmlns="http://www.w3.org/2000/svg">
 <path d="m4.3805 38.819-0.51003-0.011652-0.3129-0.092718-0.27822-0.22015-0.26661-0.26664-0.1971-0.25498-0.19697-0.37101-0.17385-0.41724-0.092727-0.46373-0.011633-0.49837 0.057949-0.38247 0.12756-0.42883 0.10435-0.3363 1.0084-2.3646 0.93889-1.7851 0.15064-0.2781 0.12758-0.25498 0.081141-0.37095 0.092727-0.4289 0.011634-0.22034v-0.2781l-0.011634-0.22028 0.011634-0.1855-0.011634-0.25505 0.046297-0.26657 0.011633-0.26664 0.081141-0.22015 0.16226-0.25498 0.18547-0.28988 0.10437-0.25498 0.20869-0.33618 0.16226-0.38254 0.11584-0.33618 0.069517-0.24333 0.034834-0.20862 0.2666-2.2256-3.4426 0.01159-0.20872-0.11577-0.17385-0.10438-0.12743-0.05808-0.12756-0.13902-0.092783-0.17392-0.092727-0.24333-0.023248-0.26664 0.53321-3.176 1.0665-0.6955-0.86935-0.76501 0.034834-0.25514 0.011511-0.18534 0.12758-0.16226 0.069479-0.22031 0.058081-0.2666 0.11584-0.1971 0.11597-0.32452v-0.15068l-0.52162-0.12759-0.64924-0.034673-0.37079-0.092717-0.35936-0.10438-0.15083-0.011587-0.046288-0.081159-0.046411-0.10434v-0.1158l0.011633-0.16226 0.058082-0.1508v-0.41727l0.12743-0.35936 0.2666-0.45211 0.116-0.25502 0.20853-0.42886 0.12758-0.28969 0.25498-0.49837 0.19697-0.53324 0.26676-0.53324 0.092594-0.82306-1.1244-0.18534-0.20856-0.54483-0.092727-0.39419-0.10437-0.44052-0.02321-0.28966 0.16223-0.3826v-0.046297l-0.16223-0.28982-0.1158-0.19713-0.058082-0.19694-0.10437-0.24355v-0.17389l-0.01151-0.33611-0.011633-0.19697v-0.1508l0.046297-0.27803 0.11596-0.16245 0.034673-0.092557 0.15083-0.069696 0.12739-0.10418 0.15064-0.31306 0.17388-0.23177 0.23196-0.25501 0.20853-0.23196 0.34773-0.23177 0.22034-0.1971 0.38241-0.023049 0.30147-0.081131 0.51003-0.11596 0.3129-0.10438 0.33611-0.057883 0.4289-0.13921 0.069668-0.081131 0.25501 0.069668 0.2666 0.081131 0.30131 0.057921 0.23174 0.02321 0.63762-0.02321 0.4637-0.12759 0.28969-0.10418 0.27822-0.13921 0.35936-0.25498 0.27823-0.20856 0.75342 0.18531 0.22015 0.011624 0.24358-0.011624 0.28966-0.011463 0.2666-0.069668 0.23193-0.034673 0.18534-0.069507 0.13918-0.13921 0.24339-0.20856 0.26664-0.18547 0.47516-0.02321 0.19713-0.023248 0.23174 0.011624 0.18551 0.011624 0.33611-0.13905 0.15083-0.10434 0.22018-0.092783 0.24339-0.20869 0.25498-0.10418 0.24355-0.23193h23.108c0.90531 0 1.6393 0.73392 1.6393 1.6393v34.359c0 0.90537-0.73396 1.6393-1.6393 1.6393z" clip-rule="evenodd" fill="#fff" fill-rule="evenodd" stroke="#000" stroke-width="2.3626"/>
</svg>
