<svg width="20" height="20" viewBox="0 0 450 450" xmlns="http://www.w3.org/2000/svg">
 <path d="m 124.01582,22.50204 -5.47295,8.39747 -1.7547,2.42313 c -10.22471,14.962 -20.805915,34.48353 -20.805915,42.9485 0,8.4645 2.01794,8.41848 3.509388,11.61462 1.234377,2.64521 1.053557,5.11663 0.877357,7.93781 -0.17904,2.86501 -1.510558,7.6835 -6.976946,10.15245 -5.466579,2.4681 -20.161345,22.34509 -22.100757,27.28108 -1.940365,4.93696 -21.195699,36.58458 -14.831761,44.45155 6.24862,7.72505 10.087803,4.79539 12.90946,4.97156 2.821466,0.17626 4.804516,1.83826 4.804516,1.83826 0,0 0.877356,0.76234 0.877356,3.75999 0,2.99765 -3.439986,6.75087 -4.470158,10.52798 -1.058026,3.87977 -2.482353,10.76279 -0.668451,13.78694 1.617319,2.69673 1.462261,2.44262 1.462261,5.26399 0,2.82137 -2.710616,2.99554 -2.005392,7.22764 0.70531,4.2321 5.135073,3.89137 7.603737,7.77077 2.468665,3.8794 4.738824,4.57825 2.79922,8.10514 -1.673885,3.04326 -4.734641,15.14833 -3.676614,20.26211 1.058121,5.11387 8.268366,7.26938 10.737125,7.26938 2.46895,0 9.846327,-2.06528 12.492105,-0.1262 2.645209,1.93969 4.987429,1.76324 8.648259,4.21955 4.23154,2.84 14.46386,1.15785 16.37665,2.42313 0.22028,0.14546 0.36325,0.31059 0.54313,0.45947 v 8.4392 c -1.20082,3.04536 -2.53645,6.97866 -2.33966,11.11265 0.22666,4.75917 1.15928,11.46345 2.33966,14.99813 l 5.59834,-7.22764 38.85387,4.55381 -41.36085,50.55215 c -6.06361,7.15777 -14.90115,17.54218 -15.95929,18.92544 -4.15678,-0.89447 -5.10251,1.93967 -5.38957,7.22772 -1.7564,5.5874 -5.65957,11.09553 -8.480937,14.6226 -2.821657,3.52707 -7.986391,8.76349 -16.75311,14.07977 -1.285337,0.77947 -11.817113,6.06979 -21.807944,6.4339 V 427.5 H 410.78872 c 9.2585,0 16.71128,-7.45296 16.71128,-16.71128 V 39.21039 c 0,-9.25851 -7.45287,-16.71127 -16.71128,-16.71127 H 124.02171 Z" stroke="#fff" stroke-width="2.139" style="fill:none;stroke:#fff;stroke-width:45;stroke-miterlimit:4;stroke-dasharray:none"/>
 <path d="m 124.01582,22.502044 -5.47295,8.397471 -1.7547,2.423126 c -10.22471,14.962004 -20.805915,34.483532 -20.805915,42.948501 0,8.464494 2.01794,8.418481 3.509388,11.614615 1.234377,2.645208 1.053557,5.116629 0.877357,7.937811 -0.17904,2.865007 -1.510558,7.683502 -6.976946,10.152452 -5.466579,2.4681 -20.161345,22.34509 -22.100757,27.28108 -1.940365,4.93696 -21.195699,36.58458 -14.831761,44.45155 6.24862,7.72505 10.087803,4.79539 12.90946,4.97156 2.821466,0.17626 4.804516,1.83826 4.804516,1.83826 0,0 0.877356,0.76234 0.877356,3.75999 0,2.99765 -3.439986,6.75087 -4.470158,10.52798 -1.058026,3.87977 -2.482353,10.76279 -0.668451,13.78694 1.617319,2.69673 1.462261,2.44262 1.462261,5.26399 0,2.82137 -2.710616,2.99554 -2.005392,7.22764 0.70531,4.2321 5.135073,3.89137 7.603737,7.77077 2.468665,3.8794 4.738824,4.57825 2.79922,8.10514 -1.673885,3.04326 -4.734641,15.14833 -3.676614,20.26211 1.058121,5.11387 8.268366,7.26938 10.737125,7.26938 2.46895,0 9.846327,-2.06528 12.492105,-0.1262 2.645209,1.93969 4.987429,1.76324 8.648259,4.21955 4.23154,2.84 14.46386,1.15785 16.37665,2.42313 0.22028,0.14546 0.36325,0.31059 0.54313,0.45947 v 8.4392 c -1.20082,3.04536 -2.53645,6.97866 -2.33966,11.11265 0.22666,4.75917 1.15928,11.46345 2.33966,14.99813 l 5.59834,-7.22764 38.85387,4.55381 -41.36085,50.55215 c -6.06361,7.15777 -14.90115,17.54218 -15.95929,18.92544 -1.96394,1.71895 -5.01357,-0.66846 -5.01357,-0.66846 0,0 0.67841,4.54165 -0.376,7.89618 -1.7564,5.5874 -5.65957,11.09553 -8.480937,14.6226 -2.821657,3.52707 -7.986391,8.76349 -16.75311,14.07977 -1.285337,0.77947 -11.817113,6.06979 -21.807944,6.4339 V 427.5 H 410.78872 c 9.2585,0 16.71128,-7.45296 16.71128,-16.71128 V 39.210395 c 0,-9.258513 -7.45287,-16.711279 -16.71128,-16.711279 H 124.02171 Z" style="stroke:none;fill:#006747"/>
 <path d="m 225.04595,170.15701 c -0.0558,-5.83601 -1.44429,-11.06035 -4.16489,-15.67216 -2.7207,-4.6122 -6.43819,-8.17824 -11.15258,-10.69816 -2.89504,-1.50332 -6.73746,-2.99686 -11.52715,-4.48061 -4.78988,-1.48365 -10.68483,-2.93773 -17.68479,-4.36225 -6.43143,-1.42766 -10.85976,-2.99364 -13.28403,-4.69785 -2.42465,-1.70403 -3.57603,-3.98046 -3.45425,-6.82949 0.0395,-3.4245 1.53955,-6.08929 4.5003,-7.99419 2.96074,-1.90471 7.14531,-2.87186 12.5539,-2.90161 4.99047,8e-5 9.61626,0.86857 13.87631,2.60547 4.26015,1.7371 8.05645,4.34257 11.3893,7.8165 l 14.0541,-12.63281 c -5.35915,-5.51345 -11.30089,-9.6058 -17.82455,-12.277253 -6.52365,-2.671162 -13.68902,-4.000325 -21.49421,-3.987205 -10.9092,0.128495 -19.64702,2.832589 -26.21251,8.112558 -6.56624,5.28015 -9.93474,12.36661 -10.10587,21.25749 -1e-5,3.33921 0.55267,6.53022 1.65802,9.57348 1.10537,3.04307 2.76338,5.79989 4.97411,8.27045 2.12195,2.48055 4.78656,4.50705 7.99419,6.07949 3.20745,1.57254 7.4908,2.9675 12.84956,4.18458 l 5.05313,1.57909 4.89522,1.10538 4.89521,1.42119 c 2.3619,0.56588 4.58576,1.21071 6.67158,1.93428 2.08563,0.72379 4.07267,1.44752 5.96113,2.17128 2.21055,1.11203 3.86856,2.48055 4.97412,4.10557 1.10528,1.62521 1.65801,3.46746 1.65801,5.52676 -0.12178,4.02666 -2.28651,7.30331 -6.4939,9.83016 -4.20776,2.52657 -9.72749,3.8293 -16.56107,3.90821 -5.86568,0.0198 -11.06987,-1.04615 -15.61323,-3.19756 -4.54317,-2.15152 -8.76063,-5.50699 -12.65277,-10.06689 l -15.15975,11.84278 c 5.86891,6.85906 12.36946,11.97113 19.50061,15.33658 7.13219,3.36536 15.21204,5.04323 24.23887,5.03325 4.9379,-0.0105 9.70752,-0.62176 14.31078,-1.83569 4.6023,-1.21394 8.78022,-2.97063 12.53393,-5.27007 9.92143,-5.81634 14.86979,-14.07976 14.84317,-24.79217 z m 69.1534,60.84435 v -18.63263 h -79.42754 v 18.63263 h 30.47541 v 87.16618 h 18.47482 v -87.16618 z m 71.99597,171.26733 v -18.94827 h -59.84801 v -28.89726 h 31.58106 v -19.4217 h -31.58106 v -19.57952 h 57.95138 V 296.47368 H 287.08152 V 402.27629 Z M 181.11443,300.57307 a 26.534789,26.533839 0 1 1 -53.06957,0 26.534789,26.533839 0 1 1 53.06957,0 z" fill="#fff" style="stroke-width:.950688"/>
 <path d="m 175.1631,300.65863 a 20.599614,20.599614 0 1 1 -41.19828,0 20.599614,20.599614 0 1 1 41.19828,0 z" fill="#fff" style="stroke-width:.950688"/>
 <path d="m 172.39658,300.65863 a 17.80648,17.80648 0 1 1 -35.61296,0 17.80648,17.80648 0 1 1 35.61296,0 z" style="stroke-width:.950688;fill:#006747"/>
 <path style="stroke-width:.0422528;fill:#fff" d="M 5.5039062 1.5917969 L 5.4941406 1.9765625 L 15.794922 2 L 15.794922 1.5917969 L 5.5039062 1.5917969 z M 4.6835938 2.7539062 C 4.6641649 2.79737 4.6500051 2.8011298 4.6367188 2.8457031 C 4.5945103 2.9872972 4.5761719 3.2480469 4.5761719 3.2480469 L 15.794922 3.2480469 L 15.794922 2.7792969 L 4.6835938 2.7539062 z" transform="scale(22.5)"/>
 <path style="stroke-width:.950688;fill:#006747" d="m 91.758802,364.36456 c 8.800368,1.20643 10.801768,10.76089 10.010788,16.3215 -0.74059,5.18431 -6.333984,12.8372 -10.283637,17.28074 -3.949939,4.44372 -12.096617,9.38115 -16.540156,10.86261 -4.443728,1.48128 -9.557315,2.32007 -12.77541,2.28357 -2.749023,-0.0312 -7.093596,-0.57943 -10.039317,-2.25324 -0.939703,-0.53395 -2.87366,-1.80431 -4.257488,-3.35489 -0.494598,-0.7867 0.280663,-2.45308 1.51702,-2.23214 1.306063,0.23342 1.651545,1.15537 3.740692,2.17737 2.055398,1.00545 3.614535,1.27669 5.093623,1.22355 3.048206,-0.10961 3.900311,-0.50501 5.223771,-1.34409 1.23438,-0.98749 -0.17024,-1.45742 -0.899203,-1.58947 -2.399358,-0.43462 -3.489803,-0.37475 -5.33082,-0.63119 -1.61209,-0.22454 -4.032554,-0.63215 -5.83098,-2.04579 -0.490614,-0.38562 -2.048743,-1.46863 -2.701109,-3.12502 -0.451246,-1.14578 0.04192,-1.9782 0.04192,-1.9782 0.798829,-1.86992 2.335377,-0.66051 2.669546,-0.011 1.500954,2.91682 6.987973,4.14825 10.083048,3.47421 1.433835,-0.31232 2.573621,-0.60021 3.365929,-1.01382 1.862598,-0.97228 3.831102,-3.10306 1.850904,-3.97323 -0.981781,-0.43148 -2.498706,-0.4539 -5.439675,-0.50904 -3.267626,-0.0612 -6.105445,-0.55126 -7.32794,-1.90785 -0.671684,-0.74533 -0.479035,-2.02888 0.04326,-2.43453 0.826095,-0.82353 2.921385,0.19623 6.130734,0.19623 2.282138,0 4.851385,-0.88716 6.219812,-1.66732 0.955447,-0.54473 2.497185,-1.88513 3.323528,-3.58383 0.347012,-0.71332 0.955446,-1.77438 1.292086,-3.02863 0.336916,-1.25549 0.683245,-2.1788 0.919644,-3.03993 1.308534,-4.76697 4.856615,-8.74134 7.121925,-10.84741 3.649806,-3.15706 8.881183,-4.07962 12.779214,-3.24909 z"/>
 <path d="m 100.72859,364.67829 35.79739,-43.02646 m -43.026459,36.67773 35.267859,-43.02646 15.51816,12.69651 -36.32598,43.02645 -7.23002,-6.34825 z" fill="#fff" stroke-width="2.792" style="stroke:#006747"/>
</svg>
