<svg width="50" height="40" version="1.1" viewBox="0 0 50 40" xmlns="http://www.w3.org/2000/svg">
 <path d="m25 1.4604c-2.3369 1.4221-5.0917 2.2428-8.0412 2.2428s-5.7043-0.82087-8.0412-2.243l-7.3979 7.2801c1.3614 1.9043 2.1607 4.2258 2.1607 6.7311 0 1.808-0.41629 3.5203-1.1597 5.0491-0.6417 1.3211-1.001 2.8006-1.001 4.3626 0 5.5941 4.6082 10.129 10.293 10.129h6.4404c2.7239 0 5.155 1.2341 6.7472 3.1651 1.5922-1.9311 4.0232-3.1651 6.7472-3.1651h6.4404c5.6846 0 10.293-4.5347 10.293-10.129 0-1.562-0.35928-3.0415-1.001-4.3626-0.74344-1.5288-1.1597-3.2411-1.1597-5.0491 0-2.5053 0.79929-4.8269 2.1607-6.7311l-7.3979-7.2801c-2.3369 1.4221-5.0917 2.243-8.0412 2.243-2.9496 0-5.7043-0.82075-8.0412-2.2428z" fill="#fff" fill-rule="evenodd" stroke="#000" stroke-width="2.319"/>
</svg>
