<?xml version="1.0" encoding="UTF-8"?>
<svg viewBox="0 0 450 450" width="20" height="20" version="1.1" xmlns="http://www.w3.org/2000/svg">
 <g transform="translate(-337.14 -161.03)">
  <rect x="337.39" y="161.28" width="449.5" height="449.5" ry="25.226" fill="#fff" stroke="#000" stroke-width=".49945"/>
  <rect x="349.14" y="173.03" width="426" height="426" ry="17.579" fill="#006e55"/>
  <g fill="#fff">
   <g>
    <path d="m517.53 330.9c-0.0333-3.4745-0.85988-6.5847-2.4796-9.3307-1.6198-2.7459-3.833-4.869-6.6396-6.3693-1.7236-0.89504-4.0112-1.7842-6.8629-2.6676-2.8517-0.88328-6.3615-1.749-10.529-2.5971-3.829-0.84999-6.4653-1.7823-7.9088-2.7969-1.4435-1.0145-2.129-2.3698-2.0565-4.066 0.0235-2.0388 0.9166-3.6253 2.6793-4.7594 1.7627-1.134 4.254-1.7098 7.474-1.7275 2.9711 5e-5 5.7249 0.51712 8.2613 1.5512 2.5363 1.0342 4.7965 2.5854 6.7806 4.6536l8.3671-7.521c-3.1906-3.2825-6.7278-5.719-10.612-7.3094-3.8839-1.5903-8.1497-2.3816-12.797-2.3738-6.4947 0.0765-11.697 1.6864-15.606 4.8299-3.9093 3.1436-5.9149 7.3624-6.0168 12.656-1e-5 1.988 0.32903 3.8878 0.98713 5.6995 0.65807 1.8117 1.6452 3.453 2.9614 4.9239 1.2633 1.4768 2.8497 2.6833 4.7594 3.6195 1.9096 0.93623 4.4597 1.7667 7.6502 2.4913l3.0084 0.94012 2.9144 0.65808 2.9144 0.84611c1.4062 0.3369 2.7302 0.72078 3.972 1.1516 1.2417 0.43091 2.4247 0.8618 3.549 1.2927 1.3161 0.66203 2.3032 1.4768 2.9614 2.4443 0.65804 0.96756 0.98708 2.0644 0.98713 3.2904-0.0725 2.3973-1.3613 4.3481-3.8662 5.8522-2.5051 1.5042-5.7916 2.2798-9.8595 2.3268-3.4922 0.0118-6.5906-0.62282-9.2954-1.9037-2.7048-1.2809-5.2157-3.2786-7.5327-5.9933l-9.0252 7.0509c3.4941 4.0836 7.3643 7.1273 11.61 9.1309 4.2462 2.0036 9.0565 3.0025 14.431 2.9966 2.9398-6e-3 5.7797-0.37017 8.5198-1.0929 2.74-0.72272 5.2274-1.7686 7.4622-3.1376 5.907-3.4628 8.8527-8.3827 8.8371-14.76z" />
    <g fill="#fff">
     <path d="m550.82 318.46c-0.0999-5.1354-1.5571-9.407-4.3716-12.815-2.8145-3.4079-6.387-5.1765-10.717-5.3058-4.3304 0.12931-7.9029 1.8979-10.717 5.3058-2.8145 3.408-4.2717 7.6796-4.3716 12.815 0.0999 5.1016 1.5571 9.3527 4.3716 12.753 2.8145 3.4006 6.3869 5.1662 10.717 5.297 4.3304-0.13074 7.9029-1.8964 10.717-5.297 2.8144-3.4006 4.2716-7.6517 4.3716-12.753zm-8.6021 0c-0.0235 2.7807-0.6111 5.0811-1.7627 6.9011-1.1517 1.82-2.7264 2.7631-4.7241 2.8292-2.0345-0.0661-3.6415-1.0092-4.821-2.8292-1.1796-1.82-1.7818-4.1204-1.8068-6.9011 0.025-2.8086 0.62722-5.106 1.8068-6.8922 1.1795-1.7862 2.7866-2.7087 4.821-2.7675 1.9977 0.0588 3.5724 0.98128 4.7241 2.7675 1.1516 1.7862 1.7392 4.0837 1.7627 6.8922z"/>
     <path d="m586.41 335.66v-34.338h-7.897v20.73c-0.0544 1.6438-0.70364 3.0627-1.9478 4.257-1.2442 1.1942-2.7572 1.82-4.539 1.8773-1.9214-0.0323-3.4197-0.61988-4.4949-1.7627-1.0753-1.1428-1.6217-2.647-1.6393-4.5126v-20.589h-8.4611v23.762c0.0588 3.2684 1.228 5.9154 3.5078 7.9411 2.2798 2.0257 5.3175 3.0686 9.1133 3.1288 1.5336 0.0441 2.8203-0.13221 3.8604-0.52882 1.04-0.39662 2.5736-1.278 4.6007-2.6441v2.6793z"/>
     <path d="m613.66 326.21c-0.7007 0.6625-1.3088 1.1355-1.8244 1.419-0.51561 0.28351-1.1766 0.42159-1.9831 0.41424-1.2383 1e-3 -2.1814-0.42451-2.8292-1.278-0.64782-0.85345-0.97392-2.1432-0.97832-3.8692v-13.608h7.1214v-7.9675h-7.1214v-13.749l-8.6021 3.1729v10.576h-5.6407v7.9675h5.6407v16.57c0.0191 3.2816 0.77412 5.8669 2.2651 7.756 1.491 1.889 3.6033 2.8527 6.337 2.8909 1.1458-6e-3 2.221-0.1704 3.2258-0.49356 1.0047-0.32317 2.0447-0.76973 3.12-1.3397z"/>
     <path d="m649.96 335.66v-23.691c-0.0588-3.3844-1.2281-6.1519-3.5078-8.3024-2.2798-2.1505-5.3176-3.261-9.1133-3.3316-1.2751-0.0381-2.6382 0.16162-4.0895 0.59933-1.4513 0.43778-2.744 1.3426-3.878 2.7146v-16.076l-8.4611 3.1729v44.914h8.4611v-20.236c0.0764-2.528 0.75208-4.2761 2.0271-5.2441 1.275-0.968 2.6911-1.4292 4.2482-1.3837 1.8068 0.0456 3.3051 0.65958 4.4949 1.842 1.1898 1.1825 1.8068 2.6603 1.8509 4.4332v20.589z"/>
     <path d="m683.01 321.07v-2.4678c-0.0279-2.2313-0.43043-4.5199-1.2075-6.8658-0.7771-2.3459-1.7613-4.2643-2.9526-5.7553-1.325-1.7318-2.888-3.0451-4.6888-3.9397-1.8009-0.89455-3.7164-1.344-5.7465-1.3485-4.2232 0.11461-7.7105 1.8244-10.462 5.1295-2.7513 3.3051-4.1762 7.518-4.2746 12.639 0.0999 5.1633 1.5571 9.432 4.3716 12.806 2.8145 3.3742 6.3869 5.1222 10.717 5.2441 2.102-0.0132 4.0851-0.48034 5.9492-1.4014 1.864-0.92102 3.477-2.2166 4.8387-3.8868 0.0646-0.0984 0.11161-0.16599 0.14102-0.20272 0.0293-0.0367 0.0763-0.0867 0.14101-0.14983l-5.6407-5.0061c-0.81235 0.91957-1.6732 1.6188-2.5824 2.0976-0.90929 0.47888-1.8582 0.71978-2.8468 0.72271-1.513-0.0206-2.8586-0.59638-4.0366-1.7275-1.1781-1.1311-1.9948-2.694-2.4502-4.6888-0.0646-0.32756-0.11165-0.55378-0.14102-0.67865-0.0294-0.12485-0.0764-0.29818-0.14102-0.52001zm-8.2496-6.6278h-12.269c0.56994-2.3532 1.3867-3.9749 2.4502-4.8651 1.0635-0.89015 2.3385-1.3132 3.8251-1.2692 1.4484-0.0529 2.6235 0.35257 3.5254 1.2163 0.90191 0.86376 1.7245 2.5031 2.4678 4.918z"/>
     <path d="m710.89 302.66c-0.96365-0.73003-1.9625-1.2442-2.9966-1.5424-1.0342-0.29816-2.2446-0.44212-3.6312-0.43187-1.3647-0.022-2.531 0.18071-3.499 0.60814-0.96805 0.42749-2.011 1.2119-3.1288 2.3532v-2.4678h-8.4611v34.479h8.4611v-20.236c-7e-3 -0.63163 0.13073-1.4484 0.41424-2.4502 0.28349-1.0018 0.75649-1.7833 1.419-2.3444 0.58022-0.56992 1.253-1.0165 2.0183-1.3397 0.76529-0.32314 1.5262-0.48766 2.2827-0.49356 0.9166 3e-3 1.7451 0.17336 2.4854 0.51119 0.74032 0.33788 1.3925 0.82557 1.9566 1.4631z"/>
     <path d="m745.35 335.66v-24.044c-0.0588-3.2992-1.2281-5.955-3.5078-7.9675-2.2798-2.0124-5.3176-3.0466-9.1133-3.1024-1.6731 7e-3 -3.2096 0.30998-4.6095 0.9078-1.3999 0.5979-2.5662 1.4469-3.499 2.5471v-2.8204h-8.4611v34.479h8.4611v-20.73c0.0396-1.7201 0.63016-3.2155 1.7715-4.4861 1.1413-1.2706 2.5956-1.9375 4.3627-2.0007 1.9272 0.0323 3.449 0.63754 4.5654 1.8156 1.1164 1.1781 1.6863 2.7352 1.7098 4.6712v20.73z"/>
    </g>
    <path d="m582.42 388.27v-11.093h-47.288v11.093h18.144v51.895h10.999v-51.895z" />
    <g fill="#fff">
     <path d="m596.77 382.66c-0.0338-1.1913-0.45979-2.1754-1.278-2.9526-0.81821-0.77702-1.8259-1.1795-3.0231-1.2075-1.2589 0.0279-2.2842 0.43044-3.076 1.2075-0.79176 0.77712-1.2001 1.7613-1.2251 2.9526 0.025 1.2589 0.43333 2.2842 1.2251 3.076 0.79175 0.79179 1.8171 1.2002 3.076 1.2251 1.1972-0.0337 2.2049-0.45973 3.0231-1.278 0.81818-0.81816 1.2442-1.8258 1.278-3.0231zm0 9.4482h-8.4611v34.479h8.4611z"/>
     <path d="m631.32 412v-2.4678c-0.0279-2.2313-0.43043-4.5199-1.2075-6.8658-0.7771-2.3459-1.7613-4.2643-2.9526-5.7553-1.325-1.7318-2.888-3.0451-4.6888-3.9397-1.8009-0.89455-3.7164-1.344-5.7465-1.3485-4.2232 0.11461-7.7105 1.8244-10.462 5.1295-2.7513 3.3051-4.1762 7.518-4.2746 12.639 0.0999 5.1633 1.5571 9.432 4.3716 12.806 2.8145 3.3742 6.3869 5.1222 10.717 5.2441 2.102-0.0132 4.0851-0.48034 5.9492-1.4014 1.8641-0.92102 3.477-2.2166 4.8387-3.8868 0.0646-0.0984 0.11161-0.16598 0.14102-0.20271 0.0294-0.0367 0.0764-0.0867 0.14102-0.14983l-5.6407-5.0061c-0.81235 0.91956-1.6732 1.6188-2.5824 2.0976-0.90929 0.47888-1.8582 0.71979-2.8468 0.72272-1.513-0.0206-2.8586-0.59638-4.0366-1.7275-1.1781-1.1311-1.9948-2.694-2.4502-4.6888-0.0647-0.32756-0.11165-0.55377-0.14102-0.67865-0.0294-0.12484-0.0764-0.29818-0.14102-0.52zm-8.2496-6.6278h-12.269c0.56993-2.3532 1.3867-3.9749 2.4502-4.8651 1.0635-0.89015 2.3385-1.3132 3.8251-1.2692 1.4484-0.0529 2.6235 0.35257 3.5254 1.2163 0.90191 0.86376 1.7245 2.5031 2.4678 4.918z"/>
     <path d="m657.06 393.59c-0.96364-0.73003-1.9625-1.2442-2.9966-1.5424-1.0342-0.29816-2.2446-0.44211-3.6312-0.43186-1.3647-0.022-2.531 0.18071-3.499 0.60814-0.96804 0.42749-2.011 1.2119-3.1288 2.3532v-2.4678h-8.4611v34.479h8.4611v-20.236c-7e-3 -0.63162 0.13072-1.4484 0.41424-2.4502 0.28349-1.0018 0.75649-1.7833 1.419-2.3444 0.58022-0.56992 1.253-1.0165 2.0183-1.3397 0.7653-0.32314 1.5262-0.48766 2.2827-0.49356 0.91659 3e-3 1.7451 0.17336 2.4854 0.51119 0.74032 0.33788 1.3925 0.82557 1.9566 1.4631z"/>
    </g>
    <path d="m659.19 527.71v-11.281h-35.631v-17.204h18.802v-11.563h-18.802v-11.657h34.502v-11.281h-45.972v62.988z" />
    <g fill="#fff">
     <path d="m695.88 514.14-12.41-19.39 9.5892-15.089h-9.4482l-5.0061 7.615-4.7946-7.615h-9.5892l9.8008 15.089-12.621 19.39h9.5892l7.615-11.916 7.8265 11.916z"/>
     <path d="m727.97 496.93c-0.11167-4.9665-1.4925-9.1353-4.1424-12.507-2.65-3.3712-5.8993-5.1251-9.7479-5.2617-1.441-0.0308-2.6309 0.15427-3.5695 0.55525-0.93867 0.40106-2.0756 1.2031-3.4109 2.4061v-2.4678h-8.4611v48.581l8.4611-3.1729v-13.397c1.4895 1.2706 2.6705 2.1138 3.5431 2.5295 0.87253 0.41571 2.0183 0.60667 3.4373 0.57289 3.8486-0.14396 7.0979-1.9184 9.7479-5.3234 2.6499-3.405 4.0307-7.5768 4.1424-12.515zm-8.2496 0c-0.05 2.7807-0.7433 5.0811-2.08 6.9011-1.3368 1.82-3.0172 2.7631-5.0414 2.8292-1.2251 0.0176-2.2299-0.2644-3.0143-0.84611-0.78443-0.58169-1.6129-1.5688-2.4854-2.9614-2e-5 -0.14188-2e-5 -1.1273 0-2.9562-2e-5 -1.8289-2e-5 -3.6499 0-5.4631-2e-5 -1.8132-2e-5 -2.7672 0-2.8621 0.56405-1.419 1.3044-2.5119 2.221-3.2787 0.9166-0.76676 2.0095-1.1546 3.2787-1.1634 2.0242 0.0647 3.7046 1.0106 5.0414 2.838 1.3367 1.8274 2.03 4.1483 2.08 6.9628z"/>
     <path d="m765.92 479.66h-8.6021l-8.9546 23.691-10.153-23.691h-8.6021l14.736 34.479-4.9356 13.115h8.6021z"/>
    </g>
   </g>
   <path d="m368.34 181.85c-5.5222 0-9.9155 4.485-9.9155 10.007v388.45c0 5.5222 4.3938 9.8384 9.9155 9.9154l17.885 0.24972c11.038 0.33183 23.453-6.0742 24.888-6.9445 9.2215-5.5915 14.653-11.111 17.621-14.821 2.9678-3.7097 7.0537-9.4797 8.9012-15.357 1.1091-3.5284 0.38239-8.3366 0.38239-8.3366s3.2265 2.5387 5.2923 0.73057c1.1137-1.4548 10.403-12.389 16.781-19.918l43.496-53.162-40.848-4.801-5.8941 7.5974c-1.2415-3.7182-2.2405-10.785-2.4789-15.791-0.20712-4.3488 1.2158-8.4566 2.4789-11.66v-8.9056c-0.1892-0.15658-0.31915-0.30577-0.55086-0.45905-2.012-1.3309-12.809 0.41657-17.26-2.5707-3.8505-2.5838-6.3069-2.3666-9.0892-4.4069-2.7822-2.0406-10.532 0.0917-13.129 0.0917-2.5968 0-10.18-2.2412-11.293-7.6202-1.1129-5.379 2.0953-18.099 3.856-21.3 2.0403-3.7097-0.34115-4.4577-2.9379-8.5383-2.5968-4.0806-7.2455-3.7194-7.9874-8.1711-0.74192-4.4516 2.1116-4.6525 2.1116-7.6202 0-2.9678 0.14043-2.672-1.5608-5.5086-1.908-3.1814-0.3784-10.425 0.73448-14.506 1.0836-3.9733 4.6823-7.9558 4.6823-11.109 0-3.1532-0.91809-3.9478-0.91809-3.9478s-2.0818-1.7426-5.0495-1.928c-2.9677-0.18538-7.0152 2.8924-13.588-5.2332-6.6939-8.2755 13.567-41.538 15.608-46.731 2.0403-5.1936 17.478-26.14 23.228-28.736 5.75-2.5968 7.1565-7.6364 7.3448-10.65 0.18539-2.9677 0.38029-5.5724-0.91809-8.3547-1.5688-3.3616-3.6724-3.3075-3.6724-12.211 0-8.9032 11.096-29.432 21.851-45.17l1.8392-2.5831c-2.2147-1e-3 -0.85561 0.0118-3.3081 0.0118h-78.497z"/>
   <path transform="matrix(3.0073 0 0 2.7979 -680.93 -1106)" d="m398 561.68a9.2808 9.9753 0 1 1-18.562 0 9.2808 9.9753 0 1 1 18.562 0z"/>
  </g>
  <g>
   <path transform="matrix(2.6908 0 0 2.5034 -557.88 -940.53)" d="m398 561.68a9.2808 9.9753 0 1 1-18.562 0 9.2808 9.9753 0 1 1 18.562 0z" fill="#006e55"/>
   <path transform="matrix(2.3346 0 0 2.1721 -419.45 -754.42)" d="m398 561.68a9.2808 9.9753 0 1 1-18.562 0 9.2808 9.9753 0 1 1 18.562 0z" fill="#fff"/>
   <path transform="matrix(2.0181 0 0 1.8776 -296.39 -589)" d="m398 561.68a9.2808 9.9753 0 1 1-18.562 0 9.2808 9.9753 0 1 1 18.562 0z" fill="#006e55"/>
  </g>
  <g fill="#fff">
   <rect transform="matrix(.99619 -.087156 .087156 .99619 0 0)" x="443.06" y="494.61" width="5.1413" height="23.503"/>
   <rect transform="matrix(.087156 .99619 -.99619 .087156 0 0)" x="503.79" y="-457.38" width="5.1413" height="23.503"/>
   <rect transform="matrix(.94993 -.31247 .31247 .94993 0 0)" x="316.67" y="574.23" width="2.9379" height="41.131"/>
   <rect transform="matrix(-.98976 -.14277 -.14277 .98976 0 0)" x="-551.01" y="370.58" width="2.9379" height="41.131"/>
   <rect transform="matrix(.14277 -.98976 -.98976 -.14277 0 0)" x="-392.61" y="-570.11" width="2.9379" height="41.131"/>
   <rect transform="matrix(.31247 .94993 -.94993 .31247 0 0)" x="593.32" y="-338.71" width="2.9379" height="41.131"/>
   <path transform="matrix(2.9267 -.25606 .25606 2.9267 -854.55 -1076.9)" d="m409.5 562.86a7.0061e-6 1.3174e-5 0 1 1-2e-5 0 7.0061e-6 1.3174e-5 0 1 1 2e-5 0z"/>
  </g>
  <path transform="matrix(4.9169 -.43017 .40969 4.6828 -1811.5 -1978)" d="m421.43 560.51a0.44643 0.46875 0 1 1-0.89286 0 0.44643 0.46875 0 1 1 0.89286 0z" fill="#006e55"/>
  <path d="m423.82 526.27 37.097-45.258 16.323 13.355-38.21 45.258z" fill-opacity="0" stroke="#006e55" stroke-width="2.9379px"/>
  <g fill="none" stroke="#006e55">
   <g stroke-width="2.9379px">
    <path d="m456.83 493.25 16.68-1.6281"/>
    <path d="m458.22 503.54-3.2076-14.436"/>
    <path d="m470 502.52-22.009 2.6511"/>
    <path d="m464.86 484.43 2.0085 9.1694"/>
    <path d="m446.14 499.88 4.2793 16.589"/>
    <path d="m440.16 518 19.208-2.4881"/>
   </g>
   <path d="m437.98 509.61 6.9316 23.303" stroke-width="2.9379px"/>
   <path d="m434.61 530.3 9.3198-1.5651" stroke-width="2.9379px"/>
   <path d="m430.6 518.43 3.6235 11.264" stroke-width="2.9379px"/>
  </g>
  <path d="m699.3 226.23h-265.52s0.44415-6.1868 1.4431-9.5379c1.5644-5.2483 5.5773-10.75 5.5773-10.75l14.656-8.1049 0.26618-10.819h243.58z" fill="#fff"/>
  <g fill="#006e55">
   <g>
    <path d="m640.35 195.07 13.503 10.341-13.503 10.693-13.503-10.693z" stroke-width="0"/>
    <path d="m616.99 205.41 11.384 9.7318h-8.8137v5.1413l-18.362-14.873 18.362-13.955v5.2332h8.8152z" stroke="#006e55" stroke-width=".58758"/>
    <path d="m663.71 205.41-11.384 9.7318h8.8137v5.1413l18.362-14.873-18.362-13.955v5.2332h-8.8152z" stroke="#006e55" stroke-width=".58758"/>
    <path d="m557.83 194.65 13.503 10.341-13.503 10.693-13.503-10.693z" stroke-width="0"/>
    <path d="m534.47 204.99 11.384 9.7318h-8.8137v5.1413l-18.362-14.873 18.362-13.955v5.2332h8.8152z" stroke="#006e55" stroke-width=".58758"/>
    <path d="m581.19 204.99-11.384 9.7318h8.8137v5.1413l18.362-14.873-18.362-13.955v5.2332h-8.8152z" stroke="#006e55" stroke-width=".58758"/>
    <path d="m476.25 194.46 13.503 10.341-13.503 10.693-13.503-10.693z" stroke-width="0"/>
   </g>
   <g stroke="#006e55" stroke-width=".58758">
    <path d="m452.89 204.8 11.384 9.7318h-8.8137v5.1414l-18.362-14.873 18.362-13.955v5.2332h8.8152z"/>
    <path d="m499.61 204.8-11.384 9.7318h8.8137v5.1414l18.362-14.873-18.362-13.955v5.2332h-8.8152z"/>
    <path d="m699.09 205.91 11.384 9.7318h-8.8137v5.1414l-18.362-14.873 18.362-13.955v5.2332h8.8152z"/>
   </g>
   <path d="m421.99 532.62c9.2568 1.269 11.362 11.319 10.53 17.168-0.77901 5.4532-6.6625 13.503-10.817 18.177-4.1548 4.6742-12.724 9.8677-17.398 11.426-4.6742 1.5581-10.053 2.4404-13.438 2.402-2.8916-0.0328-7.4615-0.60948-10.56-2.3701-0.98844-0.56165-3.0227-1.8979-4.4783-3.5289-0.52025-0.8275 0.29522-2.5803 1.5957-2.3479 1.3738 0.24552 1.7372 1.2153 3.9347 2.2903 2.162 1.0576 3.802 1.3429 5.3578 1.287 3.2063-0.11529 4.1026-0.5312 5.4947-1.4138 1.2984-1.0387-0.17907-1.533-0.94584-1.6719-2.5238-0.45716-3.6708-0.39418-5.6073-0.66392-1.6957-0.23619-4.2417-0.66494-6.1334-2.1519-0.51606-0.40562-2.155-1.5448-2.8412-3.2871-0.47465-1.2052 0.0441-2.0808 0.0441-2.0808 0.84026-1.9669 2.4565-0.69477 2.808-0.0116 1.5788 3.0681 7.3504 4.3634 10.606 3.6544 1.5082-0.32852 2.7071-0.63134 3.5405-1.0664 1.9592-1.0227 4.0298-3.264 1.9469-4.1793-1.0327-0.45386-2.6283-0.47744-5.7218-0.53544-3.4371-0.0644-6.4221-0.57986-7.708-2.0068-0.70652-0.78398-0.50388-2.1341 0.0455-2.5608 0.86894-0.86624 3.0729 0.20641 6.4487 0.20641 2.4005 0 5.103-0.93317 6.5424-1.7538 1.005-0.57298 2.6267-1.9829 3.4959-3.7697 0.36501-0.75031 1.005-1.8664 1.3591-3.1857 0.35439-1.3206 0.71868-2.2918 0.96734-3.1976 1.3764-5.0142 5.1085-9.1947 7.4913-11.41 3.8391-3.3208 9.3418-4.2912 13.442-3.4176z"/>
  </g>
  <path d="m435.58 529.71c-1.4723 0.19843-2.5247 1.6567-3.3314 3.852" fill="none" stroke="#006e55" stroke-width="2.9379px"/>
 </g>
</svg>
