<svg width="14" height="20" xmlns="http://www.w3.org/2000/svg">
 <path d="M 7,0 C 5.47039,0.5828 4.10754,1.49 2.9998,2.6349 1.14023,4.5568 0,7.1484 0,9.9999 0,12.8515 1.14023,15.4431 2.9998,17.365 4.10754,18.5099 5.47039,19.4171 7,20 8.52948,19.4172 9.8925,18.5101 11.0002,17.3654 v -4e-4 C 12.85977,15.4431 14,12.8514 14,9.9999 14,7.1484 12.85977,4.5567 11.0002,2.6348 v -4e-4 C 9.8925,1.4898 8.52948,0.5827 7,0 Z" style="fill:#fff;fill-opacity:1;fill-rule:nonzero;stroke:none;stroke-width:.0395089"/>
 <path d="m 6.999995,1.0574 c 1.30796,0.5571 2.46891,1.3781 3.41285,2.395 1.42269,1.5325 2.35247,3.5095 2.54861,5.6967 0.25245,2.815 -0.7473,5.4551 -2.54861,7.3972 -0.9404,1.0139 -2.09937,1.8374 -3.41285,2.3963 -1.31347,-0.5589 -2.47244,-1.3824 -3.41284,-2.3963 -1.80131,-1.9421 -2.80106,-4.5822 -2.54861,-7.3972 0.19614,-2.1872 1.12593,-4.1642 2.54861,-5.6967 0.94393,-1.0169 2.10489,-1.8379 3.41284,-2.395 z" style="fill:#003f87;fill-opacity:1;fill-rule:nonzero;stroke:none;stroke-width:.0395089"/>
</svg>
