<svg id="pennsylvaniaTurnpike" width="40" height="40" version="1.1" xmlns="http://www.w3.org/2000/svg">
 <path id="pennsylvaniaTurnpike-keystone" d="m6.0648 5e-7 0.87963 6.3371h-6.9444l3.9352 33.663h32.13l3.9352-33.663h-6.9444l0.87963-6.3371z" fill="#006b54" stroke="#fff" stroke-linejoin="round" stroke-width="0"/>
 <g transform="matrix(1.1136 0 0 1.9062 -5.4005 -6.0342)" fill="#fff" aria-label="TURN PIKE">
  <path d="m14.206 8.8204h-2.1439v5.5371h-1.7704v-5.5371h-2.1439v-1.3278h6.0581z" style="font-variant-caps:normal;font-variant-east-asian:normal;font-variant-ligatures:normal;font-variant-numeric:normal"/>
  <path d="m21.283 11.872q0 1.2725-0.77456 1.9502t-2.2822 0.67774-2.2822-0.67774q-0.76994-0.67774-0.76994-1.9456v-4.3845h1.7796v4.2831q0 0.71462 0.29968 1.065t0.9728 0.35039q0.6639 0 0.96819-0.33656 0.3089-0.33656 0.3089-1.0788v-4.2831h1.7796z" style="font-variant-caps:normal;font-variant-east-asian:normal;font-variant-ligatures:normal;font-variant-numeric:normal"/>
  <path d="m26.788 9.5949q0-0.25819-0.10604-0.4426-0.10604-0.18442-0.36423-0.29046-0.17981-0.073767-0.41955-0.087598-0.23974-0.018442-0.55786-0.018442h-0.64085v1.8488h0.54403q0.42416 0 0.71001-0.04149 0.28585-0.0415 0.47949-0.18903 0.18442-0.14292 0.26741-0.31351 0.0876-0.1752 0.0876-0.46566zm2.7617 4.7626h-2.1623l-1.8718-2.5173h-0.81605v2.5173h-1.7612v-6.865h2.9691q0.60858 0 1.0466 0.069157 0.43799 0.069157 0.82066 0.29968 0.38728 0.23052 0.61319 0.59936 0.23052 0.36423 0.23052 0.91748 0 0.76072-0.355 1.2402-0.35039 0.47949-1.0051 0.79761z" style="font-variant-caps:normal;font-variant-east-asian:normal;font-variant-ligatures:normal;font-variant-numeric:normal"/>
  <path d="m36.566 14.358h-1.7059l-2.9138-4.7119v4.7119h-1.6229v-6.865h2.1162l2.5035 3.9327v-3.9327h1.6229z" style="font-variant-caps:normal;font-variant-east-asian:normal;font-variant-ligatures:normal;font-variant-numeric:normal"/>
  <path d="m16.34 18.63q0 0.46104-0.16137 0.90365-0.16136 0.43799-0.46104 0.73767-0.41033 0.40572-0.91748 0.61319-0.50254 0.20747-1.254 0.20747h-1.1019v2.2361h-1.7704v-6.865h2.9138q0.65468 0 1.1019 0.11526 0.45182 0.11065 0.79761 0.33656 0.41494 0.27202 0.63163 0.69618 0.2213 0.42416 0.2213 1.0189zm-1.8303 0.04149q0-0.29046-0.15676-0.49793-0.15676-0.21208-0.36423-0.29507-0.27663-0.11065-0.53942-0.11987-0.2628-0.01383-0.70079-0.01383h-0.30429v2.0563h0.50715q0.45182 0 0.74228-0.05532 0.29507-0.05533 0.49332-0.2213 0.17059-0.14753 0.24435-0.35039 0.07838-0.20747 0.07838-0.50254z" style="font-variant-caps:normal;font-variant-east-asian:normal;font-variant-ligatures:normal;font-variant-numeric:normal"/>
  <path d="m21.306 23.328h-4.0203v-1.2172h1.125v-4.4306h-1.125v-1.2172h4.0203v1.2172h-1.125v4.4306h1.125z" style="font-variant-caps:normal;font-variant-east-asian:normal;font-variant-ligatures:normal;font-variant-numeric:normal"/>
  <path d="m29.157 23.328h-2.1715l-2.0516-2.7478-0.41494 0.50254v2.2453h-1.7704v-6.865h1.7704v3.1074l2.4528-3.1074h2.0516l-2.6833 3.1766z" style="font-variant-caps:normal;font-variant-east-asian:normal;font-variant-ligatures:normal;font-variant-numeric:normal"/>
  <path d="m34.994 23.328h-4.9655v-6.865h4.9655v1.3278h-3.2043v1.1849h2.9737v1.3278h-2.9737v1.6966h3.2043z" style="font-variant-caps:normal;font-variant-east-asian:normal;font-variant-ligatures:normal;font-variant-numeric:normal"/>
 </g>
</svg>
