<svg width="25.86" height="20" version="1.0" xmlns="http://www.w3.org/2000/svg">
 <path d="m 2.8367141,18.543836 c 0,0 -0.9841484,-1.845283 -0.4758954,-3.786973 C 2.210364,14.234463 1.6454035,12.451189 2.248874,10.719308 2.4236593,10.463661 1.7749718,9.5928232 1.7332594,9.2704366 1.5803171,8.0878142 0.82071201,1.1663477 0.63737675,0.53379159 6.6253548,0.49125635 16.802702,0.5001596 16.802702,0.5001596 c 0,0 -0.119296,0.8279267 -0.157897,0.9783569 -0.284283,1.1080081 0.415886,1.08418 0.654741,1.0939737 0.615313,0.025201 0.356085,-0.00429 0.757813,0.079208 0.409972,0.1139515 0.331946,0.3188123 1.27524,1.2913636 0.879303,1.0331918 1.43818,1.0733764 2.330033,1.9364395 1.525192,1.0622704 3.960162,2.7857712 3.594398,3.8314829 -1.035962,2.2395408 -1.680682,3.7295058 -2.001934,5.9832838 -0.178108,1.435039 -1.030918,2.80285 -1.979669,2.786695 -0.732736,-0.01358 -0.442532,0.339759 -0.719,0.657087 -0.16123,0.185071 -0.404435,0.360905 -0.779967,0.362531 -0.359601,0.0016 -0.635203,-0.03989 -0.858963,-0.321731 -0.339247,-0.427312 0.102177,-0.752843 -0.88439,-0.722755 -0.895981,0.02732 -15.1965338,0.08781 -15.1965338,0.08781" fill="#fff" fill-rule="evenodd" stroke="#000" stroke-linecap="round" stroke-width="1.181" style="stroke:#000;stroke-width:.998765;stroke-miterlimit:4;stroke-dasharray:none;stroke-opacity:1"/>
</svg>
