<svg width="20" height="20" version="1.1" xmlns="http://www.w3.org/2000/svg">
 <path d="m10.737 1.1439v-0.00123l-0.03004-0.00499-0.03008-0.00628-0.02879-0.00628-0.03008-0.0075-0.02878-0.00876-0.02753-0.0088-0.02879-0.01127-0.02753-0.01127-0.02757-0.01127-0.02632-0.013787-0.02627-0.013782-0.02632-0.013787-0.02506-0.016299-0.02506-0.015001-0.02506-0.017556-0.02376-0.017514-0.0238-0.018813-0.02255-0.01877-0.0225-0.018813-0.02129-0.021287-0.02133-0.020031-0.04006-0.045087-0.02007-0.022544-0.01881-0.0238-0.01752-0.0238-0.01751-0.0238-0.01625-0.025057-0.03009-0.05255-0.01378-0.026313-0.01379-0.027569-0.02756 0.05514-0.015045 0.026275-0.0163 0.026313-0.0163 0.025057-0.017515 0.023758-0.017555 0.025057-0.01877 0.022544-0.018815 0.0238-0.02003 0.022544-0.021285 0.021287-0.02129 0.021288-0.021285 0.020031-0.022545 0.020026-0.02376 0.018813-0.0476 0.035027-0.025055 0.017556-0.025055 0.015001-0.025055 0.0163-0.02631 0.013787-0.02627 0.013787-0.02757 0.012526-0.02753 0.012526-0.02757 0.01127-0.02757 0.010013-0.028785 0.010013-0.05757 0.015001-0.030045 0.0075-0.030045 0.00503-0.03008 0.00499-0.08765 0.01752-0.04257 0.012531-0.041315 0.013782-0.04135 0.015044-0.040055 0.017514-0.03884 0.018813-0.03758 0.020031-0.03758 0.022544-0.036325 0.022544-0.033815 0.025057-0.033815 0.027532-0.032555 0.027569-0.0313 0.028788-0.030045 0.031301-0.028785 0.031301-0.026275 0.032557-0.02631 0.03507-0.0238 0.03507-0.022545 0.036326-0.021285 0.037582-0.02003 0.037582-0.017515 0.038801-0.0163 0.040095-0.015045 0.041314-0.012525 0.041314-0.010015 0.04257-0.00876 0.04257-0.0075 0.043826-5e-3 0.043826-0.0038 0.045083v0.045083-0.00118l-0.01378-0.033813-0.0326-0.065115-0.01877-0.031301-0.01881-0.030044-0.02003-0.030082-0.022545-0.028788-0.021285-0.028788-0.02376-0.027532-0.025055-0.026313-0.025055-0.025057-0.026275-0.0238-0.02627-0.0238-0.02879-0.022544-0.028785-0.021288-0.028785-0.020026-0.03008-0.020031-0.0313-0.017514-0.0313-0.017556-0.0313-0.016257-0.033815-0.015043-0.032555-0.013787-0.033815-0.012526-0.033815-0.01127-0.03507-0.00876-0.03507-0.0088-0.03507-0.0075-0.03629-0.00628-0.036325-0.00499-0.036325-0.00378-0.036325-0.0025h-0.06264l-0.025055 0.00127-0.026315 0.00127-0.025055 0.00251-0.026275 0.00378-0.025055 0.00373-0.026315 0.00378-0.025055 0.00499-0.02627 0.00628-0.025055 0.00628-0.025055 0.00624-0.0238 0.0075-0.025055 0.00876-0.022545 0.00876-0.02376 0.00876-0.022545 0.010013-0.01881 0.00624-0.020025 0.00503-0.02003 0.00378-0.021285 0.00128-0.01877-0.00128-0.02003-0.0025-0.01881-0.00499-0.03503-0.015001-0.0163-0.010013-0.01504-0.01127-0.013785-0.012526-0.012525-0.013787-0.01127-0.015001-0.010015-0.016295-0.0075-0.017514-0.0075-0.017556-0.0038-0.01877-0.0038-0.018813-0.0013-0.020031 0.0013-0.020026 0.0038-0.020031 0.0038-0.018813 0.0075-0.017514 0.0075-0.017556 0.010015-0.015 0.01127-0.015044 0.012525-0.013782 0.013785-0.013787 0.01504-0.01127 0.0163-0.0088 0.017515-0.00876 0.017515-0.00624 0.01881-0.00499 0.02003-0.00251 0.01877-0.00127h0.0088l0.00624 0.00127-0.028785-0.00127-0.032555-0.00251-0.06511-0.00255-0.07764 0.00251-0.076385 0.00499-0.076385 0.010013-0.07513 0.013787-0.07265 0.0163-0.072615 0.021288-0.07014 0.0238-0.068885 0.027569-0.067625 0.030044-0.064995 0.033813-0.063855 0.036326-0.06138 0.040095-0.060085 0.04257-0.05761 0.045083-0.0551 0.047598-0.052585 0.05007-0.05007 0.052585-0.04756 0.0551-0.04634 0.05761-0.041315 0.060125-0.040055 0.06138-0.036325 0.063855-0.033815 0.06511-0.0313 0.067625-0.026315 0.068885-0.023755 0.07014-0.021285 0.072655-0.0163 0.07387-0.01378 0.07387-0.010015 0.076385-0.00628 0.076385-0.00125 0.078895v0.036326l0.0025 0.037582 0.00245 0.036326 0.0076 0.075165 0.00628 0.037582 0.00625 0.037582 0.0075 0.036288 0.0075 0.037582 0.00876 0.036288 0.010015 0.036326 0.010015 0.03507 0.01127 0.036326 0.01127 0.03507 0.02505 0.067625-0.03507-0.032557-0.03633-0.031301-0.037585-0.030044-0.040095-0.027569-0.041315-0.025057-0.041315-0.0238-0.043825-0.021288-0.043825-0.020031-0.045085-0.017514-0.04634-0.015044-0.04634-0.012526-0.04634-0.01127-0.047598-0.00876-0.047559-0.00624-0.047597-0.00378-0.048855-0.00127-0.038801 0.00127-0.038839 0.00246-0.038801 0.00378-0.037582 0.00628-0.038839 0.0075-0.037582 0.00876-0.037582 0.010013-0.037582 0.01127-0.07265 0.027564-0.07014 0.032599-0.033813 0.017513-0.033813 0.020026-0.032557 0.020026-0.031301 0.021288-0.031301 0.021287-0.032557 0.020031-0.033813 0.020031-0.033813 0.017514-0.07014 0.032599-0.036326 0.013782-0.036288 0.013787-0.037582 0.01127-0.037582 0.010013-0.037582 0.00876-0.038801 0.0075-0.037582 0.00499-0.038839 0.00499-0.038801 0.00251h-0.08015l-0.04257-0.00378-0.041314-0.00499-0.04257-0.00628-0.082625-0.017514-0.040057-0.01127-0.040095-0.012526 0.012687 0.039977 0.01127 0.040095 0.01752 0.082628 0.00624 0.041314 0.00503 0.04257 0.00378 0.041314v0.08141l-0.00251 0.038801-0.00378 0.038839-0.00628 0.037582-0.00624 0.038801-0.00876 0.037582-0.010013 0.037582-0.01127 0.037582-0.012526 0.036326-0.015039 0.036288-0.015043 0.03507-0.017514 0.03507-0.017514 0.033813-0.020031 0.033813-0.020031 0.032557-0.022544 0.031301-0.021288 0.031301-0.021288 0.032557-0.020026 0.033813-0.017514 0.033813-0.017514 0.03507-0.015043 0.03507-0.015044 0.036326-0.012526 0.036326-0.01127 0.037582-0.010013 0.037582-0.00876 0.037582-0.00624 0.038801-0.00628 0.037582-0.00378 0.038839-0.00245 0.038801v0.038801l0.00128 0.047597 0.00378 0.048855 0.00499 0.047598 0.00876 0.047558 0.01127 0.04634 0.012526 0.04634 0.015044 0.04634 0.017514 0.045085 0.020031 0.043825 0.021288 0.04257 0.0238 0.04257 0.02627 0.040095 0.027569 0.040095 0.028788 0.03758 0.031301 0.036325 0.032557 0.033815-0.043826-0.0163-0.045083-0.01378-0.046339-0.012525-0.047559-0.01127-0.047598-0.0075-0.048854-0.00624-0.047559-0.0038-0.047598-0.00125h-0.037582l-0.037582 0.0025-0.037582 0.0038-0.036326 5e-3 -0.036326 0.00628-0.036326 0.0075-0.036326 0.010015-0.03507 0.010015-0.03507 0.01127-0.033813 0.01378-0.033813 0.013785-0.033813 0.015-0.032557 0.017555-0.031301 0.017515-0.031301 0.018815-0.031301 0.02003-0.030044 0.021285-0.028788 0.022545-0.05514 0.0476-0.026275 0.025055-0.025057 0.026275-0.025057 0.02757-0.0238 0.028785-0.021287 0.02879-0.022544 0.030045-0.020026 0.030045-0.01877 0.032555-0.017514 0.032555-0.0163 0.032555-0.015044 0.033815-0.015043 0.03507-0.00499 0.01378-0.0075 0.013785-0.0075 0.012525-0.00876 0.01127-0.010013 0.01127-0.010013 0.010015-0.01127 0.010015-0.01127 0.00876-0.012526 0.0075-0.012526 0.00628-0.013782 0.00625-0.013787 5e-3 -0.013787 0.0038-0.015043 0.0025-0.015043 0.00245h-0.015001l-0.020026-0.0013-0.018813-0.0025-0.01877-5e-3 -0.017514-0.00624-0.017476-0.00891-0.016299-0.010015-0.015001-0.01127-0.013782-0.012525-0.012526-0.013785-0.01127-0.015045-0.010013-0.0163-0.00876-0.0163-0.00628-0.01877-0.00499-0.018815-0.00246-0.01877-0.00127-0.02003 0.00127-0.021285 0.00373-0.021285 0.00628-0.02003 0.0075-0.020025 0.010013-0.018815 0.012526-0.017515 0.013787-0.0163 0.015001-0.015045-0.031301 0.02757-0.030082 0.02757-0.030044 0.028785-0.028788 0.028785-0.027569 0.030045-0.026275 0.0313-0.026275 0.032555-0.026313 0.0313-0.0238 0.033815-0.023758 0.033815-0.022544 0.033815-0.021288 0.03507-0.021287 0.036325-0.020031 0.036325-0.018813 0.036325-0.017514 0.036325-0.0163 0.0388-0.016299 0.037585-0.015001 0.03884-0.013787 0.0388-0.012526 0.03884-0.012526 0.040055-0.020026 0.08019-0.00876 0.040095-0.0075 0.041315-0.00624 0.040055-0.00503 0.041315-0.00373 0.041315-0.00251 0.04135-0.0025 0.041315v0.04257l0.00128 0.056355 0.00246 0.05761 0.00628 0.056355 0.00624 0.056355 0.010013 0.0551 0.01127 0.0551 0.013787 0.05384 0.015043 0.05384 0.017514 0.05384 0.020031 0.05137 0.021287 0.052585 0.022544 0.05011 0.025057 0.05007 0.026313 0.048855 0.027569 0.04756 0.030044 0.04634 0.031301 0.04634 0.033813 0.043825 0.03507 0.043825 0.036326 0.041315 0.037582 0.040095 0.038839 0.040095 0.041314 0.037585 0.041314 0.036325 0.043826 0.03507 0.045083 0.032555 0.046339 0.0313 0.047559 0.030045 0.048854 0.02879 0.05007 0.026275 0.05007 0.0238 0.052585 0.022545-0.045083 0.00125-0.043826 0.0025-0.045083 5e-3 -0.04257 0.0075-0.043826 0.00876-0.04257 0.01127-0.041314 0.012525-0.040095 0.01378-0.040057 0.0163-0.040095 0.017515-0.037582 0.02003-0.037582 0.02128-0.036326 0.022545-0.03507 0.023755-0.033813 0.026315-0.033813 0.026275-0.031301 0.028785-0.031301 0.03008-0.028788 0.0313-0.027569 0.032555-0.026275 0.032555-0.025057 0.03507-0.023758 0.03629-0.022544 0.036325-0.020031 0.03884-0.01877 0.0388-0.0163 0.040095-0.0163 0.041315-0.012526 0.041315-0.012526 0.04257-0.00876 0.043825-0.0075 0.043825-0.00499 0.030045-0.00628 0.030045-0.00628 0.028785-0.0075 0.03008-0.00876 0.028785-0.010013 0.02753-0.010013 0.028785-0.01127 0.02757-0.012526 0.02757-0.012526 0.02627-0.013787 0.026275-0.013787 0.02631-0.0163 0.025055-0.015 0.025055-0.017556 0.025055-0.017514 0.0238-0.018813 0.0238-0.01877 0.022545-0.020031 0.022545-0.020031 0.021285-0.021288 0.021285-0.021283 0.02003-0.022544 0.020025-0.022544 0.01877-0.0238 0.01881-0.0238 0.01877-0.0238 0.0163-0.025057 0.0163-0.026275 0.0163-0.026275 0.015045-0.026313 0.01378-0.027569 0.013785 0.027569 0.013785 0.027569 0.01378 0.026275 0.01504 0.025057 0.01626 0.026313 0.01625 0.0238 0.0163 0.025057 0.01881 0.022544 0.01881 0.0238 0.01877 0.022544 0.02007 0.021288 0.02129 0.021288 0.02128 0.020031 0.02129 0.01877 0.02255 0.020031 0.02375 0.017514 0.02255 0.017556 0.02506 0.0163 0.02506 0.016257 0.02506 0.015043 0.02506 0.015043 0.02631 0.013787 0.02628 0.012526 0.02757 0.012526 0.02753 0.010013 0.02757 0.01127 0.02753 0.0088 0.02879 0.00876 0.02878 0.0075 0.02879 0.00628 0.03008 0.00628 0.03005 0.00499 0.03008 0.0075 0.04383 0.00876 0.04379 0.012526 0.04262 0.012526 0.04131 0.0163 0.04135 0.0163 0.0401 0.01877 0.0388 0.020031 0.03754 0.022544 0.03758 0.023758 0.03633 0.025057 0.03377 0.02627 0.03382 0.027569 0.03256 0.028788 0.0313 0.031301 0.03008 0.031301 0.02879 0.033813 0.02631 0.033813 0.02627 0.03507 0.0238 0.036326 0.02254 0.037582 0.02129 0.037582 0.02003 0.038801 0.01751 0.040095 0.0163 0.041314 0.01504 0.041314 0.01249 0.04257 0.01001 0.04257 0.0088 0.043826 0.0075 0.043826 5e-3 0.045083 0.0038h0.045083l-0.033813 0.01378-0.032557 0.0163-0.032557 0.01625-0.0626 0.03762-0.028788 0.02003-0.030044 0.02255-0.027569 0.02129-0.027569 0.0238-0.026275 0.02506-0.025057 0.02506-0.0238 0.02627-0.0238 0.02631-0.022544 0.02879-0.021288 0.02879-0.020031 0.02879-0.020107 0.03005-0.017556 0.0313-0.017514 0.0313-0.016295 0.03134-0.015001 0.03377-0.012526 0.03256-0.012526 0.03382-0.01127 0.03382-0.010013 0.03507-0.00876 0.03507-0.0075 0.03507-0.00624 0.03632-0.00499 0.03633-0.00378 0.03632-0.00127 0.03632-0.00127 0.03758v0.02506l0.00127 0.02506 0.0025 0.02628 0.0025 0.02506 0.00246 0.02632 0.00378 0.02506 0.00499 0.02631 0.00503 0.02506 0.00499 0.02632 0.00624 0.02506 0.0075 0.02506 0.0075 0.02376 0.0075 0.02506 0.00876 0.0238 0.00876 0.0225 0.010013 0.02255 0.00628 0.01881 0.00499 0.02003 0.00378 0.02007 0.00128 0.02129-0.00128 0.01882-0.00245 0.02003-0.00503 0.01881-0.00624 0.01751-0.00876 0.01751-0.010013 0.0163-0.01127 0.015-0.012526 0.01378-0.013787 0.01253-0.015043 0.01127-0.0163 0.01002-0.035027 0.015-0.018813 0.0038-0.01877 0.0038-0.020031 0.0012-0.020031-0.0012-0.020026-0.0038-0.01877-0.0038-0.017556-0.0075-0.0163-0.0075-0.0163-0.01002-0.015001-0.01127-0.013787-0.01253-0.013782-0.01378-0.01127-0.015-0.00876-0.0163-0.00876-0.01751-0.00624-0.01751-0.00503-0.01881-0.00246-0.02003-0.00127-0.01882v-0.0088l0.00127-0.0062-0.00127 0.02879-0.00246 0.0313-0.00255 0.06511 0.0025 0.07768 0.00499 0.07635 0.010013 0.07639 0.013787 0.07512 0.016299 0.07266 0.021288 0.07265 0.0238 0.07014 0.027532 0.06885 0.030082 0.06766 0.033813 0.06508 0.036326 0.0639 0.040095 0.06138 0.04257 0.06008 0.045083 0.05761 0.047559 0.0551 0.05011 0.05259 0.052585 0.05007 0.0551 0.04885 0.05761 0.04505 0.060085 0.04136 0.06138 0.04009 0.063855 0.03629 0.065115 0.03381 0.067625 0.0313 0.068885 0.02631 0.07014 0.0238 0.072655 0.02128 0.07387 0.01626 0.07387 0.01378 0.076385 0.01002 0.076385 0.0063 0.078895 0.0012h0.036326l0.037582-0.0024 0.036326-0.0024 0.075165-0.0076 0.037582-0.0062 0.037582-0.0063 0.036326-0.0075 0.037582-0.0075 0.036326-0.0088 0.036326-0.01002 0.03507-0.01001 0.036326-0.01127 0.03507-0.01127 0.033813-0.01252 0.033813-0.01249-0.032557 0.03507-0.031301 0.03632-0.030082 0.0388-0.026275 0.0388-0.02627 0.04135-0.0238 0.04132-0.021287 0.04383-0.020026 0.04383-0.017514 0.04508-0.015044 0.04634-0.012526 0.04634-0.01127 0.04634-0.00876 0.0476-0.00499 0.04756-0.00378 0.04886-0.00127 0.0476v0.0388l0.00245 0.0388 0.00499 0.0388 0.00503 0.03758 0.0075 0.0388 0.0088 0.03758 0.010013 0.03754 0.01127 0.03758 0.013782 0.03632 0.013787 0.03633 0.032599 0.07014 0.017556 0.03381 0.020026 0.03378 0.020031 0.03256 0.021288 0.03134 0.021288 0.0313 0.020031 0.03256 0.020031 0.03382 0.017556 0.03378 0.017514 0.03507 0.015039 0.03511 0.013787 0.03632 0.013782 0.03632 0.01127 0.03755 0.010013 0.03758 0.00876 0.03755 0.0075 0.0388 0.00503 0.03758 0.00499 0.0388 0.00251 0.03884v0.08137l-0.00378 0.04132-0.00503 0.04261-0.00624 0.04131-0.00876 0.04135-0.010013 0.04132-0.01127 0.04136-0.012526 0.0388 0.038801-0.01127 0.040095-0.01127 0.041314-0.0088 0.04257-0.0088 0.04257-0.0062 0.04257-5e-3 0.04257-0.0038h0.08015l0.038801 0.0025 0.038839 0.0038 0.037582 0.0062 0.038801 0.0062 0.037582 0.0088 0.037582 0.01001 0.037582 0.01127 0.036288 0.01249 0.036326 0.01505 0.03507 0.01505 0.03507 0.01625 0.033813 0.01881 0.033813 0.02007 0.032557 0.02003 0.031301 0.02255 0.031301 0.02128 0.032557 0.02128 0.033813 0.01881 0.033813 0.01877 0.03507 0.0163 0.03507 0.01504 0.036326 0.01504 0.036326 0.01249 0.037582 0.01127 0.037582 0.01001 0.037582 0.0088 0.038839 0.0062 0.037582 0.0062 0.038801 0.0038 0.038839 0.0025 0.038801 0.0013 0.048854-0.0013 0.047598-0.0038 0.047558-0.0063 0.047598-0.0088 0.04634-0.01127 0.04634-0.01253 0.04634-0.015 0.045085-0.01755 0.043825-0.02003 0.04257-0.02128 0.04257-0.02376 0.040095-0.0251 0.040055-0.02753 0.03758-0.03008 0.03629-0.03005 0.033815-0.03381-0.0163 0.04382-0.01378 0.04634-0.012525 0.04634-0.01127 0.0476-0.0075 0.0476-0.00628 0.04882-0.0038 0.0476-0.00125 0.0476v0.03755l0.0025 0.03758 0.0038 0.03758 5e-3 0.03633 0.00625 0.03629 0.0075 0.03632 0.010015 0.03633 0.010015 0.0351 0.01127 0.03507 0.01378 0.03378 0.013785 0.03382 0.0163 0.03382 0.0163 0.03255 0.017555 0.0313 0.01877 0.0313 0.02003 0.0313 0.021285 0.03008 0.022545 0.02879 0.0238 0.02757 0.02376 0.02753 0.025055 0.02632 0.026315 0.02505 0.02753 0.02506 0.028785 0.02377 0.02879 0.02255 0.03008 0.02128 0.030045 0.02003 0.032555 0.01881 0.032555 0.01751 0.032555 0.0163 0.033815 0.01625 0.03507 0.01378 0.01378 0.0063 0.01378 0.0062 0.012525 0.0075 0.01127 0.0088 0.01127 0.01006 0.010015 0.01001 0.010015 0.01127 0.00875 0.01127 0.0075 0.01249 0.00625 0.01253 0.00628 0.01378 5e-3 0.01378 0.0038 0.01378 0.00245 0.01505 0.0025 0.01504v0.01505l-0.0013 0.02003-0.0025 0.01881-5e-3 0.01881-0.00628 0.01751-0.00876 0.01752-0.010015 0.01625-0.01127 0.01505-0.012525 0.01378-0.013785 0.01253-0.01504 0.01127-0.0163 0.01001-0.0163 0.0088-0.01877 0.0062-0.01881 5e-3 -0.018815 0.0025-0.020025 0.0013-0.021285-0.0013-0.021285-0.0038-0.020025-0.0063-0.02003-0.0075-0.01877-0.01005-0.01752-0.01249-0.0163-0.01378-0.015045-0.01505 0.02757 0.0313 0.02753 0.03008 0.028785 0.03004 0.028785 0.02879 0.03008 0.02757 0.0313 0.02631 0.032555 0.02627 0.0313 0.02631 0.033815 0.02376 0.033815 0.0238 0.033815 0.0225 0.03507 0.02133 0.036325 0.02128 0.036325 0.02003 0.036325 0.01881 0.03758 0.01752 0.037585 0.01625 0.03758 0.0163 0.0388 0.01505 0.03884 0.01378 0.0388 0.01249 0.040095 0.01253 0.08019 0.02003 0.040055 0.0088 0.041315 0.0075 0.040095 0.0062 0.041315 5e-3 0.041315 0.0038 0.041315 0.0024 0.04257 0.0024h0.041315l0.05761-0.0013 0.056355-0.0025 0.11271-0.01249 0.0551-0.01002 0.0551-0.01127 0.05384-0.01378 0.05384-0.01505 0.05384-0.01751 0.052585-0.02007 0.05133-0.02129 0.05007-0.02254 0.05011-0.02506 0.048815-0.02627 0.047595-0.02757 0.04634-0.03004 0.04634-0.03256 0.043825-0.03255 0.043825-0.03511 0.041315-0.03633 0.041315-0.03754 0.0388-0.0388 0.03758-0.04135 0.03629-0.04257 0.03507-0.04257 0.032555-0.04508 0.032555-0.04634 0.028785-0.0476 0.028785-0.04882 0.02627-0.05007 0.0238-0.05137 0.022545-0.05259 0.00125 0.04504 0.0038 0.04509 5e-3 0.04383 0.00625 0.04379 0.00876 0.04261 0.01127 0.04257 0.012525 0.04131 0.01378 0.04135 0.0163 0.0401 0.017515 0.0388 0.02003 0.03754 0.021285 0.03758 0.022545 0.03633 0.0238 0.03507 0.02631 0.03507 0.026275 0.03255 0.028785 0.03134 0.030045 0.0313 0.0313 0.02879 0.032555 0.02753 0.033815 0.02757 0.033815 0.02506 0.036325 0.02254 0.03758 0.0225 0.03758 0.02007 0.03884 0.01878 0.040055 0.01755 0.04135 0.015 0.041315 0.01383 0.04257 0.01123 0.043825 0.01005 0.043825 0.0075 0.03008 5e-3 0.030045 0.0062 0.028785 0.0063 0.030045 0.0075 0.028785 0.0088 0.02757 0.0088 0.02879 0.01127 0.02757 0.01127 0.02753 0.01123 0.026315 0.01383 0.026275 0.01378 0.02631 0.01379 0.025055 0.01626 0.025055 0.01504 0.025055 0.01752 0.0238 0.01755 0.02376 0.01877 0.04509 0.03762 0.02128 0.02128 0.021285 0.02128 0.02003 0.02129 0.020025 0.02254 0.02003 0.02255 0.017555 0.02376 0.01877 0.02375 0.0163 0.0238 0.017515 0.02506 0.015045 0.02632 0.015045 0.02628 0.01378 0.02631 0.01378 0.02753 0.013785-0.02753 0.01378-0.02753 0.01505-0.02632 0.01626-0.02506 0.0163-0.02631 0.01751-0.02376 0.01751-0.02506 0.01881-0.02254 0.01882-0.02377 0.02003-0.02255 0.04257-0.04257 0.02128-0.02007 0.02255-0.02003 0.0238-0.01881 0.04752-0.03502 0.02506-0.01751 0.05011-0.03009 0.02632-0.01505 0.02631-0.01378 0.02753-0.01253 0.02757-0.01249 0.02753-0.01127 0.02753-0.01001 0.02878-0.0088 0.02879-0.0088 0.03008-0.0075 0.02878-0.0063 0.03008-0.0062 0.03004-5e-3 0.04383-0.0075 0.04383-0.01005 0.04257-0.01123 0.04135-0.01383 0.04132-0.015 0.0401-0.01755 0.0388-0.01877 0.0388-0.02007 0.03632-0.0225 0.03632-0.02255 0.03507-0.02505 0.03256-0.02757 0.03255-0.02753 0.03134-0.02878 0.03005-0.0313 0.02878-0.03134 0.02631-0.03255 0.02632-0.03507 0.02376-0.03507 0.02255-0.03633 0.02129-0.03758 0.02003-0.03755 0.01756-0.0388 0.01625-0.0401 0.01379-0.04135 0.01253-0.04131 0.01127-0.04257 0.0088-0.04261 0.0075-0.04379 5e-3 -0.04383 0.0025-0.04382 0.0012-0.04508 0.01379 0.03382 0.01625 0.03256 0.0163 0.03255 0.01881 0.0313 0.01877 0.03008 0.02129 0.03008 0.02132 0.02879 0.0225 0.02879 0.02254 0.02753 0.02506 0.02632 0.02506 0.02505 0.05262 0.04751 0.02875 0.02255 0.02882 0.02128 0.02879 0.02007 0.03004 0.02003 0.0313 0.01752 0.03134 0.01751 0.03256 0.0163 0.03256 0.01505 0.03256 0.01249 0.03378 0.01253 0.03381 0.01127 0.03507 0.01002 0.03507 0.0088 0.0351 0.0075 0.03632 0.0063 0.03632 5e-3 0.03629 0.0038 0.03633 0.0012 0.03758 0.0012h0.02506l0.02506-0.0012 0.02631-0.0025 0.02506-0.0024 0.02627-0.0024 0.02632-0.0038 0.02506-5e-3 0.02632-5e-3 0.02506-5e-3 0.02506-0.0062 0.02506-0.0075 0.02376-0.0075 0.02506-0.0075 0.0238-0.0088 0.02254-0.01006 0.0225-0.0088 0.01881-0.0075 0.02007-5e-3 0.02003-0.0038 0.02128-0.0012 0.02007 0.0012 0.01877 0.0038 0.01881 0.0038 0.03503 0.015 0.0163 0.01001 0.01505 0.01127 0.01378 0.01253 0.01249 0.01379 0.01127 0.01504 0.01002 0.01625 0.015 0.03503 0.0076 0.03762 0.0013 0.02003-0.0013 0.02007-0.0038 0.02003-0.0038 0.01881-0.015 0.03503-0.01002 0.0163-0.01127 0.01504-0.01249 0.01378-0.01378 0.01249-0.01505 0.01127-0.0163 0.0088-0.01752 0.0088-0.01751 0.0063-0.01881 5e-3 -0.01877 0.0038h-0.0351l0.02878 0.0013 0.03134 0.0024 0.06511 0.0025 0.07764-0.0024 0.07764-5e-3 0.07517-0.01001 0.07513-0.01378 0.07262-0.01625 0.07266-0.02129 0.07014-0.0238 0.06888-0.02753 0.06763-0.03008 0.06512-0.03377 0.06386-0.03633 0.06138-0.0401 0.06009-0.04257 0.05761-0.04508 0.0551-0.0476 0.05259-0.05007 0.05011-0.05259 0.04881-0.0551 0.04508-0.05761 0.04257-0.06009 0.0388-0.06138 0.03632-0.06386 0.03378-0.06511 0.03134-0.06767 0.02627-0.06885 0.0251-0.07014 0.02003-0.07265 0.01752-0.07266 0.01253-0.07513 0.01002-0.07639 0.0062-0.07635 0.0013-0.07889v-0.03633l-0.0013-0.03758-0.0038-0.03633-0.0025-0.03755-5e-3 -0.03758-0.0062-0.03758-0.0062-0.03754-0.0075-0.03633-0.0075-0.03758-0.0088-0.03633-0.01001-0.03629-0.01002-0.03633-0.01127-0.03511-0.01127-0.03507-0.01249-0.03382-0.01253-0.03377 0.03507 0.03255 0.03632 0.0313 0.0388 0.02879 0.03884 0.02753 0.04132 0.02509 0.04135 0.02376 0.04383 0.02128 0.04379 0.02003 0.04509 0.01756 0.04634 0.015 0.04635 0.01253 0.04635 0.01127 0.0476 0.0088 0.0476 0.0063 0.04881 0.0038 0.0476 0.0012 0.0388-0.0012 0.0388-0.0025 0.03884-0.0038 0.03754-0.0062 0.03884-0.0075 0.03754-0.0088 0.03758-0.01006 0.03754-0.01127 0.03632-0.01249 0.03632-0.01505 0.03507-0.01504 0.0351-0.01752 0.03378-0.01751 0.03382-0.01881 0.03256-0.02003 0.0626-0.04257 0.03256-0.02128 0.03382-0.01881 0.03382-0.01751 0.03507-0.01751 0.03507-0.01505 0.03633-0.01378 0.03758-0.01382 0.03629-0.01127 0.03758-0.01002 0.03758-0.0088 0.0388-0.0075 0.0388-5e-3 0.03758-5e-3 0.0388-0.0025h0.08136l0.04135 0.0038 0.04257 5e-3 0.04135 0.0062 0.04132 0.0088 0.04135 0.0088 0.04131 0.01127 0.0388 0.01127-0.01128-0.0388-0.01123-0.04135-0.0088-0.04132-0.0088-0.04135-0.0062-0.04132-5e-3 -0.04261-0.0038-0.04132v-0.08137l0.0025-0.03884 0.0038-0.0388 0.0062-0.03758 0.0062-0.0388 0.0088-0.03754 0.01001-0.03758 0.01128-0.03754 0.01253-0.03633 0.01501-0.03632 0.01505-0.03511 0.01751-0.03507 0.01752-0.03378 0.02006-0.03381 0.02003-0.03256 0.02254-0.0313 0.02128-0.03134 0.02128-0.03255 0.01881-0.03378 0.01881-0.03382 0.01626-0.03507 0.0163-0.03507 0.01379-0.03633 0.01249-0.03632 0.01127-0.03758 0.01006-0.03754 0.0088-0.03758 0.0075-0.0388 5e-3 -0.03758 0.0038-0.0388 0.0025-0.0388 0.0012-0.0388-0.0012-0.0476-0.0038-0.04886-0.0062-0.04756-0.0088-0.0476-0.01127-0.04634-0.01249-0.04634-0.01505-0.04634-0.01751-0.04508-0.02007-0.04383-0.02129-0.04257-0.02376-0.04135-0.02505-0.04132-0.02757-0.0388-0.03005-0.03758-0.03008-0.03632-0.03378-0.03507 0.04379 0.01751 0.04637 0.01378 0.04634 0.01253 0.04756 0.01127 0.0476 0.0075 0.04886 0.0062 0.04756 0.0038 0.0476 0.0012h0.03758l0.0388-0.0024 0.03632-0.0038 0.03758-5e-3 0.03628-0.0063 0.03633-0.0075 0.03633-0.01001 0.0351-0.01002 0.03507-0.01127 0.03377-0.01378 0.03382-0.01379 0.03256-0.0163 0.03256-0.01626 0.03255-0.01751 0.0313-0.01881 0.03008-0.02007 0.02879-0.02128 0.02878-0.02251 0.02878-0.0238 0.02631-0.02376 0.02628-0.02506 0.02631-0.02631 0.02376-0.02753 0.0238-0.02879 0.0225-0.02878 0.02133-0.03008 0.02003-0.0313 0.01881-0.0313 0.01752-0.03256 0.01752-0.03381 0.01504-0.03382 0.01505-0.03507 5e-3 -0.01378 0.0075-0.01253 0.0075-0.01249 0.0088-0.01253 0.01001-0.01127 0.01002-0.01002 0.01127-0.0088 0.01128-0.0088 0.01249-0.0088 0.01253-0.0063 0.01378-0.0062 0.01378-5e-3 0.01378-0.0038 0.01505-0.0024 0.01504-0.0024h0.01505l0.02003 0.0012 0.01881 0.0025 0.01881 5e-3 0.01752 0.0063 0.01751 0.0088 0.0163 0.01002 0.01505 0.01127 0.01378 0.01252 0.01249 0.01378 0.01127 0.01505 0.01002 0.01625 0.0088 0.0163 0.0062 0.01881 5e-3 0.01877 0.0025 0.01881 0.0012 0.02007-0.0012 0.02129-0.0038 0.02129-0.0062 0.02003-0.0075 0.01882-0.01002 0.01881-0.01252 0.01751-0.01379 0.01625-0.01504 0.01383 0.0313-0.02632 0.03008-0.02878 0.03008-0.02879 0.02878-0.02879 0.02753-0.0313 0.02632-0.03008 0.02631-0.03256 0.02627-0.03256 0.0238-0.03255 0.02376-0.03382 0.02254-0.03378 0.02128-0.03507 0.02128-0.03511 0.02003-0.03632 0.01881-0.03632 0.01752-0.03754 0.01751-0.03633 0.01505-0.0388 0.01504-0.03758 0.01379-0.0388 0.01253-0.0388 0.01249-0.0401 0.01002-0.0388 0.01006-0.0401 0.0088-0.04135 0.0075-0.0401 0.0063-0.04132 5e-3 -0.04009 0.0038-0.04135 0.0025-0.04132 0.0025-0.04257v-0.04135l-0.0013-0.05761-0.0025-0.05635-5e-3 -0.0564-0.0075-0.05636-0.01001-0.0551-0.01128-0.05506-0.01379-0.05384-0.01504-0.05384-0.01752-0.05384-0.02006-0.05262-0.02129-0.05137-0.0225-0.05007-0.02506-0.05007-0.02631-0.04882-0.02753-0.0476-0.03008-0.04634-0.0313-0.04634-0.03382-0.04383-0.03507-0.04383-0.03633-0.04131-0.03758-0.04135-0.0388-0.0388-0.04131-0.03758-0.04262-0.03632-0.04257-0.03507-0.04504-0.03256-0.04635-0.03256-0.0476-0.02879-0.04885-0.02878-0.05007-0.02632-0.05132-0.02376-0.05263-0.02254 0.04509-0.0013 0.04505-0.0038 0.04383-5e-3 0.04382-0.0062 0.04257-0.0088 0.04257-0.01127 0.04135-0.01249 0.04132-0.01379 0.0401-0.0163 0.0388-0.01752 0.03758-0.02002 0.03755-0.02129 0.03632-0.02255 0.03511-0.0238 0.03507-0.02628 0.03255-0.02632 0.0313-0.02878 0.0313-0.03008 0.02878-0.0313 0.02879-0.03255 0.02632-0.03382 0.02505-0.03378 0.02377-0.03632 0.02133-0.03758 0.02003-0.03755 0.01881-0.0388 0.01752-0.0401 0.01504-0.04135 0.01379-0.04132 0.01249-0.04261 0.0088-0.04379 0.0088-0.04383 5e-3 -0.03008 5e-3 -0.03004 0.0075-0.02879 0.0075-0.03008 0.0088-0.02878 0.0088-0.02753 0.01128-0.02878 0.01127-0.02757 0.01123-0.02753 0.01383-0.02631 0.01378-0.02632 0.01378-0.02628 0.01504-0.02506 0.01626-0.02506 0.01752-0.02506 0.03507-0.04756 0.02003-0.02255 0.01881-0.02254 0.02129-0.02129 0.02003-0.02129 0.02254-0.02003 0.02254-0.02007 0.02255-0.02003 0.02376-0.01752 0.02376-0.01881 0.0238-0.0163 0.02506-0.01751 0.02632-0.01505 0.02627-0.015 0.02632-0.01378 0.02752-0.01378-0.05505-0.027565-0.02631-0.015045-0.02632-0.0163-0.02506-0.0163-0.02376-0.017515-0.02506-0.017515-0.02254-0.018815-0.02377-0.01877-0.02254-0.020025-0.04256-0.04257-0.02006-0.021285-0.02003-0.022545-0.01881-0.0238-0.01752-0.0238-0.01751-0.0238-0.01752-0.025055-0.01504-0.025055-0.0163-0.025055-0.01378-0.026275-0.01378-0.02631-0.01253-0.02753-0.01249-0.02757-0.01127-0.02757-0.01001-0.027525-0.01002-0.02879-0.0075-0.028785-0.0075-0.03008-0.0075-0.028785-0.01-0.06009-0.0176-0.08765-0.01249-0.04257-0.01378-0.041315-0.01504-0.041315-0.01752-0.040095-0.01881-0.0388-0.02003-0.03884-0.02133-0.036325-0.02376-0.03629-0.02505-0.03507-0.02632-0.032555-0.02879-0.032555-0.02878-0.0313-0.0313-0.03008-0.0313-0.028785-0.03255-0.02757-0.03507-0.025055-0.0351-0.02376-0.03633-0.0238-0.03755-0.02003-0.03758-0.020025-0.0388-0.017515-0.0401-0.0163-0.04132-0.015045-0.04135-0.012525-0.08514-0.02003-0.04382-0.00625-0.04383-5e-3 -0.04505-0.0038-0.04509-0.0013h0.0012l0.03255-0.015 0.06512-0.0326 0.0313-0.01881 0.03008-0.01877 0.03005-0.021285 0.02878-0.021285 0.02879-0.021285 0.02631-0.0238 0.02632-0.025055 0.02506-0.025055 0.02505-0.026275 0.02376-0.026315 0.02254-0.02753 0.02129-0.02879 0.02003-0.028785 0.02007-0.03008 0.03504-0.0626 0.01629-0.0313 0.01501-0.032555 0.01382-0.033815 0.01249-0.033815 0.01128-0.033815 0.01001-0.033815 0.0088-0.03507 0.0075-0.036325 0.0062-0.03507 5e-3 -0.036325 0.0038-0.036325 0.0025-0.036325v-0.062635l-0.0012-0.025055-0.0012-0.026275-0.0025-0.025055-0.0038-0.02627-0.0038-0.026275-0.0038-0.025055-5e-3 -0.026315-0.0063-0.025055-0.0062-0.025055-0.0075-0.025055-0.0075-0.0238-0.0075-0.025055-0.0088-0.0238-0.0088-0.022545-0.01001-0.022545-0.0075-0.01877-5e-3 -0.02003-0.0038-0.020025-0.0013-0.021285 0.0013-0.02003 0.0025-0.018815 5e-3 -0.01877 0.0075-0.017515 0.0075-0.017555 0.01006-0.0163 0.01123-0.015 0.01253-0.013785 0.01378-0.012525 0.01505-0.01127 0.01626-0.010015 0.01755-0.0075 0.01752-0.0075 0.01877-0.00375 0.01881-0.0038 0.02007-0.0013 0.02003 0.0013 0.02007 0.0038 0.01878 0.00375 0.01751 0.0075 0.01756 0.0075 0.01504 0.010015 0.015 0.01127 0.01504 0.012525 0.01253 0.013785 0.01128 0.015 0.0088 0.0163 0.0088 0.017555 0.0062 0.017515 5e-3 0.01877 0.0038 0.018815v0.03503l0.0013-0.030045 0.0025-0.0313 0.0025-0.06511-0.0025-0.07764-5e-3 -0.076385-0.01002-0.076385-0.01382-0.075165-0.01626-0.072615-0.02129-0.07265-0.02376-0.07014-0.02757-0.068885-0.03004-0.067625-0.03382-0.06511-0.03633-0.063855-0.0401-0.06138-0.04257-0.060085-0.04508-0.05761-0.04756-0.0551-0.05008-0.052585-0.05263-0.05007-0.05509-0.0476-0.05762-0.04634-0.06009-0.041315-0.06138-0.040095-0.06386-0.036325-0.06511-0.033815-0.06762-0.0313-0.06888-0.026275-0.07014-0.0238-0.07262-0.02128-0.07391-0.0163-0.07387-0.01378-0.07639-0.010015-0.07638-0.00628-0.0789-0.0013h-0.03632l-0.03758 0.0025-0.03632 0.00245-0.03755 0.0038-0.03758 0.0038-0.03754 0.00628-0.03758 0.00624-0.03633 0.0075-0.03754 0.0075-0.03633 0.00875-0.07265 0.02003-0.03507 0.01127-0.03511 0.01127-0.03377 0.012525-0.03382 0.012525 0.03255-0.03507 0.0313-0.036325 0.02879-0.03758 0.02757-0.040095 0.02506-0.041315 0.02376-0.041315 0.02128-0.043825 0.02007-0.043825 0.01752-0.045085 0.01504-0.04634 0.01249-0.04634 0.01128-0.04634 0.0088-0.047558 0.0062-0.047598 0.0038-0.048855 0.0013-0.047598-0.0013-0.038801-0.0025-0.038801-0.0038-0.038839-0.0063-0.037582-0.0075-0.038801-0.0088-0.037582-0.01002-0.037582-0.01127-0.037582-0.01253-0.036326-0.01501-0.036326-0.01505-0.03507-0.01751-0.03507-0.01756-0.033813-0.01877-0.033813-0.02007-0.032557-0.04256-0.062602-0.02128-0.032557-0.01881-0.033813-0.01752-0.033813-0.01751-0.03507-0.01505-0.03507-0.01379-0.036288-0.01378-0.036326-0.01128-0.037582-0.01002-0.037582-0.0088-0.037582-0.0075-0.038801-5e-3 -0.037582-5e-3 -0.038839-0.0025-0.038801v-0.08145l0.0038-0.041314 5e-3 -0.04257 0.0062-0.041314 0.0088-0.041314 0.01002-0.041314 0.01127-0.040095 0.01253-0.040095-0.03884 0.012526-0.04131 0.01127-0.04136 0.00876-0.04131 0.00876-0.04257 0.00628-0.04261 0.00499-0.04257 0.00378h-0.08136l-0.0388-0.0025-0.03758-0.00378-0.0388-0.00624-0.0388-0.00628-0.03758-0.00876-0.03758-0.010013-0.03629-0.01127-0.03758-0.012526-0.03632-0.015043-0.03507-0.015001-0.03507-0.017556-0.03381-0.017514-0.03382-0.020031-0.03255-0.020026-0.0626-0.045087-0.03256-0.020026-0.03382-0.020031-0.03378-0.017556-0.03511-0.017514-0.03507-0.015039-0.03632-0.015001-0.03632-0.012526-0.03754-0.01127-0.03759-0.010013-0.03754-0.0088-0.03884-0.00624-0.03754-0.00628-0.03884-0.00378-0.0388-0.00245-0.0388-0.00128-0.0476 0.00128-0.04882 0.00378-0.0476 0.00624-0.0476 0.00876-0.04635 0.01127-0.04634 0.012526-0.04635 0.015043-0.04509 0.017514-0.04379 0.020031-0.04261 0.021287-0.04132 0.0238-0.04135 0.026275-0.0388 0.026313-0.03755 0.030044-0.03632 0.031301-0.0351 0.032557 0.01751-0.043826 0.01383-0.045083 0.01249-0.046339 0.01127-0.047597 0.0075-0.047559 0.0062-0.048854 0.0038-0.047598 0.0013-0.047559v-0.037582l-0.0025-0.037582-0.0038-0.037582-5e-3 -0.036326-0.0062-0.036326-0.0075-0.036288-0.01001-0.036326-0.01005-0.03507-0.01128-0.03507-0.01378-0.033813-0.01379-0.033813-0.01626-0.033813-0.01629-0.032557-0.01752-0.031301-0.01881-0.031301-0.02003-0.031301-0.02129-0.030044-0.02255-0.028788-0.02375-0.027569-0.0238-0.027532-0.02506-0.026313-0.02631-0.025057-0.02753-0.025057-0.02879-0.0238-0.02878-0.021287-0.03008-0.021288-0.0313-0.021287-0.0313-0.018813-0.03256-0.017518-0.03381-0.016295-0.03378-0.015043-0.03511-0.015043-0.01378-0.00499-0.01249-0.0075-0.01253-0.0075-0.01249-0.00879-0.01127-0.010013-0.01002-0.010013-0.0176-0.022539-0.0088-0.012526-0.0062-0.012526-0.0063-0.013782-5e-3 -0.013787-0.0038-0.013782-0.0025-0.015043-0.0013-0.015001-0.0013-0.015043 0.0013-0.020026 0.0025-0.01877 5e-3 -0.018813 0.0062-0.017514 0.0088-0.017513 0.01002-0.0163 0.01127-0.015039 0.01249-0.013787 0.01379-0.012526 0.01505-0.01127 0.0163-0.010013 0.01625-0.00876 0.01881-0.00624 0.01882-0.00503 0.01877-0.00245 0.02007-0.00128 0.02129 0.00128 0.02129 0.00378 0.02007 0.00624 0.02003 0.0075 0.01881 0.010013 0.01751 0.012526 0.01626 0.013787 0.0163 0.015039-0.02753-0.031301-0.02757-0.030044-0.02879-0.030082-0.03008-0.028788-0.03004-0.027532-0.03008-0.026313-0.06511-0.05255-0.03256-0.0238-0.03378-0.0238-0.0351-0.022544-0.03425-0.021207-0.03632-0.021288-0.03633-0.020031-0.03633-0.01877-0.03758-0.017556-0.03755-0.017513-0.03758-0.015001-0.0388-0.015043-0.0388-0.013787-0.0388-0.012526-0.04009-0.012526-0.08019-0.020026-0.0401-0.00876-0.04132-0.0075-0.04009-0.00628-0.04135-0.00499-0.04132-0.00378-0.04136-0.0025-0.04131-0.00246h-0.04257l-0.0564 0.00128-0.05761 0.0025-0.05635 0.00499-0.05639 0.0075-0.05506 0.010013-0.0551 0.011269-0.05384 0.013787-0.05384 0.015043-0.05384 0.017514-0.05137 0.020026-0.05259 0.021288-0.05007 0.022544-0.05007 0.025057-0.04886 0.026275-0.0476 0.027569-0.04634 0.030044-0.04634 0.031301-0.04383 0.033813-0.04383 0.03507-0.04131 0.036326-0.0401 0.037582-0.04009 0.038801-0.03754 0.041314-0.03633 0.04257-0.0351 0.04257-0.03256 0.045083-0.0313 0.046339-0.03004 0.047559-0.02883 0.048854-0.02628 0.05011-0.0238 0.05133-0.0225 0.052585-0.0013-0.045083-0.0025-0.045083-5e-3 -0.043826-0.0075-0.043826-0.0088-0.04257-0.01127-0.04257-0.01253-0.041314-0.01378-0.041314-0.01625-0.040095-0.01756-0.038801-0.02003-0.037582-0.02129-0.037582-0.02255-0.036326-0.02376-0.03507-0.02631-0.03507-0.02632-0.032557-0.02878-0.031301-0.03005-0.031301-0.03134-0.028788-0.03255-0.027569-0.03256-0.026275-0.03507-0.025057-0.03632-0.0238-0.03632-0.022544-0.0388-0.020031-0.0388-0.018813-0.0401-0.017514-0.04132-0.015043-0.04135-0.013787-0.04257-0.01127-0.04383-0.010013-0.04367-0.00746z" fill="#fecd00" fill-rule="evenodd" stroke="#000" stroke-linecap="round" stroke-linejoin="round" stroke-width="1.1808"/>
</svg>
