<svg width="25" height="20" viewBox="0 0 6.615 5.292" xmlns="http://www.w3.org/2000/svg">
 <path d="m3.3073 0.13232c-0.15623 0-0.31262 0.026956-0.46167 0.081205l-2.3479 0.74589c-0.21949 0.079887-0.36542 0.28864-0.36542 0.52222v2.3282c0 0.23358 0.14592 0.44234 0.36542 0.52223l2.3479 0.74589c0.2981 0.1085 0.62489 0.1085 0.92299 0 0 0 2.3582-0.75803 2.3479-0.74589 0.21949-0.079888 0.36577-0.28864 0.36577-0.52223v-2.3282c0-0.23358-0.14627-0.44234-0.36577-0.52222-0.0087515-0.0070204-2.3479-0.74589-2.3479-0.74589-0.14905-0.054249-0.30509-0.081205-0.46132-0.081205z" fill="#ffcd00" stroke="#000" stroke-width=".265"/>
</svg>
