<svg width="20" height="20" xml:space="preserve" xmlns="http://www.w3.org/2000/svg">
 <path d="M 12.728578,18.981523 C 11.948298,18.545497 11.21945,19.754003 9.8069982,19.243082 7.1376866,18.277523 6.5947221,19.653924 4.8785772,19.11603 3.5724458,18.706648 2.3841652,19.380425 1.261556,19.386522 0.20459863,19.392262 0.59031056,16.505103 0.8068564,15.641649 1.7335901,11.946394 1.9186572,9.3476605 0.5,6.0612178 V 0.50046617 H 11.251616 C 11.900046,2.5694719 11.54049,4.1753202 11.058384,5.9492087 l 8.166646,0.014679 c -1.082637,2.7636026 -0.951791,5.4440603 -0.16848,7.9459403 0.226952,0.724879 0.258513,1.679979 -0.303422,2.412764 -0.290083,0.378277 0.163883,1.398875 0.567782,2.060137 0.4257,0.696956 -0.5067,1.259854 -1.569304,0.562398 -1.36878,-0.898418 -3.62697,0.816523 -5.023028,0.0364 z" style="fill:#fff;stroke:#000;stroke-width:1;stroke-miterlimit:4;stroke-dasharray:none;stroke-opacity:1"/>
</svg>
