<svg width="20" height="20" viewBox="0 0 3.333 3.333" xmlns="http://www.w3.org/2000/svg">
 <path d="M3.156.108a.065.065 0 0 0-.031.01.877.87 0 0 1-.44.135l-.181.006a.712.706 0 0 0-.293.073.247.244 0 0 1-.27-.033.157.156 0 0 0-.183-.015.099.098 0 0 1-.112-.007.273.27 0 0 0-.295-.027.211.21 0 0 1-.223-.017.21.209 0 0 0-.12-.041L.156.176a.048.048 0 0 0-.049.047V2.58a.048.048 0 0 0 .053.048.126.125 0 0 1 .121.06.41.406 0 0 0 .137.14.833.826 0 0 0 .306.114 2.195 2.175 0 0 0 .252.027.297.295 0 0 1 .208.098.478.474 0 0 0 .47.146.304.301 0 0 1 .154.003.144.143 0 0 0 .112-.014l.054-.032A.155.154 0 0 0 2 3.152a.07.069 0 0 1 .076-.012.098.097 0 0 0 .13-.047.45.446 0 0 1 .296-.244.794.786 0 0 0 .588-.87.25.248 0 0 1 .046-.18.204.202 0 0 0 .008-.229.062.062 0 0 1 .025-.088.101.1 0 0 0 .055-.09V.173a.065.065 0 0 0-.07-.065z" fill="#fff" stroke="#006b54" stroke-width=".216"/>
 <path d="M.681.69a.25.25 0 0 1 .14.038.295.295 0 0 1 .1.116.59.59 0 0 1 .043.135.794.794 0 0 1-.01.353.412.412 0 0 1-.069.15.245.245 0 0 1-.209.097.28.28 0 0 1-.15-.037.274.274 0 0 1-.099-.117A.753.753 0 0 1 .391.94a.491.491 0 0 1 .07-.152.238.238 0 0 1 .091-.072.313.313 0 0 1 .13-.024zm1.925 0c.055 0 .101.013.14.038a.295.295 0 0 1 .1.116.59.59 0 0 1 .042.135.794.794 0 0 1-.009.353.412.412 0 0 1-.07.15.246.246 0 0 1-.209.097.28.28 0 0 1-.15-.037.274.274 0 0 1-.098-.117.753.753 0 0 1-.036-.486.491.491 0 0 1 .069-.152.237.237 0 0 1 .092-.072.313.313 0 0 1 .129-.024zM1.17.707h.136v.346h.315V.706h.136v.857h-.136V1.19h-.315v.373H1.17zm.793 0h.14v.857h-.14zM.666.83a.119.119 0 0 0-.071.023.184.184 0 0 0-.056.083.394.394 0 0 0-.025.094.753.753 0 0 0 .005.24.313.313 0 0 0 .038.105.14.14 0 0 0 .05.05.136.136 0 0 0 .07.017.12.12 0 0 0 .078-.026.19.19 0 0 0 .054-.083.436.436 0 0 0 .023-.09.578.578 0 0 0-.002-.24.343.343 0 0 0-.04-.106.137.137 0 0 0-.047-.049A.143.143 0 0 0 .666.83zm1.925 0a.119.119 0 0 0-.072.023.183.183 0 0 0-.055.083.394.394 0 0 0-.026.094.753.753 0 0 0 .005.24.313.313 0 0 0 .039.105c.014.022.03.039.049.05a.135.135 0 0 0 .07.017.12.12 0 0 0 .078-.026.19.19 0 0 0 .054-.083.433.433 0 0 0 .023-.09.578.578 0 0 0-.002-.24.343.343 0 0 0-.039-.106.137.137 0 0 0-.048-.049.143.143 0 0 0-.076-.018zm-2.329.984H.52v.067H.427v.433H.354V1.88H.262zm.326 0h.073v.36a.08.08 0 0 0 .02.058c.012.014.03.021.05.021a.06.06 0 0 0 .049-.021.083.083 0 0 0 .02-.058v-.36h.072v.351a.22.22 0 0 1-.011.069.167.167 0 0 1-.01.02.153.153 0 0 1-.051.05.131.131 0 0 1-.068.02.145.145 0 0 1-.124-.07.167.167 0 0 1-.019-.062v-.027zm.393 0h.15c.02 0 .038.004.054.01.017.006.03.016.042.027a.107.107 0 0 1 .027.042c.007.017.01.035.01.055a.15.15 0 0 1-.018.076.1.1 0 0 1-.054.045l.072.245H1.19l-.067-.235h-.07v.235H.981zm.368 0h.072l.139.3v-.3h.072v.5h-.055l-.156-.335v.335H1.35zm.393 0h.15a.132.132 0 0 1 .096.04.113.113 0 0 1 .027.043.18.18 0 0 1 .01.058c0 .046-.012.08-.035.104-.023.024-.055.036-.098.036h-.078v.22h-.072zm.353 0h.07v.5h-.07zm.182 0h.072v.2l.115-.2h.084l-.105.176.117.324h-.076l-.089-.244-.046.085v.16h-.072zm.368 0h.237v.07h-.165v.127h.105v.068h-.105v.165H2.9v.07h-.256zm-1.592.07v.127h.075a.07.07 0 0 0 .048-.016c.012-.011.017-.027.017-.047a.06.06 0 0 0-.018-.046.066.066 0 0 0-.047-.017zm.76 0v.142h.075c.022 0 .038-.006.049-.018a.078.078 0 0 0 .017-.053c0-.021-.006-.038-.018-.051s-.028-.02-.048-.02z" fill="#006b54"/>
</svg>
