<svg height="20" width="20" xmlns="http://www.w3.org/2000/svg">
 <path style="fill:#000" d="M 4.5,0 C 3.9477381,5.5217905e-5 3.5000552,0.44773812 3.5,1 v 0.6894531 c 0.036268,0.070803 0.080854,0.1370266 0.132813,0.1972656 l -0.466797,-0.1875 C 2.6308551,1.4856636 2.0264032,1.7673238 1.845703,2.3144531 L 0.408203,6.6875 C 0.3747909,6.7883097 0.35764916,6.8937978 0.357422,7 c 0,5.954376 4.04509,11.011231 9.298828,12.939453 0.1109831,0.04062 0.2273665,0.06093 0.34375,0.06093 0.116383,0 0.232767,-0.02031 0.34375,-0.06093 C 15.597488,18.011231 19.642578,12.954376 19.642578,7 19.642351,6.8937979 19.62521,6.7883097 19.591798,6.6875 l -1.4375,-4.3730469 C 17.973598,1.7673233 17.369145,1.4856629 16.833984,1.6992187 l -0.466797,0.1875 C 16.419146,1.8264797 16.463732,1.7602565 16.5,1.6894531 V 1 C 16.499945,0.44773812 16.052262,5.5217905e-5 15.5,0 Z"/>
 <path style="fill:#fff" d="M 4.5 1 L 4.5 1.6894531 L 7.2792969 2.8027344 A 0.75 0.75 0 0 1 7.6972656 3.7792969 A 0.75 0.75 0 0 1 6.7207031 4.1972656 L 2.7949219 2.6269531 L 1.3574219 7 C 1.3574219 12.49778 5.12287 17.21 10 19 C 14.87713 17.21 18.642578 12.49778 18.642578 7 L 17.205078 2.6269531 L 13.279297 4.1972656 A 0.75 0.75 0 0 1 12.302734 3.7792969 A 0.75 0.75 0 0 1 12.720703 2.8027344 L 15.5 1.6894531 L 15.5 1 L 4.5 1 z"/>
</svg>
