<?xml version="1.0" encoding="UTF-8" standalone="no"?>
<svg
   xmlns:dc="http://purl.org/dc/elements/1.1/"
   xmlns:cc="http://creativecommons.org/ns#"
   xmlns:rdf="http://www.w3.org/1999/02/22-rdf-syntax-ns#"
   xmlns:svg="http://www.w3.org/2000/svg"
   xmlns="http://www.w3.org/2000/svg"
   xmlns:sodipodi="http://sodipodi.sourceforge.net/DTD/sodipodi-0.dtd"
   xmlns:inkscape="http://www.inkscape.org/namespaces/inkscape"
   width="33"
   height="20"
   viewBox="0 0 33 19.999999"
   version="1.1"
   id="svg4506"
   sodipodi:docname="shield40_eu_cz_2.svg"
   inkscape:version="1.0.2 (e86c870879, 2021-01-15, custom)">
  <metadata
     id="metadata4512">
    <rdf:RDF>
      <cc:Work
         rdf:about="">
        <dc:format>image/svg+xml</dc:format>
        <dc:type
           rdf:resource="http://purl.org/dc/dcmitype/StillImage" />
        <dc:title></dc:title>
      </cc:Work>
    </rdf:RDF>
  </metadata>
  <defs
     id="defs4510" />
  <sodipodi:namedview
     pagecolor="#ffffff"
     bordercolor="#666666"
     borderopacity="1"
     objecttolerance="10"
     gridtolerance="10"
     guidetolerance="10"
     inkscape:pageopacity="0"
     inkscape:pageshadow="2"
     inkscape:window-width="1920"
     inkscape:window-height="991"
     id="namedview4508"
     showgrid="false"
     inkscape:zoom="13.017193"
     inkscape:cx="33"
     inkscape:cy="20.000393"
     inkscape:window-x="-9"
     inkscape:window-y="-9"
     inkscape:window-maximized="1"
     inkscape:current-layer="svg4506" />
  <path
     d="m 3.14285,1.7114005e-4 h 26.7143 A 3.1104001,3.1103468 0 0 1 33,3.0770185 V 16.922931 a 3.1104501,3.1103968 0 0 1 -3.14285,3.076898 H 3.14285 A 3.1104001,3.1103468 0 0 1 0,16.922981 V 3.0770185 A 3.1104001,3.1103468 0 0 1 3.14285,1.7114005e-4 Z"
     fill="#cd151d"
     id="path4500"
     style="stroke-width:0.499995" />
  <path
     d="m 3.14285,0.46171324 h 26.7143 A 2.6439001,2.6438548 0 0 1 32.5286,3.0770685 V 16.922981 a 2.6439001,2.6438548 0 0 1 -2.67145,2.615355 H 3.14285 A 2.6439001,2.6438548 0 0 1 0.4714,16.922981 V 3.0770185 A 2.6439001,2.6438548 0 0 1 3.14285,0.46171324 Z"
     fill="#ffffff"
     id="path4502"
     style="stroke-width:0.499995" />
  <path
     d="m 3.14285,1.5385948 h 26.7143 A 1.555,1.5549734 0 0 1 31.4286,3.0769685 V 16.922931 a 1.555,1.5549734 0 0 1 -1.5714,1.538424 H 3.14285 A 1.555,1.5549734 0 0 1 1.5714,16.923031 V 3.0770185 A 1.55535,1.5553234 0 0 1 3.14285,1.5385948 Z"
     fill="#cd151d"
     id="path4504"
     style="stroke-width:0.499995" />
</svg>
