<svg width="20" height="20" version="1.1" xmlns="http://www.w3.org/2000/svg">
 <g transform="scale(.5)">
  <path d="m39.703 19.879a19.728 19.773 0 1 1-39.457 0 19.728 19.773 0 1 1 39.457 0z" fill="#006747"/>
  <path d="m20 0c-11.046 0-20 8.9543-20 20 0 11.046 8.9543 20 20 20 11.046 0 20-8.9543 20-20 0-11.046-8.9543-20-20-20zm0 1.2766c10.341 0 18.723 8.3828 18.723 18.723 0 10.341-8.3828 18.723-18.723 18.723-10.341 0-18.723-8.3828-18.723-18.723 0-10.341 8.3828-18.723 18.723-18.723z" fill="#ffcd00"/>
  <path d="m17.003 38.462a0.52705 0.52705 0 1 1-1.0541 0 0.52705 0.52705 0 1 1 1.0541 0z" fill="#006747"/>
  <path d="m19.707 3.4598c-0.17253 0.00498-0.34186 0.086169-0.45272 0.21868l-0.07683 0.091804h-4.08e-4c0.07766-0.092844-0.10111 0.088852-0.20134 0.16312-0.32507 0.24086-0.55523 0.52964-0.78408 0.98069-0.23461 0.46241-0.42157 0.82162-0.57447 1.1005-5.0329 0.85137-9.1642 4.354-10.908 9.0209h26.582c-1.0319-2.7613-2.8997-5.1149-5.2955-6.753-0.27868-0.21656-0.61439-0.41555-0.8948-0.58944l-3.5343-2.0745-3.5347-2.0749c-0.08778-0.05158-0.18862-0.080724-0.29039-0.083924-0.01151-3.677e-4 -0.02317-3.166e-4 -0.03467 0zm0.01576 0.61072 3.5347 2.0749 3.6284 2.1452-0.09263 0.13215c-0.06182 0.1115-0.18243 0.30476-0.26832 0.42947l-0.15642 0.22656-0.46414 0.22222c-0.52415 0.25079-1.2823 0.69039-1.4697 0.85225-0.22978 0.19852-0.41144 0.51689-0.67652 1.1864-0.13688 0.34571-0.37972 0.68352-0.40097 0.75098-0.02125 0.06747-0.04542 0.40561-0.1928 0.75138-0.24769 0.58109-0.3333 0.84968-0.43105 1.357l-0.03389 0.17652h-8.3257l-0.02876-0.11505c-0.09284-0.36883-0.0787-0.46751 0.06699-0.46769 0.23184-3.06e-4 0.35776-0.17349 0.35816-0.49251 1.02e-4 -0.10518 0.02642-0.18386 0.10717-0.31797 0.12805-0.21264 0.13408-0.3141 0.02837-0.49448-0.07046-0.12023-0.07567-0.14716-0.04453-0.24153 0.01927-0.05837 0.04124-0.16913 0.04847-0.24626 0.01694-0.18072 0.10992-0.36162 0.2301-0.4472 0.08749-0.0623 0.11689-0.06578 0.3684-0.0461 0.3213 0.02514 0.26469 0.09395 0.47321-0.57604 0.13245-0.42558 0.13988-0.4686 0.11978-0.67455-0.02466-0.2527-0.12544-0.49504-0.39204-0.9409-0.09581-0.16023-0.18199-0.3215-0.19149-0.35855-0.02913-0.11362 0.04337-0.266 0.23404-0.49251 0.19552-0.23228 0.42352-0.39096 0.73995-0.51497 0.24673-0.096692 0.48724-0.23281 0.73207-0.4145 0.43745-0.32462 0.67686-0.69594 1.513-2.344 0.21657-0.42685 0.3172-0.55471 0.60284-0.76635 0.1265-0.093728 0.26438-0.21161 0.30654-0.26202zm7.4887 4.4169c-3.06e-4 0.00136 0.15075 0.086993 0.15075 0.086993l0.14106 0.068558-0.02167 0.60441c-0.02333 0.65403-0.0994 1.0933-0.24271 1.4015-0.0812 0.17462-0.46686 0.73252-0.69661 1.0075-0.08453 0.10117-0.1901 0.25397-0.23444 0.33964-0.07194 0.13902-0.08097 0.19221-0.08353 0.4933-0.0034 0.39927-0.03878 0.48669-0.36643 0.9011-0.11179 0.14139-0.21848 0.2862-0.2368 0.32191-0.06038 0.11768-0.18938 0.23365-0.26005 0.23365-0.11848 0-0.22164-0.0651-0.24074-0.15209-0.02476-0.1127 0.01959-0.21184 0.15091-0.33767 0.06368-0.06101 0.12462-0.15792 0.14342-0.22774 0.02816-0.10458 0.02307-0.1421-0.03586-0.26793-0.13089-0.27945-0.18358-0.25379-0.6316 0.30457-0.44837 0.5588-0.47045 0.60016-0.47045 0.88652v0.2238h-0.52128c-0.52036 0-0.63497-1.02e-4 -0.63444-0.06895 3.07e-4 -0.03795 0.01352-0.19335 0.02956-0.34515 0.04964-0.47023 0.16334-0.84558 0.42632-1.4106 0.13346-0.28674 0.34237-0.74928 0.46454-1.0276 0.44894-1.0227 0.51012-1.1031 1.0217-1.3416 0.78602-0.36655 1.2838-0.6269 1.4015-0.73326 0.14514-0.13112 0.28161-0.33287 0.49409-0.73089 0.07597-0.14231 0.14304-0.28677 0.1509-0.28479zm-16.314 16.473c-2.496 5.11e-4 -4.1679 0.0017-4.1887 0.0043 1.0474 2.8029 2.956 5.1855 5.4039 6.8262 0.04273 0.0452 0.08641 0.09322 0.1249 0.13869 0.08271 0.09773 0.16368 0.18718 0.23562 0.26162 0.03597 0.03722 0.06878 0.07014 0.10638 0.10402 0.0188 0.01695 0.03778 0.03418 0.06777 0.05673 0.02377 0.01789 0.04047 0.0412 0.12175 0.07487-0.0098-5e-3 -0.02184-0.01046-0.01891-0.01064 0.0023 5.11e-4 0.01497 0.0077 0.01891 0.01064 5.11e-4 2.04e-4 7.15e-4 6.13e-4 0.0012 8.17e-4 0.0054 0.0042 0.011 0.0082 0.01379 0.01064 0.2367 0.20782 0.39304 0.23496 0.62332 0.30772 0.12884 0.04072 0.38571 0.14163 0.47518 0.1844 0.23015 0.11004 0.20628 0.08185 0.41253 0.51576 0.05084 0.10694 0.10117 0.20555 0.14618 0.28802 0.02251 0.04124 0.04274 0.07763 0.06699 0.11623 0.01212 0.01931 0.0245 0.03871 0.0457 0.06698s0.0064 0.05701 0.17454 0.16273c0.193 0.12139 0.28265 0.10741 0.36998 0.11426 0.08733 0.0068 0.16339 0.0042 0.24074-0.0028 0.15469-0.01383 0.2905-0.02536 0.49488-0.13002 0.15298-0.07834 0.19767-0.12963 0.27856-0.20016 0.05892-0.05136 0.11851-0.10779 0.17691-0.16706 0.02939 8e-3 0.05917 0.01549 0.08865 0.02325 0.12409 0.15945 0.27422 0.33994 0.38928 0.46257 0.0058 0.0061 0.0055 0.0081 0.0098 0.01339 0.0036 0.02626 0.0074 0.05207 0.01379 0.07565-0.0547 0.07656-0.10508 0.15371-0.14854 0.22971-0.04783 0.08363-0.08651 0.12053-0.1316 0.30496-0.07597 0.31084-0.11916 0.46518-0.1316 0.50197-0.0053 0.0045-0.0069 0.0047-0.01655 0.01419-0.11117 0.10924-0.22573 0.19734-0.31915 0.4208-0.09343 0.22346-0.05785 0.45377-0.0327 0.57486 0.01088 0.05239 0.0069 0.0302 0.0055 0.03625-0.02119 0.09191-0.0359 0.16696-0.04334 0.25887-0.28237 0.23486-0.3973 0.51961-0.44129 0.85343-9e-3 0.06819-0.03351 0.23201-0.05083 0.3353-0.03802 0.22669-0.1961 0.59876-0.08898 0.87027 0.10712 0.27152 0.31176 0.4405 0.49409 0.56698 0.07801 0.05411 0.23143 0.15144 0.44287 0.15839 0.21144 0.0069 0.34605-0.06619 0.42986-0.10954 0.30507-0.15776 0.60519-0.5598 0.80806-0.95025 0.16086-0.30959 0.21944-0.37882 0.65839-0.76714l8.17e-4 -4.08e-4 0.24468-0.21631c0.12184-0.10747 0.19788-0.26524 0.20607-0.4275l0.01931-0.38101v-8.17e-4c0.02096-0.4105-0.05234-0.20861 0.2238-0.57565 1.02e-4 -1.02e-4 -1.02e-4 -3.07e-4 0-4.09e-4l0.17139-0.2273c0.07885-0.10471 0.12268-0.23535 0.12293-0.36643l4.08e-4 -0.23168v-4.09e-4c6.13e-4 -0.22137 0.05963-0.4304 0.10441-0.51497-0.0058 0.02033 0.18848-0.23506 0.39283-0.43775 0.0022-0.0021 0.0038-0.0038 0.0059-0.0059 0.09389 0.0018 0.18779 0.0028 0.28211 0.0028 6.0872 0 11.279-3.8346 13.291-9.2199 0 0-14.906-0.0058-22.394-0.0043zm6.6501 0.54728c2.4527 0 4.5731 7e-3 4.5731 0.01576 0 0.0088-0.07009 0.15617-0.15603 0.32742-0.2587 0.51552-0.59073 0.97473-1.0599 1.4661-0.23351 0.24457-0.46994 0.50242-0.52522 0.57289-0.16209 0.20666-0.39216 0.73036-0.50946 1.1596-0.17271 0.63201-0.24331 0.8121-0.55083 1.405-0.42467 0.81883-0.54558 1.1971-0.60087 1.8767-0.06324 0.77716-0.1168 0.95822-0.38377 1.303-0.18545 0.2395-0.52163 0.8306-0.63672 1.1194-0.08824 0.22141-0.09794 0.2783-0.10008 0.58274-0.0023 0.32654-0.0062 0.34441-0.11584 0.55753-0.06226 0.12109-0.12204 0.27565-0.1329 0.34358-0.01757 0.10982-0.0092 0.13409 0.0738 0.2171 0.10895 0.10895-0.07537 0.11376 0.0787 0.03507 0.09556-0.04882 0.13223-0.09922 0.22853-0.31442 0.09616-0.2149 0.12902-0.34777 0.20331-0.82466 0.10291-0.66064 0.12774-0.72257 0.50985-1.2561 0.45133-0.63019 0.52073-0.83768 0.56738-1.7021 0.04836-0.89616 0.12352-1.1328 0.57762-1.8168 0.3491-0.52584 0.39574-0.63002 0.5457-1.2191 0.21608-0.84873 0.39223-1.1355 1.3239-2.1541l0.39953-0.43656 0.31678-0.62924 0.31718-0.62884 1.2772 0.0075 1.1635 0.0079 0.04097 0.16273c0.05541 0.21871 0.03212 0.28709-0.24626 0.72143-0.2195 0.3425-0.25778 0.42278-0.3617 0.75374-0.05525 0.17595-0.1458 0.23773-0.42278 0.2896-0.23968 0.04489-0.31748 0.10305-0.3554 0.26517-0.07248 0.30988-0.18062 0.36824-0.68164 0.36761-0.22888-3.06e-4 -0.38961-0.01494-0.43814-0.0394-0.04217-0.02125-0.11197-0.10333-0.15485-0.18243-0.09765-0.18015-0.19406-0.28389-0.30772-0.33097-0.11624-0.04815-0.17082-0.02326-0.23207 0.1052-0.04896 0.10267-0.04816 0.10965 0.02759 0.23838 0.05968 0.10144 0.13477 0.16522 0.31876 0.27069 0.21168 0.12134 0.25205 0.15905 0.33294 0.31127 0.0506 0.09523 0.11449 0.19884 0.14184 0.2301 0.11293 0.12912 0.12323 0.18488 0.06974 0.37076-0.02795 0.09714-0.07792 0.2306-0.11111 0.2963-0.04837 0.09575-0.05369 0.13402-0.02679 0.19306 0.07451 0.16354 0.01214 0.36438-0.10638 0.3424-0.0351-0.0065-0.08766-0.07061-0.12884-0.15682-0.03828-0.08012-0.08796-0.14539-0.11032-0.14539-0.11168 0-0.19936 0.25865-0.24902 0.73562-0.03709 0.35636-0.06473 0.4218-0.20882 0.49527-0.07104 0.03621-0.18907 0.11188-0.26241 0.16785-0.1519 0.11593-0.55651 0.28104-0.74902 0.30575-0.09556 0.01227-0.16134 2.04e-4 -0.25098-0.04649-0.06682-0.03483-0.14141-0.06344-0.16588-0.06344-0.08571 0-0.31074 0.15658-0.35894 0.2498-0.07325 0.14164-0.03489 0.22736 0.15603 0.34949 0.16669 0.10663 0.23232 0.19423 0.27305 0.36367 0.03296 0.13712-0.03068 0.2436-0.23286 0.39007-0.21297 0.15428-0.29973 0.28824-0.39322 0.60638-0.06559 0.2232-0.07275 0.23308-0.45627 0.61348-0.23631 0.23439-0.42899 0.45523-0.48936 0.56107-0.1194 0.20934-0.18801 0.50843-0.18873 0.82427l-4.08e-4 0.23207-0.1714 0.22774c-0.29006 0.38561-0.32341 0.47371-0.34594 0.91253l-0.01931 0.3818-0.24547 0.2167c-0.45705 0.4043-0.61089 0.58681-0.7963 0.94366-0.19146 0.36849-0.41617 0.62166-0.54643 0.68902-0.11176 0.05779-0.15129 0.05636-0.24389-0.0079-0.29323-0.2034-0.21457-0.45515-0.15097-0.83441 0.01869-0.11146 0.04326-0.27185 0.05437-0.35619 0.02597-0.1971 0.13271-0.39859 0.26162-0.4937 0.12761-0.09415 0.17693-0.18227 0.17927-0.31915 1e-3 -0.05903 0.01598-0.16806 0.0331-0.24232 0.02163-0.09383 0.02069-0.18452-0.0028-0.29748-0.04042-0.19472-0.02421-0.23311 0.18203-0.43578 0.15264-0.14998 0.15276-0.1504 0.31324-0.80693 0.01498-0.06131 0.10318-0.21554 0.19582-0.3424 0.17764-0.24325 0.1929-0.29664 0.12214-0.42041-0.0241-0.04217-0.04432-0.11548-0.04491-0.16312-8.17e-4 -0.06155-0.04826-0.13715-0.1643-0.26084-0.08982-0.09574-0.25598-0.29391-0.36919-0.4405-0.20541-0.26598-0.32716-0.36721-0.48778-0.40504-0.11973-0.0282-0.19049 0.0182-0.44799 0.29393-0.12446 0.13327-0.28313 0.27173-0.35264 0.30733-0.12894 0.06603-0.4259 0.09252-0.50158 0.04492-0.0209-0.01315-0.11398-0.18364-0.20686-0.37904-0.22676-0.47706-0.37755-0.64996-0.70094-0.80457-0.13763-0.0658-0.3873-0.163-0.55477-0.21592-0.19167-0.06055-0.34141-0.12883-0.40426-0.184-0.0549-0.04822-0.12501-0.09575-0.15563-0.1056-0.03063-0.0098-0.17788-0.16217-0.32742-0.33885-0.14955-0.17668-0.33854-0.36405-0.41962-0.41608s-0.18442-0.14342-0.2301-0.20331c-0.04568-0.0599-0.12673-0.12721-0.17967-0.14933-0.12031-0.05031-0.17483-0.11179-0.27147-0.30579-0.10929-0.21938-0.12853-0.32392-0.13278-0.72064-2e-3 -0.19397-0.01403-0.4094-0.0264-0.47872-0.01801-0.10095-0.0086-0.15302 0.04729-0.26084 0.1367-0.2636 0.06436-0.58581-0.21474-0.95548-0.07471-0.09894-0.1253-0.19929-0.1253-0.24862 0-0.10542 0.09569-0.29394 0.24704-0.48542 0.12456-0.15758 0.18175-0.30809 0.18203-0.4803 3.06e-4 -0.18634 0.10387-0.31808 0.33452-0.42553 0.17372-0.08093 0.24415-0.13952 0.43184-0.35816 0.24138-0.28118 0.36143-0.37727 0.59338-0.47597 0.14729-0.06267 0.17584-0.06304 4.6076-0.06304zm7.9748 0.24508c0.06477 0 0.07289 0.01419 0.07289 0.12451 0 0.06831-0.02266 0.16732-0.05004 0.22025-0.03686 0.07127-0.04499 0.14146-0.03153 0.27029 0.01001 0.09568 0.0056 0.21796-0.0099 0.27187-0.03618 0.12617-0.32321 0.5879-0.57683 0.9279-0.16632 0.22297-0.22301 0.27585-0.35185 0.32939-0.16862 0.07008-0.22986 0.07759-0.29708 0.03507-0.03783-0.02393-0.03345-0.05221 0.02994-0.18755 0.04104-0.08761 0.10538-0.17943 0.14302-0.2041s0.11624-0.11629 0.17455-0.20331c0.05831-0.08701 0.18426-0.23387 0.27975-0.32664 0.22589-0.21946 0.2977-0.36678 0.3948-0.8093 0.044-0.20051 0.09559-0.38364 0.11466-0.40662 0.01907-0.02297 0.06747-0.04177 0.10756-0.04177zm-2.1411 3.1288c0.0533-6.13e-4 0.21854 0.1817 0.23956 0.26438 0.02512 0.09882-0.19467 0.58438-0.31324 0.69228-0.05455 0.04964-0.10736 0.12304-0.11742 0.16312-0.01235 0.0492-0.06435 0.09324-0.15997 0.13554-0.0779 0.03447-0.14332 0.06141-0.14539 0.05989-2e-3 -0.0015-0.0498-0.01603-0.10638-0.03231-0.09357-0.02693-0.09903-0.0343-0.05753-0.08156 0.0251-0.02858 0.07417-0.1089 0.10914-0.17849 0.03546-0.07057 0.11088-0.15412 0.17021-0.18913 0.16674-0.09838 0.20858-0.18923 0.2305-0.49921 0.01943-0.27481 0.04588-0.33329 0.15051-0.33452zm-1.1249 1.7234c0.06358-0.0015 0.18006 0.06538 0.18006 0.11702 0 0.08681-0.10591 0.31177-0.19898 0.42238-0.06967 0.08279-0.33624 0.25138-0.39756 0.25138-0.0088 0-0.03673-0.05002-0.06226-0.11111-0.02552-0.0611-0.04649-0.12806-0.04649-0.14854s0.08021-0.07164 0.17809-0.11387c0.16264-0.07018 0.1828-0.08974 0.23404-0.22734 0.03084-0.08281 0.06706-0.16301 0.08077-0.17809 0.0049-0.0054 0.01199-9e-3 0.02049-0.01063 0.0037-7.15e-4 0.0076-0.0011 0.01183-0.0012zm-1.0922 1.0201c0.08228-0.0012 0.13747 0.02429 0.13712 0.0729-3.07e-4 0.0466-0.04212 0.12618-0.29078 0.55201-0.08831 0.15124-0.14187 0.18366-0.22065 0.13357-0.04431-0.02817-0.19346-0.2445-0.19346-0.28054 0-0.0142 0.05562-0.10921 0.12372-0.21119 0.1053-0.15768 0.14636-0.19275 0.27305-0.23483 0.06277-0.02085 0.12163-0.03118 0.171-0.03191z" fill="#ffcd00"/>
 </g>
</svg>
