<svg width="40" height="40" version="1.1" viewBox="0 0 40 40" xmlns="http://www.w3.org/2000/svg">
 <path d="m20 1.1785c1.5294 1.3029 3.5123 2.0893 5.6789 2.0893 2.1666 0 4.1496-0.78656 5.6789-2.0895l7.4637 7.4637c-1.3735 1.9523-2.1799 4.3325-2.1799 6.9008 0 1.8474 0.41711 3.5972 1.1624 5.1605 0.64395 1.3516 1.0175 2.8918 1.0175 4.4887 0 5.7352-4.6491 10.384-10.384 10.384h-1.6299c-2.7483 0-5.201 1.2653-6.8074 3.2451-1.6064-1.9798-4.0591-3.2451-6.8074-3.2451h-1.6299c-5.7352 0-10.384-4.6491-10.384-10.384 0-1.5969 0.3736-3.1371 1.0176-4.4887 0.74523-1.5634 1.1624-3.3132 1.1624-5.1605 0-2.5683-0.80652-4.9485-2.18-6.9008l7.4637-7.4637c1.5294 1.3029 3.5123 2.0895 5.6789 2.0895 2.1666 0 4.1496-0.78637 5.6789-2.0893z" fill="#fff" fill-rule="evenodd" stroke="#000" stroke-linecap="round" stroke-linejoin="round" stroke-miterlimit="3.8637" stroke-width="2.3568"/>
</svg>
