<svg xmlns="http://www.w3.org/2000/svg" width="65.9665" height="40.018" viewBox="0 0 65.9665 40.018">
  <path d="M1.746,32.6348V7.3948q0-.6642,1.0077-.9963L32.3142,1.7822a2.5814,2.5814,0,0,1,.6717-.0332,2.5824,2.5824,0,0,1,.6719.0332l29.56,4.6163q1.0077.3321,1.0078.9963v25.24q0,.664-1.0078.9963l-29.56,4.6162a2.5767,2.5767,0,0,1-.6719.0332,2.575,2.575,0,0,1-.6717-.0332l-29.56-4.6161q-1.0077-.3323-1.0077-.9963" transform="translate(-0.0027 -0.0057)" fill="#d40000" stroke="#fff" stroke-miterlimit="10" stroke-width="3.4866"/>
</svg>
