<svg width="22" height="20" xml:space="preserve" style="overflow:visible" xmlns="http://www.w3.org/2000/svg">
 <path d="M 18.697477,13.445771 18.341303,8.5925551 17.725508,8.1994093 18.452171,6.383079 17.2656,6.5428605 17.738325,5.8436327 17.977373,4.2958485 18.303144,4.0186403 17.528492,3.2183443 H 15.999481 L 14.127989,4.3810713 14.620664,2.9942155 13.938106,1.8595273 12.888077,2.093807 12.375713,1.5814437 12.609692,0.99994443 8.3171402,2.370975 7.5478607,1.9677183 V 1.5006375 H 3.8628652 V 2.1876618 H 3.1133951 V 3.6281604 L 2.00583,4.5455813 H 1.4425 v 0.4995461 h 0.7245602 l 0.7910203,-0.4393438 0.358276,0.879573 v 9.7129914 l -0.5323234,0.539194 1.3613825,0.969867 0.05986,1.541839 0.4686905,0.612817 0.2506484,-0.396426 0.3189091,0.332944 1.4923405,-0.266755 -0.285669,0.468228 4.3377239,-0.566007 0.488138,-0.104922 4.235367,-0.942742 0.385097,0.440833 0.854201,-0.176453 0.353507,-0.706973 V 16.605817 L 20.5575,14.802576 Z" style="stroke-width:2;stroke-miterlimit:4;stroke:#000;stroke-linejoin:round"/>
 <path d="M 18.697477,13.445771 18.341303,8.5925551 17.725508,8.1994093 18.452171,6.383079 17.2656,6.5428605 17.738325,5.8436327 17.977373,4.2958485 18.303144,4.0186403 17.528492,3.2183443 H 15.999481 L 14.127989,4.3810713 14.620664,2.9942155 13.938106,1.8595273 12.888077,2.093807 12.375713,1.5814437 12.609692,0.99994443 8.3171402,2.370975 7.5478607,1.9677183 V 1.5006375 H 3.8628652 V 2.1876618 H 3.1133951 V 3.6281604 L 2.00583,4.5455813 H 1.4425 v 0.4995461 h 0.7245602 l 0.7910203,-0.4393438 0.358276,0.879573 v 9.7129914 l -0.5323234,0.539194 1.3613825,0.969867 0.05986,1.541839 0.4686905,0.612817 0.2506484,-0.396426 0.3189091,0.332944 1.4923405,-0.266755 -0.285669,0.468228 4.3377239,-0.566007 0.488138,-0.104922 4.235367,-0.942742 0.385097,0.440833 0.854201,-0.176453 0.353507,-0.706973 V 16.605817 L 20.5575,14.802576 Z" style="fill:#fff"/>
</svg>
