<svg width="25" height="20" xmlns="http://www.w3.org/2000/svg">
 <path d="m11.931 19.365c-0.04946-0.0068-0.23829-0.02711-0.41963-0.04507-2.9571-0.29275-5.8326-1.8094-7.8064-4.1174-1.6979-1.9854-2.7366-4.5736-2.9408-7.3276-0.043135-0.5818-0.022341-1.501 0.041762-1.8461 0.22158-1.1929 0.72477-2.1365 1.5832-2.9692 0.71584-0.69435 1.3381-1.0363 2.4725-1.3586 2.7644-0.78554 5.2634-1.116 8.1185-1.0736 2.2079 0.032822 4.1528 0.28384 6.2345 0.80466 1.7211 0.4306 2.3423 0.68248 3.058 1.2399 0.31319 0.24392 0.81999 0.77509 1.0538 1.1044 0.52141 0.73453 0.84097 1.6406 0.90744 2.5728 0.18476 2.5914-0.43369 5.0681-1.8222 7.2974-1.2157 1.9519-2.7742 3.4096-4.7255 4.4201-1.2696 0.65742-2.5496 1.054-4.0088 1.2421-0.34592 0.04459-1.5499 0.08331-1.7463 0.05617z" fill="#fff" stroke="#000" stroke-width="1.243"/>
</svg>
