<?xml version="1.0" encoding="UTF-8" standalone="no"?>
<svg
   width="20"
   height="20"
   version="1.0"
   viewBox="0 0 19.966 19.967"
   id="svg10"
   xmlns="http://www.w3.org/2000/svg"
   xmlns:svg="http://www.w3.org/2000/svg">
  <defs
     id="defs14" />
  <g
     transform="matrix(.034076 0 0 .034201 -.23961 -.30865)"
     fill="#003f87"
     stroke="#003f87"
     stroke-width="15.935"
     id="g4"
     style="stroke:#ffffff;stroke-opacity:1">
    <path
       d="m15 232.5c0-31.979 4.1694-62.984 11.995-92.501h546.01c7.8242 29.517 11.994 60.522 11.994 92.501 0 173.11-122.17 317.67-285 352.18-162.83-34.505-285-179.07-285-352.18z"
       fill="#003f87"
       stroke="#003f87"
       stroke-width="15.935"
       id="path2"
       style="stroke:#ffffff;stroke-opacity:1" />
  </g>
  <g
     transform="matrix(.034261 0 0 .034772 -.29496 -.28946)"
     fill="#af1e2d"
     stroke="#af1e2d"
     stroke-width="14.072"
     id="g8"
     style="stroke:#ffffff;stroke-opacity:1">
    <path
       d="m31.324 125c12.255-39.221 31.039-75.559 55.079-107.74 33.102 9.1328 67.968 14.013 103.97 14.013 38.061 0 74.848-5.4517 109.62-15.618 34.775 10.166 71.562 15.618 109.62 15.618 36.006 0 70.873-4.8799 103.97-14.013 24.039 32.181 42.823 68.519 55.078 107.74z"
       fill="#af1e2d"
       stroke="#af1e2d"
       stroke-width="14.072"
       id="path6"
       style="stroke:#ffffff;stroke-opacity:1" />
  </g>
</svg>
