<svg width="25.86" height="20" version="1.0" xmlns="http://www.w3.org/2000/svg">
 <path d="m2.9689 18.641s-0.97744-2.0061-0.47275-3.9292c-0.1494-0.5174-0.7104-2.2836-0.11116-3.9989 0.17356-0.2532-0.47058-1.1157-0.512-1.435-0.15187-1.1713-0.90615-8.0265-1.0882-8.653 5.946-0.042128 16.052-0.03331 16.052-0.03331s-0.11846 0.82-0.15679 0.96899c-0.28229 1.0974 0.41297 1.0738 0.65015 1.0835 0.611 0.02496 0.35359-0.00425 0.7525 0.07845 0.4071 0.11286 0.32962 0.31576 1.2663 1.279 0.87314 1.0233 1.4281 1.0631 2.3137 1.9179 1.5145 1.0521 3.9324 2.7591 3.5692 3.7948-1.0287 2.2181-1.6689 3.6938-1.9879 5.926-0.17686 1.4213-1.0235 2.9545-1.9656 2.9385-0.7276-0.01345-0.43962 0.15802-0.71415 0.47231-0.1601 0.1833-0.4016 0.35745-0.7745 0.35906-0.35708 0.0016-0.63075-0.0395-0.85294-0.31865-0.33687-0.42322 0.10165-0.56715-0.878-0.53735-0.8897 0.02705-15.09 0.08697-15.09 0.08697" fill="#fff" fill-rule="evenodd" stroke="#000" stroke-linecap="round" stroke-width="1.181"/>
</svg>
