<svg width="21" height="20" version="1.0" xmlns="http://www.w3.org/2000/svg">
 <path style="stroke:#000;stroke-width:2;stroke-miterlimit:4;stroke-dasharray:none;stroke-opacity:1" d="M 4,16 H 2 V 6.5 L 1,1 17.973445,1.00012 c 0.44463,3.1e-6 0.538351,0.6154577 0.38277,1.11034 C 18.177849,2.6778182 17.976117,2.9069328 18.279105,3 h 1.62779 l 2.6e-4,1.34272 c 2.8e-5,0.1424368 -0.03881,0.289679 -0.0577,0.38849 L 19.217,8.03881 c -0.06278,0.3283166 -0.05861,0.3213438 -0.212295,0.72438 l -1.626812,4.266415 c -0.236099,0.619183 -0.354435,1.272592 -0.37604,1.7596 -0.02611,0.588508 0.285033,1.204005 0.28312,1.753311 l -0.006,1.722079 c -0.0011,0.314649 -0.185929,0.735803 -0.462866,0.7358 L 4,19 Z"/>
 <path style="fill:#fff;stroke-width:2;stroke-miterlimit:4;stroke-dasharray:none" d="M 4,16 H 2 V 6.5 L 1,1 17.973445,1.00012 c 0.44463,3.1e-6 0.538351,0.6154577 0.38277,1.11034 C 18.177849,2.6778182 17.976117,2.9069328 18.279105,3 h 1.62779 l 2.6e-4,1.34272 c 2.8e-5,0.1424368 -0.03881,0.289679 -0.0577,0.38849 L 19.217,8.03881 c -0.06278,0.3283166 -0.05861,0.3213438 -0.212295,0.72438 l -1.626812,4.266415 c -0.236099,0.619183 -0.354435,1.272592 -0.37604,1.7596 -0.02611,0.588508 0.285033,1.204005 0.28312,1.753311 l -0.006,1.722079 c -0.0011,0.314649 -0.185929,0.735803 -0.462866,0.7358 L 4,19 Z"/>
</svg>
