<svg width="28" height="20" xmlns="http://www.w3.org/2000/svg">
 <path d="m26.897 19.498c-0.04242 0.0044-0.16661-0.09306-0.2836-0.16865-0.18783-0.12137-0.26794-0.14077-0.68536-0.16599-0.40877-0.02472-0.51365-0.04923-0.77583-0.18148-0.39596-0.19973-0.68138-0.28247-0.97653-0.28309-0.19779-4.5e-4 -0.28061-0.02912-0.47251-0.16352-0.15096-0.13536-0.35944-0.16107-0.523-0.23436-0.20562-0.10839-0.63011-0.04963-1.0424 0.14437-0.40452 0.19034-0.4755 0.19449-0.7899 0.04613-0.66259-0.31009-1.3319-0.67355-1.9594-0.98226-0.19584-0.08276-0.42683-0.08726-4.7503-0.09306-5.8581-8e-3 -8.5662-0.18404-13.931-0.68997 0.31936-5.6123 0.56793-10.504 0.90401-16.161 4.7103 0.34283 9.923 0.44818 15.242 0.29201 2.6037-0.07645 9.2578-0.32185 9.3617-0.34525 0.1714-0.038625 0.42699 0.059939 0.4859 0.18734 0.14268 0.30855 0.05766 0.45062-0.76979 1.2868-0.55099 0.55676-0.59341 0.61242-0.59341 0.77844 0 0.10828 0.0373 0.22552 0.09457 0.29723 0.05204 0.065142 0.09477 0.16751 0.09507 0.22751 0.05317 0.27138 0.09045 0.52253 0.14059 0.79967 6.52e-4 0.20221 0.12688 0.34695 0.47422 0.54368 0.11307 0.064041 0.2949 0.20191 0.40406 0.30637l0.19847 0.18994c0.03816 2.3691 0.07637 4.7384 0.13248 7.1071 0 0 0.06767 0.7451 0.02788 0.78013-0.05782 0.0657-0.26288 0-0.26288 0-0.24596 0-0.26493 8e-3 -0.2948 0.12533-0.01755 0.06894-7e-3 0.21595 0.02276 0.3267 0.03008 0.11075 0.05465 0.27973 0.05465 0.37551 0 0.10531 0.06799 0.31219 0.17203 0.52331 0.16504 0.33494 0.17189 0.36869 0.16841 0.829-2e-3 0.30684 0.02086 0.54826 0.06429 0.66956 0.10996 0.30713 0.08835 0.73167-0.05024 0.9886-0.14206 0.26328-0.15604 0.60028-0.03891 0.93895 0.08364 0.24181 0.26 0.49077 0.33473 0.61931 0.22162 0.38122 0.27486 0.86002 0.21122 0.93483-0.074 0.087-0.30876 0.14248-0.38884 0.15084z" fill="#fff" stroke="#006747"/>
</svg>
