<?xml version="1.0" encoding="UTF-8"?>
<svg width="20" height="20" version="1.1" viewBox="0 0 450 450" xmlns="http://www.w3.org/2000/svg" xmlns:cc="http://creativecommons.org/ns#" xmlns:dc="http://purl.org/dc/elements/1.1/" xmlns:rdf="http://www.w3.org/1999/02/22-rdf-syntax-ns#">
 <metadata>
  <rdf:RDF>
   <cc:Work rdf:about="">
    <dc:format>image/svg+xml</dc:format>
    <dc:type rdf:resource="http://purl.org/dc/dcmitype/StillImage"/>
    <dc:title/>
   </cc:Work>
  </rdf:RDF>
 </metadata>
 <path d="m118.78 11.997-5.7568 8.833-1.8457 2.5488c-10.755 15.738-21.885 36.272-21.885 45.176 0 8.9035 2.1226 8.8551 3.6914 12.217 1.2984 2.7824 1.1082 5.382 0.92286 8.3495-0.18832 3.0136-1.5889 8.082-7.3388 10.679-5.7501 2.5961-21.207 23.504-23.247 28.696-2.041 5.193-22.295 38.482-15.601 46.757 6.5727 8.1257 10.611 5.0441 13.579 5.2294 2.9678 0.1854 5.0537 1.9336 5.0537 1.9336s0.92286 0.80188 0.92286 3.955-3.6184 7.101-4.702 11.074c-1.1129 4.081-2.6111 11.321-0.70312 14.502 1.7012 2.8366 1.5381 2.5693 1.5381 5.537 0 2.9677-2.8512 3.1509-2.1094 7.6025 0.74189 4.4516 5.4014 4.0932 7.9981 8.1738s4.9846 4.8157 2.9444 8.5255c-1.7607 3.2011-4.9802 15.934-3.8673 21.313 1.113 5.3791 8.6972 7.6464 11.294 7.6464 2.597 0 10.357-2.1724 13.14-0.13275 2.7824 2.0403 5.2461 1.8547 9.0968 4.4384 4.451 2.9873 15.214 1.2179 17.226 2.5488 0.23171 0.153 0.3821 0.3267 0.5713 0.4833v8.8769c-1.2631 3.2033-2.668 7.3406-2.461 11.689 0.23841 5.006 1.2194 12.058 2.461 15.776l5.8887-7.6025 40.869 4.79-43.506 53.174c-6.3781 7.529-15.674 18.452-16.787 19.907-2.0658 1.8081-5.2736-0.70313-5.2736-0.70313s0.71359 4.7772-0.3955 8.3057c-1.8475 5.8772-5.9531 11.671-8.9208 15.381-2.968 3.71-8.4006 9.218-17.622 14.81-1.352 0.8199-12.43 6.3846-22.939 6.7676v8.7451h369.41c9.7387 0 17.578-7.8395 17.578-17.578v-390.85c0-9.7387-7.8394-17.578-17.578-17.578h-301.64z" fill="#006e55" stroke="#fff" stroke-width="31.5"/>
 <path d="m118.78 11.997-5.7568 8.833-1.8457 2.5488c-10.755 15.738-21.885 36.272-21.885 45.176 0 8.9035 2.1226 8.8551 3.6914 12.217 1.2984 2.7824 1.1082 5.382 0.92286 8.3495-0.18832 3.0136-1.5889 8.082-7.3388 10.679-5.7501 2.5961-21.207 23.504-23.247 28.696-2.041 5.193-22.295 38.482-15.601 46.757 6.5727 8.1257 10.611 5.0441 13.579 5.2294 2.9678 0.1854 5.0537 1.9336 5.0537 1.9336s0.92286 0.80188 0.92286 3.955-3.6184 7.101-4.702 11.074c-1.1129 4.081-2.6111 11.321-0.70312 14.502 1.7012 2.8366 1.5381 2.5693 1.5381 5.537 0 2.9677-2.8512 3.1509-2.1094 7.6025 0.74189 4.4516 5.4014 4.0932 7.9981 8.1738s4.9846 4.8157 2.9444 8.5255c-1.7607 3.2011-4.9802 15.934-3.8673 21.313 1.113 5.3791 8.6972 7.6464 11.294 7.6464 2.597 0 10.357-2.1724 13.14-0.13275 2.7824 2.0403 5.2461 1.8547 9.0968 4.4384 4.451 2.9873 15.214 1.2179 17.226 2.5488 0.23171 0.153 0.3821 0.3267 0.5713 0.4833v8.8769c-1.2631 3.2033-2.668 7.3406-2.461 11.689 0.23841 5.006 1.2194 12.058 2.461 15.776l5.8887-7.6025 40.869 4.79-43.506 53.174c-6.3781 7.529-15.674 18.452-16.787 19.907-2.0658 1.8081-5.2736-0.70313-5.2736-0.70313s0.71359 4.7772-0.3955 8.3057c-1.8475 5.8772-5.9531 11.671-8.9208 15.381-2.968 3.71-8.4006 9.218-17.622 14.81-1.352 0.8199-12.43 6.3846-22.939 6.7676v8.7451h369.41c9.7387 0 17.578-7.8395 17.578-17.578v-390.85c0-9.7387-7.8394-17.578-17.578-17.578h-301.64z" fill="#006e55" stroke="#fff" stroke-width="2.25"/>
 <g fill="#fff">
  <g stroke-width="1.7668">
   <path d="m225.05 167.31c-0.0587-6.1387-1.5192-11.634-4.3809-16.485-2.8618-4.8514-6.7721-8.6024-11.731-11.253-3.0452-1.5813-7.0869-3.1523-12.125-4.713-5.0383-1.5606-11.239-3.0901-18.602-4.5885-6.765-1.5017-11.423-3.1489-13.973-4.9415-2.5504-1.7924-3.7615-4.1869-3.6334-7.1837 0.0415-3.6021 1.6194-6.4051 4.7337-8.4088 3.1143-2.0035 7.5159-3.0208 13.205-3.0521 5.2493 9e-5 10.115 0.91362 14.596 2.7406 4.4811 1.8272 8.4743 4.5678 11.98 8.2219l14.783-13.288c-5.6371-5.7994-11.887-10.104-18.749-12.914-6.862-2.8097-14.399-4.2078-22.609-4.194-11.475 0.13516-20.666 2.9795-27.572 8.5333-6.9068 5.554-10.45 13.008-10.63 22.36-2e-5 3.5124 0.58133 6.8689 1.744 10.07 1.1627 3.2009 2.9067 6.1007 5.2321 8.6994 2.232 2.6092 5.0348 4.7408 8.4088 6.3948 3.3738 1.6541 7.8793 3.1214 13.516 4.4016l5.3152 1.661 5.1491 1.1627 5.1491 1.4949c2.4844 0.59523 4.8236 1.2735 7.0176 2.0346 2.1938 0.76133 4.2839 1.5226 6.2703 2.2839 2.3252 1.1697 4.0692 2.6092 5.2321 4.3185 1.1626 1.7095 1.744 3.6473 1.744 5.8134-0.12809 4.2355-2.4051 7.6821-6.8307 10.34-4.426 2.6576-10.232 4.0279-17.42 4.1109-6.1699 0.0208-11.644-1.1004-16.423-3.3634-4.7788-2.2631-9.215-5.7926-13.309-10.589l-15.946 12.457c6.1733 7.2148 13.011 12.592 20.512 16.132 7.5021 3.5399 16.001 5.3048 25.496 5.2943 5.194-0.0111 10.211-0.65401 15.053-1.9309 4.841-1.2769 9.2356-3.1247 13.184-5.5434 10.436-6.118 15.641-14.81 15.613-26.078z"/>
   <path d="m297.79 231.31v-19.599h-83.547v19.599h32.056v91.687h19.433v-91.687z"/>
   <path d="m373.52 411.46v-19.931h-62.952v-30.396h33.219v-20.429h-33.219v-20.595h60.957v-19.931h-81.222v111.29z"/>
  </g>
  <path d="m178.84 304.49a27.911 27.91 0 1 1-55.822 0 27.911 27.91 0 1 1 55.822 0z" stroke-width="2.9007"/>
 </g>
 <path d="m175.92 304.55a24.974 24.974 0 1 1-49.947 0 24.974 24.974 0 1 1 49.947 0z" fill="#006e55" stroke-width="2.5954"/>
 <path d="m172.58 304.58a21.668 21.668 0 1 1-43.335 0 21.668 21.668 0 1 1 43.335 0z" fill="#fff" stroke-width="2.2519"/>
 <path d="m169.67 304.58a18.73 18.73 0 1 1-37.46 0 18.73 18.73 0 1 1 37.46 0z" fill="#006e55" stroke-width="1.9466"/>
 <path d="m150.92 304.54a5.7065e-5 3.0348e-5 85 1 1-6e-5 1e-5 5.7065e-5 3.0348e-5 85 1 1 6e-5 -1e-5z" fill="#fff" stroke-width="2.9379"/>
 <path d="m362.16 65.2h-265.52s0.44415-6.1868 1.4431-9.5379c1.5644-5.2483 5.5773-10.75 5.5773-10.75l14.656-8.1049 0.26618-10.819h243.58z" fill="#fff"/>
 <path d="m84.85 371.59c9.2568 1.269 11.362 11.319 10.53 17.168-0.77901 5.4532-6.6625 13.503-10.817 18.177-4.1548 4.6742-12.724 9.8677-17.398 11.426-4.6742 1.5581-10.053 2.4404-13.438 2.402-2.8916-0.0328-7.4615-0.60948-10.56-2.3701-0.98844-0.56165-3.0227-1.8979-4.4783-3.5289-0.52025-0.8275 0.29522-2.5803 1.5957-2.3479 1.3738 0.24552 1.7372 1.2153 3.9347 2.2903 2.162 1.0576 3.802 1.3429 5.3578 1.287 3.2063-0.11529 4.1026-0.5312 5.4947-1.4138 1.2984-1.0387-0.17907-1.533-0.94584-1.6719-2.5238-0.45716-3.6708-0.39418-5.6073-0.66392-1.6957-0.23619-4.2417-0.66494-6.1334-2.1519-0.51606-0.40562-2.155-1.5448-2.8412-3.2871-0.47465-1.2052 0.0441-2.0808 0.0441-2.0808 0.84026-1.9669 2.4565-0.69477 2.808-0.0116 1.5788 3.0681 7.3504 4.3634 10.606 3.6544 1.5082-0.32852 2.7071-0.63134 3.5405-1.0664 1.9592-1.0227 4.0298-3.264 1.9469-4.1793-1.0327-0.45386-2.6283-0.47744-5.7218-0.53544-3.4371-0.0644-6.4221-0.57986-7.708-2.0068-0.70652-0.78398-0.50388-2.1341 0.0455-2.5608 0.86894-0.86624 3.0729 0.20641 6.4487 0.20641 2.4005 0 5.103-0.93317 6.5424-1.7538 1.005-0.57298 2.6267-1.9829 3.4959-3.7697 0.36501-0.75031 1.005-1.8664 1.3591-3.1857 0.35439-1.3206 0.71868-2.2918 0.96734-3.1976 1.3764-5.0142 5.1085-9.1947 7.4913-11.41 3.8391-3.3208 9.3418-4.2912 13.442-3.4176z" fill="#006e55"/>
 <path d="m369 35.658-261.26-0.6099-12.145 18.453 273.4 0.61z" fill="#006e55"/>
 <path d="m94.285 371.92 37.654-45.258m-45.258 38.58 37.097-45.258 16.323 13.355-38.21 45.258-7.605-6.6775z" fill="#fff" stroke="#006e55" stroke-width="2.9475"/>
</svg>
