<svg width="40" height="40" version="1.1" xmlns="http://www.w3.org/2000/svg">
 <path d="m0.09293 2.5837c0-1.3742 1.1141-2.4882 2.4882-2.4882h34.837c1.3742 0 2.4882 1.1141 2.4882 2.4882v34.836c0 1.3743-1.1141 2.4884-2.4882 2.4884h-34.837c-1.3742 0-2.4882-1.1141-2.4882-2.4884z" stroke="#000" stroke-width=".18433"/>
 <path d="m5.3392 20.308h-1.5078s-0.26912-0.2693-0.21548-0.70026c0-0.37695 2.1002-3.8233 2.2619-5.008v-2.0464c0-0.75389 1.454-2.1002 1.6154-3.2311 0.2693-0.80772 0.98007-2.3693 2.3157-2.8541 0.59224-0.2153 0.75371-0.7539 0.86136-1.6154 0.32331-0.7539 3.4554-1.5732 5.8161-1.9926 2.9367-0.52146 6.085-0.10764 7.6468 0.10765 0.98007 0.12921 7.4313 3.8775 8.1314 10.663 0.16165 1.5616 2.3155 3.7158 2.9618 4.2004l-0.054 0.80772 0.4846 0.43077c-0.16147 2.9079-2.6385 5.7621-4.2003 6.0314-0.8938 0.15078-1.4132 0.82302-1.6693 1.7231-0.32018 1.1255 0.09014 2.1719 1.077 2.8003l0.70007-0.2693c0.32313-0.43077 2.1308-1.4787 2.0464-0.64625-0.05549 0.54708-0.64643 0.59243-0.96956 1.0232 0.5386 0.70008 0.10802 2.1002 0.10802 2.1002-1.1308 0.53842-0.48478 0.96938-0.48478 0.96938 0.53842 1.2923 1.8849 1.1847 2.8541 2.3155 0.52773 0.62468 0.64478 3.4755 0.64625 2.4772h-29.726v-0.48478c0.054006-1.3463 6.2789-4.9864 6.5698-7.4098 0.22617-1.9388-3.7697-2.531-6.3007-2.7142 0 0-0.93693-0.1399-0.96919-0.69989-0.07539-0.73252 0.24774-1.1847 0.26949-1.5616 0.032255-0.4846-0.054006-1.7233-0.054006-1.7233l0.21529-0.75408-0.2693-0.32313 0.2693-0.91537s-0.053821-0.69989-0.43077-0.69989z" fill="#fff" stroke="#000" stroke-width=".40173"/>
</svg>
