<svg width="26" height="20" version="1.0" xmlns="http://www.w3.org/2000/svg">
 <path style="stroke-width:2;stroke-miterlimit:4;stroke-dasharray:none;stroke:#000;stroke-opacity:1" d="M 3.68692,16.35219 H 1.83669 V 6.54642 L 1.093,1 22.973814,0.9998625 c 0.44463,-2.79e-6 0.538351,0.6154577 0.38277,1.11034 -0.178366,0.5673582 -0.393809,1.1957 -0.07685,1.1957 h 1.62779 v 1.03656 c 0,0.1424368 -0.03881,0.2896797 -0.0577,0.38849 l -0.632455,3.3076 c -0.06278,0.3283173 -0.05861,0.3213424 -0.212295,0.72438 l -1.626812,4.2664145 c -0.236099,0.619184 -0.354435,1.272592 -0.37604,1.7596 -0.02611,0.588509 0.285034,1.204006 0.28312,1.753311 l -0.006,1.722079 c -0.0011,0.31465 -0.185929,0.735803 -0.462866,0.7358 L 3.68714,18.99976 Z"/>
 <path style="fill:#fff;stroke-width:2;stroke-miterlimit:4;stroke-dasharray:none" d="M 3.68692,16.35219 H 1.83669 V 6.54642 L 1.093,1 22.973814,0.9998625 c 0.44463,-2.79e-6 0.538351,0.6154577 0.38277,1.11034 -0.178366,0.5673582 -0.393809,1.1957 -0.07685,1.1957 h 1.62779 v 1.03656 c 0,0.1424368 -0.03881,0.2896797 -0.0577,0.38849 l -0.632455,3.3076 c -0.06278,0.3283173 -0.05861,0.3213424 -0.212295,0.72438 l -1.626812,4.2664145 c -0.236099,0.619184 -0.354435,1.272592 -0.37604,1.7596 -0.02611,0.588509 0.285034,1.204006 0.28312,1.753311 l -0.006,1.722079 c -0.0011,0.31465 -0.185929,0.735803 -0.462866,0.7358 L 3.68714,18.99976 Z"/>
</svg>
