<svg height="20" width="20" xmlns="http://www.w3.org/2000/svg">
 <path style="fill:#000" d="M 4,0 A 1.0001,1.0001 0 0 0 3,1 V 1.6621094 A 1.0001,1.0001 0 0 0 3.08594,1.8007812 1.0001,1.0001 0 0 0 1.792971,2.328125 L 0.072268,6.6289062 A 1.0001,1.0001 0 0 0 0,7 c 0,5.997718 4.417347,11.016676 9.65625,12.939453 a 1.0001,1.0001 0 0 0 0.6875,0 C 15.582652,18.016676 20,12.997718 20,7 A 1.0001,1.0001 0 0 0 19.927734,6.6289062 L 18.207031,2.328125 A 1.0001,1.0001 0 0 0 16.914062,1.8007812 1.0001,1.0001 0 0 0 17,1.6621094 V 1 A 1.0001,1.0001 0 0 0 16,0 Z"/>
 <path style="fill:#fff" d="M 4 1 L 4 1.6621094 L 7.3359375 3.3300781 A 0.75 0.75 0 0 1 7.6699219 4.3359375 A 0.75 0.75 0 0 1 6.6640625 4.6699219 L 2.7207031 2.6992188 L 1 7 C 1 12.49778 5.12287 17.21 10 19 C 14.87713 17.21 19 12.49778 19 7 L 17.279297 2.6992188 L 13.335938 4.6699219 A 0.75 0.75 0 0 1 12.330078 4.3359375 A 0.75 0.75 0 0 1 12.664062 3.3300781 L 16 1.6621094 L 16 1 L 4 1 z"/>
</svg>
