<svg width="26" height="20" version="1.0" xmlns="http://www.w3.org/2000/svg">
 <path d="m 2.9741477,18.499966 c 0,0 -0.9841484,-1.801413 -0.4758954,-3.743103 C 2.3477976,14.234463 1.7828371,12.451189 2.3863076,10.719308 2.5610929,10.463661 1.9124054,9.5928232 1.870693,9.2704366 1.7177507,8.0878142 0.95814546,1.1325561 0.7748102,0.5 l 16.1653248,1.596e-4 c 0,0 -0.119296,0.8279267 -0.157897,0.9783569 -0.284283,1.1080081 0.415886,1.08418 0.654741,1.0939737 0.615313,0.025201 0.356085,-0.00429 0.757813,0.079208 0.409972,0.1139515 0.331946,0.3188123 1.27524,1.2913636 0.879303,1.0331918 1.43818,1.0733764 2.330033,1.9364395 1.525192,1.0622704 3.960162,2.7857712 3.594398,3.8314829 -1.035962,2.2395408 -1.680682,3.7295058 -2.001934,5.9832838 -0.178108,1.435039 -1.030918,2.821887 -1.979669,2.805732 -0.732736,-0.01358 -0.442532,0.320722 -0.719,0.63805 -0.16123,0.185071 -0.404435,0.360905 -0.779967,0.362531 -0.359601,0.0016 -0.635203,-0.03989 -0.858963,-0.321731 C 18.715683,18.751538 19.157107,18.469912 18.17054,18.5 l -15.1965332,3.5e-5" fill="#fff" fill-rule="evenodd" stroke="#000" stroke-linecap="round" stroke-width="1.181" style="stroke:#000;stroke-width:1;stroke-miterlimit:4;stroke-dasharray:none;stroke-opacity:1"/>
</svg>
