<svg width="20" height="20" version="1.1" xmlns="http://www.w3.org/2000/svg">
 <path d="m9.4761 19.228c-2.159-0.64031-3.9921-1.7409-5.4735-3.2863-1.5693-1.6372-2.6482-3.7001-3.1407-6.0055-0.14925-0.69853-0.16075-0.85794-0.16267-2.255-0.0016658-1.2124 0.018856-1.6081 0.10604-2.0445 0.17561-0.87912 0.42688-1.4687 0.89692-2.1047 0.63719-0.86207 1.3173-1.3728 2.3817-1.7886 3.7979-1.4836 8.0958-1.4934 11.938-0.027303 0.77139 0.29435 1.217 0.57134 1.7272 1.0738 0.73557 0.72424 1.193 1.6438 1.4162 2.8468 0.17093 0.92137 0.15859 3.1703-0.02261 4.1191-0.31629 1.6561-0.91208 3.1244-1.8411 4.5372-1.3206 2.0083-3.1873 3.5405-5.4872 4.5038-0.34801 0.14577-1.7266 0.58395-1.8157 0.5771-0.02289-0.0017-0.25809-0.0674-0.52268-0.14587z" fill="#fff" stroke="#000" stroke-width="1.2469"/>
</svg>
