<svg width="25" height="20" version="1.0" xmlns="http://www.w3.org/2000/svg">
 <path d="m22.223 6.393-.02-.017.036-.047.035-.048.033-.051.03-.051.027-.055.027-.054.022-.055.022-.057.019-.058.016-.057.014-.06.011-.058.01-.06.006-.06.004-.06.002-.06-.002-.056-.003-.056-.006-.056-.008-.056-.011-.056-.013-.054-.014-.056-.017-.054-.02-.053-.02-.053-.022-.051-.025-.052-.027-.05-.029-.048-.03-.046-.031-.045-.015-.016-.012-.017-.011-.019-.01-.018-.008-.02-.004-.02-.005-.02v-.044l.003-.02.006-.02.007-.02.01-.018.01-.017.011-.016.015-.015.015-.014.016-.011.018-.011.019-.01.019-.006.02-.006.02-.003h.042l.019.003.017.003.018.007.017.006.032.018.015.011.013.013.013.012.012.014.01.016.01.017.007.015.007.019.006.017-.011-.043-.011-.045-.014-.044-.016-.043-.018-.044-.019-.044-.04-.083-.048-.081-.027-.04-.027-.038-.028-.037-.029-.038-.03-.034-.032-.034-.07-.062-.07-.056-.075-.055-.075-.05-.078-.044-.079-.042-.08-.038-.083-.034-.084-.03-.085-.024-.085-.022-.087-.019-.087-.014-.087-.01-.089-.005-.088-.003-.089.001-.088.006-.087.01-.089.014-.087.018-.087.02-.085.027-.085.03-.084.032-.082.037-.081.042-.08.046-.078.05-.076.052-.074.058-.072.06.011-.048.008-.047.008-.048.005-.046.003-.049v-.094l-.003-.047-.005-.047-.006-.046-.01-.047-.009-.045-.013-.045-.012-.044-.016-.045-.018-.043-.018-.042-.021-.042-.022-.04-.024-.041-.025-.039-.027-.039-.028-.037-.03-.037-.032-.035-.033-.034-.035-.032-.037-.033-.075-.06-.042-.027-.04-.025-.03-.022-.03-.023-.028-.023-.028-.025-.027-.025-.025-.027-.025-.026-.024-.026-.024-.028-.022-.028-.022-.03-.02-.03-.021-.03-.02-.032-.017-.03-.017-.032-.017-.033-.015-.032-.014-.033-.014-.034-.011-.034-.013-.034-.01-.035-.009-.035-.008-.036-.008-.036-.006-.036-.005-.035-.003-.036-.003-.037-.002-.036v-.05l-.022.023-.022.024-.024.023-.023.022-.026.021-.025.02-.025.02-.027.021-.027.019-.027.017-.027.018-.056.032-.03.015-.029.016-.03.012-.03.014-.032.011-.03.012-.031.01-.032.01-.032.01-.031.008-.032.006-.033.008-.032.004-.033.005-.033.005-.033.003-.034.001-.033.002-.033.002-.035-.002-.07-.006-.033-.002-.053-.01-.053-.005-.053-.004-.054-.001h-.052l-.054.003-.052.005-.052.008-.051.009-.05.01-.051.015-.05.015-.047.019-.047.019-.048.021-.045.024-.045.026-.044.027-.043.03-.04.03-.04.033-.038.034-.038.036-.035.037-.033.039-.033.04-.03.042-.03.044-.027.045-.026.047-.022.048-.022.05-.001-.061-.005-.06-.006-.058-.01-.058-.012-.057-.015-.058-.016-.056-.019-.054-.022-.055-.022-.052-.025-.053-.029-.05-.028-.051-.032-.049-.033-.046-.035-.047-.038-.045-.037-.043-.042-.04-.04-.041-.045-.04-.044-.036-.048-.035-.047-.034-.049-.031-.05-.03-.053-.026-.054-.026-.053-.024-.056-.02-.057-.019-.058-.017-.02-.001-.02-.005-.017-.006-.019-.008-.017-.01-.016-.01-.014-.013-.015-.014-.012-.014-.011-.015-.01-.017-.01-.019-.006-.017-.004-.02-.004-.019v-.042l.004-.02.012-.04.01-.017.01-.018.012-.017.014-.014.016-.014.016-.012.017-.01.02-.009.018-.007.02-.005.021-.003.022-.002.02.002.018.001.018.005.019.006.017.006.017.008.016.01.016.009-.038-.028-.038-.028-.04-.025-.039-.025-.041-.023-.043-.023-.042-.02-.043-.02-.044-.018-.045-.015-.045-.016-.045-.013-.046-.01-.045-.01-.046-.007-.046-.007-.093-.004h-.092l-.092.003-.09.01-.09.012-.087.015-.087.022-.085.025-.086.028-.082.032-.08.036-.078.04-.077.043-.075.046-.072.05-.07.053-.068.056-.065.06-.061.061-.06.065-.056.069-.054.07-.05.073-.048.074-.042.078-.041.08-.037.083-.033.084-.028.087-.026.087-.02.09-.016.094-.013-.048-.012-.047-.016-.045-.016-.045-.019-.045-.02-.042-.023-.042-.023-.042-.024-.039-.027-.039-.028-.039-.03-.036-.03-.035-.032-.034-.033-.033-.035-.033-.036-.03-.038-.029-.038-.026-.038-.027-.041-.025-.042-.021-.042-.022-.043-.02-.044-.019-.044-.016-.046-.015-.046-.013-.048-.01-.047-.01-.049-.007-.049-.007-.036-.006-.073-.015-.035-.011-.036-.011-.035-.011-.035-.014-.033-.014-.035-.016-.033-.015-.033-.017-.032-.019-.031-.019-.032-.02-.03-.02-.03-.022-.03-.023L10.81 1l-.027-.025-.028-.025-.025-.025-.027-.028-.024-.026-.025-.028-.022-.03-.045-.06-.02-.03-.02-.031L10.53.66l-.017-.033-.016-.032-.011.036-.013.034-.013.034-.012.034-.016.034-.016.035-.016.032-.019.031-.019.033-.019.031-.02.03-.022.03-.022.029-.024.03-.024.027-.025.027-.025.026-.027.026-.027.025-.029.024-.028.023-.03.022-.03.021-.03.022-.032.019-.032.019-.033.018-.033.017-.033.016-.035.014-.035.014-.034.012-.053.016-.052.017-.049.02-.049.02-.047.024-.046.026-.044.026-.045.028-.04.032-.042.032-.038.033-.038.036-.07.074-.062.081-.029.042-.027.044-.025.043-.024.045-.02.047-.02.048-.018.048-.015.05-.014.05-.01.05-.009.05-.006.054-.005.05-.001.054v.054l.003.053-.024-.045-.025-.044-.025-.043-.029-.042-.03-.04-.03-.04-.032-.038-.034-.038-.035-.037-.035-.034-.038-.034-.038-.033-.04-.031-.04-.03-.042-.028-.042-.028-.043-.024-.044-.025-.046-.022-.046-.022-.046-.02-.047-.017-.048-.017-.098-.028-.049-.011-.05-.011-.05-.008-.051-.006-.051-.005-.052-.003h-.084l-.033.002-.035.001-.066.007-.034.004-.033.004-.03.004-.019.006-.02.005-.02.003-.02.002-.022-.002-.02-.003L7.1 1.89l-.019-.006-.019-.01-.017-.009-.016-.012-.016-.014L7 1.825l-.012-.017-.011-.018-.01-.018-.006-.019-.005-.02-.003-.02-.002-.022.002-.02.003-.02.005-.02.006-.018.01-.017.01-.015L7 1.567l.014-.014.032-.022.017-.011.019-.008.019-.006.02-.006.021-.005.02-.003.015-.002h.016l.014-.001h.014l-.093.003-.187.01-.093.004-.093.008-.092.008-.093.009-.092.012-.092.017-.088.022-.086.028-.08.034-.08.04-.074.043-.07.048-.069.053-.063.057-.062.063-.057.065-.052.068-.05.073-.046.075-.043.078-.038.08-.035.084-.031.086-.027.087-.024.089-.019.09-.016.091-.01.092-.009.093-.003.095v.094l.005.094.008.094.013.093.017.093.02.092.026.09-.038-.031-.04-.028-.04-.026-.042-.025-.043-.024-.042-.021-.045-.019-.044-.019-.044-.015-.046-.014-.046-.013-.046-.01-.047-.01-.046-.008-.047-.004-.048-.003-.046-.004h-.047l-.095.007-.047.004-.048.008-.046.01-.047.01-.046.013-.046.014-.044.017-.044.018-.044.02-.045.022-.042.024-.042.025-.034.017-.034.017-.034.015-.073.028-.036.011-.076.022-.038.01-.038.007-.04.006-.038.005-.04.005-.037.003-.04.002H3.28l-.037-.002-.035-.002-.036-.004-.035-.005-.036-.005-.035-.006-.035-.008-.034-.008-.035-.009-.033-.01-.035-.012-.033-.012-.034-.014-.033-.014-.031-.014.02.054.035.115.014.061.011.06.008.061.003.031.002.03.001.031V4.3l-.003.043-.003.042-.006.044-.008.042-.008.043-.011.042-.011.042-.013.04-.014.042-.016.04-.017.04-.017.039-.02.037-.02.037-.022.036-.03.043-.03.046-.027.045-.024.046-.024.047-.019.048-.018.048-.016.05-.013.048-.013.052-.007.05-.008.05-.005.05-.002.05-.001.051.001.052.005.05.006.05.008.05.01.05.012.05.015.048.017.048.019.049.02.046.024.047.026.045.026.045.03.044.032.042.033.042.037.04h-.12l-.056.005-.059.006-.057.008-.057.009-.055.012-.057.016-.054.017-.053.019-.054.02-.052.023-.051.025-.049.027-.05.028-.048.03-.046.032-.046.034-.042.034-.043.037-.041.04-.04.04-.038.04-.036.044-.035.045-.033.045-.032.046-.028.049-.027.05-.025.05-.024.052-.02.053-.02.054-.01.038-.005.017-.01.017-.01.015-.01.016-.013.014-.014.012-.015.011-.015.011-.018.01-.017.007-.018.006-.037.007-.021.001-.022-.001-.02-.004-.021-.004-.02-.008-.018-.008-.018-.01-.015-.013-.016-.014-.013-.014-.012-.017-.012-.017-.009-.017-.006-.02-.005-.02-.003-.02-.002-.023v-.018l.003-.02.005-.02.006-.02.008-.018.01-.017.01-.017.012-.017-.03.034-.03.036-.029.037-.027.039-.025.039-.024.04-.023.04-.02.043-.021.043-.02.042-.015.045-.016.044-.014.045-.013.045-.01.045-.009.045-.01.09-.004.09-.002.09.005.09.008.09.013.086.017.086.022.085.025.084.029.083.033.08.038.08.041.077.046.077.049.073.052.071.056.07.06.067.063.064.066.062.07.059.073.056.075.053.08.05.082.048.085.043.089.04.09.036.095.033.096.03.098.024.103.022-.04.011-.04.013-.075.03-.038.02-.038.02-.036.02-.037.023-.036.025-.035.026-.035.027-.033.03-.033.029-.032.031-.031.033-.03.034-.029.036-.027.035-.027.038-.025.039-.024.038-.022.04-.022.043-.019.042-.019.043-.016.044-.015.045-.013.045-.011.047-.011.046-.008.048-.005.047-.008.037-.008.036-.009.034-.01.036-.01.034-.013.034-.014.035-.015.034-.016.033-.015.032-.02.033-.017.031-.02.031-.02.031-.021.03-.022.03-.024.027-.024.028-.025.028-.026.027-.026.024-.027.025-.029.025-.028.023-.029.024-.031.022-.03.02-.064.04-.033.017-.033.017-.035.017.037.011.036.013.035.012.035.014.033.016.033.015.033.017.033.018.032.018.032.02.03.02.03.022.03.022.028.023.029.024.027.025.026.026.026.025.025.028.024.028.023.028.023.028.022.03.02.03.02.032.018.03.02.033.015.033.017.033.015.034.014.034.012.034.015.052.017.05.019.05.02.047.024.047.026.047.026.043.029.042.032.042.031.04.035.04.035.035.036.036.04.034.04.033.04.03.043.029.044.026.044.025.046.023.048.022.047.019.05.017.048.015.05.014.053.011.052.01.052.006.053.005.053.003h.054l.055-.003.02.015-.035.048-.035.049-.063.102-.027.053-.027.056-.024.054-.02.058-.02.057-.015.058-.014.06-.013.058-.008.06-.008.06-.003.059-.002.06.002.057.003.055.006.056.008.056.011.056.011.055.016.056.016.054.019.053.022.053.022.051.026.052.026.05.029.047.03.047.032.045.014.016.012.017.011.018.01.02.008.02.005.02.003.02.001.022-.001.021-.003.02-.005.02-.006.02-.01.018-.011.017-.013.016-.012.015-.016.014-.016.011-.017.011-.02.01-.018.006-.02.006-.021.003h-.041l-.02-.003-.017-.003-.017-.006-.018-.007-.031-.018-.016-.011-.013-.011-.012-.014-.013-.014-.01-.014-.009-.016-.008-.018-.008-.017-.004-.017.01.044.012.045.014.043.016.044.017.043.017.044.021.042.022.04.024.04.024.041.053.078.029.037.028.036.03.034.032.034.07.063.07.057.075.053.076.05.077.045.08.042.08.037.082.034.084.03.084.026.087.022.085.017.087.014.089.011.088.006.087.002.089-.002.088-.006.089-.01.087-.013.088-.017.086-.022.087-.025.083-.03.084-.034.082-.037.083-.04.079-.047.077-.048.076-.055.074-.056.071-.062-.01.048-.009.047-.006.048-.005.048-.003.047-.001.048.001.047.003.046.005.047.006.047.008.046.011.045.011.045.015.044.016.045.017.043.019.042.02.042.023.04.023.041.026.04.026.038.029.037.03.036.032.036.033.034.035.033.036.032.036.03.04.03.041.026.041.026.03.022.029.023.028.024.028.024.026.025.027.025.025.027.024.028.023.028.023.028.022.03.02.029.02.03.02.03.017.033.018.031.015.033.016.032.014.033.013.034.013.034.01.035.012.034.01.036.007.035.008.036.005.036.006.036.003.035.003.038.002.036v.048l.022-.025.022-.023.024-.022.024-.022.025-.022.024-.02.027-.02.025-.019.027-.018.028-.019.027-.017.029-.017.028-.016.028-.015.06-.028.06-.025.032-.011.032-.011.03-.01.032-.009.033-.008.031-.007.034-.007.031-.004.033-.007.034-.003.033-.003.1-.005.033.002.036.003.035.003.031.002.054.008.054.006.054.005.053.001h.053l.053-.003.053-.005.05-.008.052-.009.05-.012.05-.013.049-.015.049-.019.047-.019.048-.021.046-.025.044-.025.044-.026.041-.03.041-.031.042-.033.037-.034.037-.036.036-.037.033-.039.034-.04.03-.042.028-.044.029-.045.023-.047.024-.048.022-.05.002.061.004.06.007.058.01.058.012.057.014.058.016.054.019.056.02.055.024.052.025.053.027.05.03.05.032.05.033.046.035.047.038.045.038.043.04.04.042.041.044.04.045.036.094.069.05.031.05.03.052.026.054.026.054.024.055.02.057.02.057.016.02.003.02.004.018.007.02.008.015.009.018.01.014.013.014.013.013.015.01.016.01.017.008.017.008.019.005.02.003.018v.042l-.01.04-.006.02-.01.018-.01.017-.013.017-.013.014-.016.014-.015.013-.018.01-.019.008-.019.007-.02.006-.02.003-.023.002-.019-.002-.019-.003-.019-.003-.035-.013-.017-.007-.016-.01-.016-.01.076.055.04.027.04.023.04.025.043.022.043.02.043.019.044.018.044.016.044.015.046.013.046.01.046.01.046.008.046.006.091.005.094.001.091-.004.09-.008.089-.014.089-.016.087-.022.085-.024.084-.028.082-.033.08-.036.08-.039.077-.043.074-.047.073-.05.07-.052.066-.056.066-.06.062-.062.059-.065.056-.067.054-.071.05-.073.048-.075.043-.078.041-.08.036-.083.032-.084.03-.087.024-.087.02-.09.018-.093.01.048.015.046.014.045.018.046.019.043.019.044.022.041.024.04.025.041.027.04.027.037.03.037.031.036.032.034.033.032.035.032.036.03.037.029.04.028.037.024.041.025.041.024.043.021.043.019.044.019.046.015.046.016.045.012.048.011.047.01.05.007.048.007.037.006.038.008.034.009.037.01.035.012.036.012.035.013.033.014.035.015.033.016.032.018.033.018.031.018.06.04.03.022.03.024.03.023.026.023.027.025.027.027.025.026.025.026.024.028.022.028.044.06.02.03.02.032.019.032.017.031.016.035.011-.036.011-.036.013-.034.014-.034.016-.034.016-.035.016-.032.019-.031.017-.033.02-.031.021-.03.044-.059.024-.028.024-.028.025-.026.025-.027.027-.026.027-.025.057-.047.03-.021.03-.022.03-.02.032-.019.031-.019.034-.018.033-.017.033-.016.07-.028.036-.012.052-.016.05-.017.05-.019.049-.021.047-.024.046-.025.044-.026.045-.03.04-.03.042-.032.076-.068.034-.038.035-.037.032-.04.032-.04.028-.043.027-.043.025-.044.024-.045.02-.046.02-.047.017-.048.016-.05.012-.05.011-.05.01-.05.006-.054.005-.05.001-.054v-.053l-.003-.054.024.047.023.043.027.044.029.042.028.04.032.04.032.038.033.037.034.037.037.035.038.034.038.032.04.032.039.03.042.027.042.026.044.025.044.025.044.022.046.022.048.018.047.019.047.016.05.015.098.025.05.01.05.007.051.006.051.005.052.003h.084l.033-.001.035-.002.033-.003.033-.003.034-.005.033-.003.03-.005.019-.004.02-.005.02-.003.02-.002.02.002.023.003.02.005.02.008.018.009.017.01.016.012.016.014.013.014.012.017.012.017.007.017.008.02.005.02.003.02.002.022-.002.02-.003.02-.005.02-.006.02-.008.017-.01.017-.012.015-.014.014-.015.013-.015.01-.018.012-.017.007-.02.007-.02.004-.02.003-.022.002h-.062l.047-.002h.048l.047.002.05.002.096.003.098.003h.095l.045-.002.046-.003.044-.005.045-.006.04-.008.042-.01.088-.03.086-.033.082-.039.08-.042.075-.045.074-.051.07-.053.066-.057.065-.061.06-.064.057-.065.054-.07.05-.072.046-.074.043-.078.04-.078.036-.08.032-.084.028-.084.025-.086.02-.087.017-.088.012-.09.01-.09.004-.09v-.091l-.003-.092-.008-.092-.012-.091-.016-.09-.022-.092-.026-.09.04.03.04.029.04.026.042.025.042.023.043.022.044.019.045.018.044.016.046.014.046.012.045.011.046.01.048.007.045.005.048.003.047.003h.048l.047-.003.048-.003.047-.005.046-.007.047-.01.046-.01.046-.013.046-.014.046-.017.044-.019.044-.02.044-.022.043-.023.041-.025.033-.017.035-.017.035-.016.073-.028.036-.01.038-.013.076-.019.038-.008.038-.006.04-.004.037-.005.04-.003.038-.002.04-.001.034.001.036.002.035.001.037.005.034.005.035.004.036.007.07.015.033.01.035.01.033.011.035.013.033.014.032.014.033.014-.02-.055-.02-.057-.015-.058-.014-.06-.012-.061-.007-.06-.004-.032-.001-.03-.002-.03-.001-.03.001-.042.004-.043.003-.042.006-.044.006-.042.01-.043.01-.042.012-.042.013-.042.014-.04.016-.041.017-.039.018-.039.019-.039.02-.036.02-.035.032-.044.03-.045.027-.045.024-.047.022-.046.02-.048.02-.049.015-.05.013-.05.011-.049.01-.05.008-.05.004-.05.002-.05.001-.052-.001-.051-.005-.05-.006-.05-.008-.051-.01-.05-.012-.048-.016-.05-.016-.048-.019-.048-.02-.047-.024-.046-.026-.045-.026-.045-.03-.044-.032-.042-.033-.04-.037-.04h.059l.058-.002.059-.003.058-.007.057-.008.057-.01.056-.013.055-.014.055-.017.054-.019.052-.02.052-.023.053-.025.049-.026.049-.028.047-.032.047-.03.045-.035.044-.036.043-.035.04-.04.04-.04.038-.042.037-.042.034-.045.034-.045.03-.048.03-.048.027-.05.025-.05.024-.053.02-.052.02-.055.002-.019.007-.018.006-.017.01-.017.009-.016.011-.015.013-.014.014-.013.014-.01.016-.012.016-.009.017-.008.02-.006.018-.005.02-.001.02-.002.02.002.022.003.02.004.02.008.019.008.017.011.016.012.016.014.013.014.012.016.011.017.008.019.008.02.005.019.003.021.002.02-.002.02-.002.021-.004.02-.007.019-.007.019-.01.017-.011.017-.013.017.032-.034.03-.036.028-.036.027-.039.026-.039.023-.04.024-.04.02-.042.021-.044.017-.044.018-.043.016-.044.014-.045.013-.045.01-.045.009-.045.01-.092.004-.09.001-.09-.004-.089-.008-.088-.013-.089-.017-.085-.02-.086-.026-.084-.03-.082-.033-.08-.038-.08-.042-.078-.045-.076-.048-.073-.054-.072-.055-.07-.06-.066-.063-.064-.067-.062-.07-.06-.072-.055-.076-.053-.079-.052-.082-.046-.085-.044-.089-.04-.092-.036-.093-.033-.096-.03-.1-.026-.101-.02.04-.01.037-.015.04-.014.038-.015.038-.019.036-.02.038-.02.036-.024.035-.024.037-.025.033-.028.035-.03.031-.03.032-.03.031-.033.03-.034.029-.036.028-.036.026-.037.025-.04.025-.038.022-.04.021-.042.02-.042.018-.044.017-.043.015-.045.014-.047.01-.047.012-.046.008-.049.005-.048.007-.035.008-.036.01-.036.01-.036.025-.068.012-.034.016-.035.014-.032.018-.033.017-.03.02-.034.018-.03.02-.03.045-.06.024-.027.023-.028.024-.028.027-.027.025-.025.029-.024.027-.025.03-.024.028-.021.03-.022.032-.022.031-.019.032-.02.033-.017.033-.017.034-.017-.035-.01-.037-.013-.034-.013-.035-.014-.033-.015-.035-.016-.032-.017-.033-.017-.032-.019-.031-.02-.03-.02-.03-.022-.03-.022-.029-.023-.028-.023-.027-.025-.027-.027-.025-.026-.026-.026-.025-.028-.022-.028-.024-.03-.02-.03-.02-.03-.021-.03-.02-.031-.034-.066-.016-.032-.016-.034-.012-.035-.015-.034-.014-.053-.017-.05-.02-.05-.02-.046-.024-.046-.025-.047-.027-.044-.028-.043-.032-.04-.031-.04-.035-.04-.035-.037-.038-.034-.038-.035-.04-.032-.04-.03-.043-.03-.044-.026-.045-.025-.046-.023-.047-.022-.047-.018-.05-.019-.05-.014-.05-.014-.051-.01-.052-.01-.053-.006-.053-.005-.054-.003h-.054l-.054.004z" fill="#fecd00" fill-rule="evenodd" stroke="#000" stroke-linejoin="round" stroke-width="1.183"/>
</svg>
