<svg width="20" height="20" overflow="visible" xmlns="http://www.w3.org/2000/svg">
 <path d="m2.19 19.409-.255-.006-.156-.046-.14-.11-.133-.134-.098-.127-.099-.186-.087-.208-.046-.232-.006-.25.03-.19.063-.215.052-.168.504-1.182.47-.893.075-.139.064-.127.04-.186.047-.214.006-.11v-.14l-.006-.11.006-.092-.006-.128.023-.133.006-.134.04-.11.081-.127.093-.145.052-.128.105-.168.08-.19.059-.169.035-.122.017-.104.133-1.113-1.721.006-.104-.058-.087-.052-.064-.03-.064-.069-.046-.087-.047-.121-.011-.134.266-1.588.534-.347-.435-.383.017-.127.006-.093.064-.081.035-.11.029-.134.058-.098.058-.162v-.076l-.261-.064-.325-.017-.185-.046-.18-.052-.075-.006-.023-.04-.024-.053v-.058l.006-.081.03-.075v-.209l.063-.18.133-.226.058-.127.104-.215.064-.145.128-.249.098-.266.134-.267.046-.411-.562-.093-.105-.273-.046-.197-.052-.22-.012-.145.081-.191V3.9l-.08-.145-.059-.099-.029-.098-.052-.122V3.35l-.006-.168-.005-.098v-.076l.023-.139.058-.081.017-.046.075-.035.064-.052.075-.157.087-.116.116-.127.105-.116.174-.116.11-.099.19-.011.152-.04.255-.059.156-.052.168-.029.215-.07.034-.04.128.035.133.04.15.03.117.011.319-.012.231-.063.145-.052.14-.07.179-.128.14-.104.376.093.11.006.122-.006.145-.006.133-.035.116-.017.092-.035.07-.07.122-.104.133-.092.238-.012.098-.012.116.006.093.006.168-.07.075-.052.11-.046.122-.104.128-.053.121-.116H18.59a.82.82 0 0 1 .82.82v17.18a.82.82 0 0 1-.82.819z" clip-rule="evenodd" fill="#fff" fill-rule="evenodd" stroke="#000" stroke-width="1.181"/>
</svg>
