<svg xmlns="http://www.w3.org/2000/svg" width="65.9197" height="39.9082" viewBox="0 0 65.9197 39.9082">
  <path d="M6.1831,37.92a4.2385,4.2385,0,0,1-2.9584-1.1951A4.03,4.03,0,0,1,1.9993,33.839V6.0918A4.0305,4.0305,0,0,1,3.2247,3.2064,4.2381,4.2381,0,0,1,6.1831,2.0113H59.7352a4.2385,4.2385,0,0,1,2.9584,1.1951A4.03,4.03,0,0,1,63.919,6.0918V33.839a4.03,4.03,0,0,1-1.2254,2.8854A4.2381,4.2381,0,0,1,59.7352,37.92H6.1831" transform="translate(0.0007 -0.0113)" fill="#ba1e10" stroke="#fff" stroke-miterlimit="8.5039" stroke-width="4" fill-rule="evenodd"/>
</svg>
