<svg width="21" height="24" xmlns="http://www.w3.org/2000/svg">
 <path d="M 10.5,0 C 8.2055894,0.69936 6.1613135,1.788 4.4996947,3.16188 1.7103512,5.46816 0,8.57808 0,11.99988 0,15.4218 1.7103512,18.53172 4.4996947,20.838 6.1613135,22.21188 8.2055894,23.30052 10.5,24 c 2.294225,-0.69936 4.338748,-1.78788 6.000305,-3.16152 V 20.838 C 19.289649,18.53172 21,15.42168 21,11.99988 21,8.57808 19.289649,5.46804 16.500305,3.16176 V 3.16128 C 14.838748,1.78776 12.794225,0.69924 10.5,0 Z" style="fill:#fff;fill-opacity:1;fill-rule:nonzero;stroke:none;stroke-width:.0530068"/>
 <path d="m 10.500006,1 c 2.070886,0.6854012 3.909021,1.6951747 5.403573,2.9459212 2.252551,1.8852222 3.724683,4.3170925 4.035232,7.0074028 0.399709,3.462678 -1.183206,6.710215 -4.035232,9.099033 C 14.414651,21.299536 12.579644,22.312631 10.500006,23 8.4203681,22.312631 6.5853614,21.299536 5.0964205,20.052357 2.2443948,17.663539 0.66148005,14.416002 1.0611892,10.953324 1.3717378,8.2630137 2.8438826,5.8311434 5.0964205,3.9459212 6.5909474,2.6951747 8.4291081,1.6854012 10.500006,1 Z" style="fill:#003f87;fill-opacity:1;fill-rule:nonzero;stroke:none;stroke-width:.0551369"/>
</svg>
