<svg width="25" height="20" version="1.0" xmlns="http://www.w3.org/2000/svg">
 <path d="M.59.478C.933.528 3.774.372 4 .688c.392.745.766.947.774 1.602-.105.34.063.763.452.71C9.908 3.189 20 3 20 3v2h4.5v8H23v2s-2.452.043-3.05 0c-.228 1.224.283 2.358.728 3.375-.762.345-1.527.781-2.29 1.125-.544-.307-1.616-.644-1.743-1.278-.399-.875-.298-.942-.892-1.363-.171-.35-2.395-1.115-2.739-.926-.66.135-.627.249-1.138.687-.47.367-.923-.084-1.434-.023-.38.127-.872.44-1.522.937-.794.732-1.442-.2-1.915-.006-.453.215-.67.225-.845.75-.28.496-.322.662-.88.956-.411.229-1.43.16-1.885.266-.634.157-1.074-.622-1.692-.439-.22.037-1.29.868-1.203.439.03-6.426 0-19 0-19z" fill="#fff" stroke="#f38f00" stroke-linecap="round" stroke-linejoin="round" stroke-width=".957"/>
</svg>
