<svg width="20" height="20" xmlns="http://www.w3.org/2000/svg">
 <path d="m4.1591 0.47766c-0.16871 0-0.14655 0.8955-0.040764 1.294 0.074629 0.28079 0.81661 0.44096 0.81661 0.44096 0.37025 0.19643 0.4493 0.21148 0.53898 0.37499 0.089704 0.16352 0.097634 0.80216 0.040792 0.95196-0.057128 0.29819-0.71807 0.31064-1.0085 0.375-0.29046 0.064389-0.39144 0.33222-0.73903 0.46979-0.73734 0.028946-1.0527 0.24233-1.3964 0.9478-0.2646 0.25886-0.42116 0.59388-0.22866 1.2487 0.11734 0.39911 0.25269 0.62423 0.15516 1.1951-0.086094 0.50402 0.18405 1.1538 0.31848 1.43 0.13442 0.27623 0.20839 0.65279 0.16741 0.83657-0.040764 0.18378 0.025 0.67905 0.14291 1.1044 0.11799 0.42536 0.44054 0.99816 0.71863 1.2734 0.27809 0.2752 0.5083 0.69231 0.51039 0.9231 0.0021 0.23078 0.13651 0.69908 0.29805 1.0426 0.1616 0.34352 0.55935 0.79791 0.88196 1.0096 0.32259 0.21174 0.67924 0.60914 0.79213 0.88187 0.11289 0.27276 0.45183 0.67191 0.75535 0.88602 0.30352 0.21412 0.90828 0.63427 1.2086 1.1291 0.28287 0.46611 0.91656 0.87157 1.2372 1.0302 0.21116 0.10444 0.4686 0.17428 0.67369 0.19369 0.20509-0.01902 0.45846-0.08923 0.66963-0.19369 0.32063-0.15867 0.95839-0.56413 1.2413-1.0302 0.30034-0.49486 0.90101-0.91501 1.2045-1.1291 0.30353-0.21412 0.64661-0.61325 0.75945-0.88602 0.11289-0.27271 0.46952-0.67013 0.79211-0.88187 0.32261-0.21173 0.71635-0.66612 0.87788-1.0096 0.1616-0.34352 0.29536-0.81182 0.29805-1.0426 0.0019-0.23079 0.23231-0.6479 0.51039-0.9231 0.27808-0.27522 0.60473-0.84802 0.72272-1.2734 0.11791-0.42535 0.17958-0.92069 0.13882-1.1044-0.04099-0.18378 0.03697-0.56033 0.17142-0.83657 0.13442-0.27621 0.40459-0.92595 0.3185-1.43-0.09741-0.57085 0.03363-0.79596 0.15115-1.1951 0.19254-0.65478 0.03592-0.98979-0.22865-1.2487-0.34371-0.70548-0.65909-0.91888-1.3964-0.9478-0.3476-0.13757-0.4445-0.4054-0.73496-0.46979-0.29048-0.064389-0.95566-0.076808-1.0126-0.375-0.05684-0.1498-0.04891-0.78846 0.0408-0.95196 0.08971-0.16351 0.16871-0.17849 0.53899-0.37499 0 0 0.74206-0.16014 0.81661-0.44096 0.10578-0.39849 0.13191-1.294-0.03678-1.294h-5.8429z" fill="#fff" stroke="#000"/>
</svg>
