<svg width="20" height="20" version="1.0" viewBox="0 0 150 150" xmlns="http://www.w3.org/2000/svg">
 <path d="M149.5 75a74.498 74.482 0 1 1-149 0 74.498 74.482 0 1 1 149 0z" fill="#fff"/>
 <path d="M74.997 14.514c-33.395 0-60.494 27.102-60.494 60.49 0 .24.007.48.01.719 3.032-1.623 5.128-3.717 5.873-6.38 1.183-2.07 2.901-4.011 2.826-6.494 1.05-2.175 2.999-3.797 3.852-6.083 2.225-3.242 6.497-4.243 10.137-4.272 2.579-.187 5.216.305 7.664 1.216 2.108.244 4.71-.62 6.793-1.925 1.754-1.281 3.933-1.382 5.816-2.347 2.137-.669 4.319-.833 6.505-.986 2.202-.604 2.976-2.702 2.941-4.723-.517-.792-1.166-1.797-1.053-2.605.147-1.062 1.301-1.845 2.73-1.973 2.786-2.79 5.06.171 3.018-3.247-.619-.933-2.407-1.174-2.99-1.887-.31-.381-.03-.897.413-1.725 1.176-2.269 3.534-3.559 5.404-5.191a44.127 44.127 0 0 0 4.876-4.272c1.858-1.077 4.107-.208 6.132-.604 1.979-.521 3.87-.86 5.758-.871 2.925-.374 5.886-.058 8.824-.25.785-.013 1.571-.024 2.357-.038a60.209 60.209 0 0 0-27.392-6.552zm31.761 9.004c-.026.99.455 1.885.824 2.797-.128 1.544-.566 2.478-.584 3.276.127.822-.112 1.567-.22 2.395.456.426.431 1.736.852 2.452.5 1.627-.122 3.304-.498 4.885-.04 1.167-.18 2.398.21 3.525.578 1.107.405 2.377.029 3.506-.234 1.024-.391 2.057.028 3.305.189.688.717 1.745 1.542 2.739.946.811 1.226 2.843 1.121 4.023-.604 1.807-.461 3.828-.488 5.7.147 1.127.639 2.184.488 3.352-.053 1.158-.176 2.452-.967 3.362-.223.22-.459.327-.7.355a3.248 3.248 0 0 1-.21-.096c-.251-.121-.403-.488-1.562-.431-1.625.08-2.925-.313-4.455-.69-1.115-.275-2.419-.521-3.833-.354-.379-1.499-1.357-2.816-2.788-3.516-2.985-1.461-6.015-1.762-8.421-2.672-1.394-.528-2.941-1.687-4.925-2.51-.464-.193-.986-.57-1.676-1.035-.691-.463-1.585-1.026-2.779-1.226-1.543-.258-3.069-.354-4.599-.373-1.53-.02-3.068.04-4.637.105-3.344.14-5.797 1.366-8.287 1.925-2.848.64-4.438.658-7.397.748-3.463.106-7.277-.056-10.472 1.36-1.552.688-3.755.122-6.544 1.14-1.455.531-2.642 1.3-3.775 2.088a31.881 31.881 0 0 0-.565-6.332l-3.612.68c1.175 6.268.415 10.922-2.05 14.32-2.163 2.982-5.799 5.173-11.19 6.418.076 1.24.195 2.469.345 3.688 6.241-1.361 10.932-3.964 13.816-7.94 1.287-1.776 2.175-3.799 2.702-6.016 2.328-1.425 3.973-2.857 5.595-3.449 1.419-.518 3.874.05 6.773-1.235 1.98-.878 5.518-.935 9.093-1.044 2.94-.09 4.954-.14 8.086-.843 3.006-.675 5.169-1.727 7.636-1.83 1.17-.048 2.286-.094 3.363-.105 1.794-.019 3.478.053 5.107.326.368.061.763.263 1.34.65.579.389 1.304.959 2.32 1.38 1.368.568 2.953 1.762 5.03 2.548 3.007 1.138 5.9 1.46 8.105 2.539.688.337 1.163 1.324.776 2.25-.735 1.759-.521 3.422-.115 4.416.406.995.582 1.252.575 1.399-.084 1.845-.79 3.133-.527 5.412.234 2.03.53 3.78.249 5.326-.318 1.744-.415 3.748.355 5.737.416 1.076-.084 2.822-.307 5.135-.183 1.896.296 4.025 1.332 6.408.455 1.046.508 1.672 3.353 2.557.682.7 1.732.674 2.53 1.16.788.473.238 1.375-.221 1.877-.502.623-.53 2.132.489 2.203.96-.168 2.084.307 2.903-.402.98-.29 2.017-.269 3.027-.211 1.713.136 3.026-.416 4.829-.747.999-.162 2.434-.114 3.44-.048 1.438-.056 2.464-.127 3.899-.316 1.141-.071 1.881-1.064 2.433-1.954.364-.849 1.218-.868 2.108-.862.49-.002.974-.036 1.437-.01a60.142 60.142 0 0 0 9.006-31.733c0-21.746-11.497-40.824-28.743-51.486zM99.151 71.22c.63-.022 1.277.114 2.136.326 1.274.313 2.934.793 4.982.785a.694.694 0 0 1 .326.077c.317.153.83.405 1.533.507.314.064.628.168.93.01a3.94 3.94 0 0 0 1.207-.307c.17.13.269.34.191.603-.268.641-.21 1.46-.335 2.136-.124 1.106-.165 1.535-.594 2.644-.04.834-.698 2.025-.977 2.778-.602 1.212-.675 2.215-.652 3.745.002 1.212.283 1.987.383 3.037-.045.801.261 1.535.729 2.098.522.431.542 1.11.804 1.781a5.805 5.805 0 0 0-.23 1.753c-.054 1.555-.615 2.997.278 4.53.803.501.645 1.386.307 2.204-.573.51-1.28.834-2.012 1.044-1.132.419-1.981.14-3.104.594-.678.299-1.269.949-2.012 1.178-.925.374-2.118.044-3.009-.24a.962.962 0 0 1-.66-.373l-.154-.249a3.069 3.069 0 0 1-.134-.297c-.548-1.289-.645-2.531-.489-4.148.162-1.683 1.118-4.12.077-6.81-.425-1.098-.423-2.39-.173-3.765.437-2.396.013-4.54-.2-6.398-.14-1.212.422-2.317.536-4.818.069-1.518-.632-2.466-.834-2.96-.164-.402-.2-.655-.01-1.236.406-.143.78-.216 1.16-.23zM76.234 81.958l-61.07 1.983c4.326 29.153 29.476 51.543 59.834 51.543 18.273 0 34.66-8.114 45.758-20.93-1.929-.518-3.334.88-5.03 1.398-1.99-.47-3.495.764-4.206 2.53-1.99.503-4.252-.196-5.94 1.436-2.266.42-4.572-.04-6.86.039-1.424.948-3.451 1.453-5.385.938-1.613-1.74-3.791 1.603-5.25-.44.482-1.906 2.198-1.963 3.9-1.677 1.947-.828.497-2.357 2.423-3.515 1.048-1.287 3.005-2.852 3.814-4.521-1.134-1.598-2.748-2.93-4.379-4.071-2.352-1.92-4.453-2.501-6.802-3.793-1.928-.877-3.867-2-5.557-3.276-1.594-1.27-3.55-2.954-3.919-5.106-.844-1.76 1.016-2.945.891-4.416-1.124-1.581 1.287-1.776.575-3.467-2.059-.65-1.586-3.27-2.798-4.655zm-1.236-70.5c35.084 0 63.56 28.47 63.56 63.545 0 35.076-28.476 63.536-63.56 63.536s-63.55-28.46-63.55-63.536 28.466-63.545 63.55-63.545zM150 75A75 74.983 0 1 1 0 75a75 74.983 0 1 1 150 0z" fill="#002f6c" fill-rule="evenodd"/>
</svg>
