<svg width="20" height="20" version="1.0" xmlns="http://www.w3.org/2000/svg">
 <path d="M9.36.509c.399-.017.794-.004 1.192-.007.367.044.739-.007 1.107.05.207.034.421 0 .628.047.168.037.345.01.516.05 1.2.137 2.401.358 3.558.73.362.126.74.227 1.06.44.532.349.987.814 1.315 1.355.274.432.485.904.609 1.402.06.194.067.398.107.599.03.177.017.357.02.535 0 .18-.06.354-.057.535-.237 1.916-.916 3.75-1.75 5.478-.879 1.787-1.962 3.482-3.277 4.98-.421.479-.863.944-1.348 1.359-.29.274-.605.515-.916.759a3.507 3.507 0 0 1-1.606.639c-.264.01-.525.067-.789.016a3.416 3.416 0 0 1-1.595-.481c-.221-.127-.415-.295-.613-.455-.21-.157-.4-.335-.595-.508-.622-.536-1.17-1.151-1.699-1.776a23.574 23.574 0 0 1-3.19-5.168C1.38 9.65.871 8.138.627 6.579c-.02-.164-.05-.328-.053-.495-.057-.25-.05-.512-.044-.766.047-.374.1-.749.23-1.104a4.838 4.838 0 0 1 1.054-1.752c.388-.415.857-.773 1.405-.94C4.43 1.081 5.701.836 6.972.672c.157 0 .311-.053.468-.05.19.007.375-.057.569-.05.21.01.421-.047.635-.047.238-.013.479.014.716-.016" fill="#bf2033" stroke="#003f87" stroke-linecap="round" stroke-linejoin="round"/>
</svg>
