<svg width="20" height="20" xmlns="http://www.w3.org/2000/svg">
 <path d="M1.654 10.063H.777S.62 9.92.652 9.691c0-.2 1.22-2.034 1.315-2.664V5.94c0-.4.845-1.117.94-1.718.156-.43.57-1.26 1.346-1.518.344-.115.438-.401.5-.86.189-.4 2.01-.836 3.383-1.059 1.707-.277 3.538-.057 4.446.057.57.07 4.321 2.062 4.729 5.671.094.83 1.346 1.976 1.722 2.234l-.032.43.282.229c-.094 1.546-1.534 3.064-2.442 3.207-.52.08-.822.438-.971.916-.186.599.052 1.155.626 1.49l.407-.144c.188-.229 1.24-.786 1.19-.343-.032.29-.375.315-.563.544.313.372.062 1.117.062 1.117-.657.286-.281.515-.281.515.313.687 1.096.63 1.66 1.232.306.332.374 1.848.375 1.317H2.061v-.258c.031-.716 3.651-2.652 3.82-3.94.132-1.031-2.192-1.346-3.663-1.444 0 0-.545-.074-.564-.372-.044-.39.144-.63.157-.83.018-.258-.032-.917-.032-.917l.125-.4-.156-.173.156-.487s-.03-.372-.25-.372z" fill="#fff" stroke="#000" stroke-width="1.296"/>
</svg>
