<svg width="10.583mm" height="10.583mm" version="1.1" viewBox="0 0 37.5 37.5" xmlns="http://www.w3.org/2000/svg">
 <circle cx="18.75" cy="18.75" r="17.66" fill="#fff" fill-rule="evenodd" stroke="#114da6" stroke-linejoin="round" stroke-width="2.1799"/>
 <ellipse cx="18.75" cy="18.75" rx="13.295" ry="13.331" fill="none" stroke="#fff" stroke-linejoin="round" stroke-width="5.4392"/>
 <path d="m18.75 8.952c-1.4557 0-2.8523 0.32832-4.1124 0.9177a0.54917 0.62433 0 0 1 0.0053 0.082913 0.54917 0.62433 0 0 1-0.31907 0.56606c-0.4126 5.2963-0.6615 10.967-1.3234 16.13 1.6302 1.1884 3.6272 1.8853 5.7494 1.8853 5.2825 0 9.791-4.3155 9.791-9.7912-3e-6 -5.4756-4.5085-9.791-9.7911-9.791zm-5.0586 1.4246c-2.8077 1.707-4.7326 4.7889-4.7326 8.3665 0 2.3686 0.84432 4.5195 2.2294 6.1985l2.9-14.365a0.54917 0.62433 0 0 1-0.3969-0.20002zm0.42499 0.19948a0.54917 0.62433 0 0 1-0.0021 1.49e-4l-2.1848 15.169c0.27975 0.27171 0.57478 0.52741 0.88441 0.76443 0.64648-5.0956 0.89592-10.691 1.3025-15.933z" color="#000000" color-rendering="auto" fill="#114da6" image-rendering="auto" shape-rendering="auto" solid-color="#000000" style="isolation:auto;mix-blend-mode:normal;text-decoration-color:#000000;text-decoration-line:none;text-decoration-style:solid;text-indent:0;text-transform:none;white-space:normal"/>
 <path d="m19.877 22.045c-1.8865-0.70827-2.792-1.0718-6.4055 0.20834 0.30848-3.7587 0.59405-8.1468 0.84847-11.739 8.0664-1.9922 8.6041 5.4961 13.54 4.2415-0.15269 1.2195-0.7862 3.4268-3.883 3.9842 0.39359 1.2232 2.1424 4.6367 4.0737 5.031-5.1755 3.1264-5.5436-0.58621-8.1735-1.7266z" fill="#f90003" stroke-width=".074703"/>
</svg>
