<svg xmlns="http://www.w3.org/2000/svg" width="30.9753" height="19.9868" viewBox="0 0 30.9753 19.9868">
  <path d="M29.9061,3.8267l-.2008.1855-.1842.1912-.18.1967-.1674.1968-.1548.2024-.1423.208-.1339.2108-.1213.2136-.1088.2164-.0963.2165-.0837.222-.0753.2249-.0586.2248-.05.2249-.0335.2277-.0251.2305-.0084.2277v.2276l.0168.2277.0293.2277.0376.2277.05.2248.0669.2249.0711.2249.0963.2192.1.2193.113.2136.1214.2136.1339.208.1506.2052.159.2024.1674.1967a3.28,3.28,0,0,1,.0921,4.5311,7.7252,7.7252,0,0,1-5.8584,2.288l-.4562.0028-.431.0141-.4352.0225-.431.0309-.4268.0421-.4268.0506-.4227.0591-.4184.0674-.4185.0759-.4185.0871-.4059.09-.41.104-.3976.1124-.3933.1209-.3892.1265-.3808.1349-.3808.1434-.3682.1545-.3641.16-.3557.1658-.3515-.1658-.364-.16-.3683-.1545-.3766-.1434-.385-.1349-.385-.1265-.3975-.1209-.4017-.1124-.4059-.104-.4059-.09-.4143-.0871-.4185-.0759-.4226-.0674-.4226-.0591-.4269-.0506L9.1213,17.6l-.4268-.0309-.4227-.0225-.4686-.0141H7.368A7.7091,7.7091,0,0,1,1.51,15.2443a3.2319,3.2319,0,0,1,.1-4.5339l.1674-.1967.1674-.2024.1-.2052.1674-.208.1339-.2136.1-.2136.1-.2193.1005-.2192.0669-.2249.067-.2249.0669-.2248L2.8821,8.13l.0335-.2277v-.683l-.0335-.2305-.0335-.2277-.0334-.2249-.067-.2248-.067-.2249-.1-.222-.1-.2165-.1-.2164-.134-.2136-.1339-.2108-.1339-.208-.1339-.2024L1.6769,4.4l-.2008-.1967-.2009-.1912-.2008-.1855L5.6941.7359l.3348.1867.3348.1821.3682.1731L7.1,1.4442l.3682.162.3348.1529.4017.1439.3682.1394.3976.13.3975.1237L9.77,2.41l.4017.1068.4143.1012.41.0927.4185.0815.4184.0759.4269.0675.4226.059.431.0478.431.045.431.0309.4352.0281.4352.0169.4352.0056h.4352l.4352-.0056.4352-.0169.4352-.0281.431-.0309.4352-.045.4268-.0478.4269-.059.4226-.0675.4226-.0759.4185-.0815.4143-.0927.41-.1012.4059-.1068.4017-.1136.3933-.1237.3892-.13.385-.1394.3766-.1439.3724-.1529.36-.162.3641-.1664.3473-.1731.3431-.1821.3348-.1867Z" transform="translate(-0.0028 -0.0008)" fill="#d10f0e" stroke="#fff" stroke-miterlimit="10" stroke-width="1.2546"/>
</svg>
