<svg width="40" height="40" version="1.1" xmlns="http://www.w3.org/2000/svg">
 <g transform="translate(-184.22 -1483.7)">
  <path d="m184.24 1492.6 14.151-8.879h25.805v31.077l-14.151 8.879h-25.805z" fill="#fff" stroke="#000" stroke-width=".044395"/>
  <path d="m198.87 1485.4-12.967 8.1364v28.493h23.662l12.967-8.1364v-28.493z" fill="#006747" stroke-width=".012332"/>
  <path transform="translate(184.22 1483.7)" d="m6.543 9.873v4.1621h8.3242v9.7109 12.902h4.1621v-12.902-9.7109h8.3242v-4.1621h-20.811z" fill="#fff" stroke-width=".053939"/>
  <path transform="translate(184.22 1483.7)" d="m21.248 3.6289v20.037 0.080078 7.4922h4.1621v-7.4922-0.080078-3.3887c4.5973 0 8.3242-3.7269 8.3242-8.3242s-3.7269-8.3242-8.3242-8.3242h-4.1621zm4.1621 4.1621c2.2986 0 4.1621 1.8635 4.1621 4.1621s-1.8635 4.1621-4.1621 4.1621v-8.3242z" fill="#fff" stroke-width=".066946"/>
 </g>
</svg>
