<svg width="20" height="20" xmlns="http://www.w3.org/2000/svg">
 <path d="M 1.5222109,10.158817 H 0.63132379 c 0,0 -0.1590115,-0.145518 -0.12731894,-0.3784009 0,-0.20369 1.24097855,-2.0659606 1.33649315,-2.7062133 V 5.9683673 c 0,-0.40738 0.8590929,-1.1348965 0.9544755,-1.7459867 C 2.9540866,3.7859093 3.3740358,2.9420784 4.1631694,2.6801246 4.5130983,2.5637796 4.6085113,2.2727344 4.6721098,1.8072024 4.863139,1.3998122 6.7137853,0.95711225 8.1086033,0.73042765 9.8437176,0.4486494 11.704018,0.67226335 12.626851,0.78859705 c 0.579063,0.0698212 4.390827,2.09532625 4.804487,5.76207095 0.0955,0.843841 1.368094,2.0079405 1.749949,2.2697928 l -0.03191,0.4364713 0.286331,0.2327812 c -0.0954,1.5714187 -1.559022,3.1136747 -2.481754,3.2591827 -0.528115,0.08147 -0.835011,0.444742 -0.986331,0.931125 -0.18918,0.608204 0.05326,1.17361 0.636371,1.513195 l 0.41365,-0.145528 c 0.190927,-0.232781 1.259065,-0.79904 1.209174,-0.349217 -0.03279,0.295628 -0.381947,0.320136 -0.572895,0.552918 0.318237,0.378309 0.06383,1.134896 0.06383,1.134896 -0.668165,0.290954 -0.286442,0.523847 -0.286442,0.523847 0.318135,0.698313 1.113761,0.640202 1.686443,1.251241 0.311814,0.337563 0.369553,0.578016 0.381845,1.338627 H 1.9360939 v -0.261964 c 0.031909,-0.727486 3.7099295,-2.694528 3.8818558,-4.004094 0.133629,-1.047714 -2.2274209,-1.367688 -3.7228341,-1.466657 0,0 -0.5536088,-0.0756 -0.572671,-0.378208 -0.044543,-0.395837 0.1463812,-0.640202 0.159235,-0.843841 0.019058,-0.261862 -0.031909,-0.931226 -0.031909,-0.931226 L 1.7769778,11.206528 1.6178647,11.031919 1.7769778,10.537275 c 0,0 -0.031801,-0.378207 -0.2545261,-0.378207 z" fill="#fff" stroke="#000" stroke-width="1.317" style="stroke:#000;stroke-width:1;stroke-linejoin:round;stroke-miterlimit:4;stroke-dasharray:none"/>
</svg>
