<svg width="40" height="39.985" version="1.0" viewBox="0 0 39.933 39.918" xmlns="http://www.w3.org/2000/svg">
 <g transform="matrix(.068153 0 0 .068377 -.47929 -.6171)" fill="#006b54" stroke="#006b54" stroke-width="15.935">
  <path d="m15 232.5c0-31.979 4.1694-62.984 11.995-92.501h546.01c7.8242 29.517 11.994 60.522 11.994 92.501 0 173.11-122.17 317.67-285 352.18-162.83-34.505-285-179.07-285-352.18z" fill="#006b54" stroke="#006b54" stroke-width="15.935"/>
 </g>
 <g transform="matrix(.068522 0 0 .069518 -.58999 -.57872)" fill="#006b54" stroke="#006b54" stroke-width="14.072">
  <path d="m31.324 125c12.255-39.221 31.039-75.559 55.079-107.74 33.102 9.1328 67.968 14.013 103.97 14.013 38.061 0 74.848-5.4517 109.62-15.618 34.775 10.166 71.562 15.618 109.62 15.618 36.006 0 70.873-4.8799 103.97-14.013 24.039 32.181 42.823 68.519 55.078 107.74z" fill="#006b54" stroke="#006b54" stroke-width="14.072"/>
 </g>
</svg>
