<svg width="49.818" height="40" version="1.0" xmlns="http://www.w3.org/2000/svg">
 <path d="m44.283 12.786-0.04096-0.03419 0.07247-0.0933 0.06926-0.09638 0.06622-0.10263 0.05989-0.10263 0.05356-0.10888 0.05347-0.10881 0.04409-0.10881 0.0441-0.11506 0.03783-0.11506 0.0315-0.11506 0.02839-0.11815 0.02205-0.11815 0.01893-0.11815 0.0126-0.12131 0.0094-0.12123 0.0031-0.11823-0.0031-0.11189-0.0063-0.1119-0.01258-0.11197-0.0157-0.1119-0.02213-0.1119-0.02517-0.10881-0.02839-0.11197-0.03472-0.10881-0.03776-0.10572-0.04096-0.10572-0.04409-0.10263-0.05034-0.10263-0.05356-0.09947-0.05669-0.09639-0.05989-0.0933-0.06302-0.09022-0.02838-0.03111-0.02526-0.03419-0.02205-0.03727-0.01892-0.03727-0.01571-0.04044-0.0094-0.04043-0.0095-0.04044v-0.08705l0.0063-0.04044 0.01258-0.04044 0.01259-0.03735 0.01883-0.03727 0.02213-0.03419 0.02205-0.03111 0.02839-0.03111 0.0315-0.02802 0.03159-0.02176 0.03463-0.02176 0.03784-0.0186 0.03776-0.01243 0.04096-0.01242 0.04096-0.0063h0.08185l0.03783 0.0063 0.03463 0.0063 0.03472 0.01243 0.03463 0.01243 0.0315 0.01867 0.0315 0.01868 0.0315 0.02176 0.02526 0.02484 0.02526 0.02485 0.02517 0.02802 0.01893 0.03111 0.01884 0.03418 0.0157 0.03111 0.0126 0.03735 0.01258 0.0342-0.02213-0.08704-0.02205-0.09013-0.02839-0.08704-0.0315-0.08704-0.03471-0.08704-0.03776-0.08704-0.08192-0.1679-0.04722-0.08088-0.04723-0.08088-0.05356-0.08088-0.05347-0.07462-0.05669-0.07463-0.05668-0.07462-0.05989-0.06837-0.0631-0.06846-0.13861-0.12432-0.14182-0.11197-0.14807-0.10881-0.1512-0.09947-0.15433-0.09022-0.15753-0.08395-0.16066-0.07462-0.16378-0.06846-0.16691-0.05911-0.17012-0.04978-0.17012-0.04351-0.17316-0.03727-0.17325-0.02802-0.17324-0.0186-0.17645-0.01243-0.17645-0.0063-0.17645 0.0032-0.17645 0.01243-0.17324 0.01867-0.17645 0.02802-0.17316 0.03727-0.17324 0.04044-0.17012 0.05287-0.17004 0.05911-0.16699 0.06528-0.16378 0.07462-0.16066 0.08397-0.15745 0.09021-0.15753 0.09947-0.1512 0.10572-0.14808 0.11506-0.14182 0.12123 0.02205-0.09639 0.01571-0.0933 0.01579-0.09638 0.0094-0.09331 0.0063-0.09638v-0.18969l-0.0063-0.0933-0.0094-0.0933-0.0126-0.09322-0.01893-0.0933-0.01884-0.09022-0.02526-0.09014-0.02517-0.08704-0.0315-0.09013-0.03472-0.08704-0.03776-0.08395-0.04096-0.08395-0.04409-0.08088-0.04722-0.08088-0.05043-0.07779-0.05347-0.07779-0.05669-0.07462-0.05989-0.07462-0.06309-0.06837-0.06613-0.06846-0.06935-0.06528-0.07247-0.06528-0.07559-0.05911-0.0756-0.05911-0.08194-0.05595-0.08186-0.04969-0.05989-0.04353-0.05668-0.04669-0.05669-0.0466-0.05669-0.04978-0.05347-0.04978-0.05043-0.05286-0.05033-0.05287-0.04731-0.05286-0.04723-0.05595-0.04409-0.05595-0.04409-0.05911-0.04088-0.05911-0.04096-0.0622-0.03783-0.06219-0.03463-0.0622-0.03471-0.06219-0.03463-0.06529-0.02839-0.06528-0.02839-0.06529-0.02839-0.06837-0.02204-0.06846-0.02526-0.06837-0.01884-0.06837-0.01884-0.07154-0.01579-0.07154-0.01571-0.07153-0.0125-0.07154-0.0095-0.07155-0.0063-0.07146-0.0063-0.07462-0.0031-0.07146v-0.0998l-0.04409 0.0466-0.0441 0.04669-0.04722 0.0466-0.04729 0.04353-0.05034 0.04353-0.05035 0.04044-0.05043 0.04044-0.05356 0.04044-0.05347 0.03727-0.05356 0.03418-0.05347 0.03735-0.11336 0.06222-0.05989 0.03111-0.05669 0.03111-0.05989 0.02485-0.05989 0.02802-0.0631 0.02175-0.05989 0.02485-0.06302 0.01867-0.06302 0.02176-0.06302 0.0186-0.06309 0.01551-0.06302 0.01243-0.06613 0.01551-0.06309 0.0094-0.06613 0.0094-0.06622 0.0094-0.06613 0.0063-0.06622 0.0032-0.06613 0.0031-0.06622 0.0031-0.06926-0.0031-0.1387-0.0126-0.06613-0.0031-0.10718-0.01867-0.10398-0.01242-0.10711-0.0063-0.1071-0.0032h-0.10398l-0.10718 0.0063-0.10398 0.0094-0.10398 0.01552-0.10085 0.01867-0.10077 0.02176-0.10085 0.02802-0.09773 0.03111-0.09443 0.03727-0.09452 0.03727-0.09443 0.04353-0.09132 0.04669-0.08819 0.05287-0.08819 0.05286-0.08506 0.05911-0.08194 0.06219-0.07872 0.06528-0.07559 0.06837-0.0756 0.07155-0.06935 0.07462-0.06622 0.07779-0.06613 0.08086-0.05989 0.08397-0.05989 0.08704-0.05356 0.09021-0.05034 0.09322-0.0441 0.09647-0.04409 0.09947-0.0031-0.12123-0.0095-0.11815-0.01258-0.11823-0.01884-0.11506-0.02526-0.11506-0.02839-0.11506-0.0315-0.1119-0.03783-0.10881-0.0441-0.10881-0.04409-0.10572-0.05034-0.10572-0.05669-0.09956-0.05669-0.10264-0.06302-0.09639-0.06613-0.0933-0.06935-0.09331-0.07559-0.09013-0.07559-0.08704-0.08194-0.08088-0.08192-0.08087-0.08819-0.07779-0.08819-0.07462-0.09443-0.06837-0.09443-0.06846-0.09773-0.0622-0.10085-0.05911-0.10398-0.05286-0.1071-0.05287-0.10718-0.0466-0.11022-0.04044-0.11344-0.03727-0.11657-0.03419-0.03776-0.0032-0.04096-0.0094-0.03463-0.01243-0.03783-0.01552-0.03463-0.01867-0.0315-0.02176-0.02838-0.02484-0.02839-0.02802-0.02526-0.02802-0.02213-0.03111-0.01883-0.03418-0.01884-0.03727-0.01258-0.03418-0.0095-0.04044-0.0063-0.03727v-0.08379l0.0063-0.04044 0.0126-0.04044 0.01258-0.04044 0.01884-0.03418 0.02213-0.0342 0.02205-0.03418 0.02839-0.02802 0.0315-0.02802 0.03159-0.02484 0.03463-0.01867 0.03783-0.0186 0.03776-0.01559 0.04096-0.0094 0.04096-0.0063 0.0441-0.0031 0.03776 0.0031 0.03784 0.0032 0.03463 0.0094 0.03783 0.01243 0.03463 0.01243 0.03463 0.01551 0.03159 0.01868 0.0315 0.01867-0.07559-0.05595-0.07568-0.05595-0.07873-0.04978-0.07873-0.04969-0.08192-0.04669-0.08506-0.0466-0.08498-0.04044-0.08506-0.03727-0.08819-0.03727-0.08819-0.03111-0.09131-0.03109-0.08819-0.02493-0.09139-0.02176-0.09132-0.01867-0.09132-0.01552-0.09132-0.01243-0.18591-0.0094h-0.18256l-0.18279 0.0063-0.17958 0.01868-0.17958 0.02484-0.17324 0.03111-0.17325 0.04353-0.17004 0.04978-0.17012 0.05595-0.16378 0.06528-0.16066 0.07155-0.15432 0.08087-0.1544 0.08397-0.14808 0.0933-0.14494 0.09956-0.13861 0.10572-0.1354 0.11197-0.12915 0.12124-0.12282 0.12131-0.11977 0.13057-0.11023 0.13682-0.1071 0.13999-0.10085 0.14616-0.09452 0.14925-0.08498 0.1555-0.08192 0.16167-0.07247 0.16476-0.06613 0.16792-0.05668 0.17417-0.05042 0.17418-0.04096 0.18035-0.0315 0.18652-0.02517-0.09638-0.02526-0.0933-0.0315-0.09013-0.0315-0.09014-0.03783-0.09022-0.04096-0.08396-0.04409-0.08395-0.04731-0.08396-0.04722-0.07779-0.05356-0.07779-0.05668-0.07771-0.05989-0.07153-0.05989-0.07154-0.06302-0.06837-0.06613-0.06528-0.06926-0.06528-0.07247-0.05911-0.0756-0.05911-0.07559-0.05287-0.07561-0.05287-0.08192-0.04978-0.08194-0.04353-0.08506-0.04352-0.08506-0.04044-0.08819-0.03727-0.08819-0.03111-0.09139-0.03111-0.09132-0.02485-0.09452-0.02176-0.09452-0.01868-0.09764-0.01552-0.09764-0.01243-0.07247-0.01243-0.14494-0.03102-0.06926-0.02184-0.07247-0.02176-0.06935-0.02185-0.06926-0.02793-0.06613-0.02802-0.06926-0.03111-0.06613-0.03111-0.06613-0.03418-0.06302-0.03735-0.06302-0.03727-0.06302-0.04044-0.05989-0.04044-0.05989-0.04353-0.05989-0.0466-0.05669-0.0466-0.05356-0.04978-0.05669-0.04978-0.05043-0.04978-0.05356-0.05595-0.04731-0.05287-0.05042-0.05595-0.0441-0.05911-0.08818-0.11822-0.04096-0.06219-0.03776-0.0622-0.03776-0.06528-0.03463-0.06528-0.0315-0.06528-0.02204 0.07155-0.02526 0.06846-0.02517 0.06837-0.02526 0.06837-0.0315 0.06846-0.0315 0.06837-0.0315 0.06528-0.03776 0.0622-0.03776 0.06528-0.03776 0.0622-0.04096 0.05911-0.0441 0.06219-0.04409 0.05595-0.04723 0.05911-0.04721 0.05595-0.05043 0.05286-0.05043 0.05287-0.05356 0.05286-0.05356 0.04969-0.05668 0.04669-0.05668 0.0466-0.05989 0.04353-0.05989 0.04351-0.05989 0.04353-0.06302 0.03727-0.06302 0.03735-0.06613 0.03729-0.06613 0.03418-0.06613 0.03111-0.06926 0.02793-0.06926 0.02802-0.06935 0.02493-0.10398 0.03111-0.10398 0.03419-0.09764 0.04044-0.09773 0.04044-0.09443 0.0466-0.09139 0.05286-0.08819 0.05286-0.08819 0.05595-0.08192 0.06219-0.08194 0.06528-0.07559 0.06528-0.0756 0.07153-0.13852 0.14924-0.12604 0.16176-0.05668 0.08395-0.05356 0.08704-0.05035 0.08704-0.04729 0.09014-0.04096 0.09331-0.04096 0.09638-0.03463 0.09638-0.02838 0.09955-0.0283 0.09947-0.02204 0.09956-0.01579 0.10264-0.01259 0.10572-0.0095 0.10263-0.0031 0.10572v0.10881l0.0063 0.10572-0.04729-0.09013-0.05034-0.08704-0.05043-0.08704-0.05669-0.08395-0.05989-0.08086-0.05989-0.07779-0.06302-0.07779-0.06926-0.07462-0.06935-0.07462-0.06926-0.06846-0.07559-0.06837-0.0756-0.06528-0.07872-0.0622-0.08194-0.05911-0.08192-0.05595-0.08506-0.05595-0.08506-0.04978-0.08819-0.04969-0.09132-0.04351-0.09139-0.04353-0.09132-0.04044-0.09452-0.0342-0.09452-0.03418-0.19528-0.05604-0.09764-0.02176-0.10085-0.02176-0.10085-0.01551-0.10085-0.01243-0.10077-0.0094-0.10398-0.0063h-0.167l-0.06613 0.0031-0.06935 0.0032-0.13226 0.0126-0.06613 0.0094-0.06613 0.0063-0.05989 0.0094-0.03776 0.01243-0.04096 0.0094-0.03776 0.0063-0.04096 0.0031-0.04409-0.0031-0.04096-0.0063-0.04096-0.01243-0.03776-0.01242-0.03776-0.01867-0.03463-0.01868-0.0315-0.02485-0.0315-0.02802-0.02517-0.02793-0.02526-0.0342-0.02204-0.03418-0.01884-0.03727-0.01259-0.03727-0.0095-0.04044-0.0063-0.04044-0.0031-0.04352 0.0031-0.04044 0.0063-0.04044 0.0095-0.03727 0.01259-0.03727 0.01884-0.03418 0.02204-0.03111 0.02205-0.02793 0.02839-0.02802 0.063-0.04352 0.03463-0.02176 0.03776-0.01552 0.03776-0.01243 0.04096-0.01243 0.04096-0.0094 0.04096-0.0063 0.0283-0.0031h0.0315l0.02839-0.0032h0.0283l-0.18583 0.0063-0.37166 0.0188-0.18591 0.0094-0.18583 0.01552-0.18271 0.01551-0.18583 0.01867-0.1827 0.02484-0.1827 0.03419-0.17645 0.04353-0.17012 0.05595-0.16066 0.06837-0.15753 0.07779-0.14807 0.08704-0.14174 0.09638-0.13549 0.10572-0.12603 0.11506-0.1229 0.1244-0.11335 0.13057-0.10398 0.13682-0.10085 0.14616-0.09131 0.14925-0.08506 0.1555-0.07559 0.16167-0.06935 0.16792-0.06302 0.17101-0.05356 0.17418-0.04731 0.17726-0.03776 0.18035-0.0315 0.18343-0.02205 0.18343-0.01571 0.1866-0.0063 0.18968v0.1866l0.0095 0.18969 0.0157 0.18652 0.02526 0.1866 0.03463 0.18652 0.04096 0.18343 0.05043 0.18035-0.07559-0.06219-0.07873-0.05595-0.08194-0.05287-0.08194-0.04978-0.08506-0.04669-0.08506-0.04351-0.08819-0.03727-0.08819-0.03735-0.08819-0.03109-0.09132-0.02802-0.09131-0.02485-0.09139-0.02176-0.09452-0.01867-0.09132-0.01551-0.09452-0.0094-0.09452-0.0063-0.09132-0.0063h-0.09452l-0.18904 0.0126-0.09452 0.0094-0.09443 0.01551-0.09139 0.01867-0.09452 0.02176-0.09132 0.02485-0.09139 0.02802-0.08819 0.03418-0.08819 0.03727-0.08819 0.04044-0.08819 0.04353-0.08506 0.04669-0.08194 0.04978-0.06935 0.03418-0.06613 0.03419-0.06926 0.03111-0.14494 0.05604-0.07247 0.02176-0.15118 0.04352-0.07559 0.0186-0.07559 0.01559-0.07872 0.01243-0.07559 0.0094-0.07872 0.0094-0.0756 0.0063-0.07872 0.0031h-0.14485l-0.07247-0.0031-0.06926-0.0032-0.07247-0.0094-0.06935-0.0094-0.07239-0.0094-0.06935-0.01243-0.06926-0.01552-0.06935-0.01559-0.06926-0.01859-0.06613-0.02176-0.06926-0.02175-0.06613-0.02493-0.06613-0.02793-0.06613-0.02802-0.06302-0.02802 0.04096 0.10881 0.03463 0.11506 0.03463 0.11506 0.02839 0.12123 0.02205 0.12132 0.01571 0.12123 0.0063 0.0622 0.0031 0.05911 0.0032 0.06219v0.14306l-0.0063 0.08704-0.0063 0.08395-0.01259 0.08704-0.01571 0.08395-0.0157 0.08704-0.02205 0.08395-0.02204 0.08395-0.02517 0.08086-0.02839 0.08397-0.0315 0.08087-0.03463 0.07771-0.03463 0.07779-0.03776 0.07462-0.04096 0.07463-0.0441 0.07153-0.05989 0.08704-0.05989 0.09022-0.05356 0.09013-0.04729 0.0933-0.04723 0.09321-0.03776 0.09647-0.03776 0.09638-0.0315 0.09956-0.02517 0.09638-0.02517 0.10264-0.01579 0.09947-0.01571 0.09956-0.0095 0.10264-0.0031 0.09956-0.0032 0.10263 0.0032 0.10263 0.0095 0.09955 0.01259 0.09947 0.01579 0.10263 0.01884 0.09956 0.02526 0.09947 0.0283 0.09647 0.03463 0.09639 0.03776 0.09638 0.04096 0.09331 0.04722 0.0933 0.05043 0.09013 0.05356 0.09013 0.05989 0.08705 0.06302 0.08395 0.06613 0.08395 0.07247 0.08087h-0.23741l-0.11344 0.0094-0.11657 0.01243-0.11344 0.01552-0.11336 0.0186-0.11024 0.02493-0.11344 0.03111-0.1071 0.03418-0.1071 0.03727-0.1071 0.04044-0.10398 0.04669-0.10085 0.04969-0.09764 0.05287-0.09773 0.05595-0.09764 0.0622-0.09131 0.06219-0.0914 0.06846-0.08506 0.06837-0.08506 0.07462-0.08194 0.07779-0.07881 0.08088-0.07559 0.08088-0.07248 0.08704-0.06926 0.09014-0.06613 0.09022-0.06302 0.0933-0.05668 0.09638-0.05356 0.09947-0.05043 0.10263-0.04722 0.10263-0.04096 0.10572-0.03776 0.10881-0.019 0.07454-0.01259 0.03418-0.01892 0.03419-0.01884 0.03111-0.02205 0.03111-0.02526 0.02802-0.0283 0.02484-0.02839 0.02176-0.0315 0.02176-0.03463 0.01867-0.03463 0.01551-0.03463 0.01243-0.07552 0.0126-0.04097 0.0031-0.04409-0.0031-0.040971-0.0063-0.040971-0.0094-0.037758-0.01551-0.037757-0.01552-0.034633-0.02176-0.031504-0.02484-0.031508-0.02802-0.025253-0.02802-0.025173-0.03418-0.022047-0.0342-0.018919-0.03418-0.012586-0.04044-0.00946-0.03727-0.00633-0.04351-0.00313-0.04353v-0.03727l0.00633-0.04044 0.00946-0.04044 0.012585-0.03727 0.015714-0.03727 0.018919-0.03418 0.022047-0.03418 0.022045-0.03418-0.059887 0.06837-0.059886 0.07154-0.056678 0.07462-0.053552 0.07779-0.050345 0.07779-0.0473 0.08088-0.047218 0.08088-0.040968 0.08396-0.040966 0.08704-0.037842 0.08395-0.031505 0.09013-0.031508 0.08704-0.028379 0.09013-0.02517 0.09022-0.018922 0.09014-0.01892 0.09013-0.01884 0.18035-0.00946 0.18035-0.0032 0.18035 0.00946 0.18035 0.015796 0.17726 0.025173 0.1741 0.034631 0.17101 0.044094 0.17101 0.050427 0.16793 0.056677 0.16484 0.066141 0.16167 0.075598 0.15859 0.081934 0.1555 0.091309 0.15233 0.097646 0.14616 0.10398 0.14308 0.11023 0.13991 0.11977 0.13366 0.12603 0.12748 0.13228 0.1244 0.13861 0.11815 0.14486 0.11189 0.1512 0.10572 0.15753 0.09947 0.16387 0.09647 0.17012 0.08704 0.17645 0.07771 0.17958 0.07462 0.18904 0.06537 0.19216 0.05911 0.19529 0.04969 0.20475 0.04353-0.07872 0.02176-0.07881 0.02493-0.15118 0.06222-0.07559 0.03727-0.07559 0.04044-0.07247 0.04044-0.07247 0.0466-0.07246 0.04969-0.06926 0.05287-0.06935 0.05287-0.06614 0.05911-0.06613 0.05911-0.06302 0.06219-0.06302 0.06528-0.05989 0.06846-0.05668 0.07153-0.05356 0.07153-0.05356 0.07462-0.05043 0.07771-0.04722 0.07779-0.04409 0.0808-0.0441 0.08395-0.03784 0.08395-0.03776 0.08704-0.0315 0.08704-0.0315 0.09013-0.02526 0.09013-0.02205 0.09322-0.02204 0.0933-0.01571 0.09638-0.0095 0.0933-0.01571 0.07462-0.01571 0.07154-0.01892 0.06846-0.01884 0.07146-0.02205 0.06846-0.02526 0.06846-0.02839 0.06837-0.02839 0.06846-0.0315 0.06537-0.0315 0.06528-0.03776 0.06537-0.03463 0.0622-0.04096 0.0622-0.04096 0.06219-0.04096 0.05911-0.0441 0.05911-0.04722 0.05595-0.0473 0.05595-0.05034 0.05595-0.05043 0.05286-0.053557 0.04969-0.053552 0.04969-0.056678 0.04978-0.056678 0.0466-0.056681 0.0466-0.063012 0.04352-0.059887 0.04044-0.12602 0.08088-0.066141 0.0342-0.066137 0.03418-0.069264 0.03426 0.072472 0.02176 0.072475 0.02493 0.069263 0.02493 0.069264 0.02793 0.066138 0.03118 0.066141 0.03111 0.066138 0.03418 0.066138 0.03419 0.063013 0.03735 0.063013 0.04044 0.059888 0.04036 0.059888 0.04351 0.05989 0.04353 0.05668 0.04669 0.05668 0.0466 0.05356 0.04969 0.05356 0.05287 0.05043 0.04969 0.05042 0.05595 0.04723 0.05595 0.04722 0.05595 0.04409 0.05595 0.0441 0.05911 0.04096 0.0622 0.03776 0.06219 0.03776 0.0622 0.03776 0.06537 0.0315 0.06528 0.03463 0.06537 0.02838 0.06845 0.02839 0.06837 0.02517 0.06846 0.02838 0.10263 0.03463 0.10263 0.03776 0.09647 0.04096 0.09639 0.04722 0.0933 0.05043 0.09322 0.05356 0.08704 0.05668 0.08396 0.06302 0.08388 0.06302 0.08088 0.06935 0.07771 0.06926 0.07155 0.07246 0.07153 0.07872 0.06846 0.07881 0.06528 0.08194 0.05911 0.08506 0.05911 0.08819 0.05286 0.08819 0.04969 0.09131 0.04669 0.09452 0.04352 0.09452 0.03727 0.09764 0.03427 0.09773 0.03111 0.10077 0.02802 0.10398 0.02176 0.10398 0.01859 0.10398 0.01243 0.10398 0.0094 0.1071 0.0061h0.1071l0.11023-0.0061 0.04096 0.03111-0.07239 0.09647-0.06935 0.09638-0.12604 0.20527-0.05356 0.10581-0.05356 0.1119-0.04722 0.10889-0.04096 0.11506-0.03776 0.11498-0.0315 0.11506-0.02839 0.11814-0.02517 0.11815-0.01571 0.11823-0.0158 0.12123-0.0063 0.11815-0.0032 0.12123 0.0032 0.11197 0.0063 0.11197 0.0126 0.1119 0.01571 0.11198 0.02203 0.11197 0.02205 0.10881 0.0315 0.11197 0.0315 0.10881 0.03776 0.10581 0.04409 0.10572 0.04409 0.10263 0.05043 0.10263 0.05356 0.09956 0.05668 0.09638 0.05989 0.0933 0.06302 0.09014 0.0283 0.03111 0.02526 0.03418 0.02205 0.03735 0.01884 0.03727 0.01579 0.04044 0.0095 0.04044 0.0063 0.04044 0.0031 0.04352-0.0031 0.04351-0.0063 0.04036-0.0095 0.04044-0.01258 0.03735-0.01892 0.03727-0.02204 0.03426-0.02517 0.03111-0.02526 0.03111-0.0315 0.02802-0.0315 0.02176-0.03463 0.02185-0.03776 0.0186-0.03776 0.01243-0.04096 0.01243-0.04096 0.0061h-0.08185l-0.03784-0.0061-0.03463-0.0063-0.03463-0.01234-0.03463-0.01243-0.0315-0.01867-0.0315-0.0186-0.0315-0.02176-0.02517-0.02184-0.02517-0.02802-0.02526-0.02802-0.01884-0.02802-0.01893-0.03111-0.0158-0.03549-0.01571-0.03418-0.0095-0.03426 0.02204 0.08704 0.02205 0.09013 0.0283 0.08704 0.0315 0.08704 0.03463 0.08704 0.03463 0.08705 0.04096 0.08395 0.04409 0.08088 0.04723 0.0808 0.04723 0.08087 0.10712 0.15542 0.05669 0.07462 0.05668 0.07154 0.05989 0.06846 0.06302 0.06846 0.13861 0.12432 0.14174 0.11506 0.14807 0.10572 0.1512 0.09956 0.15432 0.09014 0.15754 0.08395 0.16066 0.07462 0.16378 0.06846 0.16699 0.05911 0.167 0.05287 0.17324 0.04352 0.17012 0.03418 0.17324 0.02802 0.17645 0.02176 0.17645 0.01243 0.17324 0.0031 0.17646-0.0031 0.17637-0.01243 0.17645-0.0186 0.17325-0.02802 0.17645-0.03419 0.17012-0.04353 0.17324-0.04978 0.16691-0.05911 0.16699-0.06837 0.16379-0.07462 0.16387-0.08088 0.15753-0.09322 0.15433-0.09647 0.1512-0.10881 0.14807-0.11198 0.14174-0.1244-0.01893 0.09647-0.01884 0.09322-0.01259 0.09647-0.0095 0.09647-0.0063 0.09322-0.0032 0.09647 0.0032 0.09322 0.0063 0.09321 0.0095 0.09331 0.01259 0.09322 0.0157 0.0933 0.02204 0.09013 0.02205 0.09013 0.02838 0.08704 0.0315 0.09014 0.03463 0.08704 0.03776 0.08397 0.04096 0.08395 0.04409 0.0808 0.04729 0.08088 0.05042 0.07771 0.05356 0.07771 0.05668 0.07462 0.05989 0.07153 0.06302 0.07154 0.06613 0.06846 0.06935 0.06528 0.07247 0.06537 0.07247 0.05911 0.07873 0.05911 0.08194 0.05286 0.08194 0.05278 0.05989 0.04353 0.05669 0.0466 0.05668 0.04669 0.05668 0.04969 0.05043 0.04969 0.05356 0.04978 0.05043 0.05278 0.04723 0.05596 0.04729 0.05595 0.04409 0.05595 0.0441 0.05911 0.04096 0.05911 0.04096 0.06219 0.03776 0.05911 0.03463 0.06537 0.03463 0.0622 0.0315 0.06537 0.0315 0.06528 0.02839 0.06537 0.02517 0.06837 0.02517 0.06846 0.02203 0.06846 0.02204 0.06837 0.01892 0.07155 0.0157 0.07154 0.01571 0.07153 0.0095 0.07153 0.01258 0.07155 0.0063 0.07153 0.0063 0.07462 0.0031 0.07153v0.09635l0.0441-0.04969 0.0441-0.0466 0.04729-0.04353 0.04723-0.04352 0.05042-0.04351 0.04731-0.04044 0.05356-0.04044 0.05043-0.03727 0.05356-0.03735 0.05668-0.03727 0.05356-0.03426 0.05668-0.03418 0.05669-0.03111 0.05668-0.03111 0.11978-0.05604 0.11978-0.04986 0.06302-0.02176 0.06302-0.02185 0.05989-0.0186 0.06302-0.0186 0.06613-0.01552 0.06302-0.01552 0.06613-0.01243 0.06302-0.0094 0.06613-0.01243 0.06613-0.0061 0.06613-0.0063 0.19839-0.0093 0.06613 0.0031 0.07246 0.0061 0.06935 0.0063 0.06301 0.0031 0.1071 0.01552 0.10711 0.01243 0.1071 0.0094 0.1071 0.0031h0.10398l0.1071-0.0063 0.10398-0.0093 0.10085-0.01551 0.10398-0.01867 0.10085-0.02485 0.09764-0.02493 0.09764-0.03111 0.09773-0.03735 0.09452-0.03727 0.09443-0.04351 0.09139-0.04978 0.08819-0.04969 0.08819-0.05286 0.08194-0.05911 0.08194-0.0622 0.08194-0.06528 0.07559-0.06846 0.07247-0.07153 0.07247-0.07462 0.06613-0.07771 0.06613-0.08088 0.05989-0.08396 0.05669-0.08704 0.05668-0.09013 0.04722-0.09322 0.04731-0.09647 0.0441-0.09956 0.0031 0.12131 0.0095 0.11815 0.01258 0.11815 0.01893 0.11506 0.02517 0.11506 0.02839 0.11498 0.0315 0.1089 0.03776 0.11197 0.04096 0.10881 0.04723 0.10572 0.05043 0.1058 0.05356 0.09947 0.05989 0.09956 0.06302 0.09956 0.06613 0.09322 0.06926 0.0933 0.07559 0.09013 0.0756 0.08704 0.07881 0.0808 0.08506 0.08088 0.08819 0.07771 0.08819 0.07462 0.18904 0.13692 0.09764 0.0622 0.10085 0.05911 0.10398 0.05287 0.1071 0.05278 0.1071 0.04669 0.11022 0.04036 0.11344 0.04044 0.11336 0.03111 0.04096 0.0063 0.03776 0.0093 0.03776 0.01242 0.03776 0.01552 0.0315 0.01867 0.03463 0.02176 0.02839 0.02493 0.02839 0.02484 0.02517 0.03118 0.02205 0.03111 0.01893 0.03418 0.01571 0.03419 0.0157 0.03735 0.0095 0.04044 0.0063 0.03727v0.08395l-0.019 0.08088-0.01259 0.03727-0.01892 0.03735-0.02204 0.0342-0.02517 0.03418-0.02526 0.02802-0.0315 0.02802-0.0315 0.02493-0.03463 0.0186-0.03776 0.0186-0.03776 0.01243-0.04098 0.01243-0.04096 0.0063-0.04409 0.0031-0.03776-0.0031-0.03783-0.0063-0.03776-0.0061-0.06926-0.02486-0.03463-0.01552-0.0315-0.01859-0.0315-0.02185 0.15118 0.1119 0.07881 0.05287 0.0788 0.0466 0.08194 0.04969 0.08506 0.04353 0.08506 0.04044 0.08506 0.03727 0.08819 0.03735 0.08819 0.03111 0.08819 0.03109 0.0914 0.02494 0.09131 0.02176 0.09139 0.01867 0.09132 0.01551 0.09132 0.01243 0.1827 0.0093 0.18591 0.0032 0.1827-0.0094 0.17958-0.01552 0.17645-0.02802 0.17646-0.03109 0.17324-0.04353 0.17012-0.04978 0.16699-0.05586 0.16378-0.06537 0.16066-0.07153 0.15753-0.07771 0.15432-0.08704 0.14807-0.0933 0.14487-0.09947 0.13861-0.1058 0.13228-0.11189 0.13228-0.11815 0.1229-0.1244 0.11657-0.13057 0.11336-0.13366 0.1071-0.14308 0.10077-0.14616 0.09452-0.14925 0.08506-0.1555 0.08194-0.16167 0.07247-0.16476 0.06302-0.16792 0.05989-0.17418 0.04731-0.17418 0.04096-0.18035 0.03463-0.1866 0.02205 0.09647 0.02839 0.09322 0.02839 0.09022 0.03463 0.09013 0.03783 0.08704 0.03776 0.08704 0.04409 0.08388 0.04729 0.08088 0.05035 0.0808 0.05356 0.07779 0.05347 0.07462 0.05989 0.07462 0.0631 0.07153 0.06302 0.06846 0.06613 0.06528 0.06935 0.0622 0.07247 0.06228 0.07247 0.05586 0.07873 0.05595 0.07568 0.04978 0.08186 0.04969 0.08192 0.0466 0.08498 0.04353 0.08506 0.03735 0.08819 0.03727 0.09132 0.03117 0.09139 0.03111 0.09131 0.02485 0.09443 0.02185 0.09452 0.0186 0.09764 0.01552 0.09773 0.01243 0.07247 0.01243 0.07559 0.01552 0.06935 0.0186 0.07247 0.02185 0.06926 0.02176 0.07247 0.02493 0.06935 0.02493 0.06622 0.02802 0.06926 0.03111 0.06622 0.03111 0.06302 0.03727 0.06613 0.03426 0.0631 0.03727 0.11978 0.08088 0.05989 0.04352 0.05989 0.0466 0.05669 0.0466 0.05347 0.0466 0.05355 0.04978 0.05356 0.05278 0.05034 0.05286 0.05043 0.05287 0.04722 0.05595 0.0441 0.05586 0.0441 0.05911 0.04409 0.05911 0.04096 0.06228 0.03776 0.0622 0.03783 0.06528 0.03463 0.06228 0.0315 0.06837 0.02213-0.07146 0.02205-0.07153 0.02526-0.06846 0.02839-0.06846 0.0315-0.06837 0.0315-0.06846 0.0315-0.06537 0.03783-0.06219 0.03463-0.06528 0.04096-0.06228 0.04096-0.05911 0.08818-0.11822 0.04723-0.05595 0.04723-0.05586 0.05042-0.05287 0.05035-0.05287 0.05356-0.05278 0.05347-0.04978 0.05668-0.0466 0.05669-0.0466 0.05989-0.04353 0.05989-0.04351 0.05989-0.04044 0.06309-0.03727 0.06302-0.03735 0.06613-0.03735 0.06622-0.03418 0.06613-0.03111 0.1387-0.05604 0.07247-0.02493 0.10398-0.03111 0.10085-0.03419 0.09764-0.03735 0.09773-0.04352 0.09443-0.0466 0.09132-0.04969 0.08819-0.05286 0.08819-0.05911 0.08194-0.05911 0.08194-0.06528 0.15118-0.13692 0.06935-0.07462 0.06926-0.07462 0.06309-0.08088 0.06302-0.0808 0.05668-0.08395 0.05347-0.08704 0.05043-0.08704 0.04723-0.09014 0.04096-0.09322 0.03776-0.0933 0.03472-0.09638 0.0315-0.09956 0.02526-0.09956 0.02204-0.09956 0.01884-0.10263 0.01259-0.10572 0.0095-0.10264 0.0031-0.10572v-0.10578l-0.0063-0.10881 0.04723 0.09322 0.04722 0.08705 0.05356 0.08704 0.05667 0.08396 0.0566 0.08088 0.0631 0.0808 0.06302 0.07462 0.06613 0.07462 0.06935 0.07462 0.07247 0.06846 0.07559 0.06846 0.07559 0.06528 0.07881 0.06228 0.07872 0.05911 0.08506 0.05586 0.08186 0.05287 0.08819 0.04978 0.08819 0.04969 0.08819 0.04353 0.09139 0.04353 0.09443 0.03727 0.09443 0.03735 0.09452 0.03111 0.09764 0.03111 0.19546 0.04986 0.10085 0.0186 0.10077 0.01551 0.10085 0.01243 0.10085 0.0094 0.10398 0.0061h0.16707l0.06613-0.0031 0.06935-0.0031 0.06613-0.0063 0.06622-0.0061 0.06613-0.0094 0.06622-0.0061 0.05989-0.0094 0.03776-0.0094 0.04096-0.0093 0.03783-0.0063 0.04096-0.0031 0.04088 0.0031 0.04409 0.0063 0.04096 0.0093 0.03783 0.01552 0.03776 0.01867 0.03471 0.0186 0.0315 0.02493 0.0315 0.02802 0.02526 0.02793 0.02517 0.03426 0.02213 0.0342 0.0157 0.03426 0.01571 0.04036 0.0095 0.04044 0.0063 0.04044 0.0031 0.04352-0.0031 0.04044-0.0063 0.04036-0.0095 0.04044-0.01258 0.03735-0.01571 0.03418-0.02203 0.0342-0.02213 0.03111-0.02839 0.02802-0.02838 0.02493-0.0315 0.02184-0.03463 0.02176-0.03472 0.01551-0.03776 0.01243-0.04096 0.0094-0.04096 0.0061-0.04409 0.0031h-0.12291l0.09443-0.0031h0.09452l0.09443 0.0031 0.09773 0.0032 0.19216 0.0061 0.19529 0.0061h0.18895l0.09132-0.0031 0.09132-0.0061 0.08819-0.0094 0.08819-0.01243 0.08194-0.01552 0.08186-0.02176 0.17645-0.05911 0.17012-0.06537 0.16379-0.07771 0.15753-0.08396 0.1512-0.09013 0.14807-0.10263 0.13869-0.10572 0.13228-0.11506 0.12907-0.12132 0.11978-0.1274 0.11336-0.13057 0.1071-0.13999 0.10085-0.14308 0.09139-0.14925 0.08498-0.1555 0.07881-0.15542 0.07247-0.16167 0.06302-0.16792 0.05669-0.16784 0.05034-0.17101 0.04096-0.17418 0.0315-0.17726 0.02526-0.17726 0.01884-0.18043 0.0095-0.18035v-0.18351l-0.0063-0.18343-0.01571-0.18352-0.02517-0.18343-0.03159-0.18043-0.0441-0.18343-0.05035-0.18043 0.07872 0.06229 0.07881 0.05586 0.08186 0.05287 0.08194 0.04978 0.08506 0.0466 0.08498 0.04351 0.08819 0.03727 0.08819 0.03735 0.08819 0.03111 0.09139 0.02802 0.09132 0.02493 0.09131 0.02176 0.09132 0.0186 0.09452 0.01551 0.09131 0.0094 0.09443 0.0063 0.09452 0.0061h0.09443l0.09443-0.0061 0.09452-0.0063 0.09443-0.0094 0.09139-0.01551 0.09443-0.0186 0.09132-0.02176 0.09131-0.02493 0.09139-0.02802 0.09132-0.0342 0.08819-0.03735 0.08819-0.04044 0.08819-0.04353 0.08506-0.0466 0.08185-0.04969 0.06622-0.03426 0.06926-0.03418 0.06935-0.03111 0.14494-0.05604 0.07247-0.02176 0.07559-0.02493 0.07559-0.0186 0.07559-0.01867 0.07559-0.01552 0.07559-0.01243 0.0788-0.0093 0.07559-0.0094 0.07873-0.0061 0.07568-0.0032 0.07873-0.0031 0.06935 0.0031 0.0724 0.0032 0.06935 0.0031 0.07247 0.0094 0.06935 0.0093 0.06926 0.0094 0.07247 0.01243 0.1387 0.03104 0.06613 0.01859 0.06935 0.02185 0.06622 0.02176 0.06926 0.02493 0.06622 0.02802 0.06302 0.02802 0.06622 0.02793-0.04096-0.10881-0.03783-0.11506-0.0315-0.11506-0.02839-0.12123-0.02205-0.12123-0.01571-0.12131-0.0063-0.0622-0.0031-0.05911-0.0031-0.06219-0.0031-0.05911 0.0031-0.08395 0.0063-0.08704 0.0063-0.08397 0.0125-0.08704 0.0126-0.08389 0.01893-0.08704 0.01884-0.08396 0.02526-0.08395 0.02517-0.08395 0.02839-0.0808 0.0315-0.08088 0.03472-0.07771 0.03463-0.07771 0.03783-0.07779 0.04088-0.07153 0.04096-0.07153 0.06302-0.08704 0.05989-0.09013 0.05356-0.09013 0.04722-0.09322 0.0441-0.0933 0.04096-0.09638 0.03783-0.09647 0.0315-0.09956 0.02526-0.09956 0.02205-0.09947 0.01884-0.09956 0.01571-0.09956 0.0095-0.10263 0.0031-0.09955 0.0031-0.10264-0.0031-0.10264-0.0094-0.09956-0.01258-0.09956-0.01571-0.10264-0.01892-0.09947-0.02517-0.09647-0.0315-0.09956-0.03159-0.09638-0.03776-0.09647-0.04096-0.09322-0.04722-0.0933-0.05043-0.09013-0.05347-0.09013-0.05989-0.08705-0.06309-0.08395-0.06613-0.08086-0.07247-0.0808h0.11664l0.11657-0.0031 0.11657-0.0063 0.11657-0.01243 0.11336-0.01552 0.11344-0.02176 0.11031-0.02494 0.11023-0.02802 0.11032-0.03418 0.1071-0.03735 0.10398-0.04036 0.10398-0.04669 0.10398-0.04969 0.09773-0.05287 0.09764-0.05586 0.09452-0.06228 0.09443-0.06219 0.08819-0.06845 0.08819-0.07155 0.08506-0.07146 0.08192-0.07779 0.07873-0.0808 0.07559-0.08395 0.07247-0.08396 0.06935-0.09013 0.06613-0.09013 0.05989-0.09647 0.05989-0.09638 0.05356-0.09956 0.05035-0.09956 0.04729-0.10572 0.04088-0.10581 0.03783-0.10881 0.0063-0.03735 0.01258-0.03727 0.01258-0.03419 0.01884-0.03426 0.01893-0.03111 0.02204-0.03111 0.02526-0.02802 0.02839-0.02493 0.02839-0.02176 0.0315-0.02184 0.0315-0.0186 0.03463-0.01552 0.03783-0.01243 0.03776-0.0094 0.03783-0.0031 0.04096-0.0031 0.04096 0.0031 0.04409 0.0063 0.0409 0.0093 0.03783 0.01552 0.03776 0.01552 0.03472 0.02184 0.0315 0.02493 0.0315 0.02802 0.02526 0.02793 0.02526 0.03118 0.02205 0.0342 0.01572 0.03735 0.0157 0.04036 0.0095 0.03735 0.0063 0.04352 0.0032 0.04044-0.0032 0.04036-0.0031 0.04044-0.0095 0.04044-0.01251 0.03727-0.01579 0.03735-0.01884 0.0342-0.02204 0.03426-0.02526 0.03418 0.06302-0.06846 0.05989-0.07154 0.05669-0.07146 0.05356-0.07779 0.05034-0.07771 0.04723-0.08087 0.04729-0.0808 0.04088-0.08396 0.04096-0.08704 0.03472-0.08704 0.03463-0.08705 0.0315-0.08704 0.02839-0.09014 0.02526-0.09013 0.01884-0.09013 0.01884-0.09022 0.01893-0.18343 0.0094-0.18035 0.0031-0.18043-0.0094-0.17726-0.01571-0.17726-0.02526-0.17726-0.03463-0.17101-0.04096-0.17101-0.05042-0.16784-0.05989-0.16476-0.06613-0.16175-0.07559-0.1585-0.08194-0.1555-0.09132-0.15241-0.09443-0.14616-0.10718-0.143-0.11023-0.13999-0.11969-0.13366-0.12603-0.12748-0.13228-0.12432-0.13861-0.11823-0.14495-0.1119-0.1512-0.10572-0.15753-0.10263-0.16378-0.0933-0.17012-0.08704-0.17645-0.0808-0.18271-0.07154-0.18591-0.06537-0.19216-0.05911-0.19842-0.05287-0.20163-0.04044 0.07873-0.02176 0.07559-0.02802 0.0788-0.02802 0.07559-0.03111 0.07559-0.03727 0.07247-0.04044 0.07559-0.04044 0.07247-0.0466 0.06935-0.04978 0.07247-0.04978 0.06613-0.05595 0.06935-0.05911 0.06302-0.05911 0.06302-0.0622 0.0631-0.06528 0.05989-0.06837 0.05669-0.07154 0.0566-0.07153 0.05042-0.07462 0.05034-0.07779 0.05043-0.07771 0.0441-0.08087 0.04096-0.08395 0.04088-0.08395 0.03472-0.08704 0.03463-0.08705 0.02839-0.09022 0.02839-0.09322 0.02204-0.0933 0.02213-0.09331 0.0157-0.09639 0.0095-0.09638 0.01571-0.07153 0.0157-0.07155 0.01884-0.07154 0.01884-0.07153 0.05052-0.13674 0.02517-0.06846 0.03159-0.06837 0.02839-0.06528 0.03463-0.06528 0.03463-0.06219 0.03783-0.06528 0.03776-0.06219 0.04096-0.05911 0.08818-0.11822 0.04723-0.05595 0.04729-0.05595 0.04723-0.05595 0.05347-0.05287 0.05043-0.04978 0.05668-0.04969 0.05347-0.04978 0.05989-0.04669 0.05669-0.04353 0.05989-0.04353 0.06309-0.04352 0.06302-0.03735 0.06302-0.04044 0.06622-0.03419 0.06613-0.03418 0.06622-0.03418-0.06935-0.02176-0.07247-0.02493-0.06935-0.02484-0.06926-0.02802-0.06622-0.03111-0.06935-0.03111-0.06302-0.0342-0.06613-0.03418-0.0631-0.03727-0.06302-0.04044-0.05989-0.04044-0.05989-0.04353-0.05989-0.04351-0.05668-0.0466-0.05668-0.04669-0.05347-0.04969-0.05356-0.05287-0.05043-0.05287-0.05034-0.05287-0.05035-0.05595-0.04409-0.05595-0.04731-0.05911-0.04088-0.05911-0.04096-0.05911-0.04096-0.0622-0.03783-0.06219-0.06926-0.13056-0.0315-0.06528-0.03159-0.06837-0.02517-0.06837-0.02839-0.06846-0.02839-0.10572-0.03463-0.09956-0.03783-0.09955-0.04097-0.09323-0.04722-0.0933-0.05035-0.0933-0.05356-0.08704-0.05669-0.08704-0.06302-0.08088-0.06309-0.08088-0.06926-0.07779-0.06935-0.07462-0.07559-0.06837-0.07559-0.06846-0.07881-0.06528-0.08186-0.05911-0.08506-0.05911-0.08819-0.05287-0.08819-0.04978-0.09132-0.0466-0.09452-0.04353-0.09443-0.03727-0.09773-0.03735-0.10077-0.02793-0.10085-0.02802-0.10085-0.02176-0.10398-0.01867-0.10398-0.01243-0.10718-0.0094-0.1071-0.0063h-0.10704l-0.10735 0.0076z" fill="#fecd00" fill-rule="evenodd" stroke="#000" stroke-linejoin="round" stroke-width="2.3623"/>
</svg>
