<svg width="25" height="20" version="1.0" viewBox="0 0 24.966 19.967" xmlns="http://www.w3.org/2000/svg">
 <path style="fill:#006747;stroke:#fff;stroke-width:1;stroke-miterlimit:4;stroke-dasharray:none" d="m 24.454197,5.915789 c 0,6.956307 -5.225427,12.694074 -11.971197,13.512854 C 5.7372308,18.609796 0.51180302,12.872096 0.51180302,5.915789 h 4.988e-5 c 0,-0.4243975 0.0194519,-0.8442461 0.0574949,-1.2587162 C 0.73015903,3.3907669 1.1086041,1.7689039 1.5831516,0.63365107 h 2.661e-4 C 3.2767759,1.0939572 5.0568447,1.33942 6.8932125,1.33942 c 1.9385508,0 3.8141485,-0.2734863 5.5912885,-0.78449529 1.777174,0.51101239 3.652772,0.78449529 5.59129,0.78449529 1.8365,0 3.616502,-0.245446 5.309794,-0.70576893 0.474548,1.13515163 0.850324,2.75698093 1.011102,4.02342173 0.03805,0.4144701 0.05751,0.8343187 0.05751,1.2587162 z"/>
 <path style="fill:none;stroke:#fff;stroke-width:1;stroke-linecap:butt;stroke-linejoin:miter;stroke-opacity:1" d="M 0.49931998,4.4992637 H 24.46668"/>
</svg>
