<svg width="25" height="19.999" version="1.0" xmlns="http://www.w3.org/2000/svg">
 <path d="m1.031 1.2308h6.6293c0.51537 0.25172 1.1204 0.44865 1.7815 0.60104 0.66111 0.15238 1.4296-0.19815 2.1693-0.12455 0.36982 0.036801 0.66833 0.24938 1.0452 0.25539 0.37684 0.00601 0.83199-0.19456 1.2074-0.18687 0.75089 0.015366 0.97778 0.5847 2.134 0.50263 0.69252-0.049172 1.1947-0.34747 1.8817-0.54576 0.68706-0.19833 1.5613-0.26984 2.287-0.26323 1.3896 0.012672 2.7791-0.54017 4.1687-0.77414l0.0725 7.6369c-0.73231 0.38183-0.18337 1.0237-0.23234 1.6193-0.02676 0.32555-0.0835 0.66232-0.40366 0.83582-0.3189 0.17285-0.2884 0.5824-0.13819 1.0522 0.19884 0.62194-0.13016 1.2461-0.28772 1.8559-0.15757 0.60969-0.47794 1.1838-1.1107 1.6821-0.619 0.48747-1.5435 1.3097-2.6361 1.4381-1.4104 0.16573-1.8813 0.66887-2.6389 1.3104-0.34937 0.29581-0.51214 0.37954-1.3283 0.4359-0.45494 0.03142-0.3373 0.30456-1.3518 0.35131-1.0011 0.04614-1.9299 0.49732-2.5259 0.49654-1.6705-0.002149-3.0413-1.7299-5.2436-1.9692-1.0989-0.1194-2.1164-0.49816-3.1127-0.91099-0.50032-0.20742-0.98025-0.61824-1.533-0.69276-0.66581-0.089379-0.81008-0.51032-1.2753-0.68772v-13.55c-0.015811-0.24931 0.18588-0.37182 0.44195-0.36746z" fill="#fff" stroke="#000" stroke-width="1.178"/>
</svg>
