<svg width="26" height="20" xml:space="preserve" xmlns="http://www.w3.org/2000/svg">
 <path d="m 20.759798,18.80996 c -1.627565,0.468456 -1.309045,-1.073777 -2.120296,-0.08109 -0.660672,0.80843 -1.973693,0.889936 -2.859903,0.162467 -0.799044,-0.655917 -1.143186,0.809931 -3.025464,0.351745 C 11.401503,18.913823 10.849281,19.486005 9.2126009,19.006286 7.8998012,18.621498 6.9806917,18.603767 5.2333668,18.615302 3.8430281,18.624479 2.6223569,19.123381 1.5093248,18.941459 0.14956458,18.719214 0.72252528,16.520245 0.91099288,15.641649 1.093264,14.791939 1.0794043,13.385614 0.96098588,12.519972 0.82302206,11.511452 1.981394,10.636506 1.8871757,9.6539856 1.7770664,8.5057515 1.6783352,8.3305729 1.1359623,7.3401706 0.68788388,6.5219552 0.50720558,5.9794785 0.50720558,5.1710926 V 0.50046625 H 13.33861 c 0.359871,1.07750095 1.334717,2.01114495 1.148977,2.67013075 -0.271147,0.9620037 -0.573486,0.8546803 -0.840711,1.7274739 -0.207094,0.6763966 -0.662427,0.9471815 -0.562539,1.5506532 3.003542,0.00489 9.059292,0.00979 12.062835,0.014679 -0.07006,0.9543648 -0.36725,4.4513709 -0.228673,5.2790309 0.187323,1.118799 0.171356,1.848396 0.371002,2.946688 0.136776,0.752432 -0.02385,0.900685 -0.763298,1.63347 -0.381715,0.378277 -0.431471,1.746649 0.465177,2.115553 1.638536,0.674138 -1.073629,1.710665 -1.783063,0.506982 C 23.009068,18.607064 22.973068,18.783715 22.449,18.278 c -0.524067,-0.505715 -1.026871,0.341322 -1.689202,0.53196 z" style="fill:#fff;stroke:#000;stroke-width:1;stroke-miterlimit:4;stroke-dasharray:none;stroke-opacity:1"/>
</svg>
