<svg width="25" height="20" version="1.0" xmlns="http://www.w3.org/2000/svg">
 <path d="m 21.800931,6.5499359 -0.01966,-0.016351 0.03479,-0.044619 0.03325,-0.046092 0.0318,-0.049082 0.02875,-0.049082 0.02571,-0.052071 0.02567,-0.052037 0.02117,-0.052037 0.02117,-0.055027 0.01816,-0.055027 0.01512,-0.055027 0.01363,-0.056504 0.01059,-0.056504 0.0091,-0.056504 0.006,-0.058015 0.0045,-0.057977 0.0014,-0.056542 -0.0014,-0.05351 -0.0031,-0.053515 -0.006,-0.053548 -0.0076,-0.053514 -0.01063,-0.053515 -0.01208,-0.052037 -0.01363,-0.053548 -0.01666,-0.052037 -0.01813,-0.05056 -0.01966,-0.050559 -0.02117,-0.049082 -0.02416,-0.049082 -0.02571,-0.047571 -0.02721,-0.046098 -0.02876,-0.044619 -0.03026,-0.043147 -0.01362,-0.014878 -0.01213,-0.016351 -0.01059,-0.017824 -0.0091,-0.017824 -0.0076,-0.019339 -0.0045,-0.019335 -0.0045,-0.019339 v -0.04163 l 0.0031,-0.019339 0.006,-0.019339 0.006,-0.017862 0.0091,-0.017824 0.01063,-0.016351 0.01059,-0.014878 0.01363,-0.014878 0.01512,-0.013401 0.01517,-0.010407 0.01662,-0.010407 0.01817,-0.0089 0.01813,-0.00595 0.01966,-0.00594 0.01966,-0.00301 h 0.0393 l 0.01816,0.00301 0.01663,0.00301 0.01666,0.00595 0.01662,0.00595 0.03025,0.017869 0.01512,0.010407 0.01213,0.011879 0.01213,0.011884 0.01208,0.013401 0.0091,0.014878 0.0091,0.016346 0.0076,0.014878 0.006,0.017862 0.006,0.016356 -0.01063,-0.041626 -0.01059,-0.043104 -0.01363,-0.041626 -0.01512,-0.041626 -0.01666,-0.041626 -0.01813,-0.041626 -0.03932,-0.080296 -0.04534,-0.077361 -0.02571,-0.038681 -0.02567,-0.035687 -0.02721,-0.03569 -0.02722,-0.035686 -0.02876,-0.032697 -0.03029,-0.03274 -0.06655,-0.059455 -0.06809,-0.053549 -0.07108,-0.052037 -0.07259,-0.047571 -0.07409,-0.043147 -0.07563,-0.040148 -0.07713,-0.035686 -0.07863,-0.03274 -0.08013,-0.028268 -0.08167,-0.023807 -0.08167,-0.020808 -0.08313,-0.017824 -0.08318,-0.013401 -0.08318,-0.0089 -0.08472,-0.00595 -0.08471,-0.00301 -0.08472,0.00153 -0.08472,0.00595 -0.08317,0.00893 -0.08472,0.013401 -0.08314,0.017824 -0.08318,0.019339 -0.08167,0.025285 -0.08163,0.028268 -0.08017,0.03122 -0.07863,0.035686 -0.07713,0.040158 -0.07559,0.043142 -0.07563,0.047571 -0.07259,0.050559 -0.07109,0.055027 -0.06809,0.057977 0.01058,-0.046098 0.0076,-0.044619 0.0076,-0.046092 0.0045,-0.044625 0.0031,-0.046093 v -0.090717 l -0.0031,-0.044619 -0.0045,-0.044619 -0.006,-0.044581 -0.0091,-0.044619 -0.0091,-0.043147 -0.01213,-0.043109 -0.01208,-0.041626 -0.01512,-0.043104 -0.01666,-0.041626 -0.01813,-0.040149 -0.01966,-0.040149 -0.02117,-0.038681 -0.02267,-0.038681 -0.02421,-0.037202 -0.02567,-0.037203 -0.02722,-0.035686 -0.02876,-0.035685 -0.03029,-0.032697 -0.03175,-0.03274 -0.0333,-0.03122 -0.03479,-0.03122 -0.07259,-0.056536 -0.03934,-0.026758 -0.0393,-0.023764 -0.02875,-0.020818 -0.02721,-0.02233 -0.02722,-0.022287 -0.02721,-0.023807 -0.02567,-0.023807 -0.02421,-0.02528 -0.02416,-0.025284 -0.02271,-0.02528 -0.02267,-0.026758 -0.02117,-0.026758 -0.02117,-0.028268 -0.01962,-0.028268 -0.01966,-0.029747 -0.01817,-0.029741 -0.01663,-0.029747 -0.01666,-0.029741 -0.01663,-0.031225 -0.01363,-0.03122 -0.01363,-0.031225 -0.01363,-0.032697 -0.01058,-0.03274 -0.01212,-0.032697 -0.0091,-0.032697 -0.0091,-0.034213 -0.0076,-0.034213 -0.0076,-0.034209 -0.006,-0.034213 -0.0045,-0.034218 -0.0031,-0.034175 -0.0031,-0.035686 -0.0014,-0.034175 v -0.047728 l -0.02117,0.022287 -0.02117,0.02233 -0.02267,0.022287 -0.02271,0.020818 -0.02416,0.020818 -0.02417,0.019339 -0.02421,0.019339 -0.02571,0.019339 -0.02567,0.017824 -0.02571,0.016346 -0.02567,0.017862 -0.05442,0.029757 -0.02876,0.014878 -0.02721,0.014878 -0.02876,0.011884 -0.02876,0.013401 -0.0303,0.010402 -0.02876,0.011884 -0.03026,0.00893 -0.03026,0.010407 -0.03026,0.0089 -0.03029,0.00742 -0.03026,0.00595 -0.03175,0.00742 -0.03028,0.0045 -0.03175,0.0045 -0.03179,0.0045 -0.03175,0.00301 -0.03179,0.00153 -0.03175,0.00148 -0.0318,0.00148 -0.03325,-0.00148 -0.06659,-0.00603 -0.03175,-0.00148 -0.05145,-0.00893 -0.04992,-0.00594 -0.05143,-0.00301 -0.05142,-0.00153 h -0.04992 l -0.05146,0.00301 -0.04992,0.0045 -0.04992,0.00742 -0.04841,0.00893 -0.04837,0.010407 -0.04841,0.013401 -0.04692,0.014878 -0.04533,0.017824 -0.04538,0.017824 -0.04533,0.020818 -0.04384,0.02233 -0.04234,0.025285 -0.04234,0.02528 -0.04084,0.028268 -0.03934,0.029742 -0.03779,0.03122 -0.03629,0.032697 -0.03629,0.034218 -0.03329,0.035686 -0.03179,0.037203 -0.03175,0.038671 -0.02876,0.040157 -0.02875,0.041626 -0.02571,0.043142 -0.02416,0.044581 -0.02117,0.046136 -0.02117,0.047571 -0.0014,-0.057977 -0.0045,-0.056504 -0.006,-0.056542 -0.0091,-0.055027 -0.01213,-0.055027 -0.01363,-0.055027 -0.01512,-0.053515 -0.01816,-0.052037 -0.02117,-0.052036 -0.02117,-0.05056 -0.02416,-0.050559 -0.02721,-0.047613 -0.02721,-0.049086 -0.03026,-0.046098 -0.03175,-0.044619 -0.03329,-0.044625 -0.03629,-0.043104 -0.03629,-0.041626 -0.03933,-0.038681 -0.03933,-0.038676 -0.04234,-0.037203 -0.04234,-0.035686 -0.04533,-0.032697 -0.04533,-0.03274 -0.04692,-0.029747 -0.04841,-0.028268 -0.04992,-0.02528 -0.05142,-0.025285 -0.05145,-0.022286 -0.05292,-0.019339 -0.05446,-0.017824 -0.05596,-0.016351 -0.01813,-0.00153 -0.01967,-0.0045 -0.01662,-0.00595 -0.01817,-0.00742 -0.01663,-0.00893 -0.01512,-0.010407 -0.01362,-0.011879 -0.01363,-0.013401 -0.01213,-0.013401 -0.01063,-0.014878 -0.0091,-0.016346 -0.0091,-0.017824 -0.006,-0.016346 -0.0045,-0.019339 -0.0031,-0.017824 v -0.040064 l 0.0031,-0.019339 0.01205,-0.03868 0.0091,-0.016346 0.01063,-0.016356 0.01059,-0.016346 0.01363,-0.013401 0.01512,-0.013401 0.01517,-0.011879 0.01663,-0.00893 0.01816,-0.00889 0.01813,-0.00746 0.01966,-0.0045 0.01967,-0.00301 0.02117,-0.00148 0.01813,0.00148 0.01817,0.00153 0.01663,0.00449 0.01816,0.00595 0.01663,0.00595 0.01662,0.00742 0.01517,0.00893 0.01512,0.00893 -0.03629,-0.026757 -0.03633,-0.026758 -0.03779,-0.023807 -0.03779,-0.023764 -0.03933,-0.022329 -0.04084,-0.022286 -0.0408,-0.01934 -0.04084,-0.017824 -0.04234,-0.017824 -0.04234,-0.014878 -0.04384,-0.014868 -0.04234,-0.011923 -0.04388,-0.010407 -0.04384,-0.00893 -0.04384,-0.00742 -0.04384,-0.00595 -0.08925,-0.00449 h -0.08764 l -0.08776,0.00301 -0.08622,0.00893 -0.08622,0.01188 -0.08318,0.014878 -0.08318,0.020817 -0.08164,0.023807 -0.08167,0.026758 -0.07863,0.031219 -0.07713,0.034218 -0.07409,0.038676 -0.07413,0.040158 -0.07109,0.044619 -0.06958,0.047613 -0.06655,0.05056 -0.065,0.053548 -0.06201,0.057982 -0.05896,0.058015 -0.0575,0.062443 -0.05292,0.065433 -0.05142,0.066949 -0.04841,0.069899 -0.04538,0.071378 -0.0408,0.074366 -0.03932,0.077317 -0.03479,0.078795 -0.03175,0.080307 -0.02721,0.083295 -0.02421,0.0833 -0.01966,0.08625 -0.01512,0.089202 -0.01208,-0.046093 -0.01213,-0.04462 -0.01512,-0.043104 -0.01512,-0.043109 -0.01816,-0.043147 -0.01966,-0.040153 -0.02117,-0.040149 -0.02271,-0.040153 -0.02267,-0.037202 -0.02571,-0.037202 -0.02721,-0.037164 -0.02875,-0.034209 -0.02876,-0.034213 -0.03026,-0.032697 -0.03175,-0.03122 -0.03325,-0.03122 -0.03479,-0.028268 -0.03629,-0.028268 -0.03629,-0.025284 -0.0363,-0.025285 -0.03932,-0.023807 -0.03934,-0.020818 -0.04084,-0.020812 -0.04084,-0.019339 -0.04234,-0.017824 -0.04234,-0.014878 -0.04388,-0.014878 -0.04384,-0.011884 -0.04538,-0.010407 -0.04538,-0.00893 -0.04687,-0.00742 -0.04687,-0.00595 -0.03479,-0.00595 -0.06958,-0.014835 -0.03325,-0.010445 -0.03479,-0.010407 -0.0333,-0.010449 -0.03325,-0.013358 -0.03175,-0.013401 -0.03325,-0.014878 -0.03175,-0.014878 -0.03175,-0.016346 -0.03026,-0.017862 -0.03026,-0.017824 -0.03026,-0.019339 -0.02876,-0.019339 -0.02874,-0.020818 -0.02876,-0.022287 -0.02721,-0.022286 -0.02571,-0.023807 -0.02721,-0.023807 -0.02421,-0.023807 -0.02571,-0.026758 -0.02271,-0.025284 -0.0242,-0.026758 -0.02117,-0.028268 -0.04233,-0.056537 -0.01967,-0.029742 -0.01813,-0.029746 -0.01813,-0.031219 -0.01663,-0.031219 -0.01512,-0.031219 -0.01058,0.034218 -0.01212,0.03274 -0.01208,0.032697 -0.01212,0.032697 -0.01512,0.03274 -0.01512,0.032697 -0.01512,0.03122 -0.01813,0.029747 -0.01813,0.03122 -0.01813,0.029747 -0.01966,0.028268 -0.02117,0.029742 -0.02117,0.026758 -0.02268,0.028268 -0.02267,0.026758 -0.02421,0.02528 -0.02421,0.025284 -0.02571,0.02528 -0.02571,0.023763 -0.02721,0.02233 -0.02721,0.022287 -0.02875,0.020818 -0.02875,0.020808 -0.02875,0.020818 -0.03026,0.017824 -0.03026,0.017862 -0.03175,0.017833 -0.031749,0.016346 -0.031749,0.014878 -0.033249,0.013358 -0.033249,0.013401 -0.033297,0.011922 -0.049919,0.014878 -0.04992,0.016351 -0.046875,0.019339 -0.046917,0.019339 -0.045332,0.022287 -0.043875,0.02528 -0.042338,0.02528 -0.042338,0.026758 -0.039328,0.029742 -0.039338,0.03122 -0.036291,0.03122 -0.036296,0.034208 -0.066502,0.071373 -0.06051,0.077359 -0.027213,0.040148 -0.025713,0.041626 -0.024171,0.041626 -0.022704,0.043109 -0.019666,0.044625 -0.019662,0.046093 -0.016625,0.046093 -0.013625,0.047609 -0.013587,0.047571 -0.010583,0.047614 -0.00758,0.049086 -0.00605,0.05056 -0.00454,0.049082 -0.00146,0.05056 v 0.052036 l 0.00303,0.050559 -0.022704,-0.043104 -0.024103,-0.041637 -0.024213,-0.041626 -0.027218,-0.040149 -0.02875,-0.038671 -0.02875,-0.037202 -0.030255,-0.037202 -0.033249,-0.035686 -0.033297,-0.035686 -0.033249,-0.03274 -0.036291,-0.032697 -0.036296,-0.03122 -0.037791,-0.029747 -0.039338,-0.028268 -0.039328,-0.026758 -0.040838,-0.026758 -0.040838,-0.023807 -0.042338,-0.023764 -0.043842,-0.020808 -0.043875,-0.020818 -0.043842,-0.019339 -0.04538,-0.016356 -0.04538,-0.016346 -0.093751,-0.0268 -0.046875,-0.010407 -0.048417,-0.010407 -0.048417,-0.00742 -0.048417,-0.00595 -0.048379,-0.0045 -0.04992,-0.00301 h -0.080175 l -0.031749,0.00148 -0.033297,0.00153 -0.063496,0.00603 -0.031749,0.0045 -0.031749,0.00301 -0.02875,0.0045 -0.018129,0.00595 -0.019666,0.0045 -0.018129,0.00301 -0.019666,0.00148 -0.021167,-0.00148 -0.019666,-0.00301 -0.019667,-0.00595 -0.018129,-0.00594 -0.018129,-0.00893 -0.016624,-0.00893 -0.015125,-0.011884 -0.01512,-0.013401 -0.012083,-0.013358 -0.012126,-0.016356 -0.010584,-0.016346 -0.00905,-0.017824 -0.00605,-0.017824 -0.00454,-0.019339 -0.00303,-0.019339 -0.00146,-0.020813 0.00146,-0.019339 0.00303,-0.019339 0.00454,-0.017824 0.00605,-0.017824 0.00905,-0.016346 0.010584,-0.014878 0.010587,-0.013358 0.01363,-0.013401 0.030245,-0.020812 0.016624,-0.010406 0.018129,-0.00742 0.018129,-0.00595 0.019667,-0.00595 0.019666,-0.0045 0.019667,-0.00301 0.013587,-0.00148 h 0.015125 l 0.01363,-0.00153 h 0.013587 l -0.089215,0.00301 -0.1784324,0.00899 -0.089253,0.0045 -0.089215,0.00742 -0.087717,0.00742 -0.089214,0.00893 -0.087712,0.011879 -0.087712,0.016351 -0.084712,0.020818 -0.081672,0.026758 -0.077131,0.032697 -0.075629,0.037203 -0.071087,0.041626 -0.068048,0.046093 -0.065047,0.05056 -0.060505,0.055027 -0.059003,0.059493 -0.054418,0.062444 -0.04992,0.065433 -0.048418,0.069899 -0.043838,0.071378 -0.040838,0.074366 -0.036291,0.077317 -0.033292,0.080306 -0.030255,0.081784 -0.025713,0.0833 -0.022713,0.084773 -0.018129,0.086251 -0.01512,0.087724 -0.010587,0.087724 -0.00754,0.08924 -0.00303,0.090712 v 0.08924 l 0.00454,0.090717 0.00754,0.089202 0.012126,0.08924 0.016625,0.089202 0.019666,0.087724 0.024213,0.086251 -0.036291,-0.029742 -0.037796,-0.026758 -0.039338,-0.025285 -0.039338,-0.023807 -0.040838,-0.02233 -0.040837,-0.020808 -0.042339,-0.017824 -0.042339,-0.017862 -0.042339,-0.014869 -0.043841,-0.013401 -0.043837,-0.011884 -0.043875,-0.010407 -0.045379,-0.00893 -0.043841,-0.00742 -0.045379,-0.0045 -0.045378,-0.00301 -0.043841,-0.00301 h -0.045379 l -0.090756,0.00603 -0.045378,0.0045 -0.045335,0.00742 -0.043875,0.00893 -0.045379,0.010407 -0.043841,0.011884 -0.043875,0.013401 -0.042339,0.016346 -0.042339,0.017824 -0.042339,0.019339 -0.042339,0.020818 -0.040837,0.02233 -0.039339,0.023807 -0.033294,0.016346 -0.031748,0.016351 -0.033251,0.014878 -0.069584,0.0268 -0.034792,0.010407 -0.07258,0.020813 -0.03629,0.0089 -0.03629,0.00746 -0.037793,0.00595 -0.03629,0.0045 -0.037793,0.0045 -0.036295,0.00301 -0.037793,0.00148 h -0.069728 l -0.034792,-0.00148 -0.033251,-0.00153 -0.034792,-0.0045 -0.033294,-0.0045 -0.034754,-0.0045 -0.033294,-0.00595 -0.033251,-0.00742 -0.033294,-0.00746 -0.033251,-0.0089 -0.031748,-0.010406 -0.033251,-0.010402 -0.031748,-0.011922 -0.031748,-0.013358 -0.031748,-0.013401 -0.030255,-0.013401 0.019665,0.052036 0.033251,0.1100555 0.013629,0.057977 0.010587,0.05802 0.00754,0.057977 0.00302,0.029747 0.00149,0.028268 0.00154,0.029741 v 0.068423 l -0.00302,0.041626 -0.00302,0.040149 -0.00605,0.041626 -0.00754,0.040149 -0.00754,0.041626 -0.010586,0.040149 -0.010581,0.040149 -0.012084,0.03867 -0.013629,0.040158 -0.015123,0.038676 -0.016625,0.037163 -0.016625,0.037202 -0.018128,0.035686 -0.019665,0.03569 -0.021172,0.034209 -0.028752,0.041626 -0.028752,0.043147 -0.025713,0.043104 -0.022704,0.044619 -0.022675,0.044576 -0.018128,0.046136 -0.018128,0.046093 -0.015123,0.047613 -0.012084,0.046092 -0.012084,0.049086 -0.00758,0.047571 -0.00754,0.047613 -0.00456,0.049086 -0.00149,0.047613 -0.00154,0.049082 0.00154,0.049082 0.00456,0.047609 0.00605,0.047571 0.00758,0.049082 0.00905,0.047614 0.012127,0.047571 0.013586,0.046136 0.016625,0.046098 0.018128,0.046092 0.019665,0.044625 0.02267,0.044619 0.024211,0.043104 0.025713,0.043104 0.028752,0.041631 0.030255,0.040148 0.031748,0.040149 0.034792,0.038676 H 3.0609365 l -0.054461,0.0045 -0.055964,0.00595 -0.054461,0.00742 -0.054423,0.0089 -0.052925,0.011922 -0.054461,0.014878 -0.051418,0.016346 -0.051418,0.017824 -0.051417,0.019339 -0.04992,0.02233 -0.048417,0.023764 -0.046876,0.025285 -0.046919,0.026758 -0.046876,0.029747 -0.043837,0.029741 -0.043881,0.03274 -0.040837,0.032697 -0.040837,0.035685 -0.039339,0.037202 -0.037836,0.038681 -0.03629,0.038681 -0.034797,0.041626 -0.033251,0.043109 -0.031748,0.043146 -0.030255,0.044619 -0.027211,0.046092 -0.025713,0.047571 -0.024211,0.049082 -0.02267,0.049081 -0.019664,0.05056 -0.018128,0.052036 -0.00913,0.035648 -0.00605,0.016346 -0.00909,0.016351 -0.00905,0.014878 -0.010586,0.014878 -0.012127,0.013401 -0.013586,0.011879 -0.013629,0.010407 -0.015123,0.010407 -0.016625,0.00893 -0.016625,0.00742 -0.016625,0.00595 -0.036257,0.00603 -0.019669,0.00148 -0.021167,-0.00148 -0.019669,-0.00301 -0.019669,-0.0045 L 1.5076715,7.691096 1.4895455,7.683676 1.4729185,7.673269 1.4577935,7.66139 1.4426665,7.647989 1.4305425,7.634588 1.4184575,7.618242 1.4078725,7.601886 1.3987925,7.58554 1.3927525,7.566201 1.3882125,7.548377 1.3851725,7.527569 1.3836725,7.506751 v -0.017845 l 0.00304,-0.019339 0.00454,-0.019339 0.00604,-0.017824 0.00754,-0.017824 0.00908,-0.016346 0.010585,-0.016346 0.010584,-0.016346 -0.028751,0.032697 -0.02875,0.034213 -0.02721,0.035686 -0.025709,0.037202 -0.02417,0.037202 -0.022708,0.038681 -0.022669,0.038681 -0.019668,0.040153 -0.019667,0.041626 -0.018167,0.040148 -0.015126,0.043104 -0.015126,0.041626 -0.013625,0.043104 -0.012084,0.043147 -0.00908,0.043109 -0.00908,0.043104 -0.00904,0.08625 -0.00454,0.086251 -0.00154,0.086251 0.00454,0.086251 0.00758,0.084773 0.012085,0.083261 0.016626,0.081783 0.021169,0.081784 0.024209,0.080311 0.02721,0.078833 0.031753,0.077317 0.036294,0.075844 0.039336,0.074366 0.043837,0.072851 0.046879,0.069899 0.04992,0.068427 0.05292,0.066911 0.0575,0.063922 0.060505,0.060966 0.063506,0.059493 0.066545,0.056504 0.069546,0.05351 0.07259,0.05056 0.075629,0.047571 0.078672,0.046136 0.081673,0.041626 0.084712,0.037164 0.086214,0.035687 0.090756,0.031263 0.092253,0.028268 0.093756,0.023764 0.098299,0.020818 -0.037793,0.010407 -0.037835,0.01193 -0.07258,0.02976 -0.03629,0.01782 -0.03629,0.01933 -0.034792,0.01934 -0.034792,0.02229 -0.034787,0.02376 -0.033251,0.02528 -0.033294,0.02528 -0.031753,0.02827 -0.031748,0.02827 -0.030255,0.02974 -0.030255,0.03122 -0.028752,0.03274 -0.027211,0.03421 -0.025713,0.03421 -0.025713,0.03569 -0.02421,0.03716 -0.02267,0.0372 -0.021166,0.03865 -0.021172,0.04016 -0.018167,0.04014 -0.018128,0.04163 -0.015123,0.04162 -0.015123,0.0431 -0.012127,0.0431 -0.010586,0.04458 -0.010582,0.04462 -0.00754,0.04609 -0.00456,0.04461 -0.00754,0.03569 -0.00754,0.03422 -0.00909,0.03274 -0.00905,0.03418 -0.010586,0.03274 -0.012127,0.03274 -0.013629,0.0327 -0.013629,0.03274 -0.015123,0.03126 -0.015123,0.03122 -0.018128,0.03126 -0.016625,0.02975 -0.019665,0.02975 -0.019665,0.02974 -0.019665,0.02827 -0.021172,0.02827 -0.02267,0.02675 -0.022708,0.02676 -0.024168,0.02676 -0.02421,0.02528 -0.025712,0.02376 -0.025709,0.02376 -0.027211,0.02381 -0.02721,0.02229 -0.027212,0.02229 -0.030251,0.02082 -0.028751,0.01933 -0.0605,0.03869 -0.031753,0.01635 -0.031751,0.01634 -0.033253,0.01639 0.034793,0.01041 0.034795,0.01193 0.033252,0.01193 0.033253,0.01335 0.031752,0.01491 0.031753,0.01488 0.031752,0.01634 0.031752,0.01635 0.030252,0.01786 0.030252,0.01934 0.028751,0.01929 0.028751,0.02081 0.028752,0.02081 0.027211,0.02233 0.027211,0.02229 0.025713,0.02376 0.025713,0.02528 0.024211,0.02376 0.024206,0.02676 0.022675,0.02676 0.02267,0.02676 0.021167,0.02675 0.021172,0.02827 0.019664,0.02975 0.018128,0.02974 0.018128,0.02975 0.018128,0.03126 0.015123,0.03122 0.016625,0.03126 0.013625,0.03273 0.01363,0.0327 0.012084,0.03274 0.013625,0.04908 0.016625,0.04908 0.018128,0.04614 0.019665,0.0461 0.02267,0.04462 0.024211,0.04458 0.025713,0.04163 0.027211,0.04016 0.030255,0.04012 0.030255,0.03869 0.033294,0.03716 0.033251,0.03422 0.034787,0.03421 0.037793,0.03274 0.037836,0.03122 0.039339,0.02827 0.040837,0.02827 0.042339,0.02528 0.042339,0.02376 0.043837,0.02233 0.045379,0.02082 0.045379,0.01782 0.046876,0.01639 0.046919,0.01487 0.048378,0.0134 0.04992,0.01041 0.04992,0.0089 0.04992,0.006 0.04992,0.0045 0.051417,0.003 h 0.051418 l 0.05292,-0.003 0.019665,0.01487 -0.034754,0.04613 -0.033294,0.04609 -0.06051,0.09816 -0.025713,0.0506 -0.025713,0.05351 -0.02267,0.05208 -0.019665,0.05502 -0.018128,0.05499 -0.015123,0.05502 -0.01363,0.0565 -0.012084,0.0565 -0.00754,0.05654 -0.00759,0.05798 -0.00302,0.05651 -0.00154,0.05798 0.00154,0.05355 0.00302,0.05355 0.00605,0.05351 0.00754,0.05355 0.010577,0.05355 0.010586,0.05204 0.015123,0.05355 0.015123,0.05204 0.018128,0.05059 0.021166,0.05056 0.021166,0.04908 0.024211,0.04908 0.025713,0.04761 0.027211,0.04609 0.028752,0.04462 0.030255,0.04311 0.013586,0.01487 0.012127,0.01634 0.010587,0.01786 0.00905,0.01782 0.00758,0.01933 0.00456,0.01933 0.00302,0.01934 0.00149,0.02081 -0.00149,0.02081 -0.00302,0.01929 -0.00456,0.01934 -0.00604,0.01786 -0.00909,0.01782 -0.010582,0.01639 -0.012084,0.01487 -0.012127,0.01489 -0.015123,0.01339 -0.015123,0.01041 -0.016625,0.01046 -0.018128,0.0089 -0.018128,0.006 -0.019665,0.006 -0.019665,0.003 h -0.039295 l -0.018166,-0.003 -0.016625,-0.0031 -0.016625,-0.0059 -0.016625,-0.006 -0.030245,-0.01779 -0.015123,-0.01041 -0.012084,-0.01045 -0.012084,-0.01339 -0.012127,-0.0134 -0.00905,-0.0134 -0.00909,-0.01488 -0.00759,-0.01697 -0.00754,-0.01634 -0.00456,-0.01639 0.010581,0.04163 0.010587,0.0431 0.013586,0.04163 0.015123,0.04162 0.016625,0.04162 0.016625,0.04164 0.019665,0.04014 0.021167,0.03868 0.022675,0.03865 0.022675,0.03868 0.051427,0.07433 0.027217,0.03569 0.027212,0.03422 0.028752,0.03274 0.030255,0.03274 0.066545,0.05946 0.068048,0.05502 0.071087,0.05055 0.07259,0.04761 0.074087,0.0431 0.075634,0.04015 0.077131,0.03569 0.078629,0.03274 0.08017,0.02827 0.080175,0.02528 0.083171,0.0208 0.081672,0.01634 0.083171,0.0134 0.084712,0.01041 0.084712,0.006 0.08317,0.0014 0.084716,-0.0014 0.084673,-0.006 0.084712,-0.0089 0.083175,-0.0134 0.084712,-0.01635 0.081673,-0.02081 0.083171,-0.02381 0.080132,-0.02827 0.08017,-0.0327 0.078633,-0.03569 0.078672,-0.03868 0.075628,-0.04458 0.074092,-0.04614 0.07259,-0.05204 0.071086,-0.05355 0.068048,-0.05949 -0.00909,0.04613 -0.00905,0.04458 -0.00605,0.04613 -0.00454,0.04614 -0.00303,0.04458 -0.00151,0.04615 0.00151,0.04458 0.00303,0.04458 0.00454,0.04462 0.00605,0.04458 0.00754,0.04462 0.010583,0.04311 0.010587,0.0431 0.013626,0.04162 0.01512,0.0431 0.016625,0.04162 0.018129,0.04016 0.019667,0.04015 0.021166,0.03865 0.022704,0.03868 0.024204,0.03716 0.025713,0.03716 0.027212,0.03569 0.02875,0.03421 0.030255,0.03422 0.031749,0.03274 0.033297,0.03122 0.034792,0.03126 0.034792,0.02827 0.037796,0.02827 0.039338,0.02528 0.039338,0.02524 0.02875,0.02082 0.027218,0.02229 0.027212,0.02233 0.027213,0.02376 0.024213,0.02376 0.025713,0.02381 0.024208,0.02524 0.022676,0.02677 0.022704,0.02676 0.021166,0.02676 0.021171,0.02827 0.019666,0.02827 0.019667,0.02974 0.018129,0.02827 0.016624,0.03126 0.016625,0.02975 0.01512,0.03126 0.015125,0.03122 0.01363,0.03126 0.012083,0.0327 0.012083,0.03274 0.010579,0.03274 0.010583,0.0327 0.00909,0.03422 0.00754,0.03422 0.00754,0.03421 0.00454,0.03421 0.00605,0.03422 0.00303,0.03421 0.00303,0.03569 0.00146,0.03421 v 0.04608 l 0.021171,-0.02376 0.021171,-0.02228 0.022704,-0.02082 0.022676,-0.02081 0.024204,-0.02081 0.022713,-0.01933 0.025713,-0.01933 0.024213,-0.01782 0.025713,-0.01786 0.027213,-0.01782 0.025713,-0.01639 0.027213,-0.01634 0.027218,-0.01487 0.027213,-0.01488 0.057504,-0.0268 0.057505,-0.02384 0.030255,-0.01041 0.030255,-0.01046 0.02875,-0.0089 0.030255,-0.0089 0.031749,-0.0075 0.030255,-0.0075 0.03175,-0.006 0.030255,-0.0045 0.031749,-0.006 0.031749,-0.003 0.031749,-0.0031 0.095245,-0.0044 0.031749,0.0014 0.034787,0.003 0.033297,0.0031 0.03025,0.0014 0.051418,0.0075 0.051422,0.006 0.051418,0.0045 0.051418,0.0014 h 0.04992 l 0.051417,-0.0031 0.04992,-0.0044 0.048417,-0.0075 0.04992,-0.0089 0.048417,-0.01189 0.046875,-0.01193 0.046875,-0.01487 0.046917,-0.01786 0.04538,-0.01782 0.045332,-0.02081 0.043875,-0.02381 0.042338,-0.02376 0.042338,-0.02528 0.039338,-0.02827 0.039338,-0.02975 0.039338,-0.03122 0.036291,-0.03274 0.034792,-0.03421 0.034791,-0.03569 0.03175,-0.03716 0.031749,-0.03869 0.02875,-0.04016 0.027218,-0.04162 0.027212,-0.04311 0.022671,-0.04458 0.022713,-0.04615 0.021171,-0.04761 0.00146,0.05802 0.00454,0.0565 0.00605,0.05651 0.00909,0.05502 0.012083,0.05502 0.01363,0.05498 0.015125,0.05208 0.018129,0.05355 0.019666,0.05204 0.022676,0.05055 0.024213,0.05059 0.025713,0.04757 0.02875,0.04761 0.030255,0.04761 0.031749,0.04458 0.033249,0.04462 0.036291,0.0431 0.036296,0.04162 0.037834,0.03865 0.040838,0.03868 0.042338,0.03716 0.042338,0.03569 0.090756,0.06549 0.046875,0.02975 0.048417,0.02827 0.049919,0.02528 0.051418,0.02524 0.051418,0.02233 0.052915,0.0193 0.054462,0.01933 0.05442,0.01487 0.01966,0.0031 0.01813,0.0044 0.01813,0.006 0.01813,0.0075 0.01512,0.0089 0.01663,0.01041 0.01363,0.01193 0.01363,0.01187 0.01208,0.01491 0.01059,0.01487 0.0091,0.01634 0.0076,0.01635 0.0076,0.01786 0.0045,0.01933 0.0031,0.01782 v 0.04015 l -0.0091,0.03868 -0.006,0.01782 -0.0091,0.01786 -0.01058,0.01635 -0.01208,0.01634 -0.01213,0.0134 -0.01512,0.0134 -0.01512,0.01193 -0.01662,0.0089 -0.01813,0.0089 -0.01813,0.006 -0.01968,0.006 -0.01967,0.0031 -0.02117,0.0014 -0.01813,-0.0014 -0.01816,-0.0031 -0.01813,-0.003 -0.033249,-0.01189 -0.016625,-0.0075 -0.01512,-0.0089 -0.015125,-0.01046 0.07258,0.05351 0.037835,0.02528 0.03783,0.02229 0.03934,0.02376 0.04084,0.02082 0.04084,0.01933 0.04084,0.01782 0.04234,0.01787 0.04234,0.01487 0.04234,0.01487 0.04388,0.01193 0.04384,0.01041 0.04388,0.0089 0.04384,0.0075 0.04384,0.006 0.08771,0.0044 0.08925,0.0015 0.08771,-0.0045 0.08622,-0.0075 0.08472,-0.0134 0.08471,-0.01487 0.08318,-0.02081 0.08167,-0.02381 0.08017,-0.02672 0.07863,-0.03126 0.07713,-0.03421 0.07563,-0.03716 0.07409,-0.04162 0.07109,-0.04462 0.06955,-0.04757 0.06654,-0.05059 0.06351,-0.05351 0.06351,-0.05651 0.059,-0.05949 0.05596,-0.06245 0.05442,-0.06393 0.05142,-0.06843 0.04837,-0.0699 0.04538,-0.07137 0.04084,-0.07437 0.03933,-0.07731 0.03479,-0.07879 0.03026,-0.0803 0.02876,-0.0833 0.02271,-0.0833 0.01966,-0.08626 0.01663,-0.08924 0.01059,0.04613 0.01363,0.04458 0.01363,0.04315 0.01662,0.0431 0.01817,0.04162 0.01813,0.04162 0.02117,0.04012 0.0227,0.03869 0.02417,0.03865 0.02571,0.0372 0.02567,0.03569 0.02875,0.03569 0.0303,0.03421 0.03026,0.03274 0.03175,0.03122 0.03329,0.02975 0.03479,0.02979 0.03479,0.02672 0.0378,0.02676 0.03633,0.02381 0.0393,0.02376 0.03932,0.02229 0.0408,0.02081 0.04084,0.01786 0.04234,0.01782 0.04384,0.01491 0.04388,0.01487 0.04384,0.01189 0.04533,0.01046 0.04538,0.0089 0.04687,0.0075 0.04692,0.006 0.03479,0.006 0.03629,0.0075 0.0333,0.0089 0.03479,0.01046 0.03325,0.01041 0.03479,0.01193 0.0333,0.01193 0.0318,0.0134 0.03325,0.01487 0.03179,0.01487 0.03026,0.01782 0.03175,0.01638 0.0303,0.01782 0.0575,0.03868 0.02876,0.02081 0.02875,0.02229 0.02721,0.02229 0.02567,0.02229 0.02571,0.02381 0.02571,0.02524 0.02416,0.02528 0.02421,0.02528 0.02267,0.02676 0.02117,0.02672 0.04234,0.05653 0.01966,0.02979 0.01813,0.02975 0.01816,0.03122 0.01663,0.02979 0.01512,0.0327 0.01063,-0.03418 0.01058,-0.03421 0.01213,-0.03274 0.01363,-0.03274 0.01512,-0.0327 0.01512,-0.03274 0.01512,-0.03126 0.01816,-0.02974 0.01663,-0.03122 0.01966,-0.02979 0.01967,-0.02827 0.04233,-0.05654 0.02267,-0.02676 0.02267,-0.02672 0.02421,-0.02528 0.02417,-0.02528 0.02571,-0.02524 0.02568,-0.02381 0.05443,-0.04458 0.02875,-0.02081 0.02876,-0.02081 0.02876,-0.01933 0.03029,-0.01782 0.03026,-0.01786 0.03175,-0.01786 0.03179,-0.01634 0.03175,-0.01487 0.06659,-0.0268 0.03479,-0.01193 0.04992,-0.01488 0.04841,-0.01635 0.04687,-0.01786 0.04692,-0.02081 0.04533,-0.02229 0.04384,-0.02376 0.04234,-0.02528 0.04234,-0.02827 0.03933,-0.02827 0.03933,-0.03122 0.07258,-0.06548 0.03329,-0.03569 0.03325,-0.03569 0.03029,-0.03868 0.03026,-0.03865 0.02721,-0.04016 0.02567,-0.04163 0.02421,-0.04162 0.02267,-0.0431 0.01966,-0.04458 0.01813,-0.04462 0.01666,-0.04609 0.01512,-0.04761 0.01213,-0.04761 0.01058,-0.04761 0.0091,-0.04908 0.006,-0.05056 0.0045,-0.04908 0.0014,-0.05055 v -0.05059 l -0.0031,-0.05204 0.02267,0.04458 0.02267,0.04163 0.02571,0.04162 0.02721,0.04016 0.02718,0.03869 0.0303,0.03865 0.03026,0.03569 0.03175,0.03569 0.03329,0.03569 0.03479,0.03274 0.03629,0.03274 0.03629,0.03122 0.03783,0.02979 0.03779,0.02827 0.04084,0.02672 0.0393,0.02528 0.04234,0.02381 0.04234,0.02376 0.04234,0.02082 0.04388,0.02081 0.04533,0.01782 0.04533,0.01786 0.04538,0.01488 0.04687,0.01487 0.09384,0.02384 0.04842,0.0089 0.04837,0.0075 0.04841,0.006 0.04841,0.0045 0.04993,0.003 h 0.08021 l 0.03175,-0.0014 0.03329,-0.0014 0.03175,-0.0031 0.0318,-0.003 0.03175,-0.0045 0.0318,-0.003 0.02875,-0.0045 0.01813,-0.0045 0.01966,-0.0044 0.01817,-0.0031 0.01966,-0.0014 0.01962,0.0014 0.02117,0.0031 0.01966,0.0044 0.01817,0.0075 0.01813,0.0089 0.01666,0.0089 0.01512,0.01193 0.01512,0.0134 0.01213,0.01335 0.01208,0.01638 0.01063,0.01636 0.0076,0.01638 0.0076,0.0193 0.0045,0.01933 0.0031,0.01933 0.0014,0.02081 -0.0014,0.01934 -0.0031,0.01929 -0.0045,0.01933 -0.006,0.01786 -0.0076,0.01634 -0.01058,0.01635 -0.01063,0.01487 -0.01363,0.0134 -0.01362,0.01193 -0.01512,0.01045 -0.01663,0.01041 -0.01666,0.0075 -0.01813,0.006 -0.01966,0.0045 -0.01966,0.003 -0.02117,0.0014 h -0.05901 l 0.04534,-0.0014 h 0.04538 l 0.04533,0.0014 0.04692,0.0015 0.09225,0.003 0.09376,0.003 h 0.09071 l 0.04384,-0.0014 0.04384,-0.003 0.04234,-0.0045 0.04234,-0.006 0.03933,-0.0075 0.0393,-0.01041 0.08472,-0.02827 0.08167,-0.03126 0.07863,-0.03716 0.07563,-0.04016 0.07259,-0.04311 0.07109,-0.04908 0.06658,-0.05056 0.06351,-0.05502 0.06197,-0.05802 0.0575,-0.06094 0.05442,-0.06245 0.05142,-0.06695 0.04841,-0.06844 0.04388,-0.07137 0.0408,-0.07437 0.03783,-0.07433 0.03479,-0.07731 0.03026,-0.0803 0.02722,-0.08027 0.02416,-0.08178 0.01967,-0.0833 0.01512,-0.08477 0.01213,-0.08477 0.0091,-0.08628 0.0045,-0.08626 v -0.08776 l -0.0031,-0.08773 -0.0076,-0.08777 -0.01208,-0.08773 -0.01517,-0.08628 -0.02117,-0.08773 -0.02417,-0.08628 0.03779,0.02979 0.03783,0.02672 0.0393,0.02528 0.03934,0.02381 0.04084,0.02229 0.0408,0.02081 0.04234,0.01782 0.04234,0.01786 0.04234,0.01487 0.04388,0.0134 0.04384,0.01193 0.04384,0.01041 0.04384,0.0089 0.04538,0.0075 0.04384,0.0045 0.04533,0.0031 0.04538,0.003 h 0.04533 l 0.04533,-0.003 0.04538,-0.0031 0.04533,-0.0045 0.04388,-0.0075 0.04534,-0.0089 0.04384,-0.01041 0.04384,-0.01193 0.04388,-0.0134 0.04384,-0.01635 0.04234,-0.01786 0.04234,-0.01933 0.04234,-0.02081 0.04084,-0.02229 0.0393,-0.02376 0.03179,-0.01639 0.03325,-0.01634 0.03329,-0.01487 0.06958,-0.0268 0.03479,-0.01041 0.03629,-0.01193 0.07259,-0.01779 0.03629,-0.0075 0.03629,-0.006 0.03783,-0.0044 0.03629,-0.0045 0.03779,-0.003 0.03633,-0.0015 0.03779,-0.0014 0.03329,0.0014 0.03476,0.0015 0.03329,0.0014 0.03479,0.0045 0.03329,0.0044 0.03325,0.0045 0.03479,0.006 0.06659,0.01484 0.03175,0.0089 0.03329,0.01046 0.0318,0.01041 0.03325,0.01193 0.0318,0.0134 0.03026,0.0134 0.03179,0.01335 -0.01966,-0.05204 -0.01816,-0.05502 -0.01512,-0.05502 -0.01363,-0.05798 -0.01059,-0.05798 -0.0076,-0.05802 -0.0031,-0.02975 -0.0014,-0.02827 -0.0014,-0.02974 -0.0014,-0.02827 0.0014,-0.04014 0.0031,-0.04163 0.0031,-0.04016 0.006,-0.04162 0.006,-0.04012 0.0091,-0.04162 0.0091,-0.04016 0.01213,-0.04015 0.01208,-0.04016 0.01363,-0.03865 0.01512,-0.03869 0.01666,-0.03716 0.01663,-0.03717 0.01817,-0.0372 0.01962,-0.03421 0.01967,-0.03421 0.03026,-0.04162 0.02875,-0.0431 0.02571,-0.04311 0.02267,-0.04458 0.02117,-0.04462 0.01966,-0.04609 0.01817,-0.04615 0.01512,-0.04761 0.01213,-0.04761 0.01059,-0.04757 0.0091,-0.04761 0.0076,-0.04761 0.0045,-0.04908 0.0014,-0.04761 0.0014,-0.04908 -0.0014,-0.04908 -0.0045,-0.04761 -0.006,-0.04761 -0.0076,-0.04908 -0.0091,-0.04757 -0.01208,-0.04614 -0.01512,-0.04761 -0.01517,-0.04609 -0.01813,-0.04615 -0.01966,-0.04458 -0.02267,-0.04462 -0.02421,-0.0431 -0.02567,-0.0431 -0.02876,-0.04163 -0.03029,-0.04016 -0.03175,-0.03867 -0.03479,-0.03865 h 0.056 l 0.05596,-0.0014 0.05596,-0.0031 0.05596,-0.006 0.05442,-0.0075 0.05446,-0.01041 0.05296,-0.01193 0.05292,-0.01339 0.05297,-0.01634 0.05142,-0.01786 0.04992,-0.01929 0.04992,-0.02233 0.04991,-0.02376 0.04692,-0.02528 0.04687,-0.02672 0.04538,-0.02979 0.04533,-0.02974 0.04234,-0.03274 0.04234,-0.03422 0.04084,-0.03418 0.03932,-0.0372 0.03779,-0.03865 0.03629,-0.04016 0.03479,-0.04016 0.03329,-0.0431 0.03175,-0.0431 0.02876,-0.04615 0.02876,-0.04609 0.02571,-0.04761 0.02417,-0.04761 0.0227,-0.05056 0.01962,-0.0506 0.01816,-0.05204 0.0031,-0.01786 0.006,-0.01782 0.006,-0.01635 0.0091,-0.01638 0.0091,-0.01487 0.01058,-0.01488 0.01213,-0.0134 0.01363,-0.01193 0.01363,-0.01041 0.01512,-0.01045 0.01512,-0.0089 0.01663,-0.0075 0.01816,-0.006 0.01813,-0.0045 0.01816,-0.0014 0.01966,-0.0014 0.01967,0.0014 0.02117,0.0031 0.01964,0.0044 0.01816,0.0075 0.01813,0.0075 0.01666,0.01045 0.01512,0.01193 0.01512,0.0134 0.01213,0.01335 0.01213,0.01491 0.01058,0.01635 0.0076,0.01786 0.0076,0.0193 0.0045,0.01786 0.0031,0.02081 0.0015,0.01934 -0.0015,0.0193 -0.0014,0.01934 -0.0045,0.01933 -0.006,0.01782 -0.0076,0.01786 -0.0091,0.01635 -0.01058,0.01638 -0.01213,0.01635 0.03026,-0.03274 0.02875,-0.03422 0.02721,-0.03418 0.02571,-0.0372 0.02416,-0.03716 0.02267,-0.03867 0.0227,-0.03865 0.01963,-0.04016 0.01966,-0.04162 0.01666,-0.04163 0.01663,-0.04164 0.01512,-0.04162 0.01363,-0.0431 0.01212,-0.0431 0.0091,-0.0431 0.0091,-0.04315 0.0091,-0.08773 0.0045,-0.08626 0.0014,-0.08628 -0.0045,-0.08477 -0.0076,-0.08477 -0.01213,-0.08477 -0.01662,-0.08179 -0.01967,-0.08178 -0.0242,-0.08027 -0.02875,-0.07879 -0.03175,-0.07735 -0.03629,-0.0758 -0.03934,-0.07436 -0.04384,-0.07289 -0.04533,-0.0699 -0.05146,-0.0684 -0.05292,-0.06695 -0.05746,-0.06393 -0.0605,-0.06096 -0.06351,-0.05946 -0.06655,-0.05654 -0.06959,-0.05351 -0.07259,-0.05056 -0.07563,-0.04908 -0.07863,-0.04462 -0.08167,-0.04163 -0.08471,-0.03865 -0.08772,-0.03422 -0.08925,-0.03126 -0.09225,-0.02827 -0.09526,-0.02528 -0.0968,-0.01934 0.03779,-0.010407 0.03629,-0.013401 0.03783,-0.013401 0.03629,-0.014878 0.03629,-0.017824 0.03479,-0.019339 0.03629,-0.019339 0.03479,-0.022286 0.03329,-0.023807 0.03479,-0.023807 0.03175,-0.026758 0.03329,-0.028268 0.03026,-0.028268 0.03026,-0.029747 0.03029,-0.03122 0.02875,-0.032697 0.02721,-0.034213 0.02718,-0.034209 0.02421,-0.035687 0.02416,-0.037203 0.02421,-0.037164 0.02117,-0.038676 0.01967,-0.040149 0.01962,-0.040148 0.01666,-0.041626 0.01663,-0.041631 0.01363,-0.043147 0.01363,-0.044581 0.01058,-0.044619 0.01063,-0.044625 0.0076,-0.046098 0.0045,-0.046092 0.0076,-0.034209 0.0076,-0.034218 0.0091,-0.034213 0.0091,-0.034209 0.02426,-0.065394 0.01208,-0.03274 0.01517,-0.032697 0.01363,-0.03122 0.01662,-0.03122 0.01663,-0.029742 0.01816,-0.03122 0.01813,-0.029742 0.01966,-0.028268 0.04233,-0.056538 0.02267,-0.026758 0.0227,-0.026758 0.02267,-0.026757 0.02566,-0.025285 0.02421,-0.023807 0.02722,-0.023763 0.02567,-0.023807 0.02875,-0.02233 0.02721,-0.020818 0.02876,-0.020818 0.03029,-0.020812 0.03026,-0.017862 0.03026,-0.019339 0.0318,-0.016351 0.03175,-0.016346 0.0318,-0.016346 -0.03329,-0.010406 -0.03479,-0.011922 -0.03329,-0.011879 -0.03325,-0.013401 -0.03179,-0.014878 -0.03329,-0.014878 -0.03026,-0.016356 -0.03175,-0.016346 -0.0303,-0.017824 -0.03026,-0.019339 -0.02876,-0.019339 -0.02876,-0.020818 -0.02876,-0.020808 -0.02721,-0.022286 -0.02722,-0.02233 -0.02567,-0.023764 -0.02571,-0.025284 -0.02421,-0.025285 -0.02416,-0.025284 -0.02417,-0.026758 -0.02117,-0.026757 -0.02271,-0.028268 -0.01963,-0.028268 -0.01966,-0.028268 -0.01966,-0.029747 -0.01817,-0.029741 -0.03325,-0.062438 -0.01512,-0.03122 -0.01517,-0.032697 -0.01208,-0.032697 -0.01363,-0.03274 -0.01363,-0.05056 -0.01663,-0.047613 -0.01816,-0.047609 -0.01967,-0.044586 -0.02267,-0.044619 -0.02417,-0.044619 -0.02571,-0.041626 -0.02721,-0.041626 -0.03026,-0.038681 -0.03029,-0.038681 -0.03325,-0.037203 -0.03329,-0.035685 -0.03629,-0.032697 -0.03629,-0.03274 -0.03783,-0.03122 -0.0393,-0.028268 -0.04084,-0.028268 -0.04234,-0.025284 -0.04234,-0.023807 -0.04384,-0.022287 -0.04538,-0.020818 -0.04533,-0.017824 -0.04692,-0.017862 -0.04838,-0.013358 -0.04841,-0.013401 -0.04841,-0.010407 -0.04992,-0.00893 -0.04991,-0.00595 -0.05146,-0.0045 -0.05142,-0.00301 h -0.05139 l -0.05154,0.00364 z" stroke="#000" stroke-linejoin="round" style="stroke:#000;fill:none;stroke-width:2;stroke-miterlimit:4;stroke-dasharray:none"/>
 <path d="m 21.800931,6.5499359 -0.01966,-0.016351 0.03479,-0.044619 0.03325,-0.046092 0.0318,-0.049082 0.02875,-0.049082 0.02571,-0.052071 0.02567,-0.052037 0.02117,-0.052037 0.02117,-0.055027 0.01816,-0.055027 0.01512,-0.055027 0.01363,-0.056504 0.01059,-0.056504 0.0091,-0.056504 0.006,-0.058015 0.0045,-0.057977 0.0014,-0.056542 -0.0014,-0.05351 -0.0031,-0.053515 -0.006,-0.053548 -0.0076,-0.053514 -0.01063,-0.053515 -0.01208,-0.052037 -0.01363,-0.053548 -0.01666,-0.052037 -0.01813,-0.05056 -0.01966,-0.050559 -0.02117,-0.049082 -0.02416,-0.049082 -0.02571,-0.047571 -0.02721,-0.046098 -0.02876,-0.044619 -0.03026,-0.043147 -0.01362,-0.014878 -0.01213,-0.016351 -0.01059,-0.017824 -0.0091,-0.017824 -0.0076,-0.019339 -0.0045,-0.019335 -0.0045,-0.019339 v -0.04163 l 0.0031,-0.019339 0.006,-0.019339 0.006,-0.017862 0.0091,-0.017824 0.01063,-0.016351 0.01059,-0.014878 0.01363,-0.014878 0.01512,-0.013401 0.01517,-0.010407 0.01662,-0.010407 0.01817,-0.0089 0.01813,-0.00595 0.01966,-0.00594 0.01966,-0.00301 h 0.0393 l 0.01816,0.00301 0.01663,0.00301 0.01666,0.00595 0.01662,0.00595 0.03025,0.017869 0.01512,0.010407 0.01213,0.011879 0.01213,0.011884 0.01208,0.013401 0.0091,0.014878 0.0091,0.016346 0.0076,0.014878 0.006,0.017862 0.006,0.016356 -0.01063,-0.041626 -0.01059,-0.043104 -0.01363,-0.041626 -0.01512,-0.041626 -0.01666,-0.041626 -0.01813,-0.041626 -0.03932,-0.080296 -0.04534,-0.077361 -0.02571,-0.038681 -0.02567,-0.035687 -0.02721,-0.03569 -0.02722,-0.035686 -0.02876,-0.032697 -0.03029,-0.03274 -0.06655,-0.059455 -0.06809,-0.053549 -0.07108,-0.052037 -0.07259,-0.047571 -0.07409,-0.043147 -0.07563,-0.040148 -0.07713,-0.035686 -0.07863,-0.03274 -0.08013,-0.028268 -0.08167,-0.023807 -0.08167,-0.020808 -0.08313,-0.017824 -0.08318,-0.013401 -0.08318,-0.0089 -0.08472,-0.00595 -0.08471,-0.00301 -0.08472,0.00153 -0.08472,0.00595 -0.08317,0.00893 -0.08472,0.013401 -0.08314,0.017824 -0.08318,0.019339 -0.08167,0.025285 -0.08163,0.028268 -0.08017,0.03122 -0.07863,0.035686 -0.07713,0.040158 -0.07559,0.043142 -0.07563,0.047571 -0.07259,0.050559 -0.07109,0.055027 -0.06809,0.057977 0.01058,-0.046098 0.0076,-0.044619 0.0076,-0.046092 0.0045,-0.044625 0.0031,-0.046093 v -0.090717 l -0.0031,-0.044619 -0.0045,-0.044619 -0.006,-0.044581 -0.0091,-0.044619 -0.0091,-0.043147 -0.01213,-0.043109 -0.01208,-0.041626 -0.01512,-0.043104 -0.01666,-0.041626 -0.01813,-0.040149 -0.01966,-0.040149 -0.02117,-0.038681 -0.02267,-0.038681 -0.02421,-0.037202 -0.02567,-0.037203 -0.02722,-0.035686 -0.02876,-0.035685 -0.03029,-0.032697 -0.03175,-0.03274 -0.0333,-0.03122 -0.03479,-0.03122 -0.07259,-0.056536 -0.03934,-0.026758 -0.0393,-0.023764 -0.02875,-0.020818 -0.02721,-0.02233 -0.02722,-0.022287 -0.02721,-0.023807 -0.02567,-0.023807 -0.02421,-0.02528 -0.02416,-0.025284 -0.02271,-0.02528 -0.02267,-0.026758 -0.02117,-0.026758 -0.02117,-0.028268 -0.01962,-0.028268 -0.01966,-0.029747 -0.01817,-0.029741 -0.01663,-0.029747 -0.01666,-0.029741 -0.01663,-0.031225 -0.01363,-0.03122 -0.01363,-0.031225 -0.01363,-0.032697 -0.01058,-0.03274 -0.01212,-0.032697 -0.0091,-0.032697 -0.0091,-0.034213 -0.0076,-0.034213 -0.0076,-0.034209 -0.006,-0.034213 -0.0045,-0.034218 -0.0031,-0.034175 -0.0031,-0.035686 -0.0014,-0.034175 v -0.047728 l -0.02117,0.022287 -0.02117,0.02233 -0.02267,0.022287 -0.02271,0.020818 -0.02416,0.020818 -0.02417,0.019339 -0.02421,0.019339 -0.02571,0.019339 -0.02567,0.017824 -0.02571,0.016346 -0.02567,0.017862 -0.05442,0.029757 -0.02876,0.014878 -0.02721,0.014878 -0.02876,0.011884 -0.02876,0.013401 -0.0303,0.010402 -0.02876,0.011884 -0.03026,0.00893 -0.03026,0.010407 -0.03026,0.0089 -0.03029,0.00742 -0.03026,0.00595 -0.03175,0.00742 -0.03028,0.0045 -0.03175,0.0045 -0.03179,0.0045 -0.03175,0.00301 -0.03179,0.00153 -0.03175,0.00148 -0.0318,0.00148 -0.03325,-0.00148 -0.06659,-0.00603 -0.03175,-0.00148 -0.05145,-0.00893 -0.04992,-0.00594 -0.05143,-0.00301 -0.05142,-0.00153 h -0.04992 l -0.05146,0.00301 -0.04992,0.0045 -0.04992,0.00742 -0.04841,0.00893 -0.04837,0.010407 -0.04841,0.013401 -0.04692,0.014878 -0.04533,0.017824 -0.04538,0.017824 -0.04533,0.020818 -0.04384,0.02233 -0.04234,0.025285 -0.04234,0.02528 -0.04084,0.028268 -0.03934,0.029742 -0.03779,0.03122 -0.03629,0.032697 -0.03629,0.034218 -0.03329,0.035686 -0.03179,0.037203 -0.03175,0.038671 -0.02876,0.040157 -0.02875,0.041626 -0.02571,0.043142 -0.02416,0.044581 -0.02117,0.046136 -0.02117,0.047571 -0.0014,-0.057977 -0.0045,-0.056504 -0.006,-0.056542 -0.0091,-0.055027 -0.01213,-0.055027 -0.01363,-0.055027 -0.01512,-0.053515 -0.01816,-0.052037 -0.02117,-0.052036 -0.02117,-0.05056 -0.02416,-0.050559 -0.02721,-0.047613 -0.02721,-0.049086 -0.03026,-0.046098 -0.03175,-0.044619 -0.03329,-0.044625 -0.03629,-0.043104 -0.03629,-0.041626 -0.03933,-0.038681 -0.03933,-0.038676 -0.04234,-0.037203 -0.04234,-0.035686 -0.04533,-0.032697 -0.04533,-0.03274 -0.04692,-0.029747 -0.04841,-0.028268 -0.04992,-0.02528 -0.05142,-0.025285 -0.05145,-0.022286 -0.05292,-0.019339 -0.05446,-0.017824 -0.05596,-0.016351 -0.01813,-0.00153 -0.01967,-0.0045 -0.01662,-0.00595 -0.01817,-0.00742 -0.01663,-0.00893 -0.01512,-0.010407 -0.01362,-0.011879 -0.01363,-0.013401 -0.01213,-0.013401 -0.01063,-0.014878 -0.0091,-0.016346 -0.0091,-0.017824 -0.006,-0.016346 -0.0045,-0.019339 -0.0031,-0.017824 v -0.040064 l 0.0031,-0.019339 0.01205,-0.03868 0.0091,-0.016346 0.01063,-0.016356 0.01059,-0.016346 0.01363,-0.013401 0.01512,-0.013401 0.01517,-0.011879 0.01663,-0.00893 0.01816,-0.00889 0.01813,-0.00746 0.01966,-0.0045 0.01967,-0.00301 0.02117,-0.00148 0.01813,0.00148 0.01817,0.00153 0.01663,0.00449 0.01816,0.00595 0.01663,0.00595 0.01662,0.00742 0.01517,0.00893 0.01512,0.00893 -0.03629,-0.026757 -0.03633,-0.026758 -0.03779,-0.023807 -0.03779,-0.023764 -0.03933,-0.022329 -0.04084,-0.022286 -0.0408,-0.01934 -0.04084,-0.017824 -0.04234,-0.017824 -0.04234,-0.014878 -0.04384,-0.014868 -0.04234,-0.011923 -0.04388,-0.010407 -0.04384,-0.00893 -0.04384,-0.00742 -0.04384,-0.00595 -0.08925,-0.00449 h -0.08764 l -0.08776,0.00301 -0.08622,0.00893 -0.08622,0.01188 -0.08318,0.014878 -0.08318,0.020817 -0.08164,0.023807 -0.08167,0.026758 -0.07863,0.031219 -0.07713,0.034218 -0.07409,0.038676 -0.07413,0.040158 -0.07109,0.044619 -0.06958,0.047613 -0.06655,0.05056 -0.065,0.053548 -0.06201,0.057982 -0.05896,0.058015 -0.0575,0.062443 -0.05292,0.065433 -0.05142,0.066949 -0.04841,0.069899 -0.04538,0.071378 -0.0408,0.074366 -0.03932,0.077317 -0.03479,0.078795 -0.03175,0.080307 -0.02721,0.083295 -0.02421,0.0833 -0.01966,0.08625 -0.01512,0.089202 -0.01208,-0.046093 -0.01213,-0.04462 -0.01512,-0.043104 -0.01512,-0.043109 -0.01816,-0.043147 -0.01966,-0.040153 -0.02117,-0.040149 -0.02271,-0.040153 -0.02267,-0.037202 -0.02571,-0.037202 -0.02721,-0.037164 -0.02875,-0.034209 -0.02876,-0.034213 -0.03026,-0.032697 -0.03175,-0.03122 -0.03325,-0.03122 -0.03479,-0.028268 -0.03629,-0.028268 -0.03629,-0.025284 -0.0363,-0.025285 -0.03932,-0.023807 -0.03934,-0.020818 -0.04084,-0.020812 -0.04084,-0.019339 -0.04234,-0.017824 -0.04234,-0.014878 -0.04388,-0.014878 -0.04384,-0.011884 -0.04538,-0.010407 -0.04538,-0.00893 -0.04687,-0.00742 -0.04687,-0.00595 -0.03479,-0.00595 -0.06958,-0.014835 -0.03325,-0.010445 -0.03479,-0.010407 -0.0333,-0.010449 -0.03325,-0.013358 -0.03175,-0.013401 -0.03325,-0.014878 -0.03175,-0.014878 -0.03175,-0.016346 -0.03026,-0.017862 -0.03026,-0.017824 -0.03026,-0.019339 -0.02876,-0.019339 -0.02874,-0.020818 -0.02876,-0.022287 -0.02721,-0.022286 -0.02571,-0.023807 -0.02721,-0.023807 -0.02421,-0.023807 -0.02571,-0.026758 -0.02271,-0.025284 -0.0242,-0.026758 -0.02117,-0.028268 -0.04233,-0.056537 -0.01967,-0.029742 -0.01813,-0.029746 -0.01813,-0.031219 -0.01663,-0.031219 -0.01512,-0.031219 -0.01058,0.034218 -0.01212,0.03274 -0.01208,0.032697 -0.01212,0.032697 -0.01512,0.03274 -0.01512,0.032697 -0.01512,0.03122 -0.01813,0.029747 -0.01813,0.03122 -0.01813,0.029747 -0.01966,0.028268 -0.02117,0.029742 -0.02117,0.026758 -0.02268,0.028268 -0.02267,0.026758 -0.02421,0.02528 -0.02421,0.025284 -0.02571,0.02528 -0.02571,0.023763 -0.02721,0.02233 -0.02721,0.022287 -0.02875,0.020818 -0.02875,0.020808 -0.02875,0.020818 -0.03026,0.017824 -0.03026,0.017862 -0.03175,0.017833 -0.031749,0.016346 -0.031749,0.014878 -0.033249,0.013358 -0.033249,0.013401 -0.033297,0.011922 -0.049919,0.014878 -0.04992,0.016351 -0.046875,0.019339 -0.046917,0.019339 -0.045332,0.022287 -0.043875,0.02528 -0.042338,0.02528 -0.042338,0.026758 -0.039328,0.029742 -0.039338,0.03122 -0.036291,0.03122 -0.036296,0.034208 -0.066502,0.071373 -0.06051,0.077359 -0.027213,0.040148 -0.025713,0.041626 -0.024171,0.041626 -0.022704,0.043109 -0.019666,0.044625 -0.019662,0.046093 -0.016625,0.046093 -0.013625,0.047609 -0.013587,0.047571 -0.010583,0.047614 -0.00758,0.049086 -0.00605,0.05056 -0.00454,0.049082 -0.00146,0.05056 v 0.052036 l 0.00303,0.050559 -0.022704,-0.043104 -0.024103,-0.041637 -0.024213,-0.041626 -0.027218,-0.040149 -0.02875,-0.038671 -0.02875,-0.037202 -0.030255,-0.037202 -0.033249,-0.035686 -0.033297,-0.035686 -0.033249,-0.03274 -0.036291,-0.032697 -0.036296,-0.03122 -0.037791,-0.029747 -0.039338,-0.028268 -0.039328,-0.026758 -0.040838,-0.026758 -0.040838,-0.023807 -0.042338,-0.023764 -0.043842,-0.020808 -0.043875,-0.020818 -0.043842,-0.019339 -0.04538,-0.016356 -0.04538,-0.016346 -0.093751,-0.0268 -0.046875,-0.010407 -0.048417,-0.010407 -0.048417,-0.00742 -0.048417,-0.00595 -0.048379,-0.0045 -0.04992,-0.00301 h -0.080175 l -0.031749,0.00148 -0.033297,0.00153 -0.063496,0.00603 -0.031749,0.0045 -0.031749,0.00301 -0.02875,0.0045 -0.018129,0.00595 -0.019666,0.0045 -0.018129,0.00301 -0.019666,0.00148 -0.021167,-0.00148 -0.019666,-0.00301 -0.019667,-0.00595 -0.018129,-0.00594 -0.018129,-0.00893 -0.016624,-0.00893 -0.015125,-0.011884 -0.01512,-0.013401 -0.012083,-0.013358 -0.012126,-0.016356 -0.010584,-0.016346 -0.00905,-0.017824 -0.00605,-0.017824 -0.00454,-0.019339 -0.00303,-0.019339 -0.00146,-0.020813 0.00146,-0.019339 0.00303,-0.019339 0.00454,-0.017824 0.00605,-0.017824 0.00905,-0.016346 0.010584,-0.014878 0.010587,-0.013358 0.01363,-0.013401 0.030245,-0.020812 0.016624,-0.010406 0.018129,-0.00742 0.018129,-0.00595 0.019667,-0.00595 0.019666,-0.0045 0.019667,-0.00301 0.013587,-0.00148 h 0.015125 l 0.01363,-0.00153 h 0.013587 l -0.089215,0.00301 -0.1784324,0.00899 -0.089253,0.0045 -0.089215,0.00742 -0.087717,0.00742 -0.089214,0.00893 -0.087712,0.011879 -0.087712,0.016351 -0.084712,0.020818 -0.081672,0.026758 -0.077131,0.032697 -0.075629,0.037203 -0.071087,0.041626 -0.068048,0.046093 -0.065047,0.05056 -0.060505,0.055027 -0.059003,0.059493 -0.054418,0.062444 -0.04992,0.065433 -0.048418,0.069899 -0.043838,0.071378 -0.040838,0.074366 -0.036291,0.077317 -0.033292,0.080306 -0.030255,0.081784 -0.025713,0.0833 -0.022713,0.084773 -0.018129,0.086251 -0.01512,0.087724 -0.010587,0.087724 -0.00754,0.08924 -0.00303,0.090712 v 0.08924 l 0.00454,0.090717 0.00754,0.089202 0.012126,0.08924 0.016625,0.089202 0.019666,0.087724 0.024213,0.086251 -0.036291,-0.029742 -0.037796,-0.026758 -0.039338,-0.025285 -0.039338,-0.023807 -0.040838,-0.02233 -0.040837,-0.020808 -0.042339,-0.017824 -0.042339,-0.017862 -0.042339,-0.014869 -0.043841,-0.013401 -0.043837,-0.011884 -0.043875,-0.010407 -0.045379,-0.00893 -0.043841,-0.00742 -0.045379,-0.0045 -0.045378,-0.00301 -0.043841,-0.00301 h -0.045379 l -0.090756,0.00603 -0.045378,0.0045 -0.045335,0.00742 -0.043875,0.00893 -0.045379,0.010407 -0.043841,0.011884 -0.043875,0.013401 -0.042339,0.016346 -0.042339,0.017824 -0.042339,0.019339 -0.042339,0.020818 -0.040837,0.02233 -0.039339,0.023807 -0.033294,0.016346 -0.031748,0.016351 -0.033251,0.014878 -0.069584,0.0268 -0.034792,0.010407 -0.07258,0.020813 -0.03629,0.0089 -0.03629,0.00746 -0.037793,0.00595 -0.03629,0.0045 -0.037793,0.0045 -0.036295,0.00301 -0.037793,0.00148 h -0.069728 l -0.034792,-0.00148 -0.033251,-0.00153 -0.034792,-0.0045 -0.033294,-0.0045 -0.034754,-0.0045 -0.033294,-0.00595 -0.033251,-0.00742 -0.033294,-0.00746 -0.033251,-0.0089 -0.031748,-0.010406 -0.033251,-0.010402 -0.031748,-0.011922 -0.031748,-0.013358 -0.031748,-0.013401 -0.030255,-0.013401 0.019665,0.052036 0.033251,0.1100555 0.013629,0.057977 0.010587,0.05802 0.00754,0.057977 0.00302,0.029747 0.00149,0.028268 0.00154,0.029741 v 0.068423 l -0.00302,0.041626 -0.00302,0.040149 -0.00605,0.041626 -0.00754,0.040149 -0.00754,0.041626 -0.010586,0.040149 -0.010581,0.040149 -0.012084,0.03867 -0.013629,0.040158 -0.015123,0.038676 -0.016625,0.037163 -0.016625,0.037202 -0.018128,0.035686 -0.019665,0.03569 -0.021172,0.034209 -0.028752,0.041626 -0.028752,0.043147 -0.025713,0.043104 -0.022704,0.044619 -0.022675,0.044576 -0.018128,0.046136 -0.018128,0.046093 -0.015123,0.047613 -0.012084,0.046092 -0.012084,0.049086 -0.00758,0.047571 -0.00754,0.047613 -0.00456,0.049086 -0.00149,0.047613 -0.00154,0.049082 0.00154,0.049082 0.00456,0.047609 0.00605,0.047571 0.00758,0.049082 0.00905,0.047614 0.012127,0.047571 0.013586,0.046136 0.016625,0.046098 0.018128,0.046092 0.019665,0.044625 0.02267,0.044619 0.024211,0.043104 0.025713,0.043104 0.028752,0.041631 0.030255,0.040148 0.031748,0.040149 0.034792,0.038676 H 3.0609365 l -0.054461,0.0045 -0.055964,0.00595 -0.054461,0.00742 -0.054423,0.0089 -0.052925,0.011922 -0.054461,0.014878 -0.051418,0.016346 -0.051418,0.017824 -0.051417,0.019339 -0.04992,0.02233 -0.048417,0.023764 -0.046876,0.025285 -0.046919,0.026758 -0.046876,0.029747 -0.043837,0.029741 -0.043881,0.03274 -0.040837,0.032697 -0.040837,0.035685 -0.039339,0.037202 -0.037836,0.038681 -0.03629,0.038681 -0.034797,0.041626 -0.033251,0.043109 -0.031748,0.043146 -0.030255,0.044619 -0.027211,0.046092 -0.025713,0.047571 -0.024211,0.049082 -0.02267,0.049081 -0.019664,0.05056 -0.018128,0.052036 -0.00913,0.035648 -0.00605,0.016346 -0.00909,0.016351 -0.00905,0.014878 -0.010586,0.014878 -0.012127,0.013401 -0.013586,0.011879 -0.013629,0.010407 -0.015123,0.010407 -0.016625,0.00893 -0.016625,0.00742 -0.016625,0.00595 -0.036257,0.00603 -0.019669,0.00148 -0.021167,-0.00148 -0.019669,-0.00301 -0.019669,-0.0045 L 1.5076715,7.691096 1.4895455,7.683676 1.4729185,7.673269 1.4577935,7.66139 1.4426665,7.647989 1.4305425,7.634588 1.4184575,7.618242 1.4078725,7.601886 1.3987925,7.58554 1.3927525,7.566201 1.3882125,7.548377 1.3851725,7.527569 1.3836725,7.506751 v -0.017845 l 0.00304,-0.019339 0.00454,-0.019339 0.00604,-0.017824 0.00754,-0.017824 0.00908,-0.016346 0.010585,-0.016346 0.010584,-0.016346 -0.028751,0.032697 -0.02875,0.034213 -0.02721,0.035686 -0.025709,0.037202 -0.02417,0.037202 -0.022708,0.038681 -0.022669,0.038681 -0.019668,0.040153 -0.019667,0.041626 -0.018167,0.040148 -0.015126,0.043104 -0.015126,0.041626 -0.013625,0.043104 -0.012084,0.043147 -0.00908,0.043109 -0.00908,0.043104 -0.00904,0.08625 -0.00454,0.086251 -0.00154,0.086251 0.00454,0.086251 0.00758,0.084773 0.012085,0.083261 0.016626,0.081783 0.021169,0.081784 0.024209,0.080311 0.02721,0.078833 0.031753,0.077317 0.036294,0.075844 0.039336,0.074366 0.043837,0.072851 0.046879,0.069899 0.04992,0.068427 0.05292,0.066911 0.0575,0.063922 0.060505,0.060966 0.063506,0.059493 0.066545,0.056504 0.069546,0.05351 0.07259,0.05056 0.075629,0.047571 0.078672,0.046136 0.081673,0.041626 0.084712,0.037164 0.086214,0.035687 0.090756,0.031263 0.092253,0.028268 0.093756,0.023764 0.098299,0.020818 -0.037793,0.010407 -0.037835,0.01193 -0.07258,0.02976 -0.03629,0.01782 -0.03629,0.01933 -0.034792,0.01934 -0.034792,0.02229 -0.034787,0.02376 -0.033251,0.02528 -0.033294,0.02528 -0.031753,0.02827 -0.031748,0.02827 -0.030255,0.02974 -0.030255,0.03122 -0.028752,0.03274 -0.027211,0.03421 -0.025713,0.03421 -0.025713,0.03569 -0.02421,0.03716 -0.02267,0.0372 -0.021166,0.03865 -0.021172,0.04016 -0.018167,0.04014 -0.018128,0.04163 -0.015123,0.04162 -0.015123,0.0431 -0.012127,0.0431 -0.010586,0.04458 -0.010582,0.04462 -0.00754,0.04609 -0.00456,0.04461 -0.00754,0.03569 -0.00754,0.03422 -0.00909,0.03274 -0.00905,0.03418 -0.010586,0.03274 -0.012127,0.03274 -0.013629,0.0327 -0.013629,0.03274 -0.015123,0.03126 -0.015123,0.03122 -0.018128,0.03126 -0.016625,0.02975 -0.019665,0.02975 -0.019665,0.02974 -0.019665,0.02827 -0.021172,0.02827 -0.02267,0.02675 -0.022708,0.02676 -0.024168,0.02676 -0.02421,0.02528 -0.025712,0.02376 -0.025709,0.02376 -0.027211,0.02381 -0.02721,0.02229 -0.027212,0.02229 -0.030251,0.02082 -0.028751,0.01933 -0.0605,0.03869 -0.031753,0.01635 -0.031751,0.01634 -0.033253,0.01639 0.034793,0.01041 0.034795,0.01193 0.033252,0.01193 0.033253,0.01335 0.031752,0.01491 0.031753,0.01488 0.031752,0.01634 0.031752,0.01635 0.030252,0.01786 0.030252,0.01934 0.028751,0.01929 0.028751,0.02081 0.028752,0.02081 0.027211,0.02233 0.027211,0.02229 0.025713,0.02376 0.025713,0.02528 0.024211,0.02376 0.024206,0.02676 0.022675,0.02676 0.02267,0.02676 0.021167,0.02675 0.021172,0.02827 0.019664,0.02975 0.018128,0.02974 0.018128,0.02975 0.018128,0.03126 0.015123,0.03122 0.016625,0.03126 0.013625,0.03273 0.01363,0.0327 0.012084,0.03274 0.013625,0.04908 0.016625,0.04908 0.018128,0.04614 0.019665,0.0461 0.02267,0.04462 0.024211,0.04458 0.025713,0.04163 0.027211,0.04016 0.030255,0.04012 0.030255,0.03869 0.033294,0.03716 0.033251,0.03422 0.034787,0.03421 0.037793,0.03274 0.037836,0.03122 0.039339,0.02827 0.040837,0.02827 0.042339,0.02528 0.042339,0.02376 0.043837,0.02233 0.045379,0.02082 0.045379,0.01782 0.046876,0.01639 0.046919,0.01487 0.048378,0.0134 0.04992,0.01041 0.04992,0.0089 0.04992,0.006 0.04992,0.0045 0.051417,0.003 h 0.051418 l 0.05292,-0.003 0.019665,0.01487 -0.034754,0.04613 -0.033294,0.04609 -0.06051,0.09816 -0.025713,0.0506 -0.025713,0.05351 -0.02267,0.05208 -0.019665,0.05502 -0.018128,0.05499 -0.015123,0.05502 -0.01363,0.0565 -0.012084,0.0565 -0.00754,0.05654 -0.00759,0.05798 -0.00302,0.05651 -0.00154,0.05798 0.00154,0.05355 0.00302,0.05355 0.00605,0.05351 0.00754,0.05355 0.010577,0.05355 0.010586,0.05204 0.015123,0.05355 0.015123,0.05204 0.018128,0.05059 0.021166,0.05056 0.021166,0.04908 0.024211,0.04908 0.025713,0.04761 0.027211,0.04609 0.028752,0.04462 0.030255,0.04311 0.013586,0.01487 0.012127,0.01634 0.010587,0.01786 0.00905,0.01782 0.00758,0.01933 0.00456,0.01933 0.00302,0.01934 0.00149,0.02081 -0.00149,0.02081 -0.00302,0.01929 -0.00456,0.01934 -0.00604,0.01786 -0.00909,0.01782 -0.010582,0.01639 -0.012084,0.01487 -0.012127,0.01489 -0.015123,0.01339 -0.015123,0.01041 -0.016625,0.01046 -0.018128,0.0089 -0.018128,0.006 -0.019665,0.006 -0.019665,0.003 h -0.039295 l -0.018166,-0.003 -0.016625,-0.0031 -0.016625,-0.0059 -0.016625,-0.006 -0.030245,-0.01779 -0.015123,-0.01041 -0.012084,-0.01045 -0.012084,-0.01339 -0.012127,-0.0134 -0.00905,-0.0134 -0.00909,-0.01488 -0.00759,-0.01697 -0.00754,-0.01634 -0.00456,-0.01639 0.010581,0.04163 0.010587,0.0431 0.013586,0.04163 0.015123,0.04162 0.016625,0.04162 0.016625,0.04164 0.019665,0.04014 0.021167,0.03868 0.022675,0.03865 0.022675,0.03868 0.051427,0.07433 0.027217,0.03569 0.027212,0.03422 0.028752,0.03274 0.030255,0.03274 0.066545,0.05946 0.068048,0.05502 0.071087,0.05055 0.07259,0.04761 0.074087,0.0431 0.075634,0.04015 0.077131,0.03569 0.078629,0.03274 0.08017,0.02827 0.080175,0.02528 0.083171,0.0208 0.081672,0.01634 0.083171,0.0134 0.084712,0.01041 0.084712,0.006 0.08317,0.0014 0.084716,-0.0014 0.084673,-0.006 0.084712,-0.0089 0.083175,-0.0134 0.084712,-0.01635 0.081673,-0.02081 0.083171,-0.02381 0.080132,-0.02827 0.08017,-0.0327 0.078633,-0.03569 0.078672,-0.03868 0.075628,-0.04458 0.074092,-0.04614 0.07259,-0.05204 0.071086,-0.05355 0.068048,-0.05949 -0.00909,0.04613 -0.00905,0.04458 -0.00605,0.04613 -0.00454,0.04614 -0.00303,0.04458 -0.00151,0.04615 0.00151,0.04458 0.00303,0.04458 0.00454,0.04462 0.00605,0.04458 0.00754,0.04462 0.010583,0.04311 0.010587,0.0431 0.013626,0.04162 0.01512,0.0431 0.016625,0.04162 0.018129,0.04016 0.019667,0.04015 0.021166,0.03865 0.022704,0.03868 0.024204,0.03716 0.025713,0.03716 0.027212,0.03569 0.02875,0.03421 0.030255,0.03422 0.031749,0.03274 0.033297,0.03122 0.034792,0.03126 0.034792,0.02827 0.037796,0.02827 0.039338,0.02528 0.039338,0.02524 0.02875,0.02082 0.027218,0.02229 0.027212,0.02233 0.027213,0.02376 0.024213,0.02376 0.025713,0.02381 0.024208,0.02524 0.022676,0.02677 0.022704,0.02676 0.021166,0.02676 0.021171,0.02827 0.019666,0.02827 0.019667,0.02974 0.018129,0.02827 0.016624,0.03126 0.016625,0.02975 0.01512,0.03126 0.015125,0.03122 0.01363,0.03126 0.012083,0.0327 0.012083,0.03274 0.010579,0.03274 0.010583,0.0327 0.00909,0.03422 0.00754,0.03422 0.00754,0.03421 0.00454,0.03421 0.00605,0.03422 0.00303,0.03421 0.00303,0.03569 0.00146,0.03421 v 0.04608 l 0.021171,-0.02376 0.021171,-0.02228 0.022704,-0.02082 0.022676,-0.02081 0.024204,-0.02081 0.022713,-0.01933 0.025713,-0.01933 0.024213,-0.01782 0.025713,-0.01786 0.027213,-0.01782 0.025713,-0.01639 0.027213,-0.01634 0.027218,-0.01487 0.027213,-0.01488 0.057504,-0.0268 0.057505,-0.02384 0.030255,-0.01041 0.030255,-0.01046 0.02875,-0.0089 0.030255,-0.0089 0.031749,-0.0075 0.030255,-0.0075 0.03175,-0.006 0.030255,-0.0045 0.031749,-0.006 0.031749,-0.003 0.031749,-0.0031 0.095245,-0.0044 0.031749,0.0014 0.034787,0.003 0.033297,0.0031 0.03025,0.0014 0.051418,0.0075 0.051422,0.006 0.051418,0.0045 0.051418,0.0014 h 0.04992 l 0.051417,-0.0031 0.04992,-0.0044 0.048417,-0.0075 0.04992,-0.0089 0.048417,-0.01189 0.046875,-0.01193 0.046875,-0.01487 0.046917,-0.01786 0.04538,-0.01782 0.045332,-0.02081 0.043875,-0.02381 0.042338,-0.02376 0.042338,-0.02528 0.039338,-0.02827 0.039338,-0.02975 0.039338,-0.03122 0.036291,-0.03274 0.034792,-0.03421 0.034791,-0.03569 0.03175,-0.03716 0.031749,-0.03869 0.02875,-0.04016 0.027218,-0.04162 0.027212,-0.04311 0.022671,-0.04458 0.022713,-0.04615 0.021171,-0.04761 0.00146,0.05802 0.00454,0.0565 0.00605,0.05651 0.00909,0.05502 0.012083,0.05502 0.01363,0.05498 0.015125,0.05208 0.018129,0.05355 0.019666,0.05204 0.022676,0.05055 0.024213,0.05059 0.025713,0.04757 0.02875,0.04761 0.030255,0.04761 0.031749,0.04458 0.033249,0.04462 0.036291,0.0431 0.036296,0.04162 0.037834,0.03865 0.040838,0.03868 0.042338,0.03716 0.042338,0.03569 0.090756,0.06549 0.046875,0.02975 0.048417,0.02827 0.049919,0.02528 0.051418,0.02524 0.051418,0.02233 0.052915,0.0193 0.054462,0.01933 0.05442,0.01487 0.01966,0.0031 0.01813,0.0044 0.01813,0.006 0.01813,0.0075 0.01512,0.0089 0.01663,0.01041 0.01363,0.01193 0.01363,0.01187 0.01208,0.01491 0.01059,0.01487 0.0091,0.01634 0.0076,0.01635 0.0076,0.01786 0.0045,0.01933 0.0031,0.01782 v 0.04015 l -0.0091,0.03868 -0.006,0.01782 -0.0091,0.01786 -0.01058,0.01635 -0.01208,0.01634 -0.01213,0.0134 -0.01512,0.0134 -0.01512,0.01193 -0.01662,0.0089 -0.01813,0.0089 -0.01813,0.006 -0.01968,0.006 -0.01967,0.0031 -0.02117,0.0014 -0.01813,-0.0014 -0.01816,-0.0031 -0.01813,-0.003 -0.033249,-0.01189 -0.016625,-0.0075 -0.01512,-0.0089 -0.015125,-0.01046 0.07258,0.05351 0.037835,0.02528 0.03783,0.02229 0.03934,0.02376 0.04084,0.02082 0.04084,0.01933 0.04084,0.01782 0.04234,0.01787 0.04234,0.01487 0.04234,0.01487 0.04388,0.01193 0.04384,0.01041 0.04388,0.0089 0.04384,0.0075 0.04384,0.006 0.08771,0.0044 0.08925,0.0015 0.08771,-0.0045 0.08622,-0.0075 0.08472,-0.0134 0.08471,-0.01487 0.08318,-0.02081 0.08167,-0.02381 0.08017,-0.02672 0.07863,-0.03126 0.07713,-0.03421 0.07563,-0.03716 0.07409,-0.04162 0.07109,-0.04462 0.06955,-0.04757 0.06654,-0.05059 0.06351,-0.05351 0.06351,-0.05651 0.059,-0.05949 0.05596,-0.06245 0.05442,-0.06393 0.05142,-0.06843 0.04837,-0.0699 0.04538,-0.07137 0.04084,-0.07437 0.03933,-0.07731 0.03479,-0.07879 0.03026,-0.0803 0.02876,-0.0833 0.02271,-0.0833 0.01966,-0.08626 0.01663,-0.08924 0.01059,0.04613 0.01363,0.04458 0.01363,0.04315 0.01662,0.0431 0.01817,0.04162 0.01813,0.04162 0.02117,0.04012 0.0227,0.03869 0.02417,0.03865 0.02571,0.0372 0.02567,0.03569 0.02875,0.03569 0.0303,0.03421 0.03026,0.03274 0.03175,0.03122 0.03329,0.02975 0.03479,0.02979 0.03479,0.02672 0.0378,0.02676 0.03633,0.02381 0.0393,0.02376 0.03932,0.02229 0.0408,0.02081 0.04084,0.01786 0.04234,0.01782 0.04384,0.01491 0.04388,0.01487 0.04384,0.01189 0.04533,0.01046 0.04538,0.0089 0.04687,0.0075 0.04692,0.006 0.03479,0.006 0.03629,0.0075 0.0333,0.0089 0.03479,0.01046 0.03325,0.01041 0.03479,0.01193 0.0333,0.01193 0.0318,0.0134 0.03325,0.01487 0.03179,0.01487 0.03026,0.01782 0.03175,0.01638 0.0303,0.01782 0.0575,0.03868 0.02876,0.02081 0.02875,0.02229 0.02721,0.02229 0.02567,0.02229 0.02571,0.02381 0.02571,0.02524 0.02416,0.02528 0.02421,0.02528 0.02267,0.02676 0.02117,0.02672 0.04234,0.05653 0.01966,0.02979 0.01813,0.02975 0.01816,0.03122 0.01663,0.02979 0.01512,0.0327 0.01063,-0.03418 0.01058,-0.03421 0.01213,-0.03274 0.01363,-0.03274 0.01512,-0.0327 0.01512,-0.03274 0.01512,-0.03126 0.01816,-0.02974 0.01663,-0.03122 0.01966,-0.02979 0.01967,-0.02827 0.04233,-0.05654 0.02267,-0.02676 0.02267,-0.02672 0.02421,-0.02528 0.02417,-0.02528 0.02571,-0.02524 0.02568,-0.02381 0.05443,-0.04458 0.02875,-0.02081 0.02876,-0.02081 0.02876,-0.01933 0.03029,-0.01782 0.03026,-0.01786 0.03175,-0.01786 0.03179,-0.01634 0.03175,-0.01487 0.06659,-0.0268 0.03479,-0.01193 0.04992,-0.01488 0.04841,-0.01635 0.04687,-0.01786 0.04692,-0.02081 0.04533,-0.02229 0.04384,-0.02376 0.04234,-0.02528 0.04234,-0.02827 0.03933,-0.02827 0.03933,-0.03122 0.07258,-0.06548 0.03329,-0.03569 0.03325,-0.03569 0.03029,-0.03868 0.03026,-0.03865 0.02721,-0.04016 0.02567,-0.04163 0.02421,-0.04162 0.02267,-0.0431 0.01966,-0.04458 0.01813,-0.04462 0.01666,-0.04609 0.01512,-0.04761 0.01213,-0.04761 0.01058,-0.04761 0.0091,-0.04908 0.006,-0.05056 0.0045,-0.04908 0.0014,-0.05055 v -0.05059 l -0.0031,-0.05204 0.02267,0.04458 0.02267,0.04163 0.02571,0.04162 0.02721,0.04016 0.02718,0.03869 0.0303,0.03865 0.03026,0.03569 0.03175,0.03569 0.03329,0.03569 0.03479,0.03274 0.03629,0.03274 0.03629,0.03122 0.03783,0.02979 0.03779,0.02827 0.04084,0.02672 0.0393,0.02528 0.04234,0.02381 0.04234,0.02376 0.04234,0.02082 0.04388,0.02081 0.04533,0.01782 0.04533,0.01786 0.04538,0.01488 0.04687,0.01487 0.09384,0.02384 0.04842,0.0089 0.04837,0.0075 0.04841,0.006 0.04841,0.0045 0.04993,0.003 h 0.08021 l 0.03175,-0.0014 0.03329,-0.0014 0.03175,-0.0031 0.0318,-0.003 0.03175,-0.0045 0.0318,-0.003 0.02875,-0.0045 0.01813,-0.0045 0.01966,-0.0044 0.01817,-0.0031 0.01966,-0.0014 0.01962,0.0014 0.02117,0.0031 0.01966,0.0044 0.01817,0.0075 0.01813,0.0089 0.01666,0.0089 0.01512,0.01193 0.01512,0.0134 0.01213,0.01335 0.01208,0.01638 0.01063,0.01636 0.0076,0.01638 0.0076,0.0193 0.0045,0.01933 0.0031,0.01933 0.0014,0.02081 -0.0014,0.01934 -0.0031,0.01929 -0.0045,0.01933 -0.006,0.01786 -0.0076,0.01634 -0.01058,0.01635 -0.01063,0.01487 -0.01363,0.0134 -0.01362,0.01193 -0.01512,0.01045 -0.01663,0.01041 -0.01666,0.0075 -0.01813,0.006 -0.01966,0.0045 -0.01966,0.003 -0.02117,0.0014 h -0.05901 l 0.04534,-0.0014 h 0.04538 l 0.04533,0.0014 0.04692,0.0015 0.09225,0.003 0.09376,0.003 h 0.09071 l 0.04384,-0.0014 0.04384,-0.003 0.04234,-0.0045 0.04234,-0.006 0.03933,-0.0075 0.0393,-0.01041 0.08472,-0.02827 0.08167,-0.03126 0.07863,-0.03716 0.07563,-0.04016 0.07259,-0.04311 0.07109,-0.04908 0.06658,-0.05056 0.06351,-0.05502 0.06197,-0.05802 0.0575,-0.06094 0.05442,-0.06245 0.05142,-0.06695 0.04841,-0.06844 0.04388,-0.07137 0.0408,-0.07437 0.03783,-0.07433 0.03479,-0.07731 0.03026,-0.0803 0.02722,-0.08027 0.02416,-0.08178 0.01967,-0.0833 0.01512,-0.08477 0.01213,-0.08477 0.0091,-0.08628 0.0045,-0.08626 v -0.08776 l -0.0031,-0.08773 -0.0076,-0.08777 -0.01208,-0.08773 -0.01517,-0.08628 -0.02117,-0.08773 -0.02417,-0.08628 0.03779,0.02979 0.03783,0.02672 0.0393,0.02528 0.03934,0.02381 0.04084,0.02229 0.0408,0.02081 0.04234,0.01782 0.04234,0.01786 0.04234,0.01487 0.04388,0.0134 0.04384,0.01193 0.04384,0.01041 0.04384,0.0089 0.04538,0.0075 0.04384,0.0045 0.04533,0.0031 0.04538,0.003 h 0.04533 l 0.04533,-0.003 0.04538,-0.0031 0.04533,-0.0045 0.04388,-0.0075 0.04534,-0.0089 0.04384,-0.01041 0.04384,-0.01193 0.04388,-0.0134 0.04384,-0.01635 0.04234,-0.01786 0.04234,-0.01933 0.04234,-0.02081 0.04084,-0.02229 0.0393,-0.02376 0.03179,-0.01639 0.03325,-0.01634 0.03329,-0.01487 0.06958,-0.0268 0.03479,-0.01041 0.03629,-0.01193 0.07259,-0.01779 0.03629,-0.0075 0.03629,-0.006 0.03783,-0.0044 0.03629,-0.0045 0.03779,-0.003 0.03633,-0.0015 0.03779,-0.0014 0.03329,0.0014 0.03476,0.0015 0.03329,0.0014 0.03479,0.0045 0.03329,0.0044 0.03325,0.0045 0.03479,0.006 0.06659,0.01484 0.03175,0.0089 0.03329,0.01046 0.0318,0.01041 0.03325,0.01193 0.0318,0.0134 0.03026,0.0134 0.03179,0.01335 -0.01966,-0.05204 -0.01816,-0.05502 -0.01512,-0.05502 -0.01363,-0.05798 -0.01059,-0.05798 -0.0076,-0.05802 -0.0031,-0.02975 -0.0014,-0.02827 -0.0014,-0.02974 -0.0014,-0.02827 0.0014,-0.04014 0.0031,-0.04163 0.0031,-0.04016 0.006,-0.04162 0.006,-0.04012 0.0091,-0.04162 0.0091,-0.04016 0.01213,-0.04015 0.01208,-0.04016 0.01363,-0.03865 0.01512,-0.03869 0.01666,-0.03716 0.01663,-0.03717 0.01817,-0.0372 0.01962,-0.03421 0.01967,-0.03421 0.03026,-0.04162 0.02875,-0.0431 0.02571,-0.04311 0.02267,-0.04458 0.02117,-0.04462 0.01966,-0.04609 0.01817,-0.04615 0.01512,-0.04761 0.01213,-0.04761 0.01059,-0.04757 0.0091,-0.04761 0.0076,-0.04761 0.0045,-0.04908 0.0014,-0.04761 0.0014,-0.04908 -0.0014,-0.04908 -0.0045,-0.04761 -0.006,-0.04761 -0.0076,-0.04908 -0.0091,-0.04757 -0.01208,-0.04614 -0.01512,-0.04761 -0.01517,-0.04609 -0.01813,-0.04615 -0.01966,-0.04458 -0.02267,-0.04462 -0.02421,-0.0431 -0.02567,-0.0431 -0.02876,-0.04163 -0.03029,-0.04016 -0.03175,-0.03867 -0.03479,-0.03865 h 0.056 l 0.05596,-0.0014 0.05596,-0.0031 0.05596,-0.006 0.05442,-0.0075 0.05446,-0.01041 0.05296,-0.01193 0.05292,-0.01339 0.05297,-0.01634 0.05142,-0.01786 0.04992,-0.01929 0.04992,-0.02233 0.04991,-0.02376 0.04692,-0.02528 0.04687,-0.02672 0.04538,-0.02979 0.04533,-0.02974 0.04234,-0.03274 0.04234,-0.03422 0.04084,-0.03418 0.03932,-0.0372 0.03779,-0.03865 0.03629,-0.04016 0.03479,-0.04016 0.03329,-0.0431 0.03175,-0.0431 0.02876,-0.04615 0.02876,-0.04609 0.02571,-0.04761 0.02417,-0.04761 0.0227,-0.05056 0.01962,-0.0506 0.01816,-0.05204 0.0031,-0.01786 0.006,-0.01782 0.006,-0.01635 0.0091,-0.01638 0.0091,-0.01487 0.01058,-0.01488 0.01213,-0.0134 0.01363,-0.01193 0.01363,-0.01041 0.01512,-0.01045 0.01512,-0.0089 0.01663,-0.0075 0.01816,-0.006 0.01813,-0.0045 0.01816,-0.0014 0.01966,-0.0014 0.01967,0.0014 0.02117,0.0031 0.01964,0.0044 0.01816,0.0075 0.01813,0.0075 0.01666,0.01045 0.01512,0.01193 0.01512,0.0134 0.01213,0.01335 0.01213,0.01491 0.01058,0.01635 0.0076,0.01786 0.0076,0.0193 0.0045,0.01786 0.0031,0.02081 0.0015,0.01934 -0.0015,0.0193 -0.0014,0.01934 -0.0045,0.01933 -0.006,0.01782 -0.0076,0.01786 -0.0091,0.01635 -0.01058,0.01638 -0.01213,0.01635 0.03026,-0.03274 0.02875,-0.03422 0.02721,-0.03418 0.02571,-0.0372 0.02416,-0.03716 0.02267,-0.03867 0.0227,-0.03865 0.01963,-0.04016 0.01966,-0.04162 0.01666,-0.04163 0.01663,-0.04164 0.01512,-0.04162 0.01363,-0.0431 0.01212,-0.0431 0.0091,-0.0431 0.0091,-0.04315 0.0091,-0.08773 0.0045,-0.08626 0.0014,-0.08628 -0.0045,-0.08477 -0.0076,-0.08477 -0.01213,-0.08477 -0.01662,-0.08179 -0.01967,-0.08178 -0.0242,-0.08027 -0.02875,-0.07879 -0.03175,-0.07735 -0.03629,-0.0758 -0.03934,-0.07436 -0.04384,-0.07289 -0.04533,-0.0699 -0.05146,-0.0684 -0.05292,-0.06695 -0.05746,-0.06393 -0.0605,-0.06096 -0.06351,-0.05946 -0.06655,-0.05654 -0.06959,-0.05351 -0.07259,-0.05056 -0.07563,-0.04908 -0.07863,-0.04462 -0.08167,-0.04163 -0.08471,-0.03865 -0.08772,-0.03422 -0.08925,-0.03126 -0.09225,-0.02827 -0.09526,-0.02528 -0.0968,-0.01934 0.03779,-0.010407 0.03629,-0.013401 0.03783,-0.013401 0.03629,-0.014878 0.03629,-0.017824 0.03479,-0.019339 0.03629,-0.019339 0.03479,-0.022286 0.03329,-0.023807 0.03479,-0.023807 0.03175,-0.026758 0.03329,-0.028268 0.03026,-0.028268 0.03026,-0.029747 0.03029,-0.03122 0.02875,-0.032697 0.02721,-0.034213 0.02718,-0.034209 0.02421,-0.035687 0.02416,-0.037203 0.02421,-0.037164 0.02117,-0.038676 0.01967,-0.040149 0.01962,-0.040148 0.01666,-0.041626 0.01663,-0.041631 0.01363,-0.043147 0.01363,-0.044581 0.01058,-0.044619 0.01063,-0.044625 0.0076,-0.046098 0.0045,-0.046092 0.0076,-0.034209 0.0076,-0.034218 0.0091,-0.034213 0.0091,-0.034209 0.02426,-0.065394 0.01208,-0.03274 0.01517,-0.032697 0.01363,-0.03122 0.01662,-0.03122 0.01663,-0.029742 0.01816,-0.03122 0.01813,-0.029742 0.01966,-0.028268 0.04233,-0.056538 0.02267,-0.026758 0.0227,-0.026758 0.02267,-0.026757 0.02566,-0.025285 0.02421,-0.023807 0.02722,-0.023763 0.02567,-0.023807 0.02875,-0.02233 0.02721,-0.020818 0.02876,-0.020818 0.03029,-0.020812 0.03026,-0.017862 0.03026,-0.019339 0.0318,-0.016351 0.03175,-0.016346 0.0318,-0.016346 -0.03329,-0.010406 -0.03479,-0.011922 -0.03329,-0.011879 -0.03325,-0.013401 -0.03179,-0.014878 -0.03329,-0.014878 -0.03026,-0.016356 -0.03175,-0.016346 -0.0303,-0.017824 -0.03026,-0.019339 -0.02876,-0.019339 -0.02876,-0.020818 -0.02876,-0.020808 -0.02721,-0.022286 -0.02722,-0.02233 -0.02567,-0.023764 -0.02571,-0.025284 -0.02421,-0.025285 -0.02416,-0.025284 -0.02417,-0.026758 -0.02117,-0.026757 -0.02271,-0.028268 -0.01963,-0.028268 -0.01966,-0.028268 -0.01966,-0.029747 -0.01817,-0.029741 -0.03325,-0.062438 -0.01512,-0.03122 -0.01517,-0.032697 -0.01208,-0.032697 -0.01363,-0.03274 -0.01363,-0.05056 -0.01663,-0.047613 -0.01816,-0.047609 -0.01967,-0.044586 -0.02267,-0.044619 -0.02417,-0.044619 -0.02571,-0.041626 -0.02721,-0.041626 -0.03026,-0.038681 -0.03029,-0.038681 -0.03325,-0.037203 -0.03329,-0.035685 -0.03629,-0.032697 -0.03629,-0.03274 -0.03783,-0.03122 -0.0393,-0.028268 -0.04084,-0.028268 -0.04234,-0.025284 -0.04234,-0.023807 -0.04384,-0.022287 -0.04538,-0.020818 -0.04533,-0.017824 -0.04692,-0.017862 -0.04838,-0.013358 -0.04841,-0.013401 -0.04841,-0.010407 -0.04992,-0.00893 -0.04991,-0.00595 -0.05146,-0.0045 -0.05142,-0.00301 h -0.05139 l -0.05154,0.00364 z" fill-rule="evenodd" style="stroke:none;stroke-width:2;stroke-miterlimit:4;stroke-dasharray:none;fill:#ffcd00"/>
</svg>
