<svg width="27.5" height="20" version="1.1" viewBox="0 0 27.5 20" xmlns="http://www.w3.org/2000/svg">
 <g stroke-width=".5">
  <path d="m13.75 0h-13.75v14.023a3.9484 3.9484 0 0 0 2.6353 3.3241l11.115 2.6528 11.115-2.6528a3.9485 3.9485 0 0 0 2.635-3.3241v-14.023z" fill="#00008b"/>
  <path d="m13.75 0.5259h-13.221v13.082a3.4224 3.4224 0 0 0 2.6353 3.3244l10.586 2.5266 10.586-2.5266a3.4224 3.4224 0 0 0 2.6352-3.3244v-13.082z" fill="#fff"/>
  <path d="m13.75 1.8408h-11.899v11.768a2.1031 2.1031 0 0 0 1.3132 2.0458l10.586 2.453 10.277-2.453a2.106 2.106 0 0 0 1.6217-2.0458v-11.768z" fill="#00008b"/>
 </g>
</svg>
