<?xml version="1.0" encoding="UTF-8" standalone="no"?>
<svg
   xmlns="http://www.w3.org/2000/svg"
   version="1.0"
   width="40"
   height="40"
   viewBox="0 0 300 300">
  <path
     style="fill:#ffffff"
     d="M 298.5,150 A 148.5,148.5 0 1 1 1.4999938,150 148.5,148.5 0 1 1 298.5,150 Z" />
  <path
     style="fill:#002f6c;fill-rule:evenodd;"
     d="m 149.99323,29.403392 c -66.567668,0 -120.584524,54.035948 -120.584524,120.603378 0,0.47873 0.0135,0.9552 0.01899,1.43262 6.044121,-3.23591 10.222596,-7.40937 11.707037,-12.71955 2.358287,-4.12547 5.783828,-7.99737 5.633892,-12.94812 2.093737,-4.3362 5.977269,-7.57013 7.677373,-12.12737 4.436168,-6.46421 12.952131,-8.45879 20.205621,-8.51768 5.141078,-0.3724 10.397137,0.60825 15.278327,2.42534 4.20253,0.48583 9.388344,-1.23889 13.540634,-3.83862 3.4954,-2.55475 7.83937,-2.7562 11.59251,-4.679051 4.26052,-1.334071 8.60859,-1.661718 12.96746,-1.966813 4.3899,-1.204323 5.93279,-5.386256 5.86307,-9.415426 -1.03155,-1.57929 -2.32439,-3.583693 -2.10076,-5.19464 0.29374,-2.118252 2.59458,-3.679511 5.44285,-3.934163 5.55213,-5.561321 10.08725,0.341529 6.01568,-6.474201 -1.2337,-1.860121 -4.79841,-2.340951 -5.95836,-3.762308 -0.61958,-0.759305 -0.0626,-1.787004 0.8211,-3.43763 2.34385,-4.524319 7.04446,-7.096413 10.77141,-10.351076 3.43703,-2.604438 6.70678,-5.441204 9.72066,-8.517678 3.70236,-2.145962 8.18603,-0.413178 12.22267,-1.203171 3.94475,-1.039543 7.71574,-1.714343 11.47787,-1.737927 5.83126,-0.745583 11.73211,-0.113804 17.58921,-0.496531 1.56548,-0.0268 3.13198,-0.04948 4.69805,-0.07631 -16.39809,-8.349236 -34.95137,-13.063026 -54.60077,-13.063026 z m 63.30939,17.952071 c -0.0513,1.973234 0.90671,3.758998 1.64256,5.576578 -0.25599,3.078563 -1.12912,4.940687 -1.16502,6.53152 0.25341,1.638675 -0.22153,3.125117 -0.43921,4.774464 0.91002,0.849773 0.86072,3.461268 1.69988,4.889102 0.9976,3.243731 -0.2441,6.587006 -0.99306,9.739944 -0.0805,2.32683 -0.3594,4.781937 0.41987,7.028069 1.1514,2.206196 0.8068,4.738388 0.0563,6.989836 -0.46575,2.042141 -0.77937,4.101928 0.0563,6.588908 0.37636,1.372216 1.42917,3.479646 3.07478,5.461846 1.88573,1.61769 2.44345,5.6685 2.23443,8.02115 -1.20484,3.60213 -0.92039,7.63149 -0.97401,11.36323 0.29406,2.2487 1.27348,4.35588 0.97401,6.68417 -0.106,2.30977 -0.35115,4.88846 -1.92887,6.70351 -0.4445,0.43862 -0.91359,0.65286 -1.39418,0.70682 -0.1314,-0.0529 -0.24746,-0.1076 -0.42015,-0.1913 -0.49924,-0.24058 -0.80179,-0.97252 -3.11293,-0.85908 -3.23938,0.15894 -5.82953,-0.62328 -8.88057,-1.37531 -2.22163,-0.54736 -4.82057,-1.03857 -7.63918,-0.70646 -0.75581,-2.98702 -2.70573,-5.61292 -5.55751,-7.0091 -5.9512,-2.91368 -11.99118,-3.51271 -16.78709,-5.3282 -2.77718,-1.05147 -5.86251,-3.36288 -9.81634,-5.00364 -0.92519,-0.3841 -1.96499,-1.13796 -3.34212,-2.06278 -1.37715,-0.92483 -3.15827,-2.04637 -5.53842,-2.44433 -3.07535,-0.51453 -6.11696,-0.70605 -9.16699,-0.74479 -3.05006,-0.0391 -6.11643,0.0795 -9.2434,0.20994 -6.66666,0.27885 -11.55454,2.72368 -16.51974,3.83861 -5.67683,1.2752 -8.84645,1.31138 -14.74363,1.4896 -6.90397,0.21226 -14.506561,-0.11036 -20.874055,2.71192 -3.093159,1.3716 -7.484544,0.24343 -13.04387,2.27271 -2.901171,1.05928 -5.267388,2.59162 -7.52459,4.16355 0.05481,-3.98475 -0.294022,-8.18207 -1.12678,-12.6239 l -7.199922,1.35597 c 2.342839,12.49649 0.826561,21.77427 -4.08696,28.55155 -4.310427,5.94517 -11.55897,10.31316 -22.306395,12.7955 0.150848,2.47316 0.389627,4.92197 0.687526,7.35266 12.441359,-2.71462 21.790378,-7.90265 27.53923,-15.832 2.56674,-3.54046 4.33524,-7.57252 5.385623,-11.99374 4.641153,-2.84077 7.919622,-5.69483 11.153196,-6.87512 2.8288,-1.03279 7.723555,0.0972 13.502232,-2.46367 3.946672,-1.74983 10.997476,-1.8627 18.123955,-2.08176 5.8625,-0.17744 9.87603,-0.27836 16.11867,-1.68054 5.99123,-1.34549 10.30316,-3.44203 15.22109,-3.64768 2.33244,-0.0965 4.55719,-0.18805 6.70334,-0.20993 3.57691,-0.0376 6.93209,0.10632 10.1792,0.64915 0.7341,0.1226 1.52165,0.52485 2.67374,1.29864 1.15207,0.77379 2.59722,1.9099 4.62169,2.75026 2.72749,1.13192 5.88772,3.5131 10.02641,5.07994 5.99475,2.26934 11.76157,2.90913 16.15688,5.06095 1.37237,0.67178 2.31855,2.64155 1.54693,4.48812 -1.46497,3.50513 -1.03851,6.82052 -0.2292,8.80392 0.80937,1.9834 1.15927,2.49534 1.1459,2.78859 -0.16772,3.67872 -1.57406,6.24643 -1.05038,10.79004 0.4662,4.04596 1.05808,7.53532 0.49654,10.61844 -0.63362,3.47902 -0.82719,7.47445 0.7066,11.43989 0.82981,2.1452 -0.16614,5.62546 -0.61115,10.23654 -0.36488,3.78142 0.59102,8.0258 2.65463,12.77652 0.90655,2.08665 1.01266,3.33444 6.68431,5.09893 1.35999,1.39402 3.4515,1.34387 5.04183,2.31105 1.57153,0.94482 0.47557,2.74345 -0.43925,3.74297 -1.00009,1.24216 -1.05768,4.25094 0.97399,4.39281 1.913,-0.33414 4.15484,0.61332 5.7867,-0.80211 1.95398,-0.57919 4.02105,-0.53456 6.03493,-0.42022 3.41462,0.27229 6.0316,-0.82893 9.62537,-1.4896 1.99128,-0.32257 4.85112,-0.22602 6.85615,-0.095 2.86695,-0.11084 4.91347,-0.25226 7.77287,-0.63016 2.2748,-0.14175 3.75053,-2.12051 4.85086,-3.89593 0.72483,-1.69242 2.42756,-1.73072 4.20155,-1.71888 0.97659,-0.004 1.94174,-0.0707 2.86472,-0.0177 11.37355,-18.39776 17.95206,-40.06751 17.95206,-63.27151 0,-43.35592 -22.91666,-81.394381 -57.29384,-102.651434 z M 198.1391,142.46316 c 1.25744,-0.0439 2.54655,0.22763 4.25884,0.6495 2.53886,0.62535 5.84708,1.58193 9.93096,1.56589 0.0234,-0.0136 0.33292,2.5e-4 0.64915,0.15298 0.63244,0.30473 1.65428,0.807 3.05584,1.01205 0.62609,0.12572 1.25128,0.33387 1.8525,0.0176 0.78779,-0.0803 1.61227,-0.25767 2.40634,-0.61112 0.33881,0.26155 0.53674,0.67867 0.38189,1.2032 -0.53524,1.27846 -0.42052,2.91123 -0.66849,4.25885 -0.24706,2.20432 -0.32827,3.05897 -1.18401,5.27098 -0.0789,1.66316 -1.39101,4.03713 -1.94813,5.53843 -1.1985,2.41592 -1.34424,4.41637 -1.29866,7.46729 0.003,2.41662 0.56316,3.96164 0.76414,6.05403 -0.0911,1.59804 0.51954,3.06094 1.45127,4.18249 1.04065,0.861 1.08073,2.21408 1.60423,3.55218 -0.33827,1.13111 -0.4763,2.31387 -0.4582,3.49493 -0.108,3.10021 -1.22593,5.97532 0.55385,9.03332 1.59961,0.99804 1.28523,2.76216 0.61116,4.39257 -1.14115,1.01665 -2.55306,1.66299 -4.01057,2.08162 -2.25619,0.83471 -3.94897,0.27802 -6.18799,1.18408 -1.35144,0.59565 -2.5286,1.89131 -4.01058,2.34909 -1.8434,0.74622 -4.22205,0.0869 -5.99669,-0.47744 -0.58966,-0.0757 -1.0055,-0.34976 -1.31764,-0.74483 l -0.30558,-0.49654 c -0.0976,-0.18664 -0.18668,-0.38724 -0.26726,-0.59208 -1.09126,-2.56985 -1.28507,-5.04642 -0.97407,-8.26941 0.3236,-3.35555 2.22757,-8.21447 0.15261,-13.57862 -0.84635,-2.18836 -0.84277,-4.76449 -0.34355,-7.50551 0.87035,-4.77897 0.0261,-9.05266 -0.40124,-12.75738 -0.27828,-2.41689 0.84217,-4.61973 1.06972,-9.6063 0.13781,-3.02576 -1.25934,-4.91518 -1.66155,-5.90126 -0.3269,-0.80107 -0.39953,-1.30531 -0.0202,-2.46359 0.80911,-0.2854 1.55629,-0.43119 2.31081,-0.4584 z m -45.68221,21.40883 -121.730444,3.95326 c 8.621228,58.1249 58.754306,102.76598 119.266784,102.76597 36.42356,0 69.09084,-16.17741 91.2118,-41.72896 -3.84467,-1.03293 -6.64474,1.75333 -10.02662,2.78824 -3.96791,-0.93708 -6.96583,1.52303 -8.38404,5.04197 -3.96777,1.00409 -8.47431,-0.38805 -11.84077,2.86455 -4.51699,0.83675 -9.11192,-0.0781 -13.67394,0.0774 -2.83744,1.88996 -6.8788,2.89836 -10.73306,1.87149 -3.21619,-3.46898 -7.55771,3.19634 -10.46583,-0.87844 0.96025,-3.79847 4.3825,-3.91311 7.77289,-3.34207 3.88177,-1.65187 0.99137,-4.69976 4.83202,-7.00908 2.08749,-2.56682 5.98996,-5.6858 7.60093,-9.01423 -2.25895,-3.18488 -5.4762,-5.84043 -8.72796,-8.11648 -4.68786,-3.82905 -8.87568,-4.98709 -13.5593,-7.56292 -3.84323,-1.74752 -7.7085,-3.9853 -11.07698,-6.53148 -3.17643,-2.53258 -7.07618,-5.88902 -7.81087,-10.17917 -1.68354,-3.51046 2.0241,-5.87226 1.77584,-8.80406 -2.24111,-3.15324 2.56454,-3.54228 1.14603,-6.91347 -4.10431,-1.2943 -3.16056,-6.52031 -5.57648,-9.28171 z M 149.99323,23.311153 c 69.93373,5e-6 126.69543,56.762028 126.69543,126.695617 3.6e-4,69.93372 -56.7617,126.6768 -126.69543,126.6768 -69.933868,0 -126.676762,-56.74308 -126.676762,-126.6768 0,-69.933589 56.742899,-126.695617 126.676762,-126.695617 z M 299.5,150 A 149.5,149.5 0 1 1 0.49999377,150 149.5,149.5 0 1 1 299.5,150 Z" />
</svg>
