<svg width="20" height="20" xml:space="preserve" xmlns="http://www.w3.org/2000/svg">
 <path d="m 15.890865,18.80996 c -1.23686,0.468456 -0.994802,-1.073777 -1.611309,-0.08109 -0.502075,0.80843 -1.499899,0.889936 -2.17337,0.162467 -0.60723,-0.655917 -0.868759,0.809931 -2.2991878,0.351745 -1.027926,-0.329259 -1.447585,0.242923 -2.691373,-0.236796 C 6.1179694,18.621498 5.4194964,18.603767 4.0916248,18.615302 3.0350432,18.624479 2.1073997,19.123381 1.261556,18.941459 0.2282124,18.719214 0.6636313,16.520245 0.8068564,15.641649 0.9453725,14.791939 0.9348398,13.385614 0.8448483,12.519972 0.7400033,11.511452 1.6203028,10.636506 1.548702,9.6539856 1.465025,8.5057515 1.3899947,8.3305729 0.9778208,7.3401706 0.6373057,6.5219552 0.5,5.9794785 0.5,5.1710926 V 0.50046617 h 9.751167 C 10.52465,1.5779671 10.965152,2.0120957 10.824,2.6710815 10.617943,3.6330853 10.688509,3.5257619 10.485433,4.3985555 10.328052,5.0749521 9.9820242,5.345737 10.057934,5.9492087 c 2.282528,0.00489 6.884567,0.00979 9.167096,0.014679 -0.05324,0.9543648 -0.27909,4.4513713 -0.173779,5.2790313 0.142355,1.118799 0.130221,2.347911 0.281942,3.446203 0.103942,0.752432 -0.01813,0.900685 -0.580065,1.63347 -0.290083,0.378277 -0.327895,1.746649 0.353509,2.115553 1.245198,0.674138 -0.8159,1.710665 -1.355031,0.506982 -0.151418,-0.338063 -0.178776,-0.161412 -0.577039,-0.667127 -0.398263,-0.505715 -0.780366,0.341322 -1.283702,0.53196 z" style="fill:#fff;stroke:#000;stroke-width:1;stroke-miterlimit:4;stroke-dasharray:none;stroke-opacity:1"/>
</svg>
