<svg width="33" height="20" xmlns="http://www.w3.org/2000/svg">
 <g stroke-width=".5">
  <path d="M3.143 0h26.714A3.11 3.11 0 0 1 33 3.077v13.846A3.11 3.11 0 0 1 29.857 20H3.143A3.11 3.11 0 0 1 0 16.923V3.077A3.11 3.11 0 0 1 3.143 0z" fill="#01498e"/>
  <path d="M3.143.462h26.714a2.644 2.644 0 0 1 2.671 2.615v13.846a2.644 2.644 0 0 1-2.671 2.616H3.143A2.644 2.644 0 0 1 .47 16.923V3.077A2.644 2.644 0 0 1 3.143.462z" fill="#fff"/>
  <path d="M3.143 1.539h26.714a1.555 1.555 0 0 1 1.571 1.538v13.846a1.555 1.555 0 0 1-1.571 1.538H3.143a1.555 1.555 0 0 1-1.572-1.538V3.077A1.555 1.555 0 0 1 3.143 1.54z" fill="#01498e"/>
 </g>
</svg>
