<svg width="20" height="20" xmlns="http://www.w3.org/2000/svg">
 <path d="M10 .59a4.364 4.364 0 0 0 2.84 1.044A4.364 4.364 0 0 0 15.678.589l3.732 3.732a5.976 5.976 0 0 0-1.09 3.45c0 .924.208 1.799.58 2.58a5.192 5.192 0 0 1-4.683 7.437h-.814a4.372 4.372 0 0 0-3.404 1.623 4.373 4.373 0 0 0-3.404-1.623H5.78a5.192 5.192 0 0 1-4.683-7.436 5.98 5.98 0 0 0 .58-2.58A5.977 5.977 0 0 0 .589 4.32L4.322.589a4.364 4.364 0 0 0 2.84 1.045A4.363 4.363 0 0 0 10 .589z" fill="#fff" fill-rule="evenodd" stroke="#000" stroke-linecap="round" stroke-linejoin="round" stroke-miterlimit="3.864" stroke-width="1.178"/>
</svg>
