<svg id="uSRoute" width="40" height="32.401" version="1.1" xmlns="http://www.w3.org/2000/svg">
 <path id="uSRoute-shield" d="m20 1.0668c-1.8821 1.1629-4.097 1.8327-6.4721 1.8327-2.3752 0-4.5942-0.66982-6.4762-1.8327l-5.9544 5.9462c1.0972 1.5574 1.7259 3.4559 1.7259 5.5023 0 1.4752-0.30409 2.9176-0.90404 4.1668-0.51777 1.0807-0.82186 2.2437-0.82186 3.5217 0 4.5695 3.723 8.2761 8.3008 8.2761h5.1695c2.1944 0 4.1504 1.0068 5.4325 2.5847 1.2821-1.578 3.2381-2.5847 5.4325-2.5847h5.1695c4.5778 0 8.3008-3.7066 8.3008-8.2761 0-1.278-0.30409-2.4861-0.82186-3.5628-0.59996-1.2492-0.90404-2.6505-0.90404-4.1257 0-2.0464 0.62872-3.9449 1.7259-5.5023l-5.9544-5.9462c-1.8821 1.1629-4.1011 1.8327-6.4762 1.8327s-4.5901-0.66982-6.4721-1.8327z" fill="#fff" fill-rule="evenodd" stroke="#000" stroke-width="1.6848"/>
</svg>
