<svg width="20" height="20" xmlns="http://www.w3.org/2000/svg">
 <rect style="fill:#fff;stroke:#006747;stroke-width:1" width="19" height="19" x=".5" y=".5" rx=".906" ry=".922"/>
 <path style="fill:#006747;fill-opacity:1;fill-rule:evenodd;stroke:none;stroke-width:.0520931;stroke-linecap:butt;stroke-linejoin:miter;stroke-miterlimit:4;stroke-dasharray:none;stroke-opacity:1" d="M 10.05635,1.99907 C 10.04245,2.35082 9.5921,2.13178 9.49662,2.19635 9.31514,2.27905 9.45682,2.59187 9.16517,2.46563 9.01378,2.53913 8.85459,2.53813 8.69528,2.58935 8.73448,2.8541 8.55958,2.99527 8.30449,2.99747 8.22489,3.1849 7.5571,3.21662 7.94495,3.42662 8.22636,3.66611 7.73991,3.95862 7.65119,4.19217 7.53575,4.32433 7.40521,4.66834 7.68629,4.6839 7.74259,5.00585 7.53148,5.39485 7.66439,5.67006 7.8391,5.55497 7.83543,5.66972 7.89725,5.81926 8.09339,5.86226 8.19154,5.37933 8.45173,5.60107 8.78711,5.63497 8.91181,5.94927 8.87116,6.23987 9.02578,6.41102 9.16775,6.55962 8.99541,6.78448 8.82576,7.26346 8.71858,7.76478 8.50539,8.22795 8.45889,8.65424 8.9116,8.94903 9.29717,8.94293 9.76723,8.99973 10.27485,9.07201 10.71054,8.83428 11.01762,8.65341 11.59993,8.85978 11.70806,8.4346 11.68816,8.10716 11.41308,7.86065 11.37,7.53228 11.2606,7.12718 11.13105,6.7225 11.07849,6.30611 c -0.0489,-0.24927 0.16228,-0.26739 0.32824,-0.20768 0.1722,-0.10515 0.342,-0.0997 0.37731,0.11837 0.18138,0.0567 0.1044,-0.48912 0.34235,-0.23941 C 12.15119,5.57785 12.50871,5.28587 12.4911,4.87785 12.5027,4.51811 12.4619,4.14359 12.28998,3.8229 12.18608,3.48495 12.01344,3.17839 11.82167,2.88527 11.59764,2.63016 11.23934,2.5618 10.91082,2.50464 10.65354,2.48054 10.4548,2.38925 10.42847,2.11118 c -0.0904,-0.0258 -0.12854,0.0425 -0.17771,-0.0527 -0.25529,0.2268 -0.0519,-0.0505 -0.19448,-0.0593 z"/>
</svg>
