<?xml version="1.0" encoding="UTF-8" standalone="no"?>
<svg xmlns="http://www.w3.org/2000/svg"
   version="1.1"
   width="40"
   height="40"
   viewBox="0 0 6.6666667 6.6666667">
  <path
     style="fill:#ffffff;stroke-width:37.62000395;stroke-miterlimit:4;stroke-dasharray:none;stroke:#006b54;stroke-opacity:1"
     d="m 562.90625,27.59375 a 11.3475,11.3475 0 0 0 -5.34375,1.75 152.17,152.17 0 0 1 -76.375,23.5625 l -31.3125,1.0625 a 123.5625,123.5625 0 0 0 -50.78125,12.8125 42.7725,42.7725 0 0 1 -46.75,-5.75 27.3025,27.3025 0 0 0 -31.75,-2.65625 A 17.16,17.16 0 0 1 301.1875,57.15625 47.3775,47.3775 0 0 0 250.03125,52.4375 36.59,36.59 0 0 1 211.34375,49.40625 36.5125,36.5125 0 0 0 190.3125,42.25 L 42.875,39.40625 a 8.3324997,8.3324997 0 0 0 -8.5,8.34375 v 412.3125 a 8.3324997,8.3324997 0 0 0 9.1875,8.28125 21.7925,21.7925 0 0 1 21.0625,10.6875 71.022501,71.022501 0 0 0 23.75,24.46875 144.495,144.495 0 0 0 53.0625,19.9375 380.605,380.605 0 0 0 43.65625,4.59375 51.580001,51.580001 0 0 1 36.125,17.25 82.982501,82.982501 0 0 0 81.5,25.53125 52.735,52.735 0 0 1 26.625,0.46875 25.0325,25.0325 0 0 0 19.375,-2.46875 l 9.5,-5.5625 a 26.89,26.89 0 0 0 4.4375,-3.21875 12.08,12.08 0 0 1 13.125,-1.96875 17.0425,17.0425 0 0 0 22.59375,-8.28125 78.087501,78.087501 0 0 1 51.3125,-42.71875 137.6225,137.6225 0 0 0 101.9375,-152.15625 43.4125,43.4125 0 0 1 8.0625,-31.71875 35.405,35.405 0 0 0 1.40625,-39.90625 10.815,10.815 0 0 1 4.25,-15.4375 A 17.595,17.595 0 0 0 575,252.15625 V 38.9375 A 11.3475,11.3475 0 0 0 562.90625,27.59375 Z"
     transform="scale(0.01111111)" />
  <path
     style="fill:#006b54;fill-opacity:1;stroke-width:0"
     d="m 1.486698,1.4399022 c 0.1060194,1.7e-6 0.1962867,0.024131 0.2708333,0.072222 0.074544,0.048094 0.138308,0.1235711 0.1913194,0.2263888 0.034787,0.074629 0.062064,0.1616098 0.081945,0.2611111 0.019877,0.099503 0.02986,0.201426 0.029861,0.3059028 -1.5e-6,0.1326705 -0.015748,0.2594947 -0.047222,0.3805555 C 1.9819587,2.807144 1.9373857,2.9052057 1.879407,2.9798323 1.786638,3.1042104 1.6525717,3.1662907 1.4769765,3.1662907 c -0.1176169,0 -0.2147707,-0.024129 -0.2909722,-0.072222 C 1.1098011,3.0459758 1.0468114,2.9704993 0.9971147,2.8676799 0.96232654,2.7963701 0.93427486,2.7101607 0.91273971,2.6089994 0.89120417,2.5061808 0.88044789,2.4050303 0.88044805,2.3055272 0.88044789,2.1678828 0.8961953,2.0402867 0.92767027,1.9225411 0.96080136,1.8047979 1.0053745,1.705964 1.061698,1.6263606 1.1113947,1.5633439 1.1705144,1.5169769 1.2384341,1.4871245 1.3080091,1.4556175 1.3906164,1.4399045 1.486698,1.4399022 Z m 3.7079857,0 c 0.1060195,1.7e-6 0.1962869,0.024131 0.2708333,0.072222 0.074544,0.048094 0.1383081,0.1235711 0.1913195,0.2263888 0.034787,0.074629 0.062064,0.1616098 0.081944,0.2611111 0.019877,0.099503 0.02986,0.201426 0.029861,0.3059028 -1.3e-6,0.1326705 -0.015749,0.2594947 -0.047222,0.3805555 C 5.6899435,2.807144 5.6453705,2.9052057 5.5873917,2.9798323 5.4946227,3.1042104 5.3602092,3.1662907 5.184614,3.1662907 c -0.1176169,0 -0.2144236,-0.024129 -0.290625,-0.072222 C 4.8177867,3.0459758 4.7547971,2.9704993 4.7051004,2.8676799 4.6703123,2.7963701 4.6422606,2.7101607 4.6207255,2.6089994 4.5991899,2.5061808 4.5884336,2.4050303 4.5884338,2.3055272 4.5884336,2.1678828 4.604181,2.0402867 4.635656,1.9225411 4.668787,1.8047979 4.7133608,1.705964 4.7696838,1.6263606 4.8193808,1.5633436 4.8781531,1.5169769 4.9460726,1.4871245 5.0156476,1.4556175 5.0986023,1.4399042 5.1946837,1.4399022 Z M 2.4294062,1.4697634 H 2.6929479 V 2.1412911 H 3.2991978 V 1.4697634 H 3.5623922 V 3.1364299 H 3.2991978 V 2.410041 H 2.6929479 V 3.1364299 H 2.4294062 Z m 1.5288193,0 H 4.2266283 V 3.1364299 H 3.9582255 Z M 1.4582258,1.708305 c -0.054175,0.00109 -0.1001609,0.016119 -0.1378472,0.045139 -0.043071,0.033169 -0.078783,0.086833 -0.1069445,0.1614583 -0.021536,0.049752 -0.038057,0.1102882 -0.049653,0.1815972 -0.00994,0.069653 -0.014932,0.1393769 -0.014931,0.2090278 -5e-7,0.089553 0.00809,0.1757624 0.024653,0.2586805 0.016565,0.082919 0.041521,0.1510991 0.074653,0.2041666 0.026504,0.043118 0.057999,0.075316 0.094444,0.096875 0.036444,0.021559 0.081364,0.032292 0.134375,0.032292 0.061293,2e-7 0.1116304,-0.016485 0.1513888,-0.049653 0.041413,-0.033167 0.076352,-0.087179 0.1045139,-0.1618055 0.00829,-0.021559 0.01637,-0.047232 0.024653,-0.077083 0.00829,-0.031508 0.014821,-0.063707 0.019792,-0.096875 0.00663,-0.034825 0.011616,-0.069687 0.01493,-0.1045139 0.00331,-0.034825 0.00521,-0.068915 0.00521,-0.1020833 -1.1e-6,-0.094527 -0.00844,-0.1815081 -0.025,-0.2611111 -0.016568,-0.081259 -0.041524,-0.1502117 -0.074654,-0.2065977 -0.026505,-0.043117 -0.05688,-0.074542 -0.091667,-0.094445 -0.033132,-0.019899 -0.074609,-0.031403 -0.1243055,-0.034722 -0.00808,-4.133e-4 -0.015872,-5.033e-4 -0.023611,-3.466e-4 z m 3.7076385,0 c -0.054175,0.00109 -0.1001609,0.016119 -0.1378472,0.045139 -0.043071,0.033169 -0.078436,0.086833 -0.1065972,0.1614583 -0.021535,0.049752 -0.038057,0.1102882 -0.049653,0.1815972 -0.00994,0.069653 -0.014932,0.1393769 -0.014931,0.2090278 -4e-7,0.089553 0.00809,0.1757624 0.024653,0.2586805 0.016565,0.082919 0.041521,0.1510991 0.074653,0.2041666 0.026504,0.043118 0.057999,0.075316 0.094444,0.096875 0.036444,0.021559 0.081017,0.032292 0.1340278,0.032292 0.061293,2e-7 0.1119776,-0.016485 0.1517361,-0.049653 0.041413,-0.033167 0.076004,-0.087179 0.1041666,-0.1618055 0.00829,-0.021559 0.016716,-0.047232 0.025,-0.077083 0.00829,-0.031508 0.014821,-0.063707 0.019792,-0.096875 0.00663,-0.034825 0.011617,-0.069687 0.014931,-0.1045139 0.00331,-0.034825 0.00486,-0.068915 0.00486,-0.1020833 -10e-8,-0.094527 -0.00809,-0.1815086 -0.024652,-0.2611116 C 5.4638806,1.9631571 5.4389248,1.8942049 5.4057948,1.8378189 5.3792888,1.7947019 5.3485679,1.7632764 5.3137809,1.7433744 5.2806489,1.7234754 5.2395191,1.7119712 5.1898226,1.7086522 5.1817467,1.7082389 5.1736036,1.7081489 5.1658643,1.708305 Z M 0.67975362,3.6225409 H 1.1745452 V 3.7517076 H 0.9974619 V 4.594763 H 0.85648972 V 3.7517076 h -0.1767361 z m 0.62812498,0 h 0.1392361 v 0.6993055 c -3e-7,0.046435 0.012348,0.083751 0.0375,0.1118055 0.025152,0.028054 0.058328,0.042014 0.098958,0.042014 0.037728,3e-7 0.068523,-0.01396 0.092708,-0.042014 0.025151,-0.028054 0.037846,-0.065371 0.037847,-0.1118055 V 3.6225409 h 0.1392361 v 0.6819444 c -5e-7,0.019348 -8.455e-4,0.036952 -0.00278,0.05243 -9.677e-4,0.015478 -0.003,0.02986 -0.0059,0.043403 -0.0029,0.012576 -0.00697,0.025271 -0.011806,0.037847 -0.00484,0.012576 -0.01059,0.024924 -0.017361,0.0375 -0.024185,0.039663 -0.057436,0.072492 -0.1,0.098611 -0.041598,0.025152 -0.08551,0.037847 -0.1319444,0.037847 -0.04837,-2e-7 -0.094315,-0.012695 -0.1378472,-0.037847 -0.042565,-0.025152 -0.076163,-0.057981 -0.1003472,-0.098611 -0.00677,-0.012576 -0.012524,-0.024924 -0.017361,-0.0375 -0.00484,-0.012576 -0.00856,-0.025271 -0.011458,-0.037847 -0.0029,-0.013543 -0.00535,-0.027925 -0.00729,-0.043403 -9.677e-4,-0.015478 -0.00139,-0.033082 -0.00139,-0.05243 z m 0.7565971,0 h 0.2902778 c 0.037728,10e-7 0.071821,0.00618 0.1027777,0.01875 0.031923,0.012577 0.059,0.030182 0.08125,0.052431 0.023217,0.022251 0.040821,0.049749 0.052431,0.082639 0.012575,0.031925 0.018749,0.067208 0.01875,0.1059028 -7e-7,0.058044 -0.011505,0.1072871 -0.034722,0.1479167 -0.023218,0.040631 -0.05808,0.06974 -0.1045138,0.087153 l 0.1392361,0.4774305 h -0.14375 L 2.3373923,4.1378186 H 2.2037118 V 4.594763 H 2.0644757 Z m 0.7083333,0 H 2.9123923 L 3.1794062,4.2058742 V 3.6225409 h 0.139236 V 4.594763 H 3.2127395 L 2.9123923,3.9433742 V 4.594763 H 2.772809 Z m 0.7569443,0 h 0.2902778 c 0.037728,10e-7 0.071821,0.00694 0.1027778,0.020486 0.031923,0.012577 0.059,0.030677 0.08125,0.054861 0.023217,0.023218 0.040822,0.051906 0.052431,0.085764 0.012575,0.033859 0.018749,0.071176 0.01875,0.1118056 -7e-7,0.089 -0.022167,0.1566909 -0.066667,0.2031249 -0.043533,0.046435 -0.1063143,0.069445 -0.1885416,0.069445 H 3.6689894 v 0.426736 H 3.5297533 Z m 0.6802083,0 H 4.3464199 V 4.594763 H 4.2099616 Z m 0.3513889,0 H 4.7005866 V 4.0114298 L 4.9224615,3.6225409 h 0.1611111 l -0.2017361,0.3409722 0.225,0.6312499 H 4.9603088 L 4.7891282,4.1201103 4.7005866,4.2843464 V 4.594763 H 4.5613505 Z m 0.7083332,0 H 5.7269753 V 3.7589992 H 5.409267 V 4.0041381 H 5.6110031 V 4.1378186 H 5.409267 V 4.4583047 H 5.7648226 V 4.594763 H 5.2696837 Z M 2.2037118,3.7589992 v 0.2451389 h 0.14375 c 0.04063,6e-7 0.071425,-0.01024 0.092708,-0.030556 0.022249,-0.021282 0.033332,-0.051656 0.033333,-0.091319 -4e-7,-0.037727 -0.011505,-0.06768 -0.034722,-0.08993 -0.023218,-0.022249 -0.053591,-0.033332 -0.091319,-0.033333 z m 1.4652776,0 v 0.2756945 h 0.14375 c 0.04063,5e-7 0.071425,-0.012273 0.092708,-0.036458 0.022249,-0.024184 0.033332,-0.058277 0.033333,-0.1027777 C 3.9387799,3.854828 3.9272754,3.821653 3.9040584,3.7965 3.8808404,3.771349 3.8504664,3.759001 3.8127394,3.759 Z" />
</svg>
