<svg width="33" height="20" version="1.1" viewBox="0 0 33 20" xmlns="http://www.w3.org/2000/svg">
 <path d="m3.0961 18.998a2.1218 2.1242 0 0 1-1.4809-0.59895 2.0174 2.0197 0 0 1-0.61342-1.4463v-13.906a2.0176 2.02 0 0 1 0.61342-1.4461 2.1216 2.124 0 0 1 1.4809-0.59895h26.808a2.1218 2.1242 0 0 1 1.481 0.59895 2.0174 2.0197 0 0 1 0.61342 1.4461v13.906a2.0174 2.0197 0 0 1-0.61342 1.4461 2.1216 2.124 0 0 1-1.481 0.5992h-26.808" fill="#ba1e10" fill-rule="evenodd" stroke="#fff" stroke-miterlimit="8.5039" stroke-width="2.0035"/>
</svg>
