<svg width="27.5" height="20" xmlns="http://www.w3.org/2000/svg">
 <g stroke-width=".5">
  <path d="M13.75 0H0v14.023a3.948 3.948 0 0 0 2.635 3.324L13.75 20l11.115-2.653a3.949 3.949 0 0 0 2.635-3.324V0z" fill="#00008b"/>
  <path d="M13.75.526H.529v13.082a3.422 3.422 0 0 0 2.635 3.324L13.75 19.46l10.586-2.527a3.422 3.422 0 0 0 2.636-3.324V.526z" fill="#fff"/>
  <path d="M13.75 1.84H1.851v11.77a2.103 2.103 0 0 0 1.313 2.046l10.586 2.453 10.277-2.453a2.106 2.106 0 0 0 1.622-2.046V1.84z" fill="#00008b"/>
 </g>
</svg>
