<svg width="25" height="19.999" version="1.0" xmlns="http://www.w3.org/2000/svg">
 <path d="M1.031 1.23h6.63c.515.253 1.12.45 1.78.602.662.152 1.43-.198 2.17-.125.37.037.668.25 1.045.256.377.006.832-.195 1.208-.187.75.015.977.585 2.134.502.692-.049 1.194-.347 1.881-.545.687-.199 1.562-.27 2.287-.264 1.39.013 2.78-.54 4.17-.774l.072 7.637c-.733.382-.184 1.024-.233 1.62-.027.325-.083.662-.403.835-.32.173-.289.583-.139 1.053.2.621-.13 1.246-.287 1.855a3.032 3.032 0 0 1-1.111 1.683c-.619.487-1.544 1.31-2.636 1.438-1.41.165-1.881.668-2.639 1.31-.35.296-.512.38-1.328.436-.455.031-.338.304-1.352.351-1.001.046-1.93.498-2.526.497-1.67-.002-3.041-1.73-5.244-1.97-1.099-.119-2.116-.498-3.112-.91-.5-.208-.98-.619-1.533-.693-.666-.09-.81-.51-1.276-.688V1.6c-.015-.25.186-.372.442-.367z" fill="#fff" stroke="#000" stroke-width="1.178"/>
</svg>
