<svg width="20" height="20" version="1.1" viewBox="0 0 20 20" xmlns="http://www.w3.org/2000/svg">
 <path d="m9.9997 0.58908c0.76471 0.65146 1.7562 1.0447 2.8395 1.0447 1.0833 0 2.0748-0.39329 2.8395-1.0448l3.7319 3.7319c-0.68676 0.97616-1.09 2.1663-1.09 3.4505 0 0.92371 0.20856 1.7986 0.58121 2.5803 0.32198 0.67581 0.50876 1.4459 0.50876 2.2444 0 2.8676-2.3246 5.1921-5.1921 5.1921h-0.81496c-1.3742 0-2.6005 0.63266-3.4038 1.6226-0.80321-0.98992-2.0296-1.6226-3.4038-1.6226h-0.81496c-2.8676 0-5.1921-2.3246-5.1921-5.1921 0-0.79846 0.1868-1.5686 0.50881-2.2444 0.37262-0.78171 0.58121-1.6566 0.58121-2.5803 0-1.2842-0.40327-2.4743-1.09-3.4505l3.7319-3.7319c0.76471 0.65146 1.7562 1.0448 2.8395 1.0448 1.0833 0 2.0748-0.39319 2.8395-1.0447z" fill="#fff" fill-rule="evenodd" stroke="#000" stroke-linecap="round" stroke-linejoin="round" stroke-miterlimit="3.8637" stroke-width="1.178"/>
</svg>
