<svg width="25" height="20" version="1.0" xmlns="http://www.w3.org/2000/svg">
 <path d="M 0.94566156,1.043728 H 7.6255358 c 0.5192441,0.2555616 1.1289531,0.4554984 1.7950841,0.61022 0.6661951,0.1547113 1.4404461,-0.2011735 2.1856981,-0.1264531 0.372626,0.037363 0.673429,0.2531899 1.053097,0.2592916 0.379705,0.0061 0.838328,-0.1975245 1.216588,-0.1897302 0.756583,0.015601 0.98524,0.5936481 2.150234,0.510282 0.697755,-0.049923 1.203722,-0.3527732 1.89597,-0.5541189 0.69225,-0.2013559 1.573084,-0.2739579 2.304381,-0.2672481 1.400118,0.012865 2.800235,-0.54839223 4.200352,-0.7859731 L 24.5,8.253304 c -0.737891,0.3876704 -0.18477,1.0393149 -0.234112,1.6441124 -0.02697,0.3305256 -0.08414,0.6724536 -0.406708,0.8485606 -0.321325,0.17549 -0.290585,0.591317 -0.139243,1.068303 0.200364,0.631455 -0.13114,1.265139 -0.289908,1.884228 -0.158768,0.619038 -0.481552,1.201891 -1.119158,1.707764 -0.623715,0.494916 -1.555161,1.329703 -2.656074,1.460049 -1.421114,0.168263 -1.895587,0.679092 -2.658892,1.33031 -0.352026,0.300321 -0.516056,0.38534 -1.338406,0.442566 -0.458393,0.0319 -0.339865,0.30921 -1.361966,0.356675 -1.008734,0.04685 -1.94462,0.50492 -2.545073,0.504129 C 10.06715,19.497822 8.6859809,17.743687 6.4671233,17.500735 5.3595509,17.379491 4.3345567,16.995034 3.3305591,16.575902 2.8263965,16.365302 2.342821,15.948198 1.7857701,15.872535 1.1149021,15.78179 0.96952596,15.354448 0.50087856,15.174337 V 1.4171475 c -0.015951,-0.2531391 0.1872798,-0.3774941 0.4453207,-0.3730749 z" fill="#fff" stroke="#000" stroke-linecap="round" stroke-linejoin="round" stroke-width="1.254" style="stroke:#000;stroke-width:1;stroke-miterlimit:4;stroke-dasharray:none;stroke-opacity:1"/>
</svg>
