<svg width="40" height="40" version="1.1" xmlns="http://www.w3.org/2000/svg">
 <path d="m21.475 2.2879v-0.00246l-0.06009-0.00998-0.06016-0.012564-0.05757-0.012564-0.06016-0.015001-0.05757-0.017513-0.05506-0.017598-0.05758-0.022539-0.05506-0.022539-0.05514-0.022539-0.05263-0.027574-0.05254-0.027564-0.05263-0.027574-0.05011-0.032599-0.05011-0.030001-0.05011-0.035112-0.04752-0.035027-0.0476-0.037625-0.04509-0.03754-0.045-0.037625-0.04257-0.042574-0.04265-0.040062-0.08012-0.090174-0.04014-0.045087-0.03762-0.0476-0.03504-0.0476-0.03503-0.0476-0.03251-0.050113-0.06018-0.1051-0.02756-0.052625-0.02757-0.055138-0.05512 0.11028-0.03009 0.05255-0.0326 0.052625-0.0326 0.050113-0.03503 0.047515-0.03511 0.050113-0.03754 0.045087-0.03763 0.0476-0.04006 0.045087-0.04257 0.042574-0.04258 0.042575-0.04257 0.040062-0.04509 0.040052-0.04752 0.037625-0.0952 0.070054-0.05011 0.035112-0.05011 0.030002-0.05011 0.032599-0.05262 0.027574-0.05254 0.027574-0.05514 0.025052-0.05506 0.025052-0.05514 0.022539-0.05514 0.020026-0.05757 0.020026-0.11514 0.030002-0.06009 0.015001-0.06009 0.010051-0.06016 0.00998-0.08765 0.017514-0.08765 0.017513-0.08514 0.025061-0.08263 0.027564-0.0827 0.030087-0.08011 0.035027-0.07768 0.037625-0.07516 0.040062-0.07516 0.045087-0.07265 0.045087-0.06763 0.050113-0.06763 0.055063-0.06511 0.055138-0.0626 0.057575-0.06009 0.062601-0.05757 0.062601-0.05255 0.065114-0.05262 0.070139-0.0476 0.070139-0.04509 0.072652-0.04257 0.075164-0.04006 0.075164-0.03503 0.077601-0.0326 0.08019-0.03009 0.082627-0.02505 0.082627-0.02003 0.08514-0.01751 0.08514-0.015 0.087652-0.01 0.087652-0.0076 0.090165v0.090165-0.00236l-0.02756-0.067626-0.0652-0.13023-0.03754-0.062601-0.03762-0.060088-0.04006-0.060164-0.04509-0.057575-0.04257-0.057575-0.04752-0.055063-0.05011-0.052625-0.05011-0.050113-0.05255-0.0476-0.05254-0.0476-0.05758-0.045087-0.05757-0.042575-0.05757-0.040052-0.06016-0.040062-0.0626-0.035027-0.0626-0.035112-0.0626-0.032514-0.06763-0.030086-0.06511-0.027574-0.06763-0.025052-0.06763-0.022539-0.07014-0.017514-0.07014-0.017599-0.07014-0.015001-0.07258-0.012564-0.07265-0.00998-0.07265-0.00756-0.07265-0.00501h-0.12528l-0.05011 0.00255-0.05263 0.00255-0.05011 0.00501-0.05255 0.00756-0.05011 0.00746-0.05263 0.00756-0.05011 0.00998-0.05254 0.012564-0.05011 0.012564-0.05011 0.012488-0.0476 0.015001-0.05011 0.017513-0.04509 0.017513-0.04752 0.017514-0.04509 0.020026-0.03762 0.012488-0.04005 0.010051-0.04006 0.00756-0.04257 0.00255-0.03754-0.00255-0.04006-0.00501-0.03762-0.00998-0.07006-0.030002-0.0326-0.020026-0.03008-0.022539-0.02757-0.025052-0.02505-0.027574-0.02254-0.030002-0.02003-0.03259-0.015-0.035027-0.015-0.035112-0.0076-0.03754-0.0076-0.037625-0.0026-0.040062 0.0026-0.040052 0.0076-0.040062 0.0076-0.037625 0.015-0.035027 0.015-0.035112 0.02003-0.030001 0.02254-0.030087 0.02505-0.027564 0.02757-0.027574 0.03008-0.022539 0.0326-0.017599 0.03503-0.017513 0.03503-0.012488 0.03762-0.00998 0.04006-0.00501 0.03754-0.00255h0.0176l0.01249 0.00255-0.05757-0.00255-0.06511-0.00501-0.13022-0.0051-0.15528 0.00501-0.15277 0.00998-0.15277 0.020026-0.15026 0.027574-0.1453 0.032599-0.14523 0.042575-0.14028 0.0476-0.13777 0.055138-0.13525 0.060088-0.12999 0.067626-0.12771 0.072652-0.12276 0.08019-0.12017 0.08514-0.11522 0.090165-0.1102 0.095195-0.10517 0.10014-0.10014 0.10517-0.09512 0.1102-0.09268 0.11522-0.08263 0.12025-0.08011 0.12276-0.07265 0.12771-0.06763 0.13022-0.0626 0.13525-0.05263 0.13777-0.04751 0.14028-0.04257 0.14531-0.0326 0.14774-0.02756 0.14774-0.02003 0.15277-0.01256 0.15277-0.0025 0.15779v0.072652l5e-3 0.075164 0.0049 0.072652 0.0152 0.15033 0.01256 0.075164 0.01249 0.075164 0.015 0.072576 0.015 0.075164 0.01751 0.072576 0.02003 0.072652 0.02003 0.070139 0.02254 0.072652 0.02254 0.070139 0.0501 0.13525-0.07014-0.065113-0.07266-0.062601-0.07517-0.060088-0.08019-0.055138-0.08263-0.050113-0.08263-0.0476-0.08765-0.042575-0.08765-0.040062-0.09017-0.035027-0.09268-0.030087-0.09268-0.025052-0.09268-0.022539-0.095196-0.017513-0.095117-0.012488-0.095194-0.00756-0.097709-0.00255-0.077601 0.00255-0.077677 0.00491-0.077602 0.00756-0.075164 0.012564-0.077677 0.015001-0.075164 0.017513-0.075164 0.020026-0.075164 0.022539-0.1453 0.055128-0.14028 0.065198-0.067626 0.035027-0.067626 0.040052-0.065113 0.040052-0.062601 0.042575-0.062601 0.042574-0.065113 0.040062-0.067626 0.040062-0.067626 0.035027-0.14028 0.065198-0.072652 0.027564-0.072576 0.027574-0.075164 0.022539-0.075164 0.020026-0.075164 0.017513-0.077602 0.015001-0.075164 0.00998-0.077677 0.00998-0.077602 0.00501h-0.1603l-0.08514-0.00756-0.082627-0.00998-0.08514-0.012564-0.16525-0.035027-0.080114-0.022539-0.08019-0.025052 0.025373 0.079954 0.022539 0.08019 0.017514 0.082627 0.017513 0.082627 0.012488 0.082627 0.010051 0.08514 0.00756 0.082627v0.16282l-0.00501 0.077602-0.00756 0.077677-0.012564 0.075164-0.012488 0.077601-0.017513 0.075164-0.020026 0.075164-0.022539 0.075164-0.025052 0.072652-0.030077 0.072576-0.030087 0.070139-0.035027 0.070139-0.035027 0.067626-0.040062 0.067626-0.040062 0.065114-0.045087 0.062601-0.042575 0.062601-0.042575 0.065113-0.040052 0.067626-0.035027 0.067626-0.035027 0.070139-0.030087 0.070139-0.030087 0.072652-0.025052 0.072652-0.022539 0.075164-0.020026 0.075164-0.017513 0.075164-0.012488 0.077602-0.012564 0.075164-0.00756 0.077677-0.00491 0.077602v0.077602l0.00255 0.095194 0.00756 0.097709 0.00998 0.095195 0.017513 0.095116 0.022539 0.09268 0.025052 0.09268 0.030087 0.09268 0.035027 0.09017 0.040062 0.08765 0.042575 0.08514 0.0476 0.08514 0.05254 0.08019 0.055138 0.08019 0.057575 0.07516 0.062601 0.07265 0.065113 0.06763-0.087652-0.0326-0.090165-0.02756-0.092678-0.02505-0.095117-0.02254-0.095195-0.015-0.097708-0.01249-0.095117-0.0076-0.095195-0.0025h-0.075164l-0.075164 5e-3 -0.075164 0.0076-0.072652 0.01-0.072652 0.01256-0.072652 0.015-0.072652 0.02003-0.070139 0.02003-0.070139 0.02254-0.067626 0.02756-0.067626 0.02757-0.067626 0.03-0.065113 0.03511-0.062601 0.03503-0.062601 0.03763-0.062601 0.04006-0.060088 0.04257-0.057575 0.04509-0.11028 0.0952-0.05255 0.05011-0.050113 0.05255-0.050113 0.05514-0.0476 0.05757-0.042574 0.05758-0.045087 0.06009-0.040052 0.06009-0.03754 0.06511-0.035027 0.06511-0.032599 0.06511-0.030087 0.06763-0.030086 0.07014-0.00998 0.02756-0.015001 0.02757-0.015001 0.02505-0.017513 0.02254-0.020026 0.02254-0.020026 0.02003-0.022539 0.02003-0.022539 0.01751-0.025052 0.015-0.025052 0.01256-0.027564 0.01249-0.027574 0.01-0.027574 0.0076-0.030086 5e-3 -0.030086 0.0049h-0.030002l-0.040052-0.0026-0.037625-5e-3 -0.03754-0.01-0.035027-0.01249-0.034951-0.01782-0.032599-0.02003-0.030002-0.02254-0.027564-0.02505-0.025052-0.02757-0.022539-0.03009-0.020026-0.0326-0.017513-0.0326-0.012564-0.03754-0.00998-0.03763-0.00491-0.03754-0.00255-0.04006 0.00255-0.04257 0.00746-0.04257 0.012564-0.04006 0.015001-0.04005 0.020026-0.03763 0.025052-0.03503 0.027574-0.0326 0.030002-0.03009-0.062601 0.05514-0.060164 0.05514-0.060088 0.05757-0.057575 0.05757-0.055138 0.06009-0.05255 0.0626-0.05255 0.06511-0.052625 0.0626-0.0476 0.06763-0.047515 0.06763-0.045087 0.06763-0.042575 0.07014-0.042574 0.07265-0.040062 0.07265-0.037625 0.07265-0.035027 0.07265-0.032599 0.0776-0.032599 0.07517-0.030002 0.07768-0.027574 0.0776-0.025052 0.07768-0.025052 0.08011-0.040052 0.16038-0.017513 0.08019-0.015001 0.08263-0.012488 0.08011-0.010051 0.08263-0.00746 0.08263-0.00501 0.0827-0.00501 0.08263v0.08514l0.00255 0.11271 0.00491 0.11522 0.012564 0.11271 0.012488 0.11271 0.020026 0.1102 0.022539 0.1102 0.027574 0.10768 0.030086 0.10768 0.035027 0.10768 0.040062 0.10274 0.042574 0.10517 0.045087 0.10022 0.050113 0.10014 0.052625 0.09771 0.055138 0.09512 0.060088 0.09268 0.062601 0.09268 0.067626 0.08765 0.070139 0.08765 0.072652 0.08263 0.075164 0.08019 0.077677 0.08019 0.082627 0.07517 0.082627 0.07265 0.087652 0.07014 0.090165 0.06511 0.092678 0.0626 0.095117 0.06009 0.097708 0.05758 0.10014 0.05255 0.10014 0.0476 0.10517 0.04509-0.090165 0.0025-0.087652 5e-3 -0.090165 0.01-0.08514 0.015-0.087652 0.01751-0.08514 0.02254-0.082627 0.02505-0.08019 0.02756-0.080114 0.0326-0.08019 0.03503-0.075164 0.04006-0.075164 0.04256-0.072652 0.04509-0.070139 0.04751-0.067626 0.05263-0.067626 0.05255-0.062601 0.05757-0.062601 0.06016-0.057575 0.0626-0.055138 0.06511-0.05255 0.06511-0.050113 0.07014-0.047515 0.07258-0.045087 0.07265-0.040062 0.07768-0.03754 0.0776-0.032599 0.08019-0.032599 0.08263-0.025052 0.08263-0.025052 0.08514-0.017513 0.08765-0.015001 0.08765-0.00998 0.06009-0.012564 0.06009-0.012564 0.05757-0.015001 0.06016-0.017514 0.05757-0.020026 0.05506-0.020026 0.05757-0.022539 0.05514-0.025052 0.05514-0.025052 0.05254-0.027574 0.05255-0.027574 0.05262-0.032599 0.05011-0.030001 0.05011-0.035112 0.05011-0.035027 0.0476-0.037625 0.0476-0.03754 0.04509-0.040062 0.04509-0.040062 0.04257-0.042575 0.04257-0.042565 0.04006-0.045087 0.04005-0.045087 0.03754-0.0476 0.03762-0.0476 0.03754-0.0476 0.0326-0.050113 0.0326-0.05255 0.0326-0.05255 0.03009-0.052625 0.02756-0.055138 0.02757 0.055138 0.02757 0.055138 0.02756 0.05255 0.03009 0.050113 0.03252 0.052625 0.03251 0.0476 0.0326 0.050113 0.03762 0.045087 0.03762 0.0476 0.03754 0.045087 0.04014 0.042575 0.04258 0.042575 0.04257 0.040062 0.04257 0.03754 0.04509 0.040062 0.04751 0.035027 0.04509 0.035112 0.05011 0.032599 0.05011 0.032514 0.05011 0.030087 0.05011 0.030086 0.05263 0.027574 0.05255 0.025052 0.05514 0.025052 0.05506 0.020026 0.05514 0.022539 0.05506 0.017598 0.05757 0.017513 0.05757 0.015001 0.05758 0.012564 0.06016 0.012564 0.06009 0.00998 0.06016 0.015001 0.08765 0.017513 0.08758 0.025052 0.08523 0.025052 0.08263 0.032599 0.0827 0.032599 0.08019 0.03754 0.0776 0.040062 0.07509 0.045087 0.07516 0.047515 0.07265 0.050113 0.06755 0.05254 0.06763 0.055138 0.06511 0.057575 0.0626 0.062601 0.06016 0.062601 0.05758 0.067626 0.05262 0.067626 0.05254 0.070139 0.0476 0.072652 0.04509 0.075164 0.04257 0.075164 0.04006 0.077601 0.03503 0.08019 0.0326 0.082627 0.03008 0.082627 0.02498 0.08514 0.02003 0.08514 0.0176 0.087652 0.015 0.087652 0.01 0.090165 0.0076h0.090165l-0.067626 0.02756-0.065113 0.0326-0.065113 0.03251-0.1252 0.07524-0.057575 0.04006-0.060088 0.04509-0.055138 0.04257-0.055138 0.0476-0.05255 0.05011-0.050113 0.05011-0.0476 0.05254-0.0476 0.05262-0.045087 0.05757-0.042575 0.05758-0.040062 0.05757-0.040213 0.06009-0.035112 0.0626-0.035027 0.0626-0.03259 0.06268-0.030002 0.06755-0.025052 0.06511-0.025052 0.06763-0.022539 0.06763-0.020026 0.07014-0.017513 0.07014-0.015001 0.07014-0.012488 0.07265-0.00998 0.07265-0.00756 0.07265-0.00255 0.07265-0.00255 0.07516v0.05011l0.00255 0.05011 0.00501 0.05255 0.00501 0.05011 0.00491 0.05263 0.00756 0.05011 0.00998 0.05262 0.010051 0.05011 0.00998 0.05263 0.012488 0.05011 0.015001 0.05011 0.015001 0.04752 0.015001 0.05011 0.017513 0.0476 0.017514 0.045 0.020026 0.04509 0.012564 0.03762 0.00998 0.04006 0.00756 0.04014 0.00255 0.04257-0.00255 0.03763-0.00491 0.04005-0.010051 0.03762-0.012488 0.03503-0.017514 0.03503-0.020026 0.0326-0.022539 0.03-0.025052 0.02757-0.027574 0.02505-0.030087 0.02254-0.032599 0.02003-0.070054 0.03-0.037625 0.0076-0.03754 0.0076-0.040062 0.0025-0.040062-0.0025-0.040052-0.0076-0.03754-0.0076-0.035112-0.015-0.032599-0.015-0.032599-0.02003-0.030002-0.02254-0.027574-0.02505-0.027564-0.02757-0.022539-0.03-0.017513-0.0326-0.017514-0.03503-0.012488-0.03503-0.010051-0.03762-0.00491-0.04005-0.00255-0.03763v-0.0176l0.00255-0.01249-0.00255 0.05758-0.00491 0.0626-0.0051 0.13022 0.00501 0.15536 0.00998 0.15269 0.020026 0.15277 0.027574 0.15025 0.032599 0.14531 0.042575 0.14531 0.0476 0.14028 0.055063 0.13769 0.060164 0.13533 0.067626 0.13015 0.072652 0.12779 0.08019 0.12276 0.08514 0.12017 0.090165 0.11522 0.095117 0.1102 0.10022 0.10517 0.10517 0.10014 0.1102 0.09771 0.11522 0.09009 0.12017 0.08271 0.12276 0.08019 0.12771 0.07258 0.13023 0.06763 0.13525 0.0626 0.13777 0.05262 0.14028 0.0476 0.14531 0.04257 0.14774 0.03251 0.14774 0.02756 0.15277 0.02003 0.15277 0.01256 0.15779 0.0025h0.072652l0.075164-0.0049 0.072652-0.0049 0.15033-0.0152 0.075164-0.01249 0.075164-0.01256 0.072652-0.015 0.075164-0.015 0.072652-0.01751 0.072652-0.02003 0.070139-0.02003 0.072652-0.02254 0.070139-0.02254 0.067626-0.02505 0.067626-0.02498-0.065113 0.07014-0.062601 0.07265-0.060164 0.0776-0.05255 0.0776-0.05254 0.0827-0.0476 0.08263-0.042574 0.08765-0.040052 0.08765-0.035027 0.09016-0.030087 0.09268-0.025052 0.09269-0.022539 0.09268-0.017513 0.0952-0.00998 0.09512-0.00756 0.09771-0.00255 0.0952v0.0776l0.00491 0.0776 0.00998 0.0776 0.010051 0.07516 0.015001 0.0776 0.017599 0.07516 0.020026 0.07509 0.022539 0.07517 0.027564 0.07265 0.027574 0.07265 0.065198 0.14028 0.035112 0.06763 0.040052 0.06755 0.040062 0.06511 0.042575 0.06268 0.042575 0.0626 0.040062 0.06511 0.040062 0.06763 0.035112 0.06755 0.035027 0.07014 0.030077 0.07021 0.027574 0.07265 0.027564 0.07265 0.022539 0.07509 0.020026 0.07516 0.017513 0.07509 0.015001 0.0776 0.010051 0.07516 0.00998 0.0776 0.00501 0.07768v0.16274l-0.00756 0.08263-0.010051 0.08521-0.012488 0.08263-0.017514 0.0827-0.020026 0.08263-0.022539 0.08271-0.025052 0.0776 0.077602-0.02254 0.08019-0.02254 0.082627-0.01751 0.08514-0.0176 0.08514-0.01249 0.08514-0.01005 0.08514-0.0076h0.1603l0.077602 5e-3 0.077677 0.0076 0.075164 0.01249 0.077602 0.01249 0.075164 0.0176 0.075164 0.02003 0.075164 0.02254 0.072576 0.02498 0.072652 0.03009 0.070139 0.03009 0.070139 0.03251 0.067626 0.03762 0.067626 0.04014 0.065113 0.04005 0.062601 0.04509 0.062601 0.04256 0.065113 0.04257 0.067626 0.03762 0.067626 0.03754 0.070139 0.0326 0.070139 0.03008 0.072652 0.03009 0.072652 0.02498 0.075164 0.02254 0.075164 0.02003 0.075164 0.01759 0.077677 0.01249 0.075164 0.01249 0.077602 0.0076 0.077677 5e-3 0.077601 0.0025 0.097708-0.0025 0.095195-0.0076 0.095116-0.01256 0.095195-0.01751 0.09268-0.02254 0.09268-0.02505 0.09268-0.03 0.09017-0.03511 0.08765-0.04006 0.08514-0.04257 0.08514-0.04752 0.08019-0.05019 0.08011-0.05506 0.07516-0.06016 0.07258-0.06009 0.06763-0.06763-0.0326 0.08765-0.02756 0.09268-0.02505 0.09268-0.02254 0.09519-0.015 0.0952-0.01256 0.09763-0.0076 0.0952-0.0025 0.0952v0.07509l5e-3 0.07516 0.0076 0.07516 0.01 0.07265 0.01249 0.07258 0.015 0.07265 0.02003 0.07265 0.02003 0.07021 0.02254 0.07014 0.02756 0.06755 0.02757 0.06763 0.0326 0.06763 0.0326 0.06511 0.03511 0.0626 0.03754 0.0626 0.04006 0.0626 0.04257 0.06016 0.04509 0.05758 0.0476 0.05514 0.04752 0.05506 0.05011 0.05263 0.05263 0.05011 0.05506 0.05011 0.05757 0.04753 0.05758 0.04509 0.06016 0.04257 0.06009 0.04005 0.06511 0.03762 0.06511 0.03503 0.06511 0.0326 0.06763 0.03251 0.07014 0.02756 0.02756 0.01256 0.02756 0.01249 0.02505 0.015 0.02254 0.01751 0.02254 0.02011 0.02003 0.02003 0.02003 0.02254 0.01751 0.02254 0.015 0.02498 0.01249 0.02505 0.01256 0.02756 0.01 0.02757 0.0076 0.02756 0.0049 0.03009 5e-3 0.03009v0.03009l-0.0026 0.04006-5e-3 0.03762-0.01 0.03762-0.01256 0.03503-0.01751 0.03503-0.02003 0.03251-0.02254 0.03009-0.02505 0.02757-0.02757 0.02505-0.03008 0.02254-0.0326 0.02003-0.0326 0.0176-0.03754 0.01249-0.03762 0.01-0.03763 5e-3 -0.04005 0.0025-0.04257-0.0025-0.04257-0.0076-0.04005-0.01256-0.04006-0.01492-0.03754-0.0201-0.03504-0.02498-0.0326-0.02756-0.03009-0.03009 0.05514 0.0626 0.05506 0.06016 0.05757 0.06009 0.05757 0.05758 0.06016 0.05514 0.0626 0.05262 0.06511 0.05254 0.0626 0.05262 0.06763 0.04752 0.06763 0.0476 0.06763 0.045 0.07014 0.04265 0.07265 0.04257 0.07265 0.04006 0.07265 0.03762 0.07516 0.03503 0.07517 0.03251 0.07516 0.0326 0.0776 0.03009 0.07768 0.02756 0.0776 0.02498 0.08019 0.02505 0.16038 0.04006 0.08011 0.0176 0.08263 0.015 0.08019 0.01249 0.08263 0.01005 0.08263 0.0076 0.08263 0.0049 0.08514 0.0049h0.08263l0.11522-0.0025 0.11271-5e-3 0.22542-0.02498 0.1102-0.02003 0.1102-0.02254 0.10768-0.02756 0.10768-0.03009 0.10768-0.03503 0.10517-0.04014 0.10266-0.04257 0.10014-0.04509 0.10022-0.05011 0.09763-0.05255 0.09519-0.05514 0.09268-0.06009 0.09268-0.06511 0.08765-0.06511 0.08765-0.07022 0.08263-0.07265 0.08263-0.07509 0.0776-0.0776 0.07516-0.0827 0.07258-0.08514 0.07014-0.08514 0.06511-0.09016 0.06511-0.09268 0.05757-0.09519 0.05757-0.09763 0.05254-0.10014 0.0476-0.10274 0.04509-0.10517 0.0025 0.09009 0.0076 0.09017 0.01 0.08765 0.01249 0.08758 0.01751 0.08522 0.02254 0.08514 0.02505 0.08263 0.02756 0.0827 0.0326 0.08019 0.03503 0.0776 0.04006 0.07509 0.04257 0.07516 0.04509 0.07265 0.0476 0.07014 0.05262 0.07014 0.05255 0.06511 0.05757 0.06268 0.06009 0.0626 0.0626 0.05758 0.06511 0.05506 0.06763 0.05514 0.06763 0.05011 0.07265 0.04509 0.07516 0.045 0.07516 0.04014 0.07768 0.03755 0.08011 0.03511 0.0827 0.03 0.08263 0.02765 0.08514 0.02246 0.08765 0.02011 0.08765 0.015 0.06016 0.01 0.06009 0.01249 0.05757 0.01256 0.06009 0.015 0.05757 0.01751 0.05514 0.01759 0.05758 0.02254 0.05514 0.02254 0.05506 0.02246 0.05263 0.02765 0.05255 0.02756 0.05262 0.02757 0.05011 0.03251 0.05011 0.03009 0.05011 0.03503 0.0476 0.03511 0.04752 0.03754 0.09018 0.07524 0.04256 0.04257 0.04257 0.04257 0.04006 0.04257 0.04005 0.04509 0.04006 0.04509 0.03511 0.04751 0.03754 0.04751 0.0326 0.0476 0.03503 0.05011 0.03009 0.05263 0.03009 0.05255 0.02756 0.05262 0.02756 0.05506 0.02757-0.05506 0.02756-0.05506 0.03009-0.05263 0.03252-0.05011 0.03259-0.05262 0.03503-0.04752 0.03503-0.05011 0.03762-0.04509 0.03763-0.04753 0.04006-0.04509 0.08514-0.08514 0.04257-0.04014 0.04509-0.04006 0.0476-0.03762 0.04752-0.03503 0.04751-0.03503 0.05011-0.03503 0.10022-0.06018 0.05263-0.03009 0.05262-0.02757 0.05506-0.02505 0.05514-0.02498 0.05506-0.02254 0.05506-0.02003 0.05757-0.0176 0.05757-0.01751 0.06016-0.015 0.05757-0.01256 0.06016-0.01249 0.06009-0.01 0.08765-0.015 0.08765-0.02011 0.08514-0.02246 0.0827-0.02765 0.08263-0.03 0.08019-0.03511 0.0776-0.03754 0.0776-0.04014 0.07265-0.045 0.07265-0.04509 0.07014-0.05011 0.06511-0.05514 0.06511-0.05506 0.06268-0.05757 0.06009-0.0626 0.05757-0.06268 0.05262-0.06511 0.05263-0.07014 0.04752-0.07014 0.04509-0.07265 0.04257-0.07516 0.04006-0.07509 0.03511-0.0776 0.03251-0.08019 0.02757-0.0827 0.02505-0.08263 0.02254-0.08514 0.01751-0.08522 0.015-0.08758 0.01005-0.08765 0.0049-0.08765 0.0025-0.09016 0.02757 0.06763 0.03251 0.06511 0.0326 0.06511 0.03762 0.0626 0.03754 0.06016 0.04258 0.06016 0.04265 0.05757 0.045 0.05758 0.04509 0.05506 0.05011 0.05263 0.05011 0.05011 0.10524 0.09502 0.05749 0.04509 0.05765 0.04257 0.05758 0.04014 0.06009 0.04006 0.0626 0.03503 0.06268 0.03503 0.06511 0.0326 0.06511 0.03009 0.06511 0.02498 0.06755 0.02505 0.06763 0.02254 0.07014 0.02003 0.07014 0.01751 0.07021 0.015 0.07265 0.01256 0.07265 0.01 0.07258 0.0076 0.07265 0.0025 0.07516 0.0025h0.05011l0.05011-0.0025 0.05262-5e-3 0.05011-0.0049 0.05254-0.0049 0.05263-0.0076 0.05011-0.01005 0.05263-0.01 0.05011-0.01005 0.05011-0.01249 0.05011-0.015 0.04752-0.015 0.05011-0.015 0.0476-0.01751 0.04509-0.02011 0.045-0.01751 0.03762-0.015 0.04014-0.01005 0.04005-0.0076 0.04257-0.0025 0.04014 0.0025 0.03754 0.0076 0.03762 0.0076 0.07006 0.03 0.0326 0.02003 0.03009 0.02254 0.02756 0.02505 0.02498 0.02757 0.02254 0.03008 0.02003 0.03251 0.03 0.07006 0.0152 0.07524 0.0026 0.04005-0.0026 0.04014-0.0076 0.04006-0.0076 0.03762-0.03 0.07006-0.02003 0.0326-0.02254 0.03008-0.02498 0.02756-0.02756 0.02498-0.03009 0.02254-0.0326 0.0176-0.03503 0.01751-0.03503 0.01257-0.03762 0.01-0.03754 0.0076h-0.07021l0.05757 0.0026 0.06268 0.0049 0.13022 5e-3 0.15528-0.0049 0.15528-0.01005 0.15033-0.02003 0.15025-0.02756 0.14523-0.03251 0.14531-0.04257 0.14028-0.0476 0.13777-0.05506 0.13525-0.06016 0.13023-0.06755 0.12771-0.07265 0.12276-0.08019 0.12017-0.08514 0.11522-0.09016 0.1102-0.09519 0.10517-0.10014 0.10022-0.10517 0.09763-0.1102 0.09016-0.11522 0.08514-0.12017 0.0776-0.12276 0.07265-0.12771 0.06755-0.13023 0.06268-0.13533 0.05254-0.13769 0.0502-0.14028 0.04005-0.1453 0.03504-0.14531 0.02505-0.15026 0.02004-0.15277 0.01249-0.15269 0.0025-0.15779v-0.07265l-0.0025-0.07517-0.0076-0.07265-5e-3 -0.07509-0.01005-0.07516-0.01249-0.07516-0.01249-0.07509-0.015-0.07265-0.015-0.07516-0.0176-0.07265-0.02003-0.07258-0.02003-0.07265-0.02255-0.07021-0.02255-0.07014-0.02498-0.06763-0.02506-0.06755 0.07014 0.06511 0.07265 0.0626 0.0776 0.05758 0.07768 0.05506 0.08263 0.05019 0.08271 0.04751 0.08765 0.04257 0.08758 0.04005 0.09017 0.03511 0.09268 0.03 0.09269 0.02505 0.09269 0.02254 0.0952 0.01751 0.09519 0.01256 0.09763 0.0076 0.0952 0.0025 0.0776-0.0025 0.0776-5e-3 0.07768-0.0076 0.07509-0.01249 0.07768-0.015 0.07509-0.01751 0.07516-0.02011 0.07509-0.02254 0.07265-0.02498 0.07265-0.03009 0.07014-0.03009 0.07021-0.03503 0.06755-0.03503 0.06763-0.03762 0.06511-0.04006 0.1252-0.08514 0.06511-0.04257 0.06764-0.03762 0.06763-0.03503 0.07014-0.03503 0.07014-0.03009 0.07265-0.02756 0.07517-0.02765 0.07258-0.02254 0.07516-0.02003 0.07516-0.01751 0.0776-0.015 0.0776-0.01005 0.07516-0.01 0.0776-5e-3h0.16273l0.08271 0.0076 0.08514 0.01005 0.0827 0.01249 0.08263 0.0176 0.0827 0.01751 0.08263 0.02254 0.0776 0.02254-0.02255-0.0776-0.02246-0.0827-0.0176-0.08263-0.01759-0.08271-0.01249-0.08263-0.01-0.08523-0.0076-0.08263v-0.16274l5e-3 -0.07768 0.0076-0.0776 0.01249-0.07516 0.01249-0.0776 0.01759-0.07509 0.02003-0.07516 0.02255-0.07509 0.02505-0.07265 0.03001-0.07265 0.03009-0.07022 0.03503-0.07014 0.03504-0.06755 0.04013-0.06763 0.04006-0.06511 0.04508-0.0626 0.04257-0.06268 0.04257-0.06511 0.03762-0.06755 0.03762-0.06763 0.03251-0.07014 0.0326-0.07014 0.02757-0.07265 0.02498-0.07265 0.02255-0.07516 0.02011-0.07509 0.01751-0.07516 0.015-0.0776 0.01005-0.07516 0.0076-0.0776 5e-3 -0.0776 0.0025-0.0776-0.0025-0.09519-0.0076-0.09771-0.01249-0.09512-0.0176-0.0952-0.02254-0.09268-0.02498-0.09268-0.03009-0.09268-0.03503-0.09017-0.04013-0.08765-0.04257-0.08514-0.04752-0.0827-0.05011-0.08263-0.05514-0.0776-0.06009-0.07516-0.06016-0.07265-0.06755-0.07014 0.08758 0.03503 0.09275 0.02756 0.09268 0.02505 0.09512 0.02254 0.09519 0.015 0.09771 0.01249 0.09512 0.0076 0.0952 0.0025h0.07516l0.07759-0.0049 0.07265-0.0076 0.07517-0.01 0.07257-0.01256 0.07265-0.015 0.07266-0.02003 0.07021-0.02003 0.07014-0.02254 0.06755-0.02756 0.06763-0.02757 0.06511-0.0326 0.06511-0.03251 0.06511-0.03503 0.0626-0.03762 0.06016-0.04014 0.05757-0.04257 0.05757-0.04501 0.05757-0.0476 0.05262-0.04752 0.05255-0.05011 0.05263-0.05262 0.04752-0.05506 0.0476-0.05757 0.045-0.05757 0.04265-0.06016 0.04005-0.0626 0.03762-0.0626 0.03504-0.06511 0.03504-0.06763 0.03008-0.06763 0.03009-0.07014 0.01-0.02756 0.015-0.02505 0.015-0.02498 0.0176-0.02505 0.02003-0.02254 0.02003-0.02003 0.02255-0.01751 0.02255-0.0176 0.02498-0.01751 0.02506-0.01256 0.02757-0.01249 0.02756-0.01005 0.02757-0.0076 0.03009-0.0049 0.03008-0.0049h0.03009l0.04005 0.0025 0.03762 5e-3 0.03762 0.01 0.03504 0.01256 0.03503 0.01751 0.0326 0.02003 0.03009 0.02254 0.02756 0.02505 0.02498 0.02756 0.02255 0.03009 0.02003 0.03251 0.0176 0.0326 0.01249 0.03762 0.01005 0.03754 5e-3 0.03763 0.0025 0.04014-0.0025 0.04258-0.0076 0.04257-0.01249 0.04006-0.015 0.03763-0.02003 0.03762-0.02505 0.03503-0.02757 0.03251-0.03008 0.02765 0.0626-0.05263 0.06016-0.05757 0.06016-0.05758 0.05757-0.05758 0.05505-0.0626 0.05263-0.06016 0.05262-0.06511 0.05254-0.06511 0.0476-0.06511 0.04751-0.06763 0.04508-0.06755 0.04257-0.07014 0.04256-0.07022 0.04006-0.07265 0.03762-0.07265 0.03504-0.07509 0.03503-0.07265 0.03009-0.0776 0.03008-0.07516 0.02757-0.0776 0.02506-0.0776 0.02498-0.08019 0.02004-0.0776 0.02011-0.08019 0.01751-0.08271 0.015-0.08019 0.01257-0.08263 0.01-0.08019 0.0076-0.0827 5e-3 -0.08263 5e-3 -0.08514v-0.0827l-0.0025-0.11522-5e-3 -0.11271-0.01005-0.11279-0.015-0.11271-0.02003-0.1102-0.02255-0.11012-0.02757-0.10768-0.03008-0.10768-0.03504-0.10768-0.04013-0.10525-0.04257-0.10274-0.045-0.10014-0.05011-0.10014-0.05262-0.09763-0.05505-0.0952-0.06016-0.09268-0.0626-0.09268-0.06764-0.08765-0.07014-0.08765-0.07265-0.08263-0.07516-0.0827-0.0776-0.0776-0.08262-0.07516-0.08523-0.07265-0.08514-0.07014-0.09009-0.06511-0.09269-0.06511-0.09519-0.05757-0.09771-0.05757-0.10015-0.05263-0.10265-0.04752-0.10525-0.04509 0.09018-0.0025 0.09009-0.0076 0.08765-0.01005 0.08765-0.01249 0.08514-0.0176 0.08514-0.02254 0.08271-0.02498 0.08263-0.02757 0.0802-0.0326 0.0776-0.03503 0.07516-0.04005 0.07509-0.04257 0.07265-0.04509 0.07021-0.0476 0.07014-0.05255 0.06511-0.05263 0.0626-0.05757 0.0626-0.06016 0.05757-0.0626 0.05758-0.06511 0.05263-0.06763 0.05011-0.06755 0.04753-0.07265 0.04265-0.07516 0.04006-0.07509 0.03762-0.0776 0.03504-0.08019 0.03008-0.0827 0.02757-0.08263 0.02498-0.08522 0.0176-0.08758 0.0176-0.08765 0.01-0.06016 0.01005-0.06009 0.015-0.05757 0.015-0.06016 0.01751-0.05757 0.0176-0.05506 0.02255-0.05757 0.02254-0.05514 0.02246-0.05506 0.02765-0.05262 0.02756-0.05263 0.02757-0.05255 0.03008-0.05011 0.03252-0.05011 0.03504-0.05011 0.07014-0.09512 0.04005-0.04509 0.03762-0.04509 0.04257-0.04257 0.04005-0.04257 0.04509-0.04006 0.04508-0.04014 0.04509-0.04006 0.04751-0.03503 0.04752-0.03762 0.0476-0.0326 0.05011-0.03503 0.05263-0.03009 0.05254-0.03 0.05263-0.02756 0.05505-0.02757-0.05505-0.02756-0.05506-0.02757-0.05262-0.03009-0.05263-0.0326-0.05011-0.0326-0.04753-0.03503-0.05011-0.03503-0.04508-0.03763-0.04753-0.03754-0.04508-0.04005-0.04257-0.04257-0.04256-0.04257-0.04013-0.04257-0.04006-0.04509-0.03762-0.0476-0.03504-0.0476-0.03503-0.0476-0.03504-0.05011-0.03008-0.05011-0.0326-0.05011-0.02757-0.05255-0.02756-0.05262-0.02506-0.05506-0.02498-0.05514-0.02254-0.05514-0.02003-0.05505-0.02004-0.05758-0.015-0.05757-0.015-0.06016-0.015-0.05757-0.01005-0.06009-0.01-0.06009-0.0352-0.1753-0.02498-0.08514-0.02757-0.08263-0.03008-0.08263-0.03504-0.08019-0.03761-0.0776-0.04006-0.07768-0.04265-0.07265-0.04752-0.07258-0.05011-0.07014-0.05263-0.06511-0.05757-0.06511-0.05757-0.0626-0.0626-0.06016-0.0626-0.05757-0.06511-0.05514-0.07014-0.05011-0.07021-0.04752-0.07265-0.0476-0.07509-0.04006-0.07516-0.04005-0.0776-0.03503-0.08019-0.0326-0.08263-0.03009-0.08271-0.02505-0.17028-0.04006-0.08765-0.01249-0.08765-0.01-0.09009-0.0076-0.09018-0.0026h0.0025l0.06511-0.03 0.06511-0.0326 0.06512-0.0326 0.0626-0.03762 0.06016-0.03754 0.06009-0.04257 0.05757-0.04257 0.05758-0.04257 0.05262-0.0476 0.05263-0.05011 0.05011-0.05011 0.05011-0.05255 0.04752-0.05263 0.04508-0.05506 0.04257-0.05758 0.04005-0.05757 0.04014-0.06016 0.03503-0.0626 0.03504-0.0626 0.03259-0.0626 0.03001-0.06511 0.02765-0.06763 0.02498-0.06763 0.02255-0.06763 0.02003-0.06763 0.01759-0.07014 0.015-0.07265 0.01249-0.07014 0.01005-0.07265 0.0075-0.07265 5e-3 -0.07265v-0.12527l-0.0025-0.05011-0.0025-0.05255-5e-3 -0.05011-0.0076-0.05254-0.0076-0.05255-0.0076-0.05011-0.01-0.05263-0.01256-0.05011-0.01249-0.05011-0.015-0.05011-0.015-0.0476-0.015-0.05011-0.01751-0.0476-0.01759-0.04509-0.02003-0.04509-0.015-0.03754-0.01-0.04006-0.0076-0.04005-0.0025-0.04257 0.0025-0.04006 5e-3 -0.03763 0.01005-0.03754 0.01493-0.03503 0.015-0.03511 0.02011-0.0326 0.02246-0.03 0.02506-0.02757 0.02756-0.02505 0.03009-0.02254 0.03252-0.02003 0.0351-0.015 0.03504-0.015 0.03754-0.0075 0.03762-0.0076 0.04013-0.0026 0.04006 0.0026 0.04014 0.0076 0.03755 0.0075 0.03503 0.015 0.03511 0.015 0.03008 0.02003 0.03001 0.02254 0.03008 0.02505 0.02506 0.02757 0.02255 0.03 0.01751 0.0326 0.01759 0.03511 0.01249 0.03503 0.01 0.03754 0.0076 0.03763v0.07006l0.0025-0.06009 5e-3 -0.0626 5e-3 -0.13022-5e-3 -0.15528-0.01-0.15277-0.02003-0.15277-0.02764-0.15033-0.03252-0.14523-0.04257-0.1453-0.04752-0.14028-0.05514-0.13777-0.06009-0.13525-0.06763-0.13022-0.07265-0.12771-0.08019-0.12276-0.08514-0.12017-0.09016-0.11522-0.09511-0.1102-0.10015-0.10517-0.10525-0.10014-0.11019-0.0952-0.11523-0.09268-0.12017-0.08263-0.12276-0.08019-0.12772-0.07265-0.13022-0.06763-0.13525-0.0626-0.13776-0.05255-0.14028-0.0476-0.14523-0.04256-0.14782-0.0326-0.14774-0.02756-0.15277-0.02003-0.15277-0.01256-0.1578-0.0026h-0.07265l-0.07516 5e-3 -0.07265 0.0049-0.07509 0.0076-0.07516 0.0076-0.07509 0.01256-0.07516 0.01249-0.07265 0.015-0.07509 0.015-0.07265 0.01751-0.1453 0.04006-0.07014 0.02254-0.07021 0.02254-0.06755 0.02505-0.06763 0.02505 0.06511-0.07014 0.0626-0.07265 0.05758-0.07516 0.05514-0.08019 0.05011-0.08263 0.04751-0.08263 0.04257-0.08765 0.04013-0.08765 0.03504-0.09017 0.03008-0.09268 0.02498-0.09268 0.02255-0.09268 0.01759-0.095116 0.01249-0.095195 0.0076-0.097709 0.0025-0.095195-0.0025-0.077602-5e-3 -0.077601-0.0076-0.077677-0.01256-0.075164-0.01492-0.077601-0.01759-0.075164-0.02003-0.075164-0.02255-0.075164-0.02505-0.072652-0.03001-0.072652-0.03009-0.070139-0.03503-0.070139-0.03511-0.067626-0.03754-0.067626-0.04014-0.065114-0.04257-0.062601-0.04256-0.062601-0.04257-0.065113-0.03762-0.067626-0.03504-0.067626-0.03503-0.070139-0.03009-0.070139-0.02757-0.072576-0.02756-0.072652-0.02255-0.075164-0.02004-0.075164-0.01759-0.075164-0.015-0.077602-0.01-0.075164-0.01005-0.077677-5e-3 -0.077601v-0.1629l0.0076-0.082627 0.01-0.08514 0.01249-0.082627 0.01759-0.082627 0.02003-0.082627 0.02255-0.08019 0.02505-0.08019-0.07768 0.025052-0.08263 0.022539-0.08271 0.017514-0.08263 0.017513-0.08514 0.012564-0.08523 0.00998-0.08514 0.00756h-0.16273l-0.0776-0.00501-0.07516-0.00756-0.0776-0.012488-0.0776-0.012564-0.07516-0.017513-0.07517-0.020026-0.07258-0.022539-0.07516-0.025052-0.07265-0.030086-0.07014-0.030002-0.07014-0.035112-0.06763-0.035027-0.06764-0.040062-0.06511-0.040052-0.1252-0.090174-0.06511-0.040052-0.06763-0.040062-0.06755-0.035112-0.07022-0.035027-0.07014-0.030077-0.07265-0.030002-0.07265-0.025052-0.07509-0.022539-0.07517-0.020026-0.07509-0.017599-0.07768-0.012488-0.07509-0.012564-0.07768-0.00756-0.0776-0.00491-0.0776-0.00255-0.0952 0.00255-0.09763 0.00756-0.0952 0.012488-0.0952 0.017513-0.09269 0.022539-0.09268 0.025052-0.09269 0.030086-0.09017 0.035027-0.08758 0.040062-0.08521 0.042574-0.08263 0.0476-0.08271 0.05255-0.0776 0.052625-0.07509 0.060088-0.07265 0.062601-0.07021 0.065113 0.03503-0.087652 0.02765-0.090165 0.02498-0.092678 0.02254-0.095194 0.015-0.095118 0.01249-0.097708 0.0076-0.095195 0.0025-0.095117v-0.075164l-5e-3 -0.075164-0.0076-0.075164-0.01005-0.072652-0.01249-0.072652-0.015-0.072576-0.02003-0.072652-0.02011-0.070139-0.02255-0.070139-0.02756-0.067626-0.02757-0.067626-0.03252-0.067626-0.03259-0.065113-0.03504-0.062601-0.03762-0.062601-0.04006-0.062601-0.04257-0.060088-0.04509-0.057575-0.04751-0.055138-0.0476-0.055063-0.05011-0.052625-0.05262-0.050113-0.05506-0.050113-0.05757-0.0476-0.05757-0.042574-0.06016-0.042575-0.0626-0.042574-0.0626-0.037625-0.06511-0.035036-0.06763-0.03259-0.06755-0.030086-0.07022-0.030087-0.02756-0.00998-0.02498-0.015001-0.02505-0.015001-0.02498-0.017589-0.02254-0.020026-0.02003-0.020026-0.0352-0.045078-0.01751-0.025052-0.01249-0.025052-0.01256-0.027564-0.01-0.027574-0.0076-0.027564-5e-3 -0.030086-0.0025-0.030002-0.0026-0.030086 0.0026-0.040052 0.0049-0.03754 0.01005-0.037625 0.01249-0.035027 0.0176-0.035027 0.02003-0.032599 0.02254-0.030077 0.02498-0.027574 0.02757-0.025052 0.03009-0.022539 0.0326-0.020026 0.03251-0.017514 0.03762-0.012488 0.03763-0.010051 0.03754-0.00491 0.04014-0.00255 0.04257 0.00255 0.04257 0.00756 0.04014 0.012488 0.04006 0.015001 0.03762 0.020026 0.03503 0.025052 0.03251 0.027574 0.0326 0.030077-0.05506-0.062601-0.05514-0.060088-0.05757-0.060164-0.06016-0.057575-0.06009-0.055063-0.06016-0.052625-0.13022-0.1051-0.06511-0.0476-0.06755-0.0476-0.07021-0.045087-0.06849-0.042414-0.07265-0.042575-0.07265-0.040062-0.07265-0.03754-0.07516-0.035112-0.07509-0.035027-0.07516-0.030002-0.0776-0.030086-0.0776-0.027574-0.0776-0.025052-0.08019-0.025052-0.16038-0.040052-0.08019-0.017514-0.08263-0.015001-0.08019-0.012564-0.0827-0.00998-0.08263-0.00756-0.08271-0.00501-0.08263-0.00491h-0.08514l-0.11279 0.00255-0.11522 0.00501-0.11271 0.00998-0.11279 0.015001-0.11012 0.020026-0.1102 0.022539-0.10768 0.027574-0.10768 0.030086-0.10768 0.035027-0.10274 0.040052-0.10517 0.042575-0.10014 0.045087-0.10014 0.050113-0.09771 0.05255-0.0952 0.055138-0.09268 0.060088-0.09268 0.062601-0.08765 0.067626-0.08765 0.070139-0.08263 0.072652-0.08019 0.075164-0.08019 0.077601-0.07509 0.082627-0.07265 0.08514-0.07021 0.08514-0.06511 0.090165-0.0626 0.092678-0.06009 0.095117-0.05765 0.097708-0.05255 0.10022-0.0476 0.10266-0.045 0.10517-0.0026-0.090165-0.0049-0.090165-0.01005-0.087652-0.015-0.087652-0.01751-0.08514-0.02254-0.08514-0.02505-0.082627-0.02756-0.082627-0.03251-0.08019-0.03511-0.077602-0.04006-0.075164-0.04257-0.075164-0.04509-0.072652-0.04752-0.070139-0.05262-0.070139-0.05263-0.065113-0.05757-0.062601-0.06009-0.062601-0.06268-0.057575-0.06511-0.055138-0.06511-0.05255-0.07014-0.050113-0.07265-0.0476-0.07265-0.045087-0.0776-0.040062-0.0776-0.037625-0.08019-0.035027-0.08263-0.030086-0.0827-0.027574-0.08514-0.022539-0.08765-0.020026-0.08734-0.014925z" fill="#fecd00" fill-rule="evenodd" stroke="#000" stroke-linecap="round" stroke-linejoin="round" stroke-width="2.3616"/>
</svg>
