<svg width="20" height="20" overflow="visible" xmlns="http://www.w3.org/2000/svg">
 <path d="m2.1902 19.409-0.25501-0.0058-0.15645-0.04636-0.13911-0.11007-0.1333-0.13332-0.09855-0.12749-0.098485-0.1855-0.086924-0.20862-0.046363-0.23186-0.00582-0.24918 0.028974-0.19123 0.06378-0.21441 0.052175-0.16815 0.5042-1.1823 0.46944-0.89254 0.07532-0.13905 0.06379-0.12749 0.04057-0.18547 0.046363-0.21445 0.00582-0.11017v-0.13905l-0.00582-0.11014 0.00582-0.09275-0.00582-0.12752 0.023148-0.13328 0.00582-0.13332 0.04057-0.11007 0.081129-0.12749 0.092735-0.14494 0.052185-0.12749 0.10434-0.16809 0.08113-0.19127 0.05792-0.16809 0.034758-0.12166 0.017417-0.10431 0.1333-1.1128-1.7213 0.0058-0.10436-0.05789-0.086925-0.05219-0.063715-0.02904-0.06378-0.06951-0.046391-0.08696-0.046363-0.12169-0.011624-0.13332 0.2666-1.588 0.53325-0.34775-0.43467-0.3825 0.017417-0.12757 0.00576-0.092669 0.06379-0.08113 0.034739-0.11015 0.02904-0.1333 0.05792-0.09855 0.057985-0.16226v-0.07534l-0.26081-0.063794-0.32462-0.017336-0.18539-0.046358-0.17968-0.05219-0.075415-0.00579-0.023144-0.040579-0.023205-0.05217v-0.0579l0.005816-0.08113 0.029041-0.0754v-0.20864l0.063715-0.17968 0.1333-0.22605 0.058-0.12751 0.10426-0.21443 0.06379-0.14484 0.12749-0.24918 0.098484-0.26662 0.13338-0.26662 0.046297-0.41153-0.5622-0.09267-0.10428-0.27241-0.046363-0.19709-0.052185-0.22026-0.011605-0.14483 0.081115-0.1913v-0.023148l-0.081115-0.14491-0.0579-0.098564-0.029041-0.09847-0.052185-0.12177v-0.086945l-0.005755-0.16805-0.005816-0.098485v-0.0754l0.023148-0.13901 0.05798-0.081225 0.017336-0.046278 0.075415-0.034848 0.063695-0.05209 0.07532-0.15653 0.08694-0.11588 0.11598-0.1275 0.10426-0.11598 0.17386-0.11588 0.11017-0.09855 0.1912-0.011525 0.15073-0.040565 0.25501-0.05798 0.15645-0.05219 0.16805-0.028941 0.21445-0.069605 0.034834-0.040565 0.1275 0.034834 0.1333 0.040565 0.15065 0.02896 0.11587 0.011605 0.31881-0.011605 0.23185-0.063795 0.14484-0.05209 0.13911-0.069605 0.17968-0.12749 0.13911-0.10428 0.37671 0.092655 0.11007 0.00581 0.12179-0.00581 0.14483-0.00573 0.1333-0.034834 0.11596-0.017336 0.09267-0.034753 0.06959-0.069605 0.12169-0.10428 0.13332-0.092734 0.23758-0.011605 0.098565-0.011624 0.11587 0.00581 0.092754 0.00581 0.16805-0.069525 0.075415-0.05217 0.11009-0.046386 0.12169-0.10434 0.12749-0.05209 0.12177-0.11596h11.554c0.45265 0 0.81965 0.36696 0.81965 0.81965v17.179c0 0.45268-0.36698 0.81965-0.81965 0.81965z" clip-rule="evenodd" fill="#fff" fill-rule="evenodd" stroke="#000" stroke-width="1.181"/>
</svg>
