<svg width="20" height="20" version="1.1" xmlns="http://www.w3.org/2000/svg">
 <g transform="matrix(.5 0 0 .5 -92.108 -741.84)">
  <path d="m184.24 1492.6 14.151-8.879h25.805v31.077l-14.151 8.879h-25.805z" fill="#fff" stroke="#000" stroke-width=".044395"/>
  <path d="m198.87 1485.4-12.967 8.1364v28.493h23.662l12.967-8.1364v-28.493z" fill="#006747" stroke-width=".012332"/>
  <path transform="translate(184.22,1483.7)" d="m6.543 9.873v4.1621h8.3242v22.613h4.1621v-22.613h8.3242v-4.1621h-20.811z" fill="#fff" stroke-width=".053939"/>
  <path transform="translate(184.22,1483.7)" d="m21.248 3.6289v27.609h4.1621v-10.961c4.5973 0 8.3242-3.7269 8.3242-8.3242s-3.7269-8.3242-8.3242-8.3242h-4.1621zm4.1621 4.1621c2.2986 0 4.1621 1.8635 4.1621 4.1621s-1.8635 4.1621-4.1621 4.1621z" fill="#fff" stroke-width=".066946"/>
 </g>
</svg>
