<svg width="20" height="20" version="1.0" xmlns="http://www.w3.org/2000/svg">
 <path d="m0.59077 0.47843c0.34125 0.049851 1.1825-0.10687 1.4092 0.20877 0.39179 0.74607 0.76582 0.94792 0.77414 1.6032-0.10544 0.33871 0.063246 0.7623 0.45173 0.70958 4.6816 0.1887 12.774 0 12.774 0v2h3.5l8.9e-5 8h-1.5v2s-1.4524 0.04287-2.0491 0c-0.22901 1.2242 0.28181 2.3578 0.72727 3.3754-0.76235 0.34498-1.5272 0.78105-2.2902 1.1246-0.54402-0.30678-0.61581-0.64425-0.74308-1.2776-0.39857-0.87561-0.29748-0.94258-0.89167-1.3634-0.17122-0.34915-1.3951-1.1152-1.7394-0.92616-0.65965 0.13535-0.62729 0.24873-1.1382 0.68713-0.46928 0.36741-0.92259-0.0838-1.4341-0.02323-0.37928 0.12768-0.90435 0.54019-1.0216 0.93753-0.16124 0.53201-0.94235-0.20002-1.415-0.005899-0.45382 0.21466-0.66952 0.22477-0.8449 0.75055-0.2802 0.49524-0.32224 0.66104-0.88067 0.95484-0.41093 0.22885-0.92988 0.1612-1.3841 0.26672-0.63369 0.1564-1.0751-0.62251-1.6926-0.43899-0.22004 0.036838-0.79016 0.86752-0.70254 0.4385 0.030562-6.4259 0-19 0-19z" fill="#fff" stroke="#f38f00" stroke-linecap="round" stroke-linejoin="round" stroke-width=".957"/>
</svg>
