<svg xmlns="http://www.w3.org/2000/svg" width="20.99" height="20.0016" viewBox="0 0 20.99 20.0016">
  <path d="M20.1787,3.81l-.1349.1866-.1236.1923-.1209.198-.1124.1979-.104.2037-.0955.2092-.09.2121-.0815.215-.0731.2177-.0646.2178-.0562.2234-.0506.2262-.0393.2263-.0338.2262-.0224.2291-.0169.2319-.0056.2291V7.682l.0112.229.02.2291.0253.2291.0337.2262.045.2263.0477.2262.0647.2206.0674.2206.0759.2149.0815.2149.09.2093.1012.2065.1067.2036.1125.1979a4.5639,4.5639,0,0,1,.0618,4.5589,4.4985,4.4985,0,0,1-3.9342,2.302l-.3063.0028-.29.0142-.2922.0226-.29.0311-.2866.0424-.2866.0509-.2838.0594-.2811.0679-.281.0763-.281.0877-.2726.0905-.2754.1047-.2669.1131-.2642.1216-.2613.1272-.2557.1358-.2558.1442-.2472.1556-.2445.1612-.2389.1668-.236-.1668-.2445-.1612L9.7756,18.89l-.2529-.1442L9.2641,18.61l-.2585-.1272-.2669-.1216-.27-.1131-.2726-.1047-.2726-.0905-.2782-.0877-.281-.0763-.2838-.0679-.2838-.0594L6.51,17.71l-.2894-.0424-.2867-.0311L5.65,17.6141,5.3356,17.6H5.0433a4.525,4.525,0,0,1-3.8667-6.8637l.1124-.1979.1124-.2036.0674-.2065.1125-.2093.09-.2149.0674-.2149.0675-.2206.0674-.2206.045-.2262.0449-.2263.045-.2262L2.0309,8.14l.0225-.2291V7.2238l-.0225-.2319-.0225-.2291-.0225-.2262L1.9409,6.31,1.896,6.0841l-.0675-.2234-.0674-.2178-.0674-.2177-.09-.215-.09-.2121-.09-.2092-.09-.2037-.1124-.1979-.1349-.198L.9518,3.997.8169,3.81,3.9193.7006l.2248.1878.2248.1833.2473.1742.2473.1674.2473.1629.2248.1538.27.1448.2472.14.267.1312.267.1245.27.1142.27.1075.2782.1018.2754.0933.281.082.281.0764.2867.0679.2838.0593.2894.0481.29.0453.2894.0311.2923.0283.2922.0169.2923.0057H10.65l.2923-.0057.2922-.0169.2923-.0283.2894-.0311.2923-.0453.2866-.0481.2867-.0593.2838-.0679.2838-.0764.281-.082.2782-.0933.2754-.1018.2726-.1075.27-.1142.2641-.1245.2614-.1312.2585-.14.2529-.1448.25-.1538.2417-.1629.2445-.1674.2332-.1742.23-.1833.2248-.1878Z" transform="translate(-0.0029 -0.0018)" fill="#d10f0e" stroke="#fff" stroke-miterlimit="10" stroke-width="1.0313"/>
</svg>
