<svg width="25.86" height="20" version="1.0" xmlns="http://www.w3.org/2000/svg">
 <path d="M2.969 18.641s-.978-2.006-.473-3.93c-.15-.517-.71-2.283-.111-3.998.174-.253-.47-1.116-.512-1.435C1.721 8.107.967 1.25.785.625 6.73.583 16.837.592 16.837.592s-.119.82-.157.969c-.282 1.097.413 1.073.65 1.083.611.025.354-.004.753.079.407.112.33.315 1.266 1.279.873 1.023 1.428 1.063 2.314 1.917 1.514 1.053 3.932 2.76 3.569 3.795-1.029 2.218-1.669 3.694-1.988 5.926-.177 1.422-1.024 2.955-1.966 2.939-.727-.014-.44.158-.714.472a.994.994 0 0 1-.774.36c-.357 0-.631-.04-.853-.32-.337-.423.101-.567-.878-.537-.89.027-15.09.087-15.09.087" fill="#fff" fill-rule="evenodd" stroke="#000" stroke-linecap="round" stroke-width="1.181"/>
</svg>
