<svg width="25" height="20" xmlns="http://www.w3.org/2000/svg">
 <rect style="fill:#fff;fill-rule:evenodd;stroke:#000" width="24" height="19" x=".5" y=".5" rx="1.5" ry="1.5"/>
 <path d="m2.0002 6.6633v4.4207c0 0.0086 5.729e-4 0.01661 0.00403 0.02521 0.00403 0.0092 0.00973 0.01605 0.015465 0.02349l0.00111 0.0017c0.00403 0.0046 0.00745 0.0086 0.011457 0.01317 0.00513 0.0051 0.00973 0.01032 0.014322 0.01661 0.00745 0.01032 0.014321 0.02177 0.020625 0.0338 0.00687 0.01204 0.012032 0.02407 0.017186 0.03781 0.00575 0.01548 0.00917 0.03094 0.0086 0.0464-5.729e-4 0.0063-0.00228 0.01204-0.00458 0.01833-0.00174 0.0051-0.00347 0.01032-0.00403 0.01548-0.00118 8e-3 -0.00174 0.01661-0.00174 0.02521-5.727e-4 0.0098-0.00111 0.02006-0.00228 0.02979-0.00174 0.0074-0.00403 0.01489-0.00631 0.02234-0.00284 8e-3 -0.00513 0.01605-0.00687 0.02407-0.00118 0.0092-0.00174 0.01891-0.00228 0.02807-5.728e-4 0.0074-5.728e-4 0.01489-0.00174 0.02234-5.728e-4 0.0074-0.00228 0.01432-0.00403 0.0212-0.00174 0.0086-0.00403 0.01719-0.00458 0.0252 0 0.0035 0.00111 0.0069 0.00228 0.0098 0.00118 0.0023 0.00174 0.0051 0.00228 0.0074 0 0.0023 0 0.0046-5.729e-4 0.0074 0 0.0029-5.728e-4 0.0063 5.729e-4 0.0092 0.00284 0.01204 0.00745 0.02292 0.012601 0.03379l0.00631 0.01432c0.00687 0.01661 0.014321 0.03323 0.022914 0.04927 0.010313 0.02407 0.020625 0.04754 0.030938 0.07161 0.025779 0.06072 0.052125 0.12144 0.079055 0.18159 0.01833 0.04067 0.072182 0.03095 0.1266 0.02119 0.050981-0.0086 0.10254-0.01662 0.1266 0.01661 0.020625 0.02922 0.041244 0.05842 0.059005 0.08879l0.022339 0.03666c0.00917 0.01605 0.018905 0.03208 0.028642 0.04811 0.00575 0.0092 0.011457 0.01891 0.017761 0.02807 0.00973 0.01605 0.020049 0.03207 0.028642 0.04753 0.00973 0.01775-0.00513 0.03608-0.020625 0.05442-0.00917 0.01145-0.017761 0.02292-0.02177 0.03437l-0.029204 0.0928c-0.011457 0.03551-0.022914 0.07046-0.033795 0.10598-0.00802 0.02407-0.033227 0.03781-0.059005 0.05156-0.028074 0.01488-0.055565 0.02979-0.059574 0.05785-0.011457 0.08765-0.00973 0.17529-0.0086 0.26237l5.73e-4 0.02921c0 0.02578 0.00228 0.05155 0.00458 0.07733 0.00284 0.03724 0.00631 0.07504 0.00347 0.11228-0.0086 0.13863-0.0928 0.27038-0.19419 0.36777-0.020049 0.0189-0.040099 0.03724-0.060725 0.05557-0.014897 0.01376-0.029787 0.0275-0.044685 0.04124-0.00973 0.0092-0.019474 0.01776-0.029218 0.02693-0.02349 0.02061-0.046972 0.04181-0.067597 0.06587-0.00631 0.0074-0.00973 0.01661-0.013745 0.02578-0.00174 0.0059-0.00403 0.01145-0.00687 0.01662-0.025202 0.02921-0.044108 0.06988-0.054996 0.10998-0.00403 0.01316-0.00631 0.02693-0.0086 0.0401-0.00347 0.01775-0.00687 0.0355-0.012601 0.0527-0.00917 0.02693-0.019474 0.05327-0.029788 0.0802-0.00228 0.0065-0.00513 0.01262-0.0086 0.01832-0.00513 0.01031-0.010313 0.02061-0.012033 0.03208-0.00228 0.01432-0.00284 0.02808-0.00347 0.04239-5.73e-4 0.0059-5.73e-4 0.01145-0.00118 0.01718l-0.00111 0.01548c-0.00118 0.02005-0.00228 0.0401-0.00284 0.06015-5.729e-4 0.01662 0.00111 0.03266 0.00284 0.04869 5.729e-4 0.0035 0.00111 0.0069 0.00111 0.01031 0.00284 0.02463 0.00631 0.04811 0.012601 0.07218 0.00575 0.01947 0.014897 0.03724 0.025202 0.05499 0.015465 0.02521 0.030932 0.04983 0.050981 0.07161 0.016041 0.0172 0.03265 0.0338 0.049837 0.04984 0.013177 0.01261 0.025779 0.02578 0.03838 0.03895 0.00687 0.0074 0.014321 0.01489 0.02177 0.02235 0.015465 0.0172 0.030937 0.03437 0.045829 0.05327 0.012033 0.01605 0.017186 0.03551 0.021194 0.05499 0.0086 0.04352 0.012601 0.08708 0.012601 0.13118v0.01204c0 0.03379 0 0.06817-0.012601 0.10197-0.00745 0.0189-0.015465 0.03724-0.02349 0.05498-0.00513 0.01089-0.010312 0.02176-0.014897 0.03322-0.015466 0.03838-0.030938 0.0762-0.046397 0.114-0.00228 0.0065-0.00513 0.0126-0.00802 0.0189-0.00687 0.01605-0.014321 0.03152-0.017185 0.04869-0.00228 0.01204-0.00284 0.02463-0.00347 0.03666 0 0.0045-5.729e-4 0.0092-5.729e-4 0.01432v2.8248h7.0004v-4.3193c-0.00349-4e-3 -0.00744-0.0074-0.010879-0.01145l-0.00228-0.0016c-0.00285-0.0035-0.00584-0.0065-0.00917-0.0098-0.00684-0.0074-0.014326-0.01489-0.021201-0.02291-0.013756-0.01548-0.027498-0.03094-0.040678-0.04754-0.00634-0.0069-0.01204-0.01433-0.017176-0.02177-0.00584-0.0074-0.011462-0.01489-0.01719-0.02235l-0.00744-0.01089-0.0086-0.01145c-0.00584-0.0074-0.011462-0.01432-0.017183-0.02177-0.00164-0.0023-0.00285-4e-3 -0.00456-0.0059-0.00456-0.0051-0.00974-0.01031-0.014896-0.01548-0.00285-0.0035-0.00634-0.0065-0.010315-0.0098l-0.00399-4e-3 -0.022348-0.01948-0.016044-0.01375c-0.00745-0.0069-0.014896-0.01376-0.022348-0.02177-0.00228-0.0023-0.00456-0.0045-0.00684-0.0074-0.00128-0.0013-0.00164-0.0023-0.00285-0.0029-5.726e-4 -0.0013-0.00164-0.0023-0.00228-0.0035-0.00164-0.0023-0.00285-0.0045-0.00456-0.0069-0.00277-0.0045-0.00513-0.0098-0.00684-0.01488-0.00349-0.0098-0.00684-0.01948-0.010315-0.02922l-5.727e-4 -0.0023c-0.00129-0.0045-0.00285-0.0092-0.00456-0.01375-0.00164-0.0065-0.00399-0.01262-0.00584-0.0189-0.00228-0.0051-0.00456-0.01031-0.00744-0.01548-0.00164-0.0023-0.00285-0.0051-0.00456-0.0074-0.00164-0.0023-0.00349-0.0051-0.00513-0.0074l-0.00684-0.0092c-0.00228-0.0029-0.00456-0.0059-0.00684-0.0086l-5.706e-4 -0.0013c-0.00513-0.0065-0.010308-0.01145-0.016036-0.01775-0.00128-5.27e-4 -0.00228-0.0016-0.00349-0.0028-0.00399-0.0045-0.0086-0.0086-0.014319-0.0092l-0.01947-0.0016-0.071606 0.01662-0.021763 0.0051c-0.022341 0.0051-0.044674 0.01031-0.067022 0.01605-0.028638 0.0074-0.042395 0.04124-0.050986 0.07218-0.00129 0.0059-0.00285 0.01145-0.00399 0.01662l-0.0086 0.03838c-0.00228 0.01316-0.00513 0.02693-0.00802 0.0401l-0.00456 0.02292c-0.00228 0.01262-0.00634 0.02521-0.00974 0.03781-0.00456 0.01432-0.0086 0.02808-0.010879 0.04239-0.00128 0.0059 0.00228 0.01204 0.00634 0.01661 0.00399 0.0035 0.00802 0.0065 0.01204 0.0098 0.00228 0.0016 0.00456 4e-3 0.00634 0.0059 0.00513 0.0045 0.010315 0.0092 0.015466 0.01318 0.00129 0.0013 0.00228 0.0029 0.00228 0.0045 0 0 0 5.23e-4 -5.721e-4 0.0013-5.734e-4 0.0016-0.00228 0.0035-0.00399 4e-3 -0.011462 0.0029-0.02291 0.0029-0.034365 0.0023-0.00974 0-0.019477 0-0.029215 0.0016l-0.011462 0.0023c-0.011462 0.0016-0.022348 0.0035-0.033789 0.0059-0.00684 0.0016-0.013749 0.0035-0.020617 0.0045-0.0086 0.0016-0.016606 0.0035-0.024628 0.0051-0.013749 0.0029-0.026929 0.0059-0.040669 8e-3l-0.00456 0.0013c-0.015466 0.0029-0.030362 0.0051-0.045829 0.0069-0.010315 0.0013-0.021201 0.0013-0.031508-5.26e-4l-0.017183-0.0035-0.014319-0.0023c-0.010879-0.0023-0.021201-4e-3 -0.032086-0.0059-0.010308-0.0023-0.021194-0.0016-0.031508-5.27e-4 -0.012032 0.0016-0.024628 4e-3 -0.036097 8e-3 -0.012032 0.0045-0.023481 0.0086-0.035512 0.01262l-0.016044 0.0059c-0.00634 0.0023-0.012617 0.0045-0.019476 0.0069-0.011462 0.0045-0.024057 0.0069-0.036097 0.0092-0.024058 0.0035-0.048114 0.0059-0.072183 8e-3 -0.023488 0.0023-0.047538 4e-3 -0.071606 0.0045-0.01432 0-0.028068 0-0.042387-0.0013l-0.041821-0.0051-0.042381-0.0051c-0.013753-0.0016-0.028066-0.0023-0.042395-0.0013-0.022338 0.0013-0.044101 0.0086-0.064157 0.02006-0.010305 0.0059-0.020049 0.01204-0.029788 0.01832-0.00973 0.0069-0.018898 0.01376-0.028642 0.02061-0.00167 0.0013-0.00291 0.0023-0.00451 0.0045-0.00403 0.0059-0.00631 0.01204-0.00631 0.0189v0.01775c0 0.0045 5.729e-4 0.0098 5.729e-4 0.01432 0 0.0098 0 0.01947-5.729e-4 0.02978 0 0.0035-0.00167 0.0069-0.00451 0.01032-0.00291 0.0029-0.00575 0.0045-0.00973 0.0059-0.00513 0.0013-0.00973 0.0016-0.014904 0.0013h-0.00167c-0.00451 0-0.00917 0-0.013753-0.0013-0.00802-0.0023-0.015466-0.0045-0.023483-0.0069l-0.00687-0.0016c-0.00458-0.0013-0.0086-0.0029-0.012601-4e-3 -0.00631-0.0023-0.012033-4e-3 -0.01833-0.0059-0.010312-0.0029-0.020618-4e-3 -0.030938-0.0029-0.016035 0.0016-0.03265 0.0035-0.049268 0.0051l-0.021194 0.0029c-0.00973 0.0013-0.018898 0.0023-0.028636 0.0035-0.016035 0.0023-0.03265 4e-3 -0.049268 0.0059-0.01661 0.0016-0.033227 0.0029-0.049837 4e-3 -0.020049 0.0013-0.039531 0.0016-0.059574 0.0023-0.019474 0-0.038954 5.25e-4 -0.05843 0.0016-0.015465 0.0013-0.031507 0.0016-0.046972 0.0035-0.00513 5.26e-4 -0.010312 0.0013-0.016042 0.0016l-0.00687 5.25e-4c-0.00803 5.23e-4 -0.015465 0.0016-0.022914 0.0029-0.00803 0.0013-0.014897 8e-3 -0.017186 0.01548-0.00284 0.0092-0.00403 0.01832-0.00575 0.02749v0.0029c-0.00118 0.0045-0.00174 0.0092-0.00228 0.01433-5.728e-4 0.0051-0.00111 0.01088-0.00228 0.01605-5.729e-4 4e-3 -0.00174 0.0074-0.00403 0.01088-0.00174 0.0029-0.00403 0.0045-0.00687 0.0059-0.00745 0.0023-0.014897 0.0023-0.022339 0.0016-0.00973-0.0013-0.018905-0.0023-0.028066-0.0051-0.00973-0.0029-0.01833-0.0065-0.026923-0.01145-0.00803-0.0051-0.014897-0.01088-0.019474-0.0189-0.00687-0.01031-0.012601-0.0212-0.017186-0.03264l-0.01507-0.03309-0.014897-0.03322c-0.00458-0.01088-0.010312-0.02177-0.01661-0.03151-0.00513-0.0086-0.010888-0.01719-0.01661-0.02521-0.00284-4e-3 -0.00575-8e-3 -0.0086-0.01261-0.00284-4e-3 -0.00631-8e-3 -0.00917-0.01204-0.00513-8e-3 -0.010882-0.01548-0.016041-0.02349l-0.00111-0.0016c-0.00575-0.0086-0.010883-0.01719-0.016041-0.02635-0.0086-0.01776-0.013753-0.03609-0.01661-0.05499-0.00111-0.0069-0.00174-0.01432-0.00174-0.02119 5.729e-4 -0.0069 5.729e-4 -0.01375 0.00111-0.0212 0-0.0035 0-0.0064 5.728e-4 -0.0098 0-4e-3 5.729e-4 -0.0074 5.729e-4 -0.01145 0-0.0065 0-0.0126-5.729e-4 -0.0189v-0.0023c-0.00174-0.02235-0.00575-0.04467-0.011456-0.06702-0.00631-0.02292-0.017186-0.04353-0.030938-0.06358-0.00513-0.0074-0.011456-0.01376-0.01833-0.02005-0.00631-0.0059-0.012601-0.01089-0.020049-0.01547-0.014897-8e-3 -0.029788-0.01489-0.045829-0.01948-0.00745-0.0016-0.014897-4e-3 -0.022339-0.0051-0.00745-0.0013-0.014897-0.0023-0.022339-0.0035l-0.010313-0.0016c-0.00403-5.27e-4 -0.00803-0.0013-0.012033-0.0016-0.00687-0.0013-0.013745-0.0029-0.020049-0.0045h-0.00174c-0.019474-0.0045-0.03838-0.01032-0.05786-0.01604-0.019474-0.0059-0.037811-0.01316-0.056141-0.02235-0.0086-4e-3 -0.016041-0.0092-0.024058-0.01432-0.00745-0.0051-0.014321-0.01145-0.020619-0.01832-0.012032-0.01432-0.021194-0.02978-0.027498-0.04753-0.00228-0.0069-0.00347-0.01375-0.00458-0.0212l-5.729e-4 -0.0035c-0.00119-0.0059-0.00174-0.01145-0.00228-0.0172-5.729e-4 -0.01432-0.00111-0.02864-5.729e-4 -0.04239 0-0.01088 5.729e-4 -0.0212 0.00174-0.03151 0-0.0059 5.729e-4 -0.01145 0.00118-0.01719 5.727e-4 -0.0045 0.00111-0.0098 0.00174-0.01489 0.00118-0.01031 0.00174-0.0212 0.00284-0.03151 5.73e-4 -0.0098 5.73e-4 -0.01947 5.73e-4 -0.02922v-0.0023c5.729e-4 -0.02062-0.00228-0.04067-0.00631-0.06071-0.00403-0.02061-0.012033-0.03952-0.022914-0.05785-0.00631-0.0092-0.012601-0.01832-0.020049-0.02636-0.00687-8e-3 -0.014321-0.01605-0.02177-0.02406l-0.010313-0.01031c-0.00403-4e-3 -0.00803-8e-3 -0.012032-0.01204-0.00687-8e-3 -0.013745-0.01548-0.020619-0.02406-0.00745-0.0098-0.014321-0.02005-0.021194-0.03037l-0.041236-0.06189c-0.00687-0.01031-0.014322-0.02062-0.021771-0.03037-0.00745-0.0098-0.017186-0.01776-0.028066-0.02406-0.00575-0.0041-0.012608-0.0074-0.018905-0.01088-0.00458-0.0029-0.00973-0.0058-0.014897-0.0086-0.00917-0.0058-0.01833-0.01088-0.027498-0.01775-0.00119-5.25e-4 -0.00284-0.0017-0.00403-0.0029-0.00973-0.0075-0.016616-0.01783-0.020626-0.02871-0.019474-0.05785-0.037236-0.11515-0.054989-0.173l-0.00854-0.0287c-0.00973-0.03265-0.020049-0.0653-0.029218-0.09796-0.00458-0.01548-0.00687-0.03152-0.0086-0.04754-0.00119-0.0086-0.00174-0.01776-0.00174-0.02693-5.679e-4 -0.0069-0.00119-0.01433-0.00174-0.0212-0.00118-0.01605-0.00347-0.03207-0.00575-0.04811-0.00228-0.01662-0.0086-0.03151-0.016041-0.04639-0.00174-0.0035-0.00403-0.0064-0.00687-0.0086-0.00284-0.0023-0.00575-0.0046-0.00917-0.0058-0.00745-0.0023-0.014897-0.0041-0.022339-0.0051-0.00403-5.26e-4 -0.00803-0.0012-0.012033-0.0012-0.00403-5.25e-4 -0.0086-0.0012-0.012601-0.0017-0.00745-0.0012-0.014897-0.0035-0.02177-0.0074-0.010882-0.0063-0.021194-0.01375-0.030938-0.02234-0.00973-0.0086-0.019474-0.01719-0.029787-0.0252l-0.015241-0.01319-0.014897-0.01261c-0.00905-8e-3 -0.019356-0.01488-0.029093-0.02176l-0.00228-0.0017c-0.014321-0.01032-0.029788-0.01775-0.046403-0.02463-0.00745-0.0035-0.016042-0.0051-0.02349-0.0046-0.00687 5.25e-4 -0.013178 0.0028-0.018905 8e-3 -0.00228 0.0023-0.00403 0.0046-0.00575 0.0069l-5.688e-4 5.24e-4 -0.00119 0.0017c-0.00118 0.0023-0.00284 0.0046-0.00403 0.0069-0.00284 0.0064-0.00575 0.01261-0.0086 0.01891-0.00119 0.0029-0.00284 0.0057-0.00403 0.0092-0.00119 0.0029-0.00284 0.0064-0.00403 0.0098-0.00284 0.0064-0.00631 0.01204-0.00973 0.01775-0.020049 0.03322-0.041244 0.0653-0.067598 0.0928-0.00631 0.0064-0.012601 0.01204-0.018905 0.01776-0.00284 0.0023-0.00575 0.0046-0.0086 0.0074-0.00347 0.0029-0.00687 0.0058-0.010881 0.0092-0.00284 0.0029-0.00631 0.0051-0.00973 8e-3 -0.00973 0.0086-0.018905 0.01661-0.028067 0.0252l-0.080196 0.0802-0.050412 0.05098c-0.00284 0.0029-0.00631 0.0046-0.00973 0.0058-0.00403 0.0017-0.00803 0.0017-0.011456 0.0012-0.0086-0.0023-0.01661-0.0051-0.024634-0.01088-0.017186-0.01261-0.030932-0.02579-0.042963-0.0424-0.0086-0.01145-0.01661-0.02292-0.024058-0.03552l-0.00403-0.0063c-0.00513-0.0098-0.010881-0.01949-0.016041-0.02922-0.012601-0.0235-0.024633-0.04811-0.036091-0.07275-0.00458-0.0098-0.00917-0.01949-0.012601-0.02922-0.00284-0.0074-0.00513-0.01489-0.00575-0.02292-0.00118-8e-3 -0.00174-0.01605-0.00228-0.0235 0-0.0046 0-0.0086-5.681e-4 -0.01317 0-0.0035-5.679e-4 -0.0069-5.679e-4 -0.01088-5.68e-4 -0.0074-0.00174-0.01489-0.00403-0.02292-0.00228-0.0086-0.00687-0.01605-0.013745-0.02234-0.00631-0.0058-0.013177-0.01145-0.020049-0.01776l-0.00174-0.0012c-0.00347-0.0029-0.00687-0.0058-0.00973-0.0086-0.00458-0.0029-0.0086-0.0064-0.012601-0.0098-0.00631-0.0057-0.010313-0.01261-0.013745-0.02062-0.00228-0.0058-0.00284-0.01145-0.00284-0.01776 0-0.0069 0-0.01317 0.00118-0.02006 0.00118-0.0069 0.00284-0.01317 0.00631-0.01948 0.00347-0.0057 0.00687-0.01088 0.012601-0.01432 0.016042-0.01032 0.032082-0.01949 0.048116-0.02807l0.00228-0.0017c0.012601-0.0064 0.024634-0.01261 0.037236-0.01891 0.014321-0.0074 0.028642-0.01489 0.042963-0.02292 0.012032-0.0069 0.025203-0.01548 0.034371-0.02636 0.00631-0.0069 0.010882-0.01548 0.012032-0.02463 5.681e-4 -0.0017 0-0.0035 0-0.0051v-0.0024c0-0.0017-5.686e-4 -0.0035-5.686e-4 -0.0051-5.681e-4 -0.0046-0.00118-0.0092-0.00228-0.01317-0.00228-0.0092-0.00458-0.01833-0.00803-0.02693-0.00284-0.0064-0.00575-0.01261-0.00803-0.01891l-0.00575-0.01261-0.00917-0.02119c-0.00174-0.0051-0.00403-0.0098-0.00631-0.01432-0.00403-8e-3 -0.00745-0.01548-0.010313-0.0235-0.00174-0.0041-0.00228-0.0086-0.00284-0.01318-5.68e-4 -0.0023-5.68e-4 -0.0051-0.00174-8e-3 -0.00118-0.0058-0.00228-0.01145-0.00403-0.01719-0.00118-0.0051-0.00284-0.01088-0.00403-0.01661l-0.00857-0.04645c-0.00228-0.01145-0.00284-0.0235-0.00118-0.03496 0.00174-0.01145 0.00347-0.02292 0.00575-0.03496 5.686e-4 -0.0051 0.00174-0.01089 0.00284-0.01605 0.00119-0.0063 0.00228-0.01261 0.00347-0.01891 0.00174-0.01145 0.00228-0.02292 0.00174-0.03438-0.00119-0.01489-0.00284-0.02922-0.00631-0.04353-0.00174-0.0074-0.00347-0.01489-0.00458-0.02177-0.00174-0.0074-0.00347-0.01433-0.00513-0.02119-0.00284-0.01433-0.00631-0.02864-0.00917-0.04353-0.00284-0.01432-0.00403-0.02864-0.00458-0.04353v-0.07162c5.687e-4 -0.01489 5.687e-4 -0.02979 0-0.04468 0-0.03838-5.68e-4 -0.07733 0.00458-0.11572 0.00228-0.01833 0.00458-0.03608 0.00745-0.05442 0.00174-0.01145 0.00347-0.02292 0.00513-0.03438l0.00458-0.0338c0.00458-0.02979 0.0086-0.059 0.012032-0.08879 0.00284-0.01833 0.00403-0.03667 0.00575-0.05499l0.00119-0.01032c5.688e-4 -0.0063 0.00118-0.01316 0.00174-0.01949l5.687e-4 -0.01317c0.00118-0.01088 0.00228-0.02177 0.00403-0.03265 5.679e-4 -0.0057 0.00228-0.01088 0.00513-0.01605 0.00284-0.0051 0.00631-0.0098 0.00973-0.01432 0.00118-0.0023 0.00284-0.0046 0.00458-0.0063 0.00174-0.0029 0.00403-0.0051 0.00575-8e-3 0.00347-0.0046 0.00575-0.0092 0.00803-0.01432 0.00575-0.01145 0.00973-0.02349 0.013745-0.03551 0.00403-0.01261 0.00687-0.02578 0.00917-0.03838 0.00228-0.01261 0.00228-0.02578-0.00174-0.03781-0.00403-0.01261-0.010883-0.02292-0.021194-0.03208-0.00174-0.0017-0.00347-0.0029-0.00575-0.0041-0.00228-0.0013-0.00403-0.0023-0.00631-0.0035-0.00403-0.0017-0.00803-0.0029-0.012601-0.0035-0.0086-0.0013-0.017186-0.0017-0.025779-0.0017-0.028074-5.16e-4 -0.056141-0.0013-0.084207 0.0041-0.00458 0.0013-0.00917 0.0029-0.012601 0.0057-0.00403 0.0029-0.00745 0.0057-0.011457 0.0086-0.00174 0.0013-0.00347 0.0029-0.00513 0.0041-0.00174 0.0017-0.00403 0.0035-0.00575 0.0046-0.00347 0.0029-0.00745 0.0051-0.011456 0.0069-0.016042 0.0074-0.03265 0.01145-0.049268 0.01375-0.016041 0.0017-0.03265 5.16e-4 -0.048116-0.0098-0.013745-0.0086-0.022339-0.01891-0.030932-0.03037-0.00403-0.0063-0.0086-0.01204-0.012033-0.01833-0.00403-0.0063-0.00803-0.01204-0.012032-0.01891-0.00347-0.0063-0.00631-0.01317-0.00802-0.02006-0.00118-0.0041-0.00228-8e-3 -0.00284-0.01204-5.687e-4 -0.0034-0.00119-0.0063-0.00228-0.0098-0.00174-0.0069-0.00347-0.01375-0.00687-0.02062-0.00284-0.0069-0.00745-0.01261-0.013745-0.01776-0.00228-0.0017-0.00513-0.0034-0.00803-0.0052-0.00284-0.0017-0.00575-0.0034-0.0086-0.0046-0.00631-0.0023-0.012032-4e-3 -0.01833-0.0052-0.012032-0.0029-0.024058-0.0046-0.036659-0.0057-0.00458-5.16e-4 -0.00917-0.0012-0.013753-0.0012-0.00458 0-0.00917 0-0.013745 5.16e-4 -0.00513 5.15e-4 -0.010312 0.0012-0.015465 0.0023-0.00458 5.15e-4 -0.0086 0.0012-0.012601 0.0017-0.00917 0.0012-0.018905 0.0012-0.028066 5.16e-4 -0.00917 0-0.017761-0.0034-0.026354-0.0086-0.00403-0.0023-0.00745-0.0052-0.010881-8e-3 -0.00403-0.0029-0.00687-0.0057-0.010312-0.0092-0.00575-0.0063-0.011456-0.01316-0.016041-0.02062-0.00917-0.01548-0.017761-0.03094-0.025779-0.04641l-0.00347-0.0069c-0.00403-0.0075-0.0086-0.01548-0.012032-0.02349-0.00284-0.0057-0.00513-0.01145-0.00745-0.01719l-0.00631-0.01376c-0.00513-0.01031-0.00973-0.02062-0.014321-0.03094-0.00458-0.01031-0.010312-0.02062-0.015465-0.03036-0.012033-0.020045-0.024634-0.03895-0.038955-0.057282-0.00745-0.00917-0.014897-0.018331-0.022339-0.026924-0.00745-0.0086-0.014897-0.017193-0.02349-0.025776-0.00687-0.0063-0.014321-0.012603-0.022914-0.01661-0.00917-0.00459-0.017761-0.0086-0.026923-0.012036-0.00458-0.00228-0.00917-0.00401-0.013753-0.00572-0.00458-0.00173-0.00917-0.00401-0.013745-0.00572-0.0086-0.00344-0.01661-0.0086-0.024058-0.014322-0.00687-0.00572-0.012601-0.012603-0.01661-0.020622-0.00403-0.0086-0.00803-0.017193-0.012032-0.025204-0.00174-0.00459-0.00347-0.0086-0.00513-0.012603-0.00228-0.00459-0.00403-0.00917-0.00631-0.013169-0.00347-0.00801-0.0086-0.014889-0.014897-0.021767-0.00284-0.00287-0.00631-0.00459-0.010312-0.00628-0.00403-0.00173-0.0086-0.00287-0.013176-0.00287-0.00575-5.157e-4 -0.011456-0.00122-0.017186-0.00122-0.00458 0-0.00917 0-0.013753-5.157e-4 -0.00917-5.156e-4 -0.018905-0.00122-0.028642-0.00287-0.00803-0.00173-0.014321-0.00801-0.017761-0.015474-0.00284-0.00572-0.00458-0.011451-0.00631-0.017757l-0.00119-0.00401c-0.00118-0.00459-0.00228-0.00917-0.00347-0.013754-0.00228-0.012036-0.00403-0.02406-0.00575-0.03609-0.00118-0.00572-0.00174-0.011452-0.00284-0.017176-5.687e-4 -0.0063-0.00174-0.012603-0.00284-0.018905-5.687e-4 -0.00628-0.00174-0.012036-0.00284-0.018331-0.00119-0.00344-0.00174-0.00628-0.00284-0.00973-5.688e-4 -0.00287-0.00119-0.00516-0.00174-0.00801l-5.187e-4 -0.00247c-5.68e-4 -0.00228-0.00118-0.00459-0.00174-0.00688 0-0.00173-5.68e-4 -0.00401-5.68e-4 -0.0063l-5.68e-4 -0.00287-0.00284-0.018331c-5.687e-4 -0.00628-0.00284-0.012036-0.00575-0.017757-0.00347-0.00688-0.00803-0.012036-0.013177-0.017193-0.00284-0.00228-0.00513-0.00459-0.00745-0.0063-0.00284-0.00173-0.00513-0.00344-0.00745-0.00516-0.00513-0.00344-0.010312-0.00572-0.015465-0.00801-0.00973-0.00401-0.020049-0.0063-0.030363-0.00688-0.010313-5.156e-4 -0.020625-5.156e-4 -0.030932 0-0.00228 0-0.00513 0-0.00745 5.157e-4h-0.015995c-0.00228 5.158e-4 -0.00513 5.158e-4 -0.00745 5.158e-4 -0.00973 0-0.020049 0.00173-0.029787 0.00401-0.00575 0.00173-0.010881 0.00344-0.01661 0.00516-0.00458 0.00173-0.0086 0.00287-0.012601 0.00401-0.00973 0.00287-0.020049 0.00572-0.029787 0.00802-0.00973 0.00173-0.019474 0.00122-0.02921 0-0.00917-0.00172-0.017186-0.00459-0.025779-0.00744-0.00821-0.00347-0.016235-0.00691-0.023677-0.012066-0.015465-0.00975-0.029218-0.021197-0.039524-0.035518-0.0086-0.011452-0.01661-0.023487-0.02349-0.036089l-0.00284-0.00516c-0.00575-0.010314-0.011456-0.020622-0.017185-0.030936-0.00347-0.00572-0.00631-0.011451-0.00917-0.016609-0.00347-0.00688-0.00687-0.013169-0.010313-0.019478-0.00687-0.012036-0.014321-0.024058-0.02177-0.035515-0.013745-0.021194-0.028073-0.041817-0.042963-0.062441-0.010882-0.016042-0.022339-0.031507-0.03265-0.046973-0.00973-0.014321-0.017761-0.028068-0.026354-0.042963-0.00803-0.014321-0.013177-0.02979-0.016041-0.045829-5.687e-4 -0.00344-5.687e-4 -0.0063-5.687e-4 -0.00973 0-0.00287 0-0.0063 5.687e-4 -0.00917 0.00119-0.00628 0.00284-0.012603 0.00458-0.018904 5.681e-4 -0.00287 0.00174-0.00628 0.00228-0.00917 0.00118-0.00344 0.00228-0.00688 0.00284-0.00973 0.00174-0.00628 0.00228-0.013169 0.00284-0.019476 0.00347-0.034945 0.00228-0.070461 0-0.1054-0.00215-0.032908-0.00562-0.06556-0.016489-0.097636-0.01496-0.041757-0.033865-0.079568-0.055059-0.11795-0.00514-0.00917-0.010312-0.018332-0.014897-0.027497-0.022838-0.041279-0.045183-0.083095-0.073826-0.12033-0.03838-0.050411-0.07791-0.099104-0.11801-0.1478l-0.10597-0.12702v-1.6206h-1.1143"/>
</svg>
