<svg xmlns="http://www.w3.org/2000/svg" width="66" height="40.0007" viewBox="0 0 66 40.0007">
  <path d="M6.2857,0H59.7143A6.2208,6.2208,0,0,1,66,6.1538V33.8461A6.2209,6.2209,0,0,1,59.7143,40H6.2857A6.2208,6.2208,0,0,1,0,33.8462V6.1538A6.2208,6.2208,0,0,1,6.2857,0Z" transform="translate(0 0.0003)" fill="#01498e"/>
  <path d="M6.2857.9231H59.7143a5.2878,5.2878,0,0,1,5.3429,5.2308V33.8462a5.2878,5.2878,0,0,1-5.3429,5.2308H6.2857A5.2878,5.2878,0,0,1,.9428,33.8462V6.1538A5.2878,5.2878,0,0,1,6.2857.9231Z" transform="translate(0 0.0003)" fill="#fff"/>
  <path d="M6.2857,3.0769H59.7143a3.11,3.11,0,0,1,3.1429,3.0768V33.8461a3.11,3.11,0,0,1-3.1428,3.0769H6.2857a3.11,3.11,0,0,1-3.1429-3.0767V6.1538A3.1107,3.1107,0,0,1,6.2857,3.0769Z" transform="translate(0 0.0003)" fill="#01498e"/>
</svg>
