<svg height="20" width="20" xmlns="http://www.w3.org/2000/svg">
 <path style="color:#000;fill:#000;stroke-linejoin:round;-inkscape-stroke:none" d="M 4.134766,0.015625 C 3.5347259,-0.06591468 3.0004587,0.40030464 3,1.0058594 v 0.65625 C 3.024822,1.7105964 3.053565,1.7569744 3.08594,1.8007812 2.5832575,1.5967876 2.0095996,1.8307568 1.792971,2.328125 L 0.072268,6.6289062 C 0.02480451,6.7468845 2.7700452e-4,6.8728324 0,7 c 0,5.997718 4.417348,11.016676 9.65625,12.939453 0.1109831,0.04062 0.2273665,0.06093 0.34375,0.06093 0.116383,0 0.232767,-0.02031 0.34375,-0.06093 C 15.582653,18.016676 20,12.997718 20,7 19.999724,6.8728326 19.975197,6.7468846 19.927734,6.6289062 L 18.207031,2.328125 C 17.990402,1.8307568 17.416744,1.5967876 16.914062,1.8007812 16.946437,1.7569747 16.975178,1.7105965 17,1.6621094 v -0.65625 C 16.999541,0.40030464 16.465274,-0.06591468 15.865234,0.015625 l -5.398437,0.73632812 c -0.30828,0.0420381 -0.625314,0.0420381 -0.933594,0 z"/>
 <path style="fill:#fff" d="m 4,1.0058594 v 0.65625 L 5.3359453,2.3300781 C 5.7056768,2.5158328 5.8551251,2.9659255 5.6699297,3.3359375 5.484175,3.705669 5.0340823,3.8551173 4.6640703,3.6699219 L 2.7207031,2.6992188 1,7 c 0,5.49778 4.12287,10.21 9,12 4.87713,-1.79 9,-6.50222 9,-12 L 17.279297,2.6992188 15.33593,3.6699219 C 14.965918,3.8551177 14.515825,3.7056693 14.33007,3.3359375 14.144875,2.9659256 14.294323,2.515833 14.664054,2.3300781 L 16,1.6621094 v -0.65625 l -5.398438,0.7363281 c -0.398442,0.054333 -0.8046831,0.054333 -1.2031245,0 z"/>
</svg>
