<svg width="20" height="20" xmlns="http://www.w3.org/2000/svg">
 <path d="m3.032 0 .44 3.169H0l1.968 16.83h16.065L20 3.17h-3.472l.44-3.17z" fill="#006b54"/>
 <path d="M14.206 8.82h-2.144v5.537h-1.77V8.82H8.148V7.493h6.058zm7.077 3.052q0 1.272-.775 1.95t-2.282.678-2.282-.678q-.77-.678-.77-1.945V7.492h1.78v4.283q0 .715.3 1.065t.972.35q.664 0 .968-.336.31-.337.31-1.079V7.492h1.779zm5.505-2.277q0-.258-.106-.443-.106-.184-.364-.29-.18-.074-.42-.088-.24-.018-.558-.018h-.64v1.849h.543q.425 0 .71-.042.286-.041.48-.189.184-.143.267-.313.088-.176.088-.466zm2.762 4.763h-2.163l-1.871-2.518H24.7v2.518h-1.762V7.493h2.97q.608 0 1.046.069.438.069.82.3.388.23.614.599.23.364.23.917 0 .76-.355 1.24-.35.48-1.005.798zm7.016 0H34.86l-2.914-4.712v4.712h-1.623V7.493h2.117l2.503 3.933V7.493h1.623zM16.34 18.63q0 .461-.161.904-.162.438-.461.737-.41.406-.918.614-.502.207-1.254.207h-1.102v2.236h-1.77v-6.865h2.914q.654 0 1.102.115.451.111.797.337.415.272.632.696.221.424.221 1.019zm-1.83.041q0-.29-.157-.497-.157-.213-.364-.296-.277-.11-.54-.12-.263-.013-.7-.013h-.305V19.8h.507q.452 0 .743-.055.295-.056.493-.222.17-.147.244-.35.079-.207.079-.502zm6.796 4.657h-4.02v-1.217h1.125v-4.43h-1.125v-1.218h4.02v1.217h-1.125v4.43h1.125zm7.851 0h-2.171l-2.052-2.748-.415.503v2.245h-1.77v-6.865h1.77v3.107l2.453-3.107h2.051L26.34 19.64zm5.837 0h-4.965v-6.865h4.965v1.328H31.79v1.185h2.973v1.328H31.79V22h3.204z" style="font-variant-caps:normal;font-variant-east-asian:normal;font-variant-ligatures:normal;font-variant-numeric:normal" transform="matrix(.55679 0 0 .9531 -2.7 -3.017)" fill="#fff" aria-label="TURN PIKE"/>
</svg>
