<svg width="40" height="40" version="1.0" xmlns="http://www.w3.org/2000/svg">
 <title>Ohio State Route 7</title>
 <path d="m1.9505 2.327h10.435c0.81114 0.50429 1.7636 0.89881 2.8042 1.2041 1.0407 0.30528 2.2503-0.39697 3.4145-0.24952 0.58211 0.073726 1.052 0.49961 1.6451 0.51165 0.59315 0.01204 1.3096-0.38977 1.9005-0.37438 1.1819 0.030785 1.5391 1.1714 3.359 1.0069 1.09-0.09851 1.8804-0.6961 2.9619-1.0934 1.0814-0.39732 2.4575-0.54059 3.5998-0.52734 2.1872 0.025387 4.3744-1.0821 6.5617-1.5509l0.11413 15.299c-1.1527 0.76496-0.28863 2.0508-0.36571 3.2442-0.04212 0.65221-0.13144 1.3269-0.63534 1.6744-0.50196 0.34628-0.45394 1.1668-0.21751 2.108 0.31299 1.246-0.20486 2.4965-0.45289 3.718-0.24802 1.2215-0.75227 2.3716-1.7483 3.3699-0.97434 0.97659-2.4295 2.6239-4.1493 2.8811-2.2201 0.33202-2.9613 1.34-4.1537 2.6251-0.54992 0.59261-0.80615 0.76036-2.0908 0.87327-0.71608 0.06294-0.53092 0.61014-2.1277 0.70381-1.5758 0.09244-3.0378 0.99632-3.9758 0.99476-2.6295-0.0043-4.7872-3.4657-8.2534-3.945-1.7302-0.23924-3.3315-0.99787-4.8999-1.8249-0.78758-0.41555-1.543-1.2386-2.4132-1.3879-1.048-0.17906-1.2751-1.0223-2.0073-1.3777v-27.147c-0.024919-0.4995 0.29256-0.74489 0.69566-0.73617z" fill="#fff" stroke="#000" stroke-linecap="round" stroke-linejoin="round" stroke-width="2.5083"/>
</svg>
