<svg width="20" height="26" xmlns="http://www.w3.org/2000/svg">
 <path d="m3.1964 0.49931c-0.21666 0-0.18828 1.1819-0.052432 1.7082 0.095841 0.3708 0.9249 0.50391 0.9249 0.50391 0.47549 0.2594 0.57693 0.27945 0.6921 0.49536 0.1152 0.21593 0.24918 0.96374 0.17617 1.1616-0.073366 0.39378-0.92108 0.41038-1.294 0.49536-0.37302 0.085029-0.50368 0.43754-0.95007 0.61921-0.94692 0.038225-1.3517 0.3196-1.7931 1.2512-0.33981 0.34184-0.54083 0.96083-0.29362 1.8256 0.1507 0.52704 0.32449 1.0461 0.19924 1.8-0.11057 0.66558 0.23633 1.5248 0.40897 1.8896 0.17262 0.36478 0.26864 0.86124 0.21602 1.1039-0.052352 0.2427 0.031033 0.89671 0.18246 1.4584 0.15152 0.56171 0.56566 1.3191 0.92281 1.6826 0.35714 0.36341 0.65376 0.91448 0.65645 1.2192 0.0027 0.30476 0.17425 0.92143 0.3817 1.3751 0.20753 0.45363 0.71822 1.055 1.1325 1.3345 0.41428 0.27962 0.8743 0.80359 1.0193 1.1637 0.14497 0.3602 0.57915 0.88731 0.96894 1.1701 0.38979 0.28275 1.1664 0.83691 1.552 1.4904 0.36327 0.61552 1.178 0.92861 1.5898 1.138 0.052919 0.02691 0.10708 0.05145 0.16358 0.07473 0.0565-0.02328 0.11277-0.04782 0.16569-0.07473 0.4118-0.20946 1.2244-0.52255 1.5876-1.138 0.3856-0.65347 1.1622-1.2076 1.552-1.4904 0.38979-0.28278 0.82607-0.8099 0.97104-1.1701 0.14497-0.3601 0.6029-0.88407 1.0172-1.1637 0.4143-0.2795 0.925-0.88087 1.1325-1.3345 0.20746-0.45365 0.37901-1.0703 0.3817-1.3751 0.0027-0.30472 0.29931-0.8558 0.65645-1.2192 0.35714-0.3635 0.77127-1.1209 0.92281-1.6826 0.15143-0.56164 0.23691-1.2157 0.18456-1.4584-0.05263-0.24266 0.0413-0.73913 0.21392-1.1039 0.17264-0.36481 0.51954-1.2241 0.40897-1.8896-0.12525-0.75386 0.048547-1.273 0.19924-1.8 0.24721-0.86478 0.046184-1.4837-0.29362-1.8256-0.44144-0.93163-0.84624-1.213-1.7931-1.2512-0.44639-0.18167-0.57705-0.53418-0.95007-0.61921-0.37294-0.084998-1.2207-0.10159-1.294-0.49536-0.073-0.19781 0.06308-0.94562 0.17827-1.1616 0.11517-0.21592 0.21661-0.23596 0.6921-0.49536 0 0 0.82696-0.13311 0.9228-0.50391 0.13586-0.52628 0.16423-1.7082-0.05243-1.7082h-6.8035z" fill="#fff" stroke="#000"/>
</svg>
