<svg width="20" height="20" version="1.0" xmlns="http://www.w3.org/2000/svg">
 <path d="M2.397 18.643s-.745-2.006-.36-3.93c-.114-.518-.542-2.284-.085-4 .132-.253-.359-1.116-.39-1.435C1.445 8.106.87 1.249.731.623 5.266.58 12.976.589 12.976.589s-.09.82-.12.97c-.215 1.097.316 1.074.497 1.083.466.025.27-.004.574.079.31.113.251.316.966 1.279.666 1.024 1.09 1.063 1.765 1.918 1.155 1.053 3 2.76 2.723 3.796-.785 2.219-1.273 3.695-1.517 5.928-.135 1.421-.78 2.955-1.5 2.939-.554-.014-.335.158-.544.472-.122.183-.306.358-.59.36-.273 0-.482-.04-.652-.32-.257-.423.078-.567-.67-.537-.678.027-11.511.087-11.511.087" fill="#fff" fill-rule="evenodd" stroke="#000" stroke-linecap="round" stroke-width="1.176"/>
</svg>
