<svg width="27" height="20" xmlns="http://www.w3.org/2000/svg">
 <path d="m26.31 19.5-0.10906-0.33227 0.03028-0.60413-0.21199-0.87599-0.06058-0.63434-0.57541-0.66455-0.15143-0.42289-0.3937-0.99682 0.06056-0.36248-0.03028-0.48331 0.09086-0.24165 0.03028-0.54372-0.21199-0.15103-0.21199-0.4531v-0.57393l-0.09085-0.60413-0.12116-1.5103 0.06058-0.27186-0.09086-0.18124v-0.33227l-0.21199-0.42289-0.24229-0.57393-0.36342-0.57393-0.03028-0.24165-0.27256-0.96662-0.424-0.4833-0.03028-0.75517 0.06056-0.42289-0.09086-0.12083 0.06058-0.57393-0.12113-0.72496 0.03028-0.4229 0.12113-0.39269-0.09086-0.27186-0.27256-0.42289-0.06056-0.48331-0.24229-0.57393-0.03028-0.33227-21.613-4.033e-5c2.7e-4 3 0 15.5 0 19z" fill="#fff" stroke="#000"/>
</svg>
