<svg width="20" height="20" version="1.0" viewBox="0 0 19.966 19.967" xmlns="http://www.w3.org/2000/svg">
 <path style="fill:#bf2033;stroke:none;stroke-width:1;stroke-linecap:butt;stroke-linejoin:miter;stroke-opacity:1" d="M 0.947932,4.492575 C 1.35797,3.1682318 2.031962,1.6935751 2.836314,0.60694576 3.94387,0.91532547 5.110448,1.0801112 6.315035,1.0801112 c 1.273479,0 2.504331,-0.18408309 3.6677638,-0.52736015 1.1635332,0.34326693 2.3943852,0.52736015 3.6677632,0.52736015 1.204722,0 2.371333,-0.16477559 3.478722,-0.47316544 0.804317,1.08662934 1.478746,2.56128614 1.888784,3.88562924 z"/>
 <path style="fill:#003f87;stroke:none;stroke-width:1;stroke-linecap:butt;stroke-linejoin:miter;stroke-opacity:1" d="M 19.467147,7.7278308 C 19.467147,13.477184 15.401609,18.278329 9.983,19.424482 4.564391,18.278496 0.498853,13.477184 0.498853,7.7278308 h 3.4e-5 c 0,-1.0620908 0.188628,-2.2549333 0.449046,-3.2352558 h 18.070135 c 0.260373,0.9803226 0.449079,2.173165 0.449079,3.2352558 z"/>
 <path style="stroke:#fff;stroke-width:1;stroke-miterlimit:4;stroke-dasharray:none;stroke-opacity:1;fill:none" d="m 19.467147,7.7278308 c 0,5.7493532 -4.065538,10.5504982 -9.4841473,11.6966512 C 4.5643907,18.278496 0.49885325,13.477184 0.49885325,7.7278308 h 3.327e-5 c 0,-1.0620908 0.13874807,-2.0918331 0.39916608,-3.0721556 C 1.3080913,3.331332 2.0319622,1.6935751 2.8363141,0.60694576 3.9438703,0.91532547 5.110448,1.0801112 6.3150351,1.0801112 c 1.2734788,0 2.5043311,-0.18408309 3.6677637,-0.52736015 1.1635332,0.34326693 2.3943852,0.52736015 3.6677632,0.52736015 1.204722,0 2.371333,-0.16477559 3.478722,-0.47316544 0.804317,1.08662934 1.52869,2.72438624 1.938728,4.04872934 0.260373,0.9803226 0.399135,2.0100649 0.399135,3.0721557 z"/>
 <path style="fill:none;stroke:#fff;stroke-width:1;stroke-linecap:butt;stroke-linejoin:miter;stroke-opacity:1" d="M 0.9479325,4.492575 H 19.018068"/>
</svg>
