<svg width="20" height="20" viewBox="0 0 5.292 5.292" xmlns="http://www.w3.org/2000/svg">
 <path d="m2.534 5.0374-0.024482 0.041583-0.00408 0.00416-0.00817 0.012479c-0.00409 0.00416 0 0.01247 0.00408 0.01247l0.093852 0.02495v0l0.089766 0.033267c0.00408 0.00416 0.012245 0 0.012245-0.00833l0.00817-0.11228v0l0.00408-0.070696v-0.00416c-0.012245-0.10812-0.065285-0.18144-0.065285-0.18144v0s-0.01224-0.15802 0.044894-0.25367c0.020406-0.041584 0.13874-0.095645 0.19994-0.02495 0.065285 0.07485 0.17954 0.18713 0.17954 0.18713v0s0.13058 0.046035 0.19586 0.066822h0.00408c0.06937 0.033267 0.11017 0.07485 0.16322 0.12891 0.00409 0.00416 0.012245 0.00416 0.016322 0l0.032643-0.033267c0.06121-0.06238 0.11017-0.079013 0.19178-0.091493h0.00408c0.1265 0 0.25299-0.01247 0.36725-0.07485h0.00408c0.093867-0.070695 0.15915-0.16218 0.26117-0.2204 0 0 0.00408 0 0.00408-0.00416 0.093852-0.020796 0.18362-0.033267 0.27339-0.070696 0.00817-0.00416 0.00817-0.016634 0-0.016634-0.020406-0.00416-0.06121-0.033267-0.06121-0.033267v0s-0.081601-0.10397-0.13465-0.14971v-0.00416c-0.073446-0.041583-0.22851-0.066533-0.22851-0.066533v0s-0.089767-0.091483-0.040804-0.15386v-0.00416c0.10609-0.08733 0.24891-0.099804 0.37133-0.15802h0.00408c0.073446-0.054063 0.21219-0.17882 0.21219-0.17882v0l0.06121-0.029113c0.10202-0.045756 0.1673-0.26391 0.23667-0.34708v0c0.077531-0.10812 0.10609-0.19961 0.11833-0.32852 0-0.00833-0.012245-0.012479-0.016322-0.00833-0.06937 0.06238-0.15098 0.070696-0.22443 0.00416v-0.00416c-0.057125-0.091483-0.036728-0.18713 0.016322-0.27446v0c0.053049-0.079014 0.093852-0.43053 0.093852-0.43053v0s-0.028567-0.57163 0.15914-0.66312c0.00817-0.00417 0.00817-0.016634 0-0.020796l-0.057118-0.029107h-0.00408l-0.081607-0.02495v0s-0.21219-0.00833-0.33052 0.041584v0.00416c-0.10609 0.058216-0.31012 0.2583-0.44477 0.17929v-0.00417c-0.077532-0.079013-0.032643-0.1705 0.057124-0.20792 0.00817 0 0.00817-0.012479 0-0.016634-0.17138-0.079013-0.28155 0.016634-0.43661 0.10812h-0.00408c-0.06121 0.016634-0.089766 0.012479-0.13874-0.029113h-0.00408c-0.065285-0.083166-0.024482-0.14139 0.016322-0.22872v-0.00416c0.02855-0.12475 0.020389-0.1322-0.03266-0.24448-0.093852-0.17882-0.089767-0.33927-0.089767-0.33927v0s0.032643-0.041583 0.057125-0.058216c0.00817-0.004163 0.00817-0.016633 0-0.016633l-0.020406-0.004163h-0.00408c-0.089767 0-0.21219 0.06238-0.21219 0.06238v0s-0.1673 0.32231-0.28155 0.26825l-0.00408-0.004163c-0.077532-0.070696-0.11425-0.090529-0.14282-0.19033v-0.004163c-0.036738-0.1497-0.19996-0.53845-0.19996-0.53845v0s-0.097932-0.06238-0.14282-0.11228c-0.00408-0.008326-0.012245-0.008326-0.012245 0-0.044888 0.0499-0.14282 0.11228-0.14282 0.11228v0l-0.22035 0.60915v0s-0.065284 0.069736-0.12241 0.1238c0 0-0.00409 0-0.00409 0.004163-0.06937 0.033266-0.10609 0.020796-0.17954-0.008326v-0.004163c-0.06937-0.0499-0.22035-0.30984-0.22035-0.30984v0s-0.077532-0.008326-0.11834-0.004163c-0.00817 0-0.012245 0.01248-0.00409 0.016633l0.024482 0.016633v0s0.077532 0.094687 0.065285 0.18202v0.00417c-0.028567 0.091483-0.073446 0.10735-0.11833 0.19468-0.073446 0.14971-0.06121 0.17795 0.00408 0.33182 0.020406 0.045746 0.016322 0.07485-0.00408 0.1206v0.00416c-0.10201 0.12891-0.32236-0.045746-0.32236-0.045746v0s-0.17954-0.058216-0.27747-0.012479c-0.00817 0.00417-0.00817 0.016634 0 0.016634 0.065285 0.029113 0.10201 0.079014 0.089767 0.15386v0.00416c-0.048964 0.1206-0.18362 0.070696-0.27339 0.029113h-0.004085l-0.19994-0.15435v-0.00417c-0.06937-0.02495-0.19586-0.054063-0.19586-0.054063v0s-0.18362 0.020796-0.27747 0.070696c-0.00817 0-0.00817 0.012479 0 0.016634 0.1877 0.091483 0.15506 0.66312 0.15506 0.66312v0s0.040803 0.35152 0.093852 0.43053h0.004085c0.053049 0.08733 0.073446 0.17882 0.016321 0.27446 0 0 0 0.00416-0.004085 0.00416-0.073446 0.066533-0.15098 0.058216-0.22035-0.00416-0.00817-0.00416-0.016321 0-0.016321 0.00833 0.004085 0.070696 0.016321 0.12891 0.040803 0.19545v0.00416c0.06121 0.12891 0.24483 0.44272 0.24483 0.44272v0l0.1877 0.10396v0l0.22035 0.16634v0l0.32644 0.15386v0l-0.19994 0.16218v0s-0.11833 0.06238-0.17138 0.12475c-0.040803 0.054063-0.057124 0.08733-0.11017 0.099805-0.00817 0-0.012246 0.012479 0 0.016634 0.089767 0.03743 0.17954 0.049899 0.27339 0.070696 0 0.00416 0 0.00416 0.004085 0.00416 0.06937 0.03743 0.11833 0.08733 0.17546 0.14971 0.081606 0.079013 0.13874 0.10812 0.25299 0.12891l0.073446 0.012479h0.00408c0.11425 0.00833 0.25299-0.00416 0.32644 0.10396 0.00408 0.00416 0.012236 0.00416 0.016322 0 0.077531-0.10812 0.33052-0.1791 0.33052-0.1791v0s0.15098-0.10396 0.20811-0.19129c0.036728-0.0499 0.13058-0.058216 0.13058-0.058216v0s0.06121 0.10812 0.040804 0.19129v0.00416c-0.012245 0.07485 0 0.20792 0 0.20792v0s-0.00817 0.059893-0.00817 0.19392v0z" fill="#fff" fill-rule="evenodd" stroke="#006747" stroke-linecap="round" stroke-linejoin="round" stroke-width=".265"/>
</svg>
