<svg width="20" height="20" xml:space="preserve" xmlns="http://www.w3.org/2000/svg">
 <rect fill="#fff" x=".5" y=".5" stroke="#666" width="19" height="19" ry="1.5" rx="1.5" style="stroke:#000;stroke-width:1;stroke-miterlimit:4"/>
 <path d="m 14.937455,18.252105 c -0.26437,-0.15202 -0.50639,-0.29076 -0.53787,-0.30831 -0.0566,-0.0316 -0.0552,-0.0356 0.13747,-0.38666 0.10707,-0.19511 0.1993,-0.35943 0.20495,-0.36516 0.006,-0.006 0.21476,0.10434 0.46469,0.2446 l 0.45441,0.25502 0.33318,-0.0185 0.33318,-0.0185 0.64818,-0.63887 0.64819,-0.63886 0.0369,-0.73475 0.0369,-0.73474 -0.0833,-0.51461 -0.0833,-0.51461 -0.42623,-0.83411 -0.42625,-0.83411 -0.26777,-1.48322 -0.26778,-1.48323 0.18894,-0.97661 0.18895,-0.9766 -0.71182,-2.42306 c -0.39151,-1.33268 -0.71767,-2.42899 -0.72479,-2.43621 -0.007,-0.007 -0.1746,-0.0195 -0.37214,-0.0274 l -0.3592,-0.0142 -0.11581,0.24082 -0.11581,0.24082 -3.58336,-0.007 -3.58336,-0.007 -0.11176,-0.27683 -0.11176,-0.27683 -2.13571,-0.007 -2.1357,-0.007 0.0153,0.0777 c 0.008,0.0427 0.0524,0.29016 0.0978,0.54991 l 0.0825,0.47225 0.39264,0.0305 c 0.53684,0.0416 0.54569,0.041 0.71278,-0.0521 l 0.14756,-0.0822 0.74046,0.16214 c 0.40726,0.0892 0.76712,0.17354 0.79974,0.1875 0.0326,0.014 0.51181,0.3776 1.06492,0.80808 l 1.00566,0.78273 1.09627,-0.2778 1.09627,-0.27781 0.56473,0.31263 c 0.3106,0.17194 0.57002,0.31798 0.57647,0.32453 0.0171,0.0174 -0.36482,0.72619 -0.39135,0.72619 -0.0123,0 -0.2118,-0.10604 -0.44322,-0.23565 l -0.4208,-0.23566 -1.12865,0.28657 c -0.62077,0.15761 -1.14087,0.27925 -1.15578,0.27031 -0.0149,-0.009 -0.51813,-0.39744 -1.1183,-0.86336 l -1.09122,-0.84709 -0.50755,-0.11032 c -0.27915,-0.0607 -0.52612,-0.11032 -0.54882,-0.11032 -0.0227,0 -0.0924,0.0288 -0.15498,0.064 l -0.11369,0.064 -0.91138,-0.0691 -0.91138,-0.0692 -0.22776,-1.28013 c -0.12527,-0.7041 -0.23397,-1.31278 -0.24155,-1.35265 l -0.0138,-0.0725 h 2.91028 2.91028 l 0.10964,0.27683 0.10964,0.27683 h 3.04619 3.04619 l 0.10906,-0.23818 0.10905,-0.23819 0.94047,0.0177 c 0.51727,0.01 0.94226,0.019 0.94449,0.0207 0.002,0.002 0.37801,1.27578 0.83511,2.83145 l 0.83108,2.82849 -0.19326,1.00153 -0.19325,1.00153 0.23748,1.32432 0.23747,1.32433 0.42912,0.84353 0.42912,0.84353 0.10337,0.6197 0.10338,0.6197 -0.0459,0.95763 -0.0459,0.95764 -0.86822,0.86153 -0.86822,0.86153 -0.17298,0.0162 c -0.0951,0.009 -0.38343,0.023 -0.64063,0.0314 l -0.46766,0.0152 z"/>
</svg>
