<svg width="25" height="20" version="1.0" xmlns="http://www.w3.org/2000/svg">
 <path style="fill:#fff;fill-opacity:1;stroke:#000;stroke-width:1;stroke-miterlimit:4;stroke-dasharray:none;stroke-opacity:1" d="M 2.5757484,19.058864 C 1.9457439,19.190844 0.84176267,19.006461 0.87422422,18.147745 0.75690771,16.242645 0.59542305,14.338126 0.50687623,12.432647 L 2.5137403,0.5 H 22.369474 l 2.091052,10.042311 c 0.159427,0.985778 -0.475266,1.752521 -0.237879,2.856765 0.180222,0.838329 0.177076,2.478762 -0.337793,3.105424 L 6.5750403,16.4955 c -0.046002,0.948731 1.0570118,1.224679 0.23717,2.23758 -0.2677301,0.330776 -0.5842647,0.420458 -0.916992,0.552123 -0.2632191,0.10416 -0.802584,0.362009 -1.6816252,0.03018 C 4.4372838,18.904194 5.5024516,18.256026 4.5447685,18.188361 3.8990831,18.142738 4.1216926,16.66497 3.5775241,16.637903 2.5203324,16.585319 3.430462,18.879809 2.5757484,19.058864 Z"/>
</svg>
