<svg width="20" height="20" xmlns="http://www.w3.org/2000/svg">
 <path d="M19.852 9.94a9.864 9.887 0 1 1-19.729 0 9.864 9.887 0 1 1 19.729 0z" fill="#006747"/>
 <path d="M10 0C4.477 0 0 4.477 0 10s4.477 10 10 10 10-4.477 10-10S15.523 0 10 0zm0 .638A9.361 9.361 0 0 1 19.361 10 9.361 9.361 0 0 1 10 19.36 9.361 9.361 0 0 1 .639 10 9.361 9.361 0 0 1 10 .638z" fill="#ffcd00"/>
 <path d="M8.502 19.231a.264.264 0 1 1-.528 0 .264.264 0 1 1 .527 0z" fill="#006747"/>
 <path d="M9.854 1.73a.31.31 0 0 0-.227.11l-.038.045c.038-.046-.051.045-.101.082-.163.12-.278.265-.392.49-.117.231-.211.41-.287.55a7.102 7.102 0 0 0-5.454 4.51h13.29a7.114 7.114 0 0 0-2.647-3.376c-.14-.108-.307-.208-.448-.294l-1.767-1.038-1.767-1.037a.307.307 0 0 0-.163-.042zm.007.305 1.768 1.038 1.814 1.072-.046.066a3.08 3.08 0 0 1-.135.215l-.078.113-.232.112c-.262.125-.641.345-.735.426-.115.099-.205.258-.338.593-.068.173-.19.342-.2.375-.011.034-.023.203-.097.376a2.79 2.79 0 0 0-.215.679l-.017.088H7.187l-.015-.058c-.046-.184-.039-.234.034-.234.116 0 .179-.086.18-.246 0-.052.012-.092.053-.159.064-.106.067-.157.014-.247-.035-.06-.038-.074-.022-.12A.68.68 0 0 0 7.455 6a.323.323 0 0 1 .115-.224c.044-.03.058-.032.184-.023.16.013.132.047.237-.288.066-.212.07-.234.06-.337-.013-.126-.063-.247-.196-.47a1.408 1.408 0 0 1-.096-.18c-.015-.056.021-.133.117-.246a.872.872 0 0 1 .37-.257 1.58 1.58 0 0 0 .366-.208c.219-.162.338-.348.756-1.172.109-.213.159-.277.302-.383a1.35 1.35 0 0 0 .153-.13zm3.745 2.209.075.043.07.034-.01.303c-.012.327-.05.546-.122.7a3.66 3.66 0 0 1-.348.504c-.042.05-.095.127-.117.17-.036.07-.04.096-.042.247-.002.2-.02.243-.183.45a1.55 1.55 0 0 0-.118.161c-.03.059-.095.117-.13.117-.06 0-.111-.033-.12-.076-.013-.056.009-.106.075-.169a.286.286 0 0 0 .071-.114c.014-.052.012-.07-.018-.134-.065-.14-.091-.127-.315.153-.225.279-.236.3-.236.443v.112h-.26c-.26 0-.318 0-.318-.035 0-.019.007-.096.015-.172.025-.235.082-.423.213-.706.067-.143.172-.374.233-.513.224-.512.255-.552.51-.671.394-.184.642-.314.701-.367.073-.065.141-.166.247-.365.038-.071.072-.144.076-.143zM5.449 12.48c-1.248 0-2.084.001-2.095.002a7.114 7.114 0 0 0 2.702 3.413c.022.023.044.047.063.07a2.718 2.718 0 0 0 .17.183l.035.028c.012.009.02.02.06.037l-.009-.005a.06.06 0 0 1 .01.005l.007.006c.118.104.197.118.312.154.064.02.193.07.237.092.115.055.103.041.207.258a2.95 2.95 0 0 0 .106.202c.006.01.012.02.023.034s.003.028.087.081c.097.06.142.054.185.057a.695.695 0 0 0 .12-.001c.078-.007.146-.013.248-.065.077-.04.099-.065.14-.1.029-.026.059-.054.088-.084l.044.012c.062.08.137.17.195.231l.005.007a.306.306 0 0 0 .007.038 1.366 1.366 0 0 0-.075.114c-.024.042-.043.06-.066.153-.038.155-.06.233-.065.25l-.009.008c-.055.055-.112.099-.16.21a.492.492 0 0 0-.016.288c.006.026.004.015.003.018a.848.848 0 0 0-.021.13.622.622 0 0 0-.221.426 6.424 6.424 0 0 1-.025.168c-.02.113-.099.3-.045.435.054.136.156.22.247.283a.409.409 0 0 0 .221.08.4.4 0 0 0 .215-.055c.153-.079.303-.28.404-.475.08-.155.11-.19.33-.384l.122-.108a.31.31 0 0 0 .103-.214l.01-.19c.01-.206-.026-.105.112-.289l.086-.114a.308.308 0 0 0 .061-.183v-.116c0-.11.03-.215.053-.257-.003.01.094-.118.196-.22l.003-.002.141.001a7.095 7.095 0 0 0 6.645-4.61s-7.453-.003-11.197-.002zm3.325.274c1.226 0 2.286.003 2.286.008a2.965 2.965 0 0 1-.608.897 6.915 6.915 0 0 0-.262.286c-.081.103-.196.365-.255.58a2.728 2.728 0 0 1-.275.702c-.213.41-.273.599-.3.939-.032.388-.06.479-.193.651a3.24 3.24 0 0 0-.318.56.594.594 0 0 0-.05.291c-.001.163-.003.172-.058.279a.774.774 0 0 0-.066.172c-.01.055-.005.067.036.108.055.055-.037.057.04.018.048-.025.066-.05.114-.157.048-.108.065-.174.102-.413.051-.33.064-.361.255-.628.225-.315.26-.419.283-.85.024-.449.062-.567.29-.91.174-.262.197-.314.272-.609.108-.424.196-.568.662-1.077l.2-.218.158-.315.159-.314.638.004.582.004.02.08c.028.11.017.144-.123.362a1.18 1.18 0 0 0-.18.376c-.028.088-.073.12-.212.145-.12.023-.159.052-.178.133-.036.155-.09.184-.34.184a.733.733 0 0 1-.22-.02.257.257 0 0 1-.077-.091c-.049-.09-.097-.142-.154-.166-.058-.024-.085-.011-.116.053-.024.051-.024.055.014.12.03.05.067.082.16.134.105.061.125.08.166.156.025.048.057.1.07.115.057.065.062.093.036.185a1.044 1.044 0 0 1-.056.149c-.024.048-.027.067-.013.096.037.082.006.182-.053.171-.018-.003-.044-.035-.065-.078-.019-.04-.044-.073-.055-.073-.056 0-.1.13-.125.368-.018.178-.032.211-.104.248a1.05 1.05 0 0 0-.131.084 1.09 1.09 0 0 1-.375.152.19.19 0 0 1-.125-.023.29.29 0 0 0-.083-.031c-.043 0-.156.078-.18.124-.036.071-.017.114.078.175.084.053.117.097.137.182.016.069-.015.122-.116.195-.107.077-.15.144-.197.303-.033.112-.036.117-.228.307a1.838 1.838 0 0 0-.245.28.864.864 0 0 0-.094.413v.116l-.086.114c-.145.192-.162.236-.173.456l-.01.19-.123.11c-.228.201-.305.292-.398.47-.095.185-.208.312-.273.345-.056.03-.076.029-.122-.004-.146-.101-.107-.227-.075-.417l.027-.178a.387.387 0 0 1 .13-.247c.064-.047.09-.09.09-.16 0-.029.008-.083.017-.12a.332.332 0 0 0-.002-.15c-.02-.097-.012-.116.091-.217.077-.075.077-.075.157-.404a.723.723 0 0 1 .098-.17c.089-.122.096-.149.061-.21a.2.2 0 0 1-.022-.082c0-.031-.025-.07-.083-.13a3.719 3.719 0 0 1-.184-.221c-.103-.133-.164-.184-.244-.203-.06-.014-.095.01-.224.147a.948.948 0 0 1-.176.154c-.065.033-.213.046-.251.022a1.144 1.144 0 0 1-.104-.19c-.113-.238-.188-.324-.35-.401a2.588 2.588 0 0 0-.277-.108.656.656 0 0 1-.203-.092.318.318 0 0 0-.077-.053 1.092 1.092 0 0 1-.164-.17c-.075-.088-.17-.182-.21-.208s-.092-.071-.115-.101a.272.272 0 0 0-.09-.075c-.06-.025-.087-.056-.136-.153-.054-.11-.064-.162-.066-.36a2.143 2.143 0 0 0-.013-.24c-.01-.05-.004-.076.024-.13.068-.132.032-.293-.108-.478-.037-.05-.062-.1-.062-.124 0-.053.047-.147.123-.243a.373.373 0 0 0 .091-.24c0-.093.052-.159.167-.213.087-.04.122-.07.216-.179.12-.14.181-.188.297-.238.074-.031.088-.031 2.304-.031zm3.987.122c.033 0 .037.007.037.063a.285.285 0 0 1-.025.11c-.019.035-.023.07-.016.135a.453.453 0 0 1-.005.136c-.018.063-.162.294-.289.464-.083.111-.111.138-.175.164-.085.036-.115.04-.149.018-.019-.012-.017-.026.015-.094.02-.044.053-.09.071-.102s.059-.058.088-.101c.029-.044.092-.117.14-.164.113-.11.148-.183.197-.404.022-.1.048-.192.057-.204a.082.082 0 0 1 .054-.02zm-1.07 1.565c.026 0 .109.09.12.132.012.05-.098.292-.157.346a.22.22 0 0 0-.059.082c-.006.024-.032.046-.08.067a.788.788 0 0 1-.073.03l-.053-.016c-.047-.013-.05-.017-.029-.04a.552.552 0 0 0 .055-.09.263.263 0 0 1 .085-.094c.083-.05.104-.095.115-.25.01-.137.023-.167.076-.167zm-.563.861c.032 0 .09.033.09.059a.493.493 0 0 1-.1.211.565.565 0 0 1-.198.126c-.004 0-.018-.025-.031-.056-.013-.03-.023-.064-.023-.074s.04-.036.089-.057c.08-.035.091-.045.117-.114a.48.48 0 0 1 .04-.089.018.018 0 0 1 .01-.005h.006zm-.546.51c.041 0 .069.013.069.037 0 .023-.021.063-.146.276-.044.076-.07.092-.11.067a.476.476 0 0 1-.097-.14c0-.008.028-.055.062-.106.053-.079.073-.096.137-.117a.291.291 0 0 1 .085-.016z" fill="#ffcd00"/>
</svg>
