<svg width="25" height="20" version="1.0" xmlns="http://www.w3.org/2000/svg">
 <path d="m22.223 6.3931-0.02055-0.017093 0.03637-0.046644 0.03476-0.048184 0.03324-0.051309 0.03005-0.051309 0.02688-0.054434 0.02683-0.054399 0.02213-0.054399 0.02213-0.057524 0.01899-0.057524 0.01581-0.057524 0.01425-0.059068 0.01107-0.059068 0.0095-0.059068 0.0063-0.060648 0.0047-0.060608 0.0015-0.059108-0.0015-0.055938-0.0032-0.055944-0.0063-0.055978-0.0079-0.055943-0.01111-0.055944-0.01263-0.054399-0.01425-0.055978-0.01742-0.054399-0.01895-0.052854-0.02055-0.052854-0.02213-0.051309-0.02526-0.051309-0.02688-0.04973-0.02845-0.04819-0.03006-0.046644-0.03163-0.045105-0.01424-0.015553-0.01268-0.017093-0.01107-0.018633-0.0095-0.018633-0.0079-0.020217-0.0047-0.020212-0.0047-0.020217v-0.04352l0.0032-0.020217 0.0063-0.020217 0.0063-0.018673 0.0095-0.018633 0.01111-0.017093 0.01107-0.015553 0.01425-0.015553 0.01581-0.014009 0.01586-0.010879 0.01738-0.010879 0.01899-0.0093 0.01895-0.00622 0.02055-0.00621 0.02055-0.00315h0.04108l0.01899 0.00315 0.01738 0.00315 0.01742 0.00622 0.01738 0.00622 0.03162 0.01868 0.01581 0.010879 0.01268 0.012418 0.01268 0.012423 0.01263 0.014009 0.0095 0.015553 0.0095 0.017088 0.0079 0.015553 0.0063 0.018673 0.0063 0.017098-0.01111-0.043515-0.01107-0.04506-0.01425-0.043515-0.01581-0.043515-0.01742-0.043515-0.01895-0.043515-0.04111-0.08394-0.0474-0.080872-0.02688-0.040436-0.02683-0.037306-0.02845-0.03731-0.02845-0.037306-0.03006-0.034181-0.03167-0.034226-0.06957-0.062153-0.07118-0.055979-0.07431-0.054399-0.07588-0.04973-0.07745-0.045105-0.07906-0.04197-0.08063-0.037305-0.0822-0.034226-0.08377-0.029551-0.08538-0.024887-0.08538-0.021752-0.0869-0.018633-0.08695-0.014009-0.08695-0.0093-0.08856-0.00622-0.08856-0.00315-0.08856 0.0016-0.08856 0.00622-0.08695 0.00934-0.08856 0.014009-0.08691 0.018633-0.08695 0.020217-0.08538 0.026432-0.08534 0.029551-0.08381 0.032637-0.0822 0.037305-0.08063 0.04198-0.07902 0.0451-0.07906 0.04973-0.07588 0.052854-0.07432 0.057524-0.07118 0.060608 0.01106-0.04819 0.0079-0.046644 0.0079-0.048184 0.0047-0.04665 0.0032-0.048185v-0.094834l-0.0032-0.046644-0.0047-0.046644-0.0063-0.046604-0.0095-0.046644-0.0095-0.045105-0.01268-0.045065-0.01263-0.043515-0.01581-0.04506-0.01742-0.043515-0.01895-0.041971-0.02055-0.041971-0.02213-0.040436-0.0237-0.040436-0.02531-0.03889-0.02683-0.038891-0.02845-0.037305-0.03006-0.037305-0.03166-0.034181-0.03319-0.034226-0.03481-0.032637-0.03637-0.032637-0.07588-0.059102-0.04112-0.027972-0.04108-0.024842-0.03005-0.021763-0.02845-0.023343-0.02845-0.023298-0.02845-0.024887-0.02683-0.024887-0.02531-0.026427-0.02526-0.026432-0.02374-0.026427-0.0237-0.027972-0.02213-0.027972-0.02213-0.029551-0.02051-0.029551-0.02055-0.031097-0.01899-0.031091-0.01738-0.031097-0.01742-0.031091-0.01738-0.032642-0.01425-0.032637-0.01425-0.032642-0.01425-0.034181-0.01106-0.034226-0.01267-0.034181-0.0095-0.034181-0.0095-0.035766-0.0079-0.035766-0.0079-0.035761-0.0063-0.035766-0.0047-0.035771-0.0032-0.035726-0.0032-0.037305-0.0015-0.035726v-0.049894l-0.02213 0.023298-0.02213 0.023343-0.0237 0.023298-0.02374 0.021763-0.02526 0.021763-0.02527 0.020217-0.02531 0.020217-0.02688 0.020217-0.02684 0.018633-0.02688 0.017088-0.02683 0.018673-0.05689 0.031107-0.03006 0.015553-0.02845 0.015553-0.03006 0.012423-0.03006 0.014009-0.03167 0.010874-0.03006 0.012423-0.03163 0.00934-0.03163 0.010879-0.03163 0.0093-0.03166 0.00776-0.03163 0.00622-0.03319 0.00776-0.03166 0.0047-0.03319 0.0047-0.03323 0.0047-0.03319 0.00315-0.03323 0.0016-0.03319 0.00155-0.03324 0.00155-0.03476-0.00155-0.06961-0.0063-0.03319-0.00155-0.05379-0.00934-0.05219-0.00621-0.05376-0.00315-0.05375-0.0016h-0.05219l-0.05379 0.00315-0.05219 0.0047-0.05219 0.00776-0.05061 0.00934-0.05057 0.010879-0.05061 0.014009-0.04905 0.015553-0.04739 0.018633-0.04744 0.018633-0.04739 0.021763-0.04583 0.023343-0.04426 0.026432-0.04426 0.026427-0.04269 0.029551-0.04112 0.031092-0.03951 0.032637-0.03794 0.034181-0.03794 0.035771-0.0348 0.037305-0.03323 0.038891-0.03319 0.040426-0.03006 0.04198-0.03005 0.043515-0.02688 0.0451-0.02526 0.046604-0.02213 0.04823-0.02213 0.04973-0.0015-0.060608-0.0047-0.059068-0.0063-0.059108-0.0095-0.057524-0.01268-0.057524-0.01425-0.057524-0.01581-0.055944-0.01899-0.054399-0.02213-0.054398-0.02213-0.052854-0.02526-0.052854-0.02845-0.049774-0.02845-0.051314-0.03163-0.04819-0.03319-0.046644-0.0348-0.04665-0.03794-0.04506-0.03794-0.043515-0.04112-0.040436-0.04111-0.040431-0.04426-0.038891-0.04426-0.037306-0.04739-0.034181-0.04739-0.034226-0.04905-0.031097-0.05061-0.029551-0.05219-0.026427-0.05375-0.026432-0.05379-0.023297-0.05532-0.020217-0.05693-0.018633-0.0585-0.017093-0.01895-0.0016-0.02056-0.0047-0.01738-0.00622-0.01899-0.00776-0.01738-0.00934-0.01581-0.010879-0.01424-0.012418-0.01425-0.014009-0.01268-0.014009-0.01111-0.015553-0.0095-0.017088-0.0095-0.018633-0.0063-0.017088-0.0047-0.020217-0.0032-0.018633v-0.041891l0.0032-0.020217 0.0126-0.040435 0.0095-0.017088 0.01111-0.017098 0.01107-0.017088 0.01425-0.014009 0.01581-0.014009 0.01586-0.012418 0.01738-0.009337 0.01899-0.009296 0.01895-0.007798 0.02055-0.004699 0.02056-0.00315 0.02213-0.001549 0.01895 0.001549 0.01899 0.001601 0.01738 0.004699 0.01899 0.006218 0.01738 0.006218 0.01738 0.007757 0.01586 0.009337 0.01581 0.009337-0.03794-0.027971-0.03798-0.027972-0.03951-0.024887-0.03951-0.024842-0.04111-0.023342-0.04269-0.023297-0.04265-0.020218-0.04269-0.018633-0.04426-0.018633-0.04426-0.015553-0.04583-0.015543-0.04426-0.012464-0.04587-0.010879-0.04583-0.009334-0.04583-0.007759-0.04583-0.006215-0.0933-0.004699h-0.09162l-0.09174 0.00315-0.09013 0.009339-0.09013 0.012419-0.08695 0.015553-0.08695 0.021762-0.08534 0.024887-0.08538 0.027972-0.0822 0.032636-0.08063 0.035771-0.07745 0.040431-0.07749 0.04198-0.07432 0.046644-0.07274 0.049774-0.06957 0.052854-0.06795 0.055978-0.06482 0.060613-0.06164 0.060648-0.06011 0.065277-0.05532 0.068402-0.05375 0.069987-0.05061 0.073071-0.04744 0.074617-0.04265 0.077741-0.04111 0.080826-0.03637 0.082371-0.03319 0.083951-0.02845 0.087075-0.02531 0.08708-0.02055 0.090164-0.01581 0.09325-0.01263-0.048185-0.01268-0.046645-0.01581-0.04506-0.01581-0.045065-0.01899-0.045105-0.02055-0.041975-0.02213-0.041971-0.02374-0.041975-0.0237-0.03889-0.02688-0.03889-0.02845-0.038851-0.03006-0.035761-0.03006-0.035766-0.03163-0.034181-0.03319-0.032637-0.03476-0.032637-0.03637-0.029551-0.03794-0.029551-0.03794-0.026432-0.03795-0.026432-0.04111-0.024887-0.04112-0.021763-0.04269-0.021757-0.04269-0.020217-0.04426-0.018633-0.04426-0.015553-0.04587-0.015553-0.04583-0.012423-0.04744-0.010879-0.04744-0.00934-0.049-0.00776-0.049-0.00622-0.03637-0.00622-0.07274-0.015508-0.03476-0.010919-0.03637-0.010879-0.03481-0.010923-0.03476-0.013964-0.03319-0.014009-0.03476-0.015553-0.03319-0.015553-0.03319-0.017088-0.03163-0.018673-0.03163-0.018633-0.03163-0.020217-0.03006-0.020217-0.03005-0.021763-0.03006-0.023298-0.02845-0.023297-0.02688-0.024887-0.02845-0.024887-0.02531-0.024887-0.02688-0.027972-0.02374-0.026432-0.0253-0.027972-0.02213-0.029551-0.04425-0.059103-0.02056-0.031092-0.01895-0.031096-0.01895-0.032636-0.01738-0.032636-0.01581-0.032636-0.01106 0.035771-0.01267 0.034226-0.01263 0.034181-0.01267 0.034181-0.01581 0.034226-0.01581 0.034181-0.01581 0.032637-0.01895 0.031097-0.01895 0.032637-0.01895 0.031097-0.02055 0.029551-0.02213 0.031092-0.02213 0.027972-0.02371 0.029551-0.0237 0.027972-0.02531 0.026427-0.02531 0.026432-0.02688 0.026427-0.02688 0.024842-0.02845 0.023343-0.02845 0.023298-0.03005 0.021763-0.03006 0.021752-0.030055 0.021763-0.031628 0.018633-0.031628 0.018673-0.03319 0.018642-0.03319 0.017088-0.03319 0.015553-0.034758 0.013964-0.034758 0.014009-0.034808 0.012463-0.052185 0.015553-0.052185 0.017093-0.049002 0.020217-0.049046 0.020217-0.047389 0.023298-0.045866 0.026427-0.044259 0.026427-0.044259 0.027972-0.041113 0.031092-0.041123 0.032637-0.037938 0.032637-0.037943 0.035761-0.06952 0.074612-0.063256 0.08087-0.028448 0.04197-0.02688 0.043515-0.025268 0.043515-0.023734 0.045065-0.020559 0.04665-0.020554 0.048185-0.017379 0.048185-0.014243 0.04977-0.014204 0.04973-0.011063 0.049775-0.00792 0.051314-0.00632 0.052854-0.00475 0.051309-0.00153 0.052854v0.054398l0.00317 0.052854-0.023734-0.04506-0.025197-0.043526-0.025312-0.043515-0.028453-0.041971-0.030055-0.040426-0.030055-0.03889-0.031628-0.03889-0.034758-0.037305-0.034808-0.037305-0.034758-0.034226-0.037938-0.034181-0.037943-0.032637-0.039506-0.031097-0.041123-0.029551-0.041113-0.027972-0.042691-0.027972-0.042691-0.024887-0.044259-0.024842-0.045832-0.021752-0.045866-0.021763-0.045832-0.020217-0.047439-0.017098-0.047439-0.017088-0.098006-0.028016-0.049002-0.010879-0.050614-0.010879-0.050614-0.00776-0.050614-0.00622-0.050574-0.0047-0.052185-0.00315h-0.083813l-0.03319 0.00155-0.034808 0.0016-0.066378 0.0063-0.03319 0.0047-0.03319 0.00315-0.030055 0.0047-0.018952 0.00622-0.020559 0.0047-0.018952 0.00315-0.020559 0.00155-0.022127-0.00155-0.020559-0.00315-0.020559-0.00622-0.018952-0.00621-0.018952-0.00934-0.017379-0.00934-0.015811-0.012423-0.015806-0.014009-0.012631-0.013964-0.012676-0.017098-0.011064-0.017088-0.00946-0.018633-0.00632-0.018633-0.00475-0.020217-0.00317-0.020217-0.00153-0.021757 0.00153-0.020217 0.00317-0.020217 0.00475-0.018633 0.00632-0.018633 0.00946-0.017088 0.011064-0.015553 0.011068-0.013964 0.014248-0.014009 0.031618-0.021757 0.017379-0.010878 0.018952-0.00776 0.018952-0.00622 0.020559-0.00622 0.020559-0.0047 0.020559-0.00315 0.014204-0.00155h0.015811l0.014248-0.0016h0.014204l-0.093264 0.00315-0.18653 0.0094-0.093304 0.0047-0.093264 0.00776-0.091698 0.00776-0.093263 0.00934-0.091693 0.012418-0.091693 0.017093-0.088556 0.021763-0.085379 0.027972-0.080631 0.034181-0.079061 0.038891-0.074313 0.043515-0.071136 0.048185-0.067999 0.052854-0.063251 0.057524-0.061681 0.062193-0.056888 0.065278-0.052185 0.068402-0.050615 0.073071-0.045827 0.074617-0.042691 0.077741-0.037938 0.080826-0.034803 0.083951-0.031628 0.085495-0.02688 0.08708-0.023744 0.08862-0.018952 0.090165-0.015806 0.091705-0.011068 0.091705-0.00788 0.09329-0.00317 0.094829v0.09329l0.00475 0.094834 0.00788 0.09325 0.012676 0.09329 0.017379 0.09325 0.020559 0.091705 0.025312 0.090165-0.037938-0.031092-0.039511-0.027972-0.041123-0.026432-0.041123-0.024887-0.042691-0.023343-0.04269-0.021752-0.04426-0.018633-0.04426-0.018673-0.04426-0.015544-0.045831-0.014009-0.045826-0.012423-0.045866-0.010879-0.047438-0.00934-0.045831-0.00776-0.047438-0.0047-0.047437-0.00315-0.045831-0.00315h-0.047438l-0.094875 0.0063-0.047437 0.0047-0.047392 0.00776-0.045866 0.00934-0.047438 0.010879-0.045831 0.012423-0.045866 0.014009-0.04426 0.017088-0.04426 0.018633-0.04426 0.020217-0.04426 0.021763-0.04269 0.023343-0.041124 0.024887-0.034805 0.017088-0.033189 0.017093-0.03476 0.015553-0.072742 0.028016-0.036371 0.010879-0.075874 0.021757-0.037937 0.0093-0.037937 0.0078-0.039508 0.00622-0.037937 0.0047-0.039508 0.0047-0.037942 0.00315-0.039508 0.00155h-0.072892l-0.036371-0.00155-0.03476-0.0016-0.036371-0.0047-0.034805-0.0047-0.036331-0.0047-0.034805-0.00622-0.03476-0.00776-0.034805-0.0078-0.03476-0.0093-0.033189-0.010878-0.03476-0.010874-0.033189-0.012463-0.033189-0.013964-0.033189-0.014009-0.031628-0.014009 0.020557 0.054398 0.03476 0.11505 0.014248 0.060608 0.011067 0.060653 0.00788 0.060608 0.00316 0.031097 0.00156 0.029551 0.00161 0.031091v0.071528l-0.00316 0.043515-0.00316 0.041971-0.00632 0.043515-0.00788 0.041971-0.00788 0.043515-0.011066 0.041971-0.011061 0.041971-0.012632 0.040425-0.014248 0.04198-0.015809 0.040431-0.01738 0.03885-0.01738 0.03889-0.018951 0.037306-0.020557 0.03731-0.022133 0.035761-0.030057 0.043515-0.030057 0.045105-0.02688 0.04506-0.023734 0.046644-0.023704 0.046599-0.018951 0.04823-0.018951 0.048185-0.015809 0.049774-0.012632 0.048184-0.012632 0.051314-0.00792 0.04973-0.00788 0.049774-0.00477 0.051314-0.00156 0.049774-0.00161 0.051309 0.00161 0.051309 0.00477 0.04977 0.00632 0.04973 0.00792 0.051309 0.00946 0.049775 0.012677 0.04973 0.014203 0.04823 0.01738 0.04819 0.018951 0.048184 0.020557 0.04665 0.023699 0.046644 0.02531 0.04506 0.02688 0.04506 0.030057 0.04352 0.031628 0.04197 0.033189 0.041971 0.036371 0.040431h-0.11917l-0.056933 0.0047-0.058504 0.00622-0.056933 0.00776-0.056893 0.0093-0.055327 0.012463-0.056933 0.015553-0.053751 0.017088-0.053751 0.018633-0.053751 0.020217-0.052185 0.023343-0.050614 0.024842-0.049003 0.026432-0.049048 0.027972-0.049003 0.031097-0.045826 0.031091-0.045872 0.034226-0.04269 0.034181-0.04269 0.037305-0.041124 0.03889-0.039553 0.040436-0.037937 0.040436-0.036376 0.043515-0.03476 0.045065-0.033189 0.045104-0.031628 0.046644-0.028446 0.048184-0.02688 0.04973-0.02531 0.051309-0.023699 0.051309-0.020557 0.052854-0.018951 0.054398-0.00954 0.037266-0.00632 0.017088-0.0095 0.017093-0.00946 0.015553-0.011066 0.015553-0.012677 0.014009-0.014203 0.012418-0.014248 0.010879-0.015809 0.010879-0.01738 0.00934-0.01738 0.00776-0.01738 0.00622-0.037902 0.0063-0.020562 0.00155-0.022128-0.00155-0.020562-0.00315-0.020562-0.0047-0.01895-0.00776-0.018949-0.00776-0.017382-0.010879-0.015811-0.012418-0.015813-0.014009-0.012674-0.014009-0.012634-0.017088-0.011065-0.017098-0.009495-0.017088-0.006317-0.020217-0.004748-0.018633-0.003175-0.021752-0.001573-0.021763v-0.018633l0.003175-0.020217 0.004748-0.020217 0.006316-0.018633 0.007886-0.018633 0.009495-0.017088 0.011065-0.017088 0.011064-0.017088-0.030056 0.034181-0.030055 0.035766-0.028445 0.037306-0.026876 0.03889-0.025267 0.03889-0.023739 0.040436-0.023698 0.040436-0.020561 0.041975-0.02056 0.043515-0.018992 0.04197-0.015812 0.04506-0.015813 0.043515-0.014243 0.04506-0.012632 0.045105-0.009496 0.045065-0.009495 0.04506-0.009455 0.090164-0.004748 0.090165-0.001606 0.090165 0.004748 0.090165 0.007928 0.08862 0.012634 0.08704 0.01738 0.085495 0.02213 0.085495 0.025308 0.083956 0.028445 0.082411 0.033194 0.080826 0.037941 0.079286 0.041121 0.077741 0.045826 0.076157 0.049006 0.073071 0.052185 0.071532 0.055322 0.069947 0.06011 0.066823 0.063251 0.063733 0.066388 0.062193 0.069565 0.059068 0.072702 0.055938 0.075884 0.052854 0.079061 0.04973 0.082242 0.04823 0.085379 0.043515 0.088556 0.038851 0.090127 0.037306 0.094875 0.032682 0.09644 0.029551 0.098011 0.024842 0.10276 0.021763-0.039508 0.010879-0.039552 0.01247-0.075874 0.03111-0.037937 0.01863-0.037937 0.02021-0.036371 0.02022-0.036371 0.0233-0.036366 0.02484-0.03476 0.02643-0.034805 0.02643-0.033194 0.02955-0.033189 0.02955-0.031628 0.03109-0.031628 0.03264-0.030057 0.03423-0.028446 0.03576-0.02688 0.03576-0.02688 0.03731-0.025309 0.03885-0.023699 0.03889-0.022127 0.0404-0.022133 0.04198-0.018991 0.04196-0.018951 0.04352-0.015809 0.04351-0.015809 0.04506-0.012677 0.04506-0.011066 0.0466-0.011062 0.04664-0.00788 0.04818-0.00477 0.04664-0.00788 0.03731-0.00788 0.03577-0.0095 0.03423-0.00946 0.03573-0.011066 0.03423-0.012677 0.03423-0.014248 0.03418-0.014248 0.03423-0.015809 0.03268-0.015809 0.03264-0.018951 0.03268-0.01738 0.0311-0.020557 0.0311-0.020557 0.03109-0.020557 0.02955-0.022133 0.02955-0.023699 0.02797-0.023739 0.02797-0.025265 0.02797-0.025309 0.02643-0.026879 0.02484-0.026876 0.02484-0.028446 0.02489-0.028445 0.0233-0.028447 0.0233-0.031624 0.02176-0.030056 0.02021-0.063246 0.04044-0.033194 0.01709-0.033192 0.01708-0.034762 0.01713 0.036372 0.01088 0.036374 0.01247 0.034761 0.01247 0.034762 0.01396 0.033193 0.01559 0.033194 0.01556 0.033193 0.01708 0.033193 0.01709 0.031625 0.01867 0.031625 0.02022 0.030056 0.02017 0.030056 0.02175 0.030057 0.02176 0.028446 0.02334 0.028446 0.0233 0.02688 0.02484 0.02688 0.02643 0.02531 0.02484 0.025305 0.02797 0.023704 0.02797 0.023699 0.02797 0.022128 0.02797 0.022133 0.02955 0.020557 0.0311 0.018951 0.03109 0.018951 0.0311 0.018951 0.03268 0.015809 0.03264 0.01738 0.03268 0.014243 0.03422 0.014249 0.03418 0.012632 0.03423 0.014243 0.05131 0.01738 0.05131 0.018951 0.04823 0.020557 0.04819 0.023699 0.04664 0.02531 0.0466 0.02688 0.04352 0.028446 0.04198 0.031628 0.04194 0.031628 0.04044 0.034805 0.03885 0.03476 0.03577 0.036366 0.03576 0.039508 0.03423 0.039553 0.03264 0.041124 0.02955 0.04269 0.02955 0.04426 0.02643 0.04426 0.02484 0.045826 0.02334 0.047438 0.02176 0.047438 0.01863 0.049003 0.01713 0.049048 0.01555 0.050574 0.01401 0.052185 0.01088 0.052185 0.0093 0.052185 0.0063 0.052185 0.0047 0.053751 0.0031h0.053751l0.055322-0.0031 0.020557 0.01555-0.036331 0.04822-0.034805 0.04818-0.063256 0.10262-0.02688 0.0529-0.02688 0.05594-0.023699 0.05444-0.020557 0.05752-0.018951 0.05748-0.015809 0.05752-0.014249 0.05906-0.012632 0.05907-0.00788 0.05911-0.00793 0.06061-0.00316 0.05907-0.00161 0.06061 0.00161 0.05598 0.00316 0.05598 0.00632 0.05594 0.00788 0.05598 0.011057 0.05598 0.011066 0.0544 0.015809 0.05598 0.015809 0.0544 0.018951 0.05289 0.022127 0.05285 0.022127 0.05131 0.02531 0.05131 0.02688 0.04977 0.028446 0.04818 0.030057 0.04664 0.031628 0.04507 0.014203 0.01555 0.012677 0.01708 0.011067 0.01867 0.00946 0.01863 0.00792 0.02021 0.00477 0.02021 0.00316 0.02022 0.00156 0.02176-0.00156 0.02175-0.00316 0.02017-0.00477 0.02022-0.00631 0.01867-0.0095 0.01863-0.011062 0.01713-0.012632 0.01555-0.012677 0.01556-0.015809 0.014-0.015809 0.01088-0.01738 0.01093-0.018951 0.0093-0.018951 0.0063-0.020557 0.0063-0.020557 0.0031h-0.041078l-0.018991-0.0031-0.01738-0.0032-0.01738-0.0062-0.01738-0.0063-0.031618-0.0186-0.015809-0.01088-0.012632-0.01092-0.012632-0.014-0.012677-0.01401-0.00946-0.01401-0.0095-0.01556-0.00793-0.01774-0.00788-0.01708-0.00477-0.01713 0.011061 0.04352 0.011067 0.04506 0.014203 0.04352 0.015809 0.04351 0.01738 0.04351 0.01738 0.04353 0.020557 0.04196 0.022128 0.04044 0.023704 0.0404 0.023704 0.04043 0.053761 0.0777 0.028452 0.03731 0.028447 0.03577 0.030057 0.03423 0.031628 0.03423 0.069565 0.06216 0.071136 0.05752 0.074313 0.05285 0.075884 0.04977 0.077449 0.04506 0.079066 0.04197 0.080631 0.03731 0.082197 0.03423 0.083808 0.02955 0.083813 0.02643 0.086945 0.02175 0.085379 0.01708 0.086945 0.01401 0.088556 0.01088 0.088556 0.0063 0.086945 0.0015 0.088561-0.0015 0.088516-0.0063 0.088556-0.0093 0.08695-0.01401 0.088556-0.01709 0.085379-0.02176 0.086945-0.02489 0.083768-0.02955 0.083808-0.03418 0.082202-0.03731 0.082242-0.04044 0.07906-0.0466 0.077454-0.04823 0.075884-0.0544 0.074312-0.05598 0.071136-0.06219-0.0095 0.04822-0.00946 0.0466-0.00632 0.04822-0.00475 0.04823-0.00317 0.0466-0.00158 0.04824 0.00158 0.0466 0.00317 0.0466 0.00475 0.04665 0.00632 0.0466 0.00788 0.04664 0.011063 0.04507 0.011068 0.04506 0.014244 0.04351 0.015806 0.04506 0.017379 0.04351 0.018952 0.04198 0.020559 0.04197 0.022127 0.0404 0.023734 0.04044 0.025302 0.03885 0.02688 0.03885 0.028447 0.03731 0.030055 0.03576 0.031628 0.03577 0.03319 0.03423 0.034808 0.03264 0.036371 0.03268 0.036371 0.02955 0.039511 0.02955 0.041123 0.02643 0.041123 0.02639 0.030055 0.02176 0.028453 0.0233 0.028447 0.02334 0.028448 0.02484 0.025312 0.02484 0.02688 0.02489 0.025307 0.02639 0.023705 0.02798 0.023734 0.02797 0.022127 0.02797 0.022132 0.02955 0.020559 0.02955 0.020559 0.03109 0.018952 0.02955 0.017379 0.03268 0.017379 0.0311 0.015806 0.03268 0.015811 0.03264 0.014248 0.03268 0.012631 0.03418 0.012631 0.03423 0.011059 0.03423 0.011063 0.03418 0.0095 0.03577 0.00788 0.03577 0.00788 0.03576 0.00475 0.03576 0.00632 0.03577 0.00317 0.03576 0.00317 0.03731 0.00153 0.03576v0.04817l0.022132-0.02484 0.022132-0.02329 0.023734-0.02176 0.023705-0.02176 0.025302-0.02175 0.023744-0.02021 0.02688-0.02021 0.025312-0.01863 0.02688-0.01867 0.028448-0.01863 0.02688-0.01713 0.028448-0.01708 0.028453-0.01555 0.028448-0.01556 0.060114-0.02802 0.060115-0.02492 0.031628-0.01088 0.031628-0.01093 0.030055-0.0093 0.031628-0.0093 0.03319-0.0078 0.031628-0.0078 0.033191-0.0063 0.031628-0.0047 0.03319-0.0063 0.03319-0.0031 0.03319-0.0032 0.099567-0.0046 0.03319 0.0015 0.036366 0.0031 0.034808 0.0032 0.031623 0.0015 0.053751 0.0078 0.053756 0.0063 0.053751 0.0047 0.053751 0.0015h0.052185l0.053751-0.0032 0.052185-0.0046 0.050614-0.0078 0.052185-0.0093 0.050614-0.01243 0.049002-0.01247 0.049002-0.01555 0.049046-0.01867 0.047439-0.01863 0.047389-0.02175 0.045866-0.02489 0.044259-0.02484 0.044259-0.02643 0.041123-0.02955 0.041123-0.0311 0.041123-0.03264 0.037938-0.03423 0.036371-0.03576 0.03637-0.03731 0.033191-0.03885 0.03319-0.04044 0.030055-0.04198 0.028453-0.04351 0.028447-0.04507 0.0237-0.0466 0.023744-0.04824 0.022132-0.04977 0.00153 0.06065 0.00475 0.05907 0.00632 0.05907 0.0095 0.05752 0.012631 0.05752 0.014249 0.05748 0.015811 0.05444 0.018952 0.05598 0.020559 0.0544 0.023705 0.05285 0.025312 0.05289 0.02688 0.04973 0.030055 0.04977 0.031628 0.04977 0.03319 0.0466 0.034758 0.04664 0.037938 0.04505 0.037943 0.04351 0.039551 0.0404 0.042691 0.04044 0.044259 0.03885 0.044259 0.03731 0.094875 0.06846 0.049002 0.0311 0.050614 0.02955 0.052185 0.02643 0.053751 0.02639 0.053751 0.02334 0.055316 0.02018 0.056933 0.02021 0.056893 0.01555 0.020554 0.0032 0.018952 0.0046 0.018952 0.0063 0.01895 0.0078 0.01581 0.0093 0.01738 0.01088 0.01425 0.01247 0.01425 0.01241 0.01263 0.01559 0.01107 0.01555 0.0095 0.01708 0.0079 0.01709 0.0079 0.01867 0.0047 0.02021 0.0032 0.01863v0.04197l-0.0095 0.04044-0.0063 0.01863-0.0095 0.01867-0.01106 0.01709-0.01263 0.01708-0.01268 0.01401-0.01581 0.01401-0.01581 0.01247-0.01738 0.0093-0.01895 0.0093-0.018952 0.0063-0.020569 0.0063-0.020559 0.0032-0.022127 0.0015-0.018952-0.0015-0.018986-0.0032-0.018952-0.0031-0.034758-0.01243-0.017379-0.0078-0.015806-0.0093-0.015811-0.01093 0.075874 0.05594 0.039551 0.02643 0.039551 0.0233 0.041123 0.02484 0.042692 0.02176 0.04269 0.02021 0.04269 0.01863 0.04426 0.01868 0.04426 0.01555 0.04426 0.01554 0.04587 0.01247 0.04583 0.01088 0.04587 0.0093 0.04583 0.0078 0.04583 0.0063 0.09169 0.0046 0.0933 0.0016 0.09169-0.0047 0.09013-0.0078 0.08856-0.01401 0.08856-0.01554 0.08695-0.02176 0.08538-0.02489 0.08381-0.02793 0.0822-0.03268 0.08063-0.03576 0.07906-0.03885 0.07745-0.04351 0.07431-0.04665 0.07271-0.04973 0.06956-0.05289 0.06639-0.05594 0.06639-0.05907 0.06168-0.06219 0.0585-0.06528 0.05689-0.06683 0.05375-0.07154 0.05057-0.07307 0.04744-0.07461 0.04269-0.07774 0.04112-0.08082 0.03637-0.08237 0.03163-0.08395 0.03006-0.08708 0.02374-0.08708 0.02055-0.09017 0.01738-0.09329 0.01107 0.04822 0.01425 0.0466 0.01425 0.04511 0.01738 0.04506 0.01899 0.04351 0.01895 0.04351 0.02213 0.04194 0.02373 0.04044 0.02527 0.0404 0.02688 0.03889 0.02684 0.03731 0.03005 0.03731 0.03167 0.03576 0.03163 0.03423 0.03319 0.03264 0.0348 0.0311 0.03637 0.03114 0.03637 0.02793 0.03951 0.02797 0.03798 0.02489 0.04108 0.02484 0.04111 0.0233 0.04265 0.02176 0.04269 0.01867 0.04426 0.01863 0.04583 0.01559 0.04587 0.01555 0.04583 0.01243 0.04739 0.01093 0.04744 0.0093 0.049 0.0078 0.04905 0.0063 0.03637 0.0063 0.03794 0.0078 0.03481 0.0093 0.03637 0.01093 0.03476 0.01088 0.03637 0.01247 0.03481 0.01247 0.03324 0.01401 0.03476 0.01555 0.03323 0.01555 0.03163 0.01863 0.03319 0.01712 0.03167 0.01863 0.06011 0.04044 0.03006 0.02175 0.03005 0.0233 0.02845 0.0233 0.02684 0.0233 0.02688 0.02489 0.02688 0.02639 0.02526 0.02643 0.02531 0.02643 0.0237 0.02797 0.02213 0.02793 0.04426 0.0591 0.02055 0.03114 0.01895 0.0311 0.01899 0.03264 0.01738 0.03114 0.01581 0.03418 0.01111-0.03573 0.01106-0.03576 0.01268-0.03423 0.01425-0.03423 0.01581-0.03418 0.01581-0.03423 0.01581-0.03268 0.01899-0.03109 0.01738-0.03264 0.02055-0.03114 0.02056-0.02955 0.04425-0.0591 0.0237-0.02797 0.0237-0.02793 0.02531-0.02643 0.02527-0.02643 0.02688-0.02639 0.02684-0.02489 0.0569-0.0466 0.03005-0.02176 0.03006-0.02175 0.03006-0.02021 0.03166-0.01863 0.03163-0.01867 0.03319-0.01867 0.03323-0.01708 0.03319-0.01555 0.06961-0.02802 0.03637-0.01247 0.05218-0.01556 0.05061-0.01709 0.049-0.01867 0.04905-0.02176 0.04739-0.0233 0.04583-0.02484 0.04426-0.02643 0.04426-0.02955 0.04112-0.02955 0.04112-0.03264 0.07587-0.06845 0.0348-0.03731 0.03476-0.03731 0.03166-0.04044 0.03163-0.0404 0.02845-0.04198 0.02684-0.04352 0.02531-0.04351 0.0237-0.04506 0.02055-0.0466 0.01895-0.04664 0.01742-0.04818 0.01581-0.04977 0.01268-0.04977 0.01106-0.04977 0.0095-0.05131 0.0063-0.05285 0.0047-0.05131 0.0015-0.05285v-0.05288l-0.0032-0.0544 0.0237 0.0466 0.0237 0.04352 0.02688 0.04351 0.02844 0.04198 0.02841 0.04044 0.03167 0.0404 0.03163 0.03731 0.03319 0.03731 0.0348 0.03731 0.03637 0.03423 0.03794 0.03423 0.03794 0.03264 0.03955 0.03114 0.03951 0.02955 0.04269 0.02793 0.04108 0.02643 0.04426 0.02489 0.04426 0.02484 0.04426 0.02176 0.04587 0.02176 0.04739 0.01863 0.04739 0.01867 0.04744 0.01556 0.049 0.01555 0.0981 0.02492 0.05062 0.0093 0.05057 0.0078 0.05061 0.0063 0.05061 0.0047 0.05219 0.0031h0.08385l0.03319-0.0015 0.0348-0.0015 0.03319-0.0032 0.03324-0.0031 0.03319-0.0047 0.03324-0.0031 0.03005-0.0047 0.01895-0.0047 0.02055-0.0046 0.01899-0.0032 0.02055-0.0015 0.02051 0.0015 0.02213 0.0032 0.02055 0.0046 0.01899 0.0078 0.01895 0.0093 0.01742 0.0093 0.01581 0.01247 0.01581 0.01401 0.01268 0.01396 0.01263 0.01712 0.01111 0.0171 0.0079 0.01712 0.0079 0.02018 0.0047 0.02021 0.0032 0.02021 0.0015 0.02175-0.0015 0.02022-0.0032 0.02017-0.0047 0.02021-0.0063 0.01867-0.0079 0.01708-0.01106 0.01709-0.01111 0.01555-0.01425 0.01401-0.01424 0.01247-0.01581 0.01092-0.01738 0.01088-0.01742 0.0078-0.01895 0.0063-0.02055 0.0047-0.02055 0.0031-0.02213 0.0015h-0.06169l0.0474-0.0015h0.04744l0.04739 0.0015 0.04905 0.0016 0.09644 0.0031 0.09801 0.0031h0.09483l0.04583-0.0015 0.04583-0.0031 0.04426-0.0047 0.04426-0.0063 0.04112-0.0078 0.04108-0.01088 0.08856-0.02955 0.08538-0.03268 0.0822-0.03885 0.07906-0.04198 0.07588-0.04507 0.07431-0.05131 0.0696-0.05285 0.06639-0.05752 0.06478-0.06065 0.06011-0.0637 0.05689-0.06528 0.05375-0.06999 0.05061-0.07154 0.04587-0.07461 0.04265-0.07775 0.03955-0.0777 0.03637-0.08082 0.03163-0.08395 0.02845-0.08391 0.02526-0.08549 0.02056-0.08708 0.01581-0.08862 0.01268-0.08862 0.0095-0.0902 0.0047-0.09017v-0.09174l-0.0032-0.09171-0.0079-0.09175-0.01263-0.09171-0.01586-0.0902-0.02213-0.09171-0.02527-0.0902 0.03951 0.03114 0.03955 0.02793 0.04108 0.02643 0.04112 0.02489 0.04269 0.0233 0.04265 0.02175 0.04426 0.01863 0.04426 0.01867 0.04426 0.01555 0.04587 0.01401 0.04583 0.01247 0.04583 0.01088 0.04583 0.0093 0.04744 0.0078 0.04583 0.0047 0.04739 0.0032 0.04744 0.0031h0.04739l0.04739-0.0031 0.04744-0.0032 0.04739-0.0047 0.04587-0.0078 0.0474-0.0093 0.04583-0.01088 0.04583-0.01247 0.04587-0.01401 0.04583-0.01709 0.04426-0.01867 0.04426-0.02021 0.04426-0.02176 0.04269-0.0233 0.04108-0.02484 0.03323-0.01713 0.03476-0.01708 0.0348-0.01555 0.07274-0.02802 0.03637-0.01088 0.03794-0.01247 0.07588-0.0186 0.03794-0.0078 0.03794-0.0063 0.03955-0.0046 0.03794-0.0047 0.03951-0.0031 0.03798-0.0016 0.03951-0.0015 0.0348 0.0015 0.03634 0.0016 0.0348 0.0015 0.03637 0.0047 0.0348 0.0046 0.03476 0.0047 0.03637 0.0063 0.06961 0.01551 0.03319 0.0093 0.0348 0.01093 0.03324 0.01088 0.03476 0.01247 0.03324 0.01401 0.03163 0.01401 0.03323 0.01396-0.02055-0.0544-0.01899-0.05752-0.01581-0.05752-0.01425-0.06061-0.01107-0.06061-0.0079-0.06065-0.0032-0.0311-0.0015-0.02955-0.0015-0.03109-0.0015-0.02955 0.0015-0.04196 0.0032-0.04352 0.0032-0.04198 0.0063-0.04351 0.0063-0.04194 0.0095-0.04351 0.0095-0.04198 0.01268-0.04197 0.01263-0.04198 0.01425-0.0404 0.01581-0.04044 0.01742-0.03885 0.01738-0.03886 0.01899-0.03889 0.02051-0.03576 0.02056-0.03576 0.03163-0.04351 0.03006-0.04506 0.02688-0.04507 0.0237-0.0466 0.02213-0.04664 0.02055-0.04818 0.01899-0.04824 0.01581-0.04977 0.01268-0.04977 0.01107-0.04973 0.0095-0.04977 0.0079-0.04977 0.0047-0.05131 0.0015-0.04977 0.0015-0.05131-0.0015-0.05131-0.0047-0.04977-0.0063-0.04977-0.0079-0.05131-0.0095-0.04973-0.01263-0.04823-0.01581-0.04977-0.01586-0.04818-0.01895-0.04824-0.02055-0.0466-0.0237-0.04664-0.02531-0.04506-0.02684-0.04506-0.03006-0.04352-0.03166-0.04198-0.03319-0.04043-0.03637-0.0404h0.05854l0.0585-0.0015 0.0585-0.0032 0.0585-0.0063 0.05689-0.0078 0.05693-0.01088 0.05536-0.01247 0.05532-0.014 0.05537-0.01708 0.05375-0.01867 0.05219-0.02017 0.05219-0.02334 0.05218-0.02484 0.04905-0.02643 0.049-0.02793 0.04744-0.03114 0.04739-0.03109 0.04426-0.03422 0.04426-0.03577 0.04269-0.03573 0.04111-0.03889 0.03951-0.0404 0.03794-0.04198 0.03637-0.04198 0.0348-0.04506 0.03319-0.04506 0.03006-0.04824 0.03006-0.04818 0.02688-0.04977 0.02527-0.04977 0.02373-0.05285 0.02051-0.0529 0.01899-0.0544 0.0032-0.01867 0.0063-0.01863 0.0063-0.01709 0.0095-0.01712 0.0095-0.01555 0.01106-0.01556 0.01268-0.01401 0.01425-0.01247 0.01425-0.01088 0.01581-0.01092 0.01581-0.0093 0.01738-0.0078 0.01899-0.0063 0.01895-0.0047 0.01899-0.0015 0.02055-0.0015 0.02056 0.0015 0.02213 0.0032 0.02053 0.0046 0.01899 0.0078 0.01895 0.0078 0.01742 0.01092 0.01581 0.01247 0.01581 0.01401 0.01268 0.01396 0.01268 0.01559 0.01106 0.01709 0.0079 0.01867 0.0079 0.02018 0.0047 0.01867 0.0032 0.02176 0.0016 0.02022-0.0016 0.02017-0.0015 0.02022-0.0047 0.02021-0.0063 0.01863-0.0079 0.01867-0.0095 0.01709-0.01106 0.01712-0.01268 0.01709 0.03163-0.03423 0.03005-0.03577 0.02845-0.03573 0.02688-0.03889 0.02526-0.03885 0.0237-0.04043 0.02373-0.0404 0.02052-0.04198 0.02055-0.04351 0.01742-0.04352 0.01738-0.04353 0.01581-0.04351 0.01425-0.04506 0.01267-0.04506 0.0095-0.04506 0.0095-0.04511 0.0095-0.09171 0.0047-0.09017 0.0015-0.0902-0.0047-0.08862-0.0079-0.08862-0.01268-0.08862-0.01738-0.0855-0.02056-0.08549-0.0253-0.08391-0.03005-0.08237-0.03319-0.08086-0.03794-0.07924-0.04112-0.07774-0.04583-0.0762-0.04739-0.07307-0.05379-0.0715-0.05532-0.06999-0.06007-0.06683-0.06325-0.06373-0.06639-0.06216-0.06957-0.05911-0.07275-0.05594-0.07588-0.05285-0.07906-0.05131-0.0822-0.04664-0.08538-0.04352-0.08856-0.0404-0.0917-0.03577-0.0933-0.03268-0.09644-0.02955-0.09958-0.02643-0.10119-0.02022 0.03951-0.010879 0.03794-0.014009 0.03955-0.014009 0.03794-0.015553 0.03794-0.018633 0.03637-0.020217 0.03794-0.020217 0.03637-0.023297 0.0348-0.024887 0.03637-0.024887 0.03319-0.027972 0.0348-0.029551 0.03163-0.029551 0.03163-0.031097 0.03167-0.032637 0.03005-0.034181 0.02845-0.035766 0.02841-0.035761 0.02531-0.037306 0.02526-0.038891 0.02531-0.038851 0.02213-0.040431 0.02056-0.041971 0.02051-0.04197 0.01742-0.043515 0.01738-0.04352 0.01425-0.045105 0.01425-0.046604 0.01106-0.046644 0.01111-0.04665 0.0079-0.04819 0.0047-0.048184 0.0079-0.035761 0.0079-0.035771 0.0095-0.035766 0.0095-0.035761 0.02536-0.068362 0.01263-0.034226 0.01586-0.034181 0.01425-0.032637 0.01738-0.032637 0.01738-0.031092 0.01899-0.032637 0.01895-0.031092 0.02055-0.029551 0.04425-0.059104 0.0237-0.027972 0.02373-0.027972 0.0237-0.027971 0.02683-0.026432 0.02531-0.024887 0.02845-0.024842 0.02684-0.024887 0.03005-0.023343 0.02845-0.021763 0.03006-0.021763 0.03166-0.021757 0.03163-0.018673 0.03163-0.020217 0.03324-0.017093 0.03319-0.017088 0.03324-0.017088-0.0348-0.010878-0.03637-0.012463-0.0348-0.012418-0.03476-0.014009-0.03323-0.015553-0.0348-0.015553-0.03163-0.017098-0.03319-0.017088-0.03167-0.018633-0.03163-0.020217-0.03006-0.020217-0.03006-0.021763-0.03006-0.021752-0.02845-0.023297-0.02845-0.023343-0.02683-0.024842-0.02688-0.026432-0.02531-0.026432-0.02526-0.026432-0.02527-0.027972-0.02213-0.027971-0.02374-0.029551-0.02052-0.029551-0.02055-0.029551-0.02055-0.031097-0.01899-0.031091-0.03476-0.065272-0.01581-0.032637-0.01586-0.034181-0.01263-0.034181-0.01425-0.034226-0.01425-0.052854-0.01738-0.049774-0.01899-0.04977-0.02056-0.046609-0.0237-0.046644-0.02527-0.046644-0.02688-0.043515-0.02845-0.043515-0.03163-0.040436-0.03166-0.040436-0.03476-0.038891-0.0348-0.037305-0.03794-0.034181-0.03794-0.034226-0.03955-0.032637-0.04108-0.029551-0.04269-0.029551-0.04426-0.026432-0.04426-0.024887-0.04583-0.023298-0.04744-0.021763-0.04739-0.018633-0.04905-0.018673-0.05057-0.013964-0.05061-0.014009-0.05061-0.010879-0.05219-0.00934-0.05218-0.00622-0.05379-0.0047-0.05375-0.00315h-0.05372l-0.05388 0.0038z" fill="#fecd00" fill-rule="evenodd" stroke="#000" stroke-linejoin="round" stroke-width="1.1833"/>
</svg>
