<svg width="40" height="40" version="1.0" xmlns="http://www.w3.org/2000/svg">
 <path d="m4.7949 37.285s-1.4914-4.0131-0.72132-7.8603c-0.22796-1.035-1.0839-4.5684-0.16961-7.9998 0.26483-0.50653-0.71801-2.2319-0.78119-2.8708-0.23172-2.3432-1.3826-16.057-1.6604-17.31 9.072-0.084274 24.493-0.066634 24.493-0.066634s-0.18075 1.6404-0.23924 1.9385c-0.43072 2.1954 0.63012 2.1481 0.99202 2.1675 0.93227 0.049928 0.53951-0.0085 1.1482 0.15694 0.62116 0.22579 0.50293 0.63167 1.9322 2.5587 1.3323 2.0471 2.179 2.1269 3.5303 3.8367 2.3109 2.1047 6.0001 5.5196 5.4459 7.5915-1.5697 4.4372-2.5464 7.3894-3.0331 11.855-0.26986 2.8433-1.5617 5.9106-2.9991 5.8784-1.1101-0.02691-0.67077 0.31613-1.0896 0.94484-0.24429 0.36668-0.61276 0.71507-1.1817 0.7183-0.54484 0.0031-0.96241-0.07904-1.3014-0.63746-0.514-0.84665 0.1551-1.1345-1.3397-1.0749-1.3575 0.05411-23.025 0.17399-23.025 0.17399" fill="#fff" fill-rule="evenodd" stroke="#000" stroke-linecap="round" stroke-width="2.3523"/>
</svg>
