<svg xmlns="http://www.w3.org/2000/svg" width="65" height="40" viewBox="0 0 65 40">
  <path d="M6.6487,40A6.6775,6.6775,0,0,1,0,33.385V6.615A6.6775,6.6775,0,0,1,6.6487,0H58.3513A6.6777,6.6777,0,0,1,65,6.615v26.77A6.6777,6.6777,0,0,1,58.3513,40Z" fill="#009140" fill-rule="evenodd"/>
  <path d="M57.9276,2.075a5.0086,5.0086,0,0,1,5.0034,4.96v25.93a5.0086,5.0086,0,0,1-5.0034,4.96H7.0724a5.0086,5.0086,0,0,1-5.0034-4.96V7.035a5.0086,5.0086,0,0,1,5.0034-4.96Z" fill="#fff" fill-rule="evenodd"/>
  <path d="M32.5,3.4824a6.2822,6.2822,0,0,0-1.1368.1125L5.6284,7.6049A1.4441,1.4441,0,0,0,4.5789,8.9874c0,.0506.0073.11.01.0775v21.87c-.0026-.0326-.01.0269-.01.0775a1.4441,1.4441,0,0,0,1.05,1.3825l25.7348,4.01a5.8,5.8,0,0,0,2.2736,0l25.7348-4.01a1.4441,1.4441,0,0,0,1.05-1.3825c0-.0506-.0073-.11-.01-.0775V9.0649c.0026.0326.01-.0269.01-.0775a1.4441,1.4441,0,0,0-1.05-1.3825l-25.7348-4.01A6.2822,6.2822,0,0,0,32.5,3.4824Z" fill="#009140" fill-rule="evenodd"/>
</svg>
