<svg width="20" height="20" version="1.1" xmlns="http://www.w3.org/2000/svg">
 <path d="m1.7667 19.409h16.466c0.13946 0 0.28764-0.0244 0.4332-0.08193 0.14643-0.05839 0.28241-0.14643 0.39833-0.26236 0.1168-0.11593 0.20483-0.2519 0.26236-0.39833 0.05753-0.14557 0.08281-0.29374 0.08281-0.4332v-16.467c0-0.13946-0.02528-0.28677-0.08281-0.43232-0.057528-0.14643-0.14556-0.28328-0.26236-0.3992-0.11593-0.11593-0.2519-0.20396-0.39833-0.26149-0.14556-0.058399-0.29374-0.082805-0.4332-0.082805h-16.466c-0.13858 0-0.28677 0.024405-0.43232 0.082805-0.14643 0.057528-0.28328 0.14556-0.3992 0.26149-0.11593 0.11593-0.20396 0.25277-0.26149 0.3992-0.057528 0.14556-0.082805 0.29287-0.082805 0.43232v16.467c0 0.13946 0.025277 0.28677 0.082805 0.4332 0.057528 0.14643 0.14556 0.28241 0.26149 0.39833 0.11593 0.11593 0.25277 0.20396 0.3992 0.26236 0.14556 0.05753 0.29374 0.08193 0.43232 0.08193" fill="#fff" stroke="#000" stroke-width="1.1777"/>
 <path d="m1.8139 1.7889v6.3742c0 0.012399 8.26e-4 0.023952 0.0058 0.036343 0.0058 0.013212 0.01404 0.023132 0.0223 0.033865l0.0016 0.00249c0.0058 0.00662 0.01074 0.0124 0.01652 0.018986 0.0074 0.00743 0.01404 0.014877 0.02065 0.023952 0.01074 0.014877 0.02065 0.031387 0.02974 0.048735 0.0099 0.017357 0.01735 0.034692 0.02478 0.054517 0.0083 0.022313 0.01322 0.044606 0.01239 0.066904-8.26e-4 0.00908-0.0033 0.017357-0.0066 0.026429-0.0025 0.00743-5e-3 0.014877-0.0058 0.022312-0.0017 0.011553-0.0025 0.023952-0.0025 0.036343-8.26e-4 0.014031-0.0016 0.028916-0.0033 0.042952-0.0025 0.01073-0.0058 0.02147-0.0091 0.03221-0.0041 0.01155-0.0074 0.02313-0.0099 0.03469-0.0017 0.01321-0.0025 0.02726-0.0033 0.04047-8.26e-4 0.01073-8.26e-4 0.02147-0.0025 0.03221-8.26e-4 0.01073-0.0033 0.02065-0.0058 0.03056-0.0025 0.0124-0.0058 0.02479-0.0066 0.03634 0 5e-3 0.0016 0.0099 0.0033 0.01403 0.0017 0.0033 0.0025 0.0074 0.0033 0.01073 0 0.0033 0 0.0066-8.26e-4 0.01073 0 0.0041-8.26e-4 0.0091 8.26e-4 0.01321 0.0041 0.01736 0.01074 0.03304 0.01817 0.04873l0.0091 0.02065c0.0099 0.02395 0.02065 0.04791 0.03304 0.07104 0.01487 0.03469 0.02974 0.06856 0.04461 0.10325 0.03717 0.08755 0.07516 0.17511 0.11399 0.26184 0.02643 0.05864 0.10408 0.04461 0.18255 0.03056 0.07351-0.0124 0.14785-0.02395 0.18255 0.02395 0.02974 0.04213 0.05947 0.08425 0.08508 0.12803l0.03221 0.05287c0.01322 0.02313 0.02726 0.04626 0.0413 0.06938 0.0083 0.01321 0.01652 0.02726 0.02561 0.04048 0.01404 0.02313 0.02891 0.04626 0.0413 0.06855 0.01404 0.0256-0.0074 0.05204-0.02974 0.07847-0.01322 0.01651-0.02561 0.03304-0.03139 0.04956l-0.04211 0.13381c-0.01652 0.05121-0.03304 0.1016-0.04873 0.15281-0.01156 0.03469-0.04791 0.05452-0.08508 0.07435-0.04048 0.02146-0.08012 0.04295-0.0859 0.08343-0.01652 0.12638-0.01404 0.25276-0.01239 0.37831l8.26e-4 0.04213c0 0.03717 0.0033 0.07434 0.0066 0.11151 0.0041 0.05369 0.0091 0.1082 5e-3 0.1619-0.01239 0.19989-0.13381 0.38987-0.28001 0.53029-0.02891 0.02725-0.05782 0.05369-0.08756 0.08013-0.02148 0.01984-0.04295 0.03964-0.06443 0.05947-0.01404 0.0132-0.02808 0.02561-0.04213 0.03882-0.03387 0.02972-0.06773 0.06029-0.09747 0.09499-0.0091 0.01073-0.01404 0.02395-0.01982 0.03717-0.0025 0.0084-0.0058 0.01651-0.0099 0.02396-0.03634 0.04213-0.0636 0.10077-0.0793 0.15859-0.0058 0.01898-0.0091 0.03882-0.01239 0.05783-5e-3 0.0256-0.0099 0.05121-0.01817 0.07598-0.01322 0.03883-0.02808 0.07681-0.04295 0.11564-0.0033 0.0092-0.0074 0.01818-0.01239 0.02642-0.0074 0.01487-0.01487 0.02972-0.01735 0.04627-0.0033 0.02065-0.0041 0.04047-5e-3 0.06112-8.26e-4 0.0084-8.26e-4 0.01651-0.0017 0.02478l-0.0016 0.02231c-0.0017 0.02891-0.0033 0.05783-0.0041 0.08673-8.26e-4 0.02395 0.0016 0.04709 0.0041 0.07021 8.26e-4 5e-3 0.0016 0.0099 0.0016 0.01487 0.0041 0.03551 0.0091 0.06938 0.01817 0.10407 0.0083 0.02807 0.02148 0.05369 0.03634 0.0793 0.0223 0.03635 0.0446 0.07185 0.07351 0.10325 0.02313 0.0248 0.04708 0.04873 0.07186 0.07186 0.019 0.01818 0.03717 0.03717 0.05534 0.05616 0.0099 0.01073 0.02065 0.02147 0.03139 0.03222 0.0223 0.0248 0.04461 0.04955 0.06608 0.07681 0.01735 0.02313 0.02478 0.05121 0.03056 0.0793 0.01239 0.06276 0.01817 0.12555 0.01817 0.18915v0.01736c0 0.04872 0 0.09829-0.01817 0.14703-0.01074 0.02725-0.0223 0.0537-0.03387 0.07929-0.0074 0.01569-0.01487 0.03138-0.02148 0.04791-0.0223 0.05535-0.04461 0.10986-0.0669 0.16438-0.0033 0.0092-0.0074 0.01816-0.01156 0.02724-0.0099 0.02313-0.02065 0.04543-0.02478 0.07021-0.0033 0.01736-0.0041 0.03551-5e-3 0.05287 0 0.0066-8.26e-4 0.0132-8.26e-4 0.02065v4.073h10.094v-6.228c-5e-3 -0.0058-0.01072-0.01073-0.01569-0.01651l-0.0033-0.0024c-0.0041-5e-3 -0.0084-0.0092-0.01321-0.01403-0.0099-0.01072-0.02066-0.02147-0.03057-0.03303-0.01984-0.02231-0.03965-0.04462-0.05865-0.06856-0.0091-0.0099-0.01736-0.02066-0.02477-0.03139-0.0084-0.01072-0.01653-0.02147-0.02479-0.03222l-0.01072-0.0157-0.01239-0.01651c-0.0084-0.01072-0.01653-0.02065-0.02478-0.03139-0.0024-0.0033-0.0041-0.0058-0.0066-0.0084-0.0066-0.0074-0.01405-0.01487-0.02148-0.02231-0.0041-5e-3 -0.0091-0.0092-0.01487-0.01403l-0.0058-0.0058-0.03222-0.02808-0.02313-0.01983c-0.01073-0.0099-0.02148-0.01984-0.03222-0.03139-0.0033-0.0033-0.0066-0.0066-0.0099-0.01073-0.0018-0.0018-0.0024-0.0033-0.0041-0.0041-8.26e-4 -0.0018-0.0024-0.0033-0.0033-5e-3 -0.0024-0.0033-0.0041-0.0066-0.0066-0.0099-4e-3 -0.0066-0.0074-0.01403-0.0099-0.02146-5e-3 -0.01403-0.0099-0.02807-0.01487-0.04213l-8.26e-4 -0.0033c-0.0018-0.0066-0.0041-0.0132-0.0066-0.01984-0.0024-0.0092-0.0058-0.01818-0.0084-0.02725-0.0033-0.0074-0.0066-0.01487-0.01072-0.02231-0.0024-0.0033-0.0041-0.0074-0.0066-0.01072-0.0024-0.0033-5e-3 -0.0074-0.0074-0.01072l-0.0099-0.0132c-0.0033-0.0041-0.0066-0.0084-0.0099-0.01238l-8.23e-4 -0.0018c-0.0074-0.0092-0.01486-0.01651-0.02312-0.0256-0.0018-7.59e-4 -0.0033-0.0024-5e-3 -4e-3 -0.0058-0.0066-0.01239-0.01239-0.02065-0.0132l-0.02807-0.0024-0.10325 0.02395-0.03138 0.0074c-0.03221 0.0074-0.06442 0.01487-0.09664 0.02313-0.04129 0.01072-0.06113 0.05947-0.07352 0.10407-0.0018 0.0084-0.0041 0.01651-0.0058 0.02396l-0.01239 0.05535c-0.0033 0.01898-0.0074 0.03882-0.01156 0.05783l-0.0066 0.03304c-0.0033 0.01818-0.0091 0.03635-0.01405 0.05452-0.0066 0.02065-0.01239 0.04047-0.01569 0.06113-0.0018 0.0084 0.0033 0.01736 0.0091 0.02394 0.0058 5e-3 0.01156 0.0092 0.01736 0.01403 0.0033 0.0024 0.0066 0.0058 0.0091 0.0084 0.0074 0.0066 0.01487 0.0132 0.0223 0.01899 0.0018 0.0018 0.0033 0.0041 0.0033 0.0066 0 0 0 7.57e-4 -8.25e-4 0.0018-8.27e-4 0.0024-0.0033 5e-3 -0.0058 0.0058-0.01653 0.0041-0.03304 0.0041-0.04955 0.0033-0.01405 0-0.02808 0-0.04212 0.0024l-0.01653 0.0033c-0.01653 0.0024-0.03222 5e-3 -0.04872 0.0084-0.0099 0.0024-0.01982 5e-3 -0.02973 0.0066-0.01239 0.0024-0.02394 5e-3 -0.03551 0.0074-0.01983 0.0041-0.03883 0.0084-0.05864 0.01154l-0.0066 0.0018c-0.0223 0.0041-0.04378 0.0074-0.06608 0.0099-0.01487 0.0018-0.03057 0.0018-0.04543-7.57e-4l-0.02478-5e-3 -0.02065-0.0033c-0.01569-0.0033-0.03057-0.0058-0.04626-0.0084-0.01486-0.0033-0.03056-0.0024-0.04543-7.58e-4 -0.01735 0.0024-0.03551 0.0058-0.05205 0.01154-0.01735 0.0066-0.03386 0.0124-0.05121 0.01818l-0.02313 0.0084c-0.0091 0.0033-0.01819 0.0066-0.02808 0.0099-0.01653 0.0066-0.03469 0.0099-0.05205 0.0132-0.03469 5e-3 -0.06938 0.0084-0.10408 0.01154-0.03387 0.0033-0.06855 0.0058-0.10325 0.0066-0.02065 0-0.04047 0-0.06112-0.0018l-0.0603-0.0074-0.06111-0.0074c-0.01983-0.0024-0.04047-0.0033-0.06113-0.0018-0.03221 0.0018-0.06359 0.01239-0.09251 0.02892-0.01486 0.0084-0.02891 0.01736-0.04295 0.02642-0.01404 0.0099-0.02725 0.01984-0.0413 0.02972-0.0024 0.0018-0.0042 0.0033-0.0065 0.0066-0.0058 0.0084-0.0091 0.01736-0.0091 0.02725v0.0256c0 0.0066 8.26e-4 0.01403 8.26e-4 0.02065 0 0.01403 0 0.02807-8.26e-4 0.04294 0 5e-3 -0.0024 0.0099-0.0065 0.01488-0.0042 0.0041-0.0083 0.0066-0.01404 0.0084-0.0074 0.0018-0.01404 0.0024-0.02149 0.0018h-0.0024c-0.0065 0-0.01321 0-0.01983-0.0018-0.01156-0.0033-0.0223-0.0066-0.03386-0.0099l-0.0099-0.0024c-0.0066-0.0018-0.01239-0.0041-0.01817-0.0058-0.0091-0.0033-0.01735-0.0058-0.02643-0.0084-0.01487-0.0041-0.02973-0.0058-0.04461-0.0041-0.02312 0.0024-0.04708 5e-3 -0.07104 0.0074l-0.03056 0.0041c-0.01404 0.0018-0.02725 0.0033-0.04129 5e-3 -0.02312 0.0033-0.04708 0.0058-0.07104 0.0084-0.02395 0.0024-0.04791 0.0041-0.07186 0.0058-0.02891 0.0018-0.057 0.0024-0.0859 0.0033-0.02808 0-0.05617 7.57e-4 -0.08425 0.0024-0.0223 0.0018-0.04543 0.0024-0.06773 5e-3 -0.0074 7.58e-4 -0.01487 0.0018-0.02313 0.0024l-0.0099 7.56e-4c-0.01157 7.57e-4 -0.0223 0.0024-0.03304 0.0041-0.01157 0.0018-0.02148 0.01154-0.02478 0.02231-0.0041 0.0132-0.0058 0.02642-0.0083 0.03963v0.0041c-0.0017 0.0066-0.0025 0.0132-0.0033 0.02066-8.26e-4 0.0074-0.0016 0.01569-0.0033 0.02313-8.26e-4 0.0058-0.0025 0.01073-0.0058 0.01569-0.0025 0.0041-0.0058 0.0066-0.0099 0.0084-0.01074 0.0033-0.02148 0.0033-0.03221 0.0024-0.01404-0.0018-0.02726-0.0033-0.04047-0.0074-0.01404-0.0041-0.02643-0.0092-0.03882-0.01651-0.01157-0.0074-0.02148-0.01569-0.02808-0.02725-0.0099-0.01487-0.01817-0.03057-0.02478-0.04706l-0.02173-0.04771-0.02148-0.04791c-0.0066-0.01569-0.01487-0.03139-0.02395-0.04543-0.0074-0.0124-0.0157-0.02479-0.02395-0.03635-0.0041-0.0058-0.0083-0.01154-0.01239-0.01817-0.0041-0.0058-0.0091-0.01154-0.01322-0.01736-0.0074-0.01155-0.01569-0.02231-0.02313-0.03386l-0.0016-0.0024c-0.0083-0.0124-0.01569-0.02479-0.02313-0.03799-0.01239-0.02561-0.01983-0.05205-0.02395-0.0793-0.0016-0.0099-0.0025-0.02065-0.0025-0.03056 8.26e-4 -0.0099 8.26e-4 -0.01983 0.0016-0.03057 0-5e-3 0-0.0091 8.26e-4 -0.01403 0-0.0058 8.26e-4 -0.01073 8.26e-4 -0.01651 0-0.0092 0-0.01816-8.26e-4 -0.02724v-0.0033c-0.0025-0.03222-0.0083-0.06442-0.01652-0.09664-0.0091-0.03303-0.02478-0.06277-0.04461-0.09168-0.0074-0.01072-0.01652-0.01984-0.02643-0.02891-0.0091-0.0084-0.01817-0.0157-0.02891-0.0223-0.02148-0.01154-0.04295-0.02147-0.06608-0.02808-0.01074-0.0024-0.02148-0.0058-0.03221-0.0074-0.01074-0.0018-0.02148-0.0033-0.03221-5e-3l-0.01487-0.0024c-0.0058-7.58e-4 -0.01157-0.0018-0.01735-0.0024-0.0099-0.0018-0.01982-0.0041-0.02891-0.0066h-0.0025c-0.02808-0.0066-0.05534-0.01488-0.08343-0.02312-0.02808-0.0084-0.05452-0.01898-0.08095-0.03222-0.01239-0.0058-0.02313-0.0132-0.03469-0.02065-0.01074-0.0074-0.02065-0.01651-0.02973-0.02642-0.01735-0.02065-0.03056-0.04294-0.03965-0.06855-0.0033-0.0099-5e-3 -0.01983-0.0066-0.03057l-8.26e-4 -5e-3c-0.0017-0.0084-0.0025-0.01651-0.0033-0.0248-8.26e-4 -0.02065-0.0016-0.04129-8.26e-4 -0.06111 0-0.01569 8.26e-4 -0.03057 0.0025-0.04543 0-0.0084 8.26e-4 -0.01651 0.0017-0.02479 8.26e-4 -0.0066 0.0016-0.01403 0.0025-0.02147 0.0017-0.01487 0.0025-0.03057 0.0041-0.04543 8.26e-4 -0.01403 8.26e-4 -0.02807 8.26e-4 -0.04213v-0.0033c8.26e-4 -0.02972-0.0033-0.05865-0.0091-0.08754-0.0058-0.02972-0.01735-0.05699-0.03304-0.08342-0.0091-0.0132-0.01817-0.02642-0.02891-0.038-0.0099-0.01155-0.02065-0.02313-0.03139-0.03469l-0.01487-0.01487c-0.0058-0.0058-0.01157-0.01154-0.01735-0.01736-0.0099-0.01154-0.01982-0.02231-0.02973-0.03469-0.01074-0.01403-0.02065-0.02891-0.03056-0.04378l-0.05946-0.08924c-0.0099-0.01487-0.02065-0.02972-0.03139-0.04378-0.01074-0.01403-0.02478-0.02561-0.04047-0.03469-0.0083-0.0059-0.01818-0.01072-0.02726-0.01569-0.0066-0.0041-0.01404-0.0083-0.02148-0.0124-0.01322-0.0083-0.02643-0.01569-0.03965-0.02559-0.0017-7.57e-4 -0.0041-0.0025-0.0058-0.0041-0.01404-0.01085-0.02396-0.0257-0.02974-0.04141-0.02808-0.08343-0.05369-0.16603-0.07929-0.24945l-0.01231-0.04138c-0.01404-0.04708-0.02891-0.09417-0.04213-0.14125-0.0066-0.02231-0.0099-0.04544-0.01239-0.06856-0.0017-0.01239-0.0025-0.0256-0.0025-0.03882-8.19e-4 -0.0099-0.0017-0.02066-0.0025-0.03056-0.0017-0.02313-5e-3 -0.04626-0.0083-0.06938-0.0033-0.02395-0.01239-0.04543-0.02313-0.0669-0.0025-5e-3 -0.0058-0.0091-0.0099-0.0124s-0.0083-0.0066-0.01322-0.0083c-0.01074-0.0033-0.02148-0.0058-0.03221-0.0074-0.0058-7.57e-4 -0.01157-0.0017-0.01735-0.0017-0.0058-7.58e-4 -0.01239-0.0017-0.01817-0.0025-0.01074-0.0017-0.02148-5e-3 -0.03139-0.01073-0.01569-0.0091-0.03056-0.01983-0.04461-0.03221-0.01404-0.0124-0.02808-0.02479-0.04295-0.03634l-0.02152-0.01901-0.02148-0.01817c-0.01304-0.01153-0.02791-0.02145-0.04195-0.03137l-0.0033-0.0025c-0.02065-0.01488-0.04295-0.0256-0.06691-0.03552-0.01074-5e-3 -0.02313-0.0074-0.03387-0.0066-0.0099 7.57e-4 -0.019 0.0041-0.02726 0.01155-0.0033 0.0033-0.0058 0.0066-0.0083 0.0099l-8.2e-4 7.57e-4 -0.0017 0.0025c-0.0017 0.0033-0.0041 0.0066-0.0058 0.0099-0.0041 0.0091-0.0083 0.01817-0.01239 0.02726-0.0017 0.0041-0.0041 0.0082-0.0058 0.01321-0.0017 0.0041-0.0041 0.0091-0.0058 0.01403-0.0041 0.0091-0.0091 0.01736-0.01404 0.0256-0.02891 0.04791-0.05947 0.09417-0.09747 0.13381-0.0091 0.0091-0.01817 0.01736-0.02726 0.0256-0.0041 0.0033-0.0083 0.0066-0.01239 0.01073-5e-3 0.0041-0.0099 0.0083-0.01569 0.01321-0.0041 0.0042-0.0091 0.0074-0.01404 0.01155-0.01404 0.01239-0.02726 0.02395-0.04047 0.03634l-0.11565 0.11564-0.07269 0.07352c-0.0041 0.0042-0.0091 0.0066-0.01404 0.0083-0.0058 0.0025-0.01157 0.0025-0.01652 0.0017-0.01239-0.0033-0.02395-0.0074-0.03552-0.01569-0.02478-0.01818-0.0446-0.03718-0.06195-0.06113-0.01239-0.01651-0.02395-0.03304-0.03469-0.05122l-0.0058-0.0091c-0.0074-0.01403-0.01569-0.02809-0.02313-0.04213-0.01817-0.03387-0.03552-0.06938-0.05204-0.1049-0.0066-0.01403-0.01322-0.02809-0.01817-0.04213-0.0041-0.01073-0.0074-0.02147-0.0083-0.03304-0.0017-0.01155-0.0025-0.02313-0.0033-0.03387 0-0.0066 0-0.01239-8.19e-4 -0.01899 0-5e-3 -8.19e-4 -0.0099-8.19e-4 -0.01569-8.19e-4 -0.01073-0.0025-0.02147-0.0058-0.03304-0.0033-0.0124-0.0099-0.02313-0.01982-0.03221-0.0091-0.0083-0.019-0.01651-0.02891-0.02561l-0.0025-0.0017c-5e-3 -0.0041-0.0099-0.0083-0.01404-0.0124-0.0066-0.0041-0.01239-0.0091-0.01817-0.01403-0.0091-0.0082-0.01487-0.01817-0.01982-0.02973-0.0033-0.0083-0.0041-0.01651-0.0041-0.02561 0-0.0099 0-0.01899 0.0017-0.02892 0.0017-0.0099 0.0041-0.01899 0.0091-0.02808 5e-3 -0.0082 0.0099-0.01569 0.01817-0.02065 0.02313-0.01488 0.04626-0.02809 0.06938-0.04047l0.0033-0.0025c0.01817-0.0091 0.03552-0.01817 0.05369-0.02726 0.02065-0.01073 0.0413-0.02147 0.06195-0.03304 0.01735-0.0099 0.03634-0.02231 0.04956-0.038 0.0091-0.0099 0.01569-0.02231 0.01735-0.03552 8.19e-4 -0.0025 0-5e-3 0-0.0074v-0.0035c0-0.0025-8.2e-4 -5e-3 -8.2e-4 -0.0074-8.19e-4 -0.0066-0.0017-0.01321-0.0033-0.01899-0.0033-0.01321-0.0066-0.02643-0.01157-0.03882-0.0041-0.0091-0.0083-0.01817-0.01157-0.02726l-0.0083-0.01817-0.01322-0.03056c-0.0025-0.0074-0.0058-0.01403-0.0091-0.02065-0.0058-0.01155-0.01074-0.02231-0.01487-0.03387-0.0025-0.0058-0.0033-0.0124-0.0041-0.01899-8.19e-4 -0.0033-8.19e-4 -0.0074-0.0025-0.01155-0.0017-0.0083-0.0033-0.01651-0.0058-0.02479-0.0017-0.0074-0.0041-0.01569-0.0058-0.02395l-0.01235-0.06699c-0.0033-0.01651-0.0041-0.03387-0.0017-0.05039 0.0025-0.01651 5e-3 -0.03304 0.0083-0.05039 8.2e-4 -0.0074 0.0025-0.0157 0.0041-0.02313 0.0017-0.0091 0.0033-0.01817 5e-3 -0.02726 0.0025-0.01651 0.0033-0.033038 0.0025-0.049561-0.0017-0.021466-0.0041-0.042126-0.0091-0.062772-0.0025-0.010733-5e-3 -0.021473-0.0066-0.031387-0.0025-0.010733-5e-3 -0.020654-0.0074-0.030559-0.0041-0.020654-0.0091-0.041299-0.01322-0.062779-0.0041-0.020654-0.0058-0.041299-0.0066-0.062772v-0.10325c8.2e-4 -0.021473 8.2e-4 -0.042953 0-0.064424 0-0.055345-8.19e-4 -0.11151 0.0066-0.16685 0.0033-0.026429 0.0066-0.05204 0.01074-0.078472 0.0025-0.01651 5e-3 -0.033038 0.0074-0.049561l0.0066-0.048736c0.0066-0.042953 0.01239-0.085078 0.01735-0.12803 0.0041-0.026429 0.0058-0.052866 0.0083-0.079297l0.0017-0.014877c8.2e-4 -0.00906 0.0017-0.018986 0.0025-0.02809l8.2e-4 -0.018989c0.0017-0.015693 0.0033-0.031389 0.0058-0.047079 8.19e-4 -0.00825 0.0033-0.015693 0.0074-0.02313 0.0041-0.00743 0.0091-0.014032 0.01404-0.020651 0.0017-0.0033 0.0041-0.00662 0.0066-0.00906 0.0025-0.00414 0.0058-0.00743 0.0083-0.011553 5e-3 -0.00662 0.0083-0.013213 0.01157-0.020651 0.0083-0.016512 0.01404-0.033867 0.01982-0.051213 0.0058-0.018172 0.0099-0.03717 0.01322-0.055342 0.0033-0.018173 0.0033-0.037167-0.0025-0.054515-0.0058-0.018172-0.01569-0.033041-0.03056-0.046258-0.0025-0.00249-5e-3 -0.00412-0.0083-0.00578-0.0033-0.00175-0.0058-0.0033-0.0091-0.00496-0.0058-0.00249-0.01157-0.00414-0.01817-0.00496-0.01239-0.00175-0.02478-0.00249-0.03717-0.00249-0.04048-7.436e-4 -0.08095-0.00175-0.12142 0.00578-0.0066 0.00175-0.01322 0.00414-0.01817 0.00825-0.0058 0.00412-0.01074 0.00825-0.01652 0.012395-0.0025 0.00175-5e-3 0.00414-0.0074 0.00578-0.0025 0.00249-0.0058 0.00496-0.0083 0.00662-5e-3 0.00414-0.01074 0.00743-0.01652 0.00992-0.02313 0.010735-0.04708 0.016512-0.07104 0.019832-0.02313 0.00249-0.04708 7.436e-4 -0.06938-0.014032-0.01982-0.012396-0.03221-0.027262-0.0446-0.043779-0.0058-0.00906-0.01239-0.017355-0.01735-0.026432-0.0058-0.00906-0.01157-0.017355-0.01735-0.02726-5e-3 -0.00906-0.0091-0.018989-0.01156-0.028911-0.0017-0.00578-0.0033-0.011554-0.0041-0.017355-8.2e-4 -0.00496-0.0017-0.00909-0.0033-0.014057-0.0025-0.00992-5e-3 -0.019832-0.0099-0.029734-0.0041-0.00992-0.01074-0.018172-0.01982-0.025606-0.0033-0.00249-0.0074-0.00496-0.01157-0.00743-0.0041-0.00249-0.0083-0.00496-0.01239-0.00662-0.0091-0.0033-0.01735-0.00578-0.02643-0.00743-0.01735-0.00414-0.03469-0.00662-0.05286-0.00825-0.0066-7.436e-4 -0.01322-0.00175-0.01983-0.00175-0.0066 0-0.01322 0-0.01982 7.435e-4 -0.0074 7.435e-4 -0.01487 0.00175-0.0223 0.0033-0.0066 7.435e-4 -0.01239 0.00175-0.01817 0.00249-0.01322 0.00175-0.02726 0.00175-0.04047 7.435e-4 -0.01322 0-0.02561-0.00496-0.038-0.012396-0.0058-0.0033-0.01074-0.00743-0.01569-0.011578-0.0058-0.00414-0.0099-0.00825-0.01487-0.013213-0.0083-0.00906-0.01652-0.018989-0.02313-0.029734-0.01322-0.022312-0.02561-0.044605-0.03717-0.066906l-5e-3 -0.00992c-0.0058-0.010733-0.01239-0.022312-0.01735-0.033867-0.0041-0.00825-0.0074-0.016512-0.01074-0.02479l-0.0091-0.019851c-0.0074-0.014874-0.01404-0.029733-0.02065-0.044606-0.0066-0.014874-0.01487-0.029734-0.0223-0.043776-0.01735-0.028903-0.03552-0.05616-0.05617-0.082593-0.01074-0.013214-0.02148-0.026432-0.03221-0.038823-0.01074-0.012395-0.02148-0.02479-0.03387-0.037167-0.0099-0.00909-0.02065-0.018173-0.03304-0.02395-0.01321-0.00662-0.02561-0.012396-0.03882-0.017355-0.0066-0.0033-0.01322-0.00578-0.01983-0.00825-0.0066-0.00249-0.01322-0.00578-0.01982-0.00825-0.01239-0.00496-0.02395-0.012396-0.03469-0.020651-0.0099-0.00825-0.01817-0.018173-0.02395-0.029737-0.0058-0.012396-0.01157-0.02479-0.01735-0.036343-0.0025-0.00662-5e-3 -0.012396-0.0074-0.018172-0.0033-0.00662-0.0058-0.013215-0.0091-0.018989-5e-3 -0.011553-0.01239-0.021469-0.02148-0.031387-0.0041-0.00414-0.0091-0.00662-0.01487-0.00906-0.0058-0.00249-0.01239-0.00414-0.019-0.00414-0.0083-7.436e-4 -0.01652-0.00175-0.02478-0.00175-0.0066 0-0.01322 0-0.01983-7.437e-4 -0.01322-7.433e-4 -0.02726-0.00175-0.0413-0.00414-0.01157-0.00249-0.02065-0.011553-0.02561-0.022312-0.0041-0.00825-0.0066-0.016511-0.0091-0.025604l-0.0017-0.00578c-0.0017-0.00662-0.0033-0.013213-5e-3 -0.019832-0.0033-0.017355-0.0058-0.034693-0.0083-0.052038-0.0017-0.00825-0.0025-0.016512-0.0041-0.024766-8.2e-4 -0.00909-0.0025-0.018172-0.0041-0.02726-8.2e-4 -0.00906-0.0025-0.017355-0.0041-0.026432-0.0017-0.00496-0.0025-0.00906-0.0041-0.014032-8.2e-4 -0.00414-0.0017-0.00743-0.0025-0.011553l-7.48e-4 -0.00357c-8.19e-4 -0.0033-0.0017-0.00662-0.0025-0.00992 0-0.00249-8.19e-4 -0.00578-8.19e-4 -0.00909l-8.19e-4 -0.00414-0.0041-0.026432c-8.2e-4 -0.00906-0.0041-0.017355-0.0083-0.025605-5e-3 -0.00992-0.01157-0.017355-0.019-0.02479-0.0041-0.0033-0.0074-0.00662-0.01074-0.00908-0.0041-0.00249-0.0074-0.00496-0.01074-0.00743-0.0074-0.00496-0.01487-0.00825-0.0223-0.011553-0.01404-0.00578-0.02891-0.00909-0.04378-0.00992-0.01487-7.436e-4 -0.02974-7.436e-4 -0.0446 0-0.0033 0-0.0074 0-0.01074 7.436e-4h-0.02314c-0.0033 7.435e-4 -0.0074 7.435e-4 -0.01074 7.435e-4 -0.01404 0-0.02891 0.00249-0.04295 0.00578-0.0083 0.00249-0.01569 0.00496-0.02395 0.00743-0.0066 0.00249-0.01239 0.00414-0.01817 0.00578-0.01404 0.00414-0.02891 0.00825-0.04295 0.011554-0.01404 0.00249-0.02808 0.00175-0.04212 0-0.01322-0.00248-0.02478-0.00662-0.03717-0.01073-0.01184-5e-3 -0.02341-0.00996-0.03414-0.017399-0.0223-0.014058-0.04213-0.030563-0.05699-0.051214-0.01239-0.016512-0.02395-0.033865-0.03387-0.052037l-0.0041-0.00743c-0.0083-0.014873-0.01652-0.029736-0.02478-0.044606-5e-3 -0.00825-0.0091-0.016512-0.01322-0.023949-5e-3 -0.00992-0.0099-0.018989-0.01487-0.028086-0.0099-0.017355-0.02065-0.03469-0.03139-0.05121-0.01982-0.03056-0.04048-0.060297-0.06195-0.090034-0.01569-0.023131-0.03221-0.04543-0.04708-0.067731-0.01404-0.020651-0.02561-0.040473-0.038-0.06195-0.01157-0.020651-0.019-0.042954-0.02313-0.066081-8.2e-4 -0.00496-8.2e-4 -0.00909-8.2e-4 -0.014032 0-0.00414 0-0.00908 8.2e-4 -0.013214 0.0017-0.00906 0.0041-0.018172 0.0066-0.027259 8.19e-4 -0.00414 0.0025-0.00906 0.0033-0.013215 0.0017-0.00496 0.0033-0.00992 0.0041-0.014032 0.0025-0.00906 0.0033-0.018989 0.0041-0.028083 5e-3 -0.050387 0.0033-0.1016 0-0.15198-0.0031-0.047436-0.0081-0.094517-0.02376-0.14077-0.02157-0.06021-0.04883-0.11473-0.07939-0.17007-0.0074-0.013214-0.01487-0.026433-0.02148-0.039648-0.03303-0.059474-0.06525-0.11977-0.10655-0.17346-0.05534-0.072688-0.11234-0.1429-0.17016-0.21311l-0.15281-0.18337v-2.3368h-1.6067"/>
</svg>
