<svg width="40" height="40" version="1.1" xmlns="http://www.w3.org/2000/svg">
 <path d="m4.6095 20.227h-1.6168s-0.28858-0.28877-0.23106-0.75089c0-0.4042 2.2521-4.0997 2.4254-5.3701v-2.1944c0-0.8084 1.5591-2.252 1.7322-3.4647 0.28877-0.86612 1.0509-2.5406 2.4831-3.0605 0.63506-0.23087 0.80821-0.80841 0.92364-1.7322 0.34669-0.80841 3.7052-1.6869 6.2366-2.1367 3.149-0.55916 6.525-0.11542 8.1997 0.11543 1.0509 0.13855 7.9686 4.1579 8.7193 11.434 0.17334 1.6745 2.4829 3.9845 3.1759 4.5041l-0.0579 0.86612 0.51964 0.46192c-0.17314 3.1182-2.8293 6.1787-4.504 6.4675-0.95843 0.16168-1.5154 0.88253-1.79 1.8477-0.34333 1.2069 0.09666 2.3289 1.1549 3.0028l0.75069-0.28877c0.34649-0.46192 2.2849-1.5856 2.1944-0.69298-0.0595 0.58664-0.69317 0.63526-1.0397 1.0972 0.57754 0.7507 0.11583 2.2521 0.11583 2.2521-1.2126 0.57735-0.51983 1.0395-0.51983 1.0395 0.57735 1.3857 2.0212 1.2704 3.0605 2.4829 0.56589 0.66985 0.6914 3.7268 0.69298 2.6563h-31.875v-0.51983c0.057911-1.4436 6.7329-5.3469 7.0448-7.9456 0.24252-2.079-4.0423-2.714-6.7563-2.9104 0 0-1.0047-0.15002-1.0393-0.7505-0.08084-0.78548 0.26565-1.2704 0.28898-1.6745 0.034587-0.51964-0.057911-1.8479-0.057911-1.8479l0.23086-0.8086-0.28877-0.34649 0.28877-0.98155s-0.057713-0.7505-0.46192-0.7505z" fill="#fff" stroke="#000" stroke-width="2.5"/>
</svg>
