<?xml version="1.0" encoding="UTF-8"?>
<svg width="20" height="20" version="1.1" viewBox="0 0 450 450" xmlns="http://www.w3.org/2000/svg" xmlns:cc="http://creativecommons.org/ns#" xmlns:dc="http://purl.org/dc/elements/1.1/" xmlns:rdf="http://www.w3.org/1999/02/22-rdf-syntax-ns#">
 <metadata>
  <rdf:RDF>
   <cc:Work rdf:about="">
    <dc:format>image/svg+xml</dc:format>
    <dc:type rdf:resource="http://purl.org/dc/dcmitype/StillImage"/>
    <dc:title/>
   </cc:Work>
  </rdf:RDF>
 </metadata>
 <rect x=".25001" y=".25" width="449.5" height="449.5" ry="25.226" fill="#fff" stroke="#000" stroke-width=".49945"/>
 <rect x="12" y="12" width="426" height="426" ry="17.579" fill="#006e55"/>
 <g fill="#fff">
  <g stroke-width="1.7668">
   <path d="m225.05 167.31c-0.0587-6.1387-1.5192-11.634-4.3809-16.485-2.8618-4.8514-6.7721-8.6024-11.731-11.253-3.0452-1.5813-7.0869-3.1523-12.125-4.713-5.0383-1.5606-11.239-3.0901-18.602-4.5885-6.765-1.5017-11.423-3.1489-13.973-4.9415-2.5504-1.7924-3.7615-4.1869-3.6334-7.1837 0.0415-3.6021 1.6194-6.4051 4.7337-8.4088 3.1143-2.0035 7.5159-3.0208 13.205-3.0521 5.2493 9e-5 10.115 0.91362 14.596 2.7406 4.4811 1.8272 8.4743 4.5678 11.98 8.2219l14.783-13.288c-5.6371-5.7994-11.887-10.104-18.749-12.914-6.862-2.8097-14.399-4.2078-22.609-4.194-11.475 0.13516-20.666 2.9795-27.572 8.5333-6.9068 5.554-10.45 13.008-10.63 22.36-2e-5 3.5124 0.58133 6.8689 1.744 10.07 1.1627 3.2009 2.9067 6.1007 5.2321 8.6994 2.232 2.6092 5.0348 4.7408 8.4088 6.3948 3.3738 1.6541 7.8793 3.1214 13.516 4.4016l5.3152 1.661 5.1491 1.1627 5.1491 1.4949c2.4844 0.59523 4.8236 1.2735 7.0176 2.0346 2.1938 0.76133 4.2839 1.5226 6.2703 2.2839 2.3252 1.1697 4.0692 2.6092 5.2321 4.3185 1.1626 1.7095 1.744 3.6473 1.744 5.8134-0.12809 4.2355-2.4051 7.6821-6.8307 10.34-4.426 2.6576-10.232 4.0279-17.42 4.1109-6.1699 0.0208-11.644-1.1004-16.423-3.3634-4.7788-2.2631-9.215-5.7926-13.309-10.589l-15.946 12.457c6.1733 7.2148 13.011 12.592 20.512 16.132 7.5021 3.5399 16.001 5.3048 25.496 5.2943 5.194-0.0111 10.211-0.65401 15.053-1.9309 4.841-1.2769 9.2356-3.1247 13.184-5.5434 10.436-6.118 15.641-14.81 15.613-26.078z"/>
   <path d="m297.79 231.31v-19.599h-83.547v19.599h32.056v91.687h19.433v-91.687z"/>
   <path d="m373.52 411.46v-19.931h-62.952v-30.396h33.219v-20.429h-33.219v-20.595h60.957v-19.931h-81.222v111.29z"/>
  </g>
  <path d="m31.2 20.82c-5.5222 0-9.9155 4.485-9.9155 10.007v388.45c0 5.5222 4.3938 9.8384 9.9155 9.9154l17.885 0.24972c11.038 0.33183 23.453-6.0742 24.888-6.9445 9.2215-5.5915 14.653-11.111 17.621-14.821 2.9678-3.7097 7.0537-9.4797 8.9012-15.357 1.1091-3.5284 0.38239-8.3366 0.38239-8.3366s3.2265 2.5387 5.2923 0.73057c1.1137-1.4548 10.403-12.389 16.781-19.918l43.496-53.162-40.848-4.801-5.8941 7.5974c-1.2415-3.7182-2.2405-10.785-2.4789-15.791-0.20712-4.3488 1.2158-8.4566 2.4789-11.66v-8.9056c-0.1892-0.15658-0.31915-0.30577-0.55086-0.45905-2.012-1.3309-12.809 0.41657-17.26-2.5707-3.8505-2.5838-6.3069-2.3666-9.0892-4.4069-2.7822-2.0406-10.532 0.0917-13.129 0.0917-2.5968 0-10.18-2.2412-11.293-7.6202-1.1129-5.379 2.0953-18.099 3.856-21.3 2.0403-3.7097-0.34115-4.4577-2.9379-8.5383-2.5968-4.0806-7.2455-3.7194-7.9874-8.1711-0.74192-4.4516 2.1116-4.6525 2.1116-7.6202 0-2.9678 0.14043-2.672-1.5608-5.5086-1.908-3.1814-0.3784-10.425 0.73448-14.506 1.0836-3.9733 4.6823-7.9558 4.6823-11.109s-0.91809-3.9478-0.91809-3.9478-2.0818-1.7426-5.0495-1.928c-2.9677-0.18538-7.0152 2.8924-13.588-5.2332-6.6939-8.2755 13.567-41.538 15.608-46.731 2.0403-5.1936 17.478-26.14 23.228-28.736 5.75-2.5968 7.1565-7.6364 7.3448-10.65 0.18539-2.9677 0.38029-5.5724-0.91809-8.3547-1.5688-3.3616-3.6724-3.3075-3.6724-12.211 0-8.9032 11.096-29.432 21.851-45.17l1.8392-2.5831c-2.2147-1e-3 -0.85561 0.0118-3.3081 0.0118h-78.497z"/>
  <path d="m178.84 304.49a27.911 27.91 0 1 1-55.822 0 27.911 27.91 0 1 1 55.822 0z" stroke-width="2.9007"/>
 </g>
 <path d="m175.92 304.55a24.973 24.973 0 1 1-49.947 0 24.973 24.973 0 1 1 49.947 0z" fill="#006e55" stroke-width="2.5954"/>
 <path d="m172.58 304.58a21.667 21.668 0 1 1-43.335 0 21.667 21.668 0 1 1 43.335 0z" fill="#fff" stroke-width="2.2519"/>
 <path d="m169.67 304.58a18.73 18.73 0 1 1-37.46 0 18.73 18.73 0 1 1 37.46 0z" fill="#006e55" stroke-width="1.9466"/>
 <g fill="#fff">
  <rect transform="rotate(-5)" x="121.24" y="304.81" width="5.1413" height="23.503"/>
  <rect transform="rotate(85)" x="313.99" y="-135.56" width="5.1413" height="23.503"/>
  <g>
   <rect transform="rotate(-18.208)" x="46.729" y="315.92" width="2.9379" height="41.131"/>
   <rect transform="matrix(-.98976 -.14277 -.14277 .98976 0 0)" x="-194.34" y="259.33" width="2.9379" height="41.131"/>
   <rect transform="matrix(.14277 -.98976 -.98976 -.14277 0 0)" x="-281.36" y="-213.44" width="2.9379" height="41.131"/>
   <rect transform="rotate(71.792)" x="335.01" y="-68.769" width="2.9379" height="41.131"/>
  </g>
  <path d="m150.92 304.54a5.7065e-5 3.0348e-5 85 1 1-6e-5 1e-5 5.7065e-5 3.0348e-5 85 1 1 6e-5 -1e-5z" stroke-width="2.9379"/>
 </g>
 <path d="m153.12 304.44a2.2034 2.2034 83.833 1 1-4.3901 0.38409 2.2034 2.2034 83.833 1 1 4.3901-0.38409z" fill="#006e55" stroke-width="4.8168"/>
 <path d="m86.68 365.24 37.097-45.258 16.323 13.355-38.21 45.258z" fill-opacity="0" stroke="#006e55" stroke-width="2.9379px"/>
 <g fill="none" stroke="#006e55" stroke-width="2.9379px">
  <path d="m119.69 332.22 16.68-1.6281"/>
  <path d="m121.08 342.51-3.2076-14.436"/>
  <path d="m132.86 341.49-22.009 2.6511"/>
  <path d="m127.72 323.4 2.0085 9.1694"/>
  <path d="m109 338.85 4.2793 16.589"/>
  <path d="m103.02 356.97 19.208-2.4881"/>
  <path d="m100.84 348.58 6.9316 23.303"/>
  <path d="m97.47 369.27 9.3198-1.5651"/>
  <path d="m93.46 357.4 3.6235 11.264"/>
 </g>
 <path d="m362.16 65.2h-265.52s0.44415-6.1868 1.4431-9.5379c1.5644-5.2483 5.5773-10.75 5.5773-10.75l14.656-8.1049 0.26618-10.819h243.58z" fill="#fff"/>
 <g fill="#006e55">
  <path d="m303.21 34.04 13.503 10.341-13.503 10.693-13.503-10.693z" stroke-width="0"/>
  <path d="m279.85 44.38 11.384 9.7318h-8.8137v5.1413l-18.362-14.873 18.362-13.955v5.2332h8.8152z" stroke="#006e55" stroke-width=".58758"/>
  <path d="m326.57 44.38-11.384 9.7318h8.8137v5.1413l18.362-14.873-18.362-13.955v5.2332h-8.8152z" stroke="#006e55" stroke-width=".58758"/>
  <path d="m220.69 33.62 13.503 10.341-13.503 10.693-13.503-10.693z" stroke-width="0"/>
  <path d="m197.33 43.96 11.384 9.7318h-8.8137v5.1413l-18.362-14.873 18.362-13.955v5.2332h8.8152z" stroke="#006e55" stroke-width=".58758"/>
  <path d="m244.05 43.96-11.384 9.7318h8.8137v5.1413l18.362-14.873-18.362-13.955v5.2332h-8.8152z" stroke="#006e55" stroke-width=".58758"/>
  <path d="m139.11 33.43 13.503 10.341-13.503 10.693-13.503-10.693z" stroke-width="0"/>
  <g stroke="#006e55" stroke-width=".58758">
   <path d="m115.75 43.77 11.384 9.7318h-8.8137v5.1414l-18.362-14.873 18.362-13.955v5.2332h8.8152z"/>
   <path d="m162.47 43.77-11.384 9.7318h8.8137v5.1414l18.362-14.873-18.362-13.955v5.2332h-8.8152z"/>
   <path d="m361.95 44.88 11.384 9.7318h-8.8137v5.1414l-18.362-14.873 18.362-13.955v5.2332h8.8152z"/>
  </g>
  <path d="m84.85 371.59c9.2568 1.269 11.362 11.319 10.53 17.168-0.77901 5.4532-6.6625 13.503-10.817 18.177-4.1548 4.6742-12.724 9.8677-17.398 11.426-4.6742 1.5581-10.053 2.4404-13.438 2.402-2.8916-0.0328-7.4615-0.60948-10.56-2.3701-0.98844-0.56165-3.0227-1.8979-4.4783-3.5289-0.52025-0.8275 0.29522-2.5803 1.5957-2.3479 1.3738 0.24552 1.7372 1.2153 3.9347 2.2903 2.162 1.0576 3.802 1.3429 5.3578 1.287 3.2063-0.11529 4.1026-0.5312 5.4947-1.4138 1.2984-1.0387-0.17907-1.533-0.94584-1.6719-2.5238-0.45716-3.6708-0.39418-5.6073-0.66392-1.6957-0.23619-4.2417-0.66494-6.1334-2.1519-0.51606-0.40562-2.155-1.5448-2.8412-3.2871-0.47465-1.2052 0.0441-2.0808 0.0441-2.0808 0.84026-1.9669 2.4565-0.69477 2.808-0.0116 1.5788 3.0681 7.3504 4.3634 10.606 3.6544 1.5082-0.32852 2.7071-0.63134 3.5405-1.0664 1.9592-1.0227 4.0298-3.264 1.9469-4.1793-1.0327-0.45386-2.6283-0.47744-5.7218-0.53544-3.4371-0.0644-6.4221-0.57986-7.708-2.0068-0.70652-0.78398-0.50388-2.1341 0.0455-2.5608 0.86894-0.86624 3.0729 0.20641 6.4487 0.20641 2.4005 0 5.103-0.93317 6.5424-1.7538 1.005-0.57298 2.6267-1.9829 3.4959-3.7697 0.36501-0.75031 1.005-1.8664 1.3591-3.1857 0.35439-1.3206 0.71868-2.2918 0.96734-3.1976 1.3764-5.0142 5.1085-9.1947 7.4913-11.41 3.8391-3.3208 9.3418-4.2912 13.442-3.4176z"/>
 </g>
 <path d="m98.44 368.68c-1.4723 0.19843-2.5247 1.6567-3.3314 3.852" fill="none" stroke="#006e55" stroke-width="2.9379px"/>
</svg>
