<svg width="25" height="20" version="1.0" viewBox="0 0 24.966 19.967" xmlns="http://www.w3.org/2000/svg">
 <path d="M15 177.91c0-12.782.585-25.427 1.729-37.91h716.54a415.141 415.141 0 0 1 1.73 37.91c0 209.51-157.14 382.32-360 406.98-202.86-24.662-360-197.47-360-406.98z" transform="matrix(.03287 0 0 .03282 .176 .1)" fill="#003f87" stroke="#fff" stroke-width="22.44"/>
 <path d="M47.378 17.943c50.892 13.635 104.39 20.906 159.58 20.906 58.261 0 114.63-8.101 168.04-23.238 53.411 15.137 109.78 23.238 168.04 23.238 55.194 0 108.69-7.27 159.58-20.906a407.142 407.142 0 0 1 28.996 107.06H18.374A407.254 407.254 0 0 1 47.37 17.943z" transform="matrix(.03289 0 0 .03337 .17 .119)" fill="#af1e2d" stroke="#fff" stroke-width="22.249"/>
</svg>
