<svg width="50" height="40" version="1.0" viewBox="0 0 49.933 39.934" xmlns="http://www.w3.org/2000/svg">
 <g transform="matrix(.067667 0 0 .068065 -.40871 -.48342)" fill="#006b54" stroke="#fff" stroke-width="17.917">
  <path d="m15 177.91c0-12.782 0.58496-25.427 1.729-37.91h716.54c1.1445 12.483 1.7295 25.128 1.7295 37.91 0 209.51-157.14 382.32-360 406.98-202.86-24.662-360-197.47-360-406.98z" fill="#006b54" stroke="#fff" stroke-width="17.917"/>
 </g>
 <g transform="matrix(.067697 0 0 .069207 -.41968 -.44638)" fill="#006b54" stroke="#fff" stroke-width="17.764">
  <path d="m47.378 17.943c50.892 13.635 104.39 20.906 159.58 20.906 58.261 0 114.63-8.1011 168.04-23.238 53.411 15.137 109.78 23.238 168.04 23.238 55.194 0 108.69-7.2705 159.58-20.906 14.262 33.625 24.164 69.546 28.996 107.06h-713.24c4.833-37.51 14.734-73.432 28.996-107.06z" fill="#006b54" stroke="#fff" stroke-width="17.764"/>
 </g>
</svg>
