<svg width="20" height="20" xmlns="http://www.w3.org/2000/svg">
 <path d="m3.0324 5e-7 0.43981 3.1685h-3.4722l1.9676 16.831h16.065l1.9676-16.831h-3.4722l0.43981-3.1685z" fill="#006b54"/>
 <path d="M14.206 8.8204h-2.1439v5.5371h-1.7704v-5.5371h-2.1439v-1.3278h6.0581zM21.283 11.872q0 1.2725-.77456 1.9502t-2.2822.67774-2.2822-.67774q-.76994-.67774-.76994-1.9456v-4.3845h1.7796v4.2831q0 .71462.29968 1.065t.9728.35039q.6639 0 .96819-.33656.3089-.33656.3089-1.0788v-4.2831h1.7796zM26.788 9.5949q0-.25819-.10604-.4426-.10604-.18442-.36423-.29046-.17981-.073767-.41955-.087598-.23974-.018442-.55786-.018442h-.64085v1.8488h.54403q.42416 0 .71001-.04149.28585-.0415.47949-.18903.18442-.14292.26741-.31351.0876-.1752.0876-.46566zm2.7617 4.7626h-2.1623l-1.8718-2.5173h-.81605v2.5173h-1.7612v-6.865h2.9691q.60858 0 1.0466.069157.43799.069157.82066.29968.38728.23052.61319.59936.23052.36423.23052.91748 0 .76072-.355 1.2402-.35039.47949-1.0051.79761zM36.566 14.358h-1.7059l-2.9138-4.7119v4.7119h-1.6229v-6.865h2.1162l2.5035 3.9327v-3.9327h1.6229zM16.34 18.63q0 .46104-.16137.90365-.16136.43799-.46104.73767-.41033.40572-.91748.61319-.50254.20747-1.254.20747h-1.1019v2.2361h-1.7704v-6.865h2.9138q.65468 0 1.1019.11526.45182.11065.79761.33656.41494.27202.63163.69618.2213.42416.2213 1.0189zm-1.8303.04149q0-.29046-.15676-.49793-.15676-.21208-.36423-.29507-.27663-.11065-.53942-.11987-.2628-.01383-.70079-.01383h-.30429v2.0563h.50715q.45182 0 .74228-.05532.29507-.05533.49332-.2213.17059-.14753.24435-.35039.07838-.20747.07838-.50254zM21.306 23.328h-4.0203v-1.2172h1.125v-4.4306h-1.125v-1.2172h4.0203v1.2172h-1.125v4.4306h1.125zM29.157 23.328h-2.1715l-2.0516-2.7478-.41494.50254v2.2453h-1.7704v-6.865h1.7704v3.1074l2.4528-3.1074h2.0516l-2.6833 3.1766zM34.994 23.328h-4.9655v-6.865h4.9655v1.3278h-3.2043v1.1849h2.9737v1.3278h-2.9737v1.6966h3.2043z" style="font-variant-caps:normal;font-variant-east-asian:normal;font-variant-ligatures:normal;font-variant-numeric:normal" transform="matrix(.55679 0 0 .9531 -2.7 -3.017)" fill="#fff" aria-label="TURN PIKE"/>
</svg>
