<?xml version="1.0" encoding="UTF-8" standalone="no"?>
<svg
   xmlns:dc="http://purl.org/dc/elements/1.1/"
   xmlns:cc="http://creativecommons.org/ns#"
   xmlns:rdf="http://www.w3.org/1999/02/22-rdf-syntax-ns#"
   xmlns:svg="http://www.w3.org/2000/svg"
   xmlns="http://www.w3.org/2000/svg"
   xmlns:sodipodi="http://sodipodi.sourceforge.net/DTD/sodipodi-0.dtd"
   xmlns:inkscape="http://www.inkscape.org/namespaces/inkscape"
   version="1.0"
   width="23.444807"
   height="17.209255"
   viewBox="0 0 23.413589 17.180593"
   id="Layer_1"
   xml:space="preserve"
   sodipodi:version="0.32"
   inkscape:version="1.0.2 (e86c870879, 2021-01-15, custom)"
   sodipodi:docname="us-interstate_3.svg"
   inkscape:output_extension="org.inkscape.output.svg.inkscape"
   sodipodi:modified="true"><metadata
   id="metadata36"><rdf:RDF><cc:Work
       rdf:about=""><dc:format>image/svg+xml</dc:format><dc:type
         rdf:resource="http://purl.org/dc/dcmitype/StillImage" /><dc:title></dc:title></cc:Work></rdf:RDF></metadata><sodipodi:namedview
   inkscape:window-height="1001"
   inkscape:window-width="1920"
   inkscape:pageshadow="2"
   inkscape:pageopacity="0.0"
   guidetolerance="10.0"
   gridtolerance="10.0"
   objecttolerance="10.0"
   borderopacity="1.0"
   bordercolor="#666666"
   pagecolor="#ffffff"
   id="base"
   width="751px"
   height="601px"
   inkscape:zoom="22.627417"
   inkscape:cx="3.6904157"
   inkscape:cy="13.234328"
   inkscape:window-x="-9"
   inkscape:window-y="-9"
   inkscape:current-layer="Layer_1"
   inkscape:document-rotation="0"
   showgrid="false"
   inkscape:window-maximized="1" /><defs
   id="defs62">
	
	
	
	
</defs>
<g
   transform="matrix(0.03117655,0,0,0.0311766,0.01558826,-1.5379391)"
   id="g5"
   style="fill:#ffffff;fill-opacity:1;stroke:#000000;stroke-width:0;stroke-miterlimit:4;stroke-dasharray:none;stroke-opacity:1">
		
		
			<path
   id="path9"
   style="fill:#ffffff;fill-opacity:1;stroke:#000000;stroke-width:0;stroke-linecap:round;stroke-linejoin:round;stroke-miterlimit:4;stroke-dasharray:none;stroke-opacity:1"
   d="m 39.692241,51.29525 c 56.430097,7.753384 105.823949,16.854802 164.156959,16.854802 58.33252,0 117.83,-2.883812 171.1508,-18.408715 53.32031,15.524903 123.69862,17.631515 182.03163,17.631515 58.33301,0 98.40043,-1.329411 151.72074,-16.854802 C 740.72766,101.53034 750,114.3877 750,177.90918 750,286.81347 735.4649,432.0045 668.10992,507.20775 600.75494,582.41099 480.58008,587.62646 375,599.99902 269.41943,587.62646 153.13057,581.63379 85.775718,506.43055 18.420859,431.2273 0,286.81347 0,177.90918 0,114.3877 10.049049,99.198738 39.692241,51.29525 Z"
   sodipodi:nodetypes="cscscsscssc" />
	</g><g
   transform="matrix(0.0301681,0,0,0.03030406,0.39375409,-1.2657585)"
   id="g11"
   style="fill:#003f87;fill-opacity:1">
		<path
   id="path13"
   style="fill:#003f87;fill-opacity:1"
   d="m 15,177.90918 c 0,-12.78174 0.584961,-25.42676 1.729004,-37.91016 H 733.27051 C 734.41504,152.48242 735,165.12744 735,177.90918 735,282.66602 721.18467,422.04348 656.5416,494.51687 591.89853,566.99026 476.42773,572.55957 375,584.89062 273.57226,572.55957 160.417,565.4535 95.773929,492.98011 31.130861,420.50672 15,282.66602 15,177.90918 Z"
   sodipodi:nodetypes="sccsscss" />
	</g><g
   transform="matrix(0.0301812,0,0,0.01661472,0.38886109,0.52543647)"
   id="g15"
   style="fill:#af1e2d;fill-opacity:1">
		<path
   id="path17"
   style="fill:#af1e2d;fill-opacity:1"
   d="m 47.37793,17.942871 c 50.892089,13.635254 104.38769,20.90625 159.58203,20.90625 58.26074,0 114.6294,-8.101074 168.04004,-23.237793 53.41113,15.136719 109.7793,23.237793 168.04004,23.237793 55.19434,0 108.69043,-7.270508 159.58105,-20.90625 14.26172,33.624512 24.16407,69.546387 28.9961,107.056149 H 18.381836 C 23.214844,87.489258 33.116211,51.567383 47.37793,17.942871 Z" />
	</g>







</svg>
