<?xml version="1.0" encoding="UTF-8" standalone="no"?>
<svg
   xmlns:dc="http://purl.org/dc/elements/1.1/"
   xmlns:cc="http://creativecommons.org/ns#"
   xmlns:rdf="http://www.w3.org/1999/02/22-rdf-syntax-ns#"
   xmlns:svg="http://www.w3.org/2000/svg"
   xmlns="http://www.w3.org/2000/svg"
   xmlns:sodipodi="http://sodipodi.sourceforge.net/DTD/sodipodi-0.dtd"
   xmlns:inkscape="http://www.inkscape.org/namespaces/inkscape"
   version="1.0"
   width="18.576347"
   height="17.139885"
   viewBox="0 0 18.545439 17.111338"
   id="Layer_1"
   xml:space="preserve"
   sodipodi:version="0.32"
   inkscape:version="1.0.2 (e86c870879, 2021-01-15, custom)"
   sodipodi:docname="us-interstate_2.svg"
   inkscape:output_extension="org.inkscape.output.svg.inkscape"
   sodipodi:modified="true"><metadata
   id="metadata36"><rdf:RDF><cc:Work
       rdf:about=""><dc:format>image/svg+xml</dc:format><dc:type
         rdf:resource="http://purl.org/dc/dcmitype/StillImage" /><dc:title></dc:title></cc:Work></rdf:RDF></metadata><sodipodi:namedview
   inkscape:window-height="968"
   inkscape:window-width="1280"
   inkscape:pageshadow="2"
   inkscape:pageopacity="0.0"
   guidetolerance="10.0"
   gridtolerance="10.0"
   objecttolerance="10.0"
   borderopacity="1.0"
   bordercolor="#666666"
   pagecolor="#ffffff"
   id="base"
   width="601px"
   height="601px"
   inkscape:zoom="39.156412"
   inkscape:cx="9.564736"
   inkscape:cy="8.6080587"
   inkscape:window-x="584"
   inkscape:window-y="83"
   inkscape:current-layer="Layer_1"
   inkscape:document-rotation="0"
   showgrid="false"
   inkscape:window-maximized="0" /><defs
   id="defs1659">
	
	
	
	
</defs>
<g
   transform="matrix(0.02995008,0,0,0.02995013,0.28768433,-1.1252917)"
   style="fill:#ffffff;fill-opacity:1;stroke:#000000;stroke-width:0.999999;stroke-miterlimit:4;stroke-dasharray:none;stroke-opacity:1"
   id="g1600">
		
		
			<path
   id="path1604"
   style="fill:#ffffff;fill-opacity:1;stroke:#000000;stroke-width:0;stroke-linecap:round;stroke-linejoin:round;stroke-miterlimit:4;stroke-dasharray:none;stroke-opacity:1"
   d="m 77.242372,38.086871 c 32.645278,13.258304 67.673508,29.334523 106.968328,29.334523 39.29431,0 74.58849,-6.816961 115.7893,-24.509832 42.80497,15.212113 76.48379,24.647653 115.7781,24.647653 39.29432,0 64.31183,-15.111483 103.54666,-26.690621 90.89778,58.596623 89.76554,98.399146 89.76554,188.882016 0,93.46058 -13.93337,232.90948 -69.16138,299.72824 C 484.70092,596.29762 388.17826,590.48625 300,608.38522 211.82172,590.48625 112.09072,590.68302 56.862704,523.86426 1.6346967,457.04549 -9.0903113,323.21119 -9.0903113,229.75061 c 0,-90.48287 1.4021515,-125.15103 86.3326833,-191.663739 z"
   sodipodi:nodetypes="cscscsscssc" />
	</g><g
   style="fill:#003f87;fill-opacity:1;stroke:none;stroke-opacity:1"
   transform="matrix(0.03021281,0,0,0.03030854,0.20887433,-1.2503217)"
   id="g1606">
		<path
   id="path1608"
   style="fill:#003f87;fill-opacity:1;stroke:none;stroke-opacity:1"
   d="m 15,232.5 c 0,-31.979 4.169434,-62.98389 11.994629,-92.50098 H 573.00586 C 580.83008,169.51611 585,200.521 585,232.5 585,319.05273 573.74974,447.70529 522.85301,509.79818 471.95628,571.89108 381.41308,567.42432 300,584.67676 218.58716,567.42432 129.58741,571.12179 78.690626,509.02889 27.793836,446.93599 15,319.05273 15,232.5 Z"
   sodipodi:nodetypes="sccsscss" />
	</g><g
   style="fill:#af1e2d;fill-opacity:1;stroke:none;stroke-opacity:1"
   transform="matrix(0.03037638,0,0,0.0118365,0.15980433,1.1389182)"
   id="g1610">
		<path
   id="path1612"
   style="fill:#af1e2d;fill-opacity:1;stroke:none;stroke-opacity:1"
   d="M 31.324219,124.99902 C 43.579102,85.77832 64.736805,6.7929263 88.776844,-25.387738 c 33.101556,9.132812 65.593766,56.660199 101.600106,56.660199 38.06055,0 77.36568,-22.620445 109.62305,-52.172679 35.61473,29.552234 71.5625,52.172679 109.62305,52.172679 36.00586,0 69.33837,-25.9871448 101.6006,-56.660199 24.03906,32.1806643 45.19725,111.166058 57.45213,150.386758 z"
   sodipodi:nodetypes="ccscsccc" />
	</g>






</svg>
